M48
; DRILL file {KiCad 8.0.1} date 2024-08-23T17:24:49+0100
; FORMAT={-:-/ absolute / metric / decimal}
; #@! TF.CreationDate,2024-08-23T17:24:49+01:00
; #@! TF.GenerationSoftware,Kicad,Pcbnew,8.0.1
; #@! TF.FileFunction,Plated,1,2,PTH
FMAT,2
METRIC
; #@! TA.AperFunction,Plated,PTH,ViaDrill
T1C0.300
; #@! TA.AperFunction,Plated,PTH,ComponentDrill
T2C0.500
; #@! TA.AperFunction,Plated,PTH,ComponentDrill
T3C0.700
; #@! TA.AperFunction,Plated,PTH,ComponentDrill
T4C0.750
; #@! TA.AperFunction,Plated,PTH,ComponentDrill
T5C0.800
; #@! TA.AperFunction,Plated,PTH,ComponentDrill
T6C1.000
; #@! TA.AperFunction,Plated,PTH,ComponentDrill
T7C1.100
; #@! TA.AperFunction,Plated,PTH,ComponentDrill
T8C1.600
; #@! TA.AperFunction,Plated,PTH,ComponentDrill
T9C2.700
%
G90
G05
T1
X110.49Y-115.57
X114.3Y-115.57
X114.751Y-122.472
X116.84Y-121.92
X118.11Y-104.14
X118.681Y-127.593
X118.71Y-103.47
X119.31Y-105.762
X119.38Y-121.92
X120.65Y-96.52
X121.92Y-113.03
X121.92Y-128.27
X123.5Y-103.75
X124.46Y-113.03
X124.46Y-116.84
X124.46Y-128.27
X128.0Y-112.0
X129.54Y-127.0
X129.54Y-129.54
X130.81Y-120.65
X133.75Y-112.25
X137.0Y-112.25
X142.24Y-117.75
X146.05Y-116.84
X148.594Y-113.004
X149.43Y-110.49
X153.67Y-110.49
X156.21Y-96.52
X156.21Y-115.57
X156.21Y-118.11
X161.29Y-115.57
X161.29Y-118.11
X161.29Y-120.65
T2
X118.11Y-60.96
X118.11Y-63.5
X118.11Y-80.01
X118.11Y-82.55
X124.422Y-86.322
X124.422Y-88.862
X124.422Y-91.402
X124.422Y-93.942
X133.35Y-128.27
X133.35Y-130.81
X133.35Y-133.35
X133.35Y-135.89
X141.284Y-130.783
X149.822Y-86.322
X149.822Y-88.862
X149.822Y-91.402
X149.822Y-93.942
X156.524Y-131.418
X158.75Y-86.36
X158.75Y-88.9
T3
X166.37Y-149.86
X168.91Y-149.86
T4
X146.364Y-131.418
X146.364Y-132.688
X146.364Y-133.958
X153.349Y-131.418
X153.349Y-132.688
X153.349Y-133.958
T5
X151.13Y-102.87
X151.13Y-105.41
X151.13Y-107.95
X151.13Y-110.49
X151.13Y-113.03
X151.13Y-115.57
X151.13Y-118.11
X151.13Y-120.65
X158.75Y-102.87
X158.75Y-105.41
X158.75Y-107.95
X158.75Y-110.49
X158.75Y-113.03
X158.75Y-115.57
X158.75Y-118.11
X158.75Y-120.65
T6
X107.95Y-109.23
X107.95Y-124.47
X109.22Y-139.7
X109.22Y-142.24
X109.22Y-144.78
X110.49Y-109.23
X110.49Y-124.47
X113.03Y-109.23
X113.03Y-124.47
X114.865Y-58.43
X114.865Y-60.97
X114.865Y-63.51
X114.865Y-66.05
X114.865Y-77.47
X114.865Y-80.01
X114.865Y-82.55
X114.865Y-85.09
X114.865Y-87.63
X114.865Y-90.17
X115.57Y-109.23
X115.57Y-124.47
X118.11Y-109.23
X118.11Y-124.47
X120.65Y-109.23
X120.65Y-124.47
X123.19Y-109.23
X123.19Y-124.47
X125.73Y-109.23
X125.73Y-124.47
X128.232Y-86.322
X128.232Y-88.862
X128.232Y-91.402
X128.232Y-93.942
X128.232Y-96.482
X128.232Y-99.022
X128.27Y-109.23
X128.27Y-124.47
X130.81Y-109.23
X130.81Y-124.47
X132.08Y-83.82
X133.35Y-109.23
X133.35Y-124.47
X134.62Y-83.82
X135.89Y-109.23
X135.89Y-124.47
X137.16Y-83.82
X138.43Y-109.23
X138.43Y-124.47
X139.7Y-83.82
X140.97Y-109.23
X140.97Y-124.47
X142.24Y-83.82
X143.51Y-109.23
X143.51Y-124.47
X146.012Y-86.322
X146.012Y-88.862
X146.012Y-91.402
X146.012Y-93.942
X146.012Y-96.482
X146.012Y-99.022
X148.59Y-144.25
X151.13Y-144.25
X153.67Y-144.25
X156.21Y-144.25
X158.75Y-144.25
X161.995Y-78.74
X161.995Y-81.28
X161.995Y-83.82
X161.995Y-86.36
X161.995Y-88.9
X161.995Y-91.44
X162.56Y-101.6
X162.56Y-104.14
X162.56Y-106.68
X162.56Y-109.22
X162.56Y-111.76
X162.56Y-114.3
X162.56Y-116.84
X162.56Y-119.38
X162.56Y-121.92
X167.64Y-139.7
X167.64Y-142.24
X167.64Y-144.78
X168.91Y-128.27
X168.91Y-130.81
X168.91Y-133.35
T7
X106.395Y-100.33
X112.045Y-100.33
T8
X118.163Y-132.179
X122.227Y-132.179
X122.227Y-134.79
X126.291Y-132.179
X126.291Y-134.79
X130.355Y-132.179
X130.355Y-134.79
T9
X114.0Y-72.0
X114.0Y-130.0
X163.0Y-72.0
X163.0Y-130.0
M30
