%TF.GenerationSoftware,KiCad,Pcbnew,8.0.1*%
%TF.CreationDate,2024-08-24T13:25:50+01:00*%
%TF.ProjectId,ProjectALIENMainBoard,50726f6a-6563-4744-914c-49454e4d6169,1.0*%
%TF.SameCoordinates,Original*%
%TF.FileFunction,Legend,Bot*%
%TF.FilePolarity,Positive*%
%FSLAX46Y46*%
G04 Gerber Fmt 4.6, Leading zero omitted, Abs format (unit mm)*
G04 Created by KiCad (PCBNEW 8.0.1) date 2024-08-24 13:25:50*
%MOMM*%
%LPD*%
G01*
G04 APERTURE LIST*
%ADD10C,0.100000*%
%ADD11C,0.175000*%
%ADD12C,0.121920*%
%ADD13C,0.150000*%
%ADD14C,0.200000*%
%ADD15C,0.050000*%
%ADD16C,0.152400*%
%ADD17C,0.120000*%
G04 APERTURE END LIST*
D10*
G36*
X111816664Y-137330000D02*
G01*
X111816664Y-137416217D01*
X111928283Y-137435268D01*
X111928283Y-138219288D01*
X111816664Y-138238583D01*
X111816664Y-138325289D01*
X111928283Y-138325289D01*
X112064082Y-138325289D01*
X112552323Y-137549330D01*
X112556475Y-137550795D01*
X112556475Y-138219288D01*
X112434110Y-138238583D01*
X112434110Y-138325289D01*
X112680062Y-138325289D01*
X112791437Y-138325289D01*
X112791437Y-138238583D01*
X112680062Y-138219288D01*
X112680062Y-137330000D01*
X112556964Y-137330000D01*
X112056022Y-138109867D01*
X112051870Y-138108646D01*
X112051870Y-137435268D01*
X112174235Y-137416217D01*
X112174235Y-137330000D01*
X111816664Y-137330000D01*
G37*
G36*
X112903789Y-137330000D02*
G01*
X112903789Y-137416217D01*
X113015163Y-137435268D01*
X113015163Y-138219288D01*
X112903789Y-138238583D01*
X112903789Y-138325289D01*
X113640669Y-138325289D01*
X113640669Y-138086175D01*
X113532714Y-138086175D01*
X113517571Y-138221486D01*
X113149741Y-138221486D01*
X113149741Y-137897376D01*
X113516838Y-137897376D01*
X113516838Y-137791374D01*
X113149741Y-137791374D01*
X113149741Y-137431116D01*
X113539553Y-137431116D01*
X113554452Y-137568625D01*
X113661919Y-137568625D01*
X113661919Y-137330000D01*
X112903789Y-137330000D01*
G37*
G36*
X114154556Y-137315589D02*
G01*
X114103970Y-137317695D01*
X114054427Y-137324013D01*
X114005928Y-137334542D01*
X113979434Y-137342212D01*
X113932772Y-137359565D01*
X113887308Y-137381401D01*
X113843042Y-137407719D01*
X113818967Y-137424277D01*
X113818967Y-137637013D01*
X113923503Y-137637013D01*
X113945973Y-137480453D01*
X113989311Y-137457491D01*
X114035976Y-137439895D01*
X114042449Y-137437955D01*
X114092992Y-137427261D01*
X114143362Y-137423187D01*
X114154556Y-137423056D01*
X114206655Y-137426482D01*
X114255007Y-137437836D01*
X114270327Y-137443817D01*
X114314590Y-137470424D01*
X114343112Y-137501458D01*
X114363651Y-137547010D01*
X114368513Y-137587676D01*
X114360764Y-137638242D01*
X114346531Y-137668276D01*
X114313035Y-137704864D01*
X114274480Y-137729581D01*
X114227711Y-137749925D01*
X114178630Y-137765439D01*
X114137459Y-137775743D01*
X114088153Y-137788703D01*
X114037427Y-137805655D01*
X113991725Y-137825119D01*
X113964047Y-137839490D01*
X113919531Y-137869049D01*
X113883038Y-137902648D01*
X113856824Y-137936699D01*
X113834499Y-137981899D01*
X113822478Y-138031770D01*
X113820188Y-138067613D01*
X113825065Y-138119245D01*
X113839698Y-138167009D01*
X113861465Y-138207076D01*
X113893820Y-138246303D01*
X113933795Y-138279353D01*
X113976748Y-138304040D01*
X114025386Y-138322845D01*
X114073240Y-138333814D01*
X114124957Y-138339142D01*
X114149183Y-138339699D01*
X114199940Y-138337715D01*
X114253428Y-138330738D01*
X114303091Y-138318738D01*
X114334075Y-138307948D01*
X114381507Y-138286791D01*
X114427235Y-138260489D01*
X114466210Y-138231011D01*
X114466210Y-138031953D01*
X114361674Y-138031953D01*
X114339204Y-138174347D01*
X114297321Y-138200509D01*
X114262512Y-138215136D01*
X114214863Y-138227057D01*
X114165753Y-138231485D01*
X114149183Y-138231744D01*
X114098325Y-138227290D01*
X114050583Y-138212719D01*
X114047822Y-138211472D01*
X114004666Y-138183763D01*
X113979434Y-138155052D01*
X113959685Y-138110212D01*
X113955010Y-138069567D01*
X113963692Y-138020031D01*
X113977236Y-137994340D01*
X114013446Y-137959014D01*
X114049532Y-137937920D01*
X114095975Y-137918757D01*
X114143962Y-137903299D01*
X114183866Y-137892491D01*
X114231153Y-137879443D01*
X114282971Y-137861376D01*
X114329413Y-137840682D01*
X114376802Y-137813219D01*
X114416875Y-137782179D01*
X114422002Y-137777452D01*
X114457479Y-137737107D01*
X114482819Y-137692273D01*
X114498023Y-137642951D01*
X114503091Y-137589141D01*
X114498011Y-137536229D01*
X114482773Y-137487646D01*
X114460104Y-137447236D01*
X114426366Y-137407928D01*
X114384258Y-137374969D01*
X114338715Y-137350516D01*
X114292549Y-137333632D01*
X114241978Y-137322274D01*
X114193328Y-137316817D01*
X114154556Y-137315589D01*
G37*
G36*
X115324480Y-137416217D02*
G01*
X115213105Y-137435268D01*
X115213105Y-137729337D01*
X115424375Y-137729337D01*
X115456954Y-137730237D01*
X115505856Y-137735423D01*
X115556127Y-137746768D01*
X115606092Y-137766217D01*
X115649626Y-137792201D01*
X115689470Y-137827561D01*
X115720886Y-137870020D01*
X115728001Y-137882774D01*
X115746662Y-137928265D01*
X115757548Y-137978335D01*
X115760697Y-138027313D01*
X115760658Y-138032878D01*
X115755993Y-138086115D01*
X115743552Y-138134964D01*
X115720886Y-138183628D01*
X115689470Y-138226256D01*
X115649626Y-138261783D01*
X115606092Y-138287920D01*
X115576857Y-138300620D01*
X115528819Y-138314743D01*
X115475758Y-138322954D01*
X115424375Y-138325289D01*
X115078527Y-138325289D01*
X114967152Y-138325289D01*
X114967152Y-138238583D01*
X115078527Y-138219288D01*
X115078527Y-137834605D01*
X115213105Y-137834605D01*
X115213105Y-138219288D01*
X115424375Y-138219288D01*
X115436816Y-138219071D01*
X115487890Y-138212736D01*
X115535212Y-138195410D01*
X115575806Y-138163845D01*
X115604451Y-138122634D01*
X115621206Y-138074901D01*
X115626120Y-138025847D01*
X115621206Y-137976994D01*
X115604451Y-137929592D01*
X115575806Y-137888827D01*
X115569318Y-137882261D01*
X115526541Y-137853721D01*
X115477234Y-137838894D01*
X115424375Y-137834605D01*
X115213105Y-137834605D01*
X115078527Y-137834605D01*
X115078527Y-137435268D01*
X114967152Y-137416217D01*
X114967152Y-137330000D01*
X115324480Y-137330000D01*
X115324480Y-137416217D01*
G37*
G36*
X116200214Y-137316758D02*
G01*
X116252813Y-137324752D01*
X116300969Y-137340320D01*
X116344682Y-137363461D01*
X116366915Y-137379327D01*
X116402818Y-137412454D01*
X116433428Y-137451455D01*
X116458743Y-137496329D01*
X116476482Y-137540506D01*
X116489152Y-137587798D01*
X116496754Y-137638203D01*
X116499288Y-137691723D01*
X116499288Y-137706622D01*
X116497348Y-137753599D01*
X116490379Y-137804310D01*
X116478342Y-137851845D01*
X116458743Y-137901528D01*
X116445321Y-137927124D01*
X116416983Y-137968720D01*
X116383274Y-138004559D01*
X116344193Y-138034640D01*
X116315437Y-138051158D01*
X116268534Y-138069527D01*
X116217111Y-138080207D01*
X116167606Y-138083244D01*
X116136663Y-138082058D01*
X116084271Y-138073941D01*
X116036130Y-138058135D01*
X115992240Y-138034640D01*
X115969930Y-138018627D01*
X115933889Y-137985266D01*
X115903143Y-137946070D01*
X115877690Y-137901039D01*
X115861987Y-137862685D01*
X115847465Y-137809937D01*
X115839908Y-137759806D01*
X115837390Y-137706622D01*
X115972212Y-137706622D01*
X115973570Y-137744525D01*
X115980703Y-137797431D01*
X115993949Y-137845596D01*
X115999784Y-137860514D01*
X116025557Y-137906295D01*
X116059651Y-137942072D01*
X116073814Y-137952204D01*
X116118800Y-137971438D01*
X116167606Y-137977243D01*
X116179601Y-137976934D01*
X116230638Y-137967317D01*
X116276294Y-137942072D01*
X116289432Y-137930443D01*
X116320634Y-137891093D01*
X116342240Y-137845596D01*
X116352984Y-137809916D01*
X116361839Y-137758196D01*
X116364466Y-137706622D01*
X116364466Y-137691723D01*
X116362708Y-137649211D01*
X116355784Y-137600819D01*
X116342240Y-137552505D01*
X116336351Y-137537640D01*
X116310512Y-137491926D01*
X116276538Y-137456029D01*
X116265402Y-137447786D01*
X116217796Y-137426662D01*
X116169071Y-137420858D01*
X116153154Y-137421407D01*
X116102551Y-137431986D01*
X116059895Y-137456029D01*
X116046693Y-137467722D01*
X116015437Y-137507125D01*
X115993949Y-137552505D01*
X115983441Y-137588303D01*
X115974780Y-137640120D01*
X115972212Y-137691723D01*
X115972212Y-137706622D01*
X115837390Y-137706622D01*
X115837390Y-137691723D01*
X115839318Y-137645009D01*
X115846245Y-137594454D01*
X115858209Y-137546922D01*
X115877690Y-137497062D01*
X115891177Y-137471395D01*
X115919571Y-137429702D01*
X115953258Y-137393806D01*
X115992240Y-137363705D01*
X116021079Y-137347353D01*
X116068074Y-137329169D01*
X116119551Y-137318596D01*
X116169071Y-137315589D01*
X116200214Y-137316758D01*
G37*
G36*
X116601381Y-137330000D02*
G01*
X116601381Y-137416217D01*
X116712756Y-137435268D01*
X116712756Y-137963810D01*
X116601381Y-137982861D01*
X116601381Y-138069567D01*
X116832923Y-138069567D01*
X116844647Y-137975289D01*
X116845868Y-137962344D01*
X116873887Y-138004313D01*
X116909470Y-138040403D01*
X116923538Y-138051004D01*
X116969766Y-138074145D01*
X117018239Y-138082961D01*
X117029295Y-138083244D01*
X117072526Y-138079581D01*
X117104277Y-138072498D01*
X117086692Y-137947201D01*
X116992903Y-137952819D01*
X116943871Y-137948422D01*
X116903265Y-137928394D01*
X116867777Y-137891395D01*
X116847334Y-137854389D01*
X116847334Y-137435268D01*
X116958709Y-137416217D01*
X116958709Y-137330000D01*
X116601381Y-137330000D01*
G37*
G36*
X117469420Y-137318276D02*
G01*
X117417012Y-137323961D01*
X117368989Y-137343133D01*
X117339239Y-137366392D01*
X117309918Y-137410768D01*
X117295822Y-137460131D01*
X117291170Y-137514184D01*
X117291123Y-137520753D01*
X117291123Y-137969916D01*
X117174131Y-137969916D01*
X117174131Y-138069567D01*
X117291123Y-138069567D01*
X117291123Y-138248108D01*
X117425701Y-138248108D01*
X117425701Y-138069567D01*
X117586413Y-138069567D01*
X117586413Y-137969916D01*
X117425701Y-137969916D01*
X117425701Y-137520753D01*
X117431698Y-137472039D01*
X117446950Y-137442107D01*
X117490832Y-137417599D01*
X117503614Y-137416706D01*
X117553217Y-137420570D01*
X117556859Y-137421102D01*
X117602777Y-137429162D01*
X117621339Y-137340990D01*
X117572043Y-137329135D01*
X117549043Y-137325115D01*
X117500353Y-137319405D01*
X117469420Y-137318276D01*
G37*
G36*
X141773168Y-61864326D02*
G01*
X141606106Y-61892903D01*
X141606106Y-62334005D01*
X141923011Y-62334005D01*
X141971880Y-62335356D01*
X142045233Y-62343135D01*
X142120639Y-62360153D01*
X142195586Y-62389326D01*
X142260888Y-62428302D01*
X142320653Y-62481342D01*
X142367777Y-62545031D01*
X142378449Y-62564162D01*
X142406442Y-62632397D01*
X142422771Y-62707502D01*
X142427495Y-62780969D01*
X142427436Y-62789317D01*
X142420438Y-62869173D01*
X142401777Y-62942446D01*
X142367777Y-63015443D01*
X142320653Y-63079384D01*
X142260888Y-63132675D01*
X142195586Y-63171880D01*
X142151734Y-63190930D01*
X142079677Y-63212114D01*
X142000085Y-63224431D01*
X141923011Y-63227934D01*
X141404239Y-63227934D01*
X141237177Y-63227934D01*
X141237177Y-63097875D01*
X141404239Y-63068932D01*
X141404239Y-62491908D01*
X141606106Y-62491908D01*
X141606106Y-63068932D01*
X141923011Y-63068932D01*
X141941673Y-63068607D01*
X142018283Y-63059105D01*
X142089266Y-63033116D01*
X142150157Y-62985767D01*
X142193125Y-62923951D01*
X142218258Y-62852352D01*
X142225628Y-62778771D01*
X142218258Y-62705491D01*
X142193125Y-62634388D01*
X142150157Y-62573241D01*
X142140425Y-62563392D01*
X142076260Y-62520581D01*
X142002300Y-62498342D01*
X141923011Y-62491908D01*
X141606106Y-62491908D01*
X141404239Y-62491908D01*
X141404239Y-61892903D01*
X141237177Y-61864326D01*
X141237177Y-61735000D01*
X141773168Y-61735000D01*
X141773168Y-61864326D01*
G37*
G36*
X142557188Y-61735000D02*
G01*
X142557188Y-61864326D01*
X142724250Y-61892903D01*
X142724250Y-62685715D01*
X142557188Y-62714291D01*
X142557188Y-62844351D01*
X142904501Y-62844351D01*
X142922086Y-62702934D01*
X142923918Y-62683517D01*
X142965946Y-62746469D01*
X143019320Y-62800605D01*
X143040422Y-62816507D01*
X143109765Y-62851218D01*
X143182474Y-62864442D01*
X143199058Y-62864867D01*
X143263904Y-62859371D01*
X143311532Y-62848747D01*
X143285153Y-62660802D01*
X143144470Y-62669228D01*
X143070922Y-62662634D01*
X143010014Y-62632592D01*
X142956781Y-62577092D01*
X142926116Y-62521584D01*
X142926116Y-61892903D01*
X143093179Y-61864326D01*
X143093179Y-61735000D01*
X142557188Y-61735000D01*
G37*
G36*
X143961647Y-61715137D02*
G01*
X144040547Y-61727128D01*
X144112781Y-61750480D01*
X144178350Y-61785191D01*
X144211700Y-61808991D01*
X144265554Y-61858682D01*
X144311468Y-61917183D01*
X144349442Y-61984494D01*
X144376049Y-62050760D01*
X144395054Y-62121697D01*
X144406457Y-62197305D01*
X144410258Y-62277585D01*
X144410258Y-62299933D01*
X144407348Y-62370398D01*
X144396895Y-62446465D01*
X144378840Y-62517768D01*
X144349442Y-62592292D01*
X144329308Y-62630687D01*
X144286801Y-62693081D01*
X144236237Y-62746839D01*
X144177617Y-62791960D01*
X144134482Y-62816737D01*
X144064128Y-62844291D01*
X143986993Y-62860310D01*
X143912735Y-62864867D01*
X143866321Y-62863087D01*
X143787734Y-62850912D01*
X143715522Y-62827203D01*
X143649686Y-62791960D01*
X143616221Y-62767941D01*
X143562161Y-62717899D01*
X143516041Y-62659105D01*
X143477861Y-62591559D01*
X143454307Y-62534027D01*
X143432523Y-62454905D01*
X143421189Y-62379709D01*
X143417411Y-62299933D01*
X143619644Y-62299933D01*
X143621682Y-62356788D01*
X143632381Y-62436146D01*
X143652250Y-62508394D01*
X143661003Y-62530771D01*
X143699662Y-62599443D01*
X143750802Y-62653108D01*
X143772047Y-62668307D01*
X143839527Y-62697158D01*
X143912735Y-62705865D01*
X143930728Y-62705401D01*
X144007284Y-62690976D01*
X144075768Y-62653108D01*
X144095474Y-62635665D01*
X144142277Y-62576640D01*
X144174686Y-62508394D01*
X144190802Y-62454875D01*
X144204086Y-62377294D01*
X144208025Y-62299933D01*
X144208025Y-62277585D01*
X144205388Y-62213816D01*
X144195002Y-62141229D01*
X144174686Y-62068757D01*
X144165853Y-62046461D01*
X144127094Y-61977889D01*
X144076134Y-61924043D01*
X144059430Y-61911679D01*
X143988021Y-61879994D01*
X143914934Y-61871287D01*
X143891057Y-61872111D01*
X143815152Y-61887979D01*
X143751169Y-61924043D01*
X143731366Y-61941584D01*
X143684483Y-62000688D01*
X143652250Y-62068757D01*
X143636489Y-62122454D01*
X143623497Y-62200181D01*
X143619644Y-62277585D01*
X143619644Y-62299933D01*
X143417411Y-62299933D01*
X143417411Y-62277585D01*
X143420304Y-62207513D01*
X143430693Y-62131681D01*
X143448640Y-62060384D01*
X143477861Y-61985593D01*
X143498092Y-61947092D01*
X143540683Y-61884553D01*
X143591214Y-61830709D01*
X143649686Y-61785558D01*
X143692946Y-61761030D01*
X143763438Y-61733753D01*
X143840653Y-61717895D01*
X143914934Y-61713384D01*
X143961647Y-61715137D01*
G37*
G36*
X144546912Y-61286936D02*
G01*
X144487561Y-61291699D01*
X144431874Y-61305254D01*
X144445429Y-61459127D01*
X144493789Y-61449968D01*
X144546912Y-61445938D01*
X144618083Y-61470874D01*
X144642533Y-61498695D01*
X144671268Y-61570565D01*
X144678070Y-61643775D01*
X144678070Y-62685715D01*
X144511008Y-62714291D01*
X144511008Y-62844351D01*
X144879937Y-62844351D01*
X144879937Y-61643775D01*
X144874419Y-61562969D01*
X144855018Y-61483831D01*
X144821649Y-61417154D01*
X144791643Y-61379626D01*
X144729962Y-61330747D01*
X144654829Y-61299971D01*
X144575707Y-61287751D01*
X144546912Y-61286936D01*
G37*
G36*
X144667812Y-63118391D02*
G01*
X144667812Y-63334546D01*
X144879937Y-63334546D01*
X144879937Y-63118391D01*
X144667812Y-63118391D01*
G37*
G36*
X145617184Y-61713423D02*
G01*
X145698414Y-61718059D01*
X145771915Y-61730424D01*
X145843842Y-61752951D01*
X145873576Y-61765745D01*
X145942013Y-61803029D01*
X146001378Y-61849672D01*
X145922243Y-61981196D01*
X145918697Y-61978012D01*
X145856403Y-61932903D01*
X145788521Y-61900596D01*
X145758643Y-61890636D01*
X145682017Y-61875409D01*
X145608636Y-61871287D01*
X145591354Y-61871702D01*
X145516922Y-61884625D01*
X145448534Y-61918548D01*
X145436306Y-61927719D01*
X145383375Y-61982845D01*
X145346319Y-62048241D01*
X145332527Y-62085462D01*
X145315378Y-62160726D01*
X145309316Y-62237285D01*
X145312247Y-62242414D01*
X146032153Y-62242414D01*
X146032153Y-62368810D01*
X146031351Y-62405835D01*
X146023688Y-62484622D01*
X146007910Y-62557150D01*
X145980862Y-62630394D01*
X145943939Y-62695137D01*
X145892084Y-62755115D01*
X145828454Y-62803318D01*
X145802500Y-62817743D01*
X145730901Y-62845392D01*
X145658264Y-62859998D01*
X145577861Y-62864867D01*
X145561911Y-62864585D01*
X145484524Y-62854717D01*
X145411072Y-62830754D01*
X145341556Y-62792693D01*
X145315207Y-62773831D01*
X145255193Y-62719513D01*
X145208339Y-62661879D01*
X145168266Y-62595956D01*
X145142856Y-62539864D01*
X145119356Y-62463057D01*
X145109667Y-62405446D01*
X145316277Y-62405446D01*
X145317011Y-62410831D01*
X145333771Y-62487145D01*
X145363538Y-62559319D01*
X145398670Y-62613155D01*
X145454763Y-62666297D01*
X145505553Y-62693345D01*
X145577861Y-62705865D01*
X145645942Y-62698923D01*
X145717812Y-62669595D01*
X145761460Y-62632739D01*
X145801710Y-62570310D01*
X145822867Y-62502991D01*
X145829920Y-62427062D01*
X145829920Y-62400317D01*
X145318475Y-62400317D01*
X145316277Y-62405446D01*
X145109667Y-62405446D01*
X145107129Y-62390356D01*
X145103053Y-62313489D01*
X145103053Y-62268060D01*
X145105230Y-62208000D01*
X145114904Y-62132128D01*
X145135039Y-62052520D01*
X145164969Y-61978998D01*
X145185684Y-61941290D01*
X145229283Y-61880133D01*
X145280996Y-61827611D01*
X145340823Y-61783726D01*
X145384955Y-61759821D01*
X145456416Y-61733236D01*
X145534195Y-61717780D01*
X145608636Y-61713384D01*
X145617184Y-61713423D01*
G37*
G36*
X146731542Y-61713384D02*
G01*
X146649738Y-61718948D01*
X146574136Y-61735641D01*
X146504735Y-61763461D01*
X146468859Y-61783726D01*
X146409975Y-61827611D01*
X146353861Y-61886502D01*
X146311740Y-61948618D01*
X146295569Y-61978998D01*
X146265816Y-62052520D01*
X146245800Y-62132128D01*
X146236183Y-62208000D01*
X146234019Y-62268060D01*
X146234019Y-62311290D01*
X146237729Y-62388181D01*
X146248857Y-62460950D01*
X146270244Y-62537889D01*
X146293370Y-62594124D01*
X146331077Y-62660430D01*
X146377013Y-62718390D01*
X146431180Y-62768004D01*
X146464829Y-62791960D01*
X146531103Y-62827203D01*
X146604216Y-62850912D01*
X146684169Y-62863087D01*
X146731542Y-62864867D01*
X146812128Y-62860574D01*
X146886274Y-62847694D01*
X146960396Y-62823608D01*
X146966748Y-62820903D01*
X147032413Y-62786782D01*
X147095259Y-62740672D01*
X147136375Y-62700003D01*
X147141504Y-62433290D01*
X146983601Y-62433290D01*
X146948796Y-62627096D01*
X146889680Y-62671137D01*
X146861601Y-62684249D01*
X146788958Y-62702825D01*
X146738503Y-62705865D01*
X146663851Y-62695627D01*
X146593204Y-62661935D01*
X146580234Y-62652376D01*
X146526358Y-62598951D01*
X146486628Y-62536910D01*
X146473988Y-62509860D01*
X146450993Y-62440205D01*
X146438611Y-62364780D01*
X146436253Y-62311290D01*
X146436253Y-62268060D01*
X146440409Y-62188664D01*
X146454422Y-62110542D01*
X146471424Y-62057766D01*
X146505316Y-61992083D01*
X146553041Y-61936224D01*
X146572906Y-61920013D01*
X146640548Y-61885039D01*
X146713557Y-61871715D01*
X146730443Y-61871287D01*
X146807986Y-61880599D01*
X146878511Y-61911453D01*
X146900436Y-61927707D01*
X146949714Y-61985139D01*
X146978935Y-62058700D01*
X146983601Y-62082679D01*
X147165317Y-62082679D01*
X147167149Y-62076451D01*
X147155363Y-62001052D01*
X147128340Y-61929643D01*
X147110729Y-61898032D01*
X147061860Y-61835781D01*
X147003977Y-61787765D01*
X146964550Y-61763942D01*
X146894371Y-61735158D01*
X146821556Y-61719358D01*
X146740155Y-61713433D01*
X146731542Y-61713384D01*
G37*
G36*
X147714864Y-61717414D02*
G01*
X147636251Y-61725942D01*
X147564218Y-61754699D01*
X147519592Y-61789588D01*
X147475611Y-61856152D01*
X147454466Y-61930197D01*
X147447488Y-62011277D01*
X147447418Y-62021130D01*
X147447418Y-62694874D01*
X147271929Y-62694874D01*
X147271929Y-62844351D01*
X147447418Y-62844351D01*
X147447418Y-63112163D01*
X147649285Y-63112163D01*
X147649285Y-62844351D01*
X147890352Y-62844351D01*
X147890352Y-62694874D01*
X147649285Y-62694874D01*
X147649285Y-62021130D01*
X147658280Y-61948058D01*
X147681158Y-61903161D01*
X147746981Y-61866398D01*
X147766155Y-61865059D01*
X147840558Y-61870855D01*
X147846022Y-61871653D01*
X147914899Y-61883743D01*
X147942742Y-61751486D01*
X147868798Y-61733703D01*
X147834299Y-61727672D01*
X147761263Y-61719107D01*
X147714864Y-61717414D01*
G37*
G36*
X149015823Y-61864326D02*
G01*
X148902983Y-61883743D01*
X149004466Y-62158517D01*
X149602373Y-62158517D01*
X149700925Y-61883743D01*
X149588084Y-61864326D01*
X149588084Y-61735000D01*
X150016731Y-61735000D01*
X150016731Y-61864326D01*
X149906821Y-61879713D01*
X149394278Y-63227934D01*
X149220987Y-63227934D01*
X148872421Y-62327777D01*
X149067114Y-62327777D01*
X149290597Y-62934842D01*
X149303053Y-62968548D01*
X149308915Y-62968548D01*
X149321371Y-62934842D01*
X149540823Y-62327777D01*
X149067114Y-62327777D01*
X148872421Y-62327777D01*
X148698918Y-61879713D01*
X148588276Y-61864326D01*
X148588276Y-61735000D01*
X149015823Y-61735000D01*
X149015823Y-61864326D01*
G37*
G36*
X150236183Y-61735000D02*
G01*
X150236183Y-61941995D01*
X150438049Y-61941995D01*
X150438049Y-61735000D01*
X150236183Y-61735000D01*
G37*
G36*
X150676186Y-61735000D02*
G01*
X150676186Y-61864326D01*
X150843248Y-61892903D01*
X150843248Y-63068932D01*
X150676186Y-63097875D01*
X150676186Y-63227934D01*
X150843248Y-63227934D01*
X151045115Y-63227934D01*
X151212177Y-63227934D01*
X151212177Y-63097875D01*
X151045115Y-63068932D01*
X151045115Y-61889972D01*
X151573412Y-61889972D01*
X151596860Y-62125544D01*
X151751832Y-62125544D01*
X151751832Y-61735000D01*
X150676186Y-61735000D01*
G37*
G36*
X151981542Y-61735000D02*
G01*
X151981542Y-61941995D01*
X152183409Y-61941995D01*
X152183409Y-61735000D01*
X151981542Y-61735000D01*
G37*
G36*
X152421546Y-61735000D02*
G01*
X152421546Y-61864326D01*
X152588608Y-61892903D01*
X152588608Y-63068932D01*
X152421546Y-63097875D01*
X152421546Y-63227934D01*
X152957537Y-63227934D01*
X152957537Y-63097875D01*
X152790474Y-63068932D01*
X152790474Y-61892903D01*
X152957537Y-61864326D01*
X152957537Y-61735000D01*
X152421546Y-61735000D01*
G37*
G36*
X153189079Y-61735000D02*
G01*
X153189079Y-61941995D01*
X153390946Y-61941995D01*
X153390946Y-61735000D01*
X153189079Y-61735000D01*
G37*
G36*
X153629082Y-61735000D02*
G01*
X153629082Y-61864326D01*
X153796144Y-61892903D01*
X153796144Y-63068932D01*
X153629082Y-63097875D01*
X153629082Y-63227934D01*
X154734403Y-63227934D01*
X154734403Y-62869263D01*
X154572470Y-62869263D01*
X154549756Y-63072229D01*
X153998011Y-63072229D01*
X153998011Y-62586064D01*
X154548657Y-62586064D01*
X154548657Y-62427062D01*
X153998011Y-62427062D01*
X153998011Y-61886674D01*
X154582728Y-61886674D01*
X154605077Y-62092937D01*
X154766277Y-62092937D01*
X154766277Y-61735000D01*
X153629082Y-61735000D01*
G37*
G36*
X155032624Y-61735000D02*
G01*
X155032624Y-61941995D01*
X155234491Y-61941995D01*
X155234491Y-61735000D01*
X155032624Y-61735000D01*
G37*
G36*
X155474459Y-61735000D02*
G01*
X155474459Y-61864326D01*
X155641888Y-61892903D01*
X155641888Y-63068932D01*
X155474459Y-63097875D01*
X155474459Y-63227934D01*
X155641888Y-63227934D01*
X155845586Y-63227934D01*
X156577948Y-62063995D01*
X156584176Y-62066193D01*
X156584176Y-63068932D01*
X156400628Y-63097875D01*
X156400628Y-63227934D01*
X156769557Y-63227934D01*
X156936619Y-63227934D01*
X156936619Y-63097875D01*
X156769557Y-63068932D01*
X156769557Y-61735000D01*
X156584909Y-61735000D01*
X155833496Y-62904801D01*
X155827268Y-62902969D01*
X155827268Y-61892903D01*
X156010816Y-61864326D01*
X156010816Y-61735000D01*
X155474459Y-61735000D01*
G37*
G36*
X157170726Y-61735000D02*
G01*
X157170726Y-61941995D01*
X157372592Y-61941995D01*
X157372592Y-61735000D01*
X157170726Y-61735000D01*
G37*
G36*
X158145621Y-61735000D02*
G01*
X158145621Y-61864326D01*
X158312683Y-61892903D01*
X158312683Y-63068932D01*
X158145621Y-63097875D01*
X158145621Y-63227934D01*
X158312683Y-63227934D01*
X158582327Y-63227934D01*
X159063364Y-62094769D01*
X159069592Y-62094769D01*
X159535241Y-63227934D01*
X159985136Y-63227934D01*
X159985136Y-63097875D01*
X159818074Y-63068932D01*
X159818074Y-61892903D01*
X159985136Y-61864326D01*
X159985136Y-61735000D01*
X159448779Y-61735000D01*
X159448779Y-61864326D01*
X159625366Y-61892903D01*
X159625366Y-62325579D01*
X159625366Y-62952062D01*
X159620237Y-62953161D01*
X159135171Y-61788489D01*
X159000715Y-61788489D01*
X158499529Y-62950963D01*
X158494400Y-62950230D01*
X158501361Y-62325579D01*
X158501361Y-61892903D01*
X158681978Y-61864326D01*
X158681978Y-61735000D01*
X158145621Y-61735000D01*
G37*
G36*
X160558141Y-61715768D02*
G01*
X160634791Y-61732847D01*
X160702111Y-61763210D01*
X160734040Y-61782770D01*
X160796063Y-61831160D01*
X160848290Y-61887773D01*
X160855618Y-61815966D01*
X160856615Y-61809154D01*
X160869906Y-61735000D01*
X161160066Y-61735000D01*
X161160066Y-61864326D01*
X161052355Y-61875317D01*
X161049791Y-61916350D01*
X161049424Y-61958482D01*
X161049424Y-62492641D01*
X161043919Y-62567201D01*
X161024147Y-62642666D01*
X160984715Y-62715138D01*
X160934386Y-62768513D01*
X160919711Y-62780181D01*
X160854201Y-62819325D01*
X160777791Y-62846424D01*
X160701991Y-62860256D01*
X160617847Y-62864867D01*
X160551344Y-62862404D01*
X160474707Y-62852702D01*
X160396929Y-62833726D01*
X160354667Y-62818682D01*
X160287682Y-62786284D01*
X160222906Y-62741769D01*
X160222906Y-62487512D01*
X160378611Y-62487512D01*
X160400227Y-62642484D01*
X160424650Y-62658162D01*
X160493650Y-62689012D01*
X160538347Y-62699924D01*
X160614550Y-62705865D01*
X160647918Y-62704514D01*
X160723373Y-62688361D01*
X160786375Y-62650544D01*
X160800714Y-62636009D01*
X160837460Y-62568964D01*
X160847558Y-62494839D01*
X160847558Y-62386029D01*
X160649354Y-62386029D01*
X160611831Y-62385348D01*
X160532300Y-62378834D01*
X160459551Y-62365422D01*
X160386671Y-62342431D01*
X160335128Y-62318457D01*
X160269921Y-62274339D01*
X160219243Y-62220432D01*
X160196688Y-62184834D01*
X160169497Y-62111839D01*
X160161357Y-62036517D01*
X160161470Y-62032487D01*
X160363224Y-62032487D01*
X160363836Y-62047736D01*
X160385249Y-62119827D01*
X160432833Y-62180865D01*
X160489167Y-62218827D01*
X160561951Y-62241032D01*
X160642394Y-62247543D01*
X160847558Y-62247543D01*
X160847558Y-62046775D01*
X160837843Y-62030135D01*
X160788261Y-61973135D01*
X160728489Y-61930638D01*
X160696697Y-61914328D01*
X160623661Y-61890565D01*
X160544941Y-61882644D01*
X160478379Y-61888993D01*
X160408287Y-61921113D01*
X160379110Y-61958052D01*
X160363224Y-62032487D01*
X160161470Y-62032487D01*
X160162149Y-62008275D01*
X160174031Y-61930850D01*
X160203956Y-61857670D01*
X160251483Y-61798014D01*
X160288328Y-61769253D01*
X160354512Y-61737269D01*
X160433795Y-61718673D01*
X160515265Y-61713384D01*
X160558141Y-61715768D01*
G37*
G36*
X161309909Y-61735000D02*
G01*
X161309909Y-61864326D01*
X161476971Y-61892903D01*
X161476971Y-62685715D01*
X161309909Y-62714291D01*
X161309909Y-62844351D01*
X161678838Y-62844351D01*
X161678838Y-61892903D01*
X161845900Y-61864326D01*
X161845900Y-61735000D01*
X161309909Y-61735000D01*
G37*
G36*
X161466713Y-63118391D02*
G01*
X161466713Y-63334546D01*
X161678838Y-63334546D01*
X161678838Y-63118391D01*
X161466713Y-63118391D01*
G37*
G36*
X161985119Y-61735000D02*
G01*
X161985119Y-61864326D01*
X162152181Y-61892903D01*
X162152181Y-62685715D01*
X161985119Y-62714291D01*
X161985119Y-62844351D01*
X162332798Y-62844351D01*
X162347086Y-62679487D01*
X162392544Y-62739920D01*
X162450744Y-62792947D01*
X162485939Y-62816140D01*
X162557677Y-62847689D01*
X162630767Y-62862535D01*
X162676448Y-62864867D01*
X162750970Y-62859835D01*
X162826693Y-62841763D01*
X162899839Y-62805722D01*
X162954152Y-62759720D01*
X162997269Y-62700163D01*
X163028066Y-62626272D01*
X163044908Y-62549859D01*
X163051838Y-62475627D01*
X163052704Y-62435488D01*
X163052704Y-61892903D01*
X163219766Y-61864326D01*
X163219766Y-61735000D01*
X162683409Y-61735000D01*
X162683409Y-61864326D01*
X162850471Y-61892903D01*
X162850471Y-62431092D01*
X162845892Y-62506948D01*
X162827859Y-62581244D01*
X162792585Y-62639187D01*
X162730225Y-62681261D01*
X162658131Y-62698572D01*
X162615631Y-62700736D01*
X162538314Y-62691478D01*
X162469851Y-62663706D01*
X162461392Y-62658604D01*
X162401125Y-62609053D01*
X162356936Y-62548458D01*
X162354414Y-62543932D01*
X162354414Y-61892903D01*
X162521476Y-61864326D01*
X162521476Y-61735000D01*
X161985119Y-61735000D01*
G37*
G36*
X164666461Y-61737638D02*
G01*
X164742951Y-61747770D01*
X164823822Y-61769196D01*
X164895682Y-61800965D01*
X164958531Y-61843077D01*
X164989786Y-61871693D01*
X165039795Y-61937960D01*
X165069879Y-62005822D01*
X165087199Y-62082907D01*
X165091888Y-62156318D01*
X165091332Y-62179165D01*
X165080643Y-62255430D01*
X165056350Y-62325945D01*
X165051838Y-62335561D01*
X165010606Y-62401748D01*
X164956333Y-62457470D01*
X164939812Y-62470378D01*
X164875678Y-62506813D01*
X164801727Y-62529644D01*
X164851026Y-62551213D01*
X164915443Y-62593013D01*
X164968423Y-62646147D01*
X164989838Y-62676282D01*
X165021038Y-62746612D01*
X165031437Y-62823834D01*
X165030922Y-62848717D01*
X165021005Y-62929563D01*
X164998465Y-63000696D01*
X164957249Y-63070100D01*
X164899546Y-63126817D01*
X164846618Y-63161181D01*
X164775752Y-63192286D01*
X164695069Y-63213714D01*
X164618098Y-63224379D01*
X164533915Y-63227934D01*
X164057275Y-63227934D01*
X163890213Y-63227934D01*
X163890213Y-63097875D01*
X164057275Y-63068932D01*
X164057275Y-62593391D01*
X164259142Y-62593391D01*
X164259142Y-63068932D01*
X164533915Y-63068932D01*
X164609337Y-63064179D01*
X164686958Y-63045462D01*
X164753367Y-63008848D01*
X164786546Y-62975165D01*
X164820243Y-62904120D01*
X164829204Y-62828230D01*
X164827568Y-62795345D01*
X164807991Y-62720309D01*
X164762160Y-62656406D01*
X164730829Y-62631852D01*
X164662039Y-62602252D01*
X164586305Y-62593391D01*
X164259142Y-62593391D01*
X164057275Y-62593391D01*
X164057275Y-61892903D01*
X164259142Y-61892903D01*
X164259142Y-62435488D01*
X164628437Y-62435488D01*
X164704531Y-62428001D01*
X164774616Y-62401416D01*
X164819586Y-62366384D01*
X164860712Y-62305062D01*
X164882723Y-62231364D01*
X164888922Y-62154487D01*
X164884136Y-62095410D01*
X164859012Y-62020191D01*
X164812352Y-61961046D01*
X164752602Y-61922250D01*
X164678134Y-61899557D01*
X164597662Y-61892903D01*
X164259142Y-61892903D01*
X164057275Y-61892903D01*
X163890213Y-61864326D01*
X163890213Y-61735000D01*
X164597662Y-61735000D01*
X164666461Y-61737638D01*
G37*
G36*
X165786699Y-61715137D02*
G01*
X165865599Y-61727128D01*
X165937833Y-61750480D01*
X166003402Y-61785191D01*
X166036752Y-61808991D01*
X166090607Y-61858682D01*
X166136521Y-61917183D01*
X166174494Y-61984494D01*
X166201101Y-62050760D01*
X166220106Y-62121697D01*
X166231509Y-62197305D01*
X166235310Y-62277585D01*
X166235310Y-62299933D01*
X166232400Y-62370398D01*
X166221947Y-62446465D01*
X166203893Y-62517768D01*
X166174494Y-62592292D01*
X166154360Y-62630687D01*
X166111853Y-62693081D01*
X166061289Y-62746839D01*
X166002669Y-62791960D01*
X165959534Y-62816737D01*
X165889180Y-62844291D01*
X165812045Y-62860310D01*
X165737788Y-62864867D01*
X165691373Y-62863087D01*
X165612786Y-62850912D01*
X165540574Y-62827203D01*
X165474738Y-62791960D01*
X165441274Y-62767941D01*
X165387213Y-62717899D01*
X165341093Y-62659105D01*
X165302913Y-62591559D01*
X165279359Y-62534027D01*
X165257576Y-62454905D01*
X165246241Y-62379709D01*
X165242463Y-62299933D01*
X165444696Y-62299933D01*
X165446734Y-62356788D01*
X165457433Y-62436146D01*
X165477303Y-62508394D01*
X165486055Y-62530771D01*
X165524714Y-62599443D01*
X165575855Y-62653108D01*
X165597100Y-62668307D01*
X165664579Y-62697158D01*
X165737788Y-62705865D01*
X165755780Y-62705401D01*
X165832336Y-62690976D01*
X165900820Y-62653108D01*
X165920526Y-62635665D01*
X165967329Y-62576640D01*
X165999738Y-62508394D01*
X166015854Y-62454875D01*
X166029138Y-62377294D01*
X166033077Y-62299933D01*
X166033077Y-62277585D01*
X166030440Y-62213816D01*
X166020054Y-62141229D01*
X165999738Y-62068757D01*
X165990905Y-62046461D01*
X165952147Y-61977889D01*
X165901186Y-61924043D01*
X165884482Y-61911679D01*
X165813074Y-61879994D01*
X165739986Y-61871287D01*
X165716109Y-61872111D01*
X165640205Y-61887979D01*
X165576221Y-61924043D01*
X165556418Y-61941584D01*
X165509535Y-62000688D01*
X165477303Y-62068757D01*
X165461541Y-62122454D01*
X165448549Y-62200181D01*
X165444696Y-62277585D01*
X165444696Y-62299933D01*
X165242463Y-62299933D01*
X165242463Y-62277585D01*
X165245356Y-62207513D01*
X165255746Y-62131681D01*
X165273692Y-62060384D01*
X165302913Y-61985593D01*
X165323144Y-61947092D01*
X165365735Y-61884553D01*
X165416266Y-61830709D01*
X165474738Y-61785558D01*
X165517998Y-61761030D01*
X165588490Y-61733753D01*
X165665706Y-61717895D01*
X165739986Y-61713384D01*
X165786699Y-61715137D01*
G37*
G36*
X166812712Y-61715768D02*
G01*
X166889362Y-61732847D01*
X166956682Y-61763210D01*
X166988611Y-61782770D01*
X167050634Y-61831160D01*
X167102861Y-61887773D01*
X167110188Y-61815966D01*
X167111185Y-61809154D01*
X167124477Y-61735000D01*
X167414637Y-61735000D01*
X167414637Y-61864326D01*
X167306926Y-61875317D01*
X167304361Y-61916350D01*
X167303995Y-61958482D01*
X167303995Y-62492641D01*
X167298490Y-62567201D01*
X167278718Y-62642666D01*
X167239286Y-62715138D01*
X167188957Y-62768513D01*
X167174282Y-62780181D01*
X167108772Y-62819325D01*
X167032362Y-62846424D01*
X166956562Y-62860256D01*
X166872418Y-62864867D01*
X166805915Y-62862404D01*
X166729278Y-62852702D01*
X166651500Y-62833726D01*
X166609238Y-62818682D01*
X166542253Y-62786284D01*
X166477477Y-62741769D01*
X166477477Y-62487512D01*
X166633182Y-62487512D01*
X166654798Y-62642484D01*
X166679221Y-62658162D01*
X166748220Y-62689012D01*
X166792918Y-62699924D01*
X166869121Y-62705865D01*
X166902489Y-62704514D01*
X166977944Y-62688361D01*
X167040946Y-62650544D01*
X167055285Y-62636009D01*
X167092031Y-62568964D01*
X167102128Y-62494839D01*
X167102128Y-62386029D01*
X166903925Y-62386029D01*
X166866402Y-62385348D01*
X166786871Y-62378834D01*
X166714121Y-62365422D01*
X166641242Y-62342431D01*
X166589699Y-62318457D01*
X166524492Y-62274339D01*
X166473814Y-62220432D01*
X166451259Y-62184834D01*
X166424068Y-62111839D01*
X166415928Y-62036517D01*
X166416041Y-62032487D01*
X166617795Y-62032487D01*
X166618407Y-62047736D01*
X166639820Y-62119827D01*
X166687404Y-62180865D01*
X166743738Y-62218827D01*
X166816522Y-62241032D01*
X166896964Y-62247543D01*
X167102128Y-62247543D01*
X167102128Y-62046775D01*
X167092414Y-62030135D01*
X167042831Y-61973135D01*
X166983060Y-61930638D01*
X166951268Y-61914328D01*
X166878231Y-61890565D01*
X166799511Y-61882644D01*
X166732949Y-61888993D01*
X166662858Y-61921113D01*
X166633681Y-61958052D01*
X166617795Y-62032487D01*
X166416041Y-62032487D01*
X166416720Y-62008275D01*
X166428602Y-61930850D01*
X166458526Y-61857670D01*
X166506054Y-61798014D01*
X166542899Y-61769253D01*
X166609083Y-61737269D01*
X166688366Y-61718673D01*
X166769836Y-61713384D01*
X166812712Y-61715768D01*
G37*
G36*
X167569609Y-61735000D02*
G01*
X167569609Y-61864326D01*
X167736671Y-61892903D01*
X167736671Y-62685715D01*
X167569609Y-62714291D01*
X167569609Y-62844351D01*
X167916922Y-62844351D01*
X167934508Y-62702934D01*
X167936340Y-62683517D01*
X167978367Y-62746469D01*
X168031742Y-62800605D01*
X168052844Y-62816507D01*
X168122186Y-62851218D01*
X168194895Y-62864442D01*
X168211479Y-62864867D01*
X168276326Y-62859371D01*
X168323953Y-62848747D01*
X168297575Y-62660802D01*
X168156891Y-62669228D01*
X168083343Y-62662634D01*
X168022435Y-62632592D01*
X167969202Y-62577092D01*
X167938538Y-62521584D01*
X167938538Y-61892903D01*
X168105600Y-61864326D01*
X168105600Y-61735000D01*
X167569609Y-61735000D01*
G37*
G36*
X168894919Y-61714332D02*
G01*
X168971588Y-61725672D01*
X169044958Y-61752219D01*
X169068974Y-61765363D01*
X169129842Y-61811686D01*
X169177948Y-61867257D01*
X169194435Y-61735000D01*
X169536619Y-61735000D01*
X169536619Y-61864326D01*
X169369557Y-61892903D01*
X169369557Y-63334546D01*
X169167690Y-63334546D01*
X169000628Y-63334546D01*
X169000628Y-63204487D01*
X169167690Y-63175544D01*
X169167690Y-62723450D01*
X169157468Y-62736078D01*
X169104654Y-62787429D01*
X169038730Y-62828597D01*
X169014687Y-62839046D01*
X168941277Y-62858881D01*
X168865073Y-62864867D01*
X168848189Y-62864576D01*
X168768319Y-62854408D01*
X168696033Y-62829715D01*
X168631333Y-62790495D01*
X168613466Y-62776022D01*
X168559771Y-62720152D01*
X168515092Y-62652546D01*
X168482589Y-62581667D01*
X168479433Y-62573243D01*
X168457795Y-62502736D01*
X168442568Y-62426686D01*
X168433752Y-62345096D01*
X168431298Y-62269159D01*
X168633531Y-62269159D01*
X168635965Y-62338794D01*
X168645552Y-62417135D01*
X168664306Y-62494106D01*
X168674692Y-62523408D01*
X168708896Y-62589882D01*
X168757362Y-62645781D01*
X168773551Y-62658661D01*
X168843639Y-62691666D01*
X168916364Y-62700736D01*
X168921790Y-62700696D01*
X168997422Y-62690478D01*
X169066207Y-62659703D01*
X169122902Y-62611709D01*
X169167690Y-62549061D01*
X169167690Y-62034319D01*
X169165173Y-62029681D01*
X169122353Y-61968007D01*
X169066207Y-61918548D01*
X169058402Y-61913579D01*
X168987923Y-61885369D01*
X168914532Y-61877515D01*
X168905629Y-61877614D01*
X168824629Y-61889507D01*
X168752388Y-61925482D01*
X168702041Y-61978998D01*
X168678758Y-62019360D01*
X168652866Y-62088548D01*
X168637813Y-62168111D01*
X168633531Y-62247543D01*
X168633531Y-62269159D01*
X168431298Y-62269159D01*
X168431298Y-62247543D01*
X168433101Y-62189034D01*
X168441115Y-62115349D01*
X168457795Y-62038365D01*
X168482589Y-61967641D01*
X168489178Y-61952870D01*
X168527446Y-61885157D01*
X168574586Y-61827677D01*
X168630600Y-61780429D01*
X168649142Y-61768447D01*
X168715832Y-61737020D01*
X168790035Y-61718687D01*
X168863241Y-61713384D01*
X168894919Y-61714332D01*
G37*
G36*
X166504954Y-59215000D02*
G01*
X166004867Y-60561388D01*
X165885799Y-60577875D01*
X165885799Y-60707934D01*
X166357310Y-60707934D01*
X166357310Y-60577875D01*
X166221022Y-60556259D01*
X166555513Y-59606643D01*
X166590317Y-59488674D01*
X166596545Y-59488674D01*
X166633182Y-59606643D01*
X166979763Y-60557358D01*
X166828088Y-60577875D01*
X166828088Y-60707934D01*
X167298866Y-60707934D01*
X167298866Y-60577875D01*
X167178698Y-60561388D01*
X166678245Y-59215000D01*
X166504954Y-59215000D01*
G37*
G36*
X167489375Y-59215000D02*
G01*
X167489375Y-59344326D01*
X167719818Y-59372903D01*
X167719818Y-60491779D01*
X167484979Y-60487383D01*
X167484979Y-60613778D01*
X167922051Y-60707934D01*
X167922051Y-59372903D01*
X168151762Y-59344326D01*
X168151762Y-59215000D01*
X167489375Y-59215000D01*
G37*
G36*
X168378541Y-59215000D02*
G01*
X168378541Y-59421995D01*
X168580408Y-59421995D01*
X168580408Y-59215000D01*
X168378541Y-59215000D01*
G37*
G36*
X168859578Y-59215000D02*
G01*
X168859578Y-59344326D01*
X169090021Y-59372903D01*
X169090021Y-60491779D01*
X168855181Y-60487383D01*
X168855181Y-60613778D01*
X169292254Y-60707934D01*
X169292254Y-59372903D01*
X169521964Y-59344326D01*
X169521964Y-59215000D01*
X168859578Y-59215000D01*
G37*
G36*
X158547156Y-56695000D02*
G01*
X158547156Y-56833485D01*
X159036619Y-57376803D01*
X159087201Y-57434957D01*
X159134330Y-57492561D01*
X159172540Y-57543499D01*
X159212307Y-57605597D01*
X159241417Y-57669162D01*
X159258103Y-57741261D01*
X159260834Y-57786032D01*
X159251303Y-57864841D01*
X159222709Y-57933654D01*
X159193056Y-57973977D01*
X159134255Y-58020637D01*
X159058967Y-58045762D01*
X158999616Y-58050547D01*
X158923259Y-58042819D01*
X158852242Y-58016467D01*
X158794818Y-57971413D01*
X158753102Y-57909467D01*
X158730204Y-57839629D01*
X158721832Y-57765762D01*
X158721546Y-57747930D01*
X158527739Y-57747930D01*
X158525907Y-57754159D01*
X158529785Y-57832412D01*
X158545542Y-57905513D01*
X158573177Y-57973462D01*
X158580129Y-57986434D01*
X158625777Y-58052145D01*
X158683634Y-58107727D01*
X158746825Y-58149466D01*
X158819103Y-58181150D01*
X158891067Y-58199633D01*
X158969580Y-58208611D01*
X159006577Y-58209549D01*
X159083171Y-58205289D01*
X159160866Y-58190563D01*
X159230762Y-58165318D01*
X159250209Y-58155694D01*
X159314941Y-58113993D01*
X159368591Y-58062941D01*
X159407746Y-58008415D01*
X159439242Y-57941106D01*
X159457664Y-57867129D01*
X159463067Y-57794092D01*
X159455983Y-57717397D01*
X159436588Y-57646251D01*
X159430827Y-57631060D01*
X159399674Y-57564610D01*
X159358604Y-57496829D01*
X159336305Y-57465097D01*
X159290751Y-57405537D01*
X159239223Y-57343725D01*
X159187195Y-57285579D01*
X158794452Y-56858032D01*
X158796650Y-56852903D01*
X159326779Y-56852903D01*
X159342899Y-57023995D01*
X159514358Y-57023995D01*
X159514358Y-56695000D01*
X158547156Y-56695000D01*
G37*
G36*
X160710537Y-56824326D02*
G01*
X160543109Y-56852903D01*
X160543109Y-57039382D01*
X160749372Y-57039382D01*
X160749372Y-57197285D01*
X160543109Y-57197285D01*
X160543109Y-58187934D01*
X160329885Y-58187934D01*
X159699504Y-57197285D01*
X159886950Y-57197285D01*
X160315597Y-57847581D01*
X160336113Y-57901803D01*
X160342341Y-57899972D01*
X160342341Y-57197285D01*
X159886950Y-57197285D01*
X159699504Y-57197285D01*
X159671528Y-57153321D01*
X159671528Y-57039382D01*
X160342341Y-57039382D01*
X160342341Y-56852903D01*
X160175279Y-56824326D01*
X160175279Y-56695000D01*
X160710537Y-56695000D01*
X160710537Y-56824326D01*
G37*
G36*
X160823377Y-56566772D02*
G01*
X161446929Y-58187934D01*
X161616922Y-58187934D01*
X160994470Y-56566772D01*
X160823377Y-56566772D01*
G37*
G36*
X162333860Y-56677096D02*
G01*
X162407809Y-56691350D01*
X162485780Y-56721491D01*
X162554810Y-56766183D01*
X162614899Y-56825425D01*
X162651523Y-56876317D01*
X162687277Y-56946007D01*
X162714094Y-57025098D01*
X162729612Y-57098191D01*
X162738923Y-57177812D01*
X162742027Y-57263963D01*
X162742027Y-57617871D01*
X162740024Y-57687068D01*
X162731884Y-57767768D01*
X162717484Y-57842029D01*
X162691938Y-57922640D01*
X162657377Y-57993978D01*
X162613800Y-58056043D01*
X162562481Y-58108211D01*
X162494438Y-58155432D01*
X162417594Y-58187963D01*
X162344724Y-58204153D01*
X162265387Y-58209549D01*
X162199062Y-58205802D01*
X162125423Y-58191410D01*
X162047715Y-58160979D01*
X161978843Y-58115856D01*
X161918807Y-58056043D01*
X161882183Y-58004966D01*
X161846428Y-57935174D01*
X161819612Y-57856108D01*
X161804093Y-57783136D01*
X161794782Y-57703723D01*
X161793228Y-57660736D01*
X161993545Y-57660736D01*
X161995244Y-57718957D01*
X162005033Y-57802362D01*
X162026446Y-57881851D01*
X162063154Y-57952362D01*
X162118622Y-58008262D01*
X162188808Y-58040959D01*
X162265387Y-58050547D01*
X162342968Y-58040959D01*
X162413926Y-58008262D01*
X162469818Y-57952362D01*
X162500593Y-57897453D01*
X162524704Y-57821339D01*
X162536794Y-57740933D01*
X162540160Y-57660736D01*
X162540160Y-57222930D01*
X162538470Y-57164480D01*
X162528733Y-57080709D01*
X162507432Y-57000808D01*
X162470918Y-56929839D01*
X162415607Y-56873730D01*
X162344885Y-56840911D01*
X162267219Y-56831287D01*
X162190569Y-56840947D01*
X162120138Y-56873888D01*
X162064253Y-56930205D01*
X162033318Y-56985595D01*
X162009081Y-57062086D01*
X161996928Y-57142681D01*
X161993545Y-57222930D01*
X161993545Y-57660736D01*
X161793228Y-57660736D01*
X161791678Y-57617871D01*
X161791678Y-57263963D01*
X161793676Y-57194772D01*
X161801792Y-57114095D01*
X161816152Y-57039876D01*
X161841624Y-56959337D01*
X161876087Y-56888098D01*
X161919539Y-56826158D01*
X161970832Y-56774239D01*
X162038780Y-56727243D01*
X162115458Y-56694868D01*
X162188132Y-56678755D01*
X162267219Y-56673384D01*
X162333860Y-56677096D01*
G37*
G36*
X163471705Y-56673812D02*
G01*
X163547948Y-56680236D01*
X163626273Y-56696415D01*
X163697872Y-56722110D01*
X163761456Y-56757072D01*
X163820654Y-56805944D01*
X163868597Y-56865725D01*
X163876050Y-56877757D01*
X163908448Y-56950017D01*
X163925278Y-57024650D01*
X163930146Y-57099099D01*
X163929843Y-57114737D01*
X163919224Y-57189448D01*
X163893436Y-57258363D01*
X163852477Y-57321482D01*
X163837529Y-57339098D01*
X163781143Y-57391305D01*
X163714668Y-57433494D01*
X163646214Y-57462899D01*
X163711544Y-57494247D01*
X163772994Y-57538731D01*
X163823534Y-57593691D01*
X163858117Y-57651315D01*
X163881365Y-57721395D01*
X163889114Y-57798489D01*
X163883532Y-57876599D01*
X163864500Y-57953594D01*
X163831961Y-58021238D01*
X163796570Y-58069487D01*
X163738653Y-58122999D01*
X163674791Y-58161189D01*
X163668487Y-58164165D01*
X163595175Y-58190659D01*
X163522217Y-58204827D01*
X163443248Y-58209549D01*
X163434992Y-58209502D01*
X163356009Y-58203835D01*
X163283537Y-58188722D01*
X163211340Y-58161189D01*
X163164422Y-58134445D01*
X163104264Y-58084024D01*
X163056368Y-58021238D01*
X163024871Y-57953594D01*
X163006449Y-57876599D01*
X163001047Y-57798489D01*
X163001394Y-57794092D01*
X163203280Y-57794092D01*
X163206435Y-57842694D01*
X163226528Y-57915732D01*
X163269225Y-57980205D01*
X163300218Y-58007614D01*
X163368287Y-58040655D01*
X163443248Y-58050547D01*
X163498038Y-58045045D01*
X163568545Y-58017208D01*
X163609386Y-57986069D01*
X163655373Y-57925983D01*
X163678251Y-57868174D01*
X163687247Y-57794092D01*
X163681356Y-57731451D01*
X163656472Y-57661835D01*
X163629991Y-57623075D01*
X163570743Y-57574274D01*
X163519642Y-57552986D01*
X163445080Y-57543133D01*
X163405758Y-57545541D01*
X163330721Y-57567285D01*
X163269592Y-57611643D01*
X163243753Y-57643915D01*
X163212605Y-57715198D01*
X163203280Y-57794092D01*
X163001394Y-57794092D01*
X163006060Y-57734890D01*
X163025805Y-57663535D01*
X163064428Y-57593691D01*
X163108957Y-57543295D01*
X163168765Y-57497859D01*
X163239916Y-57462899D01*
X163224002Y-57457066D01*
X163150615Y-57421889D01*
X163087532Y-57376695D01*
X163034752Y-57321482D01*
X163025569Y-57309322D01*
X162988539Y-57245044D01*
X162966321Y-57174970D01*
X162959308Y-57103129D01*
X163161148Y-57103129D01*
X163169037Y-57176669D01*
X163197052Y-57249309D01*
X163236749Y-57302428D01*
X163296336Y-57348227D01*
X163300339Y-57350436D01*
X163369548Y-57376242D01*
X163443248Y-57384131D01*
X163448405Y-57384096D01*
X163521467Y-57375155D01*
X163590527Y-57348227D01*
X163645122Y-57308449D01*
X163692010Y-57248576D01*
X163694286Y-57244596D01*
X163720882Y-57175960D01*
X163729012Y-57103129D01*
X163721123Y-57029203D01*
X163693109Y-56957683D01*
X163653251Y-56906785D01*
X163593091Y-56863893D01*
X163589087Y-56861887D01*
X163519569Y-56838452D01*
X163445080Y-56831287D01*
X163376449Y-56836996D01*
X163303744Y-56859480D01*
X163238451Y-56903461D01*
X163194439Y-56959782D01*
X163168697Y-57029005D01*
X163161148Y-57103129D01*
X162959308Y-57103129D01*
X162958915Y-57099099D01*
X162958974Y-57090487D01*
X162966058Y-57009042D01*
X162984948Y-56936113D01*
X163019365Y-56865725D01*
X163062098Y-56810928D01*
X163120013Y-56761065D01*
X163189358Y-56722110D01*
X163217236Y-56710690D01*
X163292040Y-56688801D01*
X163365604Y-56677238D01*
X163445080Y-56673384D01*
X163471705Y-56673812D01*
G37*
G36*
X164023936Y-56566772D02*
G01*
X164647488Y-58187934D01*
X164817481Y-58187934D01*
X164195028Y-56566772D01*
X164023936Y-56566772D01*
G37*
G36*
X164967324Y-56695000D02*
G01*
X164967324Y-56833485D01*
X165456786Y-57376803D01*
X165507369Y-57434957D01*
X165554497Y-57492561D01*
X165592708Y-57543499D01*
X165632474Y-57605597D01*
X165661584Y-57669162D01*
X165678271Y-57741261D01*
X165681001Y-57786032D01*
X165671470Y-57864841D01*
X165642877Y-57933654D01*
X165613224Y-57973977D01*
X165554422Y-58020637D01*
X165479135Y-58045762D01*
X165419784Y-58050547D01*
X165343427Y-58042819D01*
X165272410Y-58016467D01*
X165214986Y-57971413D01*
X165173269Y-57909467D01*
X165150371Y-57839629D01*
X165141999Y-57765762D01*
X165141713Y-57747930D01*
X164947906Y-57747930D01*
X164946075Y-57754159D01*
X164949953Y-57832412D01*
X164965709Y-57905513D01*
X164993344Y-57973462D01*
X165000296Y-57986434D01*
X165045945Y-58052145D01*
X165103802Y-58107727D01*
X165166992Y-58149466D01*
X165239270Y-58181150D01*
X165311234Y-58199633D01*
X165389747Y-58208611D01*
X165426744Y-58209549D01*
X165503339Y-58205289D01*
X165581034Y-58190563D01*
X165650929Y-58165318D01*
X165670377Y-58155694D01*
X165735109Y-58113993D01*
X165788758Y-58062941D01*
X165827913Y-58008415D01*
X165859410Y-57941106D01*
X165877832Y-57867129D01*
X165883234Y-57794092D01*
X165876150Y-57717397D01*
X165856756Y-57646251D01*
X165850994Y-57631060D01*
X165819841Y-57564610D01*
X165778772Y-57496829D01*
X165756472Y-57465097D01*
X165710918Y-57405537D01*
X165659390Y-57343725D01*
X165607362Y-57285579D01*
X165214620Y-56858032D01*
X165216818Y-56852903D01*
X165746947Y-56852903D01*
X165763067Y-57023995D01*
X165934525Y-57023995D01*
X165934525Y-56695000D01*
X164967324Y-56695000D01*
G37*
G36*
X166693595Y-56677096D02*
G01*
X166767544Y-56691350D01*
X166845514Y-56721491D01*
X166914544Y-56766183D01*
X166974634Y-56825425D01*
X167011257Y-56876317D01*
X167047012Y-56946007D01*
X167073828Y-57025098D01*
X167089347Y-57098191D01*
X167098658Y-57177812D01*
X167101762Y-57263963D01*
X167101762Y-57617871D01*
X167099758Y-57687068D01*
X167091619Y-57767768D01*
X167077218Y-57842029D01*
X167051673Y-57922640D01*
X167017112Y-57993978D01*
X166973534Y-58056043D01*
X166922216Y-58108211D01*
X166854173Y-58155432D01*
X166777329Y-58187963D01*
X166704458Y-58204153D01*
X166625122Y-58209549D01*
X166558797Y-58205802D01*
X166485158Y-58191410D01*
X166407450Y-58160979D01*
X166338578Y-58115856D01*
X166278541Y-58056043D01*
X166241918Y-58004966D01*
X166206163Y-57935174D01*
X166179347Y-57856108D01*
X166163828Y-57783136D01*
X166154517Y-57703723D01*
X166152963Y-57660736D01*
X166353280Y-57660736D01*
X166354979Y-57718957D01*
X166364768Y-57802362D01*
X166386181Y-57881851D01*
X166422889Y-57952362D01*
X166478357Y-58008262D01*
X166548543Y-58040959D01*
X166625122Y-58050547D01*
X166702703Y-58040959D01*
X166773661Y-58008262D01*
X166829553Y-57952362D01*
X166860328Y-57897453D01*
X166884439Y-57821339D01*
X166896529Y-57740933D01*
X166899895Y-57660736D01*
X166899895Y-57222930D01*
X166898205Y-57164480D01*
X166888467Y-57080709D01*
X166867167Y-57000808D01*
X166830652Y-56929839D01*
X166775342Y-56873730D01*
X166704620Y-56840911D01*
X166626954Y-56831287D01*
X166550304Y-56840947D01*
X166479873Y-56873888D01*
X166423988Y-56930205D01*
X166393053Y-56985595D01*
X166368816Y-57062086D01*
X166356663Y-57142681D01*
X166353280Y-57222930D01*
X166353280Y-57660736D01*
X166152963Y-57660736D01*
X166151413Y-57617871D01*
X166151413Y-57263963D01*
X166153411Y-57194772D01*
X166161527Y-57114095D01*
X166175886Y-57039876D01*
X166201359Y-56959337D01*
X166235821Y-56888098D01*
X166279274Y-56826158D01*
X166330567Y-56774239D01*
X166398515Y-56727243D01*
X166475193Y-56694868D01*
X166547866Y-56678755D01*
X166626954Y-56673384D01*
X166693595Y-56677096D01*
G37*
G36*
X167323779Y-56695000D02*
G01*
X167323779Y-56833485D01*
X167813241Y-57376803D01*
X167863824Y-57434957D01*
X167910952Y-57492561D01*
X167949162Y-57543499D01*
X167988929Y-57605597D01*
X168018039Y-57669162D01*
X168034726Y-57741261D01*
X168037456Y-57786032D01*
X168027925Y-57864841D01*
X167999332Y-57933654D01*
X167969679Y-57973977D01*
X167910877Y-58020637D01*
X167835590Y-58045762D01*
X167776239Y-58050547D01*
X167699882Y-58042819D01*
X167628865Y-58016467D01*
X167571441Y-57971413D01*
X167529724Y-57909467D01*
X167506826Y-57839629D01*
X167498454Y-57765762D01*
X167498168Y-57747930D01*
X167304361Y-57747930D01*
X167302530Y-57754159D01*
X167306408Y-57832412D01*
X167322164Y-57905513D01*
X167349799Y-57973462D01*
X167356751Y-57986434D01*
X167402400Y-58052145D01*
X167460257Y-58107727D01*
X167523447Y-58149466D01*
X167595725Y-58181150D01*
X167667689Y-58199633D01*
X167746202Y-58208611D01*
X167783199Y-58209549D01*
X167859794Y-58205289D01*
X167937489Y-58190563D01*
X168007384Y-58165318D01*
X168026832Y-58155694D01*
X168091564Y-58113993D01*
X168145213Y-58062941D01*
X168184368Y-58008415D01*
X168215865Y-57941106D01*
X168234287Y-57867129D01*
X168239689Y-57794092D01*
X168232605Y-57717397D01*
X168213211Y-57646251D01*
X168207449Y-57631060D01*
X168176296Y-57564610D01*
X168135227Y-57496829D01*
X168112927Y-57465097D01*
X168067373Y-57405537D01*
X168015845Y-57343725D01*
X167963817Y-57285579D01*
X167571075Y-56858032D01*
X167573273Y-56852903D01*
X168103402Y-56852903D01*
X168119522Y-57023995D01*
X168290980Y-57023995D01*
X168290980Y-56695000D01*
X167323779Y-56695000D01*
G37*
G36*
X169487160Y-56824326D02*
G01*
X169319731Y-56852903D01*
X169319731Y-57039382D01*
X169525994Y-57039382D01*
X169525994Y-57197285D01*
X169319731Y-57197285D01*
X169319731Y-58187934D01*
X169106507Y-58187934D01*
X168476127Y-57197285D01*
X168663573Y-57197285D01*
X169092219Y-57847581D01*
X169112735Y-57901803D01*
X169118964Y-57899972D01*
X169118964Y-57197285D01*
X168663573Y-57197285D01*
X168476127Y-57197285D01*
X168448151Y-57153321D01*
X168448151Y-57039382D01*
X169118964Y-57039382D01*
X169118964Y-56852903D01*
X168951902Y-56824326D01*
X168951902Y-56695000D01*
X169487160Y-56695000D01*
X169487160Y-56824326D01*
G37*
G36*
X158462160Y-54175000D02*
G01*
X158462160Y-54304326D01*
X158629222Y-54332903D01*
X158629222Y-55508932D01*
X158462160Y-55537875D01*
X158462160Y-55667934D01*
X158998151Y-55667934D01*
X158998151Y-55537875D01*
X158831089Y-55508932D01*
X158831089Y-54993091D01*
X159544767Y-54993091D01*
X159544767Y-55508932D01*
X159377705Y-55537875D01*
X159377705Y-55667934D01*
X159544767Y-55667934D01*
X159747000Y-55667934D01*
X159914062Y-55667934D01*
X159914062Y-55537875D01*
X159747000Y-55508932D01*
X159747000Y-54332903D01*
X159914062Y-54304326D01*
X159914062Y-54175000D01*
X159377705Y-54175000D01*
X159377705Y-54304326D01*
X159544767Y-54332903D01*
X159544767Y-54834455D01*
X158831089Y-54834455D01*
X158831089Y-54332903D01*
X158998151Y-54304326D01*
X158998151Y-54175000D01*
X158462160Y-54175000D01*
G37*
G36*
X160474611Y-54155768D02*
G01*
X160551261Y-54172847D01*
X160618580Y-54203210D01*
X160650510Y-54222770D01*
X160712532Y-54271160D01*
X160764760Y-54327773D01*
X160772087Y-54255966D01*
X160773084Y-54249154D01*
X160786375Y-54175000D01*
X161076536Y-54175000D01*
X161076536Y-54304326D01*
X160968825Y-54315317D01*
X160966260Y-54356350D01*
X160965894Y-54398482D01*
X160965894Y-54932641D01*
X160960389Y-55007201D01*
X160940617Y-55082666D01*
X160901185Y-55155138D01*
X160850855Y-55208513D01*
X160836181Y-55220181D01*
X160770670Y-55259325D01*
X160694260Y-55286424D01*
X160618461Y-55300256D01*
X160534317Y-55304867D01*
X160467814Y-55302404D01*
X160391177Y-55292702D01*
X160313399Y-55273726D01*
X160271136Y-55258682D01*
X160204152Y-55226284D01*
X160139376Y-55181769D01*
X160139376Y-54927512D01*
X160295081Y-54927512D01*
X160316696Y-55082484D01*
X160341120Y-55098162D01*
X160410119Y-55129012D01*
X160454816Y-55139924D01*
X160531019Y-55145865D01*
X160564387Y-55144514D01*
X160639842Y-55128361D01*
X160702844Y-55090544D01*
X160717184Y-55076009D01*
X160753929Y-55008964D01*
X160764027Y-54934839D01*
X160764027Y-54826029D01*
X160565824Y-54826029D01*
X160528300Y-54825348D01*
X160448769Y-54818834D01*
X160376020Y-54805422D01*
X160303141Y-54782431D01*
X160251598Y-54758457D01*
X160186391Y-54714339D01*
X160135712Y-54660432D01*
X160113157Y-54624834D01*
X160085967Y-54551839D01*
X160077827Y-54476517D01*
X160077940Y-54472487D01*
X160279693Y-54472487D01*
X160280305Y-54487736D01*
X160301718Y-54559827D01*
X160349303Y-54620865D01*
X160405636Y-54658827D01*
X160478420Y-54681032D01*
X160558863Y-54687543D01*
X160764027Y-54687543D01*
X160764027Y-54486775D01*
X160754313Y-54470135D01*
X160704730Y-54413135D01*
X160644959Y-54370638D01*
X160613166Y-54354328D01*
X160540130Y-54330565D01*
X160461410Y-54322644D01*
X160394848Y-54328993D01*
X160324756Y-54361113D01*
X160295580Y-54398052D01*
X160279693Y-54472487D01*
X160077940Y-54472487D01*
X160078619Y-54448275D01*
X160090501Y-54370850D01*
X160120425Y-54297670D01*
X160167952Y-54238014D01*
X160204798Y-54209253D01*
X160270981Y-54177269D01*
X160350264Y-54158673D01*
X160431735Y-54153384D01*
X160474611Y-54155768D01*
G37*
G36*
X161231508Y-54175000D02*
G01*
X161231508Y-54304326D01*
X161398570Y-54332903D01*
X161398570Y-55125715D01*
X161231508Y-55154291D01*
X161231508Y-55284351D01*
X161578821Y-55284351D01*
X161596407Y-55142934D01*
X161598238Y-55123517D01*
X161640266Y-55186469D01*
X161693640Y-55240605D01*
X161714742Y-55256507D01*
X161784085Y-55291218D01*
X161856794Y-55304442D01*
X161873378Y-55304867D01*
X161938224Y-55299371D01*
X161985852Y-55288747D01*
X161959474Y-55100802D01*
X161818790Y-55109228D01*
X161745242Y-55102634D01*
X161684334Y-55072592D01*
X161631101Y-55017092D01*
X161600437Y-54961584D01*
X161600437Y-54332903D01*
X161767499Y-54304326D01*
X161767499Y-54175000D01*
X161231508Y-54175000D01*
G37*
G36*
X162106386Y-54175000D02*
G01*
X162106386Y-54304326D01*
X162273448Y-54332903D01*
X162273448Y-55125715D01*
X162106386Y-55154291D01*
X162106386Y-55284351D01*
X162453699Y-55284351D01*
X162471284Y-55142934D01*
X162473116Y-55123517D01*
X162515144Y-55186469D01*
X162568518Y-55240605D01*
X162589620Y-55256507D01*
X162658963Y-55291218D01*
X162731672Y-55304442D01*
X162748256Y-55304867D01*
X162813102Y-55299371D01*
X162860730Y-55288747D01*
X162834351Y-55100802D01*
X162693668Y-55109228D01*
X162620120Y-55102634D01*
X162559212Y-55072592D01*
X162505979Y-55017092D01*
X162475314Y-54961584D01*
X162475314Y-54332903D01*
X162642377Y-54304326D01*
X162642377Y-54175000D01*
X162106386Y-54175000D01*
G37*
G36*
X163243214Y-53726936D02*
G01*
X163181298Y-53732798D01*
X163123046Y-53743422D01*
X163143563Y-53902424D01*
X163191923Y-53898761D01*
X163234055Y-53897295D01*
X163305210Y-53916472D01*
X163338835Y-53946388D01*
X163380389Y-54008786D01*
X163412125Y-54075544D01*
X163414306Y-54080844D01*
X163462666Y-54197714D01*
X163069924Y-55137805D01*
X162950855Y-55154291D01*
X162950855Y-55284351D01*
X163416504Y-55284351D01*
X163416504Y-55154291D01*
X163282049Y-55133775D01*
X163498570Y-54579099D01*
X163550594Y-54434385D01*
X163556822Y-54434385D01*
X163813277Y-55133775D01*
X163671860Y-55154291D01*
X163671860Y-55284351D01*
X164127984Y-55284351D01*
X164127984Y-55154291D01*
X164013312Y-55137805D01*
X163576239Y-54004640D01*
X163544570Y-53933467D01*
X163507267Y-53869701D01*
X163501867Y-53861758D01*
X163453599Y-53805521D01*
X163395255Y-53762840D01*
X163325737Y-53735912D01*
X163248753Y-53726971D01*
X163243214Y-53726936D01*
G37*
G36*
X165529616Y-54177638D02*
G01*
X165606106Y-54187770D01*
X165686977Y-54209196D01*
X165758837Y-54240965D01*
X165821686Y-54283077D01*
X165852941Y-54311693D01*
X165902950Y-54377960D01*
X165933033Y-54445822D01*
X165950354Y-54522907D01*
X165955042Y-54596318D01*
X165954487Y-54619165D01*
X165943798Y-54695430D01*
X165919505Y-54765945D01*
X165914993Y-54775561D01*
X165873761Y-54841748D01*
X165819487Y-54897470D01*
X165802967Y-54910378D01*
X165738833Y-54946813D01*
X165664882Y-54969644D01*
X165714181Y-54991213D01*
X165778598Y-55033013D01*
X165831577Y-55086147D01*
X165852993Y-55116282D01*
X165884192Y-55186612D01*
X165894592Y-55263834D01*
X165894077Y-55288717D01*
X165884159Y-55369563D01*
X165861619Y-55440696D01*
X165820403Y-55510100D01*
X165762701Y-55566817D01*
X165709773Y-55601181D01*
X165638907Y-55632286D01*
X165558224Y-55653714D01*
X165481253Y-55664379D01*
X165397069Y-55667934D01*
X164920430Y-55667934D01*
X164753367Y-55667934D01*
X164753367Y-55537875D01*
X164920430Y-55508932D01*
X164920430Y-55033391D01*
X165122296Y-55033391D01*
X165122296Y-55508932D01*
X165397069Y-55508932D01*
X165472491Y-55504179D01*
X165550112Y-55485462D01*
X165616522Y-55448848D01*
X165649701Y-55415165D01*
X165683398Y-55344120D01*
X165692359Y-55268230D01*
X165690722Y-55235345D01*
X165671146Y-55160309D01*
X165625314Y-55096406D01*
X165593984Y-55071852D01*
X165525194Y-55042252D01*
X165449460Y-55033391D01*
X165122296Y-55033391D01*
X164920430Y-55033391D01*
X164920430Y-54332903D01*
X165122296Y-54332903D01*
X165122296Y-54875488D01*
X165491591Y-54875488D01*
X165567685Y-54868001D01*
X165637771Y-54841416D01*
X165682741Y-54806384D01*
X165723866Y-54745062D01*
X165745878Y-54671364D01*
X165752076Y-54594487D01*
X165747291Y-54535410D01*
X165722166Y-54460191D01*
X165675506Y-54401046D01*
X165615757Y-54362250D01*
X165541288Y-54339557D01*
X165460817Y-54332903D01*
X165122296Y-54332903D01*
X164920430Y-54332903D01*
X164753367Y-54304326D01*
X164753367Y-54175000D01*
X165460817Y-54175000D01*
X165529616Y-54177638D01*
G37*
G36*
X166649854Y-54155137D02*
G01*
X166728754Y-54167128D01*
X166800988Y-54190480D01*
X166866557Y-54225191D01*
X166899907Y-54248991D01*
X166953761Y-54298682D01*
X166999675Y-54357183D01*
X167037649Y-54424494D01*
X167064256Y-54490760D01*
X167083261Y-54561697D01*
X167094664Y-54637305D01*
X167098465Y-54717585D01*
X167098465Y-54739933D01*
X167095555Y-54810398D01*
X167085102Y-54886465D01*
X167067047Y-54957768D01*
X167037649Y-55032292D01*
X167017515Y-55070687D01*
X166975008Y-55133081D01*
X166924444Y-55186839D01*
X166865824Y-55231960D01*
X166822689Y-55256737D01*
X166752335Y-55284291D01*
X166675200Y-55300310D01*
X166600942Y-55304867D01*
X166554528Y-55303087D01*
X166475941Y-55290912D01*
X166403729Y-55267203D01*
X166337893Y-55231960D01*
X166304428Y-55207941D01*
X166250368Y-55157899D01*
X166204248Y-55099105D01*
X166166068Y-55031559D01*
X166142514Y-54974027D01*
X166120730Y-54894905D01*
X166109396Y-54819709D01*
X166105618Y-54739933D01*
X166307851Y-54739933D01*
X166309889Y-54796788D01*
X166320588Y-54876146D01*
X166340457Y-54948394D01*
X166349210Y-54970771D01*
X166387869Y-55039443D01*
X166439009Y-55093108D01*
X166460254Y-55108307D01*
X166527734Y-55137158D01*
X166600942Y-55145865D01*
X166618935Y-55145401D01*
X166695491Y-55130976D01*
X166763975Y-55093108D01*
X166783681Y-55075665D01*
X166830484Y-55016640D01*
X166862893Y-54948394D01*
X166879009Y-54894875D01*
X166892293Y-54817294D01*
X166896232Y-54739933D01*
X166896232Y-54717585D01*
X166893595Y-54653816D01*
X166883209Y-54581229D01*
X166862893Y-54508757D01*
X166854060Y-54486461D01*
X166815301Y-54417889D01*
X166764341Y-54364043D01*
X166747637Y-54351679D01*
X166676228Y-54319994D01*
X166603141Y-54311287D01*
X166579264Y-54312111D01*
X166503359Y-54327979D01*
X166439376Y-54364043D01*
X166419573Y-54381584D01*
X166372690Y-54440688D01*
X166340457Y-54508757D01*
X166324696Y-54562454D01*
X166311704Y-54640181D01*
X166307851Y-54717585D01*
X166307851Y-54739933D01*
X166105618Y-54739933D01*
X166105618Y-54717585D01*
X166108511Y-54647513D01*
X166118900Y-54571681D01*
X166136847Y-54500384D01*
X166166068Y-54425593D01*
X166186299Y-54387092D01*
X166228890Y-54324553D01*
X166279421Y-54270709D01*
X166337893Y-54225558D01*
X166381153Y-54201030D01*
X166451645Y-54173753D01*
X166528860Y-54157895D01*
X166603141Y-54153384D01*
X166649854Y-54155137D01*
G37*
G36*
X167459334Y-53726936D02*
G01*
X167397418Y-53732798D01*
X167339166Y-53743422D01*
X167359683Y-53902424D01*
X167408043Y-53898761D01*
X167450175Y-53897295D01*
X167521330Y-53916472D01*
X167554955Y-53946388D01*
X167596509Y-54008786D01*
X167628245Y-54075544D01*
X167630426Y-54080844D01*
X167678786Y-54197714D01*
X167286044Y-55137805D01*
X167166975Y-55154291D01*
X167166975Y-55284351D01*
X167632624Y-55284351D01*
X167632624Y-55154291D01*
X167498169Y-55133775D01*
X167714690Y-54579099D01*
X167766714Y-54434385D01*
X167772942Y-54434385D01*
X168029397Y-55133775D01*
X167887980Y-55154291D01*
X167887980Y-55284351D01*
X168344104Y-55284351D01*
X168344104Y-55154291D01*
X168229432Y-55137805D01*
X167792359Y-54004640D01*
X167760690Y-53933467D01*
X167723387Y-53869701D01*
X167717987Y-53861758D01*
X167669719Y-53805521D01*
X167611375Y-53762840D01*
X167541858Y-53735912D01*
X167464873Y-53726971D01*
X167459334Y-53726936D01*
G37*
G36*
X168894919Y-54154332D02*
G01*
X168971588Y-54165672D01*
X169044959Y-54192219D01*
X169068974Y-54205363D01*
X169129842Y-54251686D01*
X169177949Y-54307257D01*
X169194435Y-54175000D01*
X169536619Y-54175000D01*
X169536619Y-54304326D01*
X169369557Y-54332903D01*
X169369557Y-55774546D01*
X169167691Y-55774546D01*
X169000628Y-55774546D01*
X169000628Y-55644487D01*
X169167691Y-55615544D01*
X169167691Y-55163450D01*
X169157468Y-55176078D01*
X169104654Y-55227429D01*
X169038730Y-55268597D01*
X169014688Y-55279046D01*
X168941277Y-55298881D01*
X168865074Y-55304867D01*
X168848189Y-55304576D01*
X168768319Y-55294408D01*
X168696034Y-55269715D01*
X168631333Y-55230495D01*
X168613467Y-55216022D01*
X168559771Y-55160152D01*
X168515092Y-55092546D01*
X168482589Y-55021667D01*
X168479434Y-55013243D01*
X168457795Y-54942736D01*
X168442568Y-54866686D01*
X168433753Y-54785096D01*
X168431298Y-54709159D01*
X168633531Y-54709159D01*
X168635966Y-54778794D01*
X168645553Y-54857135D01*
X168664306Y-54934106D01*
X168674692Y-54963408D01*
X168708897Y-55029882D01*
X168757363Y-55085781D01*
X168773551Y-55098661D01*
X168843640Y-55131666D01*
X168916365Y-55140736D01*
X168921790Y-55140696D01*
X168997423Y-55130478D01*
X169066208Y-55099703D01*
X169122903Y-55051709D01*
X169167691Y-54989061D01*
X169167691Y-54474319D01*
X169165174Y-54469681D01*
X169122353Y-54408007D01*
X169066208Y-54358548D01*
X169058402Y-54353579D01*
X168987923Y-54325369D01*
X168914533Y-54317515D01*
X168905630Y-54317614D01*
X168824629Y-54329507D01*
X168752388Y-54365482D01*
X168702042Y-54418998D01*
X168678759Y-54459360D01*
X168652867Y-54528548D01*
X168637813Y-54608111D01*
X168633531Y-54687543D01*
X168633531Y-54709159D01*
X168431298Y-54709159D01*
X168431298Y-54687543D01*
X168433102Y-54629034D01*
X168441116Y-54555349D01*
X168457795Y-54478365D01*
X168482589Y-54407641D01*
X168489178Y-54392870D01*
X168527446Y-54325157D01*
X168574587Y-54267677D01*
X168630601Y-54220429D01*
X168649142Y-54208447D01*
X168715832Y-54177020D01*
X168790035Y-54158687D01*
X168863242Y-54153384D01*
X168894919Y-54154332D01*
G37*
D11*
G36*
X170929475Y-132962421D02*
G01*
X170929475Y-133174546D01*
X170743728Y-133174546D01*
X170743728Y-133303872D01*
X170929475Y-133303872D01*
X170929475Y-133505739D01*
X171071441Y-133505739D01*
X171071441Y-133303872D01*
X171255356Y-133303872D01*
X171255356Y-133174546D01*
X171071441Y-133174546D01*
X171071441Y-132962421D01*
X170929475Y-132962421D01*
G37*
G36*
X171017525Y-130368235D02*
G01*
X171058865Y-130373062D01*
X171097873Y-130382395D01*
X171134549Y-130396234D01*
X171168894Y-130414577D01*
X171187372Y-130426948D01*
X171217175Y-130451268D01*
X171243752Y-130478990D01*
X171267104Y-130510113D01*
X171287229Y-130544637D01*
X171301610Y-130576517D01*
X171314627Y-130615810D01*
X171323594Y-130657365D01*
X171328057Y-130694784D01*
X171329544Y-130733864D01*
X171329544Y-130747236D01*
X171328031Y-130786621D01*
X171323491Y-130824267D01*
X171315924Y-130860174D01*
X171303270Y-130899868D01*
X171286497Y-130937196D01*
X171275259Y-130957335D01*
X171253088Y-130989877D01*
X171227725Y-131018984D01*
X171199172Y-131044654D01*
X171167428Y-131066889D01*
X171143029Y-131080451D01*
X171106901Y-131095577D01*
X171068476Y-131106197D01*
X171027755Y-131112312D01*
X170991024Y-131113967D01*
X170743728Y-131113967D01*
X170663311Y-131113967D01*
X170663311Y-131023841D01*
X170743728Y-131006439D01*
X170743728Y-130481805D01*
X170893388Y-130481805D01*
X170893388Y-130999112D01*
X170985345Y-130999112D01*
X171022296Y-130995981D01*
X171058645Y-130985306D01*
X171090492Y-130967055D01*
X171117789Y-130942115D01*
X171140237Y-130911374D01*
X171156437Y-130878394D01*
X171161761Y-130863975D01*
X171171965Y-130825571D01*
X171177355Y-130788132D01*
X171179152Y-130747969D01*
X171179152Y-130733864D01*
X171178797Y-130715843D01*
X171175403Y-130677139D01*
X171168416Y-130640985D01*
X171156437Y-130603804D01*
X171140237Y-130570674D01*
X171117789Y-130539686D01*
X171090492Y-130514412D01*
X171058645Y-130495848D01*
X171022296Y-130484989D01*
X170985345Y-130481805D01*
X170893388Y-130481805D01*
X170743728Y-130481805D01*
X170743728Y-130474295D01*
X170663311Y-130457076D01*
X170663311Y-130367500D01*
X170992856Y-130367500D01*
X171017525Y-130368235D01*
G37*
G36*
X170858400Y-128109084D02*
G01*
X170858400Y-128224488D01*
X171147462Y-128224488D01*
X171147462Y-128109084D01*
X170858400Y-128109084D01*
G37*
D10*
G36*
X131557920Y-85070589D02*
G01*
X131507674Y-85073785D01*
X131455874Y-85084684D01*
X131407711Y-85103318D01*
X131364651Y-85129912D01*
X131327825Y-85164356D01*
X131299756Y-85202480D01*
X131277969Y-85247269D01*
X131263291Y-85298594D01*
X131256158Y-85350373D01*
X131255059Y-85368810D01*
X131256525Y-85372718D01*
X131385729Y-85372718D01*
X131390448Y-85320463D01*
X131403213Y-85272283D01*
X131428985Y-85228193D01*
X131431647Y-85225195D01*
X131473098Y-85194674D01*
X131522236Y-85180312D01*
X131555722Y-85178056D01*
X131604512Y-85183369D01*
X131648779Y-85202236D01*
X131685074Y-85237494D01*
X131702268Y-85269159D01*
X131715989Y-85318157D01*
X131719853Y-85367344D01*
X131719853Y-85974288D01*
X131587230Y-85992117D01*
X131587230Y-86080289D01*
X131966050Y-86080289D01*
X131966050Y-85993583D01*
X131854675Y-85974288D01*
X131854675Y-85367344D01*
X131851360Y-85313902D01*
X131841414Y-85264705D01*
X131822814Y-85215492D01*
X131820726Y-85211273D01*
X131793605Y-85168814D01*
X131758922Y-85133454D01*
X131720830Y-85107470D01*
X131671828Y-85086472D01*
X131620918Y-85074947D01*
X131569920Y-85070733D01*
X131557920Y-85070589D01*
G37*
G36*
X132417820Y-85070875D02*
G01*
X132468649Y-85075157D01*
X132520865Y-85085943D01*
X132568597Y-85103073D01*
X132610987Y-85126381D01*
X132650453Y-85158963D01*
X132682414Y-85198817D01*
X132687383Y-85206838D01*
X132708982Y-85255011D01*
X132720202Y-85304766D01*
X132723447Y-85354399D01*
X132723245Y-85364825D01*
X132716166Y-85414632D01*
X132698973Y-85460575D01*
X132671668Y-85502655D01*
X132661702Y-85514398D01*
X132624112Y-85549203D01*
X132579795Y-85577329D01*
X132534159Y-85596933D01*
X132577713Y-85617831D01*
X132618679Y-85647487D01*
X132652373Y-85684127D01*
X132675428Y-85722543D01*
X132690926Y-85769263D01*
X132696092Y-85820659D01*
X132692371Y-85872732D01*
X132679683Y-85924062D01*
X132657990Y-85969159D01*
X132634396Y-86001324D01*
X132595785Y-86036999D01*
X132553210Y-86062459D01*
X132549007Y-86064443D01*
X132500133Y-86082106D01*
X132451494Y-86091551D01*
X132398849Y-86094699D01*
X132393344Y-86094668D01*
X132340689Y-86090890D01*
X132292375Y-86080815D01*
X132244243Y-86062459D01*
X132212964Y-86044630D01*
X132172859Y-86011016D01*
X132140928Y-85969159D01*
X132119931Y-85924062D01*
X132107649Y-85872732D01*
X132104047Y-85820659D01*
X132104278Y-85817728D01*
X132238869Y-85817728D01*
X132240973Y-85850129D01*
X132254368Y-85898821D01*
X132282833Y-85941803D01*
X132303495Y-85960076D01*
X132348874Y-85982103D01*
X132398849Y-85988698D01*
X132435375Y-85985030D01*
X132482380Y-85966472D01*
X132509607Y-85945712D01*
X132540265Y-85905655D01*
X132555517Y-85867116D01*
X132561514Y-85817728D01*
X132557587Y-85775967D01*
X132540998Y-85729556D01*
X132523344Y-85703716D01*
X132483845Y-85671182D01*
X132449778Y-85656990D01*
X132400070Y-85650422D01*
X132373855Y-85652027D01*
X132323830Y-85666523D01*
X132283077Y-85696095D01*
X132265852Y-85717610D01*
X132245086Y-85765132D01*
X132238869Y-85817728D01*
X132104278Y-85817728D01*
X132107390Y-85778260D01*
X132120553Y-85730690D01*
X132146301Y-85684127D01*
X132175987Y-85650530D01*
X132215860Y-85620239D01*
X132263294Y-85596933D01*
X132252684Y-85593044D01*
X132203760Y-85569593D01*
X132161704Y-85539463D01*
X132126518Y-85502655D01*
X132120395Y-85494548D01*
X132095709Y-85451696D01*
X132080897Y-85404980D01*
X132076222Y-85357086D01*
X132210782Y-85357086D01*
X132216041Y-85406112D01*
X132234717Y-85454539D01*
X132261182Y-85489952D01*
X132300907Y-85520484D01*
X132303576Y-85521957D01*
X132349715Y-85539161D01*
X132398849Y-85544420D01*
X132402287Y-85544397D01*
X132450994Y-85538436D01*
X132497034Y-85520484D01*
X132533431Y-85493966D01*
X132564689Y-85454050D01*
X132566207Y-85451397D01*
X132583938Y-85405640D01*
X132589358Y-85357086D01*
X132584099Y-85307802D01*
X132565422Y-85260122D01*
X132538850Y-85226190D01*
X132498744Y-85197595D01*
X132496074Y-85196258D01*
X132449729Y-85180634D01*
X132400070Y-85175858D01*
X132354316Y-85179664D01*
X132305845Y-85194653D01*
X132262317Y-85223974D01*
X132232976Y-85261521D01*
X132215814Y-85307670D01*
X132210782Y-85357086D01*
X132076222Y-85357086D01*
X132075960Y-85354399D01*
X132075999Y-85348658D01*
X132080722Y-85294361D01*
X132093315Y-85245742D01*
X132116260Y-85198817D01*
X132144748Y-85162285D01*
X132183359Y-85129043D01*
X132229588Y-85103073D01*
X132248174Y-85095460D01*
X132298043Y-85080867D01*
X132347086Y-85073159D01*
X132400070Y-85070589D01*
X132417820Y-85070875D01*
G37*
G36*
X126258506Y-97136128D02*
G01*
X126357104Y-97155133D01*
X126461065Y-97195321D01*
X126553105Y-97254910D01*
X126633224Y-97333900D01*
X126682055Y-97401757D01*
X126729729Y-97494676D01*
X126765483Y-97600131D01*
X126786175Y-97697588D01*
X126798590Y-97803750D01*
X126802728Y-97918618D01*
X126802728Y-98390495D01*
X126800057Y-98482758D01*
X126789204Y-98590358D01*
X126770003Y-98689372D01*
X126735943Y-98796854D01*
X126689861Y-98891971D01*
X126631758Y-98974724D01*
X126563334Y-99044282D01*
X126472610Y-99107243D01*
X126370151Y-99150617D01*
X126272990Y-99172204D01*
X126167208Y-99179399D01*
X126078775Y-99174402D01*
X125980589Y-99155214D01*
X125876979Y-99114639D01*
X125785149Y-99054475D01*
X125705101Y-98974724D01*
X125656269Y-98906622D01*
X125608596Y-98813566D01*
X125572841Y-98708144D01*
X125552149Y-98610848D01*
X125539734Y-98504965D01*
X125537662Y-98447648D01*
X125804752Y-98447648D01*
X125807018Y-98525276D01*
X125820069Y-98636483D01*
X125848620Y-98742468D01*
X125897564Y-98836482D01*
X125971521Y-98911017D01*
X126065103Y-98954612D01*
X126167208Y-98967397D01*
X126270649Y-98954612D01*
X126365260Y-98911017D01*
X126439783Y-98836482D01*
X126480816Y-98763271D01*
X126512964Y-98661785D01*
X126529084Y-98554577D01*
X126533572Y-98447648D01*
X126533572Y-97863907D01*
X126531318Y-97785974D01*
X126518335Y-97674279D01*
X126489935Y-97567744D01*
X126441249Y-97473119D01*
X126367502Y-97398307D01*
X126273206Y-97354548D01*
X126169651Y-97341716D01*
X126067450Y-97354596D01*
X125973543Y-97398517D01*
X125899030Y-97473607D01*
X125857783Y-97547460D01*
X125825467Y-97649448D01*
X125809263Y-97756908D01*
X125804752Y-97863907D01*
X125804752Y-98447648D01*
X125537662Y-98447648D01*
X125535596Y-98390495D01*
X125535596Y-97918618D01*
X125538260Y-97826363D01*
X125549082Y-97718793D01*
X125568227Y-97619834D01*
X125602190Y-97512450D01*
X125648141Y-97417464D01*
X125706078Y-97334877D01*
X125774468Y-97265652D01*
X125865065Y-97202991D01*
X125967303Y-97159824D01*
X126064201Y-97138340D01*
X126169651Y-97131179D01*
X126258506Y-97136128D01*
G37*
G36*
X138784235Y-81475589D02*
G01*
X138733649Y-81477695D01*
X138684106Y-81484013D01*
X138635607Y-81494542D01*
X138609113Y-81502212D01*
X138562451Y-81519565D01*
X138516987Y-81541401D01*
X138472721Y-81567719D01*
X138448646Y-81584277D01*
X138448646Y-81797013D01*
X138553182Y-81797013D01*
X138575652Y-81640453D01*
X138618990Y-81617491D01*
X138665655Y-81599895D01*
X138672128Y-81597955D01*
X138722671Y-81587261D01*
X138773041Y-81583187D01*
X138784235Y-81583056D01*
X138836334Y-81586482D01*
X138884686Y-81597836D01*
X138900006Y-81603817D01*
X138944269Y-81630424D01*
X138972791Y-81661458D01*
X138993330Y-81707010D01*
X138998192Y-81747676D01*
X138990443Y-81798242D01*
X138976210Y-81828276D01*
X138942714Y-81864864D01*
X138904159Y-81889581D01*
X138857390Y-81909925D01*
X138808309Y-81925439D01*
X138767138Y-81935743D01*
X138717832Y-81948703D01*
X138667106Y-81965655D01*
X138621404Y-81985119D01*
X138593726Y-81999490D01*
X138549210Y-82029049D01*
X138512717Y-82062648D01*
X138486503Y-82096699D01*
X138464178Y-82141899D01*
X138452157Y-82191770D01*
X138449867Y-82227613D01*
X138454744Y-82279245D01*
X138469377Y-82327009D01*
X138491144Y-82367076D01*
X138523499Y-82406303D01*
X138563474Y-82439353D01*
X138606427Y-82464040D01*
X138655065Y-82482845D01*
X138702919Y-82493814D01*
X138754636Y-82499142D01*
X138778862Y-82499699D01*
X138829619Y-82497715D01*
X138883107Y-82490738D01*
X138932770Y-82478738D01*
X138963754Y-82467948D01*
X139011186Y-82446791D01*
X139056914Y-82420489D01*
X139095889Y-82391011D01*
X139095889Y-82191953D01*
X138991353Y-82191953D01*
X138968883Y-82334347D01*
X138927000Y-82360509D01*
X138892191Y-82375136D01*
X138844542Y-82387057D01*
X138795432Y-82391485D01*
X138778862Y-82391744D01*
X138728004Y-82387290D01*
X138680262Y-82372719D01*
X138677501Y-82371472D01*
X138634345Y-82343763D01*
X138609113Y-82315052D01*
X138589364Y-82270212D01*
X138584689Y-82229567D01*
X138593371Y-82180031D01*
X138606915Y-82154340D01*
X138643125Y-82119014D01*
X138679211Y-82097920D01*
X138725654Y-82078757D01*
X138773641Y-82063299D01*
X138813545Y-82052491D01*
X138860832Y-82039443D01*
X138912650Y-82021376D01*
X138959092Y-82000682D01*
X139006481Y-81973219D01*
X139046554Y-81942179D01*
X139051681Y-81937452D01*
X139087158Y-81897107D01*
X139112498Y-81852273D01*
X139127702Y-81802951D01*
X139132770Y-81749141D01*
X139127690Y-81696229D01*
X139112452Y-81647646D01*
X139089783Y-81607236D01*
X139056045Y-81567928D01*
X139013937Y-81534969D01*
X138968394Y-81510516D01*
X138922228Y-81493632D01*
X138871657Y-81482274D01*
X138823007Y-81476817D01*
X138784235Y-81475589D01*
G37*
G36*
X139677859Y-81490996D02*
G01*
X139731955Y-81497532D01*
X139782685Y-81510170D01*
X139830049Y-81528908D01*
X139874047Y-81553747D01*
X139897536Y-81570470D01*
X139935318Y-81603225D01*
X139968869Y-81640421D01*
X139998190Y-81682058D01*
X140023279Y-81728136D01*
X140041208Y-81770514D01*
X140057437Y-81822430D01*
X140068617Y-81877010D01*
X140074181Y-81925914D01*
X140076036Y-81976775D01*
X140076036Y-81998025D01*
X140074700Y-82041448D01*
X140069571Y-82091526D01*
X140058725Y-82147149D01*
X140042643Y-82199758D01*
X140021325Y-82249351D01*
X140006968Y-82276149D01*
X139978575Y-82319482D01*
X139946020Y-82358281D01*
X139909305Y-82392545D01*
X139868429Y-82422274D01*
X139843414Y-82437044D01*
X139797083Y-82458151D01*
X139747503Y-82473228D01*
X139694675Y-82482274D01*
X139638597Y-82485289D01*
X139360404Y-82485289D01*
X139249030Y-82485289D01*
X139249030Y-82398583D01*
X139360404Y-82379288D01*
X139360404Y-81595268D01*
X139494982Y-81595268D01*
X139494982Y-82379288D01*
X139638597Y-82379288D01*
X139656040Y-82378850D01*
X139705561Y-82372281D01*
X139755645Y-82355737D01*
X139800530Y-82329462D01*
X139812943Y-82319802D01*
X139850380Y-82283013D01*
X139881760Y-82239164D01*
X139904822Y-82193663D01*
X139919097Y-82155058D01*
X139932299Y-82102194D01*
X139939168Y-82052155D01*
X139941458Y-81999246D01*
X139941458Y-81976775D01*
X139940170Y-81937961D01*
X139934446Y-81888265D01*
X139922532Y-81835167D01*
X139904822Y-81785045D01*
X139897680Y-81769138D01*
X139872982Y-81725076D01*
X139839785Y-81682553D01*
X139800530Y-81646803D01*
X139787611Y-81637593D01*
X139741166Y-81613436D01*
X139689522Y-81599345D01*
X139638597Y-81595268D01*
X139494982Y-81595268D01*
X139360404Y-81595268D01*
X139249030Y-81576217D01*
X139249030Y-81490000D01*
X139645436Y-81490000D01*
X139677859Y-81490996D01*
G37*
G36*
X140404787Y-81576217D02*
G01*
X140329560Y-81589162D01*
X140397215Y-81772344D01*
X140795819Y-81772344D01*
X140861521Y-81589162D01*
X140786294Y-81576217D01*
X140786294Y-81490000D01*
X141072058Y-81490000D01*
X141072058Y-81576217D01*
X140998785Y-81586475D01*
X140657090Y-82485289D01*
X140541563Y-82485289D01*
X140309186Y-81885184D01*
X140438981Y-81885184D01*
X140587969Y-82289895D01*
X140596273Y-82312365D01*
X140600181Y-82312365D01*
X140608485Y-82289895D01*
X140754787Y-81885184D01*
X140438981Y-81885184D01*
X140309186Y-81885184D01*
X140193517Y-81586475D01*
X140119755Y-81576217D01*
X140119755Y-81490000D01*
X140404787Y-81490000D01*
X140404787Y-81576217D01*
G37*
G36*
X131577222Y-81490000D02*
G01*
X131243831Y-82387592D01*
X131164452Y-82398583D01*
X131164452Y-82485289D01*
X131478792Y-82485289D01*
X131478792Y-82398583D01*
X131387934Y-82384173D01*
X131610928Y-81751095D01*
X131634131Y-81672449D01*
X131638283Y-81672449D01*
X131662707Y-81751095D01*
X131893761Y-82384905D01*
X131792644Y-82398583D01*
X131792644Y-82485289D01*
X132106496Y-82485289D01*
X132106496Y-82398583D01*
X132026385Y-82387592D01*
X131692749Y-81490000D01*
X131577222Y-81490000D01*
G37*
G36*
X132474815Y-81589895D02*
G01*
X132474815Y-81903503D01*
X132200530Y-81903503D01*
X132200530Y-82025136D01*
X132474815Y-82025136D01*
X132474815Y-82314319D01*
X132609392Y-82314319D01*
X132609392Y-82025136D01*
X132882944Y-82025136D01*
X132882944Y-81903503D01*
X132609392Y-81903503D01*
X132609392Y-81589895D01*
X132474815Y-81589895D01*
G37*
G36*
X148094424Y-97131179D02*
G01*
X147995338Y-97136434D01*
X147892584Y-97154599D01*
X147797559Y-97185740D01*
X147770558Y-97197613D01*
X147680161Y-97249867D01*
X147604425Y-97315281D01*
X147548297Y-97386168D01*
X147503426Y-97475831D01*
X147478296Y-97576229D01*
X147472581Y-97676817D01*
X147476489Y-97685122D01*
X147733433Y-97685122D01*
X147744424Y-97586814D01*
X147777397Y-97502916D01*
X147842519Y-97424307D01*
X147901960Y-97384214D01*
X147996421Y-97351054D01*
X148094424Y-97341716D01*
X148194077Y-97350780D01*
X148287056Y-97381687D01*
X148362602Y-97434528D01*
X148421839Y-97516938D01*
X148452122Y-97614324D01*
X148459811Y-97709546D01*
X148451368Y-97815458D01*
X148422575Y-97910032D01*
X148373349Y-97981632D01*
X148286969Y-98038246D01*
X148188060Y-98063606D01*
X148101263Y-98069071D01*
X147866301Y-98069071D01*
X147866301Y-98279609D01*
X148101263Y-98279609D01*
X148202700Y-98288410D01*
X148292749Y-98319665D01*
X148367701Y-98384084D01*
X148397285Y-98435924D01*
X148423354Y-98531236D01*
X148429525Y-98618618D01*
X148421225Y-98717460D01*
X148389351Y-98814913D01*
X148344528Y-98878492D01*
X148262483Y-98936054D01*
X148162992Y-98963142D01*
X148094424Y-98967397D01*
X147996116Y-98956894D01*
X147911242Y-98925387D01*
X147831064Y-98864026D01*
X147790097Y-98808150D01*
X147755338Y-98714470D01*
X147747110Y-98629853D01*
X147488702Y-98629853D01*
X147486259Y-98638157D01*
X147492981Y-98738084D01*
X147521775Y-98839853D01*
X147558066Y-98911221D01*
X147617567Y-98989848D01*
X147691959Y-99056469D01*
X147772512Y-99106615D01*
X147863559Y-99144997D01*
X147963288Y-99169164D01*
X148071700Y-99179115D01*
X148094424Y-99179399D01*
X148194138Y-99174230D01*
X148300443Y-99155133D01*
X148395949Y-99121964D01*
X148491876Y-99066826D01*
X148534549Y-99032365D01*
X148606357Y-98951032D01*
X148657648Y-98854068D01*
X148685698Y-98756401D01*
X148698039Y-98646767D01*
X148698681Y-98613244D01*
X148686346Y-98513308D01*
X148653064Y-98421201D01*
X148623942Y-98367536D01*
X148557745Y-98284120D01*
X148478598Y-98222017D01*
X148400704Y-98181423D01*
X148493238Y-98142882D01*
X148576567Y-98087641D01*
X148644537Y-98011779D01*
X148654228Y-97996287D01*
X148696780Y-97906399D01*
X148721668Y-97809353D01*
X148728967Y-97714919D01*
X148722514Y-97616761D01*
X148700208Y-97517213D01*
X148657268Y-97419280D01*
X148647390Y-97402777D01*
X148584253Y-97320151D01*
X148506339Y-97251610D01*
X148422686Y-97201521D01*
X148328920Y-97164426D01*
X148227139Y-97141071D01*
X148128685Y-97131797D01*
X148094424Y-97131179D01*
G37*
G36*
X134077222Y-81490000D02*
G01*
X133743831Y-82387592D01*
X133664452Y-82398583D01*
X133664452Y-82485289D01*
X133978792Y-82485289D01*
X133978792Y-82398583D01*
X133887934Y-82384173D01*
X134110928Y-81751095D01*
X134134131Y-81672449D01*
X134138283Y-81672449D01*
X134162707Y-81751095D01*
X134393761Y-82384905D01*
X134292644Y-82398583D01*
X134292644Y-82485289D01*
X134606496Y-82485289D01*
X134606496Y-82398583D01*
X134526385Y-82387592D01*
X134192749Y-81490000D01*
X134077222Y-81490000D01*
G37*
G36*
X134730572Y-81857829D02*
G01*
X134730572Y-81963098D01*
X135064940Y-81963098D01*
X135064940Y-81857829D01*
X134730572Y-81857829D01*
G37*
G36*
X125785596Y-88910000D02*
G01*
X125785596Y-89082435D01*
X126092854Y-89120537D01*
X126092854Y-90612372D01*
X125779734Y-90606510D01*
X125779734Y-90775038D01*
X126362498Y-90900579D01*
X126362498Y-89120537D01*
X126668778Y-89082435D01*
X126668778Y-88910000D01*
X125785596Y-88910000D01*
G37*
G36*
X141782770Y-81576217D02*
G01*
X141671395Y-81595268D01*
X141671395Y-81934277D01*
X141882664Y-81938210D01*
X142082212Y-81490000D01*
X142248297Y-81490000D01*
X142248297Y-81578171D01*
X142179420Y-81590383D01*
X142011283Y-81954120D01*
X142013683Y-81954623D01*
X142059741Y-81970914D01*
X142092561Y-81987980D01*
X142134350Y-82020335D01*
X142167208Y-82060795D01*
X142188901Y-82105057D01*
X142201589Y-82155899D01*
X142205310Y-82207829D01*
X142201494Y-82260699D01*
X142188480Y-82312630D01*
X142166231Y-82358039D01*
X142135261Y-82396919D01*
X142095748Y-82428931D01*
X142052414Y-82452072D01*
X142023194Y-82463112D01*
X141974887Y-82475388D01*
X141921210Y-82482526D01*
X141868988Y-82484556D01*
X141425443Y-82484556D01*
X141425443Y-82398583D01*
X141536817Y-82379288D01*
X141536817Y-82040279D01*
X141671395Y-82040279D01*
X141671395Y-82379288D01*
X141868988Y-82379288D01*
X141875392Y-82379243D01*
X141928264Y-82374804D01*
X141976951Y-82361351D01*
X142021395Y-82333370D01*
X142045245Y-82305071D01*
X142064902Y-82259224D01*
X142070732Y-82209050D01*
X142067527Y-82170231D01*
X142050697Y-82121218D01*
X142019441Y-82083265D01*
X142005657Y-82073190D01*
X141957832Y-82052411D01*
X141907883Y-82042965D01*
X141855310Y-82040279D01*
X141671395Y-82040279D01*
X141536817Y-82040279D01*
X141536817Y-81595268D01*
X141425443Y-81576217D01*
X141425443Y-81490000D01*
X141782770Y-81490000D01*
X141782770Y-81576217D01*
G37*
G36*
X142730921Y-81475589D02*
G01*
X142680334Y-81477695D01*
X142630792Y-81484013D01*
X142582292Y-81494542D01*
X142555799Y-81502212D01*
X142509136Y-81519565D01*
X142463672Y-81541401D01*
X142419406Y-81567719D01*
X142395331Y-81584277D01*
X142395331Y-81797013D01*
X142499867Y-81797013D01*
X142522337Y-81640453D01*
X142565675Y-81617491D01*
X142612340Y-81599895D01*
X142618813Y-81597955D01*
X142669356Y-81587261D01*
X142719726Y-81583187D01*
X142730921Y-81583056D01*
X142783019Y-81586482D01*
X142831372Y-81597836D01*
X142846692Y-81603817D01*
X142890954Y-81630424D01*
X142919476Y-81661458D01*
X142940015Y-81707010D01*
X142944877Y-81747676D01*
X142937128Y-81798242D01*
X142922896Y-81828276D01*
X142889399Y-81864864D01*
X142850844Y-81889581D01*
X142804075Y-81909925D01*
X142754994Y-81925439D01*
X142713824Y-81935743D01*
X142664517Y-81948703D01*
X142613791Y-81965655D01*
X142568089Y-81985119D01*
X142540411Y-81999490D01*
X142495895Y-82029049D01*
X142459402Y-82062648D01*
X142433189Y-82096699D01*
X142410863Y-82141899D01*
X142398842Y-82191770D01*
X142396552Y-82227613D01*
X142401430Y-82279245D01*
X142416062Y-82327009D01*
X142437829Y-82367076D01*
X142470185Y-82406303D01*
X142510159Y-82439353D01*
X142553112Y-82464040D01*
X142601751Y-82482845D01*
X142649604Y-82493814D01*
X142701321Y-82499142D01*
X142725547Y-82499699D01*
X142776304Y-82497715D01*
X142829792Y-82490738D01*
X142879456Y-82478738D01*
X142910439Y-82467948D01*
X142957871Y-82446791D01*
X143003599Y-82420489D01*
X143042575Y-82391011D01*
X143042575Y-82191953D01*
X142938039Y-82191953D01*
X142915568Y-82334347D01*
X142873685Y-82360509D01*
X142838876Y-82375136D01*
X142791227Y-82387057D01*
X142742118Y-82391485D01*
X142725547Y-82391744D01*
X142674689Y-82387290D01*
X142626947Y-82372719D01*
X142624187Y-82371472D01*
X142581030Y-82343763D01*
X142555799Y-82315052D01*
X142536049Y-82270212D01*
X142531374Y-82229567D01*
X142540056Y-82180031D01*
X142553600Y-82154340D01*
X142589810Y-82119014D01*
X142625896Y-82097920D01*
X142672339Y-82078757D01*
X142720327Y-82063299D01*
X142760230Y-82052491D01*
X142807517Y-82039443D01*
X142859335Y-82021376D01*
X142905777Y-82000682D01*
X142953166Y-81973219D01*
X142993239Y-81942179D01*
X142998367Y-81937452D01*
X143033843Y-81897107D01*
X143059183Y-81852273D01*
X143074387Y-81802951D01*
X143079455Y-81749141D01*
X143074376Y-81696229D01*
X143059137Y-81647646D01*
X143036468Y-81607236D01*
X143002730Y-81567928D01*
X142960622Y-81534969D01*
X142915080Y-81510516D01*
X142868914Y-81493632D01*
X142818342Y-81482274D01*
X142769692Y-81476817D01*
X142730921Y-81475589D01*
G37*
G36*
X143440935Y-81490000D02*
G01*
X143440935Y-81576217D01*
X143552554Y-81595268D01*
X143552554Y-82383440D01*
X143326873Y-82383440D01*
X143307090Y-82245443D01*
X143205973Y-82245443D01*
X143205973Y-82485289D01*
X144032979Y-82485289D01*
X144032979Y-82245443D01*
X143933328Y-82245443D01*
X143912812Y-82383440D01*
X143687131Y-82383440D01*
X143687131Y-81595268D01*
X143798506Y-81576217D01*
X143798506Y-81490000D01*
X143440935Y-81490000D01*
G37*
G36*
X147502379Y-88910000D02*
G01*
X147502379Y-89094647D01*
X148154996Y-89819071D01*
X148222439Y-89896609D01*
X148285277Y-89973415D01*
X148336224Y-90041332D01*
X148389247Y-90124129D01*
X148428060Y-90208883D01*
X148450309Y-90305015D01*
X148453949Y-90364710D01*
X148441241Y-90469788D01*
X148403116Y-90561539D01*
X148363579Y-90615303D01*
X148285177Y-90677516D01*
X148184794Y-90711016D01*
X148105659Y-90717397D01*
X148003850Y-90707093D01*
X147909160Y-90671956D01*
X147832595Y-90611884D01*
X147776973Y-90529290D01*
X147746443Y-90436172D01*
X147735280Y-90337683D01*
X147734898Y-90313907D01*
X147476489Y-90313907D01*
X147474047Y-90322212D01*
X147479218Y-90426549D01*
X147500227Y-90524017D01*
X147537073Y-90614616D01*
X147546343Y-90631912D01*
X147607207Y-90719527D01*
X147684350Y-90793637D01*
X147768604Y-90849288D01*
X147864975Y-90891534D01*
X147960926Y-90916178D01*
X148065611Y-90928148D01*
X148114940Y-90929399D01*
X148217066Y-90923719D01*
X148320659Y-90904084D01*
X148413853Y-90870425D01*
X148439783Y-90857592D01*
X148526092Y-90801990D01*
X148597625Y-90733921D01*
X148649832Y-90661221D01*
X148691827Y-90571474D01*
X148716390Y-90472839D01*
X148723593Y-90375457D01*
X148714148Y-90273197D01*
X148688289Y-90178335D01*
X148680607Y-90158080D01*
X148639069Y-90069480D01*
X148584310Y-89979106D01*
X148554577Y-89936796D01*
X148493839Y-89857382D01*
X148425134Y-89774966D01*
X148355764Y-89697438D01*
X147832107Y-89127376D01*
X147835038Y-89120537D01*
X148541877Y-89120537D01*
X148563370Y-89348660D01*
X148791981Y-89348660D01*
X148791981Y-88910000D01*
X147502379Y-88910000D01*
G37*
G36*
X136034235Y-81475589D02*
G01*
X135983649Y-81477695D01*
X135934106Y-81484013D01*
X135885607Y-81494542D01*
X135859113Y-81502212D01*
X135812451Y-81519565D01*
X135766987Y-81541401D01*
X135722721Y-81567719D01*
X135698646Y-81584277D01*
X135698646Y-81797013D01*
X135803182Y-81797013D01*
X135825652Y-81640453D01*
X135868990Y-81617491D01*
X135915655Y-81599895D01*
X135922128Y-81597955D01*
X135972671Y-81587261D01*
X136023041Y-81583187D01*
X136034235Y-81583056D01*
X136086334Y-81586482D01*
X136134686Y-81597836D01*
X136150006Y-81603817D01*
X136194269Y-81630424D01*
X136222791Y-81661458D01*
X136243330Y-81707010D01*
X136248192Y-81747676D01*
X136240443Y-81798242D01*
X136226210Y-81828276D01*
X136192714Y-81864864D01*
X136154159Y-81889581D01*
X136107390Y-81909925D01*
X136058309Y-81925439D01*
X136017138Y-81935743D01*
X135967832Y-81948703D01*
X135917106Y-81965655D01*
X135871404Y-81985119D01*
X135843726Y-81999490D01*
X135799210Y-82029049D01*
X135762717Y-82062648D01*
X135736503Y-82096699D01*
X135714178Y-82141899D01*
X135702157Y-82191770D01*
X135699867Y-82227613D01*
X135704744Y-82279245D01*
X135719377Y-82327009D01*
X135741144Y-82367076D01*
X135773499Y-82406303D01*
X135813474Y-82439353D01*
X135856427Y-82464040D01*
X135905065Y-82482845D01*
X135952919Y-82493814D01*
X136004636Y-82499142D01*
X136028862Y-82499699D01*
X136079619Y-82497715D01*
X136133107Y-82490738D01*
X136182770Y-82478738D01*
X136213754Y-82467948D01*
X136261186Y-82446791D01*
X136306914Y-82420489D01*
X136345889Y-82391011D01*
X136345889Y-82191953D01*
X136241353Y-82191953D01*
X136218883Y-82334347D01*
X136177000Y-82360509D01*
X136142191Y-82375136D01*
X136094542Y-82387057D01*
X136045432Y-82391485D01*
X136028862Y-82391744D01*
X135978004Y-82387290D01*
X135930262Y-82372719D01*
X135927501Y-82371472D01*
X135884345Y-82343763D01*
X135859113Y-82315052D01*
X135839364Y-82270212D01*
X135834689Y-82229567D01*
X135843371Y-82180031D01*
X135856915Y-82154340D01*
X135893125Y-82119014D01*
X135929211Y-82097920D01*
X135975654Y-82078757D01*
X136023641Y-82063299D01*
X136063545Y-82052491D01*
X136110832Y-82039443D01*
X136162650Y-82021376D01*
X136209092Y-82000682D01*
X136256481Y-81973219D01*
X136296554Y-81942179D01*
X136301681Y-81937452D01*
X136337158Y-81897107D01*
X136362498Y-81852273D01*
X136377702Y-81802951D01*
X136382770Y-81749141D01*
X136377690Y-81696229D01*
X136362452Y-81647646D01*
X136339783Y-81607236D01*
X136306045Y-81567928D01*
X136263937Y-81534969D01*
X136218394Y-81510516D01*
X136172228Y-81493632D01*
X136121657Y-81482274D01*
X136073007Y-81476817D01*
X136034235Y-81475589D01*
G37*
G36*
X136499030Y-81490000D02*
G01*
X136499030Y-81576217D01*
X136610404Y-81595268D01*
X136610404Y-82379288D01*
X136499030Y-82398583D01*
X136499030Y-82485289D01*
X136610404Y-82485289D01*
X136744982Y-82485289D01*
X136856357Y-82485289D01*
X136856357Y-82398583D01*
X136744982Y-82379288D01*
X136744982Y-81593314D01*
X137097180Y-81593314D01*
X137112812Y-81750362D01*
X137216127Y-81750362D01*
X137216127Y-81490000D01*
X136499030Y-81490000D01*
G37*
G36*
X137731235Y-81475589D02*
G01*
X137676832Y-81477899D01*
X137625916Y-81484828D01*
X137570920Y-81498751D01*
X137520670Y-81518962D01*
X137481374Y-81541290D01*
X137439947Y-81572349D01*
X137403289Y-81608036D01*
X137371399Y-81648350D01*
X137344278Y-81693294D01*
X137330921Y-81721053D01*
X137311411Y-81772439D01*
X137296693Y-81826794D01*
X137287892Y-81875747D01*
X137282611Y-81926880D01*
X137280851Y-81980195D01*
X137280851Y-81994605D01*
X137282697Y-82048243D01*
X137288235Y-82099614D01*
X137297466Y-82148719D01*
X137312902Y-82203142D01*
X137333363Y-82254480D01*
X137358630Y-82301972D01*
X137388267Y-82344860D01*
X137422276Y-82383143D01*
X137460656Y-82416821D01*
X137484549Y-82433998D01*
X137529447Y-82459599D01*
X137578015Y-82478911D01*
X137630253Y-82491936D01*
X137686160Y-82498673D01*
X137719755Y-82499699D01*
X137772591Y-82497323D01*
X137822838Y-82490194D01*
X137870496Y-82478312D01*
X137895854Y-82469658D01*
X137943253Y-82449259D01*
X137989220Y-82423075D01*
X138028722Y-82392965D01*
X138028722Y-82178276D01*
X137921256Y-82178276D01*
X137907090Y-82335568D01*
X137863759Y-82361187D01*
X137856775Y-82364145D01*
X137808631Y-82379034D01*
X137793761Y-82381974D01*
X137743638Y-82387705D01*
X137719023Y-82388325D01*
X137666444Y-82384345D01*
X137618619Y-82372405D01*
X137571053Y-82349803D01*
X137553670Y-82338011D01*
X137514582Y-82302867D01*
X137481886Y-82260330D01*
X137457925Y-82215724D01*
X137451088Y-82199525D01*
X137434205Y-82147765D01*
X137423836Y-82098122D01*
X137417833Y-82045060D01*
X137416161Y-81995826D01*
X137416161Y-81980195D01*
X137417938Y-81927226D01*
X137423267Y-81877740D01*
X137433709Y-81825449D01*
X137448791Y-81777707D01*
X137453286Y-81766482D01*
X137476992Y-81720052D01*
X137506069Y-81680229D01*
X137544675Y-81643731D01*
X137561974Y-81631416D01*
X137609731Y-81606944D01*
X137657891Y-81592669D01*
X137710959Y-81585735D01*
X137736120Y-81585010D01*
X137786363Y-81588250D01*
X137829665Y-81596489D01*
X137876299Y-81611842D01*
X137905624Y-81626775D01*
X137920767Y-81765505D01*
X138026036Y-81765505D01*
X138026036Y-81549351D01*
X137980847Y-81525468D01*
X137934053Y-81507317D01*
X137891946Y-81495129D01*
X137842774Y-81484825D01*
X137792646Y-81478337D01*
X137741565Y-81475665D01*
X137731235Y-81475589D01*
G37*
D12*
G36*
X156114577Y-141879846D02*
G01*
X156162943Y-141885690D01*
X156208300Y-141896989D01*
X156250647Y-141913743D01*
X156289985Y-141935951D01*
X156310986Y-141950902D01*
X156344766Y-141980188D01*
X156374764Y-142013444D01*
X156400978Y-142050671D01*
X156423410Y-142091869D01*
X156439440Y-142129758D01*
X156453950Y-142176175D01*
X156463946Y-142224974D01*
X156468921Y-142268698D01*
X156470579Y-142314172D01*
X156470579Y-142333171D01*
X156469385Y-142371995D01*
X156464799Y-142416768D01*
X156455102Y-142466500D01*
X156440723Y-142513536D01*
X156421663Y-142557876D01*
X156408827Y-142581836D01*
X156383441Y-142620579D01*
X156354335Y-142655269D01*
X156321508Y-142685903D01*
X156284962Y-142712484D01*
X156262596Y-142725689D01*
X156221173Y-142744560D01*
X156176845Y-142758040D01*
X156129612Y-142766128D01*
X156079473Y-142768824D01*
X155830747Y-142768824D01*
X155731169Y-142768824D01*
X155731169Y-142691302D01*
X155830747Y-142674050D01*
X155830747Y-141973074D01*
X155951070Y-141973074D01*
X155951070Y-142674050D01*
X156079473Y-142674050D01*
X156095069Y-142673659D01*
X156139345Y-142667786D01*
X156184124Y-142652994D01*
X156224255Y-142629502D01*
X156235353Y-142620865D01*
X156268825Y-142587973D01*
X156296881Y-142548768D01*
X156317500Y-142508087D01*
X156330263Y-142473571D01*
X156342067Y-142426307D01*
X156348208Y-142381567D01*
X156350256Y-142334262D01*
X156350256Y-142314172D01*
X156349104Y-142279469D01*
X156343986Y-142235037D01*
X156333334Y-142187563D01*
X156317500Y-142142750D01*
X156311114Y-142128528D01*
X156289033Y-142089132D01*
X156259352Y-142051113D01*
X156224255Y-142019151D01*
X156212704Y-142010916D01*
X156171179Y-141989318D01*
X156125005Y-141976719D01*
X156079473Y-141973074D01*
X155951070Y-141973074D01*
X155830747Y-141973074D01*
X155731169Y-141956041D01*
X155731169Y-141878956D01*
X156085588Y-141878956D01*
X156114577Y-141879846D01*
G37*
G36*
X156603786Y-142207825D02*
G01*
X156603786Y-142301943D01*
X156902738Y-142301943D01*
X156902738Y-142207825D01*
X156603786Y-142207825D01*
G37*
G36*
X147899611Y-141866072D02*
G01*
X147854429Y-141868083D01*
X147804665Y-141875514D01*
X147758079Y-141888421D01*
X147714669Y-141906803D01*
X147685606Y-141923285D01*
X147648039Y-141950427D01*
X147614442Y-141981790D01*
X147584817Y-142017375D01*
X147559162Y-142057182D01*
X147546284Y-142081824D01*
X147527225Y-142127764D01*
X147512846Y-142176735D01*
X147504248Y-142221122D01*
X147499089Y-142267735D01*
X147497369Y-142316574D01*
X147497369Y-142331205D01*
X147499096Y-142380475D01*
X147504278Y-142427395D01*
X147512915Y-142471966D01*
X147525007Y-142514188D01*
X147543480Y-142560478D01*
X147546503Y-142566829D01*
X147569819Y-142608942D01*
X147596583Y-142646813D01*
X147626795Y-142680440D01*
X147660456Y-142709826D01*
X147681239Y-142724713D01*
X147719797Y-142746921D01*
X147760571Y-142763674D01*
X147803560Y-142774973D01*
X147848765Y-142780817D01*
X147875590Y-142781708D01*
X147919562Y-142780569D01*
X147966130Y-142776478D01*
X148013820Y-142768319D01*
X148052035Y-142757905D01*
X148095279Y-142741408D01*
X148134386Y-142721669D01*
X148172625Y-142696213D01*
X148175853Y-142693704D01*
X148175853Y-142513983D01*
X148076712Y-142513983D01*
X148063828Y-142643041D01*
X148023528Y-142662810D01*
X147990454Y-142672522D01*
X147946368Y-142679732D01*
X147902416Y-142682410D01*
X147887819Y-142682567D01*
X147841658Y-142678259D01*
X147798440Y-142665336D01*
X147758165Y-142643797D01*
X147750463Y-142638456D01*
X147714743Y-142607632D01*
X147684013Y-142570026D01*
X147660622Y-142530383D01*
X147653724Y-142515949D01*
X147638247Y-142475086D01*
X147627192Y-142430892D01*
X147620558Y-142383369D01*
X147618382Y-142339054D01*
X147618347Y-142332515D01*
X147618347Y-142316574D01*
X147619915Y-142271343D01*
X147625545Y-142222823D01*
X147635269Y-142177688D01*
X147649088Y-142135938D01*
X147651103Y-142130958D01*
X147671912Y-142089290D01*
X147697489Y-142053219D01*
X147731499Y-142019703D01*
X147746751Y-142008232D01*
X147788702Y-141985201D01*
X147830980Y-141971766D01*
X147877542Y-141965240D01*
X147899611Y-141964558D01*
X147946014Y-141966324D01*
X147991853Y-141972750D01*
X148002683Y-141975258D01*
X148044860Y-141988414D01*
X148077367Y-142002991D01*
X148077367Y-142211974D01*
X147906818Y-142218088D01*
X147906818Y-142306748D01*
X148197690Y-142306748D01*
X148197690Y-141962155D01*
X148160949Y-141933853D01*
X148121246Y-141911425D01*
X148087412Y-141895989D01*
X148043510Y-141881527D01*
X147998628Y-141872645D01*
X147954832Y-141867941D01*
X147906816Y-141866101D01*
X147899611Y-141866072D01*
G37*
G36*
X148321071Y-141878956D02*
G01*
X148321071Y-141956041D01*
X148420867Y-141973074D01*
X148420867Y-142674050D01*
X148321071Y-142691302D01*
X148321071Y-142768824D01*
X148420867Y-142768824D01*
X148542282Y-142768824D01*
X148978809Y-142075054D01*
X148982521Y-142076364D01*
X148982521Y-142674050D01*
X148873117Y-142691302D01*
X148873117Y-142768824D01*
X149093018Y-142768824D01*
X149192596Y-142768824D01*
X149192596Y-142691302D01*
X149093018Y-142674050D01*
X149093018Y-141878956D01*
X148982958Y-141878956D01*
X148535076Y-142576219D01*
X148531363Y-142575127D01*
X148531363Y-141973074D01*
X148640768Y-141956041D01*
X148640768Y-141878956D01*
X148321071Y-141878956D01*
G37*
G36*
X149676455Y-141879846D02*
G01*
X149724821Y-141885690D01*
X149770178Y-141896989D01*
X149812525Y-141913743D01*
X149851863Y-141935951D01*
X149872864Y-141950902D01*
X149906644Y-141980188D01*
X149936642Y-142013444D01*
X149962856Y-142050671D01*
X149985289Y-142091869D01*
X150001318Y-142129758D01*
X150015828Y-142176175D01*
X150025824Y-142224974D01*
X150030799Y-142268698D01*
X150032457Y-142314172D01*
X150032457Y-142333171D01*
X150031263Y-142371995D01*
X150026677Y-142416768D01*
X150016980Y-142466500D01*
X150002601Y-142513536D01*
X149983542Y-142557876D01*
X149970705Y-142581836D01*
X149945319Y-142620579D01*
X149916213Y-142655269D01*
X149883387Y-142685903D01*
X149846840Y-142712484D01*
X149824474Y-142725689D01*
X149783051Y-142744560D01*
X149738723Y-142758040D01*
X149691490Y-142766128D01*
X149641352Y-142768824D01*
X149392625Y-142768824D01*
X149293047Y-142768824D01*
X149293047Y-142691302D01*
X149392625Y-142674050D01*
X149392625Y-141973074D01*
X149512948Y-141973074D01*
X149512948Y-142674050D01*
X149641352Y-142674050D01*
X149656947Y-142673659D01*
X149701223Y-142667786D01*
X149746002Y-142652994D01*
X149786133Y-142629502D01*
X149797231Y-142620865D01*
X149830703Y-142587973D01*
X149858759Y-142548768D01*
X149879378Y-142508087D01*
X149892141Y-142473571D01*
X149903945Y-142426307D01*
X149910086Y-142381567D01*
X149912134Y-142334262D01*
X149912134Y-142314172D01*
X149910982Y-142279469D01*
X149905864Y-142235037D01*
X149895212Y-142187563D01*
X149879378Y-142142750D01*
X149872992Y-142128528D01*
X149850911Y-142089132D01*
X149821230Y-142051113D01*
X149786133Y-142019151D01*
X149774582Y-142010916D01*
X149733057Y-141989318D01*
X149686883Y-141976719D01*
X149641352Y-141973074D01*
X149512948Y-141973074D01*
X149392625Y-141973074D01*
X149293047Y-141956041D01*
X149293047Y-141878956D01*
X149647466Y-141878956D01*
X149676455Y-141879846D01*
G37*
G36*
X158448097Y-141866072D02*
G01*
X158402661Y-141868759D01*
X158356179Y-141877921D01*
X158313361Y-141893586D01*
X158275446Y-141915651D01*
X158241088Y-141946902D01*
X158220116Y-141975258D01*
X158201176Y-142015535D01*
X158190596Y-142061902D01*
X158188233Y-142109339D01*
X158189544Y-142113051D01*
X158298293Y-142113051D01*
X158303248Y-142067249D01*
X158319953Y-142025818D01*
X158340221Y-142000589D01*
X158378251Y-141974432D01*
X158420394Y-141962123D01*
X158448097Y-141960190D01*
X158492518Y-141965436D01*
X158533647Y-141983325D01*
X158566673Y-142013910D01*
X158590668Y-142055663D01*
X158603839Y-142101726D01*
X158608655Y-142149783D01*
X158608819Y-142161311D01*
X158605451Y-142207326D01*
X158593807Y-142252579D01*
X158573847Y-142291647D01*
X158566237Y-142302162D01*
X158533241Y-142333368D01*
X158492503Y-142351621D01*
X158448752Y-142356973D01*
X158404552Y-142354444D01*
X158361584Y-142343911D01*
X158345680Y-142335573D01*
X158315094Y-142304311D01*
X158298948Y-142270061D01*
X158198715Y-142280543D01*
X158250033Y-142768824D01*
X158719971Y-142768824D01*
X158719971Y-142592816D01*
X158629565Y-142592816D01*
X158617991Y-142661821D01*
X158352231Y-142661821D01*
X158323406Y-142412003D01*
X158360487Y-142435329D01*
X158363150Y-142436679D01*
X158405167Y-142452666D01*
X158409882Y-142453931D01*
X158454072Y-142460895D01*
X158465130Y-142461355D01*
X158509397Y-142458787D01*
X158554368Y-142449046D01*
X158594903Y-142432054D01*
X158606199Y-142425542D01*
X158643757Y-142396905D01*
X158674762Y-142360836D01*
X158697260Y-142321597D01*
X158714073Y-142277078D01*
X158723881Y-142232999D01*
X158728644Y-142185121D01*
X158729143Y-142162622D01*
X158726603Y-142114179D01*
X158718986Y-142069329D01*
X158704565Y-142023709D01*
X158697042Y-142006703D01*
X158674108Y-141967955D01*
X158645161Y-141934965D01*
X158610200Y-141907732D01*
X158602486Y-141902976D01*
X158560480Y-141883515D01*
X158517823Y-141872162D01*
X158470572Y-141866648D01*
X158448097Y-141866072D01*
G37*
G36*
X159198207Y-141878956D02*
G01*
X158900128Y-142681475D01*
X158829157Y-142691302D01*
X158829157Y-142768824D01*
X159110203Y-142768824D01*
X159110203Y-142691302D01*
X159028968Y-142678418D01*
X159228342Y-142112396D01*
X159249088Y-142042080D01*
X159252800Y-142042080D01*
X159274637Y-142112396D01*
X159481218Y-142679073D01*
X159390812Y-142691302D01*
X159390812Y-142768824D01*
X159671420Y-142768824D01*
X159671420Y-142691302D01*
X159599794Y-142681475D01*
X159301497Y-141878956D01*
X159198207Y-141878956D01*
G37*
D13*
G36*
X146058897Y-143980589D02*
G01*
X146008651Y-143983785D01*
X145956851Y-143994684D01*
X145908688Y-144013318D01*
X145865628Y-144039912D01*
X145828802Y-144074356D01*
X145800733Y-144112480D01*
X145778946Y-144157269D01*
X145764268Y-144208594D01*
X145757135Y-144260373D01*
X145756036Y-144278810D01*
X145757502Y-144282718D01*
X145886706Y-144282718D01*
X145891425Y-144230463D01*
X145904190Y-144182283D01*
X145929962Y-144138193D01*
X145932624Y-144135195D01*
X145974075Y-144104674D01*
X146023213Y-144090312D01*
X146056699Y-144088056D01*
X146105489Y-144093369D01*
X146149756Y-144112236D01*
X146186051Y-144147494D01*
X146203245Y-144179159D01*
X146216966Y-144228157D01*
X146220830Y-144277344D01*
X146220830Y-144884288D01*
X146088207Y-144902117D01*
X146088207Y-144990289D01*
X146467027Y-144990289D01*
X146467027Y-144903583D01*
X146355652Y-144884288D01*
X146355652Y-144277344D01*
X146352337Y-144223902D01*
X146342391Y-144174705D01*
X146323791Y-144125492D01*
X146321703Y-144121273D01*
X146294582Y-144078814D01*
X146259899Y-144043454D01*
X146221807Y-144017470D01*
X146172805Y-143996472D01*
X146121895Y-143984947D01*
X146070897Y-143980733D01*
X146058897Y-143980589D01*
G37*
G36*
X146758165Y-143995000D02*
G01*
X146769156Y-144102222D01*
X146775693Y-144150792D01*
X146785082Y-144207532D01*
X146796153Y-144262590D01*
X146808907Y-144315965D01*
X146823344Y-144367656D01*
X146831193Y-144392871D01*
X146848289Y-144442416D01*
X146867154Y-144491034D01*
X146887788Y-144538724D01*
X146910191Y-144585487D01*
X146934362Y-144631323D01*
X146942812Y-144646395D01*
X146969419Y-144691447D01*
X146997950Y-144736292D01*
X147028404Y-144780931D01*
X147060782Y-144825364D01*
X147095082Y-144869591D01*
X147106943Y-144884288D01*
X146691242Y-144884288D01*
X146680984Y-144770226D01*
X146566190Y-144770226D01*
X146566190Y-144990289D01*
X147238835Y-144990289D01*
X147238835Y-144884288D01*
X147206054Y-144844612D01*
X147175488Y-144806000D01*
X147142628Y-144762299D01*
X147112783Y-144720048D01*
X147089602Y-144684986D01*
X147061713Y-144639221D01*
X147036663Y-144593761D01*
X147014452Y-144548606D01*
X146995080Y-144503757D01*
X146976102Y-144452993D01*
X146959557Y-144400992D01*
X146946895Y-144353731D01*
X146938660Y-144317644D01*
X146928784Y-144267819D01*
X146919670Y-144215307D01*
X146911320Y-144160108D01*
X146904640Y-144109605D01*
X146903733Y-144102222D01*
X146892987Y-143995000D01*
X146758165Y-143995000D01*
G37*
D14*
G36*
X147139296Y-146006217D02*
G01*
X147064069Y-146019162D01*
X147131724Y-146202344D01*
X147530328Y-146202344D01*
X147596030Y-146019162D01*
X147520803Y-146006217D01*
X147520803Y-145920000D01*
X147806567Y-145920000D01*
X147806567Y-146006217D01*
X147733294Y-146016475D01*
X147391598Y-146915289D01*
X147276071Y-146915289D01*
X147043694Y-146315184D01*
X147173489Y-146315184D01*
X147322478Y-146719895D01*
X147330782Y-146742365D01*
X147334690Y-146742365D01*
X147342994Y-146719895D01*
X147489296Y-146315184D01*
X147173489Y-146315184D01*
X147043694Y-146315184D01*
X146928025Y-146016475D01*
X146854264Y-146006217D01*
X146854264Y-145920000D01*
X147139296Y-145920000D01*
X147139296Y-146006217D01*
G37*
G36*
X148195515Y-145906221D02*
G01*
X148246628Y-145913781D01*
X148295541Y-145931479D01*
X148311552Y-145940242D01*
X148352130Y-145971124D01*
X148384201Y-146008171D01*
X148395192Y-145920000D01*
X148623315Y-145920000D01*
X148623315Y-146006217D01*
X148511940Y-146025268D01*
X148511940Y-146986364D01*
X148377362Y-146986364D01*
X148265988Y-146986364D01*
X148265988Y-146899658D01*
X148377362Y-146880362D01*
X148377362Y-146578967D01*
X148370548Y-146587385D01*
X148335338Y-146621619D01*
X148291389Y-146649064D01*
X148275361Y-146656030D01*
X148226420Y-146669254D01*
X148175618Y-146673244D01*
X148164362Y-146673051D01*
X148111115Y-146666272D01*
X148062925Y-146649810D01*
X148019791Y-146623663D01*
X148007880Y-146614015D01*
X147972083Y-146576768D01*
X147942297Y-146531697D01*
X147920628Y-146484445D01*
X147918525Y-146478829D01*
X147904099Y-146431824D01*
X147893948Y-146381124D01*
X147888071Y-146326730D01*
X147886434Y-146276106D01*
X148021256Y-146276106D01*
X148022879Y-146322529D01*
X148029271Y-146374757D01*
X148041773Y-146426071D01*
X148048697Y-146445605D01*
X148071500Y-146489921D01*
X148103811Y-146527187D01*
X148114603Y-146535774D01*
X148161329Y-146557777D01*
X148209812Y-146563824D01*
X148213429Y-146563797D01*
X148263851Y-146556985D01*
X148309707Y-146536468D01*
X148347504Y-146504473D01*
X148377362Y-146462707D01*
X148377362Y-146119546D01*
X148375685Y-146116454D01*
X148347137Y-146075338D01*
X148309707Y-146042365D01*
X148304504Y-146039053D01*
X148257517Y-146020246D01*
X148208591Y-146015010D01*
X148202655Y-146015076D01*
X148148655Y-146023004D01*
X148100494Y-146046988D01*
X148066930Y-146082665D01*
X148051408Y-146109573D01*
X148034147Y-146155698D01*
X148024111Y-146208740D01*
X148021256Y-146261695D01*
X148021256Y-146276106D01*
X147886434Y-146276106D01*
X147886434Y-146261695D01*
X147887637Y-146222689D01*
X147892979Y-146173566D01*
X147904099Y-146122243D01*
X147920628Y-146075094D01*
X147925021Y-146065247D01*
X147950533Y-146020105D01*
X147981960Y-145981784D01*
X148019302Y-145950286D01*
X148031664Y-145942298D01*
X148076124Y-145921346D01*
X148125592Y-145909125D01*
X148174397Y-145905589D01*
X148195515Y-145906221D01*
G37*
G36*
X148984069Y-145907179D02*
G01*
X149035170Y-145918565D01*
X149080049Y-145938806D01*
X149101336Y-145951846D01*
X149142684Y-145984107D01*
X149177502Y-146021849D01*
X149182387Y-145973977D01*
X149183052Y-145969436D01*
X149191912Y-145920000D01*
X149385353Y-145920000D01*
X149385353Y-146006217D01*
X149313545Y-146013545D01*
X149311836Y-146040900D01*
X149311591Y-146068988D01*
X149311591Y-146425094D01*
X149307922Y-146474800D01*
X149294740Y-146525110D01*
X149268452Y-146573425D01*
X149234899Y-146609009D01*
X149225116Y-146616787D01*
X149181442Y-146642883D01*
X149130502Y-146660949D01*
X149079969Y-146670171D01*
X149023873Y-146673244D01*
X148979538Y-146671602D01*
X148928447Y-146665135D01*
X148876595Y-146652484D01*
X148848420Y-146642454D01*
X148803764Y-146620856D01*
X148760580Y-146591179D01*
X148760580Y-146421674D01*
X148864383Y-146421674D01*
X148878793Y-146524989D01*
X148895076Y-146535441D01*
X148941075Y-146556008D01*
X148970873Y-146563282D01*
X149021675Y-146567243D01*
X149043921Y-146566343D01*
X149094224Y-146555574D01*
X149136225Y-146530362D01*
X149145785Y-146520673D01*
X149170282Y-146475976D01*
X149177014Y-146426559D01*
X149177014Y-146354019D01*
X149044878Y-146354019D01*
X149019862Y-146353565D01*
X148966842Y-146349222D01*
X148918342Y-146340281D01*
X148869756Y-146324954D01*
X148835394Y-146308971D01*
X148791923Y-146279559D01*
X148758137Y-146243621D01*
X148743100Y-146219889D01*
X148724973Y-146171226D01*
X148719547Y-146121011D01*
X148719622Y-146118325D01*
X148854125Y-146118325D01*
X148854532Y-146128491D01*
X148868808Y-146176551D01*
X148900531Y-146217243D01*
X148938086Y-146242551D01*
X148986609Y-146257354D01*
X149040238Y-146261695D01*
X149177014Y-146261695D01*
X149177014Y-146127850D01*
X149170537Y-146116756D01*
X149137482Y-146078757D01*
X149097635Y-146050425D01*
X149076440Y-146039552D01*
X149027749Y-146023710D01*
X148975269Y-146018429D01*
X148930894Y-146022662D01*
X148884166Y-146044075D01*
X148864715Y-146068701D01*
X148854125Y-146118325D01*
X148719622Y-146118325D01*
X148720075Y-146102183D01*
X148727996Y-146050566D01*
X148747946Y-146001780D01*
X148779630Y-145962009D01*
X148804194Y-145942835D01*
X148848317Y-145921512D01*
X148901172Y-145909115D01*
X148955485Y-145905589D01*
X148984069Y-145907179D01*
G37*
G36*
X149487202Y-145920000D02*
G01*
X149487202Y-146006217D01*
X149598577Y-146025268D01*
X149598577Y-146559916D01*
X149483050Y-146559916D01*
X149483050Y-146659567D01*
X149598577Y-146659567D01*
X149598577Y-146753356D01*
X149601534Y-146802503D01*
X149612154Y-146852375D01*
X149633336Y-146900451D01*
X149660370Y-146936050D01*
X149699111Y-146967337D01*
X149745541Y-146988385D01*
X149799661Y-146999194D01*
X149833050Y-147000774D01*
X149883120Y-146996866D01*
X149931873Y-146988024D01*
X149939051Y-146986364D01*
X149922687Y-146883782D01*
X149889470Y-146888667D01*
X149850147Y-146890621D01*
X149801214Y-146882893D01*
X149761975Y-146855450D01*
X149739487Y-146809119D01*
X149733183Y-146757508D01*
X149733155Y-146753356D01*
X149733155Y-146659567D01*
X149894599Y-146659567D01*
X149894599Y-146559916D01*
X149733155Y-146559916D01*
X149733155Y-146025268D01*
X149860405Y-146006217D01*
X149860405Y-145920000D01*
X149487202Y-145920000D01*
G37*
G36*
X149983992Y-145920000D02*
G01*
X149983992Y-146006217D01*
X150095367Y-146025268D01*
X150095367Y-146553810D01*
X149983992Y-146572861D01*
X149983992Y-146659567D01*
X150215534Y-146659567D01*
X150227258Y-146565289D01*
X150228479Y-146552344D01*
X150256497Y-146594313D01*
X150292080Y-146630403D01*
X150306148Y-146641004D01*
X150352377Y-146664145D01*
X150400849Y-146672961D01*
X150411905Y-146673244D01*
X150455136Y-146669581D01*
X150486888Y-146662498D01*
X150469302Y-146537201D01*
X150375513Y-146542819D01*
X150326481Y-146538422D01*
X150285876Y-146518394D01*
X150250387Y-146481395D01*
X150229944Y-146444389D01*
X150229944Y-146025268D01*
X150341319Y-146006217D01*
X150341319Y-145920000D01*
X149983992Y-145920000D01*
G37*
G36*
X150893797Y-145905589D02*
G01*
X150843736Y-145909282D01*
X150792678Y-145922548D01*
X150748184Y-145945461D01*
X150710254Y-145978021D01*
X150705974Y-145982770D01*
X150676375Y-146026856D01*
X150657413Y-146074246D01*
X150644925Y-146129865D01*
X150639376Y-146184087D01*
X150638319Y-146223593D01*
X150638319Y-146553810D01*
X150553566Y-146572861D01*
X150553566Y-146659567D01*
X150638319Y-146659567D01*
X150772896Y-146659567D01*
X150772896Y-146222128D01*
X150775064Y-146167631D01*
X150782685Y-146117343D01*
X150801381Y-146068445D01*
X150807579Y-146059462D01*
X150848909Y-146027556D01*
X150898620Y-146015705D01*
X150916511Y-146015010D01*
X150966829Y-146019097D01*
X151016591Y-146034197D01*
X151034969Y-146044075D01*
X151073888Y-146076636D01*
X151102718Y-146119824D01*
X151105799Y-146126385D01*
X151105799Y-146553810D01*
X151006637Y-146572861D01*
X151006637Y-146659567D01*
X151105799Y-146659567D01*
X151240377Y-146659567D01*
X151240377Y-146025268D01*
X151325129Y-146006217D01*
X151325129Y-145920000D01*
X151119477Y-145920000D01*
X151110684Y-146029420D01*
X151081638Y-145988571D01*
X151043738Y-145952999D01*
X151020559Y-145937585D01*
X150973127Y-145916869D01*
X150924406Y-145907120D01*
X150893797Y-145905589D01*
G37*
G36*
X151414767Y-145920000D02*
G01*
X151414767Y-146006217D01*
X151526141Y-146025268D01*
X151526141Y-146553810D01*
X151414767Y-146572861D01*
X151414767Y-146659567D01*
X151660719Y-146659567D01*
X151660719Y-146025268D01*
X151772094Y-146006217D01*
X151772094Y-145920000D01*
X151414767Y-145920000D01*
G37*
G36*
X151519302Y-146842260D02*
G01*
X151519302Y-146986364D01*
X151660719Y-146986364D01*
X151660719Y-146842260D01*
X151519302Y-146842260D01*
G37*
G36*
X152126002Y-145908276D02*
G01*
X152073593Y-145913961D01*
X152025571Y-145933133D01*
X151995820Y-145956392D01*
X151966500Y-146000768D01*
X151952403Y-146050131D01*
X151947751Y-146104184D01*
X151947704Y-146110753D01*
X151947704Y-146559916D01*
X151830712Y-146559916D01*
X151830712Y-146659567D01*
X151947704Y-146659567D01*
X151947704Y-146838108D01*
X152082282Y-146838108D01*
X152082282Y-146659567D01*
X152242994Y-146659567D01*
X152242994Y-146559916D01*
X152082282Y-146559916D01*
X152082282Y-146110753D01*
X152088279Y-146062039D01*
X152103531Y-146032107D01*
X152147413Y-146007599D01*
X152160196Y-146006706D01*
X152209798Y-146010570D01*
X152213441Y-146011102D01*
X152259358Y-146019162D01*
X152277921Y-145930990D01*
X152228624Y-145919135D01*
X152205625Y-145915115D01*
X152156935Y-145909405D01*
X152126002Y-145908276D01*
G37*
G36*
X152743203Y-145920000D02*
G01*
X152743203Y-146006217D01*
X152896832Y-146025268D01*
X152896832Y-146771186D01*
X152740272Y-146768255D01*
X152740272Y-146852519D01*
X153031654Y-146915289D01*
X153031654Y-146025268D01*
X153184794Y-146006217D01*
X153184794Y-145920000D01*
X152743203Y-145920000D01*
G37*
G36*
X153641449Y-145905875D02*
G01*
X153692278Y-145910157D01*
X153744494Y-145920943D01*
X153792226Y-145938073D01*
X153834616Y-145961381D01*
X153874082Y-145993963D01*
X153906044Y-146033817D01*
X153911012Y-146041838D01*
X153932611Y-146090011D01*
X153943831Y-146139766D01*
X153947076Y-146189399D01*
X153946874Y-146199825D01*
X153939795Y-146249632D01*
X153922602Y-146295575D01*
X153895297Y-146337655D01*
X153885331Y-146349398D01*
X153847741Y-146384203D01*
X153803424Y-146412329D01*
X153757788Y-146431933D01*
X153801342Y-146452831D01*
X153842308Y-146482487D01*
X153876002Y-146519127D01*
X153899057Y-146557543D01*
X153914555Y-146604263D01*
X153919721Y-146655659D01*
X153916000Y-146707732D01*
X153903312Y-146759062D01*
X153881619Y-146804159D01*
X153858025Y-146836324D01*
X153819414Y-146871999D01*
X153776839Y-146897459D01*
X153772636Y-146899443D01*
X153723762Y-146917106D01*
X153675123Y-146926551D01*
X153622478Y-146929699D01*
X153616973Y-146929668D01*
X153564318Y-146925890D01*
X153516004Y-146915815D01*
X153467872Y-146897459D01*
X153436594Y-146879630D01*
X153396488Y-146846016D01*
X153364557Y-146804159D01*
X153343560Y-146759062D01*
X153331278Y-146707732D01*
X153327677Y-146655659D01*
X153327908Y-146652728D01*
X153462499Y-146652728D01*
X153464602Y-146685129D01*
X153477997Y-146733821D01*
X153506462Y-146776803D01*
X153527124Y-146795076D01*
X153572503Y-146817103D01*
X153622478Y-146823698D01*
X153659004Y-146820030D01*
X153706009Y-146801472D01*
X153733236Y-146780712D01*
X153763894Y-146740655D01*
X153779146Y-146702116D01*
X153785143Y-146652728D01*
X153781216Y-146610967D01*
X153764627Y-146564556D01*
X153746973Y-146538716D01*
X153707474Y-146506182D01*
X153673407Y-146491990D01*
X153623699Y-146485422D01*
X153597484Y-146487027D01*
X153547460Y-146501523D01*
X153506707Y-146531095D01*
X153489481Y-146552610D01*
X153468715Y-146600132D01*
X153462499Y-146652728D01*
X153327908Y-146652728D01*
X153331019Y-146613260D01*
X153344182Y-146565690D01*
X153369931Y-146519127D01*
X153399617Y-146485530D01*
X153439489Y-146455239D01*
X153486923Y-146431933D01*
X153476314Y-146428044D01*
X153427389Y-146404593D01*
X153385333Y-146374463D01*
X153350147Y-146337655D01*
X153344025Y-146329548D01*
X153319338Y-146286696D01*
X153304526Y-146239980D01*
X153299851Y-146192086D01*
X153434411Y-146192086D01*
X153439670Y-146241112D01*
X153458346Y-146289539D01*
X153484811Y-146324952D01*
X153524536Y-146355484D01*
X153527205Y-146356957D01*
X153573344Y-146374161D01*
X153622478Y-146379420D01*
X153625916Y-146379397D01*
X153674623Y-146373436D01*
X153720663Y-146355484D01*
X153757060Y-146328966D01*
X153788319Y-146289050D01*
X153789836Y-146286397D01*
X153807567Y-146240640D01*
X153812987Y-146192086D01*
X153807728Y-146142802D01*
X153789051Y-146095122D01*
X153762479Y-146061190D01*
X153722373Y-146032595D01*
X153719703Y-146031258D01*
X153673358Y-146015634D01*
X153623699Y-146010858D01*
X153577945Y-146014664D01*
X153529475Y-146029653D01*
X153485946Y-146058974D01*
X153456605Y-146096521D01*
X153439443Y-146142670D01*
X153434411Y-146192086D01*
X153299851Y-146192086D01*
X153299589Y-146189399D01*
X153299628Y-146183658D01*
X153304351Y-146129361D01*
X153316944Y-146080742D01*
X153339889Y-146033817D01*
X153368377Y-145997285D01*
X153406988Y-145964043D01*
X153453217Y-145938073D01*
X153471803Y-145930460D01*
X153521672Y-145915867D01*
X153570715Y-145908159D01*
X153623699Y-145905589D01*
X153641449Y-145905875D01*
G37*
G36*
X154371815Y-145905589D02*
G01*
X154322272Y-145908217D01*
X154270895Y-145917299D01*
X154223382Y-145932870D01*
X154209882Y-145938806D01*
X154164683Y-145964933D01*
X154126815Y-145997640D01*
X154098751Y-146033084D01*
X154076316Y-146077915D01*
X154063751Y-146128114D01*
X154060894Y-146178408D01*
X154062847Y-146182561D01*
X154191319Y-146182561D01*
X154196815Y-146133407D01*
X154213301Y-146091458D01*
X154245862Y-146052153D01*
X154275583Y-146032107D01*
X154322813Y-146015527D01*
X154371815Y-146010858D01*
X154421641Y-146015390D01*
X154468131Y-146030843D01*
X154505904Y-146057264D01*
X154535522Y-146098469D01*
X154550664Y-146147162D01*
X154554508Y-146194773D01*
X154550287Y-146247729D01*
X154535890Y-146295016D01*
X154511277Y-146330816D01*
X154468087Y-146359123D01*
X154418633Y-146371803D01*
X154375234Y-146374535D01*
X154257753Y-146374535D01*
X154257753Y-146479804D01*
X154375234Y-146479804D01*
X154425953Y-146484205D01*
X154470977Y-146499832D01*
X154508453Y-146532042D01*
X154523245Y-146557962D01*
X154536280Y-146605618D01*
X154539365Y-146649309D01*
X154535215Y-146698730D01*
X154519278Y-146747456D01*
X154496867Y-146779246D01*
X154455844Y-146808027D01*
X154406099Y-146821571D01*
X154371815Y-146823698D01*
X154322661Y-146818447D01*
X154280224Y-146802693D01*
X154240135Y-146772013D01*
X154219651Y-146744075D01*
X154202272Y-146697235D01*
X154198158Y-146654926D01*
X154068954Y-146654926D01*
X154067732Y-146659078D01*
X154071093Y-146709042D01*
X154085490Y-146759926D01*
X154103636Y-146795610D01*
X154133386Y-146834924D01*
X154170582Y-146868234D01*
X154210859Y-146893307D01*
X154256382Y-146912498D01*
X154306247Y-146924582D01*
X154360453Y-146929557D01*
X154371815Y-146929699D01*
X154421672Y-146927115D01*
X154474824Y-146917566D01*
X154522577Y-146900982D01*
X154570541Y-146873413D01*
X154591877Y-146856182D01*
X154627781Y-146815516D01*
X154653427Y-146767034D01*
X154667452Y-146718200D01*
X154673623Y-146663383D01*
X154673943Y-146646622D01*
X154667776Y-146596654D01*
X154651135Y-146550600D01*
X154636574Y-146523768D01*
X154603475Y-146482060D01*
X154563902Y-146451008D01*
X154524955Y-146430711D01*
X154571222Y-146411441D01*
X154612886Y-146383820D01*
X154646871Y-146345889D01*
X154651717Y-146338143D01*
X154672993Y-146293199D01*
X154685437Y-146244676D01*
X154689086Y-146197459D01*
X154685860Y-146148380D01*
X154674707Y-146098606D01*
X154653237Y-146049640D01*
X154648298Y-146041388D01*
X154616729Y-146000075D01*
X154577772Y-145965805D01*
X154535946Y-145940760D01*
X154489063Y-145922213D01*
X154438172Y-145910535D01*
X154388945Y-145905898D01*
X154371815Y-145905589D01*
G37*
G36*
X155127991Y-145905589D02*
G01*
X155078448Y-145908217D01*
X155027071Y-145917299D01*
X154979558Y-145932870D01*
X154966058Y-145938806D01*
X154920859Y-145964933D01*
X154882991Y-145997640D01*
X154854927Y-146033084D01*
X154832492Y-146077915D01*
X154819927Y-146128114D01*
X154817069Y-146178408D01*
X154819023Y-146182561D01*
X154947495Y-146182561D01*
X154952991Y-146133407D01*
X154969477Y-146091458D01*
X155002038Y-146052153D01*
X155031759Y-146032107D01*
X155078989Y-146015527D01*
X155127991Y-146010858D01*
X155177817Y-146015390D01*
X155224306Y-146030843D01*
X155262080Y-146057264D01*
X155291698Y-146098469D01*
X155306840Y-146147162D01*
X155310684Y-146194773D01*
X155306462Y-146247729D01*
X155292066Y-146295016D01*
X155267453Y-146330816D01*
X155224263Y-146359123D01*
X155174809Y-146371803D01*
X155131410Y-146374535D01*
X155013929Y-146374535D01*
X155013929Y-146479804D01*
X155131410Y-146479804D01*
X155182128Y-146484205D01*
X155227153Y-146499832D01*
X155264629Y-146532042D01*
X155279421Y-146557962D01*
X155292456Y-146605618D01*
X155295541Y-146649309D01*
X155291391Y-146698730D01*
X155275454Y-146747456D01*
X155253043Y-146779246D01*
X155212020Y-146808027D01*
X155162275Y-146821571D01*
X155127991Y-146823698D01*
X155078837Y-146818447D01*
X155036399Y-146802693D01*
X154996311Y-146772013D01*
X154975827Y-146744075D01*
X154958448Y-146697235D01*
X154954334Y-146654926D01*
X154825129Y-146654926D01*
X154823908Y-146659078D01*
X154827269Y-146709042D01*
X154841666Y-146759926D01*
X154859812Y-146795610D01*
X154889562Y-146834924D01*
X154926758Y-146868234D01*
X154967035Y-146893307D01*
X155012558Y-146912498D01*
X155062423Y-146924582D01*
X155116628Y-146929557D01*
X155127991Y-146929699D01*
X155177848Y-146927115D01*
X155231000Y-146917566D01*
X155278753Y-146900982D01*
X155326716Y-146873413D01*
X155348053Y-146856182D01*
X155383957Y-146815516D01*
X155409603Y-146767034D01*
X155423627Y-146718200D01*
X155429798Y-146663383D01*
X155430119Y-146646622D01*
X155423952Y-146596654D01*
X155407311Y-146550600D01*
X155392750Y-146523768D01*
X155359651Y-146482060D01*
X155320078Y-146451008D01*
X155281131Y-146430711D01*
X155327398Y-146411441D01*
X155369062Y-146383820D01*
X155403047Y-146345889D01*
X155407893Y-146338143D01*
X155429168Y-146293199D01*
X155441613Y-146244676D01*
X155445262Y-146197459D01*
X155442036Y-146148380D01*
X155430882Y-146098606D01*
X155409413Y-146049640D01*
X155404473Y-146041388D01*
X155372905Y-146000075D01*
X155333948Y-145965805D01*
X155292122Y-145940760D01*
X155245239Y-145922213D01*
X155194348Y-145910535D01*
X155145121Y-145905898D01*
X155127991Y-145905589D01*
G37*
G36*
X156283992Y-145905589D02*
G01*
X156233406Y-145907695D01*
X156183863Y-145914013D01*
X156135363Y-145924542D01*
X156108870Y-145932212D01*
X156062208Y-145949565D01*
X156016744Y-145971401D01*
X155972477Y-145997719D01*
X155948402Y-146014277D01*
X155948402Y-146227013D01*
X156052938Y-146227013D01*
X156075409Y-146070453D01*
X156118746Y-146047491D01*
X156165411Y-146029895D01*
X156171884Y-146027955D01*
X156222428Y-146017261D01*
X156272797Y-146013187D01*
X156283992Y-146013056D01*
X156336091Y-146016482D01*
X156384443Y-146027836D01*
X156399763Y-146033817D01*
X156444025Y-146060424D01*
X156472547Y-146091458D01*
X156493087Y-146137010D01*
X156497949Y-146177676D01*
X156490199Y-146228242D01*
X156475967Y-146258276D01*
X156442470Y-146294864D01*
X156403915Y-146319581D01*
X156357147Y-146339925D01*
X156308065Y-146355439D01*
X156266895Y-146365743D01*
X156217588Y-146378703D01*
X156166863Y-146395655D01*
X156121160Y-146415119D01*
X156093483Y-146429490D01*
X156048966Y-146459049D01*
X156012473Y-146492648D01*
X155986260Y-146526699D01*
X155963935Y-146571899D01*
X155951913Y-146621770D01*
X155949623Y-146657613D01*
X155954501Y-146709245D01*
X155969133Y-146757009D01*
X155990901Y-146797076D01*
X156023256Y-146836303D01*
X156063231Y-146869353D01*
X156106183Y-146894040D01*
X156154822Y-146912845D01*
X156202675Y-146923814D01*
X156254393Y-146929142D01*
X156278619Y-146929699D01*
X156329375Y-146927715D01*
X156382864Y-146920738D01*
X156432527Y-146908738D01*
X156463510Y-146897948D01*
X156510942Y-146876791D01*
X156556671Y-146850489D01*
X156595646Y-146821011D01*
X156595646Y-146621953D01*
X156491110Y-146621953D01*
X156468640Y-146764347D01*
X156426756Y-146790509D01*
X156391947Y-146805136D01*
X156344298Y-146817057D01*
X156295189Y-146821485D01*
X156278619Y-146821744D01*
X156227761Y-146817290D01*
X156180019Y-146802719D01*
X156177258Y-146801472D01*
X156134101Y-146773763D01*
X156108870Y-146745052D01*
X156089120Y-146700212D01*
X156084446Y-146659567D01*
X156093128Y-146610031D01*
X156106672Y-146584340D01*
X156142881Y-146549014D01*
X156178968Y-146527920D01*
X156225410Y-146508757D01*
X156273398Y-146493299D01*
X156313301Y-146482491D01*
X156360589Y-146469443D01*
X156412406Y-146451376D01*
X156458849Y-146430682D01*
X156506238Y-146403219D01*
X156546310Y-146372179D01*
X156551438Y-146367452D01*
X156586914Y-146327107D01*
X156612254Y-146282273D01*
X156627458Y-146232951D01*
X156632526Y-146179141D01*
X156627447Y-146126229D01*
X156612209Y-146077646D01*
X156589540Y-146037236D01*
X156555802Y-145997928D01*
X156513694Y-145964969D01*
X156468151Y-145940516D01*
X156421985Y-145923632D01*
X156371414Y-145912274D01*
X156322764Y-145906817D01*
X156283992Y-145905589D01*
G37*
G36*
X156726804Y-145920000D02*
G01*
X156726804Y-146006217D01*
X156838179Y-146025268D01*
X156838179Y-146880362D01*
X156726804Y-146899658D01*
X156726804Y-146986364D01*
X156973001Y-146986364D01*
X156973001Y-146561137D01*
X157006821Y-146600606D01*
X157046365Y-146632094D01*
X157066546Y-146643935D01*
X157113609Y-146662912D01*
X157164703Y-146672214D01*
X157189644Y-146673244D01*
X157239124Y-146669843D01*
X157289404Y-146657627D01*
X157337976Y-146633265D01*
X157374048Y-146602170D01*
X157402792Y-146561854D01*
X157423324Y-146511983D01*
X157434552Y-146460507D01*
X157439172Y-146410561D01*
X157439749Y-146383572D01*
X157439749Y-146025268D01*
X157551368Y-146006217D01*
X157551368Y-145920000D01*
X157193797Y-145920000D01*
X157193797Y-146006217D01*
X157305171Y-146025268D01*
X157305171Y-146384794D01*
X157301331Y-146437363D01*
X157286585Y-146488105D01*
X157265848Y-146520104D01*
X157224054Y-146549991D01*
X157176472Y-146562287D01*
X157148612Y-146563824D01*
X157098834Y-146558028D01*
X157050588Y-146539068D01*
X157047739Y-146537445D01*
X157006340Y-146506549D01*
X156974849Y-146468932D01*
X156973001Y-146466127D01*
X156973001Y-146025268D01*
X157084376Y-146006217D01*
X157084376Y-145920000D01*
X156726804Y-145920000D01*
G37*
G36*
X157638074Y-145920000D02*
G01*
X157638074Y-146006217D01*
X157749449Y-146025268D01*
X157749449Y-146553810D01*
X157638074Y-146572861D01*
X157638074Y-146659567D01*
X157884027Y-146659567D01*
X157884027Y-146025268D01*
X157995402Y-146006217D01*
X157995402Y-145920000D01*
X157638074Y-145920000D01*
G37*
G36*
X157742610Y-146842260D02*
G01*
X157742610Y-146986364D01*
X157884027Y-146986364D01*
X157884027Y-146842260D01*
X157742610Y-146842260D01*
G37*
G36*
X158430968Y-145905615D02*
G01*
X158485121Y-145908706D01*
X158534122Y-145916949D01*
X158582073Y-145931967D01*
X158601896Y-145940497D01*
X158647520Y-145965352D01*
X158687097Y-145996448D01*
X158634341Y-146084131D01*
X158631976Y-146082008D01*
X158590448Y-146051935D01*
X158545192Y-146030397D01*
X158525274Y-146023757D01*
X158474190Y-146013606D01*
X158425269Y-146010858D01*
X158413748Y-146011135D01*
X158364126Y-146019750D01*
X158318535Y-146042365D01*
X158310383Y-146048479D01*
X158275095Y-146085230D01*
X158250391Y-146128827D01*
X158241196Y-146153641D01*
X158229764Y-146203817D01*
X158225723Y-146254856D01*
X158227677Y-146258276D01*
X158707614Y-146258276D01*
X158707614Y-146342540D01*
X158707079Y-146367223D01*
X158701970Y-146419748D01*
X158691452Y-146468100D01*
X158673420Y-146516929D01*
X158648805Y-146560091D01*
X158614235Y-146600077D01*
X158571815Y-146632212D01*
X158554512Y-146641829D01*
X158506779Y-146660261D01*
X158458355Y-146669999D01*
X158404753Y-146673244D01*
X158394119Y-146673056D01*
X158342528Y-146666478D01*
X158293560Y-146650502D01*
X158247216Y-146625129D01*
X158229650Y-146612554D01*
X158189640Y-146576342D01*
X158158404Y-146537919D01*
X158131689Y-146493970D01*
X158114749Y-146456576D01*
X158099083Y-146405371D01*
X158092623Y-146366964D01*
X158230363Y-146366964D01*
X158230852Y-146370554D01*
X158242026Y-146421430D01*
X158261871Y-146469546D01*
X158285292Y-146505436D01*
X158322687Y-146540865D01*
X158356547Y-146558897D01*
X158404753Y-146567243D01*
X158450140Y-146562615D01*
X158498053Y-146543063D01*
X158527152Y-146518493D01*
X158553985Y-146476873D01*
X158568090Y-146431994D01*
X158572792Y-146381374D01*
X158572792Y-146363545D01*
X158231829Y-146363545D01*
X158230363Y-146366964D01*
X158092623Y-146366964D01*
X158090931Y-146356904D01*
X158088214Y-146305659D01*
X158088214Y-146275373D01*
X158089665Y-146235333D01*
X158096115Y-146184752D01*
X158109538Y-146131680D01*
X158129491Y-146082665D01*
X158143301Y-146057527D01*
X158172367Y-146016755D01*
X158206842Y-145981741D01*
X158246727Y-145952484D01*
X158276148Y-145936547D01*
X158323789Y-145918824D01*
X158375642Y-145908520D01*
X158425269Y-145905589D01*
X158430968Y-145905615D01*
G37*
G36*
X158805311Y-145920000D02*
G01*
X158805311Y-146006217D01*
X158916686Y-146025268D01*
X158916686Y-146880362D01*
X158805311Y-146899658D01*
X158805311Y-146986364D01*
X159051508Y-146986364D01*
X159051508Y-146025268D01*
X159162882Y-146006217D01*
X159162882Y-145920000D01*
X158805311Y-145920000D01*
G37*
G36*
X159563554Y-145906221D02*
G01*
X159614667Y-145913781D01*
X159663580Y-145931479D01*
X159679591Y-145940242D01*
X159720169Y-145971124D01*
X159752240Y-146008171D01*
X159763231Y-145920000D01*
X159991354Y-145920000D01*
X159991354Y-146006217D01*
X159879979Y-146025268D01*
X159879979Y-146986364D01*
X159745402Y-146986364D01*
X159634027Y-146986364D01*
X159634027Y-146899658D01*
X159745402Y-146880362D01*
X159745402Y-146578967D01*
X159738587Y-146587385D01*
X159703377Y-146621619D01*
X159659428Y-146649064D01*
X159643400Y-146656030D01*
X159594459Y-146669254D01*
X159543657Y-146673244D01*
X159532401Y-146673051D01*
X159479154Y-146666272D01*
X159430964Y-146649810D01*
X159387830Y-146623663D01*
X159375919Y-146614015D01*
X159340122Y-146576768D01*
X159310336Y-146531697D01*
X159288667Y-146484445D01*
X159286564Y-146478829D01*
X159272138Y-146431824D01*
X159261987Y-146381124D01*
X159256110Y-146326730D01*
X159254473Y-146276106D01*
X159389296Y-146276106D01*
X159390918Y-146322529D01*
X159397310Y-146374757D01*
X159409812Y-146426071D01*
X159416736Y-146445605D01*
X159439539Y-146489921D01*
X159471850Y-146527187D01*
X159482642Y-146535774D01*
X159529368Y-146557777D01*
X159577851Y-146563824D01*
X159581468Y-146563797D01*
X159631890Y-146556985D01*
X159677746Y-146536468D01*
X159715543Y-146504473D01*
X159745402Y-146462707D01*
X159745402Y-146119546D01*
X159743724Y-146116454D01*
X159715177Y-146075338D01*
X159677746Y-146042365D01*
X159672543Y-146039053D01*
X159625557Y-146020246D01*
X159576630Y-146015010D01*
X159570694Y-146015076D01*
X159516694Y-146023004D01*
X159468533Y-146046988D01*
X159434969Y-146082665D01*
X159419447Y-146109573D01*
X159402186Y-146155698D01*
X159392150Y-146208740D01*
X159389296Y-146261695D01*
X159389296Y-146276106D01*
X159254473Y-146276106D01*
X159254473Y-146261695D01*
X159255676Y-146222689D01*
X159261018Y-146173566D01*
X159272138Y-146122243D01*
X159288667Y-146075094D01*
X159293060Y-146065247D01*
X159318572Y-146020105D01*
X159349999Y-145981784D01*
X159387342Y-145950286D01*
X159399703Y-145942298D01*
X159444163Y-145921346D01*
X159493631Y-145909125D01*
X159542436Y-145905589D01*
X159563554Y-145906221D01*
G37*
D12*
G36*
X150726335Y-141878956D02*
G01*
X150726335Y-141956041D01*
X150825913Y-141973074D01*
X150825913Y-142674050D01*
X150726335Y-142691302D01*
X150726335Y-142768824D01*
X151045814Y-142768824D01*
X151045814Y-142691302D01*
X150946236Y-142674050D01*
X150946236Y-141973074D01*
X151045814Y-141956041D01*
X151045814Y-141878956D01*
X150726335Y-141878956D01*
G37*
G36*
X151528145Y-141879846D02*
G01*
X151576511Y-141885690D01*
X151621868Y-141896989D01*
X151664215Y-141913743D01*
X151703553Y-141935951D01*
X151724554Y-141950902D01*
X151758334Y-141980188D01*
X151788332Y-142013444D01*
X151814546Y-142050671D01*
X151836978Y-142091869D01*
X151853008Y-142129758D01*
X151867518Y-142176175D01*
X151877514Y-142224974D01*
X151882489Y-142268698D01*
X151884147Y-142314172D01*
X151884147Y-142333171D01*
X151882953Y-142371995D01*
X151878367Y-142416768D01*
X151868670Y-142466500D01*
X151854291Y-142513536D01*
X151835231Y-142557876D01*
X151822395Y-142581836D01*
X151797009Y-142620579D01*
X151767903Y-142655269D01*
X151735076Y-142685903D01*
X151698530Y-142712484D01*
X151676164Y-142725689D01*
X151634741Y-142744560D01*
X151590413Y-142758040D01*
X151543180Y-142766128D01*
X151493041Y-142768824D01*
X151244315Y-142768824D01*
X151144737Y-142768824D01*
X151144737Y-142691302D01*
X151244315Y-142674050D01*
X151244315Y-141973074D01*
X151364638Y-141973074D01*
X151364638Y-142674050D01*
X151493041Y-142674050D01*
X151508637Y-142673659D01*
X151552913Y-142667786D01*
X151597692Y-142652994D01*
X151637823Y-142629502D01*
X151648920Y-142620865D01*
X151682393Y-142587973D01*
X151710449Y-142548768D01*
X151731068Y-142508087D01*
X151743831Y-142473571D01*
X151755635Y-142426307D01*
X151761776Y-142381567D01*
X151763824Y-142334262D01*
X151763824Y-142314172D01*
X151762672Y-142279469D01*
X151757554Y-142235037D01*
X151746902Y-142187563D01*
X151731068Y-142142750D01*
X151724682Y-142128528D01*
X151702601Y-142089132D01*
X151672920Y-142051113D01*
X151637823Y-142019151D01*
X151626272Y-142010916D01*
X151584747Y-141989318D01*
X151538573Y-141976719D01*
X151493041Y-141973074D01*
X151364638Y-141973074D01*
X151244315Y-141973074D01*
X151144737Y-141956041D01*
X151144737Y-141878956D01*
X151499156Y-141878956D01*
X151528145Y-141879846D01*
G37*
G36*
X153509111Y-141879846D02*
G01*
X153557477Y-141885690D01*
X153602834Y-141896989D01*
X153645181Y-141913743D01*
X153684519Y-141935951D01*
X153705520Y-141950902D01*
X153739300Y-141980188D01*
X153769298Y-142013444D01*
X153795512Y-142050671D01*
X153817944Y-142091869D01*
X153833974Y-142129758D01*
X153848484Y-142176175D01*
X153858480Y-142224974D01*
X153863455Y-142268698D01*
X153865113Y-142314172D01*
X153865113Y-142333171D01*
X153863919Y-142371995D01*
X153859333Y-142416768D01*
X153849636Y-142466500D01*
X153835257Y-142513536D01*
X153816197Y-142557876D01*
X153803361Y-142581836D01*
X153777975Y-142620579D01*
X153748869Y-142655269D01*
X153716042Y-142685903D01*
X153679496Y-142712484D01*
X153657130Y-142725689D01*
X153615707Y-142744560D01*
X153571379Y-142758040D01*
X153524146Y-142766128D01*
X153474007Y-142768824D01*
X153225281Y-142768824D01*
X153125703Y-142768824D01*
X153125703Y-142691302D01*
X153225281Y-142674050D01*
X153225281Y-141973074D01*
X153345604Y-141973074D01*
X153345604Y-142674050D01*
X153474007Y-142674050D01*
X153489603Y-142673659D01*
X153533879Y-142667786D01*
X153578658Y-142652994D01*
X153618789Y-142629502D01*
X153629887Y-142620865D01*
X153663359Y-142587973D01*
X153691415Y-142548768D01*
X153712034Y-142508087D01*
X153724797Y-142473571D01*
X153736601Y-142426307D01*
X153742742Y-142381567D01*
X153744790Y-142334262D01*
X153744790Y-142314172D01*
X153743638Y-142279469D01*
X153738520Y-142235037D01*
X153727868Y-142187563D01*
X153712034Y-142142750D01*
X153705648Y-142128528D01*
X153683567Y-142089132D01*
X153653886Y-142051113D01*
X153618789Y-142019151D01*
X153607238Y-142010916D01*
X153565713Y-141989318D01*
X153519539Y-141976719D01*
X153474007Y-141973074D01*
X153345604Y-141973074D01*
X153225281Y-141973074D01*
X153125703Y-141956041D01*
X153125703Y-141878956D01*
X153480122Y-141878956D01*
X153509111Y-141879846D01*
G37*
G36*
X154193982Y-141968270D02*
G01*
X154193982Y-142248660D01*
X153948750Y-142248660D01*
X153948750Y-142357410D01*
X154193982Y-142357410D01*
X154193982Y-142615963D01*
X154314305Y-142615963D01*
X154314305Y-142357410D01*
X154558883Y-142357410D01*
X154558883Y-142248660D01*
X154314305Y-142248660D01*
X154314305Y-141968270D01*
X154193982Y-141968270D01*
G37*
D13*
G36*
X168485017Y-135460589D02*
G01*
X168434771Y-135463785D01*
X168382971Y-135474684D01*
X168334808Y-135493318D01*
X168291748Y-135519912D01*
X168254922Y-135554356D01*
X168226853Y-135592480D01*
X168205066Y-135637269D01*
X168190388Y-135688594D01*
X168183255Y-135740373D01*
X168182156Y-135758810D01*
X168183622Y-135762718D01*
X168312826Y-135762718D01*
X168317545Y-135710463D01*
X168330310Y-135662283D01*
X168356082Y-135618193D01*
X168358744Y-135615195D01*
X168400195Y-135584674D01*
X168449333Y-135570312D01*
X168482819Y-135568056D01*
X168531609Y-135573369D01*
X168575876Y-135592236D01*
X168612171Y-135627494D01*
X168629365Y-135659159D01*
X168643086Y-135708157D01*
X168646950Y-135757344D01*
X168646950Y-136364288D01*
X168514327Y-136382117D01*
X168514327Y-136470289D01*
X168893147Y-136470289D01*
X168893147Y-136383583D01*
X168781772Y-136364288D01*
X168781772Y-135757344D01*
X168778457Y-135703902D01*
X168768511Y-135654705D01*
X168749911Y-135605492D01*
X168747823Y-135601273D01*
X168720702Y-135558814D01*
X168686019Y-135523454D01*
X168647927Y-135497470D01*
X168598925Y-135476472D01*
X168548015Y-135464947D01*
X168497017Y-135460733D01*
X168485017Y-135460589D01*
G37*
G36*
X169297125Y-135460589D02*
G01*
X169246306Y-135463595D01*
X169194317Y-135473843D01*
X169146427Y-135491364D01*
X169104020Y-135516042D01*
X169065592Y-135550996D01*
X169042135Y-135582711D01*
X169020952Y-135627760D01*
X169009119Y-135679620D01*
X169006476Y-135732676D01*
X169007941Y-135736828D01*
X169129574Y-135736828D01*
X169135116Y-135685600D01*
X169153800Y-135639261D01*
X169176469Y-135611043D01*
X169219005Y-135581787D01*
X169266140Y-135568020D01*
X169297125Y-135565858D01*
X169346808Y-135571725D01*
X169392810Y-135591734D01*
X169429749Y-135625942D01*
X169456587Y-135672641D01*
X169471318Y-135724161D01*
X169476703Y-135777911D01*
X169476888Y-135790806D01*
X169473120Y-135842272D01*
X169460097Y-135892885D01*
X169437772Y-135936582D01*
X169429260Y-135948342D01*
X169392355Y-135983245D01*
X169346792Y-136003660D01*
X169297858Y-136009647D01*
X169248422Y-136006819D01*
X169200363Y-135995038D01*
X169182575Y-135985711D01*
X169148366Y-135950746D01*
X169130307Y-135912438D01*
X169018200Y-135924162D01*
X169075597Y-136470289D01*
X169601207Y-136470289D01*
X169601207Y-136273429D01*
X169500091Y-136273429D01*
X169487146Y-136350610D01*
X169189902Y-136350610D01*
X169157662Y-136071196D01*
X169199136Y-136097285D01*
X169202114Y-136098796D01*
X169249109Y-136116676D01*
X169254382Y-136118091D01*
X169303808Y-136125880D01*
X169316176Y-136126395D01*
X169365687Y-136123523D01*
X169415985Y-136112627D01*
X169461323Y-136093622D01*
X169473957Y-136086339D01*
X169515965Y-136054309D01*
X169550642Y-136013967D01*
X169575806Y-135970080D01*
X169594611Y-135920287D01*
X169605580Y-135870986D01*
X169610908Y-135817436D01*
X169611465Y-135792271D01*
X169608625Y-135738089D01*
X169600105Y-135687926D01*
X169583977Y-135636902D01*
X169575562Y-135617882D01*
X169549911Y-135574543D01*
X169517535Y-135537644D01*
X169478432Y-135507185D01*
X169469805Y-135501866D01*
X169422821Y-135480099D01*
X169375112Y-135467401D01*
X169322263Y-135461234D01*
X169297125Y-135460589D01*
G37*
G36*
X166516157Y-126926265D02*
G01*
X167300177Y-126926265D01*
X167319228Y-126814891D01*
X167405446Y-126814891D01*
X167405446Y-127172218D01*
X167319228Y-127172218D01*
X167300177Y-127060843D01*
X167006108Y-127060843D01*
X167006108Y-127272113D01*
X167005208Y-127304692D01*
X167000022Y-127353594D01*
X166988677Y-127403865D01*
X166969228Y-127453830D01*
X166943244Y-127497364D01*
X166907884Y-127537208D01*
X166865425Y-127568624D01*
X166852671Y-127575739D01*
X166807180Y-127594400D01*
X166757110Y-127605286D01*
X166708132Y-127608436D01*
X166702567Y-127608397D01*
X166649330Y-127603731D01*
X166600481Y-127591290D01*
X166551817Y-127568624D01*
X166509189Y-127537208D01*
X166473662Y-127497364D01*
X166447525Y-127453830D01*
X166434825Y-127424595D01*
X166420702Y-127376557D01*
X166412491Y-127323496D01*
X166410156Y-127272113D01*
X166410156Y-127060843D01*
X166516157Y-127060843D01*
X166516157Y-127272113D01*
X166516374Y-127284554D01*
X166522709Y-127335628D01*
X166540035Y-127382950D01*
X166571600Y-127423544D01*
X166612811Y-127452189D01*
X166660544Y-127468944D01*
X166709598Y-127473858D01*
X166758451Y-127468944D01*
X166805853Y-127452189D01*
X166846618Y-127423544D01*
X166853184Y-127417056D01*
X166881724Y-127374279D01*
X166896551Y-127324973D01*
X166900840Y-127272113D01*
X166900840Y-127060843D01*
X166516157Y-127060843D01*
X166410156Y-127060843D01*
X166410156Y-126926265D01*
X166410156Y-126814891D01*
X166496862Y-126814891D01*
X166516157Y-126926265D01*
G37*
G36*
X167405446Y-127691478D02*
G01*
X167319228Y-127691478D01*
X167300177Y-127802853D01*
X166771635Y-127802853D01*
X166752584Y-127691478D01*
X166665878Y-127691478D01*
X166665878Y-127937431D01*
X167300177Y-127937431D01*
X167319228Y-128048805D01*
X167405446Y-128048805D01*
X167405446Y-127691478D01*
G37*
G36*
X166483185Y-127796014D02*
G01*
X166339081Y-127796014D01*
X166339081Y-127937431D01*
X166483185Y-127937431D01*
X166483185Y-127796014D01*
G37*
G36*
X167405446Y-128119880D02*
G01*
X167319228Y-128119880D01*
X167303596Y-128201702D01*
X167031510Y-128422497D01*
X166768216Y-128206586D01*
X166752584Y-128133558D01*
X166665878Y-128133558D01*
X166665878Y-128423230D01*
X166752584Y-128423230D01*
X166760889Y-128349468D01*
X166949444Y-128501143D01*
X166760156Y-128648910D01*
X166752584Y-128569531D01*
X166665878Y-128569531D01*
X166665878Y-128854563D01*
X166752584Y-128854563D01*
X166768216Y-128779336D01*
X167029556Y-128579057D01*
X167303596Y-128809622D01*
X167319228Y-128886070D01*
X167405446Y-128886070D01*
X167405446Y-128572218D01*
X167319228Y-128572218D01*
X167311900Y-128661122D01*
X167114308Y-128499189D01*
X167311900Y-128341897D01*
X167319228Y-128422009D01*
X167405446Y-128422009D01*
X167405446Y-128119880D01*
G37*
G36*
X167090112Y-128951024D02*
G01*
X167140693Y-128957474D01*
X167193765Y-128970897D01*
X167242780Y-128990850D01*
X167267918Y-129004660D01*
X167308690Y-129033726D01*
X167343704Y-129068202D01*
X167372961Y-129108087D01*
X167388898Y-129137507D01*
X167406621Y-129185148D01*
X167416925Y-129237001D01*
X167419856Y-129286628D01*
X167419830Y-129292327D01*
X167416739Y-129346480D01*
X167408496Y-129395481D01*
X167393478Y-129443432D01*
X167384948Y-129463255D01*
X167360093Y-129508880D01*
X167328997Y-129548457D01*
X167241314Y-129495700D01*
X167243437Y-129493336D01*
X167273510Y-129451807D01*
X167295048Y-129406551D01*
X167301688Y-129386633D01*
X167311839Y-129335549D01*
X167314587Y-129286628D01*
X167314310Y-129275107D01*
X167305695Y-129225486D01*
X167283080Y-129179894D01*
X167276966Y-129171742D01*
X167240215Y-129136454D01*
X167196618Y-129111750D01*
X167171804Y-129102556D01*
X167121628Y-129091123D01*
X167070589Y-129087082D01*
X167067169Y-129089036D01*
X167067169Y-129568973D01*
X166982905Y-129568973D01*
X166958222Y-129568439D01*
X166905697Y-129563330D01*
X166857345Y-129552811D01*
X166808516Y-129534779D01*
X166765354Y-129510164D01*
X166725368Y-129475594D01*
X166693233Y-129433174D01*
X166683616Y-129415871D01*
X166665184Y-129368139D01*
X166655446Y-129319714D01*
X166652201Y-129266112D01*
X166758202Y-129266112D01*
X166762830Y-129311499D01*
X166782382Y-129359413D01*
X166806952Y-129388511D01*
X166848572Y-129415344D01*
X166893451Y-129429449D01*
X166944071Y-129434151D01*
X166961900Y-129434151D01*
X166961900Y-129093188D01*
X166958481Y-129091722D01*
X166954891Y-129092212D01*
X166904015Y-129103385D01*
X166855899Y-129123230D01*
X166820009Y-129146651D01*
X166784580Y-129184046D01*
X166766548Y-129217906D01*
X166758202Y-129266112D01*
X166652201Y-129266112D01*
X166652389Y-129255479D01*
X166658967Y-129203887D01*
X166674943Y-129154919D01*
X166700316Y-129108575D01*
X166712891Y-129091009D01*
X166749103Y-129051000D01*
X166787526Y-129019764D01*
X166831475Y-128993048D01*
X166868869Y-128976108D01*
X166920074Y-128960442D01*
X166968541Y-128952290D01*
X167019786Y-128949573D01*
X167050072Y-128949573D01*
X167090112Y-128951024D01*
G37*
G36*
X167405446Y-129666670D02*
G01*
X167319228Y-129666670D01*
X167300177Y-129778045D01*
X166445083Y-129778045D01*
X166425787Y-129666670D01*
X166339081Y-129666670D01*
X166339081Y-129912867D01*
X167300177Y-129912867D01*
X167319228Y-130024242D01*
X167405446Y-130024242D01*
X167405446Y-129666670D01*
G37*
G36*
X167419856Y-130419427D02*
G01*
X167418095Y-130369337D01*
X167412159Y-130317262D01*
X167404957Y-130279964D01*
X167391298Y-130230104D01*
X167374735Y-130182408D01*
X167358307Y-130141967D01*
X167182696Y-130140501D01*
X167182696Y-130242351D01*
X167288453Y-130267752D01*
X167304959Y-130314520D01*
X167311656Y-130341757D01*
X167317902Y-130391405D01*
X167318739Y-130419427D01*
X167315016Y-130470334D01*
X167299509Y-130519181D01*
X167287232Y-130536907D01*
X167247072Y-130565741D01*
X167209318Y-130572567D01*
X167162137Y-130559909D01*
X167135313Y-130536663D01*
X167110375Y-130494074D01*
X167093274Y-130444935D01*
X167083533Y-130406482D01*
X167071263Y-130358688D01*
X167055103Y-130309224D01*
X167034201Y-130260994D01*
X167007584Y-130217318D01*
X167001224Y-130209133D01*
X166965522Y-130175774D01*
X166918537Y-130153350D01*
X166868811Y-130145936D01*
X166863471Y-130145875D01*
X166813161Y-130152560D01*
X166767808Y-130172615D01*
X166755760Y-130180801D01*
X166717872Y-130216551D01*
X166689473Y-130259041D01*
X166680288Y-130277766D01*
X166663172Y-130327362D01*
X166654422Y-130377895D01*
X166652201Y-130422846D01*
X166654061Y-130472997D01*
X166660405Y-130522708D01*
X166671252Y-130566705D01*
X166688907Y-130612785D01*
X166712789Y-130656730D01*
X166722542Y-130670997D01*
X166891314Y-130677835D01*
X166891314Y-130576719D01*
X166792884Y-130554737D01*
X166769393Y-130510037D01*
X166765529Y-130498073D01*
X166756934Y-130448453D01*
X166756004Y-130422846D01*
X166761660Y-130372410D01*
X166781978Y-130325759D01*
X166785557Y-130320752D01*
X166823321Y-130288956D01*
X166859318Y-130281429D01*
X166904503Y-130292665D01*
X166936024Y-130330079D01*
X166938942Y-130335896D01*
X166956098Y-130381671D01*
X166969228Y-130430417D01*
X166983570Y-130485023D01*
X166999304Y-130533068D01*
X167019418Y-130580830D01*
X167044724Y-130624480D01*
X167061796Y-130645840D01*
X167099305Y-130678168D01*
X167146461Y-130699901D01*
X167199793Y-130707145D01*
X167250016Y-130701658D01*
X167300201Y-130682691D01*
X167340309Y-130654037D01*
X167356597Y-130637780D01*
X167387176Y-130592464D01*
X167405956Y-130541608D01*
X167415902Y-130488944D01*
X167419609Y-130437739D01*
X167419856Y-130419427D01*
G37*
D10*
G36*
X117557920Y-134320589D02*
G01*
X117507674Y-134323785D01*
X117455874Y-134334684D01*
X117407711Y-134353318D01*
X117364651Y-134379912D01*
X117327825Y-134414356D01*
X117299756Y-134452480D01*
X117277969Y-134497269D01*
X117263291Y-134548594D01*
X117256158Y-134600373D01*
X117255059Y-134618810D01*
X117256525Y-134622718D01*
X117385729Y-134622718D01*
X117390448Y-134570463D01*
X117403213Y-134522283D01*
X117428985Y-134478193D01*
X117431647Y-134475195D01*
X117473098Y-134444674D01*
X117522236Y-134430312D01*
X117555722Y-134428056D01*
X117604512Y-134433369D01*
X117648779Y-134452236D01*
X117685074Y-134487494D01*
X117702268Y-134519159D01*
X117715989Y-134568157D01*
X117719853Y-134617344D01*
X117719853Y-135224288D01*
X117587230Y-135242117D01*
X117587230Y-135330289D01*
X117966050Y-135330289D01*
X117966050Y-135243583D01*
X117854675Y-135224288D01*
X117854675Y-134617344D01*
X117851360Y-134563902D01*
X117841414Y-134514705D01*
X117822814Y-134465492D01*
X117820726Y-134461273D01*
X117793605Y-134418814D01*
X117758922Y-134383454D01*
X117720830Y-134357470D01*
X117671828Y-134336472D01*
X117620918Y-134324947D01*
X117569920Y-134320733D01*
X117557920Y-134320589D01*
G37*
G36*
X118079379Y-134335000D02*
G01*
X118079379Y-134427323D01*
X118405687Y-134789535D01*
X118439409Y-134828304D01*
X118470828Y-134866707D01*
X118496301Y-134900666D01*
X118522813Y-134942064D01*
X118542219Y-134984441D01*
X118553344Y-135032507D01*
X118555164Y-135062355D01*
X118548810Y-135114894D01*
X118529747Y-135160769D01*
X118509979Y-135187651D01*
X118470778Y-135218758D01*
X118420586Y-135235508D01*
X118381019Y-135238698D01*
X118330114Y-135233546D01*
X118282770Y-135215978D01*
X118244487Y-135185942D01*
X118216676Y-135144645D01*
X118201411Y-135098086D01*
X118195829Y-135048841D01*
X118195639Y-135036953D01*
X118066434Y-135036953D01*
X118065213Y-135041106D01*
X118067798Y-135093274D01*
X118078303Y-135142008D01*
X118096726Y-135187308D01*
X118101361Y-135195956D01*
X118131793Y-135239763D01*
X118170364Y-135276818D01*
X118212491Y-135304644D01*
X118260677Y-135325767D01*
X118308653Y-135338089D01*
X118360995Y-135344074D01*
X118385659Y-135344699D01*
X118436722Y-135341859D01*
X118488519Y-135332042D01*
X118535116Y-135315212D01*
X118548081Y-135308796D01*
X118591236Y-135280995D01*
X118627002Y-135246960D01*
X118653105Y-135210610D01*
X118674103Y-135165737D01*
X118686384Y-135116419D01*
X118689986Y-135067728D01*
X118685263Y-135016598D01*
X118672334Y-134969167D01*
X118668493Y-134959040D01*
X118647724Y-134914740D01*
X118620344Y-134869553D01*
X118605478Y-134848398D01*
X118575109Y-134808691D01*
X118540757Y-134767483D01*
X118506071Y-134728719D01*
X118244243Y-134443688D01*
X118245708Y-134440268D01*
X118599128Y-134440268D01*
X118609874Y-134554330D01*
X118724180Y-134554330D01*
X118724180Y-134335000D01*
X118079379Y-134335000D01*
G37*
D15*
%TO.C,J8*%
X127000000Y-83820000D02*
X127000000Y-104140000D01*
D16*
X127370000Y-86720000D02*
X131620000Y-86720000D01*
X127370000Y-92820000D02*
X127370000Y-86720000D01*
X127370000Y-94970000D02*
X131620000Y-94970000D01*
X127370000Y-101070000D02*
X127370000Y-94970000D01*
D15*
X129540000Y-106680000D02*
X144780000Y-106680000D01*
D16*
X131620000Y-86720000D02*
X131620000Y-92820000D01*
X131620000Y-92820000D02*
X127370000Y-92820000D01*
X131620000Y-94970000D02*
X131620000Y-101070000D01*
X131620000Y-101070000D02*
X127370000Y-101070000D01*
X134070000Y-101820000D02*
X140170000Y-101820000D01*
X134070000Y-106070000D02*
X134070000Y-101820000D01*
X140170000Y-101820000D02*
X140170000Y-106070000D01*
X140170000Y-106070000D02*
X134070000Y-106070000D01*
X142620000Y-86720000D02*
X146870000Y-86720000D01*
X142620000Y-92820000D02*
X142620000Y-86720000D01*
X142620000Y-94970000D02*
X146870000Y-94970000D01*
X142620000Y-101070000D02*
X142620000Y-94970000D01*
D15*
X144780000Y-81280000D02*
X129540000Y-81280000D01*
D16*
X146870000Y-86720000D02*
X146870000Y-92820000D01*
X146870000Y-92820000D02*
X142620000Y-92820000D01*
X146870000Y-94970000D02*
X146870000Y-101070000D01*
X146870000Y-101070000D02*
X142620000Y-101070000D01*
D15*
X147320000Y-104140000D02*
X147320000Y-83820000D01*
X127000000Y-83820000D02*
G75*
G02*
X129540000Y-81280000I2540001J-1D01*
G01*
X129540000Y-106680000D02*
G75*
G02*
X127000000Y-104140000I1J2540001D01*
G01*
X144780000Y-81280000D02*
G75*
G02*
X147320000Y-83820000I0J-2540000D01*
G01*
X147320000Y-104140000D02*
G75*
G02*
X144780000Y-106680000I-2540000J0D01*
G01*
D14*
G36*
X133211724Y-98461095D02*
G01*
X133101521Y-98481416D01*
X133171472Y-98700258D01*
X133731472Y-98700258D01*
X133801424Y-98481416D01*
X133691221Y-98461095D01*
X133691221Y-98270000D01*
X134233245Y-98270000D01*
X134233245Y-98461095D01*
X134119526Y-98477508D01*
X133616581Y-99862463D01*
X133289491Y-99862463D01*
X132950634Y-98935122D01*
X133246895Y-98935122D01*
X133431347Y-99477536D01*
X133447760Y-99529120D01*
X133454403Y-99529120D01*
X133470035Y-99481053D01*
X133655659Y-98935122D01*
X133246895Y-98935122D01*
X132950634Y-98935122D01*
X132783419Y-98477508D01*
X132669309Y-98461095D01*
X132669309Y-98270000D01*
X133211724Y-98270000D01*
X133211724Y-98461095D01*
G37*
G36*
X134815477Y-98247609D02*
G01*
X134898772Y-98260421D01*
X134971445Y-98289539D01*
X134990441Y-98300811D01*
X135051445Y-98350071D01*
X135103922Y-98414591D01*
X135128151Y-98270000D01*
X135558409Y-98270000D01*
X135558409Y-98461095D01*
X135405220Y-98494312D01*
X135405220Y-99976182D01*
X135085555Y-99976182D01*
X134914780Y-99976182D01*
X134914780Y-99783914D01*
X135085555Y-99750697D01*
X135085555Y-99326301D01*
X135082190Y-99330739D01*
X135027132Y-99389609D01*
X134958939Y-99436503D01*
X134945087Y-99443417D01*
X134869130Y-99467786D01*
X134788165Y-99475191D01*
X134770877Y-99474886D01*
X134688972Y-99464200D01*
X134614623Y-99438250D01*
X134547830Y-99397034D01*
X134529334Y-99381903D01*
X134473586Y-99323529D01*
X134426920Y-99252943D01*
X134392687Y-99178974D01*
X134366618Y-99096538D01*
X134350607Y-99016982D01*
X134341338Y-98931516D01*
X134338758Y-98851884D01*
X134658423Y-98851884D01*
X134658995Y-98886133D01*
X134665842Y-98968841D01*
X134681870Y-99047669D01*
X134707815Y-99114422D01*
X134756120Y-99179364D01*
X134805915Y-99211688D01*
X134886643Y-99226650D01*
X134926356Y-99223597D01*
X135002708Y-99195387D01*
X135035065Y-99170984D01*
X135085555Y-99108241D01*
X135085555Y-98605687D01*
X135063077Y-98574668D01*
X135001535Y-98523621D01*
X134964938Y-98507602D01*
X134884299Y-98495484D01*
X134841288Y-98498617D01*
X134764687Y-98526896D01*
X134710789Y-98584584D01*
X134707567Y-98590218D01*
X134676884Y-98667942D01*
X134662565Y-98746985D01*
X134658423Y-98829218D01*
X134658423Y-98851884D01*
X134338758Y-98851884D01*
X134338758Y-98829218D01*
X134340640Y-98765237D01*
X134349005Y-98684673D01*
X134366416Y-98600521D01*
X134392296Y-98523230D01*
X134395713Y-98515105D01*
X134434959Y-98440107D01*
X134483442Y-98376482D01*
X134547439Y-98319630D01*
X134553827Y-98315158D01*
X134629138Y-98275336D01*
X134705617Y-98254041D01*
X134789728Y-98246943D01*
X134815477Y-98247609D01*
G37*
G36*
X136081840Y-98247621D02*
G01*
X136164685Y-98260668D01*
X136237209Y-98290321D01*
X136251468Y-98298701D01*
X136317511Y-98348023D01*
X136371249Y-98405212D01*
X136388444Y-98335261D01*
X136413064Y-98270000D01*
X136808542Y-98270000D01*
X136808542Y-98461095D01*
X136685443Y-98479071D01*
X136681144Y-98524012D01*
X136680754Y-98571688D01*
X136680754Y-99059392D01*
X136680622Y-99071808D01*
X136672327Y-99153670D01*
X136647048Y-99236420D01*
X136604916Y-99307641D01*
X136545932Y-99367334D01*
X136501546Y-99398406D01*
X136431425Y-99433060D01*
X136351990Y-99457391D01*
X136263243Y-99471400D01*
X136179763Y-99475191D01*
X136099086Y-99471948D01*
X136015808Y-99460886D01*
X135938255Y-99441974D01*
X135885108Y-99424340D01*
X135809051Y-99393309D01*
X135737390Y-99356782D01*
X135740516Y-99050013D01*
X135971082Y-99050013D01*
X135996092Y-99206329D01*
X135998175Y-99207760D01*
X136069951Y-99241891D01*
X136083032Y-99245493D01*
X136162568Y-99254396D01*
X136244720Y-99242632D01*
X136311459Y-99200858D01*
X136347362Y-99144077D01*
X136361479Y-99062909D01*
X136361479Y-98975373D01*
X136204382Y-98975373D01*
X136151384Y-98974199D01*
X136072182Y-98967440D01*
X135991313Y-98952654D01*
X135911682Y-98927306D01*
X135856092Y-98901147D01*
X135786263Y-98853209D01*
X135732701Y-98794829D01*
X135709099Y-98756609D01*
X135680646Y-98678783D01*
X135673881Y-98615457D01*
X135990230Y-98615457D01*
X135999195Y-98667415D01*
X136044550Y-98731521D01*
X136048018Y-98734478D01*
X136121926Y-98770387D01*
X136203992Y-98779588D01*
X136361479Y-98779588D01*
X136361479Y-98592400D01*
X136332537Y-98558585D01*
X136267690Y-98513461D01*
X136221913Y-98495124D01*
X136141465Y-98483370D01*
X136103901Y-98486090D01*
X136030091Y-98517759D01*
X136010822Y-98539549D01*
X135990230Y-98615457D01*
X135673881Y-98615457D01*
X135672128Y-98599043D01*
X135673039Y-98569090D01*
X135686691Y-98486441D01*
X135721076Y-98407299D01*
X135775687Y-98341514D01*
X135817224Y-98309375D01*
X135889111Y-98273633D01*
X135972498Y-98252854D01*
X136056274Y-98246943D01*
X136081840Y-98247621D01*
G37*
G36*
X136939456Y-98270000D02*
G01*
X136939456Y-98461095D01*
X137093426Y-98494312D01*
X137093426Y-99228995D01*
X136917181Y-99228995D01*
X136917181Y-99453307D01*
X137093426Y-99453307D01*
X137093426Y-99584221D01*
X137098905Y-99667174D01*
X137118585Y-99751169D01*
X137152578Y-99823636D01*
X137207927Y-99891381D01*
X137270869Y-99938569D01*
X137345192Y-99972274D01*
X137430897Y-99992498D01*
X137515225Y-99999134D01*
X137527983Y-99999239D01*
X137607484Y-99994623D01*
X137635450Y-99991032D01*
X137714581Y-99976912D01*
X137733147Y-99972274D01*
X137705792Y-99734675D01*
X137645220Y-99745617D01*
X137576832Y-99749525D01*
X137496983Y-99736047D01*
X137453343Y-99706929D01*
X137417503Y-99635041D01*
X137412701Y-99584221D01*
X137412701Y-99453307D01*
X137681172Y-99453307D01*
X137681172Y-99228995D01*
X137412701Y-99228995D01*
X137412701Y-98494312D01*
X137621773Y-98461095D01*
X137621773Y-98270000D01*
X136939456Y-98270000D01*
G37*
G36*
X137819512Y-98270000D02*
G01*
X137819512Y-98461095D01*
X137972701Y-98494312D01*
X137972701Y-99227822D01*
X137803098Y-99261039D01*
X137803098Y-99453307D01*
X138269700Y-99453307D01*
X138282205Y-99306371D01*
X138284550Y-99280188D01*
X138323277Y-99350999D01*
X138376617Y-99412989D01*
X138392408Y-99425952D01*
X138463336Y-99462882D01*
X138541543Y-99475143D01*
X138547160Y-99475191D01*
X138608904Y-99470502D01*
X138669477Y-99457997D01*
X138635087Y-99163733D01*
X138476427Y-99171939D01*
X138398633Y-99163765D01*
X138366616Y-99149274D01*
X138306633Y-99094290D01*
X138291975Y-99073852D01*
X138291975Y-98494312D01*
X138445555Y-98461095D01*
X138445555Y-98270000D01*
X137819512Y-98270000D01*
G37*
G36*
X139266211Y-98246943D02*
G01*
X139188187Y-98252628D01*
X139108497Y-98273046D01*
X139030932Y-98313768D01*
X138972729Y-98365743D01*
X138926225Y-98433496D01*
X138896433Y-98506163D01*
X138876814Y-98591322D01*
X138868095Y-98674258D01*
X138866434Y-98734647D01*
X138866434Y-99227822D01*
X138736302Y-99261039D01*
X138736302Y-99453307D01*
X138866434Y-99453307D01*
X139186099Y-99453307D01*
X139186099Y-98732693D01*
X139191271Y-98654049D01*
X139212813Y-98578267D01*
X139229867Y-98550586D01*
X139294137Y-98506031D01*
X139364299Y-98495484D01*
X139442319Y-98505128D01*
X139489351Y-98522840D01*
X139552575Y-98569859D01*
X139578842Y-98602951D01*
X139578842Y-99227822D01*
X139438549Y-99261039D01*
X139438549Y-99453307D01*
X139578842Y-99453307D01*
X139898116Y-99453307D01*
X139898116Y-98494312D01*
X140041535Y-98461095D01*
X140041535Y-98270000D01*
X139618311Y-98270000D01*
X139597209Y-98420062D01*
X139546907Y-98358499D01*
X139482494Y-98306481D01*
X139456916Y-98291493D01*
X139379060Y-98261039D01*
X139298997Y-98248031D01*
X139266211Y-98246943D01*
G37*
G36*
X140149002Y-98270000D02*
G01*
X140149002Y-98461095D01*
X140302973Y-98494312D01*
X140302973Y-99227822D01*
X140132980Y-99261039D01*
X140132980Y-99453307D01*
X140622638Y-99453307D01*
X140622638Y-98494312D01*
X140775827Y-98461095D01*
X140775827Y-98270000D01*
X140149002Y-98270000D01*
G37*
G36*
X140292422Y-99703803D02*
G01*
X140292422Y-99976182D01*
X140622638Y-99976182D01*
X140622638Y-99703803D01*
X140292422Y-99703803D01*
G37*
G36*
X141345987Y-98247334D02*
G01*
X141259190Y-98254505D01*
X141176743Y-98279296D01*
X141109027Y-98321794D01*
X141091584Y-98337997D01*
X141044598Y-98405041D01*
X141017189Y-98483132D01*
X141004660Y-98566663D01*
X141002484Y-98625617D01*
X141002484Y-99228995D01*
X140839916Y-99228995D01*
X140839916Y-99453307D01*
X141002484Y-99453307D01*
X141002484Y-99742882D01*
X141320586Y-99742882D01*
X141320586Y-99453307D01*
X141538255Y-99453307D01*
X141538255Y-99228995D01*
X141320586Y-99228995D01*
X141320586Y-98626399D01*
X141335525Y-98548077D01*
X141349505Y-98528311D01*
X141423006Y-98498727D01*
X141429225Y-98498611D01*
X141485890Y-98502519D01*
X141538255Y-98510725D01*
X141566001Y-98280160D01*
X141487526Y-98261549D01*
X141459316Y-98256713D01*
X141381067Y-98248250D01*
X141345987Y-98247334D01*
G37*
G36*
X135238744Y-95558943D02*
G01*
X135158888Y-95563209D01*
X135074655Y-95577955D01*
X134995154Y-95603234D01*
X134972226Y-95612872D01*
X134901396Y-95651157D01*
X134834766Y-95703849D01*
X134779958Y-95767624D01*
X134739881Y-95841558D01*
X134717443Y-95924727D01*
X134712352Y-96008350D01*
X134714306Y-96013821D01*
X135021075Y-96029062D01*
X135031007Y-95950625D01*
X135067151Y-95879035D01*
X135081256Y-95863367D01*
X135150719Y-95818524D01*
X135232699Y-95803635D01*
X135238744Y-95803577D01*
X135319691Y-95816798D01*
X135385514Y-95860609D01*
X135403657Y-95883688D01*
X135438321Y-95956518D01*
X135454633Y-96037485D01*
X135457195Y-96090806D01*
X135451661Y-96171269D01*
X135432792Y-96247612D01*
X135400531Y-96311211D01*
X135340178Y-96368379D01*
X135264848Y-96392798D01*
X135230928Y-96394840D01*
X135150719Y-96386340D01*
X135091417Y-96360841D01*
X135037902Y-96302826D01*
X135022247Y-96269006D01*
X134739707Y-96287764D01*
X134831542Y-97174463D01*
X135748332Y-97174463D01*
X135748332Y-96811420D01*
X135551375Y-96811420D01*
X135523238Y-96918496D01*
X135094543Y-96918496D01*
X135049212Y-96551155D01*
X135117209Y-96589843D01*
X135191371Y-96614844D01*
X135199665Y-96616808D01*
X135278841Y-96627379D01*
X135294236Y-96627750D01*
X135376819Y-96623875D01*
X135460167Y-96607389D01*
X135534661Y-96578080D01*
X135555283Y-96566787D01*
X135623293Y-96516475D01*
X135679021Y-96452586D01*
X135719023Y-96382725D01*
X135748699Y-96302690D01*
X135766009Y-96222436D01*
X135773923Y-96144559D01*
X135775297Y-96092760D01*
X135770413Y-96009315D01*
X135755760Y-95930878D01*
X135728024Y-95849598D01*
X135713552Y-95818817D01*
X135669276Y-95748346D01*
X135613626Y-95687873D01*
X135546605Y-95637398D01*
X135531836Y-95628503D01*
X135460305Y-95594878D01*
X135380243Y-95572257D01*
X135301915Y-95561388D01*
X135238744Y-95558943D01*
G37*
G36*
X136550429Y-95560698D02*
G01*
X136633345Y-95572706D01*
X136710264Y-95596089D01*
X136781187Y-95630848D01*
X136803437Y-95644797D01*
X136870910Y-95698042D01*
X136928078Y-95761668D01*
X136970719Y-95827806D01*
X136990421Y-95867743D01*
X137017469Y-95943958D01*
X137033697Y-96025738D01*
X137039107Y-96113081D01*
X137038252Y-96151617D01*
X137030078Y-96234347D01*
X137013248Y-96311576D01*
X136984397Y-96390932D01*
X136945470Y-96461739D01*
X136891720Y-96527727D01*
X136826518Y-96581246D01*
X136820054Y-96585501D01*
X136743665Y-96623396D01*
X136665805Y-96643661D01*
X136579930Y-96650415D01*
X136555378Y-96649921D01*
X136473579Y-96640400D01*
X136398214Y-96618762D01*
X136393089Y-96616760D01*
X136323085Y-96581148D01*
X136262610Y-96531616D01*
X136258702Y-96536696D01*
X136261240Y-96597438D01*
X136273318Y-96684663D01*
X136298700Y-96768136D01*
X136341549Y-96842683D01*
X136357457Y-96861330D01*
X136420105Y-96910240D01*
X136497560Y-96938770D01*
X136579930Y-96947024D01*
X136630324Y-96944991D01*
X136711626Y-96932565D01*
X136758686Y-96921024D01*
X136833943Y-96897394D01*
X136889826Y-97130304D01*
X136813622Y-97159418D01*
X136737418Y-97180325D01*
X136732667Y-97181383D01*
X136653007Y-97193741D01*
X136572115Y-97197519D01*
X136560433Y-97197437D01*
X136481037Y-97192219D01*
X136395381Y-97176319D01*
X136315147Y-97149819D01*
X136240335Y-97112718D01*
X136172143Y-97065848D01*
X136111766Y-97009648D01*
X136059205Y-96944117D01*
X136014459Y-96869257D01*
X135990930Y-96817922D01*
X135964689Y-96740572D01*
X135946264Y-96656826D01*
X135935656Y-96566684D01*
X135932785Y-96484330D01*
X135932785Y-96303004D01*
X136251277Y-96303004D01*
X136308332Y-96359669D01*
X136312666Y-96362557D01*
X136386099Y-96395621D01*
X136399788Y-96399336D01*
X136478325Y-96408517D01*
X136519835Y-96405660D01*
X136596951Y-96379862D01*
X136656525Y-96327233D01*
X136686939Y-96277960D01*
X136712007Y-96200528D01*
X136719442Y-96117771D01*
X136719415Y-96112315D01*
X136712505Y-96034240D01*
X136691696Y-95958720D01*
X136665729Y-95905704D01*
X136614320Y-95845391D01*
X136574350Y-95819910D01*
X136495520Y-95803577D01*
X136449802Y-95808457D01*
X136375414Y-95843419D01*
X136318884Y-95905572D01*
X136289306Y-95962017D01*
X136266132Y-96038538D01*
X136254512Y-96118130D01*
X136251277Y-96196710D01*
X136251277Y-96303004D01*
X135932785Y-96303004D01*
X135932785Y-96204526D01*
X135933067Y-96179494D01*
X135938503Y-96095393D01*
X135950859Y-96016752D01*
X135973451Y-95933563D01*
X136005081Y-95857505D01*
X136029037Y-95813971D01*
X136079036Y-95743928D01*
X136137875Y-95684580D01*
X136205555Y-95635928D01*
X136255142Y-95609765D01*
X136334676Y-95580670D01*
X136420391Y-95563755D01*
X136501773Y-95558943D01*
X136550429Y-95560698D01*
G37*
G36*
X137800952Y-95560698D02*
G01*
X137883868Y-95572706D01*
X137960788Y-95596089D01*
X138031710Y-95630848D01*
X138053961Y-95644797D01*
X138121433Y-95698042D01*
X138178601Y-95761668D01*
X138221242Y-95827806D01*
X138240944Y-95867743D01*
X138267992Y-95943958D01*
X138284221Y-96025738D01*
X138289630Y-96113081D01*
X138288776Y-96151617D01*
X138280601Y-96234347D01*
X138263771Y-96311576D01*
X138234920Y-96390932D01*
X138195994Y-96461739D01*
X138142244Y-96527727D01*
X138077041Y-96581246D01*
X138070578Y-96585501D01*
X137994188Y-96623396D01*
X137916328Y-96643661D01*
X137830454Y-96650415D01*
X137805901Y-96649921D01*
X137724103Y-96640400D01*
X137648737Y-96618762D01*
X137643612Y-96616760D01*
X137573608Y-96581148D01*
X137513134Y-96531616D01*
X137509226Y-96536696D01*
X137511763Y-96597438D01*
X137523841Y-96684663D01*
X137549223Y-96768136D01*
X137592073Y-96842683D01*
X137607980Y-96861330D01*
X137670628Y-96910240D01*
X137748084Y-96938770D01*
X137830454Y-96947024D01*
X137880847Y-96944991D01*
X137962150Y-96932565D01*
X138009209Y-96921024D01*
X138084466Y-96897394D01*
X138140349Y-97130304D01*
X138064145Y-97159418D01*
X137987942Y-97180325D01*
X137983190Y-97181383D01*
X137903530Y-97193741D01*
X137822638Y-97197519D01*
X137810957Y-97197437D01*
X137731560Y-97192219D01*
X137645904Y-97176319D01*
X137565670Y-97149819D01*
X137490859Y-97112718D01*
X137422666Y-97065848D01*
X137362289Y-97009648D01*
X137309728Y-96944117D01*
X137264983Y-96869257D01*
X137241453Y-96817922D01*
X137215212Y-96740572D01*
X137196788Y-96656826D01*
X137186179Y-96566684D01*
X137183308Y-96484330D01*
X137183308Y-96303004D01*
X137501801Y-96303004D01*
X137558856Y-96359669D01*
X137563190Y-96362557D01*
X137636623Y-96395621D01*
X137650312Y-96399336D01*
X137728849Y-96408517D01*
X137770358Y-96405660D01*
X137847475Y-96379862D01*
X137907048Y-96327233D01*
X137937462Y-96277960D01*
X137962531Y-96200528D01*
X137969965Y-96117771D01*
X137969938Y-96112315D01*
X137963029Y-96034240D01*
X137942219Y-95958720D01*
X137916253Y-95905704D01*
X137864843Y-95845391D01*
X137824873Y-95819910D01*
X137746044Y-95803577D01*
X137700325Y-95808457D01*
X137625937Y-95843419D01*
X137569407Y-95905572D01*
X137539829Y-95962017D01*
X137516656Y-96038538D01*
X137505036Y-96118130D01*
X137501801Y-96196710D01*
X137501801Y-96303004D01*
X137183308Y-96303004D01*
X137183308Y-96204526D01*
X137183590Y-96179494D01*
X137189027Y-96095393D01*
X137201382Y-96016752D01*
X137223974Y-95933563D01*
X137255604Y-95857505D01*
X137279561Y-95813971D01*
X137329559Y-95743928D01*
X137388398Y-95684580D01*
X137456078Y-95635928D01*
X137505666Y-95609765D01*
X137585199Y-95580670D01*
X137670914Y-95563755D01*
X137752296Y-95558943D01*
X137800952Y-95560698D01*
G37*
G36*
X139531166Y-95773095D02*
G01*
X139361563Y-95806312D01*
X139361563Y-95962237D01*
X139541717Y-95962237D01*
X139541717Y-96174435D01*
X139361563Y-96174435D01*
X139361563Y-97174463D01*
X139039554Y-97174463D01*
X138412732Y-96174435D01*
X138676511Y-96174435D01*
X139010244Y-96705517D01*
X139036818Y-96751239D01*
X139043071Y-96748894D01*
X139043071Y-96174435D01*
X138676511Y-96174435D01*
X138412732Y-96174435D01*
X138377949Y-96118943D01*
X138393189Y-95962237D01*
X139043071Y-95962237D01*
X139043071Y-95806312D01*
X138872296Y-95773095D01*
X138872296Y-95582000D01*
X139531166Y-95582000D01*
X139531166Y-95773095D01*
G37*
G36*
X134466937Y-92870943D02*
G01*
X134380939Y-92873385D01*
X134298800Y-92880713D01*
X134220520Y-92892925D01*
X134146099Y-92910022D01*
X134065199Y-92936798D01*
X133985165Y-92972725D01*
X133914750Y-93012341D01*
X133862387Y-93046798D01*
X133862387Y-93432506D01*
X134109365Y-93432506D01*
X134143364Y-93205458D01*
X134210189Y-93164118D01*
X134278577Y-93138633D01*
X134357330Y-93121002D01*
X134435548Y-93113471D01*
X134466937Y-93112841D01*
X134547146Y-93118801D01*
X134613483Y-93136679D01*
X134681674Y-93179414D01*
X134703755Y-93205067D01*
X134733064Y-93280538D01*
X134735018Y-93309799D01*
X134719191Y-93388127D01*
X134706881Y-93411013D01*
X134651552Y-93468575D01*
X134615046Y-93492297D01*
X134540014Y-93528249D01*
X134462362Y-93556310D01*
X134442317Y-93562639D01*
X134362672Y-93587288D01*
X134279251Y-93616786D01*
X134203938Y-93647701D01*
X134128905Y-93684174D01*
X134057303Y-93728214D01*
X133992559Y-93782476D01*
X133942499Y-93842834D01*
X133904873Y-93917389D01*
X133885638Y-93995194D01*
X133880754Y-94065584D01*
X133889251Y-94150864D01*
X133914740Y-94228849D01*
X133952659Y-94293413D01*
X134008559Y-94356399D01*
X134070596Y-94405003D01*
X134143320Y-94445364D01*
X134151180Y-94448947D01*
X134225681Y-94476682D01*
X134306303Y-94495700D01*
X134393045Y-94506000D01*
X134443880Y-94507956D01*
X134522369Y-94506816D01*
X134607078Y-94499787D01*
X134686463Y-94486653D01*
X134769407Y-94464579D01*
X134846110Y-94435827D01*
X134916631Y-94401450D01*
X134987736Y-94356654D01*
X135014041Y-94336791D01*
X135014041Y-93978047D01*
X134774487Y-93978047D01*
X134733064Y-94196889D01*
X134661901Y-94230103D01*
X134620517Y-94243002D01*
X134540374Y-94258248D01*
X134460684Y-94262541D01*
X134380396Y-94255122D01*
X134325471Y-94239094D01*
X134256508Y-94197601D01*
X134232855Y-94172269D01*
X134201905Y-94099662D01*
X134199247Y-94065974D01*
X134218337Y-93988501D01*
X134228165Y-93972967D01*
X134287675Y-93919838D01*
X134327425Y-93897154D01*
X134404425Y-93863065D01*
X134482470Y-93834186D01*
X134519303Y-93821732D01*
X134598615Y-93797731D01*
X134685553Y-93765857D01*
X134763506Y-93730631D01*
X134832474Y-93692053D01*
X134901581Y-93642808D01*
X134919079Y-93627900D01*
X134978748Y-93563005D01*
X135021368Y-93488682D01*
X135046940Y-93404931D01*
X135055331Y-93323915D01*
X135055464Y-93311752D01*
X135048290Y-93230381D01*
X135023824Y-93149248D01*
X134981996Y-93076889D01*
X134924514Y-93014272D01*
X134860156Y-92966645D01*
X134784273Y-92927871D01*
X134776051Y-92924481D01*
X134698197Y-92898601D01*
X134613234Y-92881190D01*
X134531742Y-92872825D01*
X134466937Y-92870943D01*
G37*
G36*
X135170747Y-92894000D02*
G01*
X135170747Y-93085095D01*
X135324718Y-93118312D01*
X135324718Y-94374697D01*
X135153943Y-94407914D01*
X135153943Y-94600182D01*
X135642820Y-94600182D01*
X135642820Y-93926854D01*
X135692610Y-93987216D01*
X135756040Y-94038807D01*
X135781159Y-94053860D01*
X135857721Y-94084848D01*
X135936718Y-94098085D01*
X135969128Y-94099191D01*
X136053612Y-94091766D01*
X136128863Y-94069491D01*
X136202485Y-94026682D01*
X136251668Y-93980392D01*
X136297317Y-93912932D01*
X136329924Y-93829352D01*
X136347755Y-93742996D01*
X136355092Y-93659154D01*
X136356009Y-93613832D01*
X136356009Y-93118312D01*
X136509198Y-93085095D01*
X136509198Y-92894000D01*
X135898786Y-92894000D01*
X135898786Y-93085095D01*
X136036735Y-93118312D01*
X136036735Y-93616177D01*
X136031055Y-93695211D01*
X136007397Y-93770288D01*
X135988668Y-93797112D01*
X135920373Y-93840402D01*
X135847593Y-93850650D01*
X135767499Y-93839037D01*
X135729575Y-93823685D01*
X135665901Y-93775157D01*
X135642820Y-93745528D01*
X135642820Y-93118312D01*
X135780377Y-93085095D01*
X135780377Y-92894000D01*
X135170747Y-92894000D01*
G37*
G36*
X136602206Y-92894000D02*
G01*
X136602206Y-93085095D01*
X136756176Y-93118312D01*
X136756176Y-93851822D01*
X136586183Y-93885039D01*
X136586183Y-94077307D01*
X137075841Y-94077307D01*
X137075841Y-93118312D01*
X137229030Y-93085095D01*
X137229030Y-92894000D01*
X136602206Y-92894000D01*
G37*
G36*
X136745625Y-94327803D02*
G01*
X136745625Y-94600182D01*
X137075841Y-94600182D01*
X137075841Y-94327803D01*
X136745625Y-94327803D01*
G37*
G36*
X137910094Y-92870981D02*
G01*
X137995686Y-92875561D01*
X138074943Y-92887773D01*
X138154808Y-92910022D01*
X138201587Y-92928054D01*
X138273514Y-92963316D01*
X138339651Y-93007719D01*
X138253287Y-93204286D01*
X138180112Y-93165793D01*
X138105178Y-93137852D01*
X138100428Y-93136481D01*
X138021208Y-93120471D01*
X137941438Y-93115577D01*
X137872441Y-93122234D01*
X137798019Y-93150357D01*
X137754459Y-93182808D01*
X137706574Y-93245318D01*
X137681919Y-93305969D01*
X137667886Y-93384048D01*
X137669840Y-93390692D01*
X138365444Y-93390692D01*
X138365444Y-93564593D01*
X138364558Y-93606206D01*
X138356092Y-93694075D01*
X138338661Y-93773968D01*
X138308779Y-93853385D01*
X138268174Y-93922590D01*
X138211519Y-93985933D01*
X138142303Y-94035884D01*
X138114063Y-94050721D01*
X138036569Y-94079160D01*
X137958406Y-94094184D01*
X137872268Y-94099191D01*
X137822618Y-94097518D01*
X137738442Y-94084841D01*
X137660942Y-94059737D01*
X137590119Y-94022206D01*
X137554057Y-93996463D01*
X137495733Y-93942865D01*
X137445879Y-93879932D01*
X137404494Y-93807663D01*
X137375771Y-93737004D01*
X137355255Y-93661411D01*
X137346966Y-93607189D01*
X137669058Y-93607189D01*
X137677705Y-93660275D01*
X137701885Y-93738494D01*
X137717248Y-93769079D01*
X137770273Y-93829547D01*
X137799742Y-93847270D01*
X137877739Y-93863155D01*
X137909760Y-93861372D01*
X137986769Y-93834628D01*
X138003979Y-93821025D01*
X138047732Y-93754125D01*
X138060383Y-93708606D01*
X138067272Y-93630245D01*
X138067272Y-93601718D01*
X137672575Y-93601718D01*
X137669058Y-93607189D01*
X137346966Y-93607189D01*
X137342945Y-93580884D01*
X137338842Y-93495423D01*
X137338842Y-93452046D01*
X137341287Y-93390190D01*
X137352156Y-93311775D01*
X137374777Y-93229106D01*
X137408402Y-93152311D01*
X137431523Y-93112652D01*
X137480114Y-93048190D01*
X137537668Y-92992631D01*
X137604187Y-92945974D01*
X137661676Y-92916739D01*
X137741745Y-92889701D01*
X137818730Y-92875632D01*
X137901187Y-92870943D01*
X137910094Y-92870981D01*
G37*
G36*
X138495185Y-92894000D02*
G01*
X138495185Y-93085095D01*
X138649938Y-93118312D01*
X138649938Y-94374697D01*
X138478772Y-94407914D01*
X138478772Y-94600182D01*
X138969212Y-94600182D01*
X138969212Y-93118312D01*
X139123183Y-93085095D01*
X139123183Y-92894000D01*
X138495185Y-92894000D01*
G37*
G36*
X139708150Y-92871609D02*
G01*
X139791445Y-92884421D01*
X139864118Y-92913539D01*
X139883114Y-92924811D01*
X139944118Y-92974071D01*
X139996595Y-93038591D01*
X140020824Y-92894000D01*
X140451082Y-92894000D01*
X140451082Y-93085095D01*
X140297893Y-93118312D01*
X140297893Y-94600182D01*
X139978228Y-94600182D01*
X139807453Y-94600182D01*
X139807453Y-94407914D01*
X139978228Y-94374697D01*
X139978228Y-93950301D01*
X139974863Y-93954739D01*
X139919805Y-94013609D01*
X139851612Y-94060503D01*
X139837760Y-94067417D01*
X139761803Y-94091786D01*
X139680838Y-94099191D01*
X139663550Y-94098886D01*
X139581645Y-94088200D01*
X139507296Y-94062250D01*
X139440503Y-94021034D01*
X139422007Y-94005903D01*
X139366259Y-93947529D01*
X139319593Y-93876943D01*
X139285360Y-93802974D01*
X139259291Y-93720538D01*
X139243281Y-93640982D01*
X139234012Y-93555516D01*
X139231431Y-93475884D01*
X139551096Y-93475884D01*
X139551668Y-93510133D01*
X139558515Y-93592841D01*
X139574543Y-93671669D01*
X139600488Y-93738422D01*
X139648793Y-93803364D01*
X139698588Y-93835688D01*
X139779317Y-93850650D01*
X139819029Y-93847597D01*
X139895381Y-93819387D01*
X139927738Y-93794984D01*
X139978228Y-93732241D01*
X139978228Y-93229687D01*
X139955750Y-93198668D01*
X139894208Y-93147621D01*
X139857611Y-93131602D01*
X139776972Y-93119484D01*
X139733961Y-93122617D01*
X139657360Y-93150896D01*
X139603462Y-93208584D01*
X139600240Y-93214218D01*
X139569557Y-93291942D01*
X139555238Y-93370985D01*
X139551096Y-93453218D01*
X139551096Y-93475884D01*
X139231431Y-93475884D01*
X139231431Y-93453218D01*
X139233313Y-93389237D01*
X139241678Y-93308673D01*
X139259089Y-93224521D01*
X139284969Y-93147230D01*
X139288386Y-93139105D01*
X139327632Y-93064107D01*
X139376115Y-93000482D01*
X139440112Y-92943630D01*
X139446501Y-92939158D01*
X139521811Y-92899336D01*
X139598290Y-92878041D01*
X139682401Y-92870943D01*
X139708150Y-92871609D01*
G37*
D15*
%TO.C,J7*%
X143510000Y-150600000D02*
X143510000Y-145520000D01*
X146050000Y-142980000D02*
X161290000Y-142980000D01*
X161290000Y-153140000D02*
X146050000Y-153140000D01*
X163830000Y-145520000D02*
X163830000Y-150600000D01*
D10*
X151670000Y-150750000D02*
X151170000Y-150750000D01*
X151170000Y-152000000D01*
X151670000Y-152000000D01*
X151670000Y-150750000D01*
X156170000Y-150750000D02*
X155670000Y-150750000D01*
X155670000Y-152000000D01*
X156170000Y-152000000D01*
X156170000Y-150750000D01*
X157420000Y-147750000D02*
X149920000Y-147750000D01*
X149920000Y-153000000D01*
X157420000Y-153000000D01*
X157420000Y-147750000D01*
D15*
X143510000Y-145520000D02*
G75*
G02*
X146050000Y-142980000I2540001J-1D01*
G01*
X146050000Y-153140000D02*
G75*
G02*
X143510000Y-150600000I1J2540001D01*
G01*
X161290000Y-142980000D02*
G75*
G02*
X163830000Y-145520000I0J-2540000D01*
G01*
X163830000Y-150600000D02*
G75*
G02*
X161290000Y-153140000I-2540000J0D01*
G01*
D17*
%TO.C,J5*%
X167580000Y-129540000D02*
X170240000Y-129540000D01*
X167580000Y-134680000D02*
X167580000Y-129540000D01*
X167580000Y-134680000D02*
X170240000Y-134680000D01*
X168910000Y-126940000D02*
X170240000Y-126940000D01*
X170240000Y-126940000D02*
X170240000Y-128270000D01*
X170240000Y-134680000D02*
X170240000Y-129540000D01*
%TO.C,J2*%
D10*
X111684015Y-147737679D02*
X108941532Y-147737679D01*
X108941532Y-150172249D01*
X111684015Y-150172249D01*
X111684015Y-147737679D01*
X121063890Y-138423791D02*
X119418160Y-138423791D01*
X119418160Y-148262986D01*
X121063890Y-148262986D01*
X121063890Y-138423791D01*
X129615232Y-138425680D02*
X127969502Y-138425680D01*
X127969502Y-148182314D01*
X129615232Y-148182314D01*
X129615232Y-138425680D01*
X137520224Y-138425679D02*
X111682098Y-138425679D01*
X111682098Y-153393974D01*
X137520224Y-153393974D01*
X137520224Y-138425679D01*
X140219364Y-147737679D02*
X137524083Y-147737679D01*
X137524083Y-150172249D01*
X140219364Y-150172249D01*
X140219364Y-147737679D01*
%TD*%
M02*
