%TF.GenerationSoftware,KiCad,Pcbnew,8.0.1*%
%TF.CreationDate,2024-08-15T18:35:28+01:00*%
%TF.ProjectId,ProjectALIENMainBoard,50726f6a-6563-4744-916c-69656e4d6169,1.0*%
%TF.SameCoordinates,Original*%
%TF.FileFunction,Copper,L1,Top*%
%TF.FilePolarity,Positive*%
%FSLAX46Y46*%
G04 Gerber Fmt 4.6, Leading zero omitted, Abs format (unit mm)*
G04 Created by KiCad (PCBNEW 8.0.1) date 2024-08-15 18:35:28*
%MOMM*%
%LPD*%
G01*
G04 APERTURE LIST*
G04 Aperture macros list*
%AMRoundRect*
0 Rectangle with rounded corners*
0 $1 Rounding radius*
0 $2 $3 $4 $5 $6 $7 $8 $9 X,Y pos of 4 corners*
0 Add a 4 corners polygon primitive as box body*
4,1,4,$2,$3,$4,$5,$6,$7,$8,$9,$2,$3,0*
0 Add four circle primitives for the rounded corners*
1,1,$1+$1,$2,$3*
1,1,$1+$1,$4,$5*
1,1,$1+$1,$6,$7*
1,1,$1+$1,$8,$9*
0 Add four rect primitives between the rounded corners*
20,1,$1+$1,$2,$3,$4,$5,0*
20,1,$1+$1,$4,$5,$6,$7,0*
20,1,$1+$1,$6,$7,$8,$9,0*
20,1,$1+$1,$8,$9,$2,$3,0*%
G04 Aperture macros list end*
%TA.AperFunction,ComponentPad*%
%ADD10C,1.778000*%
%TD*%
%TA.AperFunction,ComponentPad*%
%ADD11C,1.000000*%
%TD*%
%TA.AperFunction,SMDPad,CuDef*%
%ADD12RoundRect,0.160000X0.197500X0.160000X-0.197500X0.160000X-0.197500X-0.160000X0.197500X-0.160000X0*%
%TD*%
%TA.AperFunction,ComponentPad*%
%ADD13R,1.600000X1.600000*%
%TD*%
%TA.AperFunction,ComponentPad*%
%ADD14O,1.600000X1.600000*%
%TD*%
%TA.AperFunction,ComponentPad*%
%ADD15C,5.400000*%
%TD*%
%TA.AperFunction,SMDPad,CuDef*%
%ADD16RoundRect,0.160000X-0.197500X-0.160000X0.197500X-0.160000X0.197500X0.160000X-0.197500X0.160000X0*%
%TD*%
%TA.AperFunction,ComponentPad*%
%ADD17O,1.700000X1.700000*%
%TD*%
%TA.AperFunction,ComponentPad*%
%ADD18R,1.700000X1.700000*%
%TD*%
%TA.AperFunction,ComponentPad*%
%ADD19R,1.500000X1.050000*%
%TD*%
%TA.AperFunction,ComponentPad*%
%ADD20O,1.500000X1.050000*%
%TD*%
%TA.AperFunction,SMDPad,CuDef*%
%ADD21RoundRect,0.160000X-0.160000X0.197500X-0.160000X-0.197500X0.160000X-0.197500X0.160000X0.197500X0*%
%TD*%
%TA.AperFunction,ComponentPad*%
%ADD22C,1.400000*%
%TD*%
%TA.AperFunction,ComponentPad*%
%ADD23C,2.000000*%
%TD*%
%TA.AperFunction,ComponentPad*%
%ADD24R,1.778000X1.778000*%
%TD*%
%TA.AperFunction,ComponentPad*%
%ADD25C,2.286000*%
%TD*%
%TA.AperFunction,ViaPad*%
%ADD26C,0.600000*%
%TD*%
%TA.AperFunction,Conductor*%
%ADD27C,0.200000*%
%TD*%
%TA.AperFunction,Conductor*%
%ADD28C,0.500000*%
%TD*%
G04 APERTURE END LIST*
D10*
%TO.P,J8,1,Pin_1*%
%TO.N,+5V*%
X132080000Y-83820000D03*
%TO.P,J8,2,Pin_2*%
%TO.N,GND*%
X134620000Y-83820000D03*
%TO.P,J8,3,Pin_3*%
%TO.N,I2C_SCL*%
X137160000Y-83820000D03*
%TO.P,J8,4,Pin_4*%
%TO.N,I2C_SDA*%
X139700000Y-83820000D03*
%TO.P,J8,5,Pin_5*%
%TO.N,unconnected-(J8-Pin_5-Pad5)*%
X142240000Y-83820000D03*
%TD*%
D11*
%TO.P,TP9,1,1*%
%TO.N,DIR1*%
X124421974Y-86321974D03*
%TD*%
D12*
%TO.P,R6,1*%
%TO.N,Net-(J1-Pin_3)*%
X156807500Y-107950000D03*
%TO.P,R6,2*%
%TO.N,GND*%
X155612500Y-107950000D03*
%TD*%
D11*
%TO.P,TP20,1,1*%
%TO.N,ENC2B*%
X158750000Y-88900000D03*
%TD*%
%TO.P,TP11,1,1*%
%TO.N,PWM2*%
X124421974Y-91401974D03*
%TD*%
D13*
%TO.P,A1,1,TX1*%
%TO.N,unconnected-(A1-TX1-Pad1)*%
X143510000Y-109230000D03*
D14*
%TO.P,A1,2,RX1*%
%TO.N,unconnected-(A1-RX1-Pad2)*%
X140970000Y-109230000D03*
%TO.P,A1,3,~{RESET}*%
%TO.N,Net-(A1-~{RESET}-Pad3)*%
X138430000Y-109230000D03*
%TO.P,A1,4,GND*%
%TO.N,GND*%
X135890000Y-109230000D03*
%TO.P,A1,5,D2*%
%TO.N,ENC1A*%
X133350000Y-109230000D03*
%TO.P,A1,6,D3*%
%TO.N,ENC2A*%
X130810000Y-109230000D03*
%TO.P,A1,7,D4*%
%TO.N,ENC1B*%
X128270000Y-109230000D03*
%TO.P,A1,8,D5*%
%TO.N,PIXELS_DATA_3.3V*%
X125730000Y-109230000D03*
%TO.P,A1,9,D6*%
%TO.N,USONIC_ECHO*%
X123190000Y-109230000D03*
%TO.P,A1,10,D7*%
%TO.N,USONIC_TRIG*%
X120650000Y-109230000D03*
%TO.P,A1,11,D8*%
%TO.N,NES_DATA*%
X118110000Y-109230000D03*
%TO.P,A1,12,D9*%
%TO.N,PWM1*%
X115570000Y-109230000D03*
%TO.P,A1,13,D10*%
%TO.N,PWM2*%
X113030000Y-109230000D03*
%TO.P,A1,14,MOSI*%
%TO.N,D11*%
X110490000Y-109230000D03*
%TO.P,A1,15,MISO*%
%TO.N,D12*%
X107950000Y-109230000D03*
%TO.P,A1,16,SCK*%
%TO.N,D13*%
X107950000Y-124470000D03*
%TO.P,A1,17,3V3*%
%TO.N,+3.3V*%
X110490000Y-124470000D03*
%TO.P,A1,18,AREF*%
%TO.N,unconnected-(A1-AREF-Pad18)*%
X113030000Y-124470000D03*
%TO.P,A1,19,A0*%
%TO.N,DIR1*%
X115570000Y-124470000D03*
%TO.P,A1,20,A1*%
%TO.N,DIR2*%
X118110000Y-124470000D03*
%TO.P,A1,21,A2*%
%TO.N,SHIFT_REG_CLOCK*%
X120650000Y-124470000D03*
%TO.P,A1,22,A3*%
%TO.N,SHIFT_REG_LOAD*%
X123190000Y-124470000D03*
%TO.P,A1,23,SDA/A4*%
%TO.N,I2C_SDA*%
X125730000Y-124470000D03*
%TO.P,A1,24,SCL/A5*%
%TO.N,I2C_SCL*%
X128270000Y-124470000D03*
%TO.P,A1,25,A6*%
%TO.N,BUMPER_DATA*%
X130810000Y-124470000D03*
%TO.P,A1,26,A7*%
%TO.N,ENC2B*%
X133350000Y-124470000D03*
%TO.P,A1,27,+5V*%
%TO.N,unconnected-(A1-+5V-Pad27)*%
X135890000Y-124470000D03*
%TO.P,A1,28,~{RESET}*%
%TO.N,unconnected-(A1-~{RESET}-Pad28)*%
X138430000Y-124470000D03*
%TO.P,A1,29,GND*%
%TO.N,GND*%
X140970000Y-124470000D03*
%TO.P,A1,30,VIN*%
%TO.N,+5V*%
X143510000Y-124470000D03*
%TD*%
D15*
%TO.P,H4,1,1*%
%TO.N,GND*%
X163000000Y-72000000D03*
%TD*%
D11*
%TO.P,TP8,1,1*%
%TO.N,SHIFT_REG_CLOCK*%
X133350000Y-135890000D03*
%TD*%
D12*
%TO.P,R1,1*%
%TO.N,Net-(Q1-B)*%
X142516899Y-132688321D03*
%TO.P,R1,2*%
%TO.N,PIXELS_DATA_3.3V*%
X141321899Y-132688321D03*
%TD*%
D16*
%TO.P,R11,1*%
%TO.N,Net-(J1-Pin_8)*%
X153072500Y-118110000D03*
%TO.P,R11,2*%
%TO.N,GND*%
X154267500Y-118110000D03*
%TD*%
D11*
%TO.P,TP12,1,1*%
%TO.N,DIR2*%
X124421974Y-93941974D03*
%TD*%
D16*
%TO.P,R9,1*%
%TO.N,Net-(J1-Pin_6)*%
X153072500Y-113030000D03*
%TO.P,R9,2*%
%TO.N,GND*%
X154267500Y-113030000D03*
%TD*%
D17*
%TO.P,M1,12,M1+*%
%TO.N,M1+*%
X146011974Y-86321974D03*
%TO.P,M1,11,M1-*%
%TO.N,M1-*%
X146011974Y-88861974D03*
%TO.P,M1,10,M2+*%
%TO.N,M2+*%
X146011974Y-91401974D03*
%TO.P,M1,9,M2-*%
%TO.N,M2-*%
X146011974Y-93941974D03*
%TO.P,M1,8,GND*%
%TO.N,GND*%
X146011974Y-96481974D03*
%TO.P,M1,7,VM(<12V)*%
%TO.N,+5V*%
X146011974Y-99021974D03*
%TO.P,M1,6,VCC*%
X128231974Y-99021974D03*
%TO.P,M1,5,GND*%
%TO.N,GND*%
X128231974Y-96481974D03*
%TO.P,M1,4,DIR2*%
%TO.N,DIR2*%
X128231974Y-93941974D03*
%TO.P,M1,3,PMW2*%
%TO.N,PWM2*%
X128231974Y-91401974D03*
%TO.P,M1,2,PMW1*%
%TO.N,PWM1*%
X128231974Y-88861974D03*
%TO.P,M1,1,DIR1*%
%TO.N,DIR1*%
X128231974Y-86321974D03*
%TD*%
D16*
%TO.P,R10,1*%
%TO.N,Net-(J1-Pin_7)*%
X153072500Y-115570000D03*
%TO.P,R10,2*%
%TO.N,GND*%
X154267500Y-115570000D03*
%TD*%
D11*
%TO.P,TP15,1,1*%
%TO.N,M2+*%
X149821974Y-91401974D03*
%TD*%
D15*
%TO.P,H1,1,1*%
%TO.N,GND*%
X114000000Y-72000000D03*
%TD*%
D11*
%TO.P,TP3,1,1*%
%TO.N,PIXELS_DATA_3.3V*%
X141284399Y-130783321D03*
%TD*%
D15*
%TO.P,H3,1,1*%
%TO.N,GND*%
X163000000Y-130000000D03*
%TD*%
D13*
%TO.P,U1,1,D7*%
%TO.N,Net-(J1-Pin_9)*%
X158750000Y-120650000D03*
D14*
%TO.P,U1,2,Q5*%
%TO.N,unconnected-(U1-Q5-Pad2)*%
X158750000Y-118110000D03*
%TO.P,U1,3,Q7*%
%TO.N,unconnected-(U1-Q7-Pad3)*%
X158750000Y-115570000D03*
%TO.P,U1,4,D3*%
%TO.N,Net-(J1-Pin_5)*%
X158750000Y-113030000D03*
%TO.P,U1,5,D2*%
%TO.N,Net-(J1-Pin_4)*%
X158750000Y-110490000D03*
%TO.P,U1,6,D1*%
%TO.N,Net-(J1-Pin_3)*%
X158750000Y-107950000D03*
%TO.P,U1,7,D0*%
%TO.N,Net-(J1-Pin_2)*%
X158750000Y-105410000D03*
%TO.P,U1,8,VSS*%
%TO.N,GND*%
X158750000Y-102870000D03*
%TO.P,U1,9,PL*%
%TO.N,SHIFT_REG_LOAD*%
X151130000Y-102870000D03*
%TO.P,U1,10,CP*%
%TO.N,SHIFT_REG_CLOCK*%
X151130000Y-105410000D03*
%TO.P,U1,11,DS*%
%TO.N,BUMPER_DATA*%
X151130000Y-107950000D03*
%TO.P,U1,12,Q6*%
%TO.N,unconnected-(U1-Q6-Pad12)*%
X151130000Y-110490000D03*
%TO.P,U1,13,D4*%
%TO.N,Net-(J1-Pin_6)*%
X151130000Y-113030000D03*
%TO.P,U1,14,D5*%
%TO.N,Net-(J1-Pin_7)*%
X151130000Y-115570000D03*
%TO.P,U1,15,D6*%
%TO.N,Net-(J1-Pin_8)*%
X151130000Y-118110000D03*
%TO.P,U1,16,VDD*%
%TO.N,+3.3V*%
X151130000Y-120650000D03*
%TD*%
D12*
%TO.P,R8,1*%
%TO.N,Net-(J1-Pin_5)*%
X156807500Y-113030000D03*
%TO.P,R8,2*%
%TO.N,GND*%
X155612500Y-113030000D03*
%TD*%
D11*
%TO.P,TP16,1,1*%
%TO.N,M2-*%
X149821974Y-93941974D03*
%TD*%
D18*
%TO.P,J9,1,Pin_1*%
%TO.N,GND*%
X167640000Y-139700000D03*
D17*
%TO.P,J9,2,Pin_2*%
%TO.N,+3.3V*%
X167640000Y-142240000D03*
%TO.P,J9,3,Pin_3*%
%TO.N,+5V*%
X167640000Y-144780000D03*
%TD*%
D11*
%TO.P,TP2,1,1*%
%TO.N,USONIC_TRIG*%
X118110000Y-63500000D03*
%TD*%
D19*
%TO.P,Q2,1,E*%
%TO.N,GND*%
X153349399Y-133958321D03*
D20*
%TO.P,Q2,2,B*%
%TO.N,Net-(Q2-B)*%
X153349399Y-132688321D03*
%TO.P,Q2,3,C*%
%TO.N,PIXELS_DATA_5V*%
X153349399Y-131418321D03*
%TD*%
D11*
%TO.P,TP7,1,1*%
%TO.N,SHIFT_REG_LOAD*%
X133350000Y-133350000D03*
%TD*%
D21*
%TO.P,R3,1*%
%TO.N,Net-(Q1-C)*%
X149539399Y-131418321D03*
%TO.P,R3,2*%
%TO.N,Net-(Q2-B)*%
X149539399Y-132613321D03*
%TD*%
D22*
%TO.P,GND1,1,1*%
%TO.N,GND*%
X166370000Y-149860000D03*
X168910000Y-149860000D03*
%TD*%
D11*
%TO.P,TP19,1,1*%
%TO.N,ENC2A*%
X158750000Y-86360000D03*
%TD*%
D23*
%TO.P,SW1,1,1*%
%TO.N,GND*%
X106395000Y-100330000D03*
%TO.P,SW1,2,2*%
%TO.N,Net-(A1-~{RESET}-Pad3)*%
X112045000Y-100330000D03*
%TD*%
D11*
%TO.P,TP6,1,1*%
%TO.N,BUMPER_DATA*%
X133350000Y-130810000D03*
%TD*%
%TO.P,TP1,1,1*%
%TO.N,USONIC_ECHO*%
X118110000Y-60960000D03*
%TD*%
%TO.P,TP5,1,1*%
%TO.N,NES_DATA*%
X133350000Y-128270000D03*
%TD*%
D12*
%TO.P,R7,1*%
%TO.N,Net-(J1-Pin_4)*%
X156807500Y-110490000D03*
%TO.P,R7,2*%
%TO.N,GND*%
X155612500Y-110490000D03*
%TD*%
D11*
%TO.P,TP4,1,1*%
%TO.N,PIXELS_DATA_5V*%
X156524399Y-131418321D03*
%TD*%
%TO.P,TP13,1,1*%
%TO.N,M1+*%
X149821974Y-86321974D03*
%TD*%
D15*
%TO.P,H2,1,1*%
%TO.N,GND*%
X114000000Y-130000000D03*
%TD*%
D21*
%TO.P,R4,1*%
%TO.N,+5V*%
X153349399Y-127645821D03*
%TO.P,R4,2*%
%TO.N,PIXELS_DATA_5V*%
X153349399Y-128840821D03*
%TD*%
D11*
%TO.P,TP14,1,1*%
%TO.N,M1-*%
X149821974Y-88861974D03*
%TD*%
D12*
%TO.P,R5,1*%
%TO.N,Net-(J1-Pin_2)*%
X156807500Y-105410000D03*
%TO.P,R5,2*%
%TO.N,GND*%
X155612500Y-105410000D03*
%TD*%
D11*
%TO.P,TP18,1,1*%
%TO.N,ENC1B*%
X118110000Y-80010000D03*
%TD*%
%TO.P,TP17,1,1*%
%TO.N,ENC1A*%
X118110000Y-82550000D03*
%TD*%
D18*
%TO.P,J1,1,Pin_1*%
%TO.N,+3.3V*%
X162560000Y-101600000D03*
D17*
%TO.P,J1,2,Pin_2*%
%TO.N,Net-(J1-Pin_2)*%
X162560000Y-104140000D03*
%TO.P,J1,3,Pin_3*%
%TO.N,Net-(J1-Pin_3)*%
X162560000Y-106680000D03*
%TO.P,J1,4,Pin_4*%
%TO.N,Net-(J1-Pin_4)*%
X162560000Y-109220000D03*
%TO.P,J1,5,Pin_5*%
%TO.N,Net-(J1-Pin_5)*%
X162560000Y-111760000D03*
%TO.P,J1,6,Pin_6*%
%TO.N,Net-(J1-Pin_6)*%
X162560000Y-114300000D03*
%TO.P,J1,7,Pin_7*%
%TO.N,Net-(J1-Pin_7)*%
X162560000Y-116840000D03*
%TO.P,J1,8,Pin_8*%
%TO.N,Net-(J1-Pin_8)*%
X162560000Y-119380000D03*
%TO.P,J1,9,Pin_9*%
%TO.N,Net-(J1-Pin_9)*%
X162560000Y-121920000D03*
%TD*%
D12*
%TO.P,R12,1*%
%TO.N,Net-(J1-Pin_9)*%
X156807500Y-120650000D03*
%TO.P,R12,2*%
%TO.N,GND*%
X155612500Y-120650000D03*
%TD*%
D11*
%TO.P,TP10,1,1*%
%TO.N,PWM1*%
X124421974Y-88861974D03*
%TD*%
D19*
%TO.P,Q1,1,E*%
%TO.N,GND*%
X146364399Y-133958321D03*
D20*
%TO.P,Q1,2,B*%
%TO.N,Net-(Q1-B)*%
X146364399Y-132688321D03*
%TO.P,Q1,3,C*%
%TO.N,Net-(Q1-C)*%
X146364399Y-131418321D03*
%TD*%
D18*
%TO.P,J10,1,Pin_1*%
%TO.N,D11*%
X109220000Y-139700000D03*
D17*
%TO.P,J10,2,Pin_2*%
%TO.N,D12*%
X109220000Y-142240000D03*
%TO.P,J10,3,Pin_3*%
%TO.N,D13*%
X109220000Y-144780000D03*
%TD*%
D21*
%TO.P,R2,1*%
%TO.N,+3.3V*%
X146364399Y-127645821D03*
%TO.P,R2,2*%
%TO.N,Net-(Q1-C)*%
X146364399Y-128840821D03*
%TD*%
D18*
%TO.P,J6,1,Pin_1*%
%TO.N,GND*%
X114865000Y-58430000D03*
D17*
%TO.P,J6,2,Pin_2*%
%TO.N,USONIC_ECHO*%
X114865000Y-60970000D03*
%TO.P,J6,3,Pin_3*%
%TO.N,USONIC_TRIG*%
X114865000Y-63510000D03*
%TO.P,J6,4,Pin_4*%
%TO.N,+5V*%
X114865000Y-66050000D03*
%TD*%
D24*
%TO.P,J7,1,Pin_1*%
%TO.N,GND*%
X148590000Y-144250000D03*
D10*
%TO.P,J7,2,Pin_2*%
%TO.N,unconnected-(J7-Pin_2-Pad2)*%
X151130000Y-144250000D03*
%TO.P,J7,3,Pin_3*%
%TO.N,unconnected-(J7-Pin_3-Pad3)*%
X153670000Y-144250000D03*
%TO.P,J7,4,Pin_4*%
%TO.N,unconnected-(J7-Pin_4-Pad4)*%
X156210000Y-144250000D03*
%TO.P,J7,5,Pin_5*%
%TO.N,+5V*%
X158750000Y-144250000D03*
%TD*%
D18*
%TO.P,J4,1,Pin_1*%
%TO.N,GND*%
X161995000Y-91440000D03*
D17*
%TO.P,J4,2,Pin_2*%
%TO.N,ENC2B*%
X161995000Y-88900000D03*
%TO.P,J4,3,Pin_3*%
%TO.N,ENC2A*%
X161995000Y-86360000D03*
%TO.P,J4,4,Pin_4*%
%TO.N,+3.3V*%
X161995000Y-83820000D03*
%TO.P,J4,5,Pin_5*%
%TO.N,M2-*%
X161995000Y-81280000D03*
%TO.P,J4,6,Pin_6*%
%TO.N,M2+*%
X161995000Y-78740000D03*
%TD*%
D18*
%TO.P,J5,1,Pin_1*%
%TO.N,GND*%
X168910000Y-128270000D03*
D17*
%TO.P,J5,2,Pin_2*%
%TO.N,PIXELS_DATA_5V*%
X168910000Y-130810000D03*
%TO.P,J5,3,Pin_3*%
%TO.N,+5V*%
X168910000Y-133350000D03*
%TD*%
D25*
%TO.P,J2,1,GND*%
%TO.N,GND*%
X118162569Y-132179026D03*
%TO.P,J2,2,Clock*%
%TO.N,SHIFT_REG_CLOCK*%
X122226569Y-132179026D03*
%TO.P,J2,3,Load*%
%TO.N,SHIFT_REG_LOAD*%
X126290569Y-132179026D03*
%TO.P,J2,4,Data*%
%TO.N,NES_DATA*%
X130354569Y-132179026D03*
%TO.P,J2,5,NC*%
%TO.N,unconnected-(J2-NC-Pad5)*%
X130354569Y-134790426D03*
%TO.P,J2,6,NC*%
%TO.N,unconnected-(J2-NC-Pad6)*%
X126290569Y-134790426D03*
%TO.P,J2,7,VCC*%
%TO.N,+3.3V*%
X122226569Y-134790426D03*
%TD*%
D18*
%TO.P,J3,1,Pin_1*%
%TO.N,GND*%
X114865000Y-77470000D03*
D17*
%TO.P,J3,2,Pin_2*%
%TO.N,ENC1B*%
X114865000Y-80010000D03*
%TO.P,J3,3,Pin_3*%
%TO.N,ENC1A*%
X114865000Y-82550000D03*
%TO.P,J3,4,Pin_4*%
%TO.N,+3.3V*%
X114865000Y-85090000D03*
%TO.P,J3,5,Pin_5*%
%TO.N,M1-*%
X114865000Y-87630000D03*
%TO.P,J3,6,Pin_6*%
%TO.N,M1+*%
X114865000Y-90170000D03*
%TD*%
D26*
%TO.N,GND*%
X123500000Y-103750000D03*
%TO.N,DIR1*%
X119310000Y-105762500D03*
%TO.N,PWM1*%
X118710000Y-103470000D03*
%TO.N,DIR2*%
X124460000Y-113030000D03*
%TO.N,PWM2*%
X118110000Y-104140000D03*
%TO.N,ENC2A*%
X133750000Y-112250000D03*
X137000000Y-112250000D03*
%TO.N,BUMPER_DATA*%
X142240000Y-117750000D03*
X149430000Y-110490000D03*
%TO.N,SHIFT_REG_CLOCK*%
X148594265Y-113004265D03*
%TO.N,GND*%
X161290000Y-120650000D03*
X116840000Y-121920000D03*
X129540000Y-129540000D03*
X129540000Y-127000000D03*
X156210000Y-115570000D03*
X161290000Y-115570000D03*
X124460000Y-116840000D03*
X119380000Y-121920000D03*
X146050000Y-116840000D03*
X130810000Y-120650000D03*
X118681485Y-127593482D03*
X156210000Y-118110000D03*
X121920000Y-128270000D03*
X153670000Y-110490000D03*
X128000000Y-112000000D03*
X114300000Y-115570000D03*
X161290000Y-118110000D03*
X156210000Y-96520000D03*
X121920000Y-113030000D03*
X120650000Y-96520000D03*
X124460000Y-128270000D03*
X110490000Y-115570000D03*
X114751229Y-122471527D03*
%TD*%
D27*
%TO.N,NES_DATA*%
X117410000Y-109930000D02*
X118110000Y-109230000D01*
X124630000Y-124354365D02*
X123645635Y-123370000D01*
X123645635Y-123370000D02*
X123370000Y-123370000D01*
X123370000Y-123370000D02*
X117410000Y-117410000D01*
X124630000Y-124925635D02*
X124630000Y-124354365D01*
X117410000Y-117410000D02*
X117410000Y-109930000D01*
X133350000Y-128270000D02*
X127974365Y-128270000D01*
X127974365Y-128270000D02*
X124630000Y-124925635D01*
D28*
%TO.N,I2C_SDA*%
X137860000Y-85660000D02*
X139700000Y-83820000D01*
X137860000Y-102952233D02*
X137860000Y-85660000D01*
X132060000Y-108752233D02*
X137860000Y-102952233D01*
X130810000Y-110997767D02*
X132060000Y-109747767D01*
X130810000Y-112027717D02*
X130810000Y-110997767D01*
X129540000Y-124967767D02*
X129540000Y-113297717D01*
X128777767Y-125730000D02*
X129540000Y-124967767D01*
X126990000Y-125730000D02*
X128777767Y-125730000D01*
X132060000Y-109747767D02*
X132060000Y-108752233D01*
X129540000Y-113297717D02*
X130810000Y-112027717D01*
X125730000Y-124470000D02*
X126990000Y-125730000D01*
D27*
%TO.N,SHIFT_REG_CLOCK*%
X149750000Y-108500000D02*
X149750000Y-106790000D01*
X149750000Y-106790000D02*
X151130000Y-105410000D01*
X148590000Y-109660000D02*
X149750000Y-108500000D01*
X148590000Y-113000000D02*
X148590000Y-109660000D01*
X148594265Y-113004265D02*
X148590000Y-113000000D01*
%TO.N,BUMPER_DATA*%
X136345635Y-125570000D02*
X131910000Y-125570000D01*
X131910000Y-125570000D02*
X130810000Y-124470000D01*
X142240000Y-117760000D02*
X137160000Y-122840000D01*
X137160000Y-124755635D02*
X136345635Y-125570000D01*
X142240000Y-117750000D02*
X142240000Y-117760000D01*
X137160000Y-122840000D02*
X137160000Y-124755635D01*
D28*
%TO.N,+5V*%
X147320000Y-97713948D02*
X146011974Y-99021974D01*
X147320000Y-90020445D02*
X147320000Y-97713948D01*
X151130000Y-85880000D02*
X151130000Y-86357451D01*
X149937037Y-87550414D02*
X149790031Y-87550414D01*
X147310788Y-82060788D02*
X151130000Y-85880000D01*
X151130000Y-86357451D02*
X149937037Y-87550414D01*
X133839212Y-82060788D02*
X147310788Y-82060788D01*
X132080000Y-83820000D02*
X133839212Y-82060788D01*
X149790031Y-87550414D02*
X147320000Y-90020445D01*
D27*
%TO.N,PWM1*%
X122790000Y-90493948D02*
X124421974Y-88861974D01*
X123600000Y-101190000D02*
X123600000Y-95165686D01*
X123600000Y-95165686D02*
X122790000Y-94355685D01*
X118980000Y-103740000D02*
X121050000Y-103740000D01*
X122790000Y-94355685D02*
X122790000Y-90493948D01*
X118710000Y-103470000D02*
X118980000Y-103740000D01*
X121050000Y-103740000D02*
X123600000Y-101190000D01*
%TO.N,PWM2*%
X124000000Y-95000000D02*
X123190000Y-94190000D01*
X123190000Y-94190000D02*
X123190000Y-92633948D01*
X124000000Y-101355686D02*
X124000000Y-95000000D01*
X121215686Y-104140000D02*
X124000000Y-101355686D01*
X123190000Y-92633948D02*
X124421974Y-91401974D01*
X118531472Y-104140000D02*
X121215686Y-104140000D01*
X118320736Y-103929264D02*
X118531472Y-104140000D01*
X118110000Y-104140000D02*
X118320736Y-103929264D01*
D28*
%TO.N,+5V*%
X167640000Y-144780000D02*
X159280000Y-144780000D01*
X159280000Y-144780000D02*
X158750000Y-144250000D01*
%TO.N,+3.3V*%
X165900000Y-140500000D02*
X167640000Y-142240000D01*
X147908974Y-140500000D02*
X165900000Y-140500000D01*
X140334399Y-132925425D02*
X147908974Y-140500000D01*
D27*
%TO.N,ENC2A*%
X137000000Y-112250000D02*
X133750000Y-112250000D01*
D28*
%TO.N,I2C_SCL*%
X137160000Y-102626116D02*
X137160000Y-83820000D01*
X130292233Y-107980000D02*
X131806116Y-107980000D01*
X129540000Y-112307767D02*
X129540000Y-108732233D01*
X128270000Y-113577767D02*
X129540000Y-112307767D01*
X131806116Y-107980000D02*
X137160000Y-102626116D01*
X128270000Y-124470000D02*
X128270000Y-113577767D01*
X129540000Y-108732233D02*
X130292233Y-107980000D01*
D27*
%TO.N,ENC1B*%
X118110000Y-80010000D02*
X114865000Y-80010000D01*
%TO.N,DIR1*%
X124421974Y-86321974D02*
X128231974Y-86321974D01*
X117861471Y-104740000D02*
X117510000Y-104388529D01*
X119310000Y-105762500D02*
X118287500Y-104740000D01*
X117510000Y-93233948D02*
X124421974Y-86321974D01*
X118287500Y-104740000D02*
X117861471Y-104740000D01*
X117510000Y-104388529D02*
X117510000Y-93233948D01*
%TO.N,PWM1*%
X128231974Y-88861974D02*
X124421974Y-88861974D01*
X124421974Y-88861974D02*
X124460000Y-88900000D01*
%TO.N,USONIC_ECHO*%
X116840000Y-60960000D02*
X116830000Y-60970000D01*
X116830000Y-60970000D02*
X114865000Y-60970000D01*
X118110000Y-60960000D02*
X116840000Y-60960000D01*
D28*
%TO.N,+3.3V*%
X116860000Y-87085000D02*
X114865000Y-85090000D01*
X111845227Y-125825227D02*
X110490000Y-124470000D01*
X116860000Y-118100000D02*
X116860000Y-87085000D01*
X122226569Y-134790426D02*
X119755569Y-132319426D01*
X122226569Y-134790426D02*
X124701656Y-137265513D01*
X140334399Y-130389818D02*
X140334399Y-132925425D01*
X119755569Y-131300796D02*
X114280000Y-125825227D01*
X124701656Y-137265513D02*
X135994311Y-137265513D01*
X135994311Y-137265513D02*
X140334399Y-132925425D01*
X114280000Y-125825227D02*
X111845227Y-125825227D01*
X119755569Y-132319426D02*
X119755569Y-131300796D01*
X143078396Y-127645821D02*
X140334399Y-130389818D01*
X110490000Y-124470000D02*
X116860000Y-118100000D01*
X146364399Y-127645821D02*
X143078396Y-127645821D01*
D27*
%TO.N,DIR2*%
X128231974Y-93941974D02*
X124421974Y-93941974D01*
X124421974Y-112991974D02*
X124460000Y-113030000D01*
X124421974Y-93941974D02*
X124421974Y-112991974D01*
%TO.N,USONIC_TRIG*%
X114875000Y-63500000D02*
X114865000Y-63510000D01*
X118110000Y-63500000D02*
X114875000Y-63500000D01*
%TO.N,PWM2*%
X124421974Y-91401974D02*
X128231974Y-91401974D01*
%TO.N,ENC2A*%
X158750000Y-86360000D02*
X161995000Y-86360000D01*
%TO.N,ENC2B*%
X161995000Y-88900000D02*
X158750000Y-88900000D01*
%TO.N,ENC1A*%
X114865000Y-82550000D02*
X118110000Y-82550000D01*
%TO.N,PIXELS_DATA_3.3V*%
X141284399Y-130783321D02*
X141284399Y-132650821D01*
X141284399Y-132650821D02*
X141321899Y-132688321D01*
%TO.N,NES_DATA*%
X133350000Y-129183595D02*
X130354569Y-132179026D01*
X133350000Y-128270000D02*
X133350000Y-129183595D01*
%TO.N,BUMPER_DATA*%
X149430000Y-110490000D02*
X149430000Y-109650000D01*
X149430000Y-109650000D02*
X151130000Y-107950000D01*
%TO.N,SHIFT_REG_LOAD*%
X123190000Y-129078457D02*
X126290569Y-132179026D01*
X123190000Y-124470000D02*
X123190000Y-129078457D01*
%TO.N,SHIFT_REG_CLOCK*%
X125692858Y-136233426D02*
X124460000Y-135000568D01*
X124460000Y-134412457D02*
X122226569Y-132179026D01*
X120650000Y-124470000D02*
X120650000Y-130602457D01*
X120650000Y-130602457D02*
X122226569Y-132179026D01*
X133006574Y-136233426D02*
X125692858Y-136233426D01*
X133350000Y-135890000D02*
X133006574Y-136233426D01*
X124460000Y-135000568D02*
X124460000Y-134412457D01*
%TO.N,Net-(J1-Pin_6)*%
X151130000Y-113030000D02*
X153072500Y-113030000D01*
%TO.N,Net-(J1-Pin_8)*%
X153072500Y-118110000D02*
X151130000Y-118110000D01*
D28*
%TO.N,+5V*%
X168910000Y-133350000D02*
X170210000Y-132050000D01*
X129540000Y-97713948D02*
X129540000Y-86360000D01*
X153349399Y-127645821D02*
X150173578Y-124470000D01*
X168970000Y-125730000D02*
X155265220Y-125730000D01*
X114865000Y-66050000D02*
X132080000Y-83265000D01*
X150173578Y-124470000D02*
X143510000Y-124470000D01*
X169760000Y-142660000D02*
X167640000Y-144780000D01*
X128231974Y-99021974D02*
X129540000Y-97713948D01*
X147320000Y-107950000D02*
X147320000Y-100330000D01*
X158810000Y-144780000D02*
X158750000Y-144840000D01*
X170210000Y-126970000D02*
X168970000Y-125730000D01*
X155265220Y-125730000D02*
X153349399Y-127645821D01*
X147320000Y-100330000D02*
X146011974Y-99021974D01*
X169760000Y-134200000D02*
X169760000Y-142660000D01*
X168910000Y-133350000D02*
X169760000Y-134200000D01*
X143510000Y-111760000D02*
X147320000Y-107950000D01*
X129540000Y-86360000D02*
X132080000Y-83820000D01*
X143510000Y-124470000D02*
X143510000Y-111760000D01*
X132080000Y-83265000D02*
X132080000Y-83820000D01*
X170210000Y-132050000D02*
X170210000Y-126970000D01*
D27*
%TO.N,Net-(J1-Pin_7)*%
X153072500Y-115570000D02*
X151130000Y-115570000D01*
%TO.N,Net-(J1-Pin_2)*%
X156807500Y-105410000D02*
X158750000Y-105410000D01*
X161290000Y-105410000D02*
X162560000Y-104140000D01*
X158750000Y-105410000D02*
X161290000Y-105410000D01*
%TO.N,Net-(J1-Pin_5)*%
X156807500Y-113030000D02*
X158750000Y-113030000D01*
X158750000Y-113030000D02*
X161290000Y-113030000D01*
X161290000Y-113030000D02*
X162560000Y-111760000D01*
%TO.N,Net-(J1-Pin_3)*%
X161290000Y-107950000D02*
X162560000Y-106680000D01*
X158750000Y-107950000D02*
X161290000Y-107950000D01*
X158750000Y-107950000D02*
X156807500Y-107950000D01*
%TO.N,Net-(J1-Pin_4)*%
X161290000Y-110490000D02*
X162560000Y-109220000D01*
X158750000Y-110490000D02*
X156807500Y-110490000D01*
X158750000Y-110490000D02*
X161290000Y-110490000D01*
%TO.N,GND*%
X154267500Y-118110000D02*
X154267500Y-119305000D01*
X154267500Y-119305000D02*
X155612500Y-120650000D01*
X155612500Y-113030000D02*
X155612500Y-110490000D01*
X155612500Y-105410000D02*
X155612500Y-107950000D01*
X154267500Y-115570000D02*
X154267500Y-113030000D01*
X154267500Y-113030000D02*
X155612500Y-113030000D01*
X154267500Y-115570000D02*
X154267500Y-118110000D01*
X155612500Y-107950000D02*
X155612500Y-110490000D01*
D28*
%TO.N,M1+*%
X146011974Y-86321974D02*
X149821974Y-86321974D01*
%TO.N,M2+*%
X161995000Y-79228948D02*
X161995000Y-78740000D01*
X149821974Y-91401974D02*
X161995000Y-79228948D01*
%TO.N,M2-*%
X161995000Y-81280000D02*
X149821974Y-93453026D01*
X149821974Y-93453026D02*
X149821974Y-93941974D01*
D27*
%TO.N,PIXELS_DATA_5V*%
X158106078Y-133000000D02*
X156524399Y-131418321D01*
X153349399Y-128840821D02*
X153349399Y-131418321D01*
X153349399Y-131418321D02*
X156524399Y-131418321D01*
X168910000Y-130810000D02*
X166720000Y-133000000D01*
X166720000Y-133000000D02*
X158106078Y-133000000D01*
%TO.N,Net-(Q1-B)*%
X146364399Y-132688321D02*
X142516899Y-132688321D01*
%TO.N,Net-(Q1-C)*%
X149539399Y-131418321D02*
X146364399Y-131418321D01*
X146364399Y-128840821D02*
X146364399Y-131418321D01*
%TO.N,Net-(Q2-B)*%
X149614399Y-132688321D02*
X149539399Y-132613321D01*
X153349399Y-132688321D02*
X149614399Y-132688321D01*
%TO.N,Net-(J1-Pin_9)*%
X162560000Y-121920000D02*
X161290000Y-121920000D01*
X160020000Y-120650000D02*
X158750000Y-120650000D01*
X161290000Y-121920000D02*
X160020000Y-120650000D01*
X156807500Y-120650000D02*
X158750000Y-120650000D01*
%TD*%
%TA.AperFunction,Conductor*%
%TO.N,GND*%
G36*
X148572759Y-132037775D02*
G01*
X148653541Y-132091751D01*
X148707517Y-132172533D01*
X148726471Y-132267821D01*
X148725449Y-132290355D01*
X148718900Y-132362423D01*
X148718899Y-132362445D01*
X148718899Y-132864205D01*
X148724648Y-132927466D01*
X148724947Y-132930754D01*
X148724948Y-132930756D01*
X148772665Y-133083890D01*
X148855642Y-133221151D01*
X148855644Y-133221153D01*
X148855646Y-133221156D01*
X148969064Y-133334574D01*
X148969066Y-133334575D01*
X148969068Y-133334577D01*
X149085515Y-133404971D01*
X149106330Y-133417554D01*
X149259466Y-133465273D01*
X149326018Y-133471321D01*
X149752779Y-133471320D01*
X149752783Y-133471320D01*
X149773256Y-133469459D01*
X149819332Y-133465273D01*
X149972468Y-133417554D01*
X149993283Y-133404971D01*
X150122625Y-133326782D01*
X150124402Y-133329721D01*
X150187199Y-133297965D01*
X150254059Y-133288821D01*
X152171484Y-133288821D01*
X152266772Y-133307775D01*
X152347550Y-133361748D01*
X152470681Y-133484879D01*
X152470684Y-133484881D01*
X152470686Y-133484883D01*
X152562353Y-133546132D01*
X152638643Y-133597107D01*
X152638645Y-133597107D01*
X152638647Y-133597109D01*
X152757737Y-133646438D01*
X152825272Y-133674412D01*
X153023396Y-133713821D01*
X153023398Y-133713821D01*
X153675400Y-133713821D01*
X153675402Y-133713821D01*
X153873526Y-133674412D01*
X154060155Y-133597107D01*
X154228117Y-133484879D01*
X154370957Y-133342039D01*
X154483185Y-133174077D01*
X154560490Y-132987448D01*
X154599899Y-132789324D01*
X154599899Y-132587318D01*
X154560490Y-132389194D01*
X154549684Y-132363107D01*
X154530731Y-132267822D01*
X154549685Y-132172534D01*
X154603661Y-132091752D01*
X154684442Y-132037775D01*
X154779730Y-132018821D01*
X155605159Y-132018821D01*
X155700447Y-132037775D01*
X155781229Y-132091751D01*
X155797631Y-132109849D01*
X155813516Y-132129204D01*
X155874217Y-132179020D01*
X155965862Y-132254232D01*
X156139665Y-132347132D01*
X156139669Y-132347133D01*
X156139672Y-132347135D01*
X156328267Y-132404345D01*
X156524399Y-132423662D01*
X156524401Y-132423662D01*
X156532893Y-132422825D01*
X156549301Y-132421209D01*
X156645987Y-132430729D01*
X156731671Y-132476525D01*
X156749782Y-132492939D01*
X157625556Y-133368713D01*
X157625558Y-133368716D01*
X157737362Y-133480520D01*
X157737364Y-133480521D01*
X157737365Y-133480522D01*
X157793194Y-133512754D01*
X157793197Y-133512757D01*
X157793198Y-133512757D01*
X157848585Y-133544734D01*
X157874293Y-133559577D01*
X158027021Y-133600501D01*
X158027022Y-133600501D01*
X158200396Y-133600501D01*
X158200412Y-133600500D01*
X166625666Y-133600500D01*
X166625682Y-133600501D01*
X166640943Y-133600501D01*
X166799056Y-133600501D01*
X166799057Y-133600501D01*
X166951785Y-133559577D01*
X167032879Y-133512757D01*
X167088716Y-133480520D01*
X167149801Y-133419434D01*
X167230579Y-133365460D01*
X167325867Y-133346505D01*
X167421156Y-133365458D01*
X167501937Y-133419434D01*
X167555914Y-133500215D01*
X167573921Y-133573801D01*
X167574937Y-133585408D01*
X167614948Y-133734733D01*
X167633895Y-133805447D01*
X167636097Y-133813663D01*
X167654491Y-133853108D01*
X167735965Y-134027830D01*
X167846654Y-134185911D01*
X167871505Y-134221401D01*
X168038599Y-134388495D01*
X168232170Y-134524035D01*
X168446337Y-134623903D01*
X168674592Y-134685063D01*
X168782204Y-134694478D01*
X168875475Y-134721664D01*
X168951245Y-134782476D01*
X168997975Y-134867654D01*
X169009500Y-134942530D01*
X169009500Y-141098465D01*
X168990546Y-141193753D01*
X168936570Y-141274535D01*
X168855788Y-141328511D01*
X168760500Y-141347465D01*
X168665212Y-141328511D01*
X168584433Y-141274537D01*
X168511401Y-141201505D01*
X168459386Y-141165084D01*
X168317830Y-141065965D01*
X168205994Y-141013815D01*
X168103663Y-140966097D01*
X168103660Y-140966096D01*
X167875401Y-140904935D01*
X167640005Y-140884341D01*
X167640004Y-140884341D01*
X167640001Y-140884341D01*
X167640000Y-140884341D01*
X167576349Y-140889909D01*
X167485052Y-140897897D01*
X167388474Y-140887319D01*
X167303296Y-140840588D01*
X167287281Y-140825914D01*
X167059232Y-140597865D01*
X166378416Y-139917048D01*
X166378412Y-139917045D01*
X166378410Y-139917043D01*
X166378411Y-139917043D01*
X166304732Y-139867815D01*
X166304729Y-139867812D01*
X166304729Y-139867813D01*
X166255495Y-139834916D01*
X166118913Y-139778342D01*
X166118911Y-139778341D01*
X165973920Y-139749500D01*
X165973918Y-139749500D01*
X148322982Y-139749500D01*
X148227694Y-139730546D01*
X148146912Y-139676570D01*
X142404232Y-133933890D01*
X142350256Y-133853108D01*
X142331302Y-133757820D01*
X142350256Y-133662532D01*
X142404232Y-133581750D01*
X142485014Y-133527774D01*
X142580300Y-133508820D01*
X142767779Y-133508820D01*
X142767784Y-133508820D01*
X142791547Y-133506660D01*
X142834332Y-133502773D01*
X142987468Y-133455054D01*
X143124734Y-133372074D01*
X143135059Y-133361748D01*
X143215838Y-133307775D01*
X143311126Y-133288821D01*
X145186484Y-133288821D01*
X145281772Y-133307775D01*
X145362550Y-133361748D01*
X145485681Y-133484879D01*
X145485684Y-133484881D01*
X145485686Y-133484883D01*
X145577353Y-133546132D01*
X145653643Y-133597107D01*
X145653645Y-133597107D01*
X145653647Y-133597109D01*
X145772737Y-133646438D01*
X145840272Y-133674412D01*
X146038396Y-133713821D01*
X146038398Y-133713821D01*
X146690400Y-133713821D01*
X146690402Y-133713821D01*
X146888526Y-133674412D01*
X147075155Y-133597107D01*
X147243117Y-133484879D01*
X147385957Y-133342039D01*
X147498185Y-133174077D01*
X147575490Y-132987448D01*
X147614899Y-132789324D01*
X147614899Y-132587318D01*
X147575490Y-132389194D01*
X147564684Y-132363107D01*
X147545731Y-132267822D01*
X147564685Y-132172534D01*
X147618661Y-132091752D01*
X147699442Y-132037775D01*
X147794730Y-132018821D01*
X148477471Y-132018821D01*
X148572759Y-132037775D01*
G37*
%TD.AperFunction*%
%TA.AperFunction,Conductor*%
G36*
X142618533Y-118542900D02*
G01*
X142696162Y-118601319D01*
X142745525Y-118684999D01*
X142759500Y-118767243D01*
X142759500Y-123279465D01*
X142740546Y-123374753D01*
X142686570Y-123455535D01*
X142671159Y-123469655D01*
X142509949Y-123630865D01*
X142379436Y-123817258D01*
X142379428Y-123817272D01*
X142283262Y-124023500D01*
X142283261Y-124023503D01*
X142224365Y-124243305D01*
X142224363Y-124243320D01*
X142204532Y-124469994D01*
X142204532Y-124470005D01*
X142224363Y-124696679D01*
X142224365Y-124696694D01*
X142283261Y-124916496D01*
X142283262Y-124916499D01*
X142379428Y-125122727D01*
X142379436Y-125122741D01*
X142509949Y-125309134D01*
X142509953Y-125309139D01*
X142670861Y-125470047D01*
X142670864Y-125470049D01*
X142670865Y-125470050D01*
X142857258Y-125600563D01*
X142857262Y-125600565D01*
X142857266Y-125600568D01*
X142857270Y-125600569D01*
X142857272Y-125600571D01*
X142981008Y-125658270D01*
X143063504Y-125696739D01*
X143283308Y-125755635D01*
X143285537Y-125755830D01*
X143509994Y-125775468D01*
X143510000Y-125775468D01*
X143510006Y-125775468D01*
X143689668Y-125759749D01*
X143736692Y-125755635D01*
X143956496Y-125696739D01*
X144162734Y-125600568D01*
X144349139Y-125470047D01*
X144510047Y-125309139D01*
X144510051Y-125309134D01*
X144517734Y-125301451D01*
X144518632Y-125302349D01*
X144585552Y-125248638D01*
X144678825Y-125221448D01*
X144700534Y-125220500D01*
X149759570Y-125220500D01*
X149854858Y-125239454D01*
X149935640Y-125293430D01*
X152464149Y-127821939D01*
X152518125Y-127902721D01*
X152529987Y-127950805D01*
X152532377Y-127950330D01*
X152534946Y-127963248D01*
X152534947Y-127963254D01*
X152534948Y-127963256D01*
X152582667Y-128116394D01*
X152588846Y-128130123D01*
X152587414Y-128130767D01*
X152614602Y-128205858D01*
X152610200Y-128302913D01*
X152588129Y-128356196D01*
X152588846Y-128356519D01*
X152582668Y-128370245D01*
X152534946Y-128523391D01*
X152528899Y-128589925D01*
X152528899Y-129091705D01*
X152534880Y-129157514D01*
X152534947Y-129158254D01*
X152534948Y-129158256D01*
X152582665Y-129311390D01*
X152665642Y-129448651D01*
X152665644Y-129448653D01*
X152665646Y-129448656D01*
X152675971Y-129458981D01*
X152729945Y-129539760D01*
X152748899Y-129635048D01*
X152748899Y-130302770D01*
X152729945Y-130398058D01*
X152675969Y-130478840D01*
X152638236Y-130509806D01*
X152470684Y-130621760D01*
X152327836Y-130764608D01*
X152215616Y-130932559D01*
X152215610Y-130932569D01*
X152138308Y-131119192D01*
X152138308Y-131119194D01*
X152098899Y-131317318D01*
X152098899Y-131519324D01*
X152138308Y-131717448D01*
X152149113Y-131743534D01*
X152168067Y-131838820D01*
X152149113Y-131934108D01*
X152095137Y-132014890D01*
X152014356Y-132068867D01*
X151919068Y-132087821D01*
X150582543Y-132087821D01*
X150487255Y-132068867D01*
X150406473Y-132014891D01*
X150352497Y-131934109D01*
X150333543Y-131838821D01*
X150344818Y-131764742D01*
X150352898Y-131738811D01*
X150353851Y-131735754D01*
X150359864Y-131669586D01*
X150359898Y-131669216D01*
X150359898Y-131669213D01*
X150359899Y-131669202D01*
X150359898Y-131167441D01*
X150353851Y-131100888D01*
X150306132Y-130947752D01*
X150306132Y-130947751D01*
X150223155Y-130810490D01*
X150223153Y-130810488D01*
X150223152Y-130810486D01*
X150109734Y-130697068D01*
X150109731Y-130697066D01*
X150109729Y-130697064D01*
X149972469Y-130614088D01*
X149870806Y-130582409D01*
X149819332Y-130566369D01*
X149819330Y-130566368D01*
X149819328Y-130566368D01*
X149752784Y-130560321D01*
X149326014Y-130560321D01*
X149259474Y-130566368D01*
X149259470Y-130566368D01*
X149259466Y-130566369D01*
X149259463Y-130566370D01*
X149106329Y-130614087D01*
X148969068Y-130697064D01*
X148969064Y-130697067D01*
X148969064Y-130697068D01*
X148921238Y-130744893D01*
X148840460Y-130798867D01*
X148745172Y-130817821D01*
X147542314Y-130817821D01*
X147447026Y-130798867D01*
X147366247Y-130744893D01*
X147243117Y-130621763D01*
X147231734Y-130614157D01*
X147075562Y-130509806D01*
X147006863Y-130441107D01*
X146969683Y-130351347D01*
X146964899Y-130302770D01*
X146964899Y-129635048D01*
X146983853Y-129539760D01*
X147037826Y-129458981D01*
X147048152Y-129448656D01*
X147131132Y-129311390D01*
X147178851Y-129158254D01*
X147184899Y-129091702D01*
X147184898Y-128589941D01*
X147178851Y-128523388D01*
X147131132Y-128370252D01*
X147131128Y-128370245D01*
X147124952Y-128356522D01*
X147126384Y-128355877D01*
X147099197Y-128280794D01*
X147103595Y-128183739D01*
X147125670Y-128130443D01*
X147124952Y-128130120D01*
X147131128Y-128116395D01*
X147131132Y-128116390D01*
X147178851Y-127963254D01*
X147184899Y-127896702D01*
X147184898Y-127394941D01*
X147178851Y-127328388D01*
X147131132Y-127175252D01*
X147131132Y-127175251D01*
X147048155Y-127037990D01*
X147048153Y-127037988D01*
X147048152Y-127037986D01*
X146934734Y-126924568D01*
X146934731Y-126924566D01*
X146934729Y-126924564D01*
X146797469Y-126841588D01*
X146711957Y-126814941D01*
X146644332Y-126793869D01*
X146644330Y-126793868D01*
X146644328Y-126793868D01*
X146577784Y-126787821D01*
X146151014Y-126787821D01*
X146084474Y-126793868D01*
X146084470Y-126793868D01*
X146084466Y-126793869D01*
X146084463Y-126793870D01*
X145931334Y-126841586D01*
X145931331Y-126841587D01*
X145931330Y-126841588D01*
X145901845Y-126859411D01*
X145810500Y-126892486D01*
X145773032Y-126895321D01*
X143004475Y-126895321D01*
X142859484Y-126924162D01*
X142722903Y-126980736D01*
X142722898Y-126980738D01*
X142673667Y-127013632D01*
X142673666Y-127013634D01*
X142637220Y-127037986D01*
X142599978Y-127062870D01*
X139751443Y-129911406D01*
X139709561Y-129974087D01*
X139709562Y-129974088D01*
X139669316Y-130034321D01*
X139669312Y-130034328D01*
X139612740Y-130170906D01*
X139583899Y-130315897D01*
X139583899Y-132511417D01*
X139564945Y-132606705D01*
X139510969Y-132687487D01*
X135756373Y-136442083D01*
X135675591Y-136496059D01*
X135580303Y-136515013D01*
X134541662Y-136515013D01*
X134446374Y-136496059D01*
X134365592Y-136442083D01*
X134311616Y-136361301D01*
X134292662Y-136266013D01*
X134303384Y-136193732D01*
X134336024Y-136086132D01*
X134355341Y-135890000D01*
X134336024Y-135693868D01*
X134278814Y-135505273D01*
X134278812Y-135505270D01*
X134278811Y-135505266D01*
X134185911Y-135331463D01*
X134060885Y-135179120D01*
X134060883Y-135179117D01*
X133993721Y-135123998D01*
X133908536Y-135054088D01*
X133734733Y-134961188D01*
X133734725Y-134961185D01*
X133546131Y-134903975D01*
X133350000Y-134884659D01*
X133153868Y-134903975D01*
X132965274Y-134961185D01*
X132965266Y-134961188D01*
X132791463Y-135054088D01*
X132639120Y-135179114D01*
X132639114Y-135179120D01*
X132514088Y-135331463D01*
X132423307Y-135501304D01*
X132361673Y-135576406D01*
X132275990Y-135622204D01*
X132203709Y-135632926D01*
X132156966Y-135632926D01*
X132061678Y-135613972D01*
X131980896Y-135559996D01*
X131926920Y-135479214D01*
X131907966Y-135383926D01*
X131920149Y-135306992D01*
X131922460Y-135299873D01*
X131922464Y-135299866D01*
X131982854Y-135048321D01*
X131994214Y-134903976D01*
X132003151Y-134790431D01*
X132003151Y-134790420D01*
X131982854Y-134532533D01*
X131940314Y-134355340D01*
X131922464Y-134280986D01*
X131823466Y-134041985D01*
X131688300Y-133821414D01*
X131681677Y-133813660D01*
X131538857Y-133646438D01*
X131491386Y-133561670D01*
X131479967Y-133465189D01*
X131506339Y-133371682D01*
X131520826Y-133350000D01*
X132344659Y-133350000D01*
X132363975Y-133546131D01*
X132421185Y-133734725D01*
X132421188Y-133734733D01*
X132514088Y-133908536D01*
X132533293Y-133931937D01*
X132639117Y-134060883D01*
X132674513Y-134089932D01*
X132791463Y-134185911D01*
X132965266Y-134278811D01*
X132965270Y-134278812D01*
X132965273Y-134278814D01*
X133153868Y-134336024D01*
X133350000Y-134355341D01*
X133546132Y-134336024D01*
X133734727Y-134278814D01*
X133759612Y-134265513D01*
X133908536Y-134185911D01*
X133908535Y-134185911D01*
X133908538Y-134185910D01*
X134060883Y-134060883D01*
X134185910Y-133908538D01*
X134278814Y-133734727D01*
X134336024Y-133546132D01*
X134355341Y-133350000D01*
X134336024Y-133153868D01*
X134278814Y-132965273D01*
X134278812Y-132965270D01*
X134278811Y-132965266D01*
X134185911Y-132791463D01*
X134116195Y-132706515D01*
X134060883Y-132639117D01*
X133993721Y-132583998D01*
X133908536Y-132514088D01*
X133734733Y-132421188D01*
X133734725Y-132421185D01*
X133546131Y-132363975D01*
X133350000Y-132344659D01*
X133153868Y-132363975D01*
X132965274Y-132421185D01*
X132965266Y-132421188D01*
X132791463Y-132514088D01*
X132639120Y-132639114D01*
X132639114Y-132639120D01*
X132514088Y-132791463D01*
X132421188Y-132965266D01*
X132421185Y-132965274D01*
X132363975Y-133153868D01*
X132344659Y-133350000D01*
X131520826Y-133350000D01*
X131538857Y-133323014D01*
X131560251Y-133297965D01*
X131688300Y-133148038D01*
X131823466Y-132927467D01*
X131922464Y-132688466D01*
X131982854Y-132436921D01*
X131997232Y-132254231D01*
X132003151Y-132179031D01*
X132003151Y-132179020D01*
X131982854Y-131921133D01*
X131978759Y-131904077D01*
X131922464Y-131669586D01*
X131922463Y-131669584D01*
X131919439Y-131660276D01*
X131921710Y-131659537D01*
X131905900Y-131580091D01*
X131924845Y-131484801D01*
X131978814Y-131404015D01*
X132102597Y-131280231D01*
X132183376Y-131226258D01*
X132278664Y-131207304D01*
X132373952Y-131226258D01*
X132454734Y-131280234D01*
X132498261Y-131338924D01*
X132514090Y-131368538D01*
X132639117Y-131520883D01*
X132711235Y-131580069D01*
X132791463Y-131645911D01*
X132965266Y-131738811D01*
X132965270Y-131738812D01*
X132965273Y-131738814D01*
X133153868Y-131796024D01*
X133350000Y-131815341D01*
X133546132Y-131796024D01*
X133734727Y-131738814D01*
X133735461Y-131738422D01*
X133908536Y-131645911D01*
X133908535Y-131645911D01*
X133908538Y-131645910D01*
X134060883Y-131520883D01*
X134185910Y-131368538D01*
X134264135Y-131222189D01*
X134278811Y-131194733D01*
X134278811Y-131194731D01*
X134278814Y-131194727D01*
X134336024Y-131006132D01*
X134355341Y-130810000D01*
X134336024Y-130613868D01*
X134278814Y-130425273D01*
X134278812Y-130425270D01*
X134278811Y-130425266D01*
X134185911Y-130251463D01*
X134119798Y-130170905D01*
X134060883Y-130099117D01*
X133908538Y-129974090D01*
X133908537Y-129974089D01*
X133878925Y-129958261D01*
X133803824Y-129896625D01*
X133758027Y-129810941D01*
X133748505Y-129714254D01*
X133776709Y-129621283D01*
X133820237Y-129562593D01*
X133830520Y-129552311D01*
X133880636Y-129465502D01*
X133880639Y-129465500D01*
X133880638Y-129465500D01*
X133887081Y-129454341D01*
X133909577Y-129415380D01*
X133950499Y-129262654D01*
X133950500Y-129262654D01*
X133950500Y-129189240D01*
X133969454Y-129093952D01*
X134023430Y-129013170D01*
X134041528Y-128996767D01*
X134060883Y-128980883D01*
X134185910Y-128828538D01*
X134278814Y-128654727D01*
X134336024Y-128466132D01*
X134355341Y-128270000D01*
X134336024Y-128073868D01*
X134278814Y-127885273D01*
X134278812Y-127885270D01*
X134278811Y-127885266D01*
X134185911Y-127711463D01*
X134091620Y-127596570D01*
X134060883Y-127559117D01*
X133908538Y-127434090D01*
X133908539Y-127434090D01*
X133908536Y-127434088D01*
X133734733Y-127341188D01*
X133734725Y-127341185D01*
X133546131Y-127283975D01*
X133350000Y-127264659D01*
X133153868Y-127283975D01*
X132965274Y-127341185D01*
X132965266Y-127341188D01*
X132791463Y-127434088D01*
X132639120Y-127559114D01*
X132639116Y-127559118D01*
X132635783Y-127563179D01*
X132623237Y-127578465D01*
X132548138Y-127640098D01*
X132455166Y-127668301D01*
X132430760Y-127669500D01*
X128326240Y-127669500D01*
X128230952Y-127650546D01*
X128150170Y-127596570D01*
X127459170Y-126905570D01*
X127405194Y-126824788D01*
X127386240Y-126729500D01*
X127405194Y-126634212D01*
X127459170Y-126553430D01*
X127539952Y-126499454D01*
X127635240Y-126480500D01*
X128851686Y-126480500D01*
X128851686Y-126480499D01*
X128996680Y-126451658D01*
X129082806Y-126415983D01*
X129133258Y-126395086D01*
X129133259Y-126395085D01*
X129133262Y-126395084D01*
X129182496Y-126362186D01*
X129256183Y-126312952D01*
X129905290Y-125663843D01*
X129986070Y-125609867D01*
X130081359Y-125590913D01*
X130176647Y-125609867D01*
X130186590Y-125614242D01*
X130363504Y-125696739D01*
X130583308Y-125755635D01*
X130585537Y-125755830D01*
X130809994Y-125775468D01*
X130810000Y-125775468D01*
X130810006Y-125775468D01*
X130989668Y-125759749D01*
X131036692Y-125755635D01*
X131063221Y-125748526D01*
X131160160Y-125742170D01*
X131252160Y-125773397D01*
X131303736Y-125812971D01*
X131429478Y-125938713D01*
X131429480Y-125938716D01*
X131541284Y-126050520D01*
X131628091Y-126100637D01*
X131628094Y-126100639D01*
X131678215Y-126129577D01*
X131830943Y-126170501D01*
X132004318Y-126170501D01*
X132004334Y-126170500D01*
X136251301Y-126170500D01*
X136251317Y-126170501D01*
X136266578Y-126170501D01*
X136424691Y-126170501D01*
X136424692Y-126170501D01*
X136577420Y-126129577D01*
X136627539Y-126100639D01*
X136714351Y-126050520D01*
X136826155Y-125938716D01*
X136826155Y-125938714D01*
X136846651Y-125918219D01*
X136846654Y-125918214D01*
X137269004Y-125495865D01*
X137349783Y-125441891D01*
X137445071Y-125422937D01*
X137540359Y-125441891D01*
X137587891Y-125467968D01*
X137777258Y-125600563D01*
X137777262Y-125600565D01*
X137777266Y-125600568D01*
X137777270Y-125600569D01*
X137777272Y-125600571D01*
X137901008Y-125658270D01*
X137983504Y-125696739D01*
X138203308Y-125755635D01*
X138205537Y-125755830D01*
X138429994Y-125775468D01*
X138430000Y-125775468D01*
X138430006Y-125775468D01*
X138609668Y-125759749D01*
X138656692Y-125755635D01*
X138876496Y-125696739D01*
X139082734Y-125600568D01*
X139269139Y-125470047D01*
X139430047Y-125309139D01*
X139560568Y-125122734D01*
X139656739Y-124916496D01*
X139715635Y-124696692D01*
X139735468Y-124470000D01*
X139735468Y-124469994D01*
X139715636Y-124243320D01*
X139715635Y-124243308D01*
X139656739Y-124023504D01*
X139567540Y-123832218D01*
X139560571Y-123817272D01*
X139560563Y-123817258D01*
X139430050Y-123630865D01*
X139430049Y-123630864D01*
X139430047Y-123630861D01*
X139269139Y-123469953D01*
X139269135Y-123469950D01*
X139269134Y-123469949D01*
X139082741Y-123339436D01*
X139082727Y-123339428D01*
X138876499Y-123243262D01*
X138876496Y-123243261D01*
X138656694Y-123184365D01*
X138656679Y-123184363D01*
X138430006Y-123164532D01*
X138430003Y-123164532D01*
X138430001Y-123164532D01*
X138430000Y-123164532D01*
X138393735Y-123167704D01*
X138294763Y-123176363D01*
X138198186Y-123165785D01*
X138113008Y-123119054D01*
X138052196Y-123043284D01*
X138025010Y-122950010D01*
X138035588Y-122853433D01*
X138082319Y-122768255D01*
X138096971Y-122752263D01*
X142238877Y-118610356D01*
X142319656Y-118556383D01*
X142387064Y-118538994D01*
X142419255Y-118535368D01*
X142428257Y-118532217D01*
X142524457Y-118518634D01*
X142618533Y-118542900D01*
G37*
%TD.AperFunction*%
%TA.AperFunction,Conductor*%
G36*
X124308717Y-125461935D02*
G01*
X124350997Y-125495867D01*
X127493843Y-128638713D01*
X127493845Y-128638716D01*
X127605649Y-128750520D01*
X127742581Y-128829577D01*
X127854384Y-128859534D01*
X127895307Y-128870500D01*
X127895308Y-128870500D01*
X132212719Y-128870500D01*
X132308007Y-128889454D01*
X132388789Y-128943430D01*
X132442765Y-129024212D01*
X132461719Y-129119500D01*
X132442765Y-129214788D01*
X132388789Y-129295570D01*
X131129595Y-130554763D01*
X131048813Y-130608739D01*
X130953525Y-130627693D01*
X130874057Y-130611894D01*
X130873322Y-130614157D01*
X130864012Y-130611132D01*
X130864009Y-130611131D01*
X130711812Y-130574592D01*
X130612461Y-130550740D01*
X130354574Y-130530444D01*
X130354564Y-130530444D01*
X130096676Y-130550740D01*
X129845129Y-130611130D01*
X129845127Y-130611131D01*
X129606128Y-130710129D01*
X129385558Y-130845293D01*
X129188847Y-131013299D01*
X129188842Y-131013304D01*
X129020836Y-131210015D01*
X128885672Y-131430585D01*
X128786674Y-131669584D01*
X128786673Y-131669586D01*
X128726283Y-131921133D01*
X128705987Y-132179020D01*
X128705987Y-132179031D01*
X128726283Y-132436918D01*
X128786673Y-132688465D01*
X128786674Y-132688467D01*
X128794150Y-132706515D01*
X128885672Y-132927467D01*
X128938268Y-133013296D01*
X129020836Y-133148036D01*
X129170281Y-133323014D01*
X129217752Y-133407782D01*
X129229171Y-133504263D01*
X129202799Y-133597770D01*
X129170281Y-133646438D01*
X129020836Y-133821415D01*
X128885672Y-134041985D01*
X128786674Y-134280984D01*
X128786673Y-134280986D01*
X128726283Y-134532533D01*
X128705987Y-134790420D01*
X128705987Y-134790431D01*
X128726283Y-135048318D01*
X128786674Y-135299867D01*
X128788989Y-135306992D01*
X128800403Y-135403474D01*
X128774027Y-135496980D01*
X128713876Y-135573275D01*
X128629106Y-135620743D01*
X128552172Y-135632926D01*
X128092966Y-135632926D01*
X127997678Y-135613972D01*
X127916896Y-135559996D01*
X127862920Y-135479214D01*
X127843966Y-135383926D01*
X127856149Y-135306992D01*
X127858460Y-135299873D01*
X127858464Y-135299866D01*
X127918854Y-135048321D01*
X127930214Y-134903976D01*
X127939151Y-134790431D01*
X127939151Y-134790420D01*
X127918854Y-134532533D01*
X127876314Y-134355340D01*
X127858464Y-134280986D01*
X127759466Y-134041985D01*
X127624300Y-133821414D01*
X127617677Y-133813660D01*
X127474857Y-133646438D01*
X127427386Y-133561670D01*
X127415967Y-133465189D01*
X127442339Y-133371682D01*
X127474857Y-133323014D01*
X127496251Y-133297965D01*
X127624300Y-133148038D01*
X127759466Y-132927467D01*
X127858464Y-132688466D01*
X127918854Y-132436921D01*
X127933232Y-132254231D01*
X127939151Y-132179031D01*
X127939151Y-132179020D01*
X127918854Y-131921133D01*
X127914759Y-131904077D01*
X127858464Y-131669586D01*
X127759466Y-131430585D01*
X127662028Y-131271581D01*
X127624301Y-131210015D01*
X127456295Y-131013304D01*
X127456290Y-131013299D01*
X127259579Y-130845293D01*
X127127912Y-130764608D01*
X127039010Y-130710129D01*
X126919509Y-130660630D01*
X126800010Y-130611131D01*
X126800008Y-130611130D01*
X126548461Y-130550740D01*
X126290574Y-130530444D01*
X126290564Y-130530444D01*
X126032676Y-130550740D01*
X125781130Y-130611130D01*
X125771820Y-130614156D01*
X125771084Y-130611891D01*
X125691570Y-130627694D01*
X125596285Y-130608724D01*
X125515542Y-130554764D01*
X123863430Y-128902651D01*
X123809454Y-128821869D01*
X123790500Y-128726581D01*
X123790500Y-125766764D01*
X123809454Y-125671476D01*
X123863430Y-125590694D01*
X123896681Y-125562794D01*
X124032109Y-125467968D01*
X124121037Y-125428840D01*
X124218168Y-125426721D01*
X124308717Y-125461935D01*
G37*
%TD.AperFunction*%
%TA.AperFunction,Conductor*%
G36*
X121973892Y-125114625D02*
G01*
X122062819Y-125153753D01*
X122123968Y-125214902D01*
X122147590Y-125248638D01*
X122185198Y-125302349D01*
X122189953Y-125309139D01*
X122350861Y-125470047D01*
X122350864Y-125470049D01*
X122483319Y-125562794D01*
X122550504Y-125632975D01*
X122585717Y-125723524D01*
X122589500Y-125766764D01*
X122589500Y-128984122D01*
X122589499Y-128984140D01*
X122589499Y-129157514D01*
X122630422Y-129310241D01*
X122631068Y-129311359D01*
X122631079Y-129311393D01*
X122631085Y-129311390D01*
X122709477Y-129447169D01*
X122709478Y-129447170D01*
X122709480Y-129447173D01*
X122821284Y-129558977D01*
X122821286Y-129558978D01*
X124666307Y-131403999D01*
X124720283Y-131484781D01*
X124739237Y-131580069D01*
X124723435Y-131659541D01*
X124725699Y-131660277D01*
X124722673Y-131669587D01*
X124662283Y-131921133D01*
X124641987Y-132179020D01*
X124641987Y-132179031D01*
X124662283Y-132436918D01*
X124722673Y-132688465D01*
X124722674Y-132688467D01*
X124730150Y-132706515D01*
X124821672Y-132927467D01*
X124874268Y-133013296D01*
X124956836Y-133148036D01*
X125106281Y-133323014D01*
X125153752Y-133407782D01*
X125165171Y-133504263D01*
X125138799Y-133597770D01*
X125106280Y-133646439D01*
X125021845Y-133745299D01*
X124945547Y-133805447D01*
X124852039Y-133831818D01*
X124755558Y-133820399D01*
X124670791Y-133772927D01*
X124656434Y-133759656D01*
X123850830Y-132954052D01*
X123796854Y-132873270D01*
X123777900Y-132777982D01*
X123793708Y-132698505D01*
X123791441Y-132697769D01*
X123794457Y-132688480D01*
X123794464Y-132688466D01*
X123854854Y-132436921D01*
X123869232Y-132254231D01*
X123875151Y-132179031D01*
X123875151Y-132179020D01*
X123854854Y-131921133D01*
X123850759Y-131904077D01*
X123794464Y-131669586D01*
X123695466Y-131430585D01*
X123598028Y-131271581D01*
X123560301Y-131210015D01*
X123392295Y-131013304D01*
X123392290Y-131013299D01*
X123195579Y-130845293D01*
X123063912Y-130764608D01*
X122975010Y-130710129D01*
X122855509Y-130660630D01*
X122736010Y-130611131D01*
X122736008Y-130611130D01*
X122484461Y-130550740D01*
X122226574Y-130530444D01*
X122226564Y-130530444D01*
X121968676Y-130550740D01*
X121717130Y-130611130D01*
X121707820Y-130614156D01*
X121707084Y-130611891D01*
X121627570Y-130627694D01*
X121532285Y-130608724D01*
X121451542Y-130554764D01*
X121323430Y-130426652D01*
X121269454Y-130345870D01*
X121250500Y-130250582D01*
X121250500Y-125766764D01*
X121269454Y-125671476D01*
X121323430Y-125590694D01*
X121356681Y-125562794D01*
X121489139Y-125470047D01*
X121650047Y-125309139D01*
X121716031Y-125214902D01*
X121786211Y-125147719D01*
X121876760Y-125112506D01*
X121973892Y-125114625D01*
G37*
%TD.AperFunction*%
%TA.AperFunction,Conductor*%
G36*
X168651280Y-126499454D02*
G01*
X168732062Y-126553430D01*
X169386570Y-127207938D01*
X169440546Y-127288720D01*
X169459500Y-127384008D01*
X169459500Y-129234595D01*
X169440546Y-129329883D01*
X169386570Y-129410665D01*
X169305788Y-129464641D01*
X169210500Y-129483595D01*
X169156175Y-129476443D01*
X169156108Y-129476824D01*
X169147390Y-129475286D01*
X169146058Y-129475111D01*
X169145408Y-129474937D01*
X169145407Y-129474936D01*
X169145404Y-129474936D01*
X169145401Y-129474935D01*
X168910005Y-129454341D01*
X168909995Y-129454341D01*
X168674598Y-129474935D01*
X168446335Y-129536097D01*
X168446333Y-129536098D01*
X168232177Y-129635961D01*
X168232169Y-129635965D01*
X168038600Y-129771504D01*
X167871504Y-129938600D01*
X167735965Y-130132169D01*
X167735961Y-130132177D01*
X167636098Y-130346333D01*
X167636097Y-130346335D01*
X167574935Y-130574598D01*
X167554341Y-130809994D01*
X167554341Y-130810005D01*
X167574935Y-131045401D01*
X167574936Y-131045404D01*
X167590649Y-131104046D01*
X167597003Y-131200993D01*
X167565773Y-131292991D01*
X167526203Y-131344559D01*
X166544195Y-132326569D01*
X166463413Y-132380546D01*
X166368125Y-132399500D01*
X158457953Y-132399500D01*
X158362665Y-132380546D01*
X158281883Y-132326570D01*
X157599017Y-131643704D01*
X157545041Y-131562922D01*
X157526087Y-131467634D01*
X157527287Y-131443222D01*
X157529740Y-131418322D01*
X157529740Y-131418321D01*
X157510423Y-131222189D01*
X157493814Y-131167436D01*
X157453213Y-131033594D01*
X157453211Y-131033591D01*
X157453210Y-131033587D01*
X157360310Y-130859784D01*
X157266019Y-130744891D01*
X157235282Y-130707438D01*
X157130884Y-130621760D01*
X157082935Y-130582409D01*
X156909132Y-130489509D01*
X156909124Y-130489506D01*
X156720530Y-130432296D01*
X156524399Y-130412980D01*
X156328267Y-130432296D01*
X156139673Y-130489506D01*
X156139665Y-130489509D01*
X155965862Y-130582409D01*
X155813519Y-130707435D01*
X155813515Y-130707439D01*
X155810182Y-130711500D01*
X155797636Y-130726786D01*
X155722537Y-130788419D01*
X155629565Y-130816622D01*
X155605159Y-130817821D01*
X154527314Y-130817821D01*
X154432026Y-130798867D01*
X154351247Y-130744893D01*
X154228117Y-130621763D01*
X154216734Y-130614157D01*
X154060562Y-130509806D01*
X153991863Y-130441107D01*
X153954683Y-130351347D01*
X153949899Y-130302770D01*
X153949899Y-129635048D01*
X153968853Y-129539760D01*
X154022826Y-129458981D01*
X154033152Y-129448656D01*
X154116132Y-129311390D01*
X154163851Y-129158254D01*
X154169899Y-129091702D01*
X154169898Y-128589941D01*
X154163851Y-128523388D01*
X154116132Y-128370252D01*
X154116128Y-128370245D01*
X154109952Y-128356522D01*
X154111384Y-128355877D01*
X154084197Y-128280794D01*
X154088595Y-128183739D01*
X154110670Y-128130443D01*
X154109952Y-128130120D01*
X154116128Y-128116395D01*
X154116132Y-128116390D01*
X154163851Y-127963254D01*
X154163851Y-127963251D01*
X154163852Y-127963249D01*
X154166422Y-127950330D01*
X154169976Y-127951037D01*
X154190117Y-127882526D01*
X154234649Y-127821938D01*
X155503159Y-126553430D01*
X155583940Y-126499454D01*
X155679228Y-126480500D01*
X168555992Y-126480500D01*
X168651280Y-126499454D01*
G37*
%TD.AperFunction*%
%TA.AperFunction,Conductor*%
G36*
X119433892Y-125114625D02*
G01*
X119522819Y-125153753D01*
X119583968Y-125214902D01*
X119607590Y-125248638D01*
X119645198Y-125302349D01*
X119649953Y-125309139D01*
X119810861Y-125470047D01*
X119810864Y-125470049D01*
X119943319Y-125562794D01*
X120010504Y-125632975D01*
X120045717Y-125723524D01*
X120049500Y-125766764D01*
X120049500Y-129932219D01*
X120030546Y-130027507D01*
X119976570Y-130108289D01*
X119895788Y-130162265D01*
X119800500Y-130181219D01*
X119705212Y-130162265D01*
X119624430Y-130108289D01*
X115687665Y-126171524D01*
X115633689Y-126090742D01*
X115614735Y-125995454D01*
X115633689Y-125900166D01*
X115687665Y-125819384D01*
X115768447Y-125765408D01*
X115799277Y-125754942D01*
X116016496Y-125696739D01*
X116222734Y-125600568D01*
X116409139Y-125470047D01*
X116570047Y-125309139D01*
X116636031Y-125214902D01*
X116706211Y-125147719D01*
X116796760Y-125112506D01*
X116893892Y-125114625D01*
X116982819Y-125153753D01*
X117043968Y-125214902D01*
X117067590Y-125248638D01*
X117105198Y-125302349D01*
X117109953Y-125309139D01*
X117270861Y-125470047D01*
X117270864Y-125470049D01*
X117270865Y-125470050D01*
X117457258Y-125600563D01*
X117457262Y-125600565D01*
X117457266Y-125600568D01*
X117457270Y-125600569D01*
X117457272Y-125600571D01*
X117581008Y-125658270D01*
X117663504Y-125696739D01*
X117883308Y-125755635D01*
X117885537Y-125755830D01*
X118109994Y-125775468D01*
X118110000Y-125775468D01*
X118110006Y-125775468D01*
X118289668Y-125759749D01*
X118336692Y-125755635D01*
X118556496Y-125696739D01*
X118762734Y-125600568D01*
X118949139Y-125470047D01*
X119110047Y-125309139D01*
X119176031Y-125214902D01*
X119246211Y-125147719D01*
X119336760Y-125112506D01*
X119433892Y-125114625D01*
G37*
%TD.AperFunction*%
%TA.AperFunction,Conductor*%
G36*
X117681353Y-118557394D02*
G01*
X117762135Y-118611370D01*
X122309720Y-123158955D01*
X122363696Y-123239737D01*
X122382650Y-123335025D01*
X122363696Y-123430313D01*
X122309722Y-123511091D01*
X122202842Y-123617972D01*
X122189949Y-123630865D01*
X122123969Y-123725096D01*
X122053788Y-123792280D01*
X121963239Y-123827493D01*
X121866107Y-123825374D01*
X121777180Y-123786245D01*
X121716031Y-123725096D01*
X121650050Y-123630865D01*
X121650049Y-123630864D01*
X121650047Y-123630861D01*
X121489139Y-123469953D01*
X121489135Y-123469950D01*
X121489134Y-123469949D01*
X121302741Y-123339436D01*
X121302727Y-123339428D01*
X121096499Y-123243262D01*
X121096496Y-123243261D01*
X120876694Y-123184365D01*
X120876679Y-123184363D01*
X120650006Y-123164532D01*
X120649994Y-123164532D01*
X120423320Y-123184363D01*
X120423305Y-123184365D01*
X120203503Y-123243261D01*
X120203500Y-123243262D01*
X119997272Y-123339428D01*
X119997258Y-123339436D01*
X119810865Y-123469949D01*
X119649949Y-123630865D01*
X119583969Y-123725096D01*
X119513788Y-123792280D01*
X119423239Y-123827493D01*
X119326107Y-123825374D01*
X119237180Y-123786245D01*
X119176031Y-123725096D01*
X119110050Y-123630865D01*
X119110049Y-123630864D01*
X119110047Y-123630861D01*
X118949139Y-123469953D01*
X118949135Y-123469950D01*
X118949134Y-123469949D01*
X118762741Y-123339436D01*
X118762727Y-123339428D01*
X118556499Y-123243262D01*
X118556496Y-123243261D01*
X118336694Y-123184365D01*
X118336679Y-123184363D01*
X118110006Y-123164532D01*
X118109994Y-123164532D01*
X117883320Y-123184363D01*
X117883305Y-123184365D01*
X117663503Y-123243261D01*
X117663500Y-123243262D01*
X117457272Y-123339428D01*
X117457258Y-123339436D01*
X117270865Y-123469949D01*
X117109949Y-123630865D01*
X117043969Y-123725096D01*
X116973788Y-123792280D01*
X116883239Y-123827493D01*
X116786107Y-123825374D01*
X116697180Y-123786245D01*
X116636031Y-123725096D01*
X116570050Y-123630865D01*
X116570049Y-123630864D01*
X116570047Y-123630861D01*
X116409139Y-123469953D01*
X116409135Y-123469950D01*
X116409134Y-123469949D01*
X116222741Y-123339436D01*
X116222727Y-123339428D01*
X116016499Y-123243262D01*
X116016496Y-123243261D01*
X115796694Y-123184365D01*
X115796679Y-123184363D01*
X115570006Y-123164532D01*
X115569994Y-123164532D01*
X115343320Y-123184363D01*
X115343305Y-123184365D01*
X115123503Y-123243261D01*
X115123500Y-123243262D01*
X114917272Y-123339428D01*
X114917258Y-123339436D01*
X114730865Y-123469949D01*
X114569949Y-123630865D01*
X114503969Y-123725096D01*
X114433788Y-123792280D01*
X114343239Y-123827493D01*
X114246107Y-123825374D01*
X114157180Y-123786245D01*
X114096031Y-123725096D01*
X114030050Y-123630865D01*
X114030049Y-123630864D01*
X114030047Y-123630861D01*
X113869139Y-123469953D01*
X113869135Y-123469950D01*
X113869134Y-123469949D01*
X113682741Y-123339436D01*
X113682727Y-123339428D01*
X113476499Y-123243262D01*
X113476496Y-123243261D01*
X113346978Y-123208557D01*
X113342278Y-123207297D01*
X113255143Y-123164327D01*
X113191084Y-123091282D01*
X113159854Y-122999284D01*
X113166208Y-122902337D01*
X113209179Y-122815201D01*
X113230646Y-122790720D01*
X117410001Y-118611365D01*
X117490777Y-118557394D01*
X117586065Y-118538440D01*
X117681353Y-118557394D01*
G37*
%TD.AperFunction*%
%TA.AperFunction,Conductor*%
G36*
X127053892Y-109874625D02*
G01*
X127142819Y-109913753D01*
X127203970Y-109974904D01*
X127261403Y-110056929D01*
X127269953Y-110069139D01*
X127430861Y-110230047D01*
X127430864Y-110230049D01*
X127430865Y-110230050D01*
X127617258Y-110360563D01*
X127617262Y-110360565D01*
X127617266Y-110360568D01*
X127617270Y-110360569D01*
X127617272Y-110360571D01*
X127638524Y-110370481D01*
X127823504Y-110456739D01*
X128043308Y-110515635D01*
X128044760Y-110515762D01*
X128269994Y-110535468D01*
X128270000Y-110535468D01*
X128270006Y-110535468D01*
X128496683Y-110515636D01*
X128496685Y-110515635D01*
X128496692Y-110515635D01*
X128496698Y-110515633D01*
X128497246Y-110515537D01*
X128497704Y-110515546D01*
X128507522Y-110514688D01*
X128507616Y-110515762D01*
X128594378Y-110517650D01*
X128683308Y-110556773D01*
X128750496Y-110626950D01*
X128785714Y-110717497D01*
X128789500Y-110760751D01*
X128789500Y-111893759D01*
X128770546Y-111989047D01*
X128716570Y-112069829D01*
X127687048Y-113099351D01*
X127645802Y-113161082D01*
X127645801Y-113161083D01*
X127604917Y-113222270D01*
X127604915Y-113222274D01*
X127548341Y-113358855D01*
X127519500Y-113503846D01*
X127519500Y-123279465D01*
X127500546Y-123374753D01*
X127446570Y-123455535D01*
X127431159Y-123469655D01*
X127269949Y-123630865D01*
X127203969Y-123725096D01*
X127133788Y-123792280D01*
X127043239Y-123827493D01*
X126946107Y-123825374D01*
X126857180Y-123786245D01*
X126796031Y-123725096D01*
X126730050Y-123630865D01*
X126730049Y-123630864D01*
X126730047Y-123630861D01*
X126569139Y-123469953D01*
X126569135Y-123469950D01*
X126569134Y-123469949D01*
X126382741Y-123339436D01*
X126382727Y-123339428D01*
X126176499Y-123243262D01*
X126176496Y-123243261D01*
X125956694Y-123184365D01*
X125956679Y-123184363D01*
X125730006Y-123164532D01*
X125729994Y-123164532D01*
X125503320Y-123184363D01*
X125503305Y-123184365D01*
X125283503Y-123243261D01*
X125283500Y-123243262D01*
X125077272Y-123339428D01*
X125077266Y-123339431D01*
X124887892Y-123472032D01*
X124798964Y-123511160D01*
X124701832Y-123513279D01*
X124611283Y-123478066D01*
X124569002Y-123444132D01*
X124126156Y-123001286D01*
X124126155Y-123001284D01*
X124014351Y-122889480D01*
X123927541Y-122839361D01*
X123927538Y-122839358D01*
X123877419Y-122810422D01*
X123877416Y-122810421D01*
X123724692Y-122769499D01*
X123721874Y-122769499D01*
X123716355Y-122768401D01*
X123708508Y-122767368D01*
X123708575Y-122766853D01*
X123626586Y-122750545D01*
X123545804Y-122696569D01*
X118083430Y-117234195D01*
X118029454Y-117153413D01*
X118010500Y-117058125D01*
X118010500Y-110772339D01*
X118029454Y-110677051D01*
X118083430Y-110596269D01*
X118164212Y-110542293D01*
X118237794Y-110524287D01*
X118336692Y-110515635D01*
X118556496Y-110456739D01*
X118762734Y-110360568D01*
X118949139Y-110230047D01*
X119110047Y-110069139D01*
X119176031Y-109974902D01*
X119246211Y-109907719D01*
X119336760Y-109872506D01*
X119433892Y-109874625D01*
X119522819Y-109913753D01*
X119583970Y-109974904D01*
X119641403Y-110056929D01*
X119649953Y-110069139D01*
X119810861Y-110230047D01*
X119810864Y-110230049D01*
X119810865Y-110230050D01*
X119997258Y-110360563D01*
X119997262Y-110360565D01*
X119997266Y-110360568D01*
X119997270Y-110360569D01*
X119997272Y-110360571D01*
X120018524Y-110370481D01*
X120203504Y-110456739D01*
X120423308Y-110515635D01*
X120424760Y-110515762D01*
X120649994Y-110535468D01*
X120650000Y-110535468D01*
X120650006Y-110535468D01*
X120853660Y-110517650D01*
X120876692Y-110515635D01*
X121096496Y-110456739D01*
X121302734Y-110360568D01*
X121489139Y-110230047D01*
X121650047Y-110069139D01*
X121716031Y-109974902D01*
X121786211Y-109907719D01*
X121876760Y-109872506D01*
X121973892Y-109874625D01*
X122062819Y-109913753D01*
X122123970Y-109974904D01*
X122181403Y-110056929D01*
X122189953Y-110069139D01*
X122350861Y-110230047D01*
X122350864Y-110230049D01*
X122350865Y-110230050D01*
X122537258Y-110360563D01*
X122537262Y-110360565D01*
X122537266Y-110360568D01*
X122537270Y-110360569D01*
X122537272Y-110360571D01*
X122558524Y-110370481D01*
X122743504Y-110456739D01*
X122963308Y-110515635D01*
X122964760Y-110515762D01*
X123189994Y-110535468D01*
X123190000Y-110535468D01*
X123190006Y-110535468D01*
X123393660Y-110517650D01*
X123416692Y-110515635D01*
X123508031Y-110491160D01*
X123604975Y-110484807D01*
X123696974Y-110516037D01*
X123770019Y-110580096D01*
X123812990Y-110667231D01*
X123821474Y-110731677D01*
X123821474Y-112469863D01*
X123802520Y-112565151D01*
X123783310Y-112602336D01*
X123734211Y-112680478D01*
X123734211Y-112680479D01*
X123734207Y-112680486D01*
X123674632Y-112850743D01*
X123674630Y-112850754D01*
X123654435Y-113029996D01*
X123654435Y-113030003D01*
X123674630Y-113209245D01*
X123674631Y-113209251D01*
X123674632Y-113209255D01*
X123734211Y-113379522D01*
X123734212Y-113379523D01*
X123734214Y-113379529D01*
X123830180Y-113532257D01*
X123830182Y-113532259D01*
X123830184Y-113532262D01*
X123957738Y-113659816D01*
X123957740Y-113659817D01*
X123957742Y-113659819D01*
X124110470Y-113755785D01*
X124110473Y-113755786D01*
X124110478Y-113755789D01*
X124280745Y-113815368D01*
X124280754Y-113815369D01*
X124459996Y-113835565D01*
X124460000Y-113835565D01*
X124460004Y-113835565D01*
X124599908Y-113819801D01*
X124639255Y-113815368D01*
X124809522Y-113755789D01*
X124809527Y-113755785D01*
X124809529Y-113755785D01*
X124962257Y-113659819D01*
X124962256Y-113659819D01*
X124962262Y-113659816D01*
X125089816Y-113532262D01*
X125185789Y-113379522D01*
X125245368Y-113209255D01*
X125253085Y-113140765D01*
X125265565Y-113030003D01*
X125265565Y-113029996D01*
X125245369Y-112850754D01*
X125245368Y-112850745D01*
X125185789Y-112680478D01*
X125185786Y-112680473D01*
X125185785Y-112680470D01*
X125089817Y-112527738D01*
X125081099Y-112516807D01*
X125083228Y-112515108D01*
X125041417Y-112452517D01*
X125022474Y-112357256D01*
X125022474Y-110711299D01*
X125041428Y-110616011D01*
X125095404Y-110535229D01*
X125176186Y-110481253D01*
X125271474Y-110462299D01*
X125335914Y-110470782D01*
X125503308Y-110515635D01*
X125504760Y-110515762D01*
X125729994Y-110535468D01*
X125730000Y-110535468D01*
X125730006Y-110535468D01*
X125933660Y-110517650D01*
X125956692Y-110515635D01*
X126176496Y-110456739D01*
X126382734Y-110360568D01*
X126569139Y-110230047D01*
X126730047Y-110069139D01*
X126796031Y-109974902D01*
X126866211Y-109907719D01*
X126956760Y-109872506D01*
X127053892Y-109874625D01*
G37*
%TD.AperFunction*%
%TA.AperFunction,Conductor*%
G36*
X141055699Y-84625853D02*
G01*
X141138642Y-84676445D01*
X141153185Y-84690988D01*
X141295692Y-84845792D01*
X141477411Y-84987229D01*
X141679931Y-85096828D01*
X141729445Y-85113826D01*
X141897721Y-85171596D01*
X141897726Y-85171597D01*
X141897729Y-85171598D01*
X142124863Y-85209500D01*
X142355137Y-85209500D01*
X142582271Y-85171598D01*
X142582275Y-85171596D01*
X142582278Y-85171596D01*
X142694004Y-85133240D01*
X142800069Y-85096828D01*
X143002589Y-84987229D01*
X143184308Y-84845792D01*
X143251370Y-84772942D01*
X143329847Y-84715676D01*
X143424271Y-84692800D01*
X143520261Y-84707799D01*
X143603204Y-84758390D01*
X143617758Y-84772944D01*
X143760248Y-84927730D01*
X143760252Y-84927733D01*
X143760256Y-84927738D01*
X143760260Y-84927741D01*
X143760261Y-84927742D01*
X143956485Y-85080470D01*
X143956487Y-85080471D01*
X143956491Y-85080474D01*
X144175190Y-85198828D01*
X144224319Y-85215694D01*
X144410378Y-85279569D01*
X144410382Y-85279569D01*
X144410386Y-85279571D01*
X144641661Y-85318163D01*
X144732530Y-85352542D01*
X144803326Y-85419078D01*
X144843270Y-85507642D01*
X144846282Y-85604750D01*
X144826349Y-85668999D01*
X144738070Y-85858313D01*
X144676909Y-86086572D01*
X144656315Y-86321968D01*
X144656315Y-86321979D01*
X144676909Y-86557375D01*
X144730826Y-86758600D01*
X144738071Y-86785637D01*
X144810718Y-86941428D01*
X144837939Y-86999804D01*
X144948628Y-87157885D01*
X144973479Y-87193375D01*
X145140573Y-87360469D01*
X145179899Y-87388005D01*
X145247081Y-87458183D01*
X145282295Y-87548732D01*
X145280176Y-87645864D01*
X145241048Y-87734792D01*
X145179902Y-87795939D01*
X145140577Y-87823475D01*
X144973478Y-87990574D01*
X144837939Y-88184143D01*
X144837935Y-88184151D01*
X144738072Y-88398307D01*
X144738071Y-88398309D01*
X144676909Y-88626572D01*
X144656315Y-88861968D01*
X144656315Y-88861979D01*
X144676909Y-89097375D01*
X144730826Y-89298600D01*
X144738071Y-89325637D01*
X144810718Y-89481428D01*
X144837939Y-89539804D01*
X144948628Y-89697885D01*
X144973479Y-89733375D01*
X145140573Y-89900469D01*
X145179899Y-89928005D01*
X145247081Y-89998183D01*
X145282295Y-90088732D01*
X145280176Y-90185864D01*
X145241048Y-90274792D01*
X145179902Y-90335939D01*
X145140577Y-90363475D01*
X144973478Y-90530574D01*
X144837939Y-90724143D01*
X144837935Y-90724151D01*
X144738072Y-90938307D01*
X144738071Y-90938309D01*
X144676909Y-91166572D01*
X144656315Y-91401968D01*
X144656315Y-91401979D01*
X144676909Y-91637375D01*
X144736330Y-91859142D01*
X144738071Y-91865637D01*
X144810718Y-92021428D01*
X144837939Y-92079804D01*
X144948628Y-92237885D01*
X144973479Y-92273375D01*
X145140573Y-92440469D01*
X145179899Y-92468005D01*
X145247081Y-92538183D01*
X145282295Y-92628732D01*
X145280176Y-92725864D01*
X145241048Y-92814792D01*
X145179902Y-92875939D01*
X145140577Y-92903475D01*
X144973478Y-93070574D01*
X144837939Y-93264143D01*
X144837935Y-93264151D01*
X144738072Y-93478307D01*
X144738071Y-93478309D01*
X144676909Y-93706572D01*
X144656315Y-93941968D01*
X144656315Y-93941979D01*
X144676909Y-94177375D01*
X144703503Y-94276628D01*
X144738071Y-94405637D01*
X144810718Y-94561428D01*
X144837939Y-94619804D01*
X144948628Y-94777885D01*
X144973479Y-94813375D01*
X145140573Y-94980469D01*
X145334144Y-95116009D01*
X145548311Y-95215877D01*
X145776566Y-95277037D01*
X145776569Y-95277037D01*
X145776572Y-95277038D01*
X146011969Y-95297633D01*
X146011974Y-95297633D01*
X146011979Y-95297633D01*
X146247375Y-95277038D01*
X146247377Y-95277037D01*
X146247382Y-95277037D01*
X146256052Y-95274713D01*
X146352997Y-95268358D01*
X146444996Y-95299586D01*
X146518042Y-95363643D01*
X146561014Y-95450778D01*
X146569500Y-95515228D01*
X146569500Y-97299940D01*
X146550546Y-97395228D01*
X146496570Y-97476010D01*
X146496569Y-97476010D01*
X146364690Y-97607888D01*
X146283908Y-97661864D01*
X146188620Y-97680818D01*
X146166920Y-97679871D01*
X146092078Y-97673323D01*
X146011974Y-97666315D01*
X146011972Y-97666315D01*
X146011970Y-97666315D01*
X146011969Y-97666315D01*
X145776572Y-97686909D01*
X145548309Y-97748071D01*
X145548307Y-97748072D01*
X145334151Y-97847935D01*
X145334143Y-97847939D01*
X145140574Y-97983478D01*
X145140573Y-97983479D01*
X144973479Y-98150573D01*
X144944217Y-98192364D01*
X144837939Y-98344143D01*
X144837935Y-98344151D01*
X144738072Y-98558307D01*
X144738071Y-98558309D01*
X144676909Y-98786572D01*
X144656315Y-99021968D01*
X144656315Y-99021979D01*
X144676909Y-99257375D01*
X144738070Y-99485634D01*
X144837939Y-99699804D01*
X144944216Y-99851584D01*
X144973479Y-99893375D01*
X145140573Y-100060469D01*
X145334144Y-100196009D01*
X145548311Y-100295877D01*
X145776566Y-100357037D01*
X145776569Y-100357037D01*
X145776572Y-100357038D01*
X146011969Y-100377633D01*
X146011974Y-100377633D01*
X146011979Y-100377633D01*
X146166920Y-100364077D01*
X146263497Y-100374653D01*
X146348676Y-100421383D01*
X146364692Y-100436059D01*
X146496570Y-100567937D01*
X146550546Y-100648719D01*
X146569500Y-100744007D01*
X146569500Y-102722369D01*
X146550546Y-102817657D01*
X146496570Y-102898439D01*
X146415788Y-102952415D01*
X146320500Y-102971369D01*
X146225212Y-102952415D01*
X146151138Y-102904900D01*
X146057111Y-102817657D01*
X146002487Y-102766973D01*
X146002483Y-102766970D01*
X145785715Y-102619179D01*
X145785710Y-102619177D01*
X145549339Y-102505346D01*
X145549334Y-102505344D01*
X145549331Y-102505343D01*
X145298623Y-102428010D01*
X145039190Y-102388906D01*
X144776826Y-102388906D01*
X144569279Y-102420189D01*
X144517392Y-102428010D01*
X144372115Y-102472822D01*
X144266685Y-102505343D01*
X144266683Y-102505343D01*
X144266676Y-102505346D01*
X144030305Y-102619177D01*
X144030300Y-102619179D01*
X143813528Y-102766973D01*
X143621213Y-102945414D01*
X143621202Y-102945425D01*
X143457620Y-103150550D01*
X143326444Y-103377754D01*
X143326436Y-103377770D01*
X143230586Y-103621993D01*
X143172206Y-103877776D01*
X143172205Y-103877780D01*
X143152600Y-104139406D01*
X143172205Y-104401031D01*
X143172205Y-104401034D01*
X143172206Y-104401036D01*
X143174241Y-104409950D01*
X143230586Y-104656818D01*
X143326436Y-104901041D01*
X143326444Y-104901057D01*
X143457620Y-105128261D01*
X143621202Y-105333386D01*
X143621213Y-105333397D01*
X143706982Y-105412978D01*
X143813529Y-105511839D01*
X143860391Y-105543789D01*
X144030300Y-105659632D01*
X144030302Y-105659633D01*
X144030304Y-105659634D01*
X144093202Y-105689924D01*
X144266676Y-105773465D01*
X144266677Y-105773465D01*
X144266685Y-105773469D01*
X144517393Y-105850802D01*
X144776826Y-105889906D01*
X144776830Y-105889906D01*
X145039186Y-105889906D01*
X145039190Y-105889906D01*
X145298623Y-105850802D01*
X145549331Y-105773469D01*
X145785712Y-105659634D01*
X146002487Y-105511839D01*
X146151137Y-105373911D01*
X146233880Y-105322994D01*
X146329811Y-105307616D01*
X146424324Y-105330120D01*
X146503030Y-105387079D01*
X146553948Y-105469822D01*
X146569500Y-105556442D01*
X146569500Y-107535991D01*
X146550546Y-107631279D01*
X146496570Y-107712061D01*
X145235569Y-108973062D01*
X145154787Y-109027038D01*
X145059499Y-109045992D01*
X144964211Y-109027038D01*
X144883429Y-108973062D01*
X144829453Y-108892280D01*
X144810499Y-108796992D01*
X144810499Y-108382134D01*
X144810499Y-108382128D01*
X144804091Y-108322517D01*
X144753796Y-108187669D01*
X144667546Y-108072454D01*
X144552331Y-107986204D01*
X144462443Y-107952678D01*
X144417481Y-107935908D01*
X144357873Y-107929500D01*
X142662134Y-107929500D01*
X142662130Y-107929500D01*
X142662128Y-107929501D01*
X142649314Y-107930878D01*
X142602519Y-107935908D01*
X142602515Y-107935909D01*
X142467670Y-107986203D01*
X142352455Y-108072453D01*
X142352453Y-108072455D01*
X142266202Y-108187671D01*
X142265952Y-108188344D01*
X142264946Y-108189971D01*
X142257670Y-108203298D01*
X142256955Y-108202907D01*
X142214893Y-108271001D01*
X142136090Y-108327826D01*
X142041539Y-108350168D01*
X141945635Y-108334627D01*
X141862978Y-108283568D01*
X141856610Y-108277424D01*
X141809139Y-108229953D01*
X141809135Y-108229950D01*
X141809134Y-108229949D01*
X141622741Y-108099436D01*
X141622727Y-108099428D01*
X141416499Y-108003262D01*
X141416496Y-108003261D01*
X141196694Y-107944365D01*
X141196679Y-107944363D01*
X140970006Y-107924532D01*
X140969994Y-107924532D01*
X140743320Y-107944363D01*
X140743305Y-107944365D01*
X140523503Y-108003261D01*
X140523500Y-108003262D01*
X140317272Y-108099428D01*
X140317258Y-108099436D01*
X140130865Y-108229949D01*
X139969949Y-108390865D01*
X139903969Y-108485096D01*
X139833788Y-108552280D01*
X139743239Y-108587493D01*
X139646107Y-108585374D01*
X139557180Y-108546245D01*
X139496031Y-108485096D01*
X139430050Y-108390865D01*
X139430049Y-108390864D01*
X139430047Y-108390861D01*
X139269139Y-108229953D01*
X139269135Y-108229950D01*
X139269134Y-108229949D01*
X139082741Y-108099436D01*
X139082727Y-108099428D01*
X138876499Y-108003262D01*
X138876496Y-108003261D01*
X138656694Y-107944365D01*
X138656679Y-107944363D01*
X138430006Y-107924532D01*
X138429994Y-107924532D01*
X138203320Y-107944363D01*
X138203305Y-107944365D01*
X137983503Y-108003261D01*
X137983500Y-108003262D01*
X137777272Y-108099428D01*
X137777258Y-108099436D01*
X137590865Y-108229949D01*
X137429949Y-108390865D01*
X137299436Y-108577258D01*
X137299428Y-108577272D01*
X137203262Y-108783500D01*
X137203261Y-108783503D01*
X137144365Y-109003305D01*
X137144363Y-109003320D01*
X137124532Y-109229994D01*
X137124532Y-109230005D01*
X137144363Y-109456679D01*
X137144365Y-109456694D01*
X137203261Y-109676496D01*
X137203262Y-109676499D01*
X137299428Y-109882727D01*
X137299436Y-109882741D01*
X137429949Y-110069134D01*
X137429953Y-110069139D01*
X137590861Y-110230047D01*
X137590864Y-110230049D01*
X137590865Y-110230050D01*
X137777258Y-110360563D01*
X137777262Y-110360565D01*
X137777266Y-110360568D01*
X137777270Y-110360569D01*
X137777272Y-110360571D01*
X137798524Y-110370481D01*
X137983504Y-110456739D01*
X138203308Y-110515635D01*
X138204760Y-110515762D01*
X138429994Y-110535468D01*
X138430000Y-110535468D01*
X138430006Y-110535468D01*
X138633660Y-110517650D01*
X138656692Y-110515635D01*
X138876496Y-110456739D01*
X139082734Y-110360568D01*
X139269139Y-110230047D01*
X139430047Y-110069139D01*
X139496031Y-109974902D01*
X139566211Y-109907719D01*
X139656760Y-109872506D01*
X139753892Y-109874625D01*
X139842819Y-109913753D01*
X139903970Y-109974904D01*
X139961403Y-110056929D01*
X139969953Y-110069139D01*
X140130861Y-110230047D01*
X140130864Y-110230049D01*
X140130865Y-110230050D01*
X140317258Y-110360563D01*
X140317262Y-110360565D01*
X140317266Y-110360568D01*
X140317270Y-110360569D01*
X140317272Y-110360571D01*
X140338524Y-110370481D01*
X140523504Y-110456739D01*
X140743308Y-110515635D01*
X140744760Y-110515762D01*
X140969994Y-110535468D01*
X140970000Y-110535468D01*
X140970006Y-110535468D01*
X141173660Y-110517650D01*
X141196692Y-110515635D01*
X141416496Y-110456739D01*
X141622734Y-110360568D01*
X141809139Y-110230047D01*
X141856584Y-110182601D01*
X141937362Y-110128627D01*
X142032650Y-110109672D01*
X142127938Y-110128625D01*
X142208720Y-110182601D01*
X142262697Y-110263382D01*
X142265941Y-110271627D01*
X142266204Y-110272331D01*
X142352454Y-110387546D01*
X142467669Y-110473796D01*
X142602517Y-110524091D01*
X142662127Y-110530500D01*
X143076993Y-110530499D01*
X143172280Y-110549453D01*
X143253061Y-110603429D01*
X143307038Y-110684210D01*
X143325992Y-110779498D01*
X143307038Y-110874787D01*
X143253062Y-110955568D01*
X142927050Y-111281581D01*
X142927048Y-111281584D01*
X142895274Y-111329139D01*
X142879157Y-111353260D01*
X142879156Y-111353261D01*
X142844917Y-111404503D01*
X142844915Y-111404507D01*
X142788341Y-111541088D01*
X142759500Y-111686079D01*
X142759500Y-116732756D01*
X142740546Y-116828044D01*
X142686570Y-116908826D01*
X142605788Y-116962802D01*
X142510500Y-116981756D01*
X142428266Y-116967785D01*
X142419255Y-116964632D01*
X142419252Y-116964631D01*
X142419245Y-116964630D01*
X142240004Y-116944435D01*
X142239996Y-116944435D01*
X142060754Y-116964630D01*
X142060746Y-116964631D01*
X142060745Y-116964632D01*
X141890478Y-117024211D01*
X141890476Y-117024211D01*
X141890476Y-117024212D01*
X141890470Y-117024214D01*
X141737742Y-117120180D01*
X141610180Y-117247742D01*
X141514214Y-117400470D01*
X141514211Y-117400476D01*
X141514211Y-117400478D01*
X141465508Y-117539665D01*
X141454632Y-117570746D01*
X141454630Y-117570753D01*
X141448465Y-117625472D01*
X141418961Y-117718038D01*
X141377101Y-117773662D01*
X136791286Y-122359478D01*
X136791284Y-122359480D01*
X136791283Y-122359479D01*
X136679480Y-122471283D01*
X136679477Y-122471287D01*
X136629543Y-122557778D01*
X136629541Y-122557782D01*
X136618882Y-122576242D01*
X136600422Y-122608215D01*
X136559499Y-122760943D01*
X136559499Y-122939122D01*
X136559500Y-122939135D01*
X136559500Y-122978511D01*
X136540546Y-123073799D01*
X136486570Y-123154581D01*
X136405788Y-123208557D01*
X136310500Y-123227511D01*
X136246056Y-123219027D01*
X136116697Y-123184366D01*
X136116693Y-123184365D01*
X136116692Y-123184365D01*
X136116689Y-123184364D01*
X136116679Y-123184363D01*
X135890006Y-123164532D01*
X135889994Y-123164532D01*
X135663320Y-123184363D01*
X135663305Y-123184365D01*
X135443503Y-123243261D01*
X135443500Y-123243262D01*
X135237272Y-123339428D01*
X135237258Y-123339436D01*
X135050865Y-123469949D01*
X134889949Y-123630865D01*
X134823969Y-123725096D01*
X134753788Y-123792280D01*
X134663239Y-123827493D01*
X134566107Y-123825374D01*
X134477180Y-123786245D01*
X134416031Y-123725096D01*
X134350050Y-123630865D01*
X134350049Y-123630864D01*
X134350047Y-123630861D01*
X134189139Y-123469953D01*
X134189135Y-123469950D01*
X134189134Y-123469949D01*
X134002741Y-123339436D01*
X134002727Y-123339428D01*
X133796499Y-123243262D01*
X133796496Y-123243261D01*
X133576694Y-123184365D01*
X133576679Y-123184363D01*
X133350006Y-123164532D01*
X133349994Y-123164532D01*
X133123320Y-123184363D01*
X133123305Y-123184365D01*
X132903503Y-123243261D01*
X132903500Y-123243262D01*
X132697272Y-123339428D01*
X132697258Y-123339436D01*
X132510865Y-123469949D01*
X132349949Y-123630865D01*
X132283969Y-123725096D01*
X132213788Y-123792280D01*
X132123239Y-123827493D01*
X132026107Y-123825374D01*
X131937180Y-123786245D01*
X131876031Y-123725096D01*
X131810050Y-123630865D01*
X131810049Y-123630864D01*
X131810047Y-123630861D01*
X131649139Y-123469953D01*
X131649135Y-123469950D01*
X131649134Y-123469949D01*
X131462741Y-123339436D01*
X131462727Y-123339428D01*
X131256499Y-123243262D01*
X131256496Y-123243261D01*
X131036694Y-123184365D01*
X131036679Y-123184363D01*
X130810006Y-123164532D01*
X130809994Y-123164532D01*
X130583309Y-123184364D01*
X130582733Y-123184466D01*
X130582264Y-123184455D01*
X130572478Y-123185312D01*
X130572384Y-123184239D01*
X130485601Y-123182344D01*
X130396675Y-123143214D01*
X130329493Y-123073031D01*
X130294282Y-122982481D01*
X130290500Y-122939248D01*
X130290500Y-113711723D01*
X130309454Y-113616435D01*
X130363427Y-113535656D01*
X131392951Y-112506133D01*
X131475084Y-112383212D01*
X131530261Y-112250003D01*
X132944435Y-112250003D01*
X132964630Y-112429245D01*
X132964631Y-112429251D01*
X132964632Y-112429255D01*
X133024211Y-112599522D01*
X133024212Y-112599523D01*
X133024214Y-112599529D01*
X133120180Y-112752257D01*
X133120182Y-112752259D01*
X133120184Y-112752262D01*
X133247738Y-112879816D01*
X133247740Y-112879817D01*
X133247742Y-112879819D01*
X133400470Y-112975785D01*
X133400473Y-112975786D01*
X133400478Y-112975789D01*
X133570745Y-113035368D01*
X133570754Y-113035369D01*
X133749996Y-113055565D01*
X133750000Y-113055565D01*
X133750004Y-113055565D01*
X133889908Y-113039801D01*
X133929255Y-113035368D01*
X134099522Y-112975789D01*
X134186521Y-112921124D01*
X134238178Y-112888666D01*
X134328945Y-112854018D01*
X134370654Y-112850500D01*
X136379346Y-112850500D01*
X136474634Y-112869454D01*
X136511822Y-112888666D01*
X136650471Y-112975785D01*
X136650472Y-112975785D01*
X136650478Y-112975789D01*
X136820745Y-113035368D01*
X136820754Y-113035369D01*
X136999996Y-113055565D01*
X137000000Y-113055565D01*
X137000004Y-113055565D01*
X137139908Y-113039801D01*
X137179255Y-113035368D01*
X137349522Y-112975789D01*
X137349527Y-112975785D01*
X137349529Y-112975785D01*
X137502257Y-112879819D01*
X137502256Y-112879819D01*
X137502262Y-112879816D01*
X137629816Y-112752262D01*
X137674926Y-112680470D01*
X137725785Y-112599529D01*
X137725785Y-112599527D01*
X137725789Y-112599522D01*
X137785368Y-112429255D01*
X137793558Y-112356567D01*
X137805565Y-112250003D01*
X137805565Y-112249996D01*
X137785369Y-112070754D01*
X137785368Y-112070745D01*
X137725789Y-111900478D01*
X137725786Y-111900473D01*
X137725785Y-111900470D01*
X137629819Y-111747742D01*
X137629817Y-111747740D01*
X137629816Y-111747738D01*
X137502262Y-111620184D01*
X137502259Y-111620182D01*
X137502257Y-111620180D01*
X137349529Y-111524214D01*
X137349524Y-111524212D01*
X137349522Y-111524211D01*
X137179255Y-111464632D01*
X137179251Y-111464631D01*
X137179245Y-111464630D01*
X137000004Y-111444435D01*
X136999996Y-111444435D01*
X136820754Y-111464630D01*
X136820746Y-111464631D01*
X136820745Y-111464632D01*
X136650478Y-111524211D01*
X136650476Y-111524211D01*
X136650476Y-111524212D01*
X136650471Y-111524214D01*
X136511822Y-111611334D01*
X136421055Y-111645982D01*
X136379346Y-111649500D01*
X134370654Y-111649500D01*
X134275366Y-111630546D01*
X134238178Y-111611334D01*
X134099528Y-111524214D01*
X134099524Y-111524212D01*
X134099522Y-111524211D01*
X133929255Y-111464632D01*
X133929251Y-111464631D01*
X133929245Y-111464630D01*
X133750004Y-111444435D01*
X133749996Y-111444435D01*
X133570754Y-111464630D01*
X133570746Y-111464631D01*
X133570745Y-111464632D01*
X133400478Y-111524211D01*
X133400476Y-111524211D01*
X133400476Y-111524212D01*
X133400470Y-111524214D01*
X133247742Y-111620180D01*
X133120180Y-111747742D01*
X133024214Y-111900470D01*
X133024211Y-111900476D01*
X133024211Y-111900478D01*
X132993220Y-111989047D01*
X132964632Y-112070746D01*
X132964630Y-112070754D01*
X132944435Y-112249996D01*
X132944435Y-112250003D01*
X131530261Y-112250003D01*
X131531658Y-112246630D01*
X131560500Y-112101635D01*
X131560500Y-111953800D01*
X131560500Y-111411774D01*
X131579454Y-111316486D01*
X131633430Y-111235705D01*
X132445290Y-110423844D01*
X132526072Y-110369867D01*
X132621360Y-110350913D01*
X132716648Y-110369867D01*
X132726574Y-110374234D01*
X132903504Y-110456739D01*
X133123308Y-110515635D01*
X133124760Y-110515762D01*
X133349994Y-110535468D01*
X133350000Y-110535468D01*
X133350006Y-110535468D01*
X133553660Y-110517650D01*
X133576692Y-110515635D01*
X133796496Y-110456739D01*
X134002734Y-110360568D01*
X134189139Y-110230047D01*
X134350047Y-110069139D01*
X134480568Y-109882734D01*
X134576739Y-109676496D01*
X134635635Y-109456692D01*
X134642511Y-109378095D01*
X134655468Y-109230005D01*
X134655468Y-109229994D01*
X134635636Y-109003320D01*
X134635635Y-109003308D01*
X134576739Y-108783504D01*
X134506910Y-108633756D01*
X134480571Y-108577272D01*
X134480563Y-108577258D01*
X134350050Y-108390865D01*
X134350049Y-108390864D01*
X134350047Y-108390861D01*
X134189139Y-108229953D01*
X134189135Y-108229950D01*
X134189134Y-108229949D01*
X134111381Y-108175506D01*
X134044197Y-108105325D01*
X134008984Y-108014776D01*
X134011103Y-107917644D01*
X134050232Y-107828717D01*
X134078120Y-107795479D01*
X138442952Y-103430648D01*
X138507239Y-103334435D01*
X138525084Y-103307728D01*
X138565951Y-103209067D01*
X138581659Y-103171145D01*
X138610500Y-103026150D01*
X138610500Y-102878315D01*
X138610500Y-86074006D01*
X138629454Y-85978718D01*
X138683428Y-85897939D01*
X139311698Y-85269668D01*
X139392477Y-85215694D01*
X139487765Y-85196740D01*
X139528745Y-85200135D01*
X139584863Y-85209500D01*
X139584865Y-85209500D01*
X139815137Y-85209500D01*
X140042271Y-85171598D01*
X140042275Y-85171596D01*
X140042278Y-85171596D01*
X140154004Y-85133240D01*
X140260069Y-85096828D01*
X140462589Y-84987229D01*
X140644308Y-84845792D01*
X140786806Y-84690997D01*
X140865286Y-84633730D01*
X140959709Y-84610854D01*
X141055699Y-84625853D01*
G37*
%TD.AperFunction*%
%TA.AperFunction,Conductor*%
G36*
X123667762Y-102754540D02*
G01*
X123748544Y-102808516D01*
X123802520Y-102889298D01*
X123821474Y-102984586D01*
X123821474Y-107728322D01*
X123802520Y-107823610D01*
X123748544Y-107904392D01*
X123667762Y-107958368D01*
X123572474Y-107977322D01*
X123508031Y-107968838D01*
X123416700Y-107944367D01*
X123416698Y-107944366D01*
X123416692Y-107944365D01*
X123416687Y-107944364D01*
X123416679Y-107944363D01*
X123190006Y-107924532D01*
X123189994Y-107924532D01*
X122963320Y-107944363D01*
X122963305Y-107944365D01*
X122743503Y-108003261D01*
X122743500Y-108003262D01*
X122537272Y-108099428D01*
X122537258Y-108099436D01*
X122350865Y-108229949D01*
X122189949Y-108390865D01*
X122123969Y-108485096D01*
X122053788Y-108552280D01*
X121963239Y-108587493D01*
X121866107Y-108585374D01*
X121777180Y-108546245D01*
X121716031Y-108485096D01*
X121650050Y-108390865D01*
X121650049Y-108390864D01*
X121650047Y-108390861D01*
X121489139Y-108229953D01*
X121489135Y-108229950D01*
X121489134Y-108229949D01*
X121302741Y-108099436D01*
X121302727Y-108099428D01*
X121096499Y-108003262D01*
X121096496Y-108003261D01*
X120876694Y-107944365D01*
X120876679Y-107944363D01*
X120650006Y-107924532D01*
X120649994Y-107924532D01*
X120423320Y-107944363D01*
X120423305Y-107944365D01*
X120203503Y-108003261D01*
X120203500Y-108003262D01*
X119997272Y-108099428D01*
X119997258Y-108099436D01*
X119810865Y-108229949D01*
X119649949Y-108390865D01*
X119583969Y-108485096D01*
X119513788Y-108552280D01*
X119423239Y-108587493D01*
X119326107Y-108585374D01*
X119237180Y-108546245D01*
X119176031Y-108485096D01*
X119110050Y-108390865D01*
X119110049Y-108390864D01*
X119110047Y-108390861D01*
X118949139Y-108229953D01*
X118949135Y-108229950D01*
X118949134Y-108229949D01*
X118762741Y-108099436D01*
X118762727Y-108099428D01*
X118556499Y-108003262D01*
X118556496Y-108003261D01*
X118336694Y-107944365D01*
X118336679Y-107944363D01*
X118110006Y-107924532D01*
X118110004Y-107924532D01*
X118110001Y-107924532D01*
X118110000Y-107924532D01*
X118004935Y-107933724D01*
X117881201Y-107944549D01*
X117784624Y-107933971D01*
X117699445Y-107887241D01*
X117638634Y-107811471D01*
X117611447Y-107718197D01*
X117610500Y-107696496D01*
X117610500Y-105589500D01*
X117629454Y-105494212D01*
X117683430Y-105413430D01*
X117764212Y-105359454D01*
X117859500Y-105340500D01*
X117935625Y-105340500D01*
X118030913Y-105359454D01*
X118111695Y-105413430D01*
X118448371Y-105750106D01*
X118502347Y-105830888D01*
X118519735Y-105898298D01*
X118524630Y-105941745D01*
X118524631Y-105941751D01*
X118524632Y-105941755D01*
X118584211Y-106112022D01*
X118584212Y-106112023D01*
X118584214Y-106112029D01*
X118680180Y-106264757D01*
X118680182Y-106264759D01*
X118680184Y-106264762D01*
X118807738Y-106392316D01*
X118807740Y-106392317D01*
X118807742Y-106392319D01*
X118960470Y-106488285D01*
X118960473Y-106488286D01*
X118960478Y-106488289D01*
X119130745Y-106547868D01*
X119130754Y-106547869D01*
X119309996Y-106568065D01*
X119310000Y-106568065D01*
X119310004Y-106568065D01*
X119449908Y-106552301D01*
X119489255Y-106547868D01*
X119659522Y-106488289D01*
X119659527Y-106488285D01*
X119659529Y-106488285D01*
X119772184Y-106417498D01*
X119812262Y-106392316D01*
X119939816Y-106264762D01*
X119965146Y-106224450D01*
X120035785Y-106112029D01*
X120035785Y-106112027D01*
X120035789Y-106112022D01*
X120095368Y-105941755D01*
X120104974Y-105856496D01*
X120115565Y-105762503D01*
X120115565Y-105762496D01*
X120095369Y-105583254D01*
X120095368Y-105583245D01*
X120035789Y-105412978D01*
X120035786Y-105412973D01*
X120035785Y-105412970D01*
X119939819Y-105260242D01*
X119939817Y-105260240D01*
X119939816Y-105260238D01*
X119845144Y-105165566D01*
X119791171Y-105084788D01*
X119772217Y-104989500D01*
X119791171Y-104894212D01*
X119845147Y-104813430D01*
X119925929Y-104759454D01*
X120021217Y-104740500D01*
X121121352Y-104740500D01*
X121121368Y-104740501D01*
X121136629Y-104740501D01*
X121294742Y-104740501D01*
X121294743Y-104740501D01*
X121447471Y-104699577D01*
X121497590Y-104670639D01*
X121584402Y-104620520D01*
X121696206Y-104508716D01*
X121696206Y-104508714D01*
X121716666Y-104488255D01*
X121716686Y-104488233D01*
X123396406Y-102808514D01*
X123477186Y-102754540D01*
X123572474Y-102735586D01*
X123667762Y-102754540D01*
G37*
%TD.AperFunction*%
%TA.AperFunction,Conductor*%
G36*
X135799330Y-82830242D02*
G01*
X135880112Y-82884218D01*
X135934088Y-82965000D01*
X135953042Y-83060288D01*
X135934088Y-83155576D01*
X135932070Y-83160310D01*
X135841286Y-83367276D01*
X135841285Y-83367278D01*
X135841283Y-83367284D01*
X135784754Y-83590512D01*
X135765738Y-83820000D01*
X135784754Y-84049488D01*
X135841283Y-84272716D01*
X135841285Y-84272721D01*
X135841287Y-84272728D01*
X135933776Y-84483581D01*
X135933780Y-84483590D01*
X135933783Y-84483595D01*
X135958403Y-84521280D01*
X136059725Y-84676366D01*
X136059731Y-84676373D01*
X136215692Y-84845792D01*
X136313439Y-84921871D01*
X136376992Y-84995354D01*
X136407588Y-85087566D01*
X136409500Y-85118367D01*
X136409500Y-102212108D01*
X136390546Y-102307396D01*
X136336570Y-102388178D01*
X131568178Y-107156570D01*
X131487396Y-107210546D01*
X131392108Y-107229500D01*
X130218312Y-107229500D01*
X130073321Y-107258341D01*
X130073318Y-107258342D01*
X129936745Y-107314912D01*
X129936737Y-107314916D01*
X129872514Y-107357829D01*
X129813819Y-107397047D01*
X129813813Y-107397052D01*
X129174708Y-108036156D01*
X129093927Y-108090132D01*
X128998639Y-108109086D01*
X128903350Y-108090132D01*
X128893407Y-108085756D01*
X128716499Y-108003262D01*
X128716496Y-108003261D01*
X128496694Y-107944365D01*
X128496679Y-107944363D01*
X128270006Y-107924532D01*
X128269994Y-107924532D01*
X128043320Y-107944363D01*
X128043305Y-107944365D01*
X127823503Y-108003261D01*
X127823500Y-108003262D01*
X127617272Y-108099428D01*
X127617258Y-108099436D01*
X127430865Y-108229949D01*
X127269949Y-108390865D01*
X127203969Y-108485096D01*
X127133788Y-108552280D01*
X127043239Y-108587493D01*
X126946107Y-108585374D01*
X126857180Y-108546245D01*
X126796031Y-108485096D01*
X126730050Y-108390865D01*
X126730049Y-108390864D01*
X126730047Y-108390861D01*
X126569139Y-108229953D01*
X126569135Y-108229950D01*
X126569134Y-108229949D01*
X126382741Y-108099436D01*
X126382727Y-108099428D01*
X126176499Y-108003262D01*
X126176496Y-108003261D01*
X125956694Y-107944365D01*
X125956679Y-107944363D01*
X125730006Y-107924532D01*
X125729994Y-107924532D01*
X125503320Y-107944363D01*
X125503302Y-107944366D01*
X125335918Y-107989216D01*
X125238971Y-107995570D01*
X125146973Y-107964340D01*
X125073928Y-107900280D01*
X125030958Y-107813144D01*
X125022474Y-107748700D01*
X125022474Y-104140000D01*
X127784592Y-104140000D01*
X127804197Y-104401625D01*
X127804198Y-104401629D01*
X127862578Y-104657412D01*
X127958428Y-104901635D01*
X127958436Y-104901651D01*
X128089612Y-105128855D01*
X128253194Y-105333980D01*
X128253205Y-105333991D01*
X128445520Y-105512432D01*
X128662292Y-105660226D01*
X128662294Y-105660227D01*
X128662296Y-105660228D01*
X128801838Y-105727428D01*
X128898668Y-105774059D01*
X128898669Y-105774059D01*
X128898677Y-105774063D01*
X129149385Y-105851396D01*
X129408818Y-105890500D01*
X129408822Y-105890500D01*
X129671178Y-105890500D01*
X129671182Y-105890500D01*
X129930615Y-105851396D01*
X130181323Y-105774063D01*
X130417704Y-105660228D01*
X130634479Y-105512433D01*
X130826805Y-105333981D01*
X130990386Y-105128857D01*
X131121568Y-104901643D01*
X131217420Y-104657416D01*
X131217557Y-104656818D01*
X131225841Y-104620520D01*
X131275802Y-104401630D01*
X131295408Y-104140000D01*
X131275802Y-103878370D01*
X131217420Y-103622584D01*
X131155465Y-103464724D01*
X131121571Y-103378364D01*
X131121569Y-103378361D01*
X131121568Y-103378357D01*
X131096210Y-103334435D01*
X130990387Y-103151144D01*
X130826805Y-102946019D01*
X130826794Y-102946008D01*
X130634479Y-102767567D01*
X130417707Y-102619773D01*
X130417702Y-102619771D01*
X130181331Y-102505940D01*
X130181326Y-102505938D01*
X130181323Y-102505937D01*
X129930615Y-102428604D01*
X129671182Y-102389500D01*
X129408818Y-102389500D01*
X129201271Y-102420783D01*
X129149384Y-102428604D01*
X129004107Y-102473416D01*
X128898677Y-102505937D01*
X128898675Y-102505937D01*
X128898668Y-102505940D01*
X128662297Y-102619771D01*
X128662292Y-102619773D01*
X128445520Y-102767567D01*
X128253205Y-102946008D01*
X128253194Y-102946019D01*
X128089612Y-103151144D01*
X127958436Y-103378348D01*
X127958428Y-103378364D01*
X127862578Y-103622587D01*
X127804198Y-103878370D01*
X127804197Y-103878374D01*
X127784592Y-104140000D01*
X125022474Y-104140000D01*
X125022474Y-94861214D01*
X125041428Y-94765926D01*
X125095404Y-94685144D01*
X125113502Y-94668741D01*
X125132857Y-94652857D01*
X125148736Y-94633508D01*
X125223836Y-94571876D01*
X125316808Y-94543673D01*
X125341214Y-94542474D01*
X126874171Y-94542474D01*
X126969459Y-94561428D01*
X127050241Y-94615404D01*
X127078135Y-94648648D01*
X127193479Y-94813375D01*
X127360573Y-94980469D01*
X127554144Y-95116009D01*
X127768311Y-95215877D01*
X127996566Y-95277037D01*
X127996569Y-95277037D01*
X127996572Y-95277038D01*
X128231969Y-95297633D01*
X128231974Y-95297633D01*
X128231979Y-95297633D01*
X128467375Y-95277038D01*
X128467377Y-95277037D01*
X128467382Y-95277037D01*
X128476052Y-95274713D01*
X128572997Y-95268358D01*
X128664996Y-95299586D01*
X128738042Y-95363643D01*
X128781014Y-95450778D01*
X128789500Y-95515228D01*
X128789500Y-97299940D01*
X128770546Y-97395228D01*
X128716570Y-97476010D01*
X128716569Y-97476010D01*
X128584690Y-97607888D01*
X128503908Y-97661864D01*
X128408620Y-97680818D01*
X128386920Y-97679871D01*
X128312078Y-97673323D01*
X128231974Y-97666315D01*
X128231972Y-97666315D01*
X128231970Y-97666315D01*
X128231969Y-97666315D01*
X127996572Y-97686909D01*
X127768309Y-97748071D01*
X127768307Y-97748072D01*
X127554151Y-97847935D01*
X127554143Y-97847939D01*
X127360574Y-97983478D01*
X127360573Y-97983479D01*
X127193479Y-98150573D01*
X127164217Y-98192364D01*
X127057939Y-98344143D01*
X127057935Y-98344151D01*
X126958072Y-98558307D01*
X126958071Y-98558309D01*
X126896909Y-98786572D01*
X126876315Y-99021968D01*
X126876315Y-99021979D01*
X126896909Y-99257375D01*
X126958070Y-99485634D01*
X127057939Y-99699804D01*
X127164216Y-99851584D01*
X127193479Y-99893375D01*
X127360573Y-100060469D01*
X127554144Y-100196009D01*
X127768311Y-100295877D01*
X127996566Y-100357037D01*
X127996569Y-100357037D01*
X127996572Y-100357038D01*
X128231969Y-100377633D01*
X128231974Y-100377633D01*
X128231979Y-100377633D01*
X128467375Y-100357038D01*
X128467377Y-100357037D01*
X128467382Y-100357037D01*
X128695637Y-100295877D01*
X128909804Y-100196009D01*
X129103375Y-100060469D01*
X129270469Y-99893375D01*
X129406009Y-99699804D01*
X129505877Y-99485637D01*
X129567037Y-99257382D01*
X129570110Y-99222262D01*
X129587633Y-99021979D01*
X129587633Y-99021968D01*
X129574077Y-98867026D01*
X129584653Y-98770449D01*
X129631384Y-98685270D01*
X129646060Y-98669254D01*
X129757007Y-98558307D01*
X130122951Y-98192364D01*
X130150875Y-98150573D01*
X130205084Y-98069443D01*
X130261658Y-97932861D01*
X130290500Y-97787866D01*
X130290500Y-86774007D01*
X130309454Y-86678719D01*
X130363430Y-86597937D01*
X131024127Y-85937240D01*
X131691699Y-85269667D01*
X131772478Y-85215694D01*
X131867766Y-85196740D01*
X131908744Y-85200135D01*
X131964863Y-85209500D01*
X131964865Y-85209500D01*
X132195137Y-85209500D01*
X132422271Y-85171598D01*
X132422275Y-85171596D01*
X132422278Y-85171596D01*
X132534004Y-85133240D01*
X132640069Y-85096828D01*
X132842589Y-84987229D01*
X133024308Y-84845792D01*
X133180269Y-84676373D01*
X133306217Y-84483595D01*
X133393917Y-84283660D01*
X133398712Y-84272728D01*
X133398712Y-84272726D01*
X133398717Y-84272716D01*
X133455246Y-84049488D01*
X133474262Y-83820000D01*
X133469796Y-83766108D01*
X133458319Y-83627599D01*
X133469339Y-83531071D01*
X133516460Y-83446108D01*
X133530385Y-83430980D01*
X134077149Y-82884218D01*
X134157930Y-82830242D01*
X134253218Y-82811288D01*
X135704042Y-82811288D01*
X135799330Y-82830242D01*
G37*
%TD.AperFunction*%
%TA.AperFunction,Conductor*%
G36*
X123270792Y-88539771D02*
G01*
X123351574Y-88593747D01*
X123405550Y-88674529D01*
X123424504Y-88769817D01*
X123423305Y-88794220D01*
X123416633Y-88861969D01*
X123416633Y-88861974D01*
X123419086Y-88886880D01*
X123409563Y-88983567D01*
X123363764Y-89069250D01*
X123347355Y-89087355D01*
X122421286Y-90013425D01*
X122421286Y-90013426D01*
X122421284Y-90013428D01*
X122421283Y-90013427D01*
X122309480Y-90125230D01*
X122293257Y-90153330D01*
X122281380Y-90173903D01*
X122252847Y-90223324D01*
X122230421Y-90262166D01*
X122189499Y-90414891D01*
X122189499Y-90593070D01*
X122189500Y-90593083D01*
X122189500Y-94276628D01*
X122189499Y-94434741D01*
X122230422Y-94587467D01*
X122230424Y-94587472D01*
X122286815Y-94685144D01*
X122309480Y-94724401D01*
X122926572Y-95341493D01*
X122980546Y-95422272D01*
X122999500Y-95517560D01*
X122999500Y-100838124D01*
X122980546Y-100933412D01*
X122926570Y-101014194D01*
X120874195Y-103066570D01*
X120793413Y-103120546D01*
X120698125Y-103139500D01*
X119585359Y-103139500D01*
X119490071Y-103120546D01*
X119409289Y-103066570D01*
X119374525Y-103022976D01*
X119339819Y-102967742D01*
X119339817Y-102967740D01*
X119339816Y-102967738D01*
X119212262Y-102840184D01*
X119212259Y-102840182D01*
X119212257Y-102840180D01*
X119059529Y-102744214D01*
X119059524Y-102744212D01*
X119059522Y-102744211D01*
X118889255Y-102684632D01*
X118889251Y-102684631D01*
X118889245Y-102684630D01*
X118710004Y-102664435D01*
X118709996Y-102664435D01*
X118530754Y-102684630D01*
X118530739Y-102684633D01*
X118441738Y-102715776D01*
X118345537Y-102729357D01*
X118251462Y-102705090D01*
X118173834Y-102646668D01*
X118124473Y-102562987D01*
X118110500Y-102480749D01*
X118110500Y-93585822D01*
X118129454Y-93490534D01*
X118183428Y-93409754D01*
X122999437Y-88593744D01*
X123080216Y-88539771D01*
X123175504Y-88520817D01*
X123270792Y-88539771D01*
G37*
%TD.AperFunction*%
%TA.AperFunction,Conductor*%
G36*
X161112036Y-113649454D02*
G01*
X161192818Y-113703430D01*
X161246794Y-113784212D01*
X161265748Y-113879500D01*
X161257264Y-113943944D01*
X161224936Y-114064595D01*
X161224935Y-114064598D01*
X161204341Y-114299994D01*
X161204341Y-114300005D01*
X161224935Y-114535401D01*
X161283922Y-114755548D01*
X161286097Y-114763663D01*
X161385965Y-114977830D01*
X161521505Y-115171401D01*
X161688599Y-115338495D01*
X161727925Y-115366031D01*
X161795107Y-115436209D01*
X161830321Y-115526758D01*
X161828202Y-115623890D01*
X161789074Y-115712818D01*
X161727928Y-115773965D01*
X161688603Y-115801501D01*
X161521504Y-115968600D01*
X161385965Y-116162169D01*
X161385961Y-116162177D01*
X161286098Y-116376333D01*
X161286097Y-116376335D01*
X161224935Y-116604598D01*
X161204341Y-116839994D01*
X161204341Y-116840005D01*
X161224935Y-117075401D01*
X161283922Y-117295548D01*
X161286097Y-117303663D01*
X161357726Y-117457272D01*
X161385965Y-117517830D01*
X161423016Y-117570745D01*
X161521505Y-117711401D01*
X161688599Y-117878495D01*
X161727925Y-117906031D01*
X161795107Y-117976209D01*
X161830321Y-118066758D01*
X161828202Y-118163890D01*
X161789074Y-118252818D01*
X161727928Y-118313965D01*
X161688603Y-118341501D01*
X161521504Y-118508600D01*
X161385965Y-118702169D01*
X161385961Y-118702177D01*
X161286098Y-118916333D01*
X161286097Y-118916335D01*
X161224935Y-119144598D01*
X161204341Y-119379994D01*
X161204341Y-119380005D01*
X161224935Y-119615401D01*
X161283922Y-119835548D01*
X161286097Y-119843663D01*
X161379035Y-120042968D01*
X161385965Y-120057830D01*
X161464142Y-120169479D01*
X161521505Y-120251401D01*
X161688599Y-120418495D01*
X161727925Y-120446031D01*
X161795107Y-120516209D01*
X161830321Y-120606758D01*
X161828202Y-120703890D01*
X161789074Y-120792818D01*
X161727928Y-120853965D01*
X161688603Y-120881501D01*
X161688599Y-120881504D01*
X161688599Y-120881505D01*
X161570736Y-120999367D01*
X161489958Y-121053341D01*
X161394670Y-121072295D01*
X161299382Y-121053341D01*
X161218600Y-120999365D01*
X160500521Y-120281286D01*
X160500520Y-120281284D01*
X160388716Y-120169480D01*
X160301906Y-120119361D01*
X160301903Y-120119358D01*
X160251784Y-120090422D01*
X160251782Y-120090421D01*
X160235052Y-120085939D01*
X160147916Y-120042968D01*
X160083858Y-119969923D01*
X160052629Y-119877924D01*
X160050499Y-119845424D01*
X160050499Y-119802134D01*
X160050499Y-119802128D01*
X160044091Y-119742517D01*
X159993796Y-119607669D01*
X159907546Y-119492454D01*
X159792331Y-119406204D01*
X159791656Y-119405952D01*
X159790026Y-119404945D01*
X159776702Y-119397670D01*
X159777091Y-119396955D01*
X159709002Y-119354896D01*
X159652175Y-119276094D01*
X159629831Y-119181543D01*
X159645370Y-119085639D01*
X159696428Y-119002982D01*
X159702576Y-118996609D01*
X159750047Y-118949139D01*
X159880568Y-118762734D01*
X159976739Y-118556496D01*
X160035635Y-118336692D01*
X160047072Y-118205965D01*
X160055468Y-118110005D01*
X160055468Y-118109994D01*
X160035636Y-117883320D01*
X160035635Y-117883308D01*
X159976739Y-117663504D01*
X159880568Y-117457266D01*
X159880565Y-117457262D01*
X159880563Y-117457258D01*
X159750050Y-117270865D01*
X159750049Y-117270864D01*
X159750047Y-117270861D01*
X159589139Y-117109953D01*
X159589133Y-117109949D01*
X159515120Y-117058125D01*
X159494902Y-117043968D01*
X159427719Y-116973789D01*
X159392506Y-116883240D01*
X159394625Y-116786108D01*
X159433753Y-116697181D01*
X159494902Y-116636031D01*
X159589139Y-116570047D01*
X159750047Y-116409139D01*
X159880568Y-116222734D01*
X159976739Y-116016496D01*
X160035635Y-115796692D01*
X160047072Y-115665965D01*
X160055468Y-115570005D01*
X160055468Y-115569994D01*
X160035636Y-115343320D01*
X160035635Y-115343308D01*
X159976739Y-115123504D01*
X159880568Y-114917266D01*
X159880565Y-114917262D01*
X159880563Y-114917258D01*
X159750050Y-114730865D01*
X159750049Y-114730864D01*
X159750047Y-114730861D01*
X159589139Y-114569953D01*
X159589133Y-114569949D01*
X159539793Y-114535401D01*
X159494902Y-114503968D01*
X159427719Y-114433789D01*
X159392506Y-114343240D01*
X159394625Y-114246108D01*
X159433753Y-114157181D01*
X159494902Y-114096031D01*
X159589139Y-114030047D01*
X159750047Y-113869139D01*
X159842794Y-113736680D01*
X159912975Y-113669496D01*
X160003524Y-113634283D01*
X160046764Y-113630500D01*
X161016748Y-113630500D01*
X161112036Y-113649454D01*
G37*
%TD.AperFunction*%
%TA.AperFunction,Conductor*%
G36*
X168055428Y-53400737D02*
G01*
X168431306Y-53417148D01*
X168452917Y-53419038D01*
X168820552Y-53467439D01*
X168841943Y-53471211D01*
X168907737Y-53485797D01*
X169203956Y-53551467D01*
X169224908Y-53557081D01*
X169578566Y-53668588D01*
X169598954Y-53676009D01*
X169941534Y-53817910D01*
X169961208Y-53827085D01*
X170290111Y-53998302D01*
X170308918Y-54009160D01*
X170621643Y-54208386D01*
X170639424Y-54220837D01*
X170797315Y-54341991D01*
X170933600Y-54446566D01*
X170950240Y-54460529D01*
X171223611Y-54711028D01*
X171238971Y-54726388D01*
X171489470Y-54999759D01*
X171503433Y-55016399D01*
X171729157Y-55310568D01*
X171741617Y-55328363D01*
X171940837Y-55641077D01*
X171951697Y-55659888D01*
X172122914Y-55988791D01*
X172132095Y-56008479D01*
X172273985Y-56351032D01*
X172281415Y-56371445D01*
X172392914Y-56725076D01*
X172398536Y-56746058D01*
X172478788Y-57108056D01*
X172482560Y-57129447D01*
X172530959Y-57497066D01*
X172532852Y-57518706D01*
X172549263Y-57894570D01*
X172549500Y-57905432D01*
X172549500Y-148494567D01*
X172549263Y-148505429D01*
X172532852Y-148881293D01*
X172530959Y-148902933D01*
X172482560Y-149270552D01*
X172478788Y-149291943D01*
X172398536Y-149653941D01*
X172392914Y-149674923D01*
X172281415Y-150028554D01*
X172273985Y-150048967D01*
X172132095Y-150391520D01*
X172122914Y-150411208D01*
X171951697Y-150740111D01*
X171940837Y-150758922D01*
X171741617Y-151071636D01*
X171729157Y-151089431D01*
X171503433Y-151383600D01*
X171489470Y-151400240D01*
X171238971Y-151673611D01*
X171223611Y-151688971D01*
X170950240Y-151939470D01*
X170933600Y-151953433D01*
X170639431Y-152179157D01*
X170621636Y-152191617D01*
X170308922Y-152390837D01*
X170290111Y-152401697D01*
X169961208Y-152572914D01*
X169941520Y-152582095D01*
X169598967Y-152723985D01*
X169578554Y-152731415D01*
X169224923Y-152842914D01*
X169203941Y-152848536D01*
X168841943Y-152928788D01*
X168820552Y-152932560D01*
X168452933Y-152980959D01*
X168431293Y-152982852D01*
X168092023Y-152997665D01*
X168055427Y-152999263D01*
X168044567Y-152999500D01*
X108955433Y-152999500D01*
X108944572Y-152999263D01*
X108568707Y-152982852D01*
X108547066Y-152980959D01*
X108179447Y-152932560D01*
X108158056Y-152928788D01*
X107796058Y-152848536D01*
X107775076Y-152842914D01*
X107421445Y-152731415D01*
X107401032Y-152723985D01*
X107058479Y-152582095D01*
X107038791Y-152572914D01*
X106709888Y-152401697D01*
X106691077Y-152390837D01*
X106378363Y-152191617D01*
X106360568Y-152179157D01*
X106283770Y-152120228D01*
X106066397Y-151953431D01*
X106049759Y-151939470D01*
X105776388Y-151688971D01*
X105761028Y-151673611D01*
X105510529Y-151400240D01*
X105496566Y-151383600D01*
X105479724Y-151361651D01*
X105270837Y-151089424D01*
X105258382Y-151071636D01*
X105255623Y-151067306D01*
X105059160Y-150758918D01*
X105048302Y-150740111D01*
X104975364Y-150599999D01*
X144294593Y-150599999D01*
X144314198Y-150861624D01*
X144314199Y-150861628D01*
X144372579Y-151117411D01*
X144468429Y-151361634D01*
X144468437Y-151361650D01*
X144599613Y-151588854D01*
X144763195Y-151793979D01*
X144763206Y-151793990D01*
X144935046Y-151953433D01*
X144955522Y-151972432D01*
X145021506Y-152017419D01*
X145172293Y-152120225D01*
X145172295Y-152120226D01*
X145172297Y-152120227D01*
X145294667Y-152179157D01*
X145408669Y-152234058D01*
X145408670Y-152234058D01*
X145408678Y-152234062D01*
X145659386Y-152311395D01*
X145918819Y-152350499D01*
X145918823Y-152350499D01*
X146181179Y-152350499D01*
X146181183Y-152350499D01*
X146440616Y-152311395D01*
X146691324Y-152234062D01*
X146927705Y-152120227D01*
X147144480Y-151972432D01*
X147336806Y-151793980D01*
X147500387Y-151588856D01*
X147631569Y-151361642D01*
X147727421Y-151117415D01*
X147785803Y-150861629D01*
X147805409Y-150600000D01*
X159534592Y-150600000D01*
X159554197Y-150861625D01*
X159554198Y-150861629D01*
X159612578Y-151117412D01*
X159708428Y-151361635D01*
X159708436Y-151361651D01*
X159839612Y-151588855D01*
X160003194Y-151793980D01*
X160003205Y-151793991D01*
X160195520Y-151972432D01*
X160412292Y-152120226D01*
X160412294Y-152120227D01*
X160412296Y-152120228D01*
X160548406Y-152185775D01*
X160648668Y-152234059D01*
X160648669Y-152234059D01*
X160648677Y-152234063D01*
X160899385Y-152311396D01*
X161158818Y-152350500D01*
X161158822Y-152350500D01*
X161421178Y-152350500D01*
X161421182Y-152350500D01*
X161680615Y-152311396D01*
X161931323Y-152234063D01*
X162167704Y-152120228D01*
X162384479Y-151972433D01*
X162576805Y-151793981D01*
X162740386Y-151588857D01*
X162871568Y-151361643D01*
X162967420Y-151117416D01*
X163025802Y-150861630D01*
X163045408Y-150600000D01*
X163025802Y-150338370D01*
X162967420Y-150082586D01*
X162967419Y-150082583D01*
X162876334Y-149850500D01*
X162871571Y-149838364D01*
X162871569Y-149838361D01*
X162871568Y-149838357D01*
X162871562Y-149838347D01*
X162740387Y-149611144D01*
X162576805Y-149406019D01*
X162576794Y-149406008D01*
X162384479Y-149227567D01*
X162167707Y-149079773D01*
X162167702Y-149079771D01*
X161931331Y-148965940D01*
X161931326Y-148965938D01*
X161931323Y-148965937D01*
X161680615Y-148888604D01*
X161421182Y-148849500D01*
X161158818Y-148849500D01*
X160951271Y-148880783D01*
X160899384Y-148888604D01*
X160887866Y-148892157D01*
X160648677Y-148965937D01*
X160648675Y-148965937D01*
X160648668Y-148965940D01*
X160412297Y-149079771D01*
X160412292Y-149079773D01*
X160195520Y-149227567D01*
X160003205Y-149406008D01*
X160003194Y-149406019D01*
X159839612Y-149611144D01*
X159708436Y-149838348D01*
X159708428Y-149838364D01*
X159612578Y-150082587D01*
X159554198Y-150338370D01*
X159554197Y-150338374D01*
X159534592Y-150600000D01*
X147805409Y-150600000D01*
X147805409Y-150599999D01*
X147785803Y-150338369D01*
X147727421Y-150082583D01*
X147665466Y-149924723D01*
X147631572Y-149838363D01*
X147631569Y-149838357D01*
X147631569Y-149838356D01*
X147525097Y-149653941D01*
X147500388Y-149611143D01*
X147336806Y-149406018D01*
X147336795Y-149406007D01*
X147144480Y-149227566D01*
X146927708Y-149079772D01*
X146927703Y-149079770D01*
X146691332Y-148965939D01*
X146691327Y-148965937D01*
X146691324Y-148965936D01*
X146440616Y-148888603D01*
X146181183Y-148849499D01*
X145918819Y-148849499D01*
X145711272Y-148880782D01*
X145659385Y-148888603D01*
X145514108Y-148933415D01*
X145408678Y-148965936D01*
X145408676Y-148965936D01*
X145408669Y-148965939D01*
X145172298Y-149079770D01*
X145172293Y-149079772D01*
X144955521Y-149227566D01*
X144763206Y-149406007D01*
X144763195Y-149406018D01*
X144599613Y-149611143D01*
X144468437Y-149838347D01*
X144468429Y-149838363D01*
X144372579Y-150082586D01*
X144314199Y-150338369D01*
X144314198Y-150338373D01*
X144294593Y-150599999D01*
X104975364Y-150599999D01*
X104877085Y-150411208D01*
X104867910Y-150391534D01*
X104726009Y-150048954D01*
X104718588Y-150028566D01*
X104607081Y-149674908D01*
X104601467Y-149653956D01*
X104521211Y-149291943D01*
X104517439Y-149270552D01*
X104492322Y-149079770D01*
X104469038Y-148902917D01*
X104467148Y-148881306D01*
X104450737Y-148505428D01*
X104450500Y-148494567D01*
X104450500Y-144780005D01*
X107864341Y-144780005D01*
X107884935Y-145015401D01*
X107892590Y-145043972D01*
X107946097Y-145243663D01*
X108027030Y-145417224D01*
X108045965Y-145457830D01*
X108146632Y-145601598D01*
X108181505Y-145651401D01*
X108348599Y-145818495D01*
X108542170Y-145954035D01*
X108756337Y-146053903D01*
X108984592Y-146115063D01*
X108984595Y-146115063D01*
X108984598Y-146115064D01*
X109219995Y-146135659D01*
X109220000Y-146135659D01*
X109220005Y-146135659D01*
X109455401Y-146115064D01*
X109455403Y-146115063D01*
X109455408Y-146115063D01*
X109683663Y-146053903D01*
X109897830Y-145954035D01*
X110091401Y-145818495D01*
X110258495Y-145651401D01*
X110390337Y-145463111D01*
X112053707Y-145463111D01*
X112073463Y-145777128D01*
X112073465Y-145777144D01*
X112132418Y-146086181D01*
X112132421Y-146086194D01*
X112229646Y-146385422D01*
X112229648Y-146385426D01*
X112363614Y-146670118D01*
X112532204Y-146935774D01*
X112732761Y-147178205D01*
X112962121Y-147393589D01*
X112962124Y-147393591D01*
X112962126Y-147393593D01*
X113216654Y-147578518D01*
X113216658Y-147578521D01*
X113216667Y-147578527D01*
X113492385Y-147730105D01*
X113784926Y-147845930D01*
X114089678Y-147924177D01*
X114401833Y-147963611D01*
X114401838Y-147963611D01*
X114716464Y-147963611D01*
X114716469Y-147963611D01*
X115028624Y-147924177D01*
X115333376Y-147845930D01*
X115625917Y-147730105D01*
X115901635Y-147578527D01*
X116156181Y-147393589D01*
X116385541Y-147178205D01*
X116586098Y-146935774D01*
X116754688Y-146670118D01*
X116888654Y-146385426D01*
X116985882Y-146086190D01*
X117031915Y-145844876D01*
X117044836Y-145777144D01*
X117044836Y-145777137D01*
X117044839Y-145777126D01*
X117060333Y-145530859D01*
X131904700Y-145530859D01*
X131924456Y-145844876D01*
X131924458Y-145844892D01*
X131983411Y-146153929D01*
X131983414Y-146153942D01*
X132080639Y-146453170D01*
X132080641Y-146453174D01*
X132214607Y-146737866D01*
X132383197Y-147003522D01*
X132583754Y-147245953D01*
X132813114Y-147461337D01*
X132813117Y-147461339D01*
X132813119Y-147461341D01*
X133067647Y-147646266D01*
X133067651Y-147646269D01*
X133067660Y-147646275D01*
X133343378Y-147797853D01*
X133635919Y-147913678D01*
X133940671Y-147991925D01*
X134252826Y-148031359D01*
X134252831Y-148031359D01*
X134567457Y-148031359D01*
X134567462Y-148031359D01*
X134879617Y-147991925D01*
X135184369Y-147913678D01*
X135476910Y-147797853D01*
X135752628Y-147646275D01*
X136007174Y-147461337D01*
X136236534Y-147245953D01*
X136437091Y-147003522D01*
X136605681Y-146737866D01*
X136739647Y-146453174D01*
X136836875Y-146153938D01*
X136895832Y-145844874D01*
X136915588Y-145530859D01*
X136895832Y-145216844D01*
X136895830Y-145216834D01*
X136895829Y-145216825D01*
X136837984Y-144913595D01*
X136836875Y-144907780D01*
X136739647Y-144608544D01*
X136605681Y-144323852D01*
X136437091Y-144058196D01*
X136236534Y-143815765D01*
X136007174Y-143600381D01*
X136007171Y-143600378D01*
X136007168Y-143600376D01*
X135752640Y-143415451D01*
X135752629Y-143415444D01*
X135752630Y-143415444D01*
X135752628Y-143415443D01*
X135629397Y-143347696D01*
X135476913Y-143263866D01*
X135376750Y-143224209D01*
X135184369Y-143148040D01*
X135184362Y-143148038D01*
X135184359Y-143148037D01*
X134993146Y-143098942D01*
X134879617Y-143069793D01*
X134567462Y-143030359D01*
X134252826Y-143030359D01*
X133940671Y-143069793D01*
X133635928Y-143148037D01*
X133635922Y-143148039D01*
X133635919Y-143148040D01*
X133517685Y-143194851D01*
X133343374Y-143263866D01*
X133067658Y-143415444D01*
X133067647Y-143415451D01*
X132813119Y-143600376D01*
X132583753Y-143815766D01*
X132383195Y-144058198D01*
X132214610Y-144323846D01*
X132080639Y-144608547D01*
X131983414Y-144907775D01*
X131983411Y-144907788D01*
X131924458Y-145216825D01*
X131924456Y-145216841D01*
X131904700Y-145530859D01*
X117060333Y-145530859D01*
X117064595Y-145463111D01*
X117044839Y-145149096D01*
X117044837Y-145149086D01*
X117044836Y-145149077D01*
X116998807Y-144907788D01*
X116985882Y-144840032D01*
X116888654Y-144540796D01*
X116754688Y-144256104D01*
X116586098Y-143990448D01*
X116385541Y-143748017D01*
X116156181Y-143532633D01*
X116156178Y-143532630D01*
X116156175Y-143532628D01*
X115901647Y-143347703D01*
X115901636Y-143347696D01*
X115901637Y-143347696D01*
X115901635Y-143347695D01*
X115775761Y-143278495D01*
X115625920Y-143196118D01*
X115504488Y-143148040D01*
X115333376Y-143080292D01*
X115333369Y-143080290D01*
X115333366Y-143080289D01*
X115138900Y-143030359D01*
X115028624Y-143002045D01*
X114716469Y-142962611D01*
X114401833Y-142962611D01*
X114089678Y-143002045D01*
X113784935Y-143080289D01*
X113784929Y-143080291D01*
X113784926Y-143080292D01*
X113706364Y-143111397D01*
X113492381Y-143196118D01*
X113216665Y-143347696D01*
X113216654Y-143347703D01*
X112962126Y-143532628D01*
X112732760Y-143748018D01*
X112532202Y-143990450D01*
X112363617Y-144256098D01*
X112229646Y-144540799D01*
X112132421Y-144840027D01*
X112132418Y-144840040D01*
X112073465Y-145149077D01*
X112073463Y-145149093D01*
X112053707Y-145463111D01*
X110390337Y-145463111D01*
X110394035Y-145457830D01*
X110493903Y-145243663D01*
X110555063Y-145015408D01*
X110555064Y-145015401D01*
X110575659Y-144780005D01*
X110575659Y-144779994D01*
X110555064Y-144544598D01*
X110555063Y-144544595D01*
X110555063Y-144544592D01*
X110493903Y-144316337D01*
X110394035Y-144102171D01*
X110376580Y-144077243D01*
X110300601Y-143968733D01*
X110258495Y-143908599D01*
X110091401Y-143741505D01*
X110052074Y-143713967D01*
X109984891Y-143643789D01*
X109949678Y-143553240D01*
X109951797Y-143456108D01*
X109990925Y-143367181D01*
X110052073Y-143306032D01*
X110091401Y-143278495D01*
X110258495Y-143111401D01*
X110394035Y-142917830D01*
X110493903Y-142703663D01*
X110555063Y-142475408D01*
X110555064Y-142475401D01*
X110575659Y-142240005D01*
X110575659Y-142239994D01*
X110555064Y-142004598D01*
X110555063Y-142004595D01*
X110555063Y-142004592D01*
X110493903Y-141776337D01*
X110394035Y-141562171D01*
X110258495Y-141368599D01*
X110258492Y-141368596D01*
X110255151Y-141364614D01*
X110253150Y-141360966D01*
X110252259Y-141359694D01*
X110252398Y-141359596D01*
X110208423Y-141279434D01*
X110197848Y-141182857D01*
X110225037Y-141089584D01*
X110285850Y-141013815D01*
X110298571Y-141005135D01*
X110298073Y-141004469D01*
X110312329Y-140993796D01*
X110312331Y-140993796D01*
X110427546Y-140907546D01*
X110513796Y-140792331D01*
X110564091Y-140657483D01*
X110570500Y-140597873D01*
X110570499Y-138802128D01*
X110564091Y-138742517D01*
X110513796Y-138607669D01*
X110427546Y-138492454D01*
X110312331Y-138406204D01*
X110232117Y-138376286D01*
X110177481Y-138355908D01*
X110117873Y-138349500D01*
X108322134Y-138349500D01*
X108322130Y-138349500D01*
X108322128Y-138349501D01*
X108309314Y-138350878D01*
X108262519Y-138355908D01*
X108262515Y-138355909D01*
X108127670Y-138406203D01*
X108012455Y-138492453D01*
X108012453Y-138492455D01*
X107926204Y-138607669D01*
X107875908Y-138742518D01*
X107869500Y-138802123D01*
X107869500Y-140597865D01*
X107869500Y-140597868D01*
X107869501Y-140597872D01*
X107871567Y-140617093D01*
X107875908Y-140657480D01*
X107875909Y-140657483D01*
X107926204Y-140792331D01*
X108012454Y-140907546D01*
X108127669Y-140993796D01*
X108127670Y-140993796D01*
X108141927Y-141004469D01*
X108139454Y-141007771D01*
X108187965Y-141048305D01*
X108233006Y-141134389D01*
X108241675Y-141231156D01*
X108212653Y-141323875D01*
X108184855Y-141364605D01*
X108181513Y-141368587D01*
X108045965Y-141562169D01*
X108045961Y-141562177D01*
X107946098Y-141776333D01*
X107946097Y-141776335D01*
X107884935Y-142004598D01*
X107864341Y-142239994D01*
X107864341Y-142240005D01*
X107884935Y-142475401D01*
X107914591Y-142586082D01*
X107946097Y-142703663D01*
X108045965Y-142917830D01*
X108181505Y-143111401D01*
X108348599Y-143278495D01*
X108387925Y-143306031D01*
X108455107Y-143376209D01*
X108490321Y-143466758D01*
X108488202Y-143563890D01*
X108449074Y-143652818D01*
X108387928Y-143713965D01*
X108348603Y-143741501D01*
X108181504Y-143908600D01*
X108045965Y-144102169D01*
X108045961Y-144102177D01*
X107946098Y-144316333D01*
X107946097Y-144316335D01*
X107884935Y-144544598D01*
X107864341Y-144779994D01*
X107864341Y-144780005D01*
X104450500Y-144780005D01*
X104450500Y-124470005D01*
X106644532Y-124470005D01*
X106664363Y-124696679D01*
X106664365Y-124696694D01*
X106723261Y-124916496D01*
X106723262Y-124916499D01*
X106819428Y-125122727D01*
X106819436Y-125122741D01*
X106949949Y-125309134D01*
X106949953Y-125309139D01*
X107110861Y-125470047D01*
X107110864Y-125470049D01*
X107110865Y-125470050D01*
X107297258Y-125600563D01*
X107297262Y-125600565D01*
X107297266Y-125600568D01*
X107297270Y-125600569D01*
X107297272Y-125600571D01*
X107421008Y-125658270D01*
X107503504Y-125696739D01*
X107723308Y-125755635D01*
X107725537Y-125755830D01*
X107949994Y-125775468D01*
X107950000Y-125775468D01*
X107950006Y-125775468D01*
X108129668Y-125759749D01*
X108176692Y-125755635D01*
X108396496Y-125696739D01*
X108602734Y-125600568D01*
X108789139Y-125470047D01*
X108950047Y-125309139D01*
X109016031Y-125214902D01*
X109086211Y-125147719D01*
X109176760Y-125112506D01*
X109273892Y-125114625D01*
X109362819Y-125153753D01*
X109423968Y-125214902D01*
X109447590Y-125248638D01*
X109485198Y-125302349D01*
X109489953Y-125309139D01*
X109650861Y-125470047D01*
X109650864Y-125470049D01*
X109650865Y-125470050D01*
X109837258Y-125600563D01*
X109837262Y-125600565D01*
X109837266Y-125600568D01*
X109837270Y-125600569D01*
X109837272Y-125600571D01*
X109961008Y-125658270D01*
X110043504Y-125696739D01*
X110263308Y-125755635D01*
X110265537Y-125755830D01*
X110489994Y-125775468D01*
X110490000Y-125775468D01*
X110490005Y-125775468D01*
X110598793Y-125765950D01*
X110695370Y-125776526D01*
X110780549Y-125823256D01*
X110796564Y-125837932D01*
X111262274Y-126303641D01*
X111262276Y-126303643D01*
X111262275Y-126303643D01*
X111320819Y-126362186D01*
X111366811Y-126408178D01*
X111489732Y-126490311D01*
X111626314Y-126546885D01*
X111771307Y-126575726D01*
X111771308Y-126575727D01*
X111771309Y-126575727D01*
X113865992Y-126575727D01*
X113961280Y-126594681D01*
X114042062Y-126648657D01*
X118932139Y-131538734D01*
X118986115Y-131619516D01*
X119005069Y-131714804D01*
X119005069Y-132393346D01*
X119033910Y-132538337D01*
X119033911Y-132538339D01*
X119065481Y-132614557D01*
X119090484Y-132674918D01*
X119090488Y-132674927D01*
X119111594Y-132706514D01*
X119111595Y-132706515D01*
X119172613Y-132797837D01*
X119172614Y-132797838D01*
X119172617Y-132797842D01*
X119874990Y-133500215D01*
X120559506Y-134184731D01*
X120613482Y-134265513D01*
X120632436Y-134360801D01*
X120625557Y-134418926D01*
X120598283Y-134532534D01*
X120577987Y-134790420D01*
X120577987Y-134790431D01*
X120598283Y-135048318D01*
X120658673Y-135299865D01*
X120658674Y-135299867D01*
X120671762Y-135331463D01*
X120757672Y-135538867D01*
X120807846Y-135620743D01*
X120892836Y-135759436D01*
X121060842Y-135956147D01*
X121060847Y-135956152D01*
X121257558Y-136124158D01*
X121319124Y-136161885D01*
X121478128Y-136259323D01*
X121717129Y-136358321D01*
X121968674Y-136418711D01*
X122042358Y-136424510D01*
X122226564Y-136439008D01*
X122226569Y-136439008D01*
X122226574Y-136439008D01*
X122484457Y-136418712D01*
X122484459Y-136418711D01*
X122484464Y-136418711D01*
X122598068Y-136391436D01*
X122695143Y-136387622D01*
X122786294Y-136421249D01*
X122832263Y-136457487D01*
X124118705Y-137743929D01*
X124118704Y-137743929D01*
X124223238Y-137848462D01*
X124223240Y-137848464D01*
X124346161Y-137930597D01*
X124402736Y-137954031D01*
X124402738Y-137954032D01*
X124482740Y-137987171D01*
X124482742Y-137987171D01*
X124482744Y-137987172D01*
X124521461Y-137994873D01*
X124598893Y-138010276D01*
X124598901Y-138010276D01*
X124627736Y-138016012D01*
X124627737Y-138016013D01*
X124627738Y-138016013D01*
X136068230Y-138016013D01*
X136068230Y-138016012D01*
X136213224Y-137987171D01*
X136299350Y-137951496D01*
X136349802Y-137930599D01*
X136349803Y-137930598D01*
X136349806Y-137930597D01*
X136399040Y-137897699D01*
X136472727Y-137848465D01*
X140158328Y-134162861D01*
X140239110Y-134108886D01*
X140334398Y-134089932D01*
X140429686Y-134108886D01*
X140510468Y-134162862D01*
X147430558Y-141082952D01*
X147440484Y-141089584D01*
X147504245Y-141132187D01*
X147504247Y-141132188D01*
X147553477Y-141165083D01*
X147553478Y-141165083D01*
X147553479Y-141165084D01*
X147596387Y-141182857D01*
X147610054Y-141188518D01*
X147610056Y-141188519D01*
X147690058Y-141221658D01*
X147690060Y-141221658D01*
X147690062Y-141221659D01*
X147728779Y-141229360D01*
X147806211Y-141244763D01*
X147806219Y-141244763D01*
X147835054Y-141250499D01*
X147835055Y-141250500D01*
X147835056Y-141250500D01*
X147835057Y-141250500D01*
X147982892Y-141250500D01*
X165485993Y-141250500D01*
X165581281Y-141269454D01*
X165662060Y-141323428D01*
X166114966Y-141776333D01*
X166225914Y-141887281D01*
X166279890Y-141968063D01*
X166298844Y-142063351D01*
X166297897Y-142085052D01*
X166284341Y-142240004D01*
X166284341Y-142240005D01*
X166304935Y-142475401D01*
X166334591Y-142586082D01*
X166366097Y-142703663D01*
X166465965Y-142917830D01*
X166601505Y-143111401D01*
X166768599Y-143278495D01*
X166807925Y-143306031D01*
X166875107Y-143376209D01*
X166910321Y-143466758D01*
X166908202Y-143563890D01*
X166869074Y-143652818D01*
X166807928Y-143713965D01*
X166768603Y-143741501D01*
X166601501Y-143908603D01*
X166591197Y-143923320D01*
X166521016Y-143990504D01*
X166430467Y-144025717D01*
X166387228Y-144029500D01*
X160321326Y-144029500D01*
X160226038Y-144010546D01*
X160145256Y-143956570D01*
X160091280Y-143875788D01*
X160079948Y-143841637D01*
X160068717Y-143797284D01*
X160068714Y-143797277D01*
X160068713Y-143797273D01*
X160068712Y-143797271D01*
X159976223Y-143586418D01*
X159976221Y-143586414D01*
X159976217Y-143586405D01*
X159891090Y-143456108D01*
X159850274Y-143393633D01*
X159850268Y-143393626D01*
X159694309Y-143224209D01*
X159694303Y-143224204D01*
X159512594Y-143082775D01*
X159512589Y-143082771D01*
X159310069Y-142973172D01*
X159310067Y-142973171D01*
X159092278Y-142898403D01*
X159092268Y-142898401D01*
X158865137Y-142860500D01*
X158634863Y-142860500D01*
X158407731Y-142898401D01*
X158407721Y-142898403D01*
X158189932Y-142973171D01*
X158189931Y-142973172D01*
X157987412Y-143082770D01*
X157987405Y-143082775D01*
X157805696Y-143224204D01*
X157805690Y-143224209D01*
X157663195Y-143379001D01*
X157584714Y-143436270D01*
X157490290Y-143459145D01*
X157394300Y-143444145D01*
X157311357Y-143393553D01*
X157296805Y-143379001D01*
X157154309Y-143224209D01*
X157154303Y-143224204D01*
X156972594Y-143082775D01*
X156972589Y-143082771D01*
X156770069Y-142973172D01*
X156770067Y-142973171D01*
X156552278Y-142898403D01*
X156552268Y-142898401D01*
X156325137Y-142860500D01*
X156094863Y-142860500D01*
X155867731Y-142898401D01*
X155867721Y-142898403D01*
X155649932Y-142973171D01*
X155649931Y-142973172D01*
X155447412Y-143082770D01*
X155447405Y-143082775D01*
X155265696Y-143224204D01*
X155265690Y-143224209D01*
X155123195Y-143379001D01*
X155044714Y-143436270D01*
X154950290Y-143459145D01*
X154854300Y-143444145D01*
X154771357Y-143393553D01*
X154756805Y-143379001D01*
X154614309Y-143224209D01*
X154614303Y-143224204D01*
X154432594Y-143082775D01*
X154432589Y-143082771D01*
X154230069Y-142973172D01*
X154230067Y-142973171D01*
X154012278Y-142898403D01*
X154012268Y-142898401D01*
X153785137Y-142860500D01*
X153554863Y-142860500D01*
X153327731Y-142898401D01*
X153327721Y-142898403D01*
X153109932Y-142973171D01*
X153109931Y-142973172D01*
X152907412Y-143082770D01*
X152907405Y-143082775D01*
X152725696Y-143224204D01*
X152725690Y-143224209D01*
X152583195Y-143379001D01*
X152504714Y-143436270D01*
X152410290Y-143459145D01*
X152314300Y-143444145D01*
X152231357Y-143393553D01*
X152216805Y-143379001D01*
X152074309Y-143224209D01*
X152074303Y-143224204D01*
X151892594Y-143082775D01*
X151892589Y-143082771D01*
X151690069Y-142973172D01*
X151690067Y-142973171D01*
X151472278Y-142898403D01*
X151472268Y-142898401D01*
X151245137Y-142860500D01*
X151014863Y-142860500D01*
X150787731Y-142898401D01*
X150787721Y-142898403D01*
X150569932Y-142973171D01*
X150569931Y-142973172D01*
X150367412Y-143082770D01*
X150367405Y-143082775D01*
X150185696Y-143224204D01*
X150185690Y-143224209D01*
X150029731Y-143393626D01*
X150029725Y-143393633D01*
X149903784Y-143586403D01*
X149903776Y-143586418D01*
X149811287Y-143797271D01*
X149811284Y-143797280D01*
X149811283Y-143797284D01*
X149754754Y-144020512D01*
X149735738Y-144250000D01*
X149754754Y-144479488D01*
X149811283Y-144702716D01*
X149811285Y-144702721D01*
X149811287Y-144702728D01*
X149903776Y-144913581D01*
X149903784Y-144913596D01*
X150029725Y-145106366D01*
X150029731Y-145106373D01*
X150185692Y-145275792D01*
X150367411Y-145417229D01*
X150569931Y-145526828D01*
X150619925Y-145543991D01*
X150787721Y-145601596D01*
X150787726Y-145601597D01*
X150787729Y-145601598D01*
X151014863Y-145639500D01*
X151245137Y-145639500D01*
X151472271Y-145601598D01*
X151472275Y-145601596D01*
X151472278Y-145601596D01*
X151552841Y-145573938D01*
X151690069Y-145526828D01*
X151892589Y-145417229D01*
X152074308Y-145275792D01*
X152216806Y-145120997D01*
X152295286Y-145063730D01*
X152389709Y-145040854D01*
X152485699Y-145055853D01*
X152568642Y-145106445D01*
X152583185Y-145120988D01*
X152725692Y-145275792D01*
X152907411Y-145417229D01*
X153109931Y-145526828D01*
X153159925Y-145543991D01*
X153327721Y-145601596D01*
X153327726Y-145601597D01*
X153327729Y-145601598D01*
X153554863Y-145639500D01*
X153785137Y-145639500D01*
X154012271Y-145601598D01*
X154012275Y-145601596D01*
X154012278Y-145601596D01*
X154092841Y-145573938D01*
X154230069Y-145526828D01*
X154432589Y-145417229D01*
X154614308Y-145275792D01*
X154756806Y-145120997D01*
X154835286Y-145063730D01*
X154929709Y-145040854D01*
X155025699Y-145055853D01*
X155108642Y-145106445D01*
X155123185Y-145120988D01*
X155265692Y-145275792D01*
X155447411Y-145417229D01*
X155649931Y-145526828D01*
X155699925Y-145543991D01*
X155867721Y-145601596D01*
X155867726Y-145601597D01*
X155867729Y-145601598D01*
X156094863Y-145639500D01*
X156325137Y-145639500D01*
X156552271Y-145601598D01*
X156552275Y-145601596D01*
X156552278Y-145601596D01*
X156632841Y-145573938D01*
X156770069Y-145526828D01*
X156972589Y-145417229D01*
X157154308Y-145275792D01*
X157296806Y-145120997D01*
X157375286Y-145063730D01*
X157469709Y-145040854D01*
X157565699Y-145055853D01*
X157648642Y-145106445D01*
X157663185Y-145120988D01*
X157805692Y-145275792D01*
X157987411Y-145417229D01*
X158189931Y-145526828D01*
X158239925Y-145543991D01*
X158407721Y-145601596D01*
X158407726Y-145601597D01*
X158407729Y-145601598D01*
X158634863Y-145639500D01*
X158865137Y-145639500D01*
X159092271Y-145601598D01*
X159260075Y-145543991D01*
X159340925Y-145530500D01*
X159353917Y-145530500D01*
X166387228Y-145530500D01*
X166482516Y-145549454D01*
X166563298Y-145603430D01*
X166591194Y-145636676D01*
X166601505Y-145651401D01*
X166768599Y-145818495D01*
X166962170Y-145954035D01*
X167176337Y-146053903D01*
X167404592Y-146115063D01*
X167404595Y-146115063D01*
X167404598Y-146115064D01*
X167639995Y-146135659D01*
X167640000Y-146135659D01*
X167640005Y-146135659D01*
X167875401Y-146115064D01*
X167875403Y-146115063D01*
X167875408Y-146115063D01*
X168103663Y-146053903D01*
X168317830Y-145954035D01*
X168511401Y-145818495D01*
X168678495Y-145651401D01*
X168814035Y-145457830D01*
X168913903Y-145243663D01*
X168975063Y-145015408D01*
X168975064Y-145015401D01*
X168995659Y-144780005D01*
X168995659Y-144779994D01*
X168982103Y-144625053D01*
X168992679Y-144528476D01*
X169039410Y-144443297D01*
X169054086Y-144427281D01*
X169665602Y-143815766D01*
X170342952Y-143138416D01*
X170415152Y-143030359D01*
X170425084Y-143015495D01*
X170470818Y-142905084D01*
X170481659Y-142878912D01*
X170510500Y-142733917D01*
X170510500Y-142586082D01*
X170510500Y-134126082D01*
X170488421Y-134015084D01*
X170481659Y-133981088D01*
X170429765Y-133855807D01*
X170426455Y-133846556D01*
X170342955Y-133721589D01*
X170342948Y-133721581D01*
X170324082Y-133702714D01*
X170270107Y-133621932D01*
X170251155Y-133526643D01*
X170252103Y-133504946D01*
X170265659Y-133350005D01*
X170265659Y-133349994D01*
X170252103Y-133195052D01*
X170262679Y-133098475D01*
X170309410Y-133013296D01*
X170324086Y-132997280D01*
X170484960Y-132836406D01*
X170792952Y-132528415D01*
X170828682Y-132474940D01*
X170875084Y-132405495D01*
X170928590Y-132276320D01*
X170931659Y-132268912D01*
X170956754Y-132142752D01*
X170959247Y-132130220D01*
X170959248Y-132130211D01*
X170960500Y-132123918D01*
X170960500Y-126896082D01*
X170931658Y-126751087D01*
X170875084Y-126614505D01*
X170829902Y-126546885D01*
X170792952Y-126491584D01*
X169448416Y-125147048D01*
X169448412Y-125147045D01*
X169448410Y-125147043D01*
X169448411Y-125147043D01*
X169374732Y-125097815D01*
X169374729Y-125097812D01*
X169374729Y-125097813D01*
X169325495Y-125064916D01*
X169188913Y-125008342D01*
X169188911Y-125008341D01*
X169043920Y-124979500D01*
X169043918Y-124979500D01*
X155191302Y-124979500D01*
X155191299Y-124979500D01*
X155046308Y-125008341D01*
X154909727Y-125064915D01*
X154909722Y-125064917D01*
X154860491Y-125097811D01*
X154860490Y-125097813D01*
X154838500Y-125112506D01*
X154786802Y-125147049D01*
X153525468Y-126408383D01*
X153444686Y-126462359D01*
X153349398Y-126481313D01*
X153254110Y-126462359D01*
X153173328Y-126408383D01*
X152004399Y-125239454D01*
X150651994Y-123887048D01*
X150651990Y-123887045D01*
X150569932Y-123832216D01*
X150569928Y-123832214D01*
X150529079Y-123804918D01*
X150529068Y-123804913D01*
X150392492Y-123748342D01*
X150392489Y-123748341D01*
X150247498Y-123719500D01*
X150247496Y-123719500D01*
X144700534Y-123719500D01*
X144605246Y-123700546D01*
X144524464Y-123646570D01*
X144510341Y-123631156D01*
X144510049Y-123630864D01*
X144510047Y-123630861D01*
X144349139Y-123469953D01*
X144349135Y-123469950D01*
X144341451Y-123462266D01*
X144342348Y-123461368D01*
X144288629Y-123394431D01*
X144261447Y-123301156D01*
X144260500Y-123279465D01*
X144260500Y-113004268D01*
X147788700Y-113004268D01*
X147808895Y-113183510D01*
X147808896Y-113183516D01*
X147808897Y-113183520D01*
X147868476Y-113353787D01*
X147868477Y-113353788D01*
X147868479Y-113353794D01*
X147964445Y-113506522D01*
X147964447Y-113506524D01*
X147964449Y-113506527D01*
X148092003Y-113634081D01*
X148092005Y-113634082D01*
X148092007Y-113634084D01*
X148244735Y-113730050D01*
X148244738Y-113730051D01*
X148244743Y-113730054D01*
X148415010Y-113789633D01*
X148415019Y-113789634D01*
X148594261Y-113809830D01*
X148594265Y-113809830D01*
X148594269Y-113809830D01*
X148734173Y-113794066D01*
X148773520Y-113789633D01*
X148943787Y-113730054D01*
X148943792Y-113730050D01*
X148943794Y-113730050D01*
X149072061Y-113649454D01*
X149096527Y-113634081D01*
X149224081Y-113506527D01*
X149251387Y-113463070D01*
X149320050Y-113353794D01*
X149320050Y-113353792D01*
X149320054Y-113353787D01*
X149365313Y-113224441D01*
X149414674Y-113140765D01*
X149492302Y-113082344D01*
X149586378Y-113058077D01*
X149682579Y-113071658D01*
X149766259Y-113121020D01*
X149824680Y-113198648D01*
X149840121Y-113246575D01*
X149841552Y-113246192D01*
X149844364Y-113256689D01*
X149844365Y-113256692D01*
X149877277Y-113379522D01*
X149903261Y-113476496D01*
X149903262Y-113476499D01*
X149999428Y-113682727D01*
X149999436Y-113682741D01*
X150129949Y-113869134D01*
X150129953Y-113869139D01*
X150290861Y-114030047D01*
X150290864Y-114030049D01*
X150290865Y-114030050D01*
X150385096Y-114096031D01*
X150452280Y-114166212D01*
X150487493Y-114256761D01*
X150485374Y-114353893D01*
X150446245Y-114442820D01*
X150385096Y-114503969D01*
X150290865Y-114569949D01*
X150129949Y-114730865D01*
X149999436Y-114917258D01*
X149999428Y-114917272D01*
X149903262Y-115123500D01*
X149903261Y-115123503D01*
X149844365Y-115343305D01*
X149844363Y-115343320D01*
X149824532Y-115569994D01*
X149824532Y-115570005D01*
X149844363Y-115796679D01*
X149844365Y-115796694D01*
X149903261Y-116016496D01*
X149903262Y-116016499D01*
X149999428Y-116222727D01*
X149999436Y-116222741D01*
X150129949Y-116409134D01*
X150129953Y-116409139D01*
X150290861Y-116570047D01*
X150290864Y-116570049D01*
X150290865Y-116570050D01*
X150385096Y-116636031D01*
X150452280Y-116706212D01*
X150487493Y-116796761D01*
X150485374Y-116893893D01*
X150446245Y-116982820D01*
X150385096Y-117043969D01*
X150290865Y-117109949D01*
X150129949Y-117270865D01*
X149999436Y-117457258D01*
X149999428Y-117457272D01*
X149903262Y-117663500D01*
X149903261Y-117663503D01*
X149844365Y-117883305D01*
X149844363Y-117883320D01*
X149824532Y-118109994D01*
X149824532Y-118110005D01*
X149844363Y-118336679D01*
X149844365Y-118336694D01*
X149903261Y-118556496D01*
X149903262Y-118556499D01*
X149999428Y-118762727D01*
X149999436Y-118762741D01*
X150129949Y-118949134D01*
X150129953Y-118949139D01*
X150290861Y-119110047D01*
X150290864Y-119110049D01*
X150290865Y-119110050D01*
X150385096Y-119176031D01*
X150452280Y-119246212D01*
X150487493Y-119336761D01*
X150485374Y-119433893D01*
X150446245Y-119522820D01*
X150385096Y-119583969D01*
X150290865Y-119649949D01*
X150129949Y-119810865D01*
X149999436Y-119997258D01*
X149999428Y-119997272D01*
X149903262Y-120203500D01*
X149903261Y-120203503D01*
X149844365Y-120423305D01*
X149844363Y-120423320D01*
X149824532Y-120649994D01*
X149824532Y-120650005D01*
X149844363Y-120876679D01*
X149844365Y-120876694D01*
X149903261Y-121096496D01*
X149903262Y-121096499D01*
X149999428Y-121302727D01*
X149999436Y-121302741D01*
X150129949Y-121489134D01*
X150129953Y-121489139D01*
X150290861Y-121650047D01*
X150290864Y-121650049D01*
X150290865Y-121650050D01*
X150477258Y-121780563D01*
X150477262Y-121780565D01*
X150477266Y-121780568D01*
X150477270Y-121780569D01*
X150477272Y-121780571D01*
X150535116Y-121807544D01*
X150683504Y-121876739D01*
X150903308Y-121935635D01*
X150922984Y-121937356D01*
X151129994Y-121955468D01*
X151130000Y-121955468D01*
X151130006Y-121955468D01*
X151309668Y-121939749D01*
X151356692Y-121935635D01*
X151576496Y-121876739D01*
X151782734Y-121780568D01*
X151969139Y-121650047D01*
X152130047Y-121489139D01*
X152260568Y-121302734D01*
X152356739Y-121096496D01*
X152415635Y-120876692D01*
X152416799Y-120863384D01*
X155949500Y-120863384D01*
X155955547Y-120929924D01*
X155955548Y-120929933D01*
X155955549Y-120929935D01*
X156003266Y-121083069D01*
X156086243Y-121220330D01*
X156086245Y-121220332D01*
X156086247Y-121220335D01*
X156199665Y-121333753D01*
X156199667Y-121333754D01*
X156199669Y-121333756D01*
X156336929Y-121416732D01*
X156336931Y-121416733D01*
X156490067Y-121464452D01*
X156556619Y-121470500D01*
X157058380Y-121470499D01*
X157058384Y-121470499D01*
X157078857Y-121468638D01*
X157124933Y-121464452D01*
X157155124Y-121455044D01*
X157165346Y-121451859D01*
X157261958Y-121441606D01*
X157355140Y-121469105D01*
X157430705Y-121530171D01*
X157472723Y-121602566D01*
X157506204Y-121692331D01*
X157592454Y-121807546D01*
X157707669Y-121893796D01*
X157842517Y-121944091D01*
X157902127Y-121950500D01*
X159597872Y-121950499D01*
X159657483Y-121944091D01*
X159792331Y-121893796D01*
X159907546Y-121807546D01*
X159915471Y-121796958D01*
X159987746Y-121732037D01*
X160079367Y-121699715D01*
X160176383Y-121704914D01*
X160264024Y-121746844D01*
X160290875Y-121770110D01*
X160809478Y-122288713D01*
X160809480Y-122288716D01*
X160921284Y-122400520D01*
X161008091Y-122450637D01*
X161008094Y-122450639D01*
X161043857Y-122471287D01*
X161058215Y-122479577D01*
X161058219Y-122479578D01*
X161210940Y-122520500D01*
X161227119Y-122522630D01*
X161226756Y-122525385D01*
X161297485Y-122539454D01*
X161378267Y-122593430D01*
X161406161Y-122626674D01*
X161521505Y-122791401D01*
X161688599Y-122958495D01*
X161882170Y-123094035D01*
X162096337Y-123193903D01*
X162324592Y-123255063D01*
X162324595Y-123255063D01*
X162324598Y-123255064D01*
X162559995Y-123275659D01*
X162560000Y-123275659D01*
X162560005Y-123275659D01*
X162795401Y-123255064D01*
X162795403Y-123255063D01*
X162795408Y-123255063D01*
X163023663Y-123193903D01*
X163237830Y-123094035D01*
X163431401Y-122958495D01*
X163598495Y-122791401D01*
X163734035Y-122597830D01*
X163833903Y-122383663D01*
X163895063Y-122155408D01*
X163912991Y-121950498D01*
X163915659Y-121920005D01*
X163915659Y-121919994D01*
X163895064Y-121684598D01*
X163895063Y-121684595D01*
X163895063Y-121684592D01*
X163833903Y-121456337D01*
X163776741Y-121333753D01*
X163734038Y-121242177D01*
X163734034Y-121242169D01*
X163684724Y-121171747D01*
X163598495Y-121048599D01*
X163431401Y-120881505D01*
X163392074Y-120853967D01*
X163324891Y-120783789D01*
X163289678Y-120693240D01*
X163291797Y-120596108D01*
X163330925Y-120507181D01*
X163392073Y-120446032D01*
X163431401Y-120418495D01*
X163598495Y-120251401D01*
X163734035Y-120057830D01*
X163833903Y-119843663D01*
X163895063Y-119615408D01*
X163903954Y-119513789D01*
X163915659Y-119380005D01*
X163915659Y-119379994D01*
X163895064Y-119144598D01*
X163895063Y-119144595D01*
X163895063Y-119144592D01*
X163833903Y-118916337D01*
X163764379Y-118767243D01*
X163734038Y-118702177D01*
X163734034Y-118702169D01*
X163632661Y-118557394D01*
X163598495Y-118508599D01*
X163431401Y-118341505D01*
X163392074Y-118313967D01*
X163324891Y-118243789D01*
X163289678Y-118153240D01*
X163291797Y-118056108D01*
X163330925Y-117967181D01*
X163392073Y-117906032D01*
X163431401Y-117878495D01*
X163598495Y-117711401D01*
X163734035Y-117517830D01*
X163833903Y-117303663D01*
X163895063Y-117075408D01*
X163899542Y-117024214D01*
X163915659Y-116840005D01*
X163915659Y-116839994D01*
X163895064Y-116604598D01*
X163895063Y-116604595D01*
X163895063Y-116604592D01*
X163833903Y-116376337D01*
X163773201Y-116246162D01*
X163734038Y-116162177D01*
X163734034Y-116162169D01*
X163684724Y-116091747D01*
X163598495Y-115968599D01*
X163431401Y-115801505D01*
X163392074Y-115773967D01*
X163324891Y-115703789D01*
X163289678Y-115613240D01*
X163291797Y-115516108D01*
X163330925Y-115427181D01*
X163392073Y-115366032D01*
X163431401Y-115338495D01*
X163598495Y-115171401D01*
X163734035Y-114977830D01*
X163833903Y-114763663D01*
X163895063Y-114535408D01*
X163915659Y-114300000D01*
X163915659Y-114299994D01*
X163895064Y-114064598D01*
X163895063Y-114064595D01*
X163895063Y-114064592D01*
X163833903Y-113836337D01*
X163771927Y-113703430D01*
X163734038Y-113622177D01*
X163734034Y-113622169D01*
X163671077Y-113532257D01*
X163598495Y-113428599D01*
X163431401Y-113261505D01*
X163392074Y-113233967D01*
X163324891Y-113163789D01*
X163289678Y-113073240D01*
X163291797Y-112976108D01*
X163330925Y-112887181D01*
X163392073Y-112826032D01*
X163431401Y-112798495D01*
X163598495Y-112631401D01*
X163734035Y-112437830D01*
X163833903Y-112223663D01*
X163895063Y-111995408D01*
X163897814Y-111963969D01*
X163915659Y-111760005D01*
X163915659Y-111759994D01*
X163895064Y-111524598D01*
X163895063Y-111524595D01*
X163895063Y-111524592D01*
X163833903Y-111296337D01*
X163771927Y-111163430D01*
X163734038Y-111082177D01*
X163734034Y-111082169D01*
X163645387Y-110955568D01*
X163598495Y-110888599D01*
X163431401Y-110721505D01*
X163392074Y-110693967D01*
X163324891Y-110623789D01*
X163289678Y-110533240D01*
X163291797Y-110436108D01*
X163330925Y-110347181D01*
X163392073Y-110286032D01*
X163431401Y-110258495D01*
X163598495Y-110091401D01*
X163734035Y-109897830D01*
X163833903Y-109683663D01*
X163895063Y-109455408D01*
X163895064Y-109455401D01*
X163915659Y-109220005D01*
X163915659Y-109219994D01*
X163895064Y-108984598D01*
X163895063Y-108984595D01*
X163895063Y-108984592D01*
X163833903Y-108756337D01*
X163771927Y-108623430D01*
X163734038Y-108542177D01*
X163734034Y-108542169D01*
X163684724Y-108471747D01*
X163598495Y-108348599D01*
X163431401Y-108181505D01*
X163392074Y-108153967D01*
X163324891Y-108083789D01*
X163289678Y-107993240D01*
X163291797Y-107896108D01*
X163330925Y-107807181D01*
X163392073Y-107746032D01*
X163431401Y-107718495D01*
X163598495Y-107551401D01*
X163734035Y-107357830D01*
X163833903Y-107143663D01*
X163895063Y-106915408D01*
X163899118Y-106869060D01*
X163915659Y-106680005D01*
X163915659Y-106679994D01*
X163895064Y-106444598D01*
X163895063Y-106444595D01*
X163895063Y-106444592D01*
X163833903Y-106216337D01*
X163771927Y-106083430D01*
X163734038Y-106002177D01*
X163734034Y-106002169D01*
X163665110Y-105903735D01*
X163598495Y-105808599D01*
X163431401Y-105641505D01*
X163392074Y-105613967D01*
X163324891Y-105543789D01*
X163289678Y-105453240D01*
X163291797Y-105356108D01*
X163330925Y-105267181D01*
X163392073Y-105206032D01*
X163431401Y-105178495D01*
X163598495Y-105011401D01*
X163734035Y-104817830D01*
X163833903Y-104603663D01*
X163895063Y-104375408D01*
X163897814Y-104343969D01*
X163915659Y-104140005D01*
X163915659Y-104139994D01*
X163895064Y-103904598D01*
X163895063Y-103904595D01*
X163895063Y-103904592D01*
X163833903Y-103676337D01*
X163776587Y-103553423D01*
X163734038Y-103462177D01*
X163734034Y-103462169D01*
X163644595Y-103334437D01*
X163598495Y-103268599D01*
X163598492Y-103268596D01*
X163595151Y-103264614D01*
X163593150Y-103260966D01*
X163592259Y-103259694D01*
X163592398Y-103259596D01*
X163548423Y-103179434D01*
X163537848Y-103082857D01*
X163565037Y-102989584D01*
X163625850Y-102913815D01*
X163638571Y-102905135D01*
X163638073Y-102904469D01*
X163652329Y-102893796D01*
X163652331Y-102893796D01*
X163767546Y-102807546D01*
X163853796Y-102692331D01*
X163904091Y-102557483D01*
X163910500Y-102497873D01*
X163910499Y-100702128D01*
X163904091Y-100642517D01*
X163853796Y-100507669D01*
X163767546Y-100392454D01*
X163652331Y-100306204D01*
X163572117Y-100276286D01*
X163517481Y-100255908D01*
X163457873Y-100249500D01*
X161662134Y-100249500D01*
X161662130Y-100249500D01*
X161662128Y-100249501D01*
X161649314Y-100250878D01*
X161602519Y-100255908D01*
X161602515Y-100255909D01*
X161467670Y-100306203D01*
X161352455Y-100392453D01*
X161352453Y-100392455D01*
X161266204Y-100507669D01*
X161215908Y-100642518D01*
X161209500Y-100702123D01*
X161209500Y-102497865D01*
X161209500Y-102497868D01*
X161209501Y-102497872D01*
X161210368Y-102505937D01*
X161215908Y-102557480D01*
X161215909Y-102557484D01*
X161263332Y-102684632D01*
X161266204Y-102692331D01*
X161352454Y-102807546D01*
X161467669Y-102893796D01*
X161467670Y-102893796D01*
X161481927Y-102904469D01*
X161479454Y-102907771D01*
X161527965Y-102948305D01*
X161573006Y-103034389D01*
X161581675Y-103131156D01*
X161552653Y-103223875D01*
X161524855Y-103264605D01*
X161521513Y-103268587D01*
X161385965Y-103462169D01*
X161385961Y-103462177D01*
X161286098Y-103676333D01*
X161286097Y-103676335D01*
X161224935Y-103904598D01*
X161204341Y-104139994D01*
X161204341Y-104140005D01*
X161224935Y-104375401D01*
X161224936Y-104375404D01*
X161240649Y-104434047D01*
X161247002Y-104530994D01*
X161215772Y-104622993D01*
X161176205Y-104674558D01*
X161114198Y-104736567D01*
X161033418Y-104790544D01*
X160938130Y-104809500D01*
X160046764Y-104809500D01*
X159951476Y-104790546D01*
X159870694Y-104736570D01*
X159842794Y-104703319D01*
X159819911Y-104670639D01*
X159750047Y-104570861D01*
X159589139Y-104409953D01*
X159589135Y-104409950D01*
X159589134Y-104409949D01*
X159402741Y-104279436D01*
X159402727Y-104279428D01*
X159196499Y-104183262D01*
X159196496Y-104183261D01*
X158976694Y-104124365D01*
X158976679Y-104124363D01*
X158750006Y-104104532D01*
X158749994Y-104104532D01*
X158523320Y-104124363D01*
X158523305Y-104124365D01*
X158303503Y-104183261D01*
X158303500Y-104183262D01*
X158097272Y-104279428D01*
X158097258Y-104279436D01*
X157910865Y-104409949D01*
X157749951Y-104570863D01*
X157707534Y-104631442D01*
X157637352Y-104698626D01*
X157546803Y-104733838D01*
X157449671Y-104731719D01*
X157374749Y-104701711D01*
X157278070Y-104643267D01*
X157192558Y-104616620D01*
X157124933Y-104595548D01*
X157124931Y-104595547D01*
X157124929Y-104595547D01*
X157058385Y-104589500D01*
X156556615Y-104589500D01*
X156490075Y-104595547D01*
X156490071Y-104595547D01*
X156490067Y-104595548D01*
X156490064Y-104595549D01*
X156336930Y-104643266D01*
X156199669Y-104726243D01*
X156086243Y-104839669D01*
X156003267Y-104976929D01*
X155955547Y-105130070D01*
X155949500Y-105196604D01*
X155949500Y-105623384D01*
X155953121Y-105663227D01*
X155955548Y-105689933D01*
X155955549Y-105689935D01*
X156003266Y-105843069D01*
X156086243Y-105980330D01*
X156086245Y-105980332D01*
X156086247Y-105980335D01*
X156199665Y-106093753D01*
X156199667Y-106093754D01*
X156199669Y-106093756D01*
X156336929Y-106176732D01*
X156336931Y-106176733D01*
X156490067Y-106224452D01*
X156556619Y-106230500D01*
X157058380Y-106230499D01*
X157058384Y-106230499D01*
X157078857Y-106228638D01*
X157124933Y-106224452D01*
X157278069Y-106176733D01*
X157354019Y-106130820D01*
X157374748Y-106118289D01*
X157466099Y-106085213D01*
X157563154Y-106089613D01*
X157651138Y-106130820D01*
X157707534Y-106188558D01*
X157749953Y-106249139D01*
X157910861Y-106410047D01*
X157910864Y-106410049D01*
X157910865Y-106410050D01*
X158005096Y-106476031D01*
X158072280Y-106546212D01*
X158107493Y-106636761D01*
X158105374Y-106733893D01*
X158066245Y-106822820D01*
X158005096Y-106883969D01*
X157910865Y-106949949D01*
X157749951Y-107110863D01*
X157707534Y-107171442D01*
X157637352Y-107238626D01*
X157546803Y-107273838D01*
X157449671Y-107271719D01*
X157374749Y-107241711D01*
X157278070Y-107183267D01*
X157150965Y-107143660D01*
X157124933Y-107135548D01*
X157124931Y-107135547D01*
X157124929Y-107135547D01*
X157058385Y-107129500D01*
X156556615Y-107129500D01*
X156490075Y-107135547D01*
X156490071Y-107135547D01*
X156490067Y-107135548D01*
X156490064Y-107135549D01*
X156336930Y-107183266D01*
X156199669Y-107266243D01*
X156086243Y-107379669D01*
X156003267Y-107516929D01*
X155955547Y-107670070D01*
X155949500Y-107736604D01*
X155949500Y-108163384D01*
X155955547Y-108229924D01*
X155955548Y-108229933D01*
X155959748Y-108243412D01*
X156003266Y-108383069D01*
X156086243Y-108520330D01*
X156086245Y-108520332D01*
X156086247Y-108520335D01*
X156199665Y-108633753D01*
X156199667Y-108633754D01*
X156199669Y-108633756D01*
X156336929Y-108716732D01*
X156336931Y-108716733D01*
X156490067Y-108764452D01*
X156556619Y-108770500D01*
X157058380Y-108770499D01*
X157058384Y-108770499D01*
X157078857Y-108768638D01*
X157124933Y-108764452D01*
X157278069Y-108716733D01*
X157354019Y-108670820D01*
X157374748Y-108658289D01*
X157466099Y-108625213D01*
X157563154Y-108629613D01*
X157651138Y-108670820D01*
X157707535Y-108728559D01*
X157746004Y-108783500D01*
X157749953Y-108789139D01*
X157910861Y-108950047D01*
X157910864Y-108950049D01*
X157910865Y-108950050D01*
X158005096Y-109016031D01*
X158072280Y-109086212D01*
X158107493Y-109176761D01*
X158105374Y-109273893D01*
X158066245Y-109362820D01*
X158005096Y-109423969D01*
X157910865Y-109489949D01*
X157749951Y-109650863D01*
X157707534Y-109711442D01*
X157637352Y-109778626D01*
X157546803Y-109813838D01*
X157449671Y-109811719D01*
X157374749Y-109781711D01*
X157278070Y-109723267D01*
X157150965Y-109683660D01*
X157124933Y-109675548D01*
X157124931Y-109675547D01*
X157124929Y-109675547D01*
X157058385Y-109669500D01*
X156556615Y-109669500D01*
X156490075Y-109675547D01*
X156490071Y-109675547D01*
X156490067Y-109675548D01*
X156490064Y-109675549D01*
X156336930Y-109723266D01*
X156199669Y-109806243D01*
X156086243Y-109919669D01*
X156003267Y-110056929D01*
X155955547Y-110210070D01*
X155949500Y-110276604D01*
X155949500Y-110703384D01*
X155955547Y-110769924D01*
X155955548Y-110769933D01*
X155955549Y-110769935D01*
X156003266Y-110923069D01*
X156086243Y-111060330D01*
X156086245Y-111060332D01*
X156086247Y-111060335D01*
X156199665Y-111173753D01*
X156199667Y-111173754D01*
X156199669Y-111173756D01*
X156336929Y-111256732D01*
X156336931Y-111256733D01*
X156490067Y-111304452D01*
X156556619Y-111310500D01*
X157058380Y-111310499D01*
X157058384Y-111310499D01*
X157078895Y-111308635D01*
X157124933Y-111304452D01*
X157278069Y-111256733D01*
X157373090Y-111199291D01*
X157374748Y-111198289D01*
X157466099Y-111165213D01*
X157563154Y-111169613D01*
X157651138Y-111210820D01*
X157707534Y-111268558D01*
X157749953Y-111329139D01*
X157910861Y-111490047D01*
X157910864Y-111490049D01*
X157910865Y-111490050D01*
X158005096Y-111556031D01*
X158072280Y-111626212D01*
X158107493Y-111716761D01*
X158105374Y-111813893D01*
X158066245Y-111902820D01*
X158005096Y-111963969D01*
X157910865Y-112029949D01*
X157749951Y-112190863D01*
X157707534Y-112251442D01*
X157637352Y-112318626D01*
X157546803Y-112353838D01*
X157449671Y-112351719D01*
X157374749Y-112321711D01*
X157278070Y-112263267D01*
X157150965Y-112223660D01*
X157124933Y-112215548D01*
X157124931Y-112215547D01*
X157124929Y-112215547D01*
X157058385Y-112209500D01*
X156556615Y-112209500D01*
X156490075Y-112215547D01*
X156490071Y-112215547D01*
X156490067Y-112215548D01*
X156490064Y-112215549D01*
X156336930Y-112263266D01*
X156199669Y-112346243D01*
X156086243Y-112459669D01*
X156003267Y-112596929D01*
X155955547Y-112750070D01*
X155949500Y-112816604D01*
X155949500Y-113243384D01*
X155955547Y-113309924D01*
X155955548Y-113309933D01*
X155955549Y-113309935D01*
X156003266Y-113463069D01*
X156086243Y-113600330D01*
X156086245Y-113600332D01*
X156086247Y-113600335D01*
X156199665Y-113713753D01*
X156199667Y-113713754D01*
X156199669Y-113713756D01*
X156336929Y-113796732D01*
X156336931Y-113796733D01*
X156490067Y-113844452D01*
X156556619Y-113850500D01*
X157058380Y-113850499D01*
X157058384Y-113850499D01*
X157078857Y-113848638D01*
X157124933Y-113844452D01*
X157278069Y-113796733D01*
X157345802Y-113755787D01*
X157374748Y-113738289D01*
X157466099Y-113705213D01*
X157563154Y-113709613D01*
X157651138Y-113750820D01*
X157707534Y-113808558D01*
X157749953Y-113869139D01*
X157910861Y-114030047D01*
X157910864Y-114030049D01*
X157910865Y-114030050D01*
X158005096Y-114096031D01*
X158072280Y-114166212D01*
X158107493Y-114256761D01*
X158105374Y-114353893D01*
X158066245Y-114442820D01*
X158005096Y-114503969D01*
X157910865Y-114569949D01*
X157749949Y-114730865D01*
X157619436Y-114917258D01*
X157619428Y-114917272D01*
X157523262Y-115123500D01*
X157523261Y-115123503D01*
X157464365Y-115343305D01*
X157464363Y-115343320D01*
X157444532Y-115569994D01*
X157444532Y-115570005D01*
X157464363Y-115796679D01*
X157464365Y-115796694D01*
X157523261Y-116016496D01*
X157523262Y-116016499D01*
X157619428Y-116222727D01*
X157619436Y-116222741D01*
X157749949Y-116409134D01*
X157749953Y-116409139D01*
X157910861Y-116570047D01*
X157910864Y-116570049D01*
X157910865Y-116570050D01*
X158005096Y-116636031D01*
X158072280Y-116706212D01*
X158107493Y-116796761D01*
X158105374Y-116893893D01*
X158066245Y-116982820D01*
X158005096Y-117043969D01*
X157910865Y-117109949D01*
X157749949Y-117270865D01*
X157619436Y-117457258D01*
X157619428Y-117457272D01*
X157523262Y-117663500D01*
X157523261Y-117663503D01*
X157464365Y-117883305D01*
X157464363Y-117883320D01*
X157444532Y-118109994D01*
X157444532Y-118110005D01*
X157464363Y-118336679D01*
X157464365Y-118336694D01*
X157523261Y-118556496D01*
X157523262Y-118556499D01*
X157619428Y-118762727D01*
X157619436Y-118762741D01*
X157749949Y-118949134D01*
X157749953Y-118949139D01*
X157797399Y-118996585D01*
X157851373Y-119077364D01*
X157870327Y-119172652D01*
X157851373Y-119267940D01*
X157797397Y-119348722D01*
X157716615Y-119402698D01*
X157708344Y-119405952D01*
X157707671Y-119406202D01*
X157592455Y-119492453D01*
X157592453Y-119492455D01*
X157506204Y-119607669D01*
X157472725Y-119697431D01*
X157421666Y-119780088D01*
X157342862Y-119836913D01*
X157248311Y-119859256D01*
X157165348Y-119848141D01*
X157124934Y-119835548D01*
X157124930Y-119835547D01*
X157058385Y-119829500D01*
X156556615Y-119829500D01*
X156490075Y-119835547D01*
X156490071Y-119835547D01*
X156490067Y-119835548D01*
X156490064Y-119835549D01*
X156336930Y-119883266D01*
X156199669Y-119966243D01*
X156086243Y-120079669D01*
X156003267Y-120216929D01*
X155955547Y-120370070D01*
X155949500Y-120436604D01*
X155949500Y-120863384D01*
X152416799Y-120863384D01*
X152427072Y-120745965D01*
X152435468Y-120650005D01*
X152435468Y-120649994D01*
X152415636Y-120423320D01*
X152415635Y-120423308D01*
X152356739Y-120203504D01*
X152260568Y-119997266D01*
X152260565Y-119997262D01*
X152260563Y-119997258D01*
X152130050Y-119810865D01*
X152130049Y-119810864D01*
X152130047Y-119810861D01*
X151969139Y-119649953D01*
X151969133Y-119649949D01*
X151908752Y-119607670D01*
X151874902Y-119583968D01*
X151807719Y-119513789D01*
X151772506Y-119423240D01*
X151774625Y-119326108D01*
X151813753Y-119237181D01*
X151874902Y-119176031D01*
X151969139Y-119110047D01*
X152130047Y-118949139D01*
X152172465Y-118888558D01*
X152242643Y-118821376D01*
X152333192Y-118786162D01*
X152430324Y-118788279D01*
X152505250Y-118818287D01*
X152601931Y-118876733D01*
X152755067Y-118924452D01*
X152821619Y-118930500D01*
X153323380Y-118930499D01*
X153323384Y-118930499D01*
X153343857Y-118928638D01*
X153389933Y-118924452D01*
X153543069Y-118876733D01*
X153680335Y-118793753D01*
X153793753Y-118680335D01*
X153876733Y-118543069D01*
X153924452Y-118389933D01*
X153930500Y-118323381D01*
X153930499Y-117896620D01*
X153929289Y-117883308D01*
X153927359Y-117862061D01*
X153924452Y-117830067D01*
X153876733Y-117676931D01*
X153876733Y-117676930D01*
X153793756Y-117539669D01*
X153793754Y-117539667D01*
X153793753Y-117539665D01*
X153680335Y-117426247D01*
X153680332Y-117426245D01*
X153680330Y-117426243D01*
X153543070Y-117343267D01*
X153415965Y-117303660D01*
X153389933Y-117295548D01*
X153389931Y-117295547D01*
X153389929Y-117295547D01*
X153323385Y-117289500D01*
X152821615Y-117289500D01*
X152755075Y-117295547D01*
X152755071Y-117295547D01*
X152755067Y-117295548D01*
X152755064Y-117295549D01*
X152601931Y-117343266D01*
X152505249Y-117401712D01*
X152413897Y-117434787D01*
X152316842Y-117430385D01*
X152228859Y-117389177D01*
X152172464Y-117331440D01*
X152147333Y-117295549D01*
X152130047Y-117270861D01*
X151969139Y-117109953D01*
X151969133Y-117109949D01*
X151895120Y-117058125D01*
X151874902Y-117043968D01*
X151807719Y-116973789D01*
X151772506Y-116883240D01*
X151774625Y-116786108D01*
X151813753Y-116697181D01*
X151874902Y-116636031D01*
X151969139Y-116570047D01*
X152130047Y-116409139D01*
X152172465Y-116348558D01*
X152242643Y-116281376D01*
X152333192Y-116246162D01*
X152430324Y-116248279D01*
X152505250Y-116278287D01*
X152601931Y-116336733D01*
X152755067Y-116384452D01*
X152821619Y-116390500D01*
X153323380Y-116390499D01*
X153323384Y-116390499D01*
X153343857Y-116388638D01*
X153389933Y-116384452D01*
X153543069Y-116336733D01*
X153680335Y-116253753D01*
X153793753Y-116140335D01*
X153876733Y-116003069D01*
X153924452Y-115849933D01*
X153930500Y-115783381D01*
X153930499Y-115356620D01*
X153929289Y-115343308D01*
X153928173Y-115331022D01*
X153924452Y-115290067D01*
X153876733Y-115136931D01*
X153876733Y-115136930D01*
X153793756Y-114999669D01*
X153793754Y-114999667D01*
X153793753Y-114999665D01*
X153680335Y-114886247D01*
X153680332Y-114886245D01*
X153680330Y-114886243D01*
X153543070Y-114803267D01*
X153415965Y-114763660D01*
X153389933Y-114755548D01*
X153389931Y-114755547D01*
X153389929Y-114755547D01*
X153323385Y-114749500D01*
X152821615Y-114749500D01*
X152755075Y-114755547D01*
X152755071Y-114755547D01*
X152755067Y-114755548D01*
X152755064Y-114755549D01*
X152601931Y-114803266D01*
X152505249Y-114861712D01*
X152413897Y-114894787D01*
X152316842Y-114890385D01*
X152228859Y-114849177D01*
X152172464Y-114791440D01*
X152147333Y-114755549D01*
X152130047Y-114730861D01*
X151969139Y-114569953D01*
X151969133Y-114569949D01*
X151919793Y-114535401D01*
X151874902Y-114503968D01*
X151807719Y-114433789D01*
X151772506Y-114343240D01*
X151774625Y-114246108D01*
X151813753Y-114157181D01*
X151874902Y-114096031D01*
X151969139Y-114030047D01*
X152130047Y-113869139D01*
X152172465Y-113808558D01*
X152242643Y-113741376D01*
X152333192Y-113706162D01*
X152430324Y-113708279D01*
X152505250Y-113738287D01*
X152601931Y-113796733D01*
X152755067Y-113844452D01*
X152821619Y-113850500D01*
X153323380Y-113850499D01*
X153323384Y-113850499D01*
X153343857Y-113848638D01*
X153389933Y-113844452D01*
X153543069Y-113796733D01*
X153680335Y-113713753D01*
X153793753Y-113600335D01*
X153876733Y-113463069D01*
X153924452Y-113309933D01*
X153930500Y-113243381D01*
X153930499Y-112816620D01*
X153929289Y-112803308D01*
X153924651Y-112752262D01*
X153924452Y-112750067D01*
X153877541Y-112599523D01*
X153876733Y-112596930D01*
X153793756Y-112459669D01*
X153793754Y-112459667D01*
X153793753Y-112459665D01*
X153680335Y-112346247D01*
X153680332Y-112346245D01*
X153680330Y-112346243D01*
X153543070Y-112263267D01*
X153415965Y-112223660D01*
X153389933Y-112215548D01*
X153389931Y-112215547D01*
X153389929Y-112215547D01*
X153323385Y-112209500D01*
X152821615Y-112209500D01*
X152755075Y-112215547D01*
X152755071Y-112215547D01*
X152755067Y-112215548D01*
X152755064Y-112215549D01*
X152601931Y-112263266D01*
X152505249Y-112321712D01*
X152413897Y-112354787D01*
X152316842Y-112350385D01*
X152228859Y-112309177D01*
X152172464Y-112251440D01*
X152169096Y-112246630D01*
X152130047Y-112190861D01*
X151969139Y-112029953D01*
X151969133Y-112029949D01*
X151923415Y-111997937D01*
X151874902Y-111963968D01*
X151807719Y-111893789D01*
X151772506Y-111803240D01*
X151774625Y-111706108D01*
X151813753Y-111617181D01*
X151874902Y-111556031D01*
X151969139Y-111490047D01*
X152130047Y-111329139D01*
X152260568Y-111142734D01*
X152356739Y-110936496D01*
X152415635Y-110716692D01*
X152420375Y-110662512D01*
X152435468Y-110490005D01*
X152435468Y-110489994D01*
X152415636Y-110263320D01*
X152415635Y-110263308D01*
X152356739Y-110043504D01*
X152284925Y-109889500D01*
X152260571Y-109837272D01*
X152260563Y-109837258D01*
X152130050Y-109650865D01*
X152130048Y-109650863D01*
X152130047Y-109650861D01*
X151969139Y-109489953D01*
X151969133Y-109489949D01*
X151880967Y-109428215D01*
X151874902Y-109423968D01*
X151807719Y-109353789D01*
X151772506Y-109263240D01*
X151774625Y-109166108D01*
X151813753Y-109077181D01*
X151874902Y-109016031D01*
X151969139Y-108950047D01*
X152130047Y-108789139D01*
X152260568Y-108602734D01*
X152356739Y-108396496D01*
X152415635Y-108176692D01*
X152427710Y-108038674D01*
X152435468Y-107950005D01*
X152435468Y-107949994D01*
X152415636Y-107723320D01*
X152415635Y-107723308D01*
X152356739Y-107503504D01*
X152276086Y-107330544D01*
X152260571Y-107297272D01*
X152260563Y-107297258D01*
X152130050Y-107110865D01*
X152130048Y-107110863D01*
X152130047Y-107110861D01*
X151969139Y-106949953D01*
X151969133Y-106949949D01*
X151882281Y-106889135D01*
X151874902Y-106883968D01*
X151807719Y-106813789D01*
X151772506Y-106723240D01*
X151774625Y-106626108D01*
X151813753Y-106537181D01*
X151874902Y-106476031D01*
X151969139Y-106410047D01*
X152130047Y-106249139D01*
X152260568Y-106062734D01*
X152356739Y-105856496D01*
X152415635Y-105636692D01*
X152426506Y-105512433D01*
X152435468Y-105410005D01*
X152435468Y-105409994D01*
X152415636Y-105183320D01*
X152415635Y-105183308D01*
X152356739Y-104963504D01*
X152260568Y-104757266D01*
X152260565Y-104757262D01*
X152260563Y-104757258D01*
X152130050Y-104570865D01*
X152130048Y-104570863D01*
X152130047Y-104570861D01*
X151969139Y-104409953D01*
X151969133Y-104409949D01*
X151919793Y-104375401D01*
X151874902Y-104343968D01*
X151807719Y-104273789D01*
X151772506Y-104183240D01*
X151774625Y-104086108D01*
X151813753Y-103997181D01*
X151874902Y-103936031D01*
X151969139Y-103870047D01*
X152130047Y-103709139D01*
X152260568Y-103522734D01*
X152356739Y-103316496D01*
X152415635Y-103096692D01*
X152425443Y-102984586D01*
X152435468Y-102870005D01*
X152435468Y-102869994D01*
X152415636Y-102643320D01*
X152415635Y-102643308D01*
X152356739Y-102423504D01*
X152260568Y-102217266D01*
X152260565Y-102217262D01*
X152260563Y-102217258D01*
X152130050Y-102030865D01*
X152130049Y-102030864D01*
X152130047Y-102030861D01*
X151969139Y-101869953D01*
X151969135Y-101869950D01*
X151969134Y-101869949D01*
X151782741Y-101739436D01*
X151782727Y-101739428D01*
X151576499Y-101643262D01*
X151576496Y-101643261D01*
X151356694Y-101584365D01*
X151356679Y-101584363D01*
X151130006Y-101564532D01*
X151129994Y-101564532D01*
X150903320Y-101584363D01*
X150903305Y-101584365D01*
X150683503Y-101643261D01*
X150683500Y-101643262D01*
X150477272Y-101739428D01*
X150477258Y-101739436D01*
X150290865Y-101869949D01*
X150129949Y-102030865D01*
X149999436Y-102217258D01*
X149999428Y-102217272D01*
X149903262Y-102423500D01*
X149903261Y-102423503D01*
X149844365Y-102643305D01*
X149844363Y-102643320D01*
X149824532Y-102869994D01*
X149824532Y-102870005D01*
X149844363Y-103096679D01*
X149844365Y-103096694D01*
X149903261Y-103316496D01*
X149903262Y-103316499D01*
X149999428Y-103522727D01*
X149999436Y-103522741D01*
X150129949Y-103709134D01*
X150129953Y-103709139D01*
X150290861Y-103870047D01*
X150290864Y-103870049D01*
X150290865Y-103870050D01*
X150385096Y-103936031D01*
X150452280Y-104006212D01*
X150487493Y-104096761D01*
X150485374Y-104193893D01*
X150446245Y-104282820D01*
X150385096Y-104343969D01*
X150290865Y-104409949D01*
X150129949Y-104570865D01*
X149999436Y-104757258D01*
X149999428Y-104757272D01*
X149903262Y-104963500D01*
X149903261Y-104963503D01*
X149844365Y-105183305D01*
X149844363Y-105183320D01*
X149824532Y-105409994D01*
X149824532Y-105410005D01*
X149844363Y-105636685D01*
X149844365Y-105636694D01*
X149851474Y-105663227D01*
X149857826Y-105760174D01*
X149826594Y-105852172D01*
X149787027Y-105903735D01*
X149381286Y-106309477D01*
X149381286Y-106309478D01*
X149381284Y-106309480D01*
X149381283Y-106309479D01*
X149269480Y-106421282D01*
X149247146Y-106459967D01*
X149230795Y-106488289D01*
X149207485Y-106528662D01*
X149190422Y-106558216D01*
X149149499Y-106710943D01*
X149149499Y-106889122D01*
X149149500Y-106889135D01*
X149149500Y-108148124D01*
X149130546Y-108243412D01*
X149076570Y-108324194D01*
X148221286Y-109179478D01*
X148221284Y-109179480D01*
X148221283Y-109179479D01*
X148109483Y-109291280D01*
X148109481Y-109291283D01*
X148109480Y-109291284D01*
X148059360Y-109378095D01*
X148059359Y-109378094D01*
X148030424Y-109428212D01*
X148030422Y-109428215D01*
X147989499Y-109580943D01*
X147989499Y-109759122D01*
X147989500Y-109759135D01*
X147989500Y-112390398D01*
X147970546Y-112485686D01*
X147951335Y-112522872D01*
X147868476Y-112654743D01*
X147811833Y-112816620D01*
X147808897Y-112825011D01*
X147808895Y-112825019D01*
X147788700Y-113004261D01*
X147788700Y-113004268D01*
X144260500Y-113004268D01*
X144260500Y-112174007D01*
X144279454Y-112078719D01*
X144333430Y-111997937D01*
X146101320Y-110230047D01*
X147902952Y-108428415D01*
X147959778Y-108343368D01*
X147985084Y-108305495D01*
X148008518Y-108248920D01*
X148041659Y-108168912D01*
X148067561Y-108038691D01*
X148070500Y-108023918D01*
X148070500Y-100256082D01*
X148041658Y-100111087D01*
X147985084Y-99974505D01*
X147902951Y-99851584D01*
X147892486Y-99841119D01*
X147798416Y-99747048D01*
X147798416Y-99747049D01*
X147426059Y-99374692D01*
X147372083Y-99293910D01*
X147353129Y-99198622D01*
X147354077Y-99176920D01*
X147367633Y-99021979D01*
X147367633Y-99021968D01*
X147354077Y-98867026D01*
X147364653Y-98770449D01*
X147411384Y-98685270D01*
X147426060Y-98669254D01*
X147537007Y-98558307D01*
X147902951Y-98192364D01*
X147930875Y-98150573D01*
X147985084Y-98069443D01*
X148041658Y-97932861D01*
X148070500Y-97787866D01*
X148070500Y-90434450D01*
X148089454Y-90339162D01*
X148143428Y-90258383D01*
X148796550Y-89605260D01*
X148877329Y-89551286D01*
X148972617Y-89532332D01*
X149067905Y-89551286D01*
X149130581Y-89588853D01*
X149263434Y-89697883D01*
X149437240Y-89790785D01*
X149437244Y-89790786D01*
X149437247Y-89790788D01*
X149625842Y-89847998D01*
X149728896Y-89858147D01*
X149821866Y-89886349D01*
X149896968Y-89947982D01*
X149942768Y-90033665D01*
X149952291Y-90130352D01*
X149924089Y-90223324D01*
X149880560Y-90282018D01*
X149822823Y-90339755D01*
X149742041Y-90393731D01*
X149671162Y-90411486D01*
X149625841Y-90415950D01*
X149437245Y-90473160D01*
X149437240Y-90473162D01*
X149263437Y-90566062D01*
X149111094Y-90691088D01*
X149111088Y-90691094D01*
X148986062Y-90843437D01*
X148893162Y-91017240D01*
X148893159Y-91017248D01*
X148835949Y-91205842D01*
X148816633Y-91401974D01*
X148835949Y-91598105D01*
X148893159Y-91786699D01*
X148893162Y-91786707D01*
X148986062Y-91960510D01*
X149036057Y-92021428D01*
X149111091Y-92112857D01*
X149263436Y-92237884D01*
X149368769Y-92294185D01*
X149431536Y-92327736D01*
X149506637Y-92389371D01*
X149552435Y-92475054D01*
X149561958Y-92571741D01*
X149533755Y-92664713D01*
X149490227Y-92723403D01*
X149239025Y-92974605D01*
X149189786Y-93048298D01*
X149156891Y-93097528D01*
X149156890Y-93097530D01*
X149105999Y-93220393D01*
X149068434Y-93283067D01*
X148986062Y-93383438D01*
X148893162Y-93557240D01*
X148893159Y-93557248D01*
X148835949Y-93745842D01*
X148816633Y-93941974D01*
X148835949Y-94138105D01*
X148893159Y-94326699D01*
X148893162Y-94326707D01*
X148986062Y-94500510D01*
X149036057Y-94561428D01*
X149111091Y-94652857D01*
X149198267Y-94724401D01*
X149263437Y-94777885D01*
X149437240Y-94870785D01*
X149437244Y-94870786D01*
X149437247Y-94870788D01*
X149625842Y-94927998D01*
X149821974Y-94947315D01*
X150018106Y-94927998D01*
X150206701Y-94870788D01*
X150380512Y-94777884D01*
X150532857Y-94652857D01*
X150657884Y-94500512D01*
X150750788Y-94326701D01*
X150807998Y-94138106D01*
X150827315Y-93941974D01*
X150807998Y-93745842D01*
X150804870Y-93735530D01*
X150800706Y-93721802D01*
X150791183Y-93625115D01*
X150819386Y-93532143D01*
X150862911Y-93473455D01*
X157503829Y-86832537D01*
X157584608Y-86778564D01*
X157679896Y-86759610D01*
X157775184Y-86778564D01*
X157855966Y-86832540D01*
X157899494Y-86891231D01*
X157914089Y-86918537D01*
X157962609Y-86977659D01*
X158039117Y-87070883D01*
X158088571Y-87111469D01*
X158191463Y-87195911D01*
X158365266Y-87288811D01*
X158365270Y-87288812D01*
X158365273Y-87288814D01*
X158553868Y-87346024D01*
X158750000Y-87365341D01*
X158946132Y-87346024D01*
X159134727Y-87288814D01*
X159308538Y-87195910D01*
X159460883Y-87070883D01*
X159476762Y-87051534D01*
X159551862Y-86989902D01*
X159644834Y-86961699D01*
X159669240Y-86960500D01*
X160637197Y-86960500D01*
X160732485Y-86979454D01*
X160813267Y-87033430D01*
X160841161Y-87066674D01*
X160956505Y-87231401D01*
X161123599Y-87398495D01*
X161162925Y-87426031D01*
X161230107Y-87496209D01*
X161265321Y-87586758D01*
X161263202Y-87683890D01*
X161224074Y-87772818D01*
X161162928Y-87833965D01*
X161123603Y-87861501D01*
X160956504Y-88028600D01*
X160913386Y-88090180D01*
X160844108Y-88189120D01*
X160841166Y-88193321D01*
X160770985Y-88260505D01*
X160680435Y-88295717D01*
X160637197Y-88299500D01*
X159669240Y-88299500D01*
X159573952Y-88280546D01*
X159493170Y-88226570D01*
X159476767Y-88208471D01*
X159460883Y-88189117D01*
X159308538Y-88064090D01*
X159308539Y-88064090D01*
X159308536Y-88064088D01*
X159134733Y-87971188D01*
X159134725Y-87971185D01*
X158946131Y-87913975D01*
X158750000Y-87894659D01*
X158553868Y-87913975D01*
X158365274Y-87971185D01*
X158365266Y-87971188D01*
X158191463Y-88064088D01*
X158039120Y-88189114D01*
X158039114Y-88189120D01*
X157914088Y-88341463D01*
X157821188Y-88515266D01*
X157821185Y-88515274D01*
X157763975Y-88703868D01*
X157744659Y-88900000D01*
X157763975Y-89096131D01*
X157821185Y-89284725D01*
X157821188Y-89284733D01*
X157914088Y-89458536D01*
X157977173Y-89535404D01*
X158039117Y-89610883D01*
X158078595Y-89643282D01*
X158191463Y-89735911D01*
X158365266Y-89828811D01*
X158365270Y-89828812D01*
X158365273Y-89828814D01*
X158553868Y-89886024D01*
X158750000Y-89905341D01*
X158946132Y-89886024D01*
X159134727Y-89828814D01*
X159308538Y-89735910D01*
X159460883Y-89610883D01*
X159476762Y-89591534D01*
X159551862Y-89529902D01*
X159644834Y-89501699D01*
X159669240Y-89500500D01*
X160637197Y-89500500D01*
X160732485Y-89519454D01*
X160813267Y-89573430D01*
X160841161Y-89606674D01*
X160956505Y-89771401D01*
X161123599Y-89938495D01*
X161317170Y-90074035D01*
X161531337Y-90173903D01*
X161759592Y-90235063D01*
X161759595Y-90235063D01*
X161759598Y-90235064D01*
X161994995Y-90255659D01*
X161995000Y-90255659D01*
X161995005Y-90255659D01*
X162230401Y-90235064D01*
X162230403Y-90235063D01*
X162230408Y-90235063D01*
X162458663Y-90173903D01*
X162672830Y-90074035D01*
X162866401Y-89938495D01*
X163033495Y-89771401D01*
X163169035Y-89577830D01*
X163268903Y-89363663D01*
X163330063Y-89135408D01*
X163330064Y-89135401D01*
X163350659Y-88900005D01*
X163350659Y-88899994D01*
X163330064Y-88664598D01*
X163330063Y-88664595D01*
X163330063Y-88664592D01*
X163268903Y-88436337D01*
X163196256Y-88280546D01*
X163169038Y-88222177D01*
X163169034Y-88222169D01*
X163061752Y-88068955D01*
X163033495Y-88028599D01*
X162866401Y-87861505D01*
X162827074Y-87833967D01*
X162759891Y-87763789D01*
X162724678Y-87673240D01*
X162726797Y-87576108D01*
X162765925Y-87487181D01*
X162827073Y-87426032D01*
X162866401Y-87398495D01*
X163033495Y-87231401D01*
X163169035Y-87037830D01*
X163268903Y-86823663D01*
X163330063Y-86595408D01*
X163330064Y-86595401D01*
X163350659Y-86360005D01*
X163350659Y-86359994D01*
X163330064Y-86124598D01*
X163330063Y-86124595D01*
X163330063Y-86124592D01*
X163268903Y-85896337D01*
X163196256Y-85740546D01*
X163169038Y-85682177D01*
X163169034Y-85682169D01*
X163079051Y-85553660D01*
X163033495Y-85488599D01*
X162866401Y-85321505D01*
X162827074Y-85293967D01*
X162759891Y-85223789D01*
X162724678Y-85133240D01*
X162726797Y-85036108D01*
X162765925Y-84947181D01*
X162827073Y-84886032D01*
X162866401Y-84858495D01*
X163033495Y-84691401D01*
X163169035Y-84497830D01*
X163268903Y-84283663D01*
X163330063Y-84055408D01*
X163330064Y-84055401D01*
X163350659Y-83820005D01*
X163350659Y-83819994D01*
X163330064Y-83584598D01*
X163330063Y-83584595D01*
X163330063Y-83584592D01*
X163268903Y-83356337D01*
X163191103Y-83189495D01*
X163169038Y-83142177D01*
X163169034Y-83142169D01*
X163079051Y-83013660D01*
X163033495Y-82948599D01*
X162866401Y-82781505D01*
X162827074Y-82753967D01*
X162759891Y-82683789D01*
X162724678Y-82593240D01*
X162726797Y-82496108D01*
X162765925Y-82407181D01*
X162827073Y-82346032D01*
X162866401Y-82318495D01*
X163033495Y-82151401D01*
X163169035Y-81957830D01*
X163268903Y-81743663D01*
X163330063Y-81515408D01*
X163330064Y-81515401D01*
X163350659Y-81280005D01*
X163350659Y-81279994D01*
X163330064Y-81044598D01*
X163330063Y-81044595D01*
X163330063Y-81044592D01*
X163268903Y-80816337D01*
X163191103Y-80649495D01*
X163169038Y-80602177D01*
X163169034Y-80602169D01*
X163079051Y-80473660D01*
X163033495Y-80408599D01*
X162866401Y-80241505D01*
X162827074Y-80213967D01*
X162759891Y-80143789D01*
X162724678Y-80053240D01*
X162726797Y-79956108D01*
X162765925Y-79867181D01*
X162827073Y-79806032D01*
X162866401Y-79778495D01*
X163033495Y-79611401D01*
X163169035Y-79417830D01*
X163268903Y-79203663D01*
X163330063Y-78975408D01*
X163330064Y-78975401D01*
X163350659Y-78740005D01*
X163350659Y-78739994D01*
X163330064Y-78504598D01*
X163330063Y-78504595D01*
X163330063Y-78504592D01*
X163268903Y-78276337D01*
X163169035Y-78062171D01*
X163033495Y-77868599D01*
X162866401Y-77701505D01*
X162672830Y-77565965D01*
X162458663Y-77466097D01*
X162458660Y-77466096D01*
X162230401Y-77404935D01*
X161995005Y-77384341D01*
X161994995Y-77384341D01*
X161759598Y-77404935D01*
X161531335Y-77466097D01*
X161531333Y-77466098D01*
X161317177Y-77565961D01*
X161317169Y-77565965D01*
X161123600Y-77701504D01*
X160956504Y-77868600D01*
X160820965Y-78062169D01*
X160820961Y-78062177D01*
X160721098Y-78276333D01*
X160721097Y-78276335D01*
X160659935Y-78504598D01*
X160639341Y-78739994D01*
X160639341Y-78740005D01*
X160659935Y-78975401D01*
X160659937Y-78975408D01*
X160713172Y-79174088D01*
X160721097Y-79203662D01*
X160721098Y-79203667D01*
X160723045Y-79207841D01*
X160723920Y-79211419D01*
X160724814Y-79213874D01*
X160724545Y-79213971D01*
X160746135Y-79302212D01*
X160731353Y-79398236D01*
X160680950Y-79481294D01*
X160673442Y-79489137D01*
X151242018Y-88920560D01*
X151161236Y-88974536D01*
X151065948Y-88993490D01*
X150970660Y-88974536D01*
X150889878Y-88920560D01*
X150835902Y-88839778D01*
X150818147Y-88768897D01*
X150807998Y-88665842D01*
X150750788Y-88477247D01*
X150750786Y-88477244D01*
X150750785Y-88477240D01*
X150657885Y-88303437D01*
X150643965Y-88286476D01*
X150615116Y-88251323D01*
X150569318Y-88165642D01*
X150559795Y-88068955D01*
X150587997Y-87975983D01*
X150631520Y-87917297D01*
X151712951Y-86835867D01*
X151795084Y-86712946D01*
X151851658Y-86576364D01*
X151855682Y-86556132D01*
X151866287Y-86502818D01*
X151880500Y-86431370D01*
X151880500Y-85806081D01*
X151880499Y-85806079D01*
X151870481Y-85755717D01*
X151851658Y-85661087D01*
X151795084Y-85524505D01*
X151712951Y-85401584D01*
X151663909Y-85352542D01*
X151608416Y-85297048D01*
X151608416Y-85297049D01*
X147789204Y-81477836D01*
X147789200Y-81477833D01*
X147789198Y-81477831D01*
X147789199Y-81477831D01*
X147715520Y-81428603D01*
X147715517Y-81428600D01*
X147715517Y-81428601D01*
X147666283Y-81395704D01*
X147529701Y-81339130D01*
X147529699Y-81339129D01*
X147384708Y-81310288D01*
X147384706Y-81310288D01*
X133765294Y-81310288D01*
X133765291Y-81310288D01*
X133620300Y-81339129D01*
X133483719Y-81395703D01*
X133483715Y-81395705D01*
X133360794Y-81477838D01*
X133360791Y-81477840D01*
X132533568Y-82305062D01*
X132452787Y-82359038D01*
X132357499Y-82377992D01*
X132262211Y-82359038D01*
X132181429Y-82305062D01*
X116279085Y-66402717D01*
X116225109Y-66321935D01*
X116206155Y-66226647D01*
X116207103Y-66204944D01*
X116220659Y-66050004D01*
X116220659Y-66049994D01*
X116200064Y-65814598D01*
X116200063Y-65814595D01*
X116200063Y-65814592D01*
X116138903Y-65586337D01*
X116039035Y-65372171D01*
X115903495Y-65178599D01*
X115736401Y-65011505D01*
X115697074Y-64983967D01*
X115629891Y-64913789D01*
X115594678Y-64823240D01*
X115596797Y-64726108D01*
X115635925Y-64637181D01*
X115697073Y-64576032D01*
X115736401Y-64548495D01*
X115903495Y-64381401D01*
X116025838Y-64206676D01*
X116096017Y-64139496D01*
X116186567Y-64104283D01*
X116229805Y-64100500D01*
X117190760Y-64100500D01*
X117286048Y-64119454D01*
X117366830Y-64173430D01*
X117383232Y-64191528D01*
X117399117Y-64210883D01*
X117508870Y-64300955D01*
X117551463Y-64335911D01*
X117725266Y-64428811D01*
X117725270Y-64428812D01*
X117725273Y-64428814D01*
X117913868Y-64486024D01*
X118110000Y-64505341D01*
X118306132Y-64486024D01*
X118494727Y-64428814D01*
X118583431Y-64381401D01*
X118668536Y-64335911D01*
X118668535Y-64335911D01*
X118668538Y-64335910D01*
X118820883Y-64210883D01*
X118945910Y-64058538D01*
X119038814Y-63884727D01*
X119096024Y-63696132D01*
X119115341Y-63500000D01*
X119096024Y-63303868D01*
X119038814Y-63115273D01*
X119038812Y-63115270D01*
X119038811Y-63115266D01*
X118945911Y-62941463D01*
X118887343Y-62870098D01*
X118820883Y-62789117D01*
X118668538Y-62664090D01*
X118668539Y-62664090D01*
X118668536Y-62664088D01*
X118494733Y-62571188D01*
X118494725Y-62571185D01*
X118306131Y-62513975D01*
X118110000Y-62494659D01*
X117913868Y-62513975D01*
X117725274Y-62571185D01*
X117725266Y-62571188D01*
X117551463Y-62664088D01*
X117399120Y-62789114D01*
X117399116Y-62789118D01*
X117395783Y-62793179D01*
X117383237Y-62808465D01*
X117308138Y-62870098D01*
X117215166Y-62898301D01*
X117190760Y-62899500D01*
X116215801Y-62899500D01*
X116120513Y-62880546D01*
X116039731Y-62826570D01*
X116011832Y-62793321D01*
X116008886Y-62789114D01*
X115903495Y-62638599D01*
X115736401Y-62471505D01*
X115697074Y-62443967D01*
X115629891Y-62373789D01*
X115594678Y-62283240D01*
X115596797Y-62186108D01*
X115635925Y-62097181D01*
X115697073Y-62036032D01*
X115736401Y-62008495D01*
X115903495Y-61841401D01*
X116018836Y-61676676D01*
X116089015Y-61609495D01*
X116179565Y-61574283D01*
X116222803Y-61570500D01*
X116735666Y-61570500D01*
X116735682Y-61570501D01*
X116750943Y-61570501D01*
X116909053Y-61570501D01*
X116909057Y-61570501D01*
X116914721Y-61568983D01*
X116979161Y-61560500D01*
X117190760Y-61560500D01*
X117286048Y-61579454D01*
X117366830Y-61633430D01*
X117383232Y-61651528D01*
X117399117Y-61670883D01*
X117508870Y-61760955D01*
X117551463Y-61795911D01*
X117725266Y-61888811D01*
X117725270Y-61888812D01*
X117725273Y-61888814D01*
X117913868Y-61946024D01*
X118110000Y-61965341D01*
X118306132Y-61946024D01*
X118494727Y-61888814D01*
X118583431Y-61841401D01*
X118668536Y-61795911D01*
X118668535Y-61795911D01*
X118668538Y-61795910D01*
X118820883Y-61670883D01*
X118945910Y-61518538D01*
X119038814Y-61344727D01*
X119096024Y-61156132D01*
X119115341Y-60960000D01*
X119096024Y-60763868D01*
X119038814Y-60575273D01*
X119038812Y-60575270D01*
X119038811Y-60575266D01*
X118945911Y-60401463D01*
X118859827Y-60296570D01*
X118820883Y-60249117D01*
X118668538Y-60124090D01*
X118668539Y-60124090D01*
X118668536Y-60124088D01*
X118494733Y-60031188D01*
X118494725Y-60031185D01*
X118306131Y-59973975D01*
X118110000Y-59954659D01*
X117913868Y-59973975D01*
X117725274Y-60031185D01*
X117725266Y-60031188D01*
X117551463Y-60124088D01*
X117399120Y-60249114D01*
X117399116Y-60249118D01*
X117395783Y-60253179D01*
X117383237Y-60268465D01*
X117308138Y-60330098D01*
X117215166Y-60358301D01*
X117190760Y-60359500D01*
X116919057Y-60359500D01*
X116760943Y-60359500D01*
X116755284Y-60361016D01*
X116690840Y-60369500D01*
X116222803Y-60369500D01*
X116127515Y-60350546D01*
X116046733Y-60296570D01*
X116018834Y-60263321D01*
X116008886Y-60249114D01*
X115903495Y-60098599D01*
X115736401Y-59931505D01*
X115542830Y-59795965D01*
X115328663Y-59696097D01*
X115328660Y-59696096D01*
X115100401Y-59634935D01*
X114865005Y-59614341D01*
X114864995Y-59614341D01*
X114629598Y-59634935D01*
X114401335Y-59696097D01*
X114401333Y-59696098D01*
X114187177Y-59795961D01*
X114187169Y-59795965D01*
X113993600Y-59931504D01*
X113826504Y-60098600D01*
X113690965Y-60292169D01*
X113690961Y-60292177D01*
X113591098Y-60506333D01*
X113591097Y-60506335D01*
X113529935Y-60734598D01*
X113509341Y-60969994D01*
X113509341Y-60970005D01*
X113529935Y-61205401D01*
X113567268Y-61344733D01*
X113591097Y-61433663D01*
X113659081Y-61579454D01*
X113690965Y-61647830D01*
X113794652Y-61795911D01*
X113826505Y-61841401D01*
X113993599Y-62008495D01*
X114032925Y-62036031D01*
X114100107Y-62106209D01*
X114135321Y-62196758D01*
X114133202Y-62293890D01*
X114094074Y-62382818D01*
X114032928Y-62443965D01*
X113993603Y-62471501D01*
X113826504Y-62638600D01*
X113690965Y-62832169D01*
X113690961Y-62832177D01*
X113591098Y-63046333D01*
X113591097Y-63046335D01*
X113529935Y-63274598D01*
X113509341Y-63509994D01*
X113509341Y-63510005D01*
X113529935Y-63745401D01*
X113567268Y-63884733D01*
X113591097Y-63973663D01*
X113684250Y-64173430D01*
X113690965Y-64187830D01*
X113794652Y-64335911D01*
X113826505Y-64381401D01*
X113993599Y-64548495D01*
X114032925Y-64576031D01*
X114100107Y-64646209D01*
X114135321Y-64736758D01*
X114133202Y-64833890D01*
X114094074Y-64922818D01*
X114032928Y-64983965D01*
X113993603Y-65011501D01*
X113826504Y-65178600D01*
X113690965Y-65372169D01*
X113690961Y-65372177D01*
X113591098Y-65586333D01*
X113591097Y-65586335D01*
X113529935Y-65814598D01*
X113509341Y-66049994D01*
X113509341Y-66050005D01*
X113529935Y-66285401D01*
X113529937Y-66285408D01*
X113591097Y-66513663D01*
X113690965Y-66727830D01*
X113826505Y-66921401D01*
X113993599Y-67088495D01*
X114187170Y-67224035D01*
X114401337Y-67323903D01*
X114629592Y-67385063D01*
X114629595Y-67385063D01*
X114629598Y-67385064D01*
X114864995Y-67405659D01*
X114865000Y-67405659D01*
X114865004Y-67405659D01*
X115019944Y-67392103D01*
X115116522Y-67402679D01*
X115201700Y-67449409D01*
X115217717Y-67464085D01*
X129648063Y-81894430D01*
X129702039Y-81975212D01*
X129720993Y-82070500D01*
X129702039Y-82165788D01*
X129648063Y-82246570D01*
X129567281Y-82300546D01*
X129471993Y-82319500D01*
X129415665Y-82319500D01*
X129170389Y-82360428D01*
X129170378Y-82360430D01*
X128935188Y-82441172D01*
X128716485Y-82559529D01*
X128520261Y-82712257D01*
X128520248Y-82712269D01*
X128351836Y-82895214D01*
X128351830Y-82895221D01*
X128215828Y-83103391D01*
X128215825Y-83103396D01*
X128115936Y-83331121D01*
X128115935Y-83331125D01*
X128054894Y-83572168D01*
X128054892Y-83572176D01*
X128034357Y-83820000D01*
X128054892Y-84067823D01*
X128054894Y-84067831D01*
X128115935Y-84308874D01*
X128115936Y-84308878D01*
X128215825Y-84536603D01*
X128215828Y-84536608D01*
X128254896Y-84596407D01*
X128291146Y-84686547D01*
X128290141Y-84783696D01*
X128252035Y-84873067D01*
X128182630Y-84941051D01*
X128092490Y-84977301D01*
X128068144Y-84980648D01*
X127996572Y-84986909D01*
X127768309Y-85048071D01*
X127768307Y-85048072D01*
X127554151Y-85147935D01*
X127554143Y-85147939D01*
X127360574Y-85283478D01*
X127193478Y-85450574D01*
X127183171Y-85465294D01*
X127081082Y-85611094D01*
X127078140Y-85615295D01*
X127007959Y-85682479D01*
X126917409Y-85717691D01*
X126874171Y-85721474D01*
X125341214Y-85721474D01*
X125245926Y-85702520D01*
X125165144Y-85648544D01*
X125148741Y-85630445D01*
X125132857Y-85611091D01*
X125026847Y-85524090D01*
X124980510Y-85486062D01*
X124806707Y-85393162D01*
X124806699Y-85393159D01*
X124618105Y-85335949D01*
X124421974Y-85316633D01*
X124225842Y-85335949D01*
X124037248Y-85393159D01*
X124037240Y-85393162D01*
X123863437Y-85486062D01*
X123711094Y-85611088D01*
X123711088Y-85611094D01*
X123586062Y-85763437D01*
X123493162Y-85937240D01*
X123493159Y-85937248D01*
X123435949Y-86125842D01*
X123416633Y-86321973D01*
X123416633Y-86321974D01*
X123419086Y-86346880D01*
X123409563Y-86443567D01*
X123363764Y-86529250D01*
X123347355Y-86547356D01*
X118035570Y-91859142D01*
X117954788Y-91913118D01*
X117859500Y-91932072D01*
X117764212Y-91913118D01*
X117683430Y-91859142D01*
X117629454Y-91778360D01*
X117610500Y-91683072D01*
X117610500Y-87011081D01*
X117610499Y-87011079D01*
X117608256Y-86999804D01*
X117581658Y-86866087D01*
X117525084Y-86729505D01*
X117473187Y-86651835D01*
X117442952Y-86606584D01*
X116279085Y-85442717D01*
X116225109Y-85361935D01*
X116206155Y-85266647D01*
X116207103Y-85244944D01*
X116220659Y-85090004D01*
X116220659Y-85089994D01*
X116200064Y-84854598D01*
X116200063Y-84854595D01*
X116200063Y-84854592D01*
X116138903Y-84626337D01*
X116039035Y-84412171D01*
X115903495Y-84218599D01*
X115736401Y-84051505D01*
X115697074Y-84023967D01*
X115629891Y-83953789D01*
X115594678Y-83863240D01*
X115596797Y-83766108D01*
X115635925Y-83677181D01*
X115697073Y-83616032D01*
X115736401Y-83588495D01*
X115903495Y-83421401D01*
X116018836Y-83256676D01*
X116089015Y-83189495D01*
X116179565Y-83154283D01*
X116222803Y-83150500D01*
X117190760Y-83150500D01*
X117286048Y-83169454D01*
X117366830Y-83223430D01*
X117383232Y-83241528D01*
X117399117Y-83260883D01*
X117477955Y-83325584D01*
X117551463Y-83385911D01*
X117725266Y-83478811D01*
X117725270Y-83478812D01*
X117725273Y-83478814D01*
X117913868Y-83536024D01*
X118110000Y-83555341D01*
X118306132Y-83536024D01*
X118494727Y-83478814D01*
X118668538Y-83385910D01*
X118820883Y-83260883D01*
X118945910Y-83108538D01*
X119038814Y-82934727D01*
X119096024Y-82746132D01*
X119115341Y-82550000D01*
X119096024Y-82353868D01*
X119038814Y-82165273D01*
X119038812Y-82165270D01*
X119038811Y-82165266D01*
X118945911Y-81991463D01*
X118851620Y-81876570D01*
X118820883Y-81839117D01*
X118668538Y-81714090D01*
X118668539Y-81714090D01*
X118668536Y-81714088D01*
X118494733Y-81621188D01*
X118494725Y-81621185D01*
X118306131Y-81563975D01*
X118110000Y-81544659D01*
X117913868Y-81563975D01*
X117725274Y-81621185D01*
X117725266Y-81621188D01*
X117551463Y-81714088D01*
X117399120Y-81839114D01*
X117399116Y-81839118D01*
X117395783Y-81843179D01*
X117383237Y-81858465D01*
X117308138Y-81920098D01*
X117215166Y-81948301D01*
X117190760Y-81949500D01*
X116222803Y-81949500D01*
X116127515Y-81930546D01*
X116046733Y-81876570D01*
X116018834Y-81843321D01*
X115903495Y-81678599D01*
X115736401Y-81511505D01*
X115697074Y-81483967D01*
X115629891Y-81413789D01*
X115594678Y-81323240D01*
X115596797Y-81226108D01*
X115635925Y-81137181D01*
X115697073Y-81076032D01*
X115736401Y-81048495D01*
X115903495Y-80881401D01*
X116018836Y-80716676D01*
X116089015Y-80649495D01*
X116179565Y-80614283D01*
X116222803Y-80610500D01*
X117190760Y-80610500D01*
X117286048Y-80629454D01*
X117366830Y-80683430D01*
X117383232Y-80701528D01*
X117399117Y-80720883D01*
X117508870Y-80810955D01*
X117551463Y-80845911D01*
X117725266Y-80938811D01*
X117725270Y-80938812D01*
X117725273Y-80938814D01*
X117913868Y-80996024D01*
X118110000Y-81015341D01*
X118306132Y-80996024D01*
X118494727Y-80938814D01*
X118668538Y-80845910D01*
X118820883Y-80720883D01*
X118945910Y-80568538D01*
X119038814Y-80394727D01*
X119096024Y-80206132D01*
X119115341Y-80010000D01*
X119096024Y-79813868D01*
X119038814Y-79625273D01*
X119038812Y-79625270D01*
X119038811Y-79625266D01*
X118945911Y-79451463D01*
X118851620Y-79336570D01*
X118820883Y-79299117D01*
X118714023Y-79211419D01*
X118668536Y-79174088D01*
X118494733Y-79081188D01*
X118494725Y-79081185D01*
X118306131Y-79023975D01*
X118110000Y-79004659D01*
X117913868Y-79023975D01*
X117725274Y-79081185D01*
X117725266Y-79081188D01*
X117551463Y-79174088D01*
X117399120Y-79299114D01*
X117399116Y-79299118D01*
X117396577Y-79302212D01*
X117383237Y-79318465D01*
X117308138Y-79380098D01*
X117215166Y-79408301D01*
X117190760Y-79409500D01*
X116222803Y-79409500D01*
X116127515Y-79390546D01*
X116046733Y-79336570D01*
X116018834Y-79303321D01*
X115903495Y-79138599D01*
X115736401Y-78971505D01*
X115542830Y-78835965D01*
X115328663Y-78736097D01*
X115328660Y-78736096D01*
X115100401Y-78674935D01*
X114865005Y-78654341D01*
X114864995Y-78654341D01*
X114629598Y-78674935D01*
X114401335Y-78736097D01*
X114401333Y-78736098D01*
X114187177Y-78835961D01*
X114187169Y-78835965D01*
X113993600Y-78971504D01*
X113826504Y-79138600D01*
X113690965Y-79332169D01*
X113690961Y-79332177D01*
X113591098Y-79546333D01*
X113591097Y-79546335D01*
X113529935Y-79774598D01*
X113509341Y-80009994D01*
X113509341Y-80010005D01*
X113529935Y-80245401D01*
X113573663Y-80408600D01*
X113591097Y-80473663D01*
X113663744Y-80629454D01*
X113690965Y-80687830D01*
X113801654Y-80845911D01*
X113826505Y-80881401D01*
X113993599Y-81048495D01*
X114032925Y-81076031D01*
X114100107Y-81146209D01*
X114135321Y-81236758D01*
X114133202Y-81333890D01*
X114094074Y-81422818D01*
X114032928Y-81483965D01*
X113993603Y-81511501D01*
X113826504Y-81678600D01*
X113690965Y-81872169D01*
X113690961Y-81872177D01*
X113591098Y-82086333D01*
X113591097Y-82086335D01*
X113529935Y-82314598D01*
X113509341Y-82549994D01*
X113509341Y-82550005D01*
X113529935Y-82785401D01*
X113573663Y-82948600D01*
X113591097Y-83013663D01*
X113657272Y-83155576D01*
X113690965Y-83227830D01*
X113801654Y-83385911D01*
X113826505Y-83421401D01*
X113993599Y-83588495D01*
X114032925Y-83616031D01*
X114100107Y-83686209D01*
X114135321Y-83776758D01*
X114133202Y-83873890D01*
X114094074Y-83962818D01*
X114032928Y-84023965D01*
X113993603Y-84051501D01*
X113826504Y-84218600D01*
X113690965Y-84412169D01*
X113690961Y-84412177D01*
X113591098Y-84626333D01*
X113591097Y-84626335D01*
X113529935Y-84854598D01*
X113509341Y-85089994D01*
X113509341Y-85090005D01*
X113529935Y-85325401D01*
X113573663Y-85488600D01*
X113591097Y-85553663D01*
X113651024Y-85682177D01*
X113690965Y-85767830D01*
X113754320Y-85858311D01*
X113826505Y-85961401D01*
X113993599Y-86128495D01*
X114032925Y-86156031D01*
X114100107Y-86226209D01*
X114135321Y-86316758D01*
X114133202Y-86413890D01*
X114094074Y-86502818D01*
X114032928Y-86563965D01*
X113993603Y-86591501D01*
X113826504Y-86758600D01*
X113690965Y-86952169D01*
X113690961Y-86952177D01*
X113591098Y-87166333D01*
X113591097Y-87166335D01*
X113529935Y-87394598D01*
X113509341Y-87629994D01*
X113509341Y-87630005D01*
X113529935Y-87865401D01*
X113584476Y-88068955D01*
X113591097Y-88093663D01*
X113651024Y-88222177D01*
X113690965Y-88307830D01*
X113754320Y-88398311D01*
X113826505Y-88501401D01*
X113993599Y-88668495D01*
X114032925Y-88696031D01*
X114100107Y-88766209D01*
X114135321Y-88856758D01*
X114133202Y-88953890D01*
X114094074Y-89042818D01*
X114032928Y-89103965D01*
X113993603Y-89131501D01*
X113826504Y-89298600D01*
X113690965Y-89492169D01*
X113690961Y-89492177D01*
X113591098Y-89706333D01*
X113591097Y-89706335D01*
X113529935Y-89934598D01*
X113509341Y-90169994D01*
X113509341Y-90170005D01*
X113529935Y-90405401D01*
X113572983Y-90566062D01*
X113591097Y-90633663D01*
X113635341Y-90728544D01*
X113690965Y-90847830D01*
X113754320Y-90938311D01*
X113826505Y-91041401D01*
X113993599Y-91208495D01*
X114187170Y-91344035D01*
X114401337Y-91443903D01*
X114629592Y-91505063D01*
X114629595Y-91505063D01*
X114629598Y-91505064D01*
X114864995Y-91525659D01*
X114865000Y-91525659D01*
X114865005Y-91525659D01*
X115100401Y-91505064D01*
X115100403Y-91505063D01*
X115100408Y-91505063D01*
X115328663Y-91443903D01*
X115542830Y-91344035D01*
X115717683Y-91221600D01*
X115806606Y-91182474D01*
X115903738Y-91180355D01*
X115994287Y-91215567D01*
X116064469Y-91282751D01*
X116103598Y-91371678D01*
X116109500Y-91425572D01*
X116109500Y-107703678D01*
X116090546Y-107798966D01*
X116036570Y-107879748D01*
X115955788Y-107933724D01*
X115860500Y-107952678D01*
X115807492Y-107945701D01*
X115807395Y-107946253D01*
X115796695Y-107944365D01*
X115796692Y-107944365D01*
X115796688Y-107944364D01*
X115796679Y-107944363D01*
X115570006Y-107924532D01*
X115569994Y-107924532D01*
X115343320Y-107944363D01*
X115343305Y-107944365D01*
X115123503Y-108003261D01*
X115123500Y-108003262D01*
X114917272Y-108099428D01*
X114917258Y-108099436D01*
X114730865Y-108229949D01*
X114569949Y-108390865D01*
X114503969Y-108485096D01*
X114433788Y-108552280D01*
X114343239Y-108587493D01*
X114246107Y-108585374D01*
X114157180Y-108546245D01*
X114096031Y-108485096D01*
X114030050Y-108390865D01*
X114030049Y-108390864D01*
X114030047Y-108390861D01*
X113869139Y-108229953D01*
X113869135Y-108229950D01*
X113869134Y-108229949D01*
X113682741Y-108099436D01*
X113682727Y-108099428D01*
X113476499Y-108003262D01*
X113476496Y-108003261D01*
X113256694Y-107944365D01*
X113256679Y-107944363D01*
X113030006Y-107924532D01*
X113029994Y-107924532D01*
X112803320Y-107944363D01*
X112803305Y-107944365D01*
X112583503Y-108003261D01*
X112583500Y-108003262D01*
X112377272Y-108099428D01*
X112377258Y-108099436D01*
X112190865Y-108229949D01*
X112029949Y-108390865D01*
X111963969Y-108485096D01*
X111893788Y-108552280D01*
X111803239Y-108587493D01*
X111706107Y-108585374D01*
X111617180Y-108546245D01*
X111556031Y-108485096D01*
X111490050Y-108390865D01*
X111490049Y-108390864D01*
X111490047Y-108390861D01*
X111329139Y-108229953D01*
X111329135Y-108229950D01*
X111329134Y-108229949D01*
X111142741Y-108099436D01*
X111142727Y-108099428D01*
X110936499Y-108003262D01*
X110936496Y-108003261D01*
X110716694Y-107944365D01*
X110716679Y-107944363D01*
X110490006Y-107924532D01*
X110489994Y-107924532D01*
X110263320Y-107944363D01*
X110263305Y-107944365D01*
X110043503Y-108003261D01*
X110043500Y-108003262D01*
X109837272Y-108099428D01*
X109837258Y-108099436D01*
X109650865Y-108229949D01*
X109489949Y-108390865D01*
X109423969Y-108485096D01*
X109353788Y-108552280D01*
X109263239Y-108587493D01*
X109166107Y-108585374D01*
X109077180Y-108546245D01*
X109016031Y-108485096D01*
X108950050Y-108390865D01*
X108950049Y-108390864D01*
X108950047Y-108390861D01*
X108789139Y-108229953D01*
X108789135Y-108229950D01*
X108789134Y-108229949D01*
X108602741Y-108099436D01*
X108602727Y-108099428D01*
X108396499Y-108003262D01*
X108396496Y-108003261D01*
X108176694Y-107944365D01*
X108176679Y-107944363D01*
X107950006Y-107924532D01*
X107949994Y-107924532D01*
X107723320Y-107944363D01*
X107723305Y-107944365D01*
X107503503Y-108003261D01*
X107503500Y-108003262D01*
X107297272Y-108099428D01*
X107297258Y-108099436D01*
X107110865Y-108229949D01*
X106949949Y-108390865D01*
X106819436Y-108577258D01*
X106819428Y-108577272D01*
X106723262Y-108783500D01*
X106723261Y-108783503D01*
X106664365Y-109003305D01*
X106664363Y-109003320D01*
X106644532Y-109229994D01*
X106644532Y-109230005D01*
X106664363Y-109456679D01*
X106664365Y-109456694D01*
X106723261Y-109676496D01*
X106723262Y-109676499D01*
X106819428Y-109882727D01*
X106819436Y-109882741D01*
X106949949Y-110069134D01*
X106949953Y-110069139D01*
X107110861Y-110230047D01*
X107110864Y-110230049D01*
X107110865Y-110230050D01*
X107297258Y-110360563D01*
X107297262Y-110360565D01*
X107297266Y-110360568D01*
X107297270Y-110360569D01*
X107297272Y-110360571D01*
X107318524Y-110370481D01*
X107503504Y-110456739D01*
X107723308Y-110515635D01*
X107724760Y-110515762D01*
X107949994Y-110535468D01*
X107950000Y-110535468D01*
X107950006Y-110535468D01*
X108153660Y-110517650D01*
X108176692Y-110515635D01*
X108396496Y-110456739D01*
X108602734Y-110360568D01*
X108789139Y-110230047D01*
X108950047Y-110069139D01*
X109016031Y-109974902D01*
X109086211Y-109907719D01*
X109176760Y-109872506D01*
X109273892Y-109874625D01*
X109362819Y-109913753D01*
X109423970Y-109974904D01*
X109481403Y-110056929D01*
X109489953Y-110069139D01*
X109650861Y-110230047D01*
X109650864Y-110230049D01*
X109650865Y-110230050D01*
X109837258Y-110360563D01*
X109837262Y-110360565D01*
X109837266Y-110360568D01*
X109837270Y-110360569D01*
X109837272Y-110360571D01*
X109858524Y-110370481D01*
X110043504Y-110456739D01*
X110263308Y-110515635D01*
X110264760Y-110515762D01*
X110489994Y-110535468D01*
X110490000Y-110535468D01*
X110490006Y-110535468D01*
X110693660Y-110517650D01*
X110716692Y-110515635D01*
X110936496Y-110456739D01*
X111142734Y-110360568D01*
X111329139Y-110230047D01*
X111490047Y-110069139D01*
X111556031Y-109974902D01*
X111626211Y-109907719D01*
X111716760Y-109872506D01*
X111813892Y-109874625D01*
X111902819Y-109913753D01*
X111963970Y-109974904D01*
X112021403Y-110056929D01*
X112029953Y-110069139D01*
X112190861Y-110230047D01*
X112190864Y-110230049D01*
X112190865Y-110230050D01*
X112377258Y-110360563D01*
X112377262Y-110360565D01*
X112377266Y-110360568D01*
X112377270Y-110360569D01*
X112377272Y-110360571D01*
X112398524Y-110370481D01*
X112583504Y-110456739D01*
X112803308Y-110515635D01*
X112804760Y-110515762D01*
X113029994Y-110535468D01*
X113030000Y-110535468D01*
X113030006Y-110535468D01*
X113233660Y-110517650D01*
X113256692Y-110515635D01*
X113476496Y-110456739D01*
X113682734Y-110360568D01*
X113869139Y-110230047D01*
X114030047Y-110069139D01*
X114096031Y-109974902D01*
X114166211Y-109907719D01*
X114256760Y-109872506D01*
X114353892Y-109874625D01*
X114442819Y-109913753D01*
X114503970Y-109974904D01*
X114561403Y-110056929D01*
X114569953Y-110069139D01*
X114730861Y-110230047D01*
X114730864Y-110230049D01*
X114730865Y-110230050D01*
X114917258Y-110360563D01*
X114917262Y-110360565D01*
X114917266Y-110360568D01*
X114917270Y-110360569D01*
X114917272Y-110360571D01*
X114938524Y-110370481D01*
X115123504Y-110456739D01*
X115343308Y-110515635D01*
X115344760Y-110515762D01*
X115569994Y-110535468D01*
X115570000Y-110535468D01*
X115570006Y-110535468D01*
X115773660Y-110517650D01*
X115796692Y-110515635D01*
X115796706Y-110515631D01*
X115807395Y-110513747D01*
X115807624Y-110515048D01*
X115892996Y-110509451D01*
X115984996Y-110540678D01*
X116058042Y-110604735D01*
X116101014Y-110691870D01*
X116109500Y-110756321D01*
X116109500Y-117685991D01*
X116090546Y-117781279D01*
X116036570Y-117862061D01*
X110796564Y-123102066D01*
X110715782Y-123156042D01*
X110620494Y-123174996D01*
X110598796Y-123174049D01*
X110498833Y-123165304D01*
X110490000Y-123164532D01*
X110489999Y-123164532D01*
X110489994Y-123164532D01*
X110263320Y-123184363D01*
X110263305Y-123184365D01*
X110043503Y-123243261D01*
X110043500Y-123243262D01*
X109837272Y-123339428D01*
X109837258Y-123339436D01*
X109650865Y-123469949D01*
X109489949Y-123630865D01*
X109423969Y-123725096D01*
X109353788Y-123792280D01*
X109263239Y-123827493D01*
X109166107Y-123825374D01*
X109077180Y-123786245D01*
X109016031Y-123725096D01*
X108950050Y-123630865D01*
X108950049Y-123630864D01*
X108950047Y-123630861D01*
X108789139Y-123469953D01*
X108789135Y-123469950D01*
X108789134Y-123469949D01*
X108602741Y-123339436D01*
X108602727Y-123339428D01*
X108396499Y-123243262D01*
X108396496Y-123243261D01*
X108176694Y-123184365D01*
X108176679Y-123184363D01*
X107950006Y-123164532D01*
X107949994Y-123164532D01*
X107723320Y-123184363D01*
X107723305Y-123184365D01*
X107503503Y-123243261D01*
X107503500Y-123243262D01*
X107297272Y-123339428D01*
X107297258Y-123339436D01*
X107110865Y-123469949D01*
X106949949Y-123630865D01*
X106819436Y-123817258D01*
X106819428Y-123817272D01*
X106723262Y-124023500D01*
X106723261Y-124023503D01*
X106664365Y-124243305D01*
X106664363Y-124243320D01*
X106644532Y-124469994D01*
X106644532Y-124470005D01*
X104450500Y-124470005D01*
X104450500Y-100330000D01*
X110539357Y-100330000D01*
X110559892Y-100577823D01*
X110559894Y-100577831D01*
X110620935Y-100818874D01*
X110620936Y-100818878D01*
X110720825Y-101046603D01*
X110720828Y-101046608D01*
X110856830Y-101254778D01*
X110856836Y-101254785D01*
X111025248Y-101437730D01*
X111025252Y-101437733D01*
X111025256Y-101437738D01*
X111025260Y-101437741D01*
X111025261Y-101437742D01*
X111221485Y-101590470D01*
X111221487Y-101590471D01*
X111221491Y-101590474D01*
X111440190Y-101708828D01*
X111509736Y-101732703D01*
X111675378Y-101789569D01*
X111675382Y-101789569D01*
X111675386Y-101789571D01*
X111920665Y-101830500D01*
X112169335Y-101830500D01*
X112414614Y-101789571D01*
X112414618Y-101789569D01*
X112414621Y-101789569D01*
X112504077Y-101758858D01*
X112649810Y-101708828D01*
X112868509Y-101590474D01*
X113064744Y-101437738D01*
X113233164Y-101254785D01*
X113369173Y-101046607D01*
X113469063Y-100818881D01*
X113530108Y-100577821D01*
X113550643Y-100330000D01*
X113530108Y-100082179D01*
X113469063Y-99841119D01*
X113369173Y-99613393D01*
X113315997Y-99532001D01*
X113233169Y-99405221D01*
X113233163Y-99405214D01*
X113064751Y-99222269D01*
X113064747Y-99222265D01*
X113064744Y-99222262D01*
X113064738Y-99222257D01*
X112868514Y-99069529D01*
X112868510Y-99069526D01*
X112868509Y-99069526D01*
X112780630Y-99021968D01*
X112649811Y-98951172D01*
X112414621Y-98870430D01*
X112414610Y-98870428D01*
X112169335Y-98829500D01*
X111920665Y-98829500D01*
X111675389Y-98870428D01*
X111675378Y-98870430D01*
X111440188Y-98951172D01*
X111221485Y-99069529D01*
X111025261Y-99222257D01*
X111025248Y-99222269D01*
X110856836Y-99405214D01*
X110856830Y-99405221D01*
X110720828Y-99613391D01*
X110720825Y-99613396D01*
X110620936Y-99841121D01*
X110620935Y-99841125D01*
X110559894Y-100082168D01*
X110559892Y-100082176D01*
X110539357Y-100330000D01*
X104450500Y-100330000D01*
X104450500Y-57905432D01*
X104450737Y-57894571D01*
X104460433Y-57672498D01*
X104467148Y-57518691D01*
X104469038Y-57497084D01*
X104517439Y-57129443D01*
X104521211Y-57108056D01*
X104601468Y-56746037D01*
X104607079Y-56725097D01*
X104718591Y-56371425D01*
X104726006Y-56351052D01*
X104867914Y-56008456D01*
X104877085Y-55988791D01*
X105048302Y-55659888D01*
X105059153Y-55641090D01*
X105258393Y-55328345D01*
X105270829Y-55310585D01*
X105496578Y-55016383D01*
X105510516Y-54999773D01*
X105761035Y-54726380D01*
X105776380Y-54711035D01*
X106049773Y-54460516D01*
X106066383Y-54446578D01*
X106360585Y-54220829D01*
X106378345Y-54208393D01*
X106691090Y-54009153D01*
X106709888Y-53998302D01*
X107038791Y-53827085D01*
X107058456Y-53817914D01*
X107401052Y-53676006D01*
X107421425Y-53668591D01*
X107775097Y-53557079D01*
X107796037Y-53551468D01*
X108158057Y-53471210D01*
X108179443Y-53467439D01*
X108547084Y-53419038D01*
X108568691Y-53417148D01*
X108944572Y-53400737D01*
X108955433Y-53400500D01*
X109015892Y-53400500D01*
X167984108Y-53400500D01*
X168044567Y-53400500D01*
X168055428Y-53400737D01*
G37*
%TD.AperFunction*%
%TD*%
M02*
