%TF.GenerationSoftware,KiCad,Pcbnew,8.0.1*%
%TF.CreationDate,2024-08-15T18:35:28+01:00*%
%TF.ProjectId,ProjectALIENMainBoard,50726f6a-6563-4744-916c-69656e4d6169,1.0*%
%TF.SameCoordinates,Original*%
%TF.FileFunction,Soldermask,Bot*%
%TF.FilePolarity,Negative*%
%FSLAX46Y46*%
G04 Gerber Fmt 4.6, Leading zero omitted, Abs format (unit mm)*
G04 Created by KiCad (PCBNEW 8.0.1) date 2024-08-15 18:35:28*
%MOMM*%
%LPD*%
G01*
G04 APERTURE LIST*
G04 Aperture macros list*
%AMRoundRect*
0 Rectangle with rounded corners*
0 $1 Rounding radius*
0 $2 $3 $4 $5 $6 $7 $8 $9 X,Y pos of 4 corners*
0 Add a 4 corners polygon primitive as box body*
4,1,4,$2,$3,$4,$5,$6,$7,$8,$9,$2,$3,0*
0 Add four circle primitives for the rounded corners*
1,1,$1+$1,$2,$3*
1,1,$1+$1,$4,$5*
1,1,$1+$1,$6,$7*
1,1,$1+$1,$8,$9*
0 Add four rect primitives between the rounded corners*
20,1,$1+$1,$2,$3,$4,$5,0*
20,1,$1+$1,$4,$5,$6,$7,0*
20,1,$1+$1,$6,$7,$8,$9,0*
20,1,$1+$1,$8,$9,$2,$3,0*%
G04 Aperture macros list end*
%ADD10C,1.879600*%
%ADD11C,1.000000*%
%ADD12R,1.600000X1.600000*%
%ADD13O,1.600000X1.600000*%
%ADD14C,5.400000*%
%ADD15O,1.700000X1.700000*%
%ADD16R,1.700000X1.700000*%
%ADD17R,1.500000X1.050000*%
%ADD18O,1.500000X1.050000*%
%ADD19C,1.400000*%
%ADD20C,2.000000*%
%ADD21RoundRect,0.101600X-0.889000X0.889000X-0.889000X-0.889000X0.889000X-0.889000X0.889000X0.889000X0*%
%ADD22C,1.981200*%
%ADD23C,2.286000*%
G04 APERTURE END LIST*
D10*
%TO.C,J8*%
X132080000Y-83820000D03*
X134620000Y-83820000D03*
X137160000Y-83820000D03*
X139700000Y-83820000D03*
X142240000Y-83820000D03*
%TD*%
D11*
%TO.C,TP9*%
X124421974Y-86321974D03*
%TD*%
%TO.C,TP20*%
X158750000Y-88900000D03*
%TD*%
%TO.C,TP11*%
X124421974Y-91401974D03*
%TD*%
D12*
%TO.C,A1*%
X143510000Y-109230000D03*
D13*
X140970000Y-109230000D03*
X138430000Y-109230000D03*
X135890000Y-109230000D03*
X133350000Y-109230000D03*
X130810000Y-109230000D03*
X128270000Y-109230000D03*
X125730000Y-109230000D03*
X123190000Y-109230000D03*
X120650000Y-109230000D03*
X118110000Y-109230000D03*
X115570000Y-109230000D03*
X113030000Y-109230000D03*
X110490000Y-109230000D03*
X107950000Y-109230000D03*
X107950000Y-124470000D03*
X110490000Y-124470000D03*
X113030000Y-124470000D03*
X115570000Y-124470000D03*
X118110000Y-124470000D03*
X120650000Y-124470000D03*
X123190000Y-124470000D03*
X125730000Y-124470000D03*
X128270000Y-124470000D03*
X130810000Y-124470000D03*
X133350000Y-124470000D03*
X135890000Y-124470000D03*
X138430000Y-124470000D03*
X140970000Y-124470000D03*
X143510000Y-124470000D03*
%TD*%
D14*
%TO.C,H4*%
X163000000Y-72000000D03*
%TD*%
D11*
%TO.C,TP8*%
X133350000Y-135890000D03*
%TD*%
%TO.C,TP12*%
X124421974Y-93941974D03*
%TD*%
D15*
%TO.C,M1*%
X146011974Y-86321974D03*
X146011974Y-88861974D03*
X146011974Y-91401974D03*
X146011974Y-93941974D03*
X146011974Y-96481974D03*
X146011974Y-99021974D03*
X128231974Y-99021974D03*
X128231974Y-96481974D03*
X128231974Y-93941974D03*
X128231974Y-91401974D03*
X128231974Y-88861974D03*
X128231974Y-86321974D03*
%TD*%
D11*
%TO.C,TP15*%
X149821974Y-91401974D03*
%TD*%
D14*
%TO.C,H1*%
X114000000Y-72000000D03*
%TD*%
D11*
%TO.C,TP3*%
X141284399Y-130783321D03*
%TD*%
D14*
%TO.C,H3*%
X163000000Y-130000000D03*
%TD*%
D12*
%TO.C,U1*%
X158750000Y-120650000D03*
D13*
X158750000Y-118110000D03*
X158750000Y-115570000D03*
X158750000Y-113030000D03*
X158750000Y-110490000D03*
X158750000Y-107950000D03*
X158750000Y-105410000D03*
X158750000Y-102870000D03*
X151130000Y-102870000D03*
X151130000Y-105410000D03*
X151130000Y-107950000D03*
X151130000Y-110490000D03*
X151130000Y-113030000D03*
X151130000Y-115570000D03*
X151130000Y-118110000D03*
X151130000Y-120650000D03*
%TD*%
D11*
%TO.C,TP16*%
X149821974Y-93941974D03*
%TD*%
D16*
%TO.C,J9*%
X167640000Y-139700000D03*
D15*
X167640000Y-142240000D03*
X167640000Y-144780000D03*
%TD*%
D11*
%TO.C,TP2*%
X118110000Y-63500000D03*
%TD*%
D17*
%TO.C,Q2*%
X153349399Y-133958321D03*
D18*
X153349399Y-132688321D03*
X153349399Y-131418321D03*
%TD*%
D11*
%TO.C,TP7*%
X133350000Y-133350000D03*
%TD*%
D19*
%TO.C,GND1*%
X166370000Y-149860000D03*
X168910000Y-149860000D03*
%TD*%
D11*
%TO.C,TP19*%
X158750000Y-86360000D03*
%TD*%
D20*
%TO.C,SW1*%
X106395000Y-100330000D03*
X112045000Y-100330000D03*
%TD*%
D11*
%TO.C,TP6*%
X133350000Y-130810000D03*
%TD*%
%TO.C,TP1*%
X118110000Y-60960000D03*
%TD*%
%TO.C,TP5*%
X133350000Y-128270000D03*
%TD*%
%TO.C,TP4*%
X156524399Y-131418321D03*
%TD*%
%TO.C,TP13*%
X149821974Y-86321974D03*
%TD*%
D14*
%TO.C,H2*%
X114000000Y-130000000D03*
%TD*%
D11*
%TO.C,TP14*%
X149821974Y-88861974D03*
%TD*%
%TO.C,TP18*%
X118110000Y-80010000D03*
%TD*%
%TO.C,TP17*%
X118110000Y-82550000D03*
%TD*%
D16*
%TO.C,J1*%
X162560000Y-101600000D03*
D15*
X162560000Y-104140000D03*
X162560000Y-106680000D03*
X162560000Y-109220000D03*
X162560000Y-111760000D03*
X162560000Y-114300000D03*
X162560000Y-116840000D03*
X162560000Y-119380000D03*
X162560000Y-121920000D03*
%TD*%
D11*
%TO.C,TP10*%
X124421974Y-88861974D03*
%TD*%
D17*
%TO.C,Q1*%
X146364399Y-133958321D03*
D18*
X146364399Y-132688321D03*
X146364399Y-131418321D03*
%TD*%
D16*
%TO.C,J10*%
X109220000Y-139700000D03*
D15*
X109220000Y-142240000D03*
X109220000Y-144780000D03*
%TD*%
D16*
%TO.C,J6*%
X114865000Y-58430000D03*
D15*
X114865000Y-60970000D03*
X114865000Y-63510000D03*
X114865000Y-66050000D03*
%TD*%
D21*
%TO.C,J7*%
X148590000Y-144250000D03*
D22*
X151130000Y-144250000D03*
X153670000Y-144250000D03*
X156210000Y-144250000D03*
X158750000Y-144250000D03*
%TD*%
D16*
%TO.C,J4*%
X161995000Y-91440000D03*
D15*
X161995000Y-88900000D03*
X161995000Y-86360000D03*
X161995000Y-83820000D03*
X161995000Y-81280000D03*
X161995000Y-78740000D03*
%TD*%
D16*
%TO.C,J5*%
X168910000Y-128270000D03*
D15*
X168910000Y-130810000D03*
X168910000Y-133350000D03*
%TD*%
D23*
%TO.C,J2*%
X118162569Y-132179026D03*
X122226569Y-132179026D03*
X126290569Y-132179026D03*
X130354569Y-132179026D03*
X130354569Y-134790426D03*
X126290569Y-134790426D03*
X122226569Y-134790426D03*
%TD*%
D16*
%TO.C,J3*%
X114865000Y-77470000D03*
D15*
X114865000Y-80010000D03*
X114865000Y-82550000D03*
X114865000Y-85090000D03*
X114865000Y-87630000D03*
X114865000Y-90170000D03*
%TD*%
M02*
