%TF.GenerationSoftware,KiCad,Pcbnew,8.0.4*%
%TF.CreationDate,2024-09-06T19:17:10+01:00*%
%TF.ProjectId,ProjectALIENMainBoard,50726f6a-6563-4744-914c-49454e4d6169,1.0*%
%TF.SameCoordinates,Original*%
%TF.FileFunction,Copper,L2,Bot*%
%TF.FilePolarity,Positive*%
%FSLAX46Y46*%
G04 Gerber Fmt 4.6, Leading zero omitted, Abs format (unit mm)*
G04 Created by KiCad (PCBNEW 8.0.4) date 2024-09-06 19:17:10*
%MOMM*%
%LPD*%
G01*
G04 APERTURE LIST*
%TA.AperFunction,ComponentPad*%
%ADD10C,1.000000*%
%TD*%
%TA.AperFunction,ComponentPad*%
%ADD11R,1.600000X1.600000*%
%TD*%
%TA.AperFunction,ComponentPad*%
%ADD12O,1.600000X1.600000*%
%TD*%
%TA.AperFunction,ComponentPad*%
%ADD13R,1.700000X1.700000*%
%TD*%
%TA.AperFunction,ComponentPad*%
%ADD14O,1.700000X1.700000*%
%TD*%
%TA.AperFunction,ComponentPad*%
%ADD15C,1.700000*%
%TD*%
%TA.AperFunction,ComponentPad*%
%ADD16C,5.400000*%
%TD*%
%TA.AperFunction,ComponentPad*%
%ADD17R,1.500000X1.050000*%
%TD*%
%TA.AperFunction,ComponentPad*%
%ADD18O,1.500000X1.050000*%
%TD*%
%TA.AperFunction,ComponentPad*%
%ADD19C,1.400000*%
%TD*%
%TA.AperFunction,ComponentPad*%
%ADD20C,2.000000*%
%TD*%
%TA.AperFunction,ComponentPad*%
%ADD21C,1.778000*%
%TD*%
%TA.AperFunction,ComponentPad*%
%ADD22R,1.778000X1.778000*%
%TD*%
%TA.AperFunction,ComponentPad*%
%ADD23C,2.286000*%
%TD*%
%TA.AperFunction,ViaPad*%
%ADD24C,0.600000*%
%TD*%
%TA.AperFunction,Conductor*%
%ADD25C,0.200000*%
%TD*%
%TA.AperFunction,Conductor*%
%ADD26C,0.500000*%
%TD*%
G04 APERTURE END LIST*
D10*
%TO.P,TP9,1,1*%
%TO.N,DIR1*%
X124421974Y-86321974D03*
%TD*%
%TO.P,TP20,1,1*%
%TO.N,ENC2B*%
X158750000Y-80010000D03*
%TD*%
%TO.P,TP11,1,1*%
%TO.N,PWM2*%
X124421974Y-91401974D03*
%TD*%
D11*
%TO.P,U1,1,TX1*%
%TO.N,unconnected-(U1-TX1-Pad1)*%
X143510000Y-109230000D03*
D12*
%TO.P,U1,2,RX1*%
%TO.N,unconnected-(U1-RX1-Pad2)*%
X140970000Y-109230000D03*
%TO.P,U1,3,~{RESET}*%
%TO.N,Net-(SW1-Pad2)*%
X138430000Y-109230000D03*
%TO.P,U1,4,GND*%
%TO.N,GND*%
X135890000Y-109230000D03*
%TO.P,U1,5,D2*%
%TO.N,ENC1A*%
X133350000Y-109230000D03*
%TO.P,U1,6,D3*%
%TO.N,ENC2A*%
X130810000Y-109230000D03*
%TO.P,U1,7,D4*%
%TO.N,ENC1B*%
X128270000Y-109230000D03*
%TO.P,U1,8,D5*%
%TO.N,PIXELS_DATA_3.3V*%
X125730000Y-109230000D03*
%TO.P,U1,9,D6*%
%TO.N,USONIC_ECHO*%
X123190000Y-109230000D03*
%TO.P,U1,10,D7*%
%TO.N,USONIC_TRIG*%
X120650000Y-109230000D03*
%TO.P,U1,11,D8*%
%TO.N,NES_DATA*%
X118110000Y-109230000D03*
%TO.P,U1,12,D9*%
%TO.N,PWM1*%
X115570000Y-109230000D03*
%TO.P,U1,13,D10*%
%TO.N,PWM2*%
X113030000Y-109230000D03*
%TO.P,U1,14,MOSI*%
%TO.N,D11*%
X110490000Y-109230000D03*
%TO.P,U1,15,MISO*%
%TO.N,D12*%
X107950000Y-109230000D03*
%TO.P,U1,16,SCK*%
%TO.N,D13*%
X107950000Y-124470000D03*
%TO.P,U1,17,3V3*%
%TO.N,+3.3V*%
X110490000Y-124470000D03*
%TO.P,U1,18,AREF*%
%TO.N,unconnected-(U1-AREF-Pad18)*%
X113030000Y-124470000D03*
%TO.P,U1,19,A0*%
%TO.N,DIR1*%
X115570000Y-124470000D03*
%TO.P,U1,20,A1*%
%TO.N,DIR2*%
X118110000Y-124470000D03*
%TO.P,U1,21,A2*%
%TO.N,SHIFT_REG_CLOCK*%
X120650000Y-124470000D03*
%TO.P,U1,22,A3*%
%TO.N,SHIFT_REG_LOAD*%
X123190000Y-124470000D03*
%TO.P,U1,23,SDA/A4*%
%TO.N,I2C_SDA*%
X125730000Y-124470000D03*
%TO.P,U1,24,SCL/A5*%
%TO.N,I2C_SCL*%
X128270000Y-124470000D03*
%TO.P,U1,25,A6*%
%TO.N,BUMPER_DATA*%
X130810000Y-124470000D03*
%TO.P,U1,26,A7*%
%TO.N,ENC2B*%
X133350000Y-124470000D03*
%TO.P,U1,27,+5V*%
%TO.N,unconnected-(U1-+5V-Pad27)*%
X135890000Y-124470000D03*
%TO.P,U1,28,~{RESET}*%
%TO.N,unconnected-(U1-~{RESET}-Pad28)*%
X138430000Y-124470000D03*
%TO.P,U1,29,GND*%
%TO.N,GND*%
X140970000Y-124470000D03*
%TO.P,U1,30,VIN*%
%TO.N,+5V*%
X143510000Y-124470000D03*
%TD*%
D13*
%TO.P,J6,1,Pin_1*%
%TO.N,GND*%
X114800000Y-58460000D03*
D14*
%TO.P,J6,2,Pin_2*%
%TO.N,USONIC_ECHO*%
X114800000Y-61000000D03*
%TO.P,J6,3,Pin_3*%
%TO.N,USONIC_TRIG*%
X114800000Y-63540000D03*
D15*
%TO.P,J6,4,Pin_4*%
%TO.N,+5V*%
X114800000Y-66080000D03*
%TD*%
D16*
%TO.P,H4,1,1*%
%TO.N,GND*%
X163000000Y-72000000D03*
%TD*%
D10*
%TO.P,TP8,1,1*%
%TO.N,SHIFT_REG_CLOCK*%
X133350000Y-135890000D03*
%TD*%
%TO.P,TP12,1,1*%
%TO.N,DIR2*%
X124421974Y-93941974D03*
%TD*%
D14*
%TO.P,U2,1,DIR1*%
%TO.N,DIR1*%
X128231974Y-86321974D03*
%TO.P,U2,2,PMW1*%
%TO.N,PWM1*%
X128231974Y-88861974D03*
%TO.P,U2,3,PMW2*%
%TO.N,PWM2*%
X128231974Y-91401974D03*
%TO.P,U2,4,DIR2*%
%TO.N,DIR2*%
X128231974Y-93941974D03*
%TO.P,U2,5,GND*%
%TO.N,GND*%
X128231974Y-96481974D03*
%TO.P,U2,6,VCC*%
%TO.N,+5V*%
X128231974Y-99021974D03*
%TO.P,U2,7,VM(<12V)*%
X146011974Y-99021974D03*
%TO.P,U2,8,GND*%
%TO.N,GND*%
X146011974Y-96481974D03*
%TO.P,U2,9,M2-*%
%TO.N,M2-*%
X146011974Y-93941974D03*
%TO.P,U2,10,M2+*%
%TO.N,M2+*%
X146011974Y-91401974D03*
%TO.P,U2,11,M1-*%
%TO.N,M1-*%
X146011974Y-88861974D03*
%TO.P,U2,12,M1+*%
%TO.N,M1+*%
X146011974Y-86321974D03*
%TD*%
D10*
%TO.P,TP15,1,1*%
%TO.N,M2+*%
X149821974Y-91401974D03*
%TD*%
D16*
%TO.P,H1,1,1*%
%TO.N,GND*%
X114000000Y-72000000D03*
%TD*%
D10*
%TO.P,TP3,1,1*%
%TO.N,PIXELS_DATA_3.3V*%
X141284399Y-130783321D03*
%TD*%
D13*
%TO.P,J4,1,Pin_1*%
%TO.N,GND*%
X162560000Y-77470000D03*
D14*
%TO.P,J4,2,Pin_2*%
%TO.N,ENC2B*%
X162560000Y-80010000D03*
%TO.P,J4,3,Pin_3*%
%TO.N,ENC2A*%
X162560000Y-82550000D03*
%TO.P,J4,4,Pin_4*%
%TO.N,+3.3V*%
X162560000Y-85090000D03*
%TO.P,J4,5,Pin_5*%
%TO.N,M2-*%
X162560000Y-87630000D03*
D15*
%TO.P,J4,6,Pin_6*%
%TO.N,M2+*%
X162560000Y-90170000D03*
%TD*%
D16*
%TO.P,H3,1,1*%
%TO.N,GND*%
X163000000Y-130000000D03*
%TD*%
D11*
%TO.P,U3,1,D7*%
%TO.N,Net-(J1-Pin_9)*%
X150600000Y-101520000D03*
D12*
%TO.P,U3,2,Q5*%
%TO.N,unconnected-(U3-Q5-Pad2)*%
X150600000Y-104060000D03*
%TO.P,U3,3,Q7*%
%TO.N,BUMPER_DATA*%
X150600000Y-106600000D03*
%TO.P,U3,4,D3*%
%TO.N,Net-(J1-Pin_5)*%
X150600000Y-109140000D03*
%TO.P,U3,5,D2*%
%TO.N,Net-(J1-Pin_4)*%
X150600000Y-111680000D03*
%TO.P,U3,6,D1*%
%TO.N,Net-(J1-Pin_3)*%
X150600000Y-114220000D03*
%TO.P,U3,7,D0*%
%TO.N,Net-(J1-Pin_2)*%
X150600000Y-116760000D03*
%TO.P,U3,8,VSS*%
%TO.N,GND*%
X150600000Y-119300000D03*
%TO.P,U3,9,PL*%
%TO.N,SHIFT_REG_LOAD*%
X158220000Y-119300000D03*
%TO.P,U3,10,CP*%
%TO.N,SHIFT_REG_CLOCK*%
X158220000Y-116760000D03*
%TO.P,U3,11,DS*%
%TO.N,unconnected-(U3-DS-Pad11)*%
X158220000Y-114220000D03*
%TO.P,U3,12,Q6*%
%TO.N,unconnected-(U3-Q6-Pad12)*%
X158220000Y-111680000D03*
%TO.P,U3,13,D4*%
%TO.N,Net-(J1-Pin_6)*%
X158220000Y-109140000D03*
%TO.P,U3,14,D5*%
%TO.N,Net-(J1-Pin_7)*%
X158220000Y-106600000D03*
%TO.P,U3,15,D6*%
%TO.N,Net-(J1-Pin_8)*%
X158220000Y-104060000D03*
%TO.P,U3,16,VDD*%
%TO.N,+3.3V*%
X158220000Y-101520000D03*
%TD*%
D10*
%TO.P,TP16,1,1*%
%TO.N,M2-*%
X149821974Y-93941974D03*
%TD*%
D13*
%TO.P,J9,1,Pin_1*%
%TO.N,GND*%
X167640000Y-139700000D03*
D14*
%TO.P,J9,2,Pin_2*%
%TO.N,+3.3V*%
X167640000Y-142240000D03*
%TO.P,J9,3,Pin_3*%
%TO.N,+5V*%
X167640000Y-144780000D03*
%TD*%
D10*
%TO.P,TP2,1,1*%
%TO.N,USONIC_TRIG*%
X118110000Y-63500000D03*
%TD*%
D17*
%TO.P,Q2,1,E*%
%TO.N,GND*%
X153349399Y-133958321D03*
D18*
%TO.P,Q2,2,B*%
%TO.N,Net-(Q2-B)*%
X153349399Y-132688321D03*
%TO.P,Q2,3,C*%
%TO.N,PIXELS_DATA_5V*%
X153349399Y-131418321D03*
%TD*%
D10*
%TO.P,TP7,1,1*%
%TO.N,SHIFT_REG_LOAD*%
X133350000Y-133350000D03*
%TD*%
D19*
%TO.P,GND1,1,1*%
%TO.N,GND*%
X166370000Y-149860000D03*
X168910000Y-149860000D03*
%TD*%
D10*
%TO.P,TP19,1,1*%
%TO.N,ENC2A*%
X158750000Y-82550000D03*
%TD*%
D20*
%TO.P,SW1,1,1*%
%TO.N,GND*%
X106395000Y-100330000D03*
%TO.P,SW1,2,2*%
%TO.N,Net-(SW1-Pad2)*%
X112045000Y-100330000D03*
%TD*%
D10*
%TO.P,TP6,1,1*%
%TO.N,BUMPER_DATA*%
X133350000Y-130810000D03*
%TD*%
%TO.P,TP1,1,1*%
%TO.N,USONIC_ECHO*%
X118110000Y-60960000D03*
%TD*%
%TO.P,TP5,1,1*%
%TO.N,NES_DATA*%
X133350000Y-128270000D03*
%TD*%
%TO.P,TP4,1,1*%
%TO.N,PIXELS_DATA_5V*%
X156524399Y-131418321D03*
%TD*%
%TO.P,TP13,1,1*%
%TO.N,M1+*%
X149821974Y-86321974D03*
%TD*%
D16*
%TO.P,H2,1,1*%
%TO.N,GND*%
X114000000Y-130000000D03*
%TD*%
D10*
%TO.P,TP14,1,1*%
%TO.N,M1-*%
X149821974Y-88861974D03*
%TD*%
%TO.P,TP18,1,1*%
%TO.N,ENC1B*%
X118110000Y-87630000D03*
%TD*%
%TO.P,TP17,1,1*%
%TO.N,ENC1A*%
X118110000Y-85090000D03*
%TD*%
D15*
%TO.P,J3,6,Pin_6*%
%TO.N,M1+*%
X114300000Y-77470000D03*
D14*
%TO.P,J3,5,Pin_5*%
%TO.N,M1-*%
X114300000Y-80010000D03*
%TO.P,J3,4,Pin_4*%
%TO.N,+3.3V*%
X114300000Y-82550000D03*
%TO.P,J3,3,Pin_3*%
%TO.N,ENC1A*%
X114300000Y-85090000D03*
%TO.P,J3,2,Pin_2*%
%TO.N,ENC1B*%
X114300000Y-87630000D03*
D13*
%TO.P,J3,1,Pin_1*%
%TO.N,GND*%
X114300000Y-90170000D03*
%TD*%
D10*
%TO.P,TP10,1,1*%
%TO.N,PWM1*%
X124421974Y-88861974D03*
%TD*%
D17*
%TO.P,Q1,1,E*%
%TO.N,GND*%
X146364399Y-133958321D03*
D18*
%TO.P,Q1,2,B*%
%TO.N,Net-(Q1-B)*%
X146364399Y-132688321D03*
%TO.P,Q1,3,C*%
%TO.N,Net-(Q1-C)*%
X146364399Y-131418321D03*
%TD*%
D13*
%TO.P,J10,1,Pin_1*%
%TO.N,D11*%
X109220000Y-139700000D03*
D14*
%TO.P,J10,2,Pin_2*%
%TO.N,D12*%
X109220000Y-142240000D03*
%TO.P,J10,3,Pin_3*%
%TO.N,D13*%
X109220000Y-144780000D03*
%TD*%
D21*
%TO.P,J8,1,Pin_1*%
%TO.N,+5V*%
X132080000Y-83820000D03*
%TO.P,J8,2,Pin_2*%
%TO.N,GND*%
X134620000Y-83820000D03*
%TO.P,J8,3,Pin_3*%
%TO.N,I2C_SCL*%
X137160000Y-83820000D03*
%TO.P,J8,4,Pin_4*%
%TO.N,I2C_SDA*%
X139700000Y-83820000D03*
%TO.P,J8,5,Pin_5*%
%TO.N,unconnected-(J8-Pin_5-Pad5)*%
X142240000Y-83820000D03*
%TD*%
D22*
%TO.P,J7,1,Pin_1*%
%TO.N,GND*%
X148590000Y-144250000D03*
D21*
%TO.P,J7,2,Pin_2*%
%TO.N,unconnected-(J7-Pin_2-Pad2)*%
X151130000Y-144250000D03*
%TO.P,J7,3,Pin_3*%
%TO.N,unconnected-(J7-Pin_3-Pad3)*%
X153670000Y-144250000D03*
%TO.P,J7,4,Pin_4*%
%TO.N,unconnected-(J7-Pin_4-Pad4)*%
X156210000Y-144250000D03*
%TO.P,J7,5,Pin_5*%
%TO.N,+5V*%
X158750000Y-144250000D03*
%TD*%
D13*
%TO.P,J5,1,Pin_1*%
%TO.N,GND*%
X168910000Y-128270000D03*
D14*
%TO.P,J5,2,Pin_2*%
%TO.N,PIXELS_DATA_5V*%
X168910000Y-130810000D03*
%TO.P,J5,3,Pin_3*%
%TO.N,+5V*%
X168910000Y-133350000D03*
%TD*%
D23*
%TO.P,J2,1,GND*%
%TO.N,GND*%
X118162569Y-132179026D03*
%TO.P,J2,2,Clock*%
%TO.N,SHIFT_REG_CLOCK*%
X122226569Y-132179026D03*
%TO.P,J2,3,Load*%
%TO.N,SHIFT_REG_LOAD*%
X126290569Y-132179026D03*
%TO.P,J2,4,Data*%
%TO.N,NES_DATA*%
X130354569Y-132179026D03*
%TO.P,J2,5,NC*%
%TO.N,unconnected-(J2-NC-Pad5)*%
X130354569Y-134790426D03*
%TO.P,J2,6,NC*%
%TO.N,unconnected-(J2-NC-Pad6)*%
X126290569Y-134790426D03*
%TO.P,J2,7,VCC*%
%TO.N,+3.3V*%
X122226569Y-134790426D03*
%TD*%
D13*
%TO.P,J1,1,Pin_1*%
%TO.N,+3.3V*%
X162560000Y-121920000D03*
D14*
%TO.P,J1,2,Pin_2*%
%TO.N,Net-(J1-Pin_2)*%
X162560000Y-119380000D03*
%TO.P,J1,3,Pin_3*%
%TO.N,Net-(J1-Pin_3)*%
X162560000Y-116840000D03*
%TO.P,J1,4,Pin_4*%
%TO.N,Net-(J1-Pin_4)*%
X162560000Y-114300000D03*
%TO.P,J1,5,Pin_5*%
%TO.N,Net-(J1-Pin_5)*%
X162560000Y-111760000D03*
%TO.P,J1,6,Pin_6*%
%TO.N,Net-(J1-Pin_6)*%
X162560000Y-109220000D03*
%TO.P,J1,7,Pin_7*%
%TO.N,Net-(J1-Pin_7)*%
X162560000Y-106680000D03*
%TO.P,J1,8,Pin_8*%
%TO.N,Net-(J1-Pin_8)*%
X162560000Y-104140000D03*
D15*
%TO.P,J1,9,Pin_9*%
%TO.N,Net-(J1-Pin_9)*%
X162560000Y-101600000D03*
%TD*%
D24*
%TO.N,GND*%
X113030000Y-96520000D03*
%TO.N,ENC1A*%
X117300000Y-98651472D03*
%TO.N,ENC1B*%
X116440000Y-98639999D03*
%TO.N,GND*%
X153670000Y-105410000D03*
%TO.N,+3.3V*%
X143510000Y-81280000D03*
%TO.N,SHIFT_REG_LOAD*%
X153670000Y-124460000D03*
%TO.N,SHIFT_REG_CLOCK*%
X154305000Y-125095000D03*
%TO.N,GND*%
X121056089Y-106544636D03*
X148590000Y-106680000D03*
%TO.N,PWM1*%
X118606726Y-105600000D03*
%TO.N,PWM2*%
X118593046Y-106606624D03*
%TO.N,PIXELS_DATA_3.3V*%
X139467720Y-132600000D03*
%TO.N,NES_DATA*%
X124274802Y-125418967D03*
%TO.N,GND*%
X128200000Y-129200000D03*
X128400000Y-133400000D03*
X135600000Y-131800000D03*
X126200000Y-90200000D03*
X126200000Y-87600000D03*
X121200000Y-122600000D03*
X126200000Y-92800000D03*
X146050000Y-116840000D03*
X134600000Y-116800000D03*
X120000000Y-127800000D03*
X124400000Y-131000000D03*
X128200000Y-111800000D03*
X114300000Y-115570000D03*
X143800000Y-129800000D03*
X121920000Y-113030000D03*
X115800000Y-121800000D03*
X160020000Y-115570000D03*
X160020000Y-105410000D03*
X160020000Y-110400000D03*
%TD*%
D25*
%TO.N,SHIFT_REG_CLOCK*%
X134310000Y-135890000D02*
X133350000Y-135890000D01*
X153221471Y-124860000D02*
X145340000Y-124860000D01*
X154270000Y-125060000D02*
X153421471Y-125060000D01*
X153421471Y-125060000D02*
X153221471Y-124860000D01*
X145340000Y-124860000D02*
X134310000Y-135890000D01*
X154305000Y-125095000D02*
X154270000Y-125060000D01*
%TO.N,SHIFT_REG_LOAD*%
X136250000Y-133350000D02*
X133350000Y-133350000D01*
X145140000Y-124460000D02*
X136250000Y-133350000D01*
X153670000Y-124460000D02*
X145140000Y-124460000D01*
%TO.N,ENC2A*%
X161010000Y-84100000D02*
X162560000Y-82550000D01*
X161010000Y-85722157D02*
X161010000Y-84100000D01*
X147238693Y-99493464D02*
X161010000Y-85722157D01*
X145320000Y-106680000D02*
X147238693Y-104761307D01*
X134450000Y-109114365D02*
X136884365Y-106680000D01*
X134450000Y-109685635D02*
X134450000Y-109114365D01*
X133805635Y-110330000D02*
X134450000Y-109685635D01*
X130810000Y-109230000D02*
X131910000Y-110330000D01*
X131910000Y-110330000D02*
X133805635Y-110330000D01*
X147238693Y-104761307D02*
X147238693Y-99493464D01*
X136884365Y-106680000D02*
X145320000Y-106680000D01*
%TO.N,ENC1A*%
X132250000Y-108130000D02*
X133350000Y-109230000D01*
X127735686Y-108130000D02*
X132250000Y-108130000D01*
X125695686Y-107330000D02*
X126935685Y-107330000D01*
X126935685Y-107330000D02*
X127735686Y-108130000D01*
X117300000Y-98934314D02*
X125695686Y-107330000D01*
X117300000Y-98651472D02*
X117300000Y-98934314D01*
D26*
%TO.N,+5V*%
X113000000Y-91470000D02*
X110490000Y-88960000D01*
X118140000Y-91470000D02*
X113000000Y-91470000D01*
X125691974Y-99021974D02*
X118140000Y-91470000D01*
X110490000Y-70390000D02*
X114800000Y-66080000D01*
X128231974Y-99021974D02*
X125691974Y-99021974D01*
X110490000Y-88960000D02*
X110490000Y-70390000D01*
D25*
%TO.N,ENC1B*%
X116440000Y-98639999D02*
X125295686Y-107495685D01*
X126770000Y-107730000D02*
X128270000Y-109230000D01*
X125530000Y-107730000D02*
X126770000Y-107730000D01*
X125295686Y-107495685D02*
X125530000Y-107730000D01*
%TO.N,USONIC_ECHO*%
X123190000Y-107101471D02*
X123190000Y-109230000D01*
X118218529Y-102130000D02*
X123190000Y-107101471D01*
X111299415Y-102130000D02*
X118218529Y-102130000D01*
X109540000Y-100370585D02*
X111299415Y-102130000D01*
X109540000Y-69996496D02*
X109540000Y-100370585D01*
X113250000Y-66286496D02*
X109540000Y-69996496D01*
X113650000Y-64124314D02*
X113250000Y-64524314D01*
X113250000Y-64524314D02*
X113250000Y-66286496D01*
X113650000Y-62150000D02*
X113650000Y-64124314D01*
X114800000Y-61000000D02*
X113650000Y-62150000D01*
%TO.N,USONIC_TRIG*%
X121750000Y-110330000D02*
X120650000Y-109230000D01*
X124290000Y-109685635D02*
X123645635Y-110330000D01*
X124290000Y-107635785D02*
X124290000Y-109685635D01*
X111465101Y-101730000D02*
X118384215Y-101730000D01*
X109940000Y-100204899D02*
X111465101Y-101730000D01*
X123645635Y-110330000D02*
X121750000Y-110330000D01*
X113650000Y-66452182D02*
X109940000Y-70162182D01*
X113650000Y-64690000D02*
X113650000Y-66452182D01*
X109940000Y-70162182D02*
X109940000Y-100204899D01*
X118384215Y-101730000D02*
X124290000Y-107635785D01*
X114800000Y-63540000D02*
X113650000Y-64690000D01*
%TO.N,ENC1A*%
X114300000Y-85090000D02*
X118110000Y-85090000D01*
%TO.N,ENC1B*%
X114300000Y-87630000D02*
X118110000Y-87630000D01*
D26*
%TO.N,+3.3V*%
X117410000Y-80710000D02*
X115570000Y-82550000D01*
X142940000Y-80710000D02*
X117410000Y-80710000D01*
X143510000Y-81280000D02*
X142940000Y-80710000D01*
X115570000Y-82550000D02*
X114300000Y-82550000D01*
%TO.N,M1-*%
X113000000Y-78710000D02*
X114300000Y-80010000D01*
X114838478Y-76170000D02*
X113761522Y-76170000D01*
X117978478Y-79310000D02*
X114838478Y-76170000D01*
X143799950Y-79310000D02*
X117978478Y-79310000D01*
X147311974Y-82822024D02*
X143799950Y-79310000D01*
X113761522Y-76170000D02*
X113000000Y-76931522D01*
X146011974Y-88861974D02*
X147311974Y-87561974D01*
X147311974Y-87561974D02*
X147311974Y-82822024D01*
X113000000Y-76931522D02*
X113000000Y-78710000D01*
%TO.N,M1+*%
X143510000Y-80010000D02*
X116840000Y-80010000D01*
X116840000Y-80010000D02*
X114300000Y-77470000D01*
X146542665Y-83042665D02*
X143510000Y-80010000D01*
X146542665Y-85791283D02*
X146542665Y-83042665D01*
X146011974Y-86321974D02*
X146542665Y-85791283D01*
D25*
%TO.N,Net-(J1-Pin_8)*%
X159810000Y-102470000D02*
X160890000Y-102470000D01*
X160890000Y-102470000D02*
X162560000Y-104140000D01*
X158220000Y-104060000D02*
X159810000Y-102470000D01*
%TO.N,Net-(J1-Pin_9)*%
X151700000Y-102620000D02*
X150600000Y-101520000D01*
X160797818Y-101600000D02*
X160327818Y-102070000D01*
X160327818Y-102070000D02*
X159225635Y-102070000D01*
X158675635Y-102620000D02*
X151700000Y-102620000D01*
X162560000Y-101600000D02*
X160797818Y-101600000D01*
X159225635Y-102070000D02*
X158675635Y-102620000D01*
D26*
%TO.N,+3.3V*%
X163860000Y-120620000D02*
X162560000Y-121920000D01*
X163860000Y-101061522D02*
X163860000Y-120620000D01*
X161320000Y-100300000D02*
X163098478Y-100300000D01*
X160100000Y-101520000D02*
X161320000Y-100300000D01*
X163098478Y-100300000D02*
X163860000Y-101061522D01*
X158220000Y-101520000D02*
X160100000Y-101520000D01*
D25*
%TO.N,Net-(J1-Pin_5)*%
X159855635Y-111760000D02*
X162560000Y-111760000D01*
X158675635Y-110580000D02*
X159855635Y-111760000D01*
X157120000Y-111224365D02*
X157764365Y-110580000D01*
X157120000Y-112890051D02*
X157120000Y-111224365D01*
X153855687Y-114370000D02*
X155640051Y-114370000D01*
X151700000Y-112214313D02*
X153855687Y-114370000D01*
X151700000Y-111224365D02*
X151700000Y-112214313D01*
X155640051Y-114370000D02*
X157120000Y-112890051D01*
X157764365Y-110580000D02*
X158675635Y-110580000D01*
X150600000Y-110124365D02*
X151700000Y-111224365D01*
X150600000Y-109140000D02*
X150600000Y-110124365D01*
%TO.N,Net-(J1-Pin_3)*%
X160020000Y-116840000D02*
X162560000Y-116840000D01*
X155790051Y-115320000D02*
X158500000Y-115320000D01*
X158500000Y-115320000D02*
X160020000Y-116840000D01*
X155640051Y-115170000D02*
X155790051Y-115320000D01*
X151624314Y-115170000D02*
X155640051Y-115170000D01*
X151587157Y-115207157D02*
X151624314Y-115170000D01*
X150600000Y-114220000D02*
X151587157Y-115207157D01*
%TO.N,Net-(J1-Pin_4)*%
X153690000Y-114770000D02*
X150600000Y-111680000D01*
X157455737Y-113120000D02*
X155805737Y-114770000D01*
X158702792Y-113147158D02*
X158675635Y-113120000D01*
X159689950Y-112160000D02*
X158702792Y-113147158D01*
X161333654Y-112160000D02*
X159689950Y-112160000D01*
X162560000Y-113386346D02*
X161333654Y-112160000D01*
X155805737Y-114770000D02*
X153690000Y-114770000D01*
X158675635Y-113120000D02*
X157455737Y-113120000D01*
X162560000Y-114300000D02*
X162560000Y-113386346D01*
%TO.N,Net-(J1-Pin_2)*%
X159295635Y-117240000D02*
X161333654Y-117240000D01*
X162560000Y-118466346D02*
X162560000Y-119380000D01*
X157764365Y-117860000D02*
X158675635Y-117860000D01*
X155474365Y-115570000D02*
X157764365Y-117860000D01*
X158675635Y-117860000D02*
X159295635Y-117240000D01*
X151790000Y-115570000D02*
X155474365Y-115570000D01*
X161333654Y-117240000D02*
X162560000Y-118466346D01*
X150600000Y-116760000D02*
X151790000Y-115570000D01*
%TO.N,ENC2B*%
X163710000Y-81160000D02*
X162560000Y-80010000D01*
X163710000Y-83266346D02*
X163710000Y-81160000D01*
X163036346Y-83940000D02*
X163710000Y-83266346D01*
X162083654Y-83940000D02*
X163036346Y-83940000D01*
X161410000Y-84613654D02*
X162083654Y-83940000D01*
X147638693Y-104926993D02*
X147638693Y-99659150D01*
X147320000Y-105245686D02*
X147638693Y-104926993D01*
X147320000Y-110500000D02*
X147320000Y-105245686D01*
X161410000Y-85887843D02*
X161410000Y-84613654D01*
X133350000Y-124470000D02*
X147320000Y-110500000D01*
X147638693Y-99659150D02*
X161410000Y-85887843D01*
%TO.N,Net-(J1-Pin_7)*%
X159170000Y-107550000D02*
X161690000Y-107550000D01*
X158220000Y-106600000D02*
X159170000Y-107550000D01*
X161690000Y-107550000D02*
X162560000Y-106680000D01*
%TO.N,Net-(J1-Pin_6)*%
X161290000Y-107950000D02*
X162560000Y-109220000D01*
X159410000Y-107950000D02*
X161290000Y-107950000D01*
X158220000Y-109140000D02*
X159410000Y-107950000D01*
%TO.N,Net-(SW1-Pad2)*%
X125349901Y-108130000D02*
X118549900Y-101330000D01*
X127170000Y-109114365D02*
X126185635Y-108130000D01*
X138430000Y-109230000D02*
X137860000Y-109800000D01*
X136048529Y-110800000D02*
X131451471Y-110800000D01*
X113045000Y-101330000D02*
X112045000Y-100330000D01*
X131451471Y-110800000D02*
X130981471Y-110330000D01*
X127814365Y-110330000D02*
X127170000Y-109685635D01*
X130981471Y-110330000D02*
X127814365Y-110330000D01*
X126185635Y-108130000D02*
X125349901Y-108130000D01*
X118549900Y-101330000D02*
X113045000Y-101330000D01*
X137048529Y-109800000D02*
X136048529Y-110800000D01*
X127170000Y-109685635D02*
X127170000Y-109114365D01*
X137860000Y-109800000D02*
X137048529Y-109800000D01*
%TO.N,PWM1*%
X118606726Y-105617539D02*
X115570000Y-108654265D01*
X118606726Y-105600000D02*
X118606726Y-105617539D01*
X115570000Y-108654265D02*
X115570000Y-109230000D01*
%TO.N,D12*%
X109220000Y-110500000D02*
X107950000Y-109230000D01*
X109220000Y-142240000D02*
X108070000Y-141090000D01*
X108070000Y-141090000D02*
X108070000Y-138550000D01*
X108070000Y-138550000D02*
X109220000Y-137400000D01*
X109220000Y-137400000D02*
X109220000Y-110500000D01*
D26*
%TO.N,+3.3V*%
X166150000Y-140750000D02*
X167640000Y-142240000D01*
X162560000Y-121920000D02*
X166150000Y-125510000D01*
X166150000Y-125510000D02*
X166150000Y-140750000D01*
D25*
%TO.N,D11*%
X110945635Y-125570000D02*
X111590000Y-124925635D01*
X111590000Y-124925635D02*
X111590000Y-124014365D01*
X109620000Y-137565685D02*
X109620000Y-125155635D01*
X111590000Y-124014365D02*
X109620000Y-122044365D01*
X109620000Y-122044365D02*
X109620000Y-110100000D01*
X109220000Y-137965686D02*
X109620000Y-137565685D01*
X109620000Y-125155635D02*
X110034365Y-125570000D01*
X109620000Y-110100000D02*
X110490000Y-109230000D01*
X109220000Y-139700000D02*
X109220000Y-137965686D01*
X110034365Y-125570000D02*
X110945635Y-125570000D01*
%TO.N,PWM2*%
X114130000Y-110330000D02*
X113030000Y-109230000D01*
X118593046Y-106606954D02*
X116670000Y-108530000D01*
X116670000Y-108530000D02*
X116670000Y-109685635D01*
X116025635Y-110330000D02*
X114130000Y-110330000D01*
X116670000Y-109685635D02*
X116025635Y-110330000D01*
X118593046Y-106606624D02*
X118593046Y-106606954D01*
%TO.N,D13*%
X107670000Y-138384314D02*
X108820000Y-137234314D01*
X108820000Y-125340000D02*
X107950000Y-124470000D01*
X107670000Y-143230000D02*
X107670000Y-138384314D01*
X108820000Y-137234314D02*
X108820000Y-125340000D01*
X109220000Y-144780000D02*
X107670000Y-143230000D01*
%TO.N,PIXELS_DATA_3.3V*%
X139467720Y-132600000D02*
X141284399Y-130783321D01*
%TO.N,NES_DATA*%
X124274802Y-124940833D02*
X124290000Y-124925635D01*
X124290000Y-124925635D02*
X124290000Y-124014365D01*
X124274802Y-125418967D02*
X124274802Y-124940833D01*
X124290000Y-124014365D02*
X118110000Y-117834365D01*
X118110000Y-117834365D02*
X118110000Y-109230000D01*
%TO.N,BUMPER_DATA*%
X149200000Y-108000000D02*
X149200000Y-109185686D01*
X133805635Y-125570000D02*
X131910000Y-125570000D01*
X134600000Y-124775635D02*
X133805635Y-125570000D01*
X149200000Y-109185686D02*
X134600000Y-123785686D01*
X131910000Y-125570000D02*
X130810000Y-124470000D01*
X133350000Y-130810000D02*
X130810000Y-128270000D01*
X150600000Y-106600000D02*
X149200000Y-108000000D01*
X130810000Y-128270000D02*
X130810000Y-124470000D01*
X134600000Y-123785686D02*
X134600000Y-124775635D01*
%TO.N,SHIFT_REG_LOAD*%
X131443132Y-130736026D02*
X127733569Y-130736026D01*
X133350000Y-133350000D02*
X133350000Y-132642894D01*
X127733569Y-130736026D02*
X126290569Y-132179026D01*
X133350000Y-132642894D02*
X131443132Y-130736026D01*
D26*
%TO.N,+5V*%
X132080000Y-83820000D02*
X132080000Y-85090000D01*
%TO.N,M2+*%
X146011974Y-91401974D02*
X149821974Y-91401974D01*
%TO.N,M2-*%
X146011974Y-93941974D02*
X149821974Y-93941974D01*
%TO.N,+5V*%
X132080000Y-85090000D02*
X146011974Y-99021974D01*
%TD*%
%TA.AperFunction,Conductor*%
%TO.N,GND*%
G36*
X111813892Y-109874625D02*
G01*
X111902819Y-109913753D01*
X111963968Y-109974902D01*
X112029953Y-110069139D01*
X112190861Y-110230047D01*
X112190864Y-110230049D01*
X112190865Y-110230050D01*
X112377258Y-110360563D01*
X112377262Y-110360565D01*
X112377266Y-110360568D01*
X112377270Y-110360569D01*
X112377272Y-110360571D01*
X112449036Y-110394035D01*
X112583504Y-110456739D01*
X112803308Y-110515635D01*
X112822984Y-110517356D01*
X113029994Y-110535468D01*
X113030000Y-110535468D01*
X113030006Y-110535468D01*
X113209668Y-110519749D01*
X113256692Y-110515635D01*
X113283221Y-110508526D01*
X113380160Y-110502170D01*
X113472160Y-110533397D01*
X113523736Y-110572971D01*
X113649478Y-110698713D01*
X113649480Y-110698716D01*
X113761284Y-110810520D01*
X113848091Y-110860637D01*
X113848094Y-110860639D01*
X113896521Y-110888599D01*
X113898215Y-110889577D01*
X114050943Y-110930501D01*
X114224318Y-110930501D01*
X114224334Y-110930500D01*
X115931301Y-110930500D01*
X115931317Y-110930501D01*
X115946578Y-110930501D01*
X116104691Y-110930501D01*
X116104692Y-110930501D01*
X116257420Y-110889577D01*
X116307539Y-110860639D01*
X116394351Y-110810520D01*
X116506155Y-110698716D01*
X116506155Y-110698714D01*
X116526651Y-110678219D01*
X116526654Y-110678214D01*
X116949004Y-110255865D01*
X117029783Y-110201891D01*
X117125071Y-110182937D01*
X117220359Y-110201891D01*
X117267890Y-110227967D01*
X117330290Y-110271659D01*
X117372190Y-110300998D01*
X117403319Y-110322794D01*
X117470504Y-110392975D01*
X117505717Y-110483524D01*
X117509500Y-110526764D01*
X117509500Y-117740030D01*
X117509499Y-117740048D01*
X117509499Y-117755308D01*
X117509499Y-117913422D01*
X117529144Y-117986737D01*
X117550423Y-118066151D01*
X117554517Y-118073240D01*
X117554524Y-118073263D01*
X117554529Y-118073261D01*
X117596595Y-118146123D01*
X117629480Y-118203081D01*
X117741284Y-118314885D01*
X117741286Y-118314886D01*
X122461867Y-123035467D01*
X122515843Y-123116249D01*
X122534797Y-123211537D01*
X122515843Y-123306825D01*
X122461867Y-123387607D01*
X122428620Y-123415504D01*
X122350865Y-123469949D01*
X122189949Y-123630865D01*
X122123969Y-123725096D01*
X122053788Y-123792280D01*
X121963239Y-123827493D01*
X121866107Y-123825374D01*
X121777180Y-123786245D01*
X121716031Y-123725096D01*
X121650050Y-123630865D01*
X121650049Y-123630864D01*
X121650047Y-123630861D01*
X121489139Y-123469953D01*
X121489135Y-123469950D01*
X121489134Y-123469949D01*
X121302741Y-123339436D01*
X121302727Y-123339428D01*
X121096499Y-123243262D01*
X121096496Y-123243261D01*
X120876694Y-123184365D01*
X120876679Y-123184363D01*
X120650006Y-123164532D01*
X120649994Y-123164532D01*
X120423320Y-123184363D01*
X120423305Y-123184365D01*
X120203503Y-123243261D01*
X120203500Y-123243262D01*
X119997272Y-123339428D01*
X119997258Y-123339436D01*
X119810865Y-123469949D01*
X119649949Y-123630865D01*
X119583969Y-123725096D01*
X119513788Y-123792280D01*
X119423239Y-123827493D01*
X119326107Y-123825374D01*
X119237180Y-123786245D01*
X119176031Y-123725096D01*
X119110050Y-123630865D01*
X119110049Y-123630864D01*
X119110047Y-123630861D01*
X118949139Y-123469953D01*
X118949135Y-123469950D01*
X118949134Y-123469949D01*
X118762741Y-123339436D01*
X118762727Y-123339428D01*
X118556499Y-123243262D01*
X118556496Y-123243261D01*
X118336694Y-123184365D01*
X118336679Y-123184363D01*
X118110006Y-123164532D01*
X118109994Y-123164532D01*
X117883320Y-123184363D01*
X117883305Y-123184365D01*
X117663503Y-123243261D01*
X117663500Y-123243262D01*
X117457272Y-123339428D01*
X117457258Y-123339436D01*
X117270865Y-123469949D01*
X117109949Y-123630865D01*
X117043969Y-123725096D01*
X116973788Y-123792280D01*
X116883239Y-123827493D01*
X116786107Y-123825374D01*
X116697180Y-123786245D01*
X116636031Y-123725096D01*
X116570050Y-123630865D01*
X116570049Y-123630864D01*
X116570047Y-123630861D01*
X116409139Y-123469953D01*
X116409135Y-123469950D01*
X116409134Y-123469949D01*
X116222741Y-123339436D01*
X116222727Y-123339428D01*
X116016499Y-123243262D01*
X116016496Y-123243261D01*
X115796694Y-123184365D01*
X115796679Y-123184363D01*
X115570006Y-123164532D01*
X115569994Y-123164532D01*
X115343320Y-123184363D01*
X115343305Y-123184365D01*
X115123503Y-123243261D01*
X115123500Y-123243262D01*
X114917272Y-123339428D01*
X114917258Y-123339436D01*
X114730865Y-123469949D01*
X114569949Y-123630865D01*
X114503969Y-123725096D01*
X114433788Y-123792280D01*
X114343239Y-123827493D01*
X114246107Y-123825374D01*
X114157180Y-123786245D01*
X114096031Y-123725096D01*
X114030050Y-123630865D01*
X114030049Y-123630864D01*
X114030047Y-123630861D01*
X113869139Y-123469953D01*
X113869135Y-123469950D01*
X113869134Y-123469949D01*
X113682741Y-123339436D01*
X113682727Y-123339428D01*
X113476499Y-123243262D01*
X113476496Y-123243261D01*
X113256694Y-123184365D01*
X113256679Y-123184363D01*
X113030006Y-123164532D01*
X113029994Y-123164532D01*
X112803320Y-123184363D01*
X112803305Y-123184365D01*
X112583503Y-123243261D01*
X112583500Y-123243262D01*
X112377272Y-123339428D01*
X112377260Y-123339435D01*
X112187891Y-123472031D01*
X112098963Y-123511159D01*
X112001832Y-123513278D01*
X111911283Y-123478064D01*
X111869002Y-123444131D01*
X110293430Y-121868559D01*
X110239454Y-121787777D01*
X110220500Y-121692489D01*
X110220500Y-110783625D01*
X110239454Y-110688337D01*
X110293430Y-110607555D01*
X110374212Y-110553579D01*
X110469500Y-110534625D01*
X110488793Y-110535468D01*
X110490000Y-110535468D01*
X110490006Y-110535468D01*
X110669668Y-110519749D01*
X110716692Y-110515635D01*
X110936496Y-110456739D01*
X111142734Y-110360568D01*
X111329139Y-110230047D01*
X111490047Y-110069139D01*
X111556031Y-109974902D01*
X111626211Y-109907719D01*
X111716760Y-109872506D01*
X111813892Y-109874625D01*
G37*
%TD.AperFunction*%
%TA.AperFunction,Conductor*%
G36*
X146565788Y-106500827D02*
G01*
X146646570Y-106554804D01*
X146700546Y-106635585D01*
X146719500Y-106730873D01*
X146719500Y-110148124D01*
X146700546Y-110243412D01*
X146646570Y-110324194D01*
X133843736Y-123127027D01*
X133762954Y-123181003D01*
X133667666Y-123199957D01*
X133603227Y-123191474D01*
X133576694Y-123184365D01*
X133576685Y-123184363D01*
X133350006Y-123164532D01*
X133349994Y-123164532D01*
X133123320Y-123184363D01*
X133123305Y-123184365D01*
X132903503Y-123243261D01*
X132903500Y-123243262D01*
X132697272Y-123339428D01*
X132697258Y-123339436D01*
X132510865Y-123469949D01*
X132349949Y-123630865D01*
X132283969Y-123725096D01*
X132213788Y-123792280D01*
X132123239Y-123827493D01*
X132026107Y-123825374D01*
X131937180Y-123786245D01*
X131876031Y-123725096D01*
X131810050Y-123630865D01*
X131810049Y-123630864D01*
X131810047Y-123630861D01*
X131649139Y-123469953D01*
X131649135Y-123469950D01*
X131649134Y-123469949D01*
X131462741Y-123339436D01*
X131462727Y-123339428D01*
X131256499Y-123243262D01*
X131256496Y-123243261D01*
X131036694Y-123184365D01*
X131036679Y-123184363D01*
X130810006Y-123164532D01*
X130809994Y-123164532D01*
X130583320Y-123184363D01*
X130583305Y-123184365D01*
X130363503Y-123243261D01*
X130363500Y-123243262D01*
X130157272Y-123339428D01*
X130157258Y-123339436D01*
X129970865Y-123469949D01*
X129809949Y-123630865D01*
X129743969Y-123725096D01*
X129673788Y-123792280D01*
X129583239Y-123827493D01*
X129486107Y-123825374D01*
X129397180Y-123786245D01*
X129336031Y-123725096D01*
X129270050Y-123630865D01*
X129270049Y-123630864D01*
X129270047Y-123630861D01*
X129109139Y-123469953D01*
X129109135Y-123469950D01*
X129109134Y-123469949D01*
X128922741Y-123339436D01*
X128922727Y-123339428D01*
X128716499Y-123243262D01*
X128716496Y-123243261D01*
X128496694Y-123184365D01*
X128496679Y-123184363D01*
X128270006Y-123164532D01*
X128269994Y-123164532D01*
X128043320Y-123184363D01*
X128043305Y-123184365D01*
X127823503Y-123243261D01*
X127823500Y-123243262D01*
X127617272Y-123339428D01*
X127617258Y-123339436D01*
X127430865Y-123469949D01*
X127269949Y-123630865D01*
X127203969Y-123725096D01*
X127133788Y-123792280D01*
X127043239Y-123827493D01*
X126946107Y-123825374D01*
X126857180Y-123786245D01*
X126796031Y-123725096D01*
X126730050Y-123630865D01*
X126730049Y-123630864D01*
X126730047Y-123630861D01*
X126569139Y-123469953D01*
X126569135Y-123469950D01*
X126569134Y-123469949D01*
X126382741Y-123339436D01*
X126382727Y-123339428D01*
X126176499Y-123243262D01*
X126176496Y-123243261D01*
X125956694Y-123184365D01*
X125956679Y-123184363D01*
X125730006Y-123164532D01*
X125729994Y-123164532D01*
X125503320Y-123184363D01*
X125503305Y-123184365D01*
X125283503Y-123243261D01*
X125283500Y-123243262D01*
X125077272Y-123339428D01*
X125077266Y-123339431D01*
X124887892Y-123472032D01*
X124798964Y-123511160D01*
X124701832Y-123513279D01*
X124611283Y-123478066D01*
X124569002Y-123444132D01*
X118783430Y-117658560D01*
X118729454Y-117577778D01*
X118710500Y-117482490D01*
X118710500Y-110526764D01*
X118729454Y-110431476D01*
X118783430Y-110350694D01*
X118816681Y-110322794D01*
X118949139Y-110230047D01*
X119110047Y-110069139D01*
X119176031Y-109974902D01*
X119246211Y-109907719D01*
X119336760Y-109872506D01*
X119433892Y-109874625D01*
X119522819Y-109913753D01*
X119583968Y-109974902D01*
X119649953Y-110069139D01*
X119810861Y-110230047D01*
X119810864Y-110230049D01*
X119810865Y-110230050D01*
X119997258Y-110360563D01*
X119997262Y-110360565D01*
X119997266Y-110360568D01*
X119997270Y-110360569D01*
X119997272Y-110360571D01*
X120069036Y-110394035D01*
X120203504Y-110456739D01*
X120423308Y-110515635D01*
X120442984Y-110517356D01*
X120649994Y-110535468D01*
X120650000Y-110535468D01*
X120650006Y-110535468D01*
X120829668Y-110519749D01*
X120876692Y-110515635D01*
X120903221Y-110508526D01*
X121000160Y-110502170D01*
X121092160Y-110533397D01*
X121143736Y-110572971D01*
X121269478Y-110698713D01*
X121269480Y-110698716D01*
X121381284Y-110810520D01*
X121468091Y-110860637D01*
X121468094Y-110860639D01*
X121516521Y-110888599D01*
X121518215Y-110889577D01*
X121670943Y-110930501D01*
X121844318Y-110930501D01*
X121844334Y-110930500D01*
X123551301Y-110930500D01*
X123551317Y-110930501D01*
X123566578Y-110930501D01*
X123724691Y-110930501D01*
X123724692Y-110930501D01*
X123877420Y-110889577D01*
X123927539Y-110860639D01*
X124014351Y-110810520D01*
X124126155Y-110698716D01*
X124126155Y-110698714D01*
X124146651Y-110678219D01*
X124146654Y-110678214D01*
X124569004Y-110255865D01*
X124649783Y-110201891D01*
X124745071Y-110182937D01*
X124840359Y-110201891D01*
X124887891Y-110227968D01*
X125077258Y-110360563D01*
X125077262Y-110360565D01*
X125077266Y-110360568D01*
X125077270Y-110360569D01*
X125077272Y-110360571D01*
X125149036Y-110394035D01*
X125283504Y-110456739D01*
X125503308Y-110515635D01*
X125522984Y-110517356D01*
X125729994Y-110535468D01*
X125730000Y-110535468D01*
X125730006Y-110535468D01*
X125909668Y-110519749D01*
X125956692Y-110515635D01*
X126176496Y-110456739D01*
X126382734Y-110360568D01*
X126569139Y-110230047D01*
X126569139Y-110230046D01*
X126572108Y-110227968D01*
X126661035Y-110188839D01*
X126758167Y-110186720D01*
X126848716Y-110221933D01*
X126890997Y-110255867D01*
X127445649Y-110810520D01*
X127523819Y-110855651D01*
X127582577Y-110889575D01*
X127582578Y-110889575D01*
X127582581Y-110889577D01*
X127735308Y-110930501D01*
X127908684Y-110930501D01*
X127908700Y-110930500D01*
X130629596Y-110930500D01*
X130724884Y-110949454D01*
X130805666Y-111003430D01*
X130970949Y-111168713D01*
X130970951Y-111168716D01*
X131082755Y-111280520D01*
X131219687Y-111359577D01*
X131331490Y-111389534D01*
X131372413Y-111400500D01*
X131372414Y-111400500D01*
X135954195Y-111400500D01*
X135954211Y-111400501D01*
X135969472Y-111400501D01*
X136127585Y-111400501D01*
X136127586Y-111400501D01*
X136280314Y-111359577D01*
X136330433Y-111330639D01*
X136417245Y-111280520D01*
X136529049Y-111168716D01*
X136529049Y-111168714D01*
X136549545Y-111148219D01*
X136549548Y-111148214D01*
X137224335Y-110473430D01*
X137305116Y-110419454D01*
X137400404Y-110400500D01*
X137765666Y-110400500D01*
X137765682Y-110400501D01*
X137780943Y-110400501D01*
X137807700Y-110400501D01*
X137902988Y-110419455D01*
X137912932Y-110423831D01*
X137962100Y-110446758D01*
X137983504Y-110456739D01*
X138203308Y-110515635D01*
X138222984Y-110517356D01*
X138429994Y-110535468D01*
X138430000Y-110535468D01*
X138430006Y-110535468D01*
X138609668Y-110519749D01*
X138656692Y-110515635D01*
X138876496Y-110456739D01*
X139082734Y-110360568D01*
X139269139Y-110230047D01*
X139430047Y-110069139D01*
X139496031Y-109974902D01*
X139566211Y-109907719D01*
X139656760Y-109872506D01*
X139753892Y-109874625D01*
X139842819Y-109913753D01*
X139903968Y-109974902D01*
X139969953Y-110069139D01*
X140130861Y-110230047D01*
X140130864Y-110230049D01*
X140130865Y-110230050D01*
X140317258Y-110360563D01*
X140317262Y-110360565D01*
X140317266Y-110360568D01*
X140317270Y-110360569D01*
X140317272Y-110360571D01*
X140389036Y-110394035D01*
X140523504Y-110456739D01*
X140743308Y-110515635D01*
X140762984Y-110517356D01*
X140969994Y-110535468D01*
X140970000Y-110535468D01*
X140970006Y-110535468D01*
X141149668Y-110519749D01*
X141196692Y-110515635D01*
X141416496Y-110456739D01*
X141622734Y-110360568D01*
X141809139Y-110230047D01*
X141856584Y-110182601D01*
X141937362Y-110128627D01*
X142032650Y-110109672D01*
X142127938Y-110128625D01*
X142208720Y-110182601D01*
X142262697Y-110263382D01*
X142265941Y-110271627D01*
X142266204Y-110272331D01*
X142352454Y-110387546D01*
X142467669Y-110473796D01*
X142602517Y-110524091D01*
X142662127Y-110530500D01*
X144357872Y-110530499D01*
X144417483Y-110524091D01*
X144552331Y-110473796D01*
X144667546Y-110387546D01*
X144753796Y-110272331D01*
X144804091Y-110137483D01*
X144810500Y-110077873D01*
X144810499Y-108382128D01*
X144804091Y-108322517D01*
X144753796Y-108187669D01*
X144667546Y-108072454D01*
X144552331Y-107986204D01*
X144440155Y-107944365D01*
X144417481Y-107935908D01*
X144357873Y-107929500D01*
X142662134Y-107929500D01*
X142662130Y-107929500D01*
X142662128Y-107929501D01*
X142649314Y-107930878D01*
X142602519Y-107935908D01*
X142602515Y-107935909D01*
X142467670Y-107986203D01*
X142352455Y-108072453D01*
X142352453Y-108072455D01*
X142266202Y-108187671D01*
X142265952Y-108188344D01*
X142264946Y-108189971D01*
X142257670Y-108203298D01*
X142256955Y-108202907D01*
X142214893Y-108271001D01*
X142136090Y-108327826D01*
X142041539Y-108350168D01*
X141945635Y-108334627D01*
X141862978Y-108283568D01*
X141856610Y-108277424D01*
X141809139Y-108229953D01*
X141809135Y-108229950D01*
X141809134Y-108229949D01*
X141622741Y-108099436D01*
X141622727Y-108099428D01*
X141416499Y-108003262D01*
X141416496Y-108003261D01*
X141196694Y-107944365D01*
X141196679Y-107944363D01*
X140970006Y-107924532D01*
X140969994Y-107924532D01*
X140743320Y-107944363D01*
X140743305Y-107944365D01*
X140523503Y-108003261D01*
X140523500Y-108003262D01*
X140317272Y-108099428D01*
X140317258Y-108099436D01*
X140130865Y-108229949D01*
X139969949Y-108390865D01*
X139903969Y-108485096D01*
X139833788Y-108552280D01*
X139743239Y-108587493D01*
X139646107Y-108585374D01*
X139557180Y-108546245D01*
X139496031Y-108485096D01*
X139430050Y-108390865D01*
X139430049Y-108390864D01*
X139430047Y-108390861D01*
X139269139Y-108229953D01*
X139269135Y-108229950D01*
X139269134Y-108229949D01*
X139082741Y-108099436D01*
X139082727Y-108099428D01*
X138876499Y-108003262D01*
X138876496Y-108003261D01*
X138656694Y-107944365D01*
X138656679Y-107944363D01*
X138430006Y-107924532D01*
X138429994Y-107924532D01*
X138203320Y-107944363D01*
X138203305Y-107944365D01*
X137983503Y-108003261D01*
X137983500Y-108003262D01*
X137777272Y-108099428D01*
X137777258Y-108099436D01*
X137590865Y-108229949D01*
X137429949Y-108390865D01*
X137299436Y-108577258D01*
X137299428Y-108577272D01*
X137203262Y-108783500D01*
X137203261Y-108783503D01*
X137144363Y-109003315D01*
X137144272Y-109003834D01*
X137144119Y-109004226D01*
X137141552Y-109013808D01*
X137140502Y-109013526D01*
X137109054Y-109094382D01*
X137041867Y-109164559D01*
X136963504Y-109201098D01*
X136816746Y-109240422D01*
X136816741Y-109240424D01*
X136679814Y-109319479D01*
X136679812Y-109319480D01*
X135872725Y-110126569D01*
X135791943Y-110180546D01*
X135696655Y-110199500D01*
X135258497Y-110199500D01*
X135163209Y-110180546D01*
X135082427Y-110126570D01*
X135028451Y-110045788D01*
X135009497Y-109950500D01*
X135017982Y-109886053D01*
X135050501Y-109764691D01*
X135050501Y-109591317D01*
X135050500Y-109591299D01*
X135050500Y-109466240D01*
X135069454Y-109370952D01*
X135123430Y-109290170D01*
X137060170Y-107353430D01*
X137140952Y-107299454D01*
X137236240Y-107280500D01*
X145225666Y-107280500D01*
X145225682Y-107280501D01*
X145240943Y-107280501D01*
X145399056Y-107280501D01*
X145399057Y-107280501D01*
X145551785Y-107239577D01*
X145590127Y-107217439D01*
X145607415Y-107207459D01*
X145607417Y-107207457D01*
X145607423Y-107207454D01*
X145688716Y-107160520D01*
X145800520Y-107048716D01*
X145800520Y-107048714D01*
X145821020Y-107028215D01*
X145821021Y-107028212D01*
X146294432Y-106554801D01*
X146375212Y-106500827D01*
X146470500Y-106481873D01*
X146565788Y-106500827D01*
G37*
%TD.AperFunction*%
%TA.AperFunction,Conductor*%
G36*
X161077067Y-112779454D02*
G01*
X161157849Y-112833430D01*
X161469110Y-113144691D01*
X161523086Y-113225473D01*
X161542040Y-113320761D01*
X161523086Y-113416049D01*
X161497010Y-113463581D01*
X161385964Y-113622171D01*
X161385961Y-113622177D01*
X161286098Y-113836333D01*
X161286097Y-113836335D01*
X161224935Y-114064598D01*
X161204341Y-114299994D01*
X161204341Y-114300005D01*
X161224935Y-114535401D01*
X161224937Y-114535408D01*
X161286097Y-114763663D01*
X161385965Y-114977830D01*
X161521505Y-115171401D01*
X161688599Y-115338495D01*
X161727925Y-115366031D01*
X161795107Y-115436209D01*
X161830321Y-115526758D01*
X161828202Y-115623890D01*
X161789074Y-115712818D01*
X161727928Y-115773965D01*
X161688603Y-115801501D01*
X161521504Y-115968600D01*
X161406166Y-116133321D01*
X161335985Y-116200505D01*
X161245435Y-116235717D01*
X161202197Y-116239500D01*
X160371876Y-116239500D01*
X160276588Y-116220546D01*
X160195807Y-116166570D01*
X159313559Y-115284323D01*
X159259582Y-115203541D01*
X159240628Y-115108253D01*
X159259582Y-115012965D01*
X159285654Y-114965440D01*
X159350568Y-114872734D01*
X159446739Y-114666496D01*
X159505635Y-114446692D01*
X159510375Y-114392512D01*
X159525468Y-114220005D01*
X159525468Y-114219994D01*
X159505636Y-113993320D01*
X159505635Y-113993308D01*
X159446739Y-113773504D01*
X159354717Y-113576164D01*
X159331625Y-113481796D01*
X159346404Y-113385772D01*
X159396805Y-113302713D01*
X159404291Y-113294892D01*
X159865755Y-112833430D01*
X159946536Y-112779454D01*
X160041824Y-112760500D01*
X160981779Y-112760500D01*
X161077067Y-112779454D01*
G37*
%TD.AperFunction*%
%TA.AperFunction,Conductor*%
G36*
X156880958Y-103239454D02*
G01*
X156961740Y-103293430D01*
X157015716Y-103374212D01*
X157034670Y-103469500D01*
X157015716Y-103564788D01*
X157011341Y-103574731D01*
X156993263Y-103613500D01*
X156993261Y-103613504D01*
X156990828Y-103622584D01*
X156934365Y-103833305D01*
X156934363Y-103833320D01*
X156914532Y-104059994D01*
X156914532Y-104060005D01*
X156934363Y-104286679D01*
X156934365Y-104286694D01*
X156993261Y-104506496D01*
X156993262Y-104506499D01*
X157089428Y-104712727D01*
X157089436Y-104712741D01*
X157219949Y-104899134D01*
X157219953Y-104899139D01*
X157380861Y-105060047D01*
X157380864Y-105060049D01*
X157380865Y-105060050D01*
X157475096Y-105126031D01*
X157542280Y-105196212D01*
X157577493Y-105286761D01*
X157575374Y-105383893D01*
X157536245Y-105472820D01*
X157475096Y-105533969D01*
X157380865Y-105599949D01*
X157219949Y-105760865D01*
X157089436Y-105947258D01*
X157089428Y-105947272D01*
X156993262Y-106153500D01*
X156993261Y-106153503D01*
X156934365Y-106373305D01*
X156934363Y-106373320D01*
X156914532Y-106599994D01*
X156914532Y-106600005D01*
X156934363Y-106826679D01*
X156934365Y-106826694D01*
X156993261Y-107046496D01*
X156993262Y-107046499D01*
X157089428Y-107252727D01*
X157089436Y-107252741D01*
X157202514Y-107414234D01*
X157219953Y-107439139D01*
X157380861Y-107600047D01*
X157380864Y-107600049D01*
X157380865Y-107600050D01*
X157475096Y-107666031D01*
X157542280Y-107736212D01*
X157577493Y-107826761D01*
X157575374Y-107923893D01*
X157536245Y-108012820D01*
X157475096Y-108073969D01*
X157380865Y-108139949D01*
X157219949Y-108300865D01*
X157089436Y-108487258D01*
X157089428Y-108487272D01*
X156993262Y-108693500D01*
X156993261Y-108693503D01*
X156934365Y-108913305D01*
X156934363Y-108913320D01*
X156914532Y-109139994D01*
X156914532Y-109140005D01*
X156934363Y-109366679D01*
X156934365Y-109366694D01*
X156993261Y-109586496D01*
X156993262Y-109586499D01*
X157089428Y-109792727D01*
X157089436Y-109792741D01*
X157222031Y-109982107D01*
X157261160Y-110071034D01*
X157263279Y-110168166D01*
X157228066Y-110258715D01*
X157194134Y-110300993D01*
X156751286Y-110743843D01*
X156751284Y-110743845D01*
X156751283Y-110743844D01*
X156639480Y-110855648D01*
X156639479Y-110855649D01*
X156624033Y-110882404D01*
X156619892Y-110889577D01*
X156585556Y-110949047D01*
X156560422Y-110992581D01*
X156519499Y-111145308D01*
X156519499Y-111323487D01*
X156519500Y-111323500D01*
X156519500Y-112538176D01*
X156500546Y-112633464D01*
X156446570Y-112714246D01*
X155464246Y-113696570D01*
X155383464Y-113750546D01*
X155288176Y-113769500D01*
X154207563Y-113769500D01*
X154112275Y-113750546D01*
X154031493Y-113696570D01*
X152373430Y-112038507D01*
X152319454Y-111957725D01*
X152300500Y-111862437D01*
X152300500Y-111323500D01*
X152300501Y-111323487D01*
X152300501Y-111145308D01*
X152259577Y-110992581D01*
X152259577Y-110992580D01*
X152200108Y-110889577D01*
X152180520Y-110855649D01*
X152068716Y-110743845D01*
X152068713Y-110743843D01*
X151625867Y-110300997D01*
X151571891Y-110220215D01*
X151552937Y-110124927D01*
X151571891Y-110029639D01*
X151597968Y-109982106D01*
X151600042Y-109979143D01*
X151600047Y-109979139D01*
X151730568Y-109792734D01*
X151826739Y-109586496D01*
X151885635Y-109366692D01*
X151897595Y-109229994D01*
X151905468Y-109140005D01*
X151905468Y-109139994D01*
X151885636Y-108913320D01*
X151885635Y-108913308D01*
X151826739Y-108693504D01*
X151730568Y-108487266D01*
X151730565Y-108487262D01*
X151730563Y-108487258D01*
X151600050Y-108300865D01*
X151600049Y-108300864D01*
X151600047Y-108300861D01*
X151439139Y-108139953D01*
X151439133Y-108139949D01*
X151381268Y-108099432D01*
X151344902Y-108073968D01*
X151277719Y-108003789D01*
X151242506Y-107913240D01*
X151244625Y-107816108D01*
X151283753Y-107727181D01*
X151344902Y-107666031D01*
X151439139Y-107600047D01*
X151600047Y-107439139D01*
X151730568Y-107252734D01*
X151826739Y-107046496D01*
X151885635Y-106826692D01*
X151894138Y-106729499D01*
X151905468Y-106600005D01*
X151905468Y-106599994D01*
X151885636Y-106373320D01*
X151885635Y-106373308D01*
X151826739Y-106153504D01*
X151756170Y-106002169D01*
X151730571Y-105947272D01*
X151730563Y-105947258D01*
X151600050Y-105760865D01*
X151600049Y-105760864D01*
X151600047Y-105760861D01*
X151439139Y-105599953D01*
X151439133Y-105599949D01*
X151397147Y-105570550D01*
X151344902Y-105533968D01*
X151277719Y-105463789D01*
X151242506Y-105373240D01*
X151244625Y-105276108D01*
X151283753Y-105187181D01*
X151344902Y-105126031D01*
X151439139Y-105060047D01*
X151600047Y-104899139D01*
X151730568Y-104712734D01*
X151826739Y-104506496D01*
X151885635Y-104286692D01*
X151890375Y-104232512D01*
X151905468Y-104060005D01*
X151905468Y-104059994D01*
X151885636Y-103833320D01*
X151885635Y-103833308D01*
X151826739Y-103613504D01*
X151826737Y-103613500D01*
X151808659Y-103574731D01*
X151785567Y-103480360D01*
X151800347Y-103384336D01*
X151850749Y-103301277D01*
X151929099Y-103243829D01*
X152023470Y-103220737D01*
X152034330Y-103220500D01*
X156785670Y-103220500D01*
X156880958Y-103239454D01*
G37*
%TD.AperFunction*%
%TA.AperFunction,Conductor*%
G36*
X161033413Y-108569454D02*
G01*
X161114195Y-108623430D01*
X161176203Y-108685438D01*
X161230179Y-108766220D01*
X161249133Y-108861508D01*
X161240649Y-108925951D01*
X161224937Y-108984591D01*
X161224935Y-108984598D01*
X161204341Y-109219994D01*
X161204341Y-109220005D01*
X161224935Y-109455401D01*
X161284176Y-109676496D01*
X161286097Y-109683663D01*
X161336958Y-109792734D01*
X161385965Y-109897830D01*
X161512034Y-110077876D01*
X161521505Y-110091401D01*
X161688599Y-110258495D01*
X161727925Y-110286031D01*
X161795107Y-110356209D01*
X161830321Y-110446758D01*
X161828202Y-110543890D01*
X161789074Y-110632818D01*
X161727928Y-110693965D01*
X161688603Y-110721501D01*
X161521504Y-110888600D01*
X161406166Y-111053321D01*
X161335985Y-111120505D01*
X161245435Y-111155717D01*
X161202197Y-111159500D01*
X160207510Y-111159500D01*
X160112222Y-111140546D01*
X160031440Y-111086570D01*
X159245868Y-110300998D01*
X159191892Y-110220216D01*
X159172938Y-110124928D01*
X159191892Y-110029640D01*
X159217968Y-109982108D01*
X159265830Y-109913753D01*
X159350568Y-109792734D01*
X159446739Y-109586496D01*
X159505635Y-109366692D01*
X159517595Y-109229994D01*
X159525468Y-109140005D01*
X159525468Y-109139994D01*
X159505636Y-108913320D01*
X159505635Y-108913308D01*
X159498525Y-108886775D01*
X159492171Y-108789835D01*
X159523399Y-108697835D01*
X159562973Y-108646261D01*
X159585808Y-108623427D01*
X159666591Y-108569452D01*
X159761874Y-108550500D01*
X160938125Y-108550500D01*
X161033413Y-108569454D01*
G37*
%TD.AperFunction*%
%TA.AperFunction,Conductor*%
G36*
X160633413Y-103089454D02*
G01*
X160714195Y-103143430D01*
X161176203Y-103605438D01*
X161230179Y-103686220D01*
X161249133Y-103781508D01*
X161240649Y-103845951D01*
X161224937Y-103904591D01*
X161224935Y-103904598D01*
X161204341Y-104139994D01*
X161204341Y-104140005D01*
X161224935Y-104375401D01*
X161286096Y-104603660D01*
X161385965Y-104817830D01*
X161492644Y-104970184D01*
X161521505Y-105011401D01*
X161688599Y-105178495D01*
X161727925Y-105206031D01*
X161795107Y-105276209D01*
X161830321Y-105366758D01*
X161828202Y-105463890D01*
X161789074Y-105552818D01*
X161727928Y-105613965D01*
X161688603Y-105641501D01*
X161521504Y-105808600D01*
X161385965Y-106002169D01*
X161385961Y-106002177D01*
X161286098Y-106216333D01*
X161286097Y-106216335D01*
X161224935Y-106444598D01*
X161204341Y-106679994D01*
X161204341Y-106690872D01*
X161202914Y-106690872D01*
X161193656Y-106775384D01*
X161146922Y-106860561D01*
X161071151Y-106921370D01*
X160977876Y-106948553D01*
X160956183Y-106949500D01*
X159766627Y-106949500D01*
X159671339Y-106930546D01*
X159590557Y-106876570D01*
X159536581Y-106795788D01*
X159517627Y-106700500D01*
X159518574Y-106678799D01*
X159520519Y-106656570D01*
X159525468Y-106600000D01*
X159525468Y-106599995D01*
X159525468Y-106599994D01*
X159505636Y-106373320D01*
X159505635Y-106373308D01*
X159446739Y-106153504D01*
X159376170Y-106002169D01*
X159350571Y-105947272D01*
X159350563Y-105947258D01*
X159220050Y-105760865D01*
X159220049Y-105760864D01*
X159220047Y-105760861D01*
X159059139Y-105599953D01*
X159059133Y-105599949D01*
X159017147Y-105570550D01*
X158964902Y-105533968D01*
X158897719Y-105463789D01*
X158862506Y-105373240D01*
X158864625Y-105276108D01*
X158903753Y-105187181D01*
X158964902Y-105126031D01*
X159059139Y-105060047D01*
X159220047Y-104899139D01*
X159350568Y-104712734D01*
X159446739Y-104506496D01*
X159505635Y-104286692D01*
X159510375Y-104232512D01*
X159525468Y-104060005D01*
X159525468Y-104059994D01*
X159505636Y-103833320D01*
X159505635Y-103833308D01*
X159498525Y-103806776D01*
X159492171Y-103709832D01*
X159523400Y-103617833D01*
X159562967Y-103566266D01*
X159985806Y-103143430D01*
X160066588Y-103089454D01*
X160161875Y-103070500D01*
X160538125Y-103070500D01*
X160633413Y-103089454D01*
G37*
%TD.AperFunction*%
%TA.AperFunction,Conductor*%
G36*
X168055428Y-53400737D02*
G01*
X168431306Y-53417148D01*
X168452917Y-53419038D01*
X168820552Y-53467439D01*
X168841943Y-53471211D01*
X168907737Y-53485797D01*
X169203956Y-53551467D01*
X169224908Y-53557081D01*
X169578566Y-53668588D01*
X169598954Y-53676009D01*
X169941534Y-53817910D01*
X169961208Y-53827085D01*
X170290111Y-53998302D01*
X170308918Y-54009160D01*
X170621643Y-54208386D01*
X170639424Y-54220837D01*
X170797315Y-54341991D01*
X170933600Y-54446566D01*
X170950240Y-54460529D01*
X171223611Y-54711028D01*
X171238971Y-54726388D01*
X171489470Y-54999759D01*
X171503433Y-55016399D01*
X171729157Y-55310568D01*
X171741617Y-55328363D01*
X171940837Y-55641077D01*
X171951697Y-55659888D01*
X172122914Y-55988791D01*
X172132095Y-56008479D01*
X172273985Y-56351032D01*
X172281415Y-56371445D01*
X172392914Y-56725076D01*
X172398536Y-56746058D01*
X172478788Y-57108056D01*
X172482560Y-57129447D01*
X172530959Y-57497066D01*
X172532852Y-57518706D01*
X172549263Y-57894570D01*
X172549500Y-57905432D01*
X172549500Y-148494567D01*
X172549263Y-148505429D01*
X172532852Y-148881293D01*
X172530959Y-148902933D01*
X172482560Y-149270552D01*
X172478788Y-149291943D01*
X172398536Y-149653941D01*
X172392914Y-149674923D01*
X172281415Y-150028554D01*
X172273985Y-150048967D01*
X172132095Y-150391520D01*
X172122914Y-150411208D01*
X171951697Y-150740111D01*
X171940837Y-150758922D01*
X171741617Y-151071636D01*
X171729157Y-151089431D01*
X171503433Y-151383600D01*
X171489470Y-151400240D01*
X171238971Y-151673611D01*
X171223611Y-151688971D01*
X170950240Y-151939470D01*
X170933600Y-151953433D01*
X170639431Y-152179157D01*
X170621636Y-152191617D01*
X170308922Y-152390837D01*
X170290111Y-152401697D01*
X169961208Y-152572914D01*
X169941520Y-152582095D01*
X169598967Y-152723985D01*
X169578554Y-152731415D01*
X169224923Y-152842914D01*
X169203941Y-152848536D01*
X168841943Y-152928788D01*
X168820552Y-152932560D01*
X168452933Y-152980959D01*
X168431293Y-152982852D01*
X168092023Y-152997665D01*
X168055427Y-152999263D01*
X168044567Y-152999500D01*
X108955433Y-152999500D01*
X108944572Y-152999263D01*
X108568707Y-152982852D01*
X108547066Y-152980959D01*
X108179447Y-152932560D01*
X108158056Y-152928788D01*
X107796058Y-152848536D01*
X107775076Y-152842914D01*
X107421445Y-152731415D01*
X107401032Y-152723985D01*
X107058479Y-152582095D01*
X107038791Y-152572914D01*
X106709888Y-152401697D01*
X106691077Y-152390837D01*
X106378363Y-152191617D01*
X106360568Y-152179157D01*
X106283770Y-152120228D01*
X106066397Y-151953431D01*
X106049759Y-151939470D01*
X105776388Y-151688971D01*
X105761028Y-151673611D01*
X105510529Y-151400240D01*
X105496566Y-151383600D01*
X105479724Y-151361651D01*
X105270837Y-151089424D01*
X105258382Y-151071636D01*
X105255623Y-151067306D01*
X105059160Y-150758918D01*
X105048302Y-150740111D01*
X104975364Y-150599999D01*
X144294593Y-150599999D01*
X144314198Y-150861624D01*
X144314199Y-150861628D01*
X144372579Y-151117411D01*
X144468429Y-151361634D01*
X144468437Y-151361650D01*
X144599613Y-151588854D01*
X144763195Y-151793979D01*
X144763206Y-151793990D01*
X144935046Y-151953433D01*
X144955522Y-151972432D01*
X145021506Y-152017419D01*
X145172293Y-152120225D01*
X145172295Y-152120226D01*
X145172297Y-152120227D01*
X145294667Y-152179157D01*
X145408669Y-152234058D01*
X145408670Y-152234058D01*
X145408678Y-152234062D01*
X145659386Y-152311395D01*
X145918819Y-152350499D01*
X145918823Y-152350499D01*
X146181179Y-152350499D01*
X146181183Y-152350499D01*
X146440616Y-152311395D01*
X146691324Y-152234062D01*
X146927705Y-152120227D01*
X147144480Y-151972432D01*
X147336806Y-151793980D01*
X147500387Y-151588856D01*
X147631569Y-151361642D01*
X147727421Y-151117415D01*
X147785803Y-150861629D01*
X147805409Y-150600000D01*
X159534592Y-150600000D01*
X159554197Y-150861625D01*
X159554198Y-150861629D01*
X159612578Y-151117412D01*
X159708428Y-151361635D01*
X159708436Y-151361651D01*
X159839612Y-151588855D01*
X160003194Y-151793980D01*
X160003205Y-151793991D01*
X160195520Y-151972432D01*
X160412292Y-152120226D01*
X160412294Y-152120227D01*
X160412296Y-152120228D01*
X160548406Y-152185775D01*
X160648668Y-152234059D01*
X160648669Y-152234059D01*
X160648677Y-152234063D01*
X160899385Y-152311396D01*
X161158818Y-152350500D01*
X161158822Y-152350500D01*
X161421178Y-152350500D01*
X161421182Y-152350500D01*
X161680615Y-152311396D01*
X161931323Y-152234063D01*
X162167704Y-152120228D01*
X162384479Y-151972433D01*
X162576805Y-151793981D01*
X162740386Y-151588857D01*
X162871568Y-151361643D01*
X162967420Y-151117416D01*
X163025802Y-150861630D01*
X163045408Y-150600000D01*
X163025802Y-150338370D01*
X162967420Y-150082586D01*
X162967419Y-150082583D01*
X162876334Y-149850500D01*
X162871571Y-149838364D01*
X162871569Y-149838361D01*
X162871568Y-149838357D01*
X162871562Y-149838347D01*
X162740387Y-149611144D01*
X162576805Y-149406019D01*
X162576794Y-149406008D01*
X162384479Y-149227567D01*
X162167707Y-149079773D01*
X162167702Y-149079771D01*
X161931331Y-148965940D01*
X161931326Y-148965938D01*
X161931323Y-148965937D01*
X161680615Y-148888604D01*
X161421182Y-148849500D01*
X161158818Y-148849500D01*
X160951271Y-148880783D01*
X160899384Y-148888604D01*
X160887866Y-148892157D01*
X160648677Y-148965937D01*
X160648675Y-148965937D01*
X160648668Y-148965940D01*
X160412297Y-149079771D01*
X160412292Y-149079773D01*
X160195520Y-149227567D01*
X160003205Y-149406008D01*
X160003194Y-149406019D01*
X159839612Y-149611144D01*
X159708436Y-149838348D01*
X159708428Y-149838364D01*
X159612578Y-150082587D01*
X159554198Y-150338370D01*
X159554197Y-150338374D01*
X159534592Y-150600000D01*
X147805409Y-150600000D01*
X147805409Y-150599999D01*
X147785803Y-150338369D01*
X147727421Y-150082583D01*
X147665466Y-149924723D01*
X147631572Y-149838363D01*
X147631569Y-149838357D01*
X147631569Y-149838356D01*
X147525097Y-149653941D01*
X147500388Y-149611143D01*
X147336806Y-149406018D01*
X147336795Y-149406007D01*
X147144480Y-149227566D01*
X146927708Y-149079772D01*
X146927703Y-149079770D01*
X146691332Y-148965939D01*
X146691327Y-148965937D01*
X146691324Y-148965936D01*
X146440616Y-148888603D01*
X146181183Y-148849499D01*
X145918819Y-148849499D01*
X145711272Y-148880782D01*
X145659385Y-148888603D01*
X145514108Y-148933415D01*
X145408678Y-148965936D01*
X145408676Y-148965936D01*
X145408669Y-148965939D01*
X145172298Y-149079770D01*
X145172293Y-149079772D01*
X144955521Y-149227566D01*
X144763206Y-149406007D01*
X144763195Y-149406018D01*
X144599613Y-149611143D01*
X144468437Y-149838347D01*
X144468429Y-149838363D01*
X144372579Y-150082586D01*
X144314199Y-150338369D01*
X144314198Y-150338373D01*
X144294593Y-150599999D01*
X104975364Y-150599999D01*
X104877085Y-150411208D01*
X104867910Y-150391534D01*
X104726009Y-150048954D01*
X104718588Y-150028566D01*
X104607081Y-149674908D01*
X104601467Y-149653956D01*
X104521211Y-149291943D01*
X104517439Y-149270552D01*
X104492322Y-149079770D01*
X104469038Y-148902917D01*
X104467148Y-148881306D01*
X104450737Y-148505428D01*
X104450500Y-148494567D01*
X104450500Y-109229994D01*
X106644532Y-109229994D01*
X106644532Y-109230005D01*
X106664363Y-109456679D01*
X106664365Y-109456694D01*
X106723261Y-109676496D01*
X106723262Y-109676499D01*
X106819428Y-109882727D01*
X106819436Y-109882741D01*
X106939598Y-110054351D01*
X106949953Y-110069139D01*
X107110861Y-110230047D01*
X107110864Y-110230049D01*
X107110865Y-110230050D01*
X107297258Y-110360563D01*
X107297262Y-110360565D01*
X107297266Y-110360568D01*
X107297270Y-110360569D01*
X107297272Y-110360571D01*
X107369036Y-110394035D01*
X107503504Y-110456739D01*
X107723308Y-110515635D01*
X107742984Y-110517356D01*
X107949994Y-110535468D01*
X107950000Y-110535468D01*
X107950006Y-110535468D01*
X108129668Y-110519749D01*
X108176692Y-110515635D01*
X108203221Y-110508526D01*
X108300160Y-110502170D01*
X108392160Y-110533397D01*
X108443736Y-110572971D01*
X108546570Y-110675805D01*
X108600546Y-110756587D01*
X108619500Y-110851875D01*
X108619500Y-122978511D01*
X108600546Y-123073799D01*
X108546570Y-123154581D01*
X108465788Y-123208557D01*
X108370500Y-123227511D01*
X108306056Y-123219027D01*
X108176697Y-123184366D01*
X108176693Y-123184365D01*
X108176692Y-123184365D01*
X108176689Y-123184364D01*
X108176679Y-123184363D01*
X107950006Y-123164532D01*
X107949994Y-123164532D01*
X107723320Y-123184363D01*
X107723305Y-123184365D01*
X107503503Y-123243261D01*
X107503500Y-123243262D01*
X107297272Y-123339428D01*
X107297258Y-123339436D01*
X107110865Y-123469949D01*
X106949949Y-123630865D01*
X106819436Y-123817258D01*
X106819428Y-123817272D01*
X106723262Y-124023500D01*
X106723261Y-124023503D01*
X106664365Y-124243305D01*
X106664363Y-124243320D01*
X106644532Y-124469994D01*
X106644532Y-124470005D01*
X106664363Y-124696679D01*
X106664365Y-124696694D01*
X106723261Y-124916496D01*
X106723262Y-124916499D01*
X106819428Y-125122727D01*
X106819436Y-125122741D01*
X106949949Y-125309134D01*
X106949953Y-125309139D01*
X107110861Y-125470047D01*
X107110864Y-125470049D01*
X107110865Y-125470050D01*
X107297258Y-125600563D01*
X107297262Y-125600565D01*
X107297266Y-125600568D01*
X107297270Y-125600569D01*
X107297272Y-125600571D01*
X107421008Y-125658270D01*
X107503504Y-125696739D01*
X107723308Y-125755635D01*
X107742984Y-125757356D01*
X107949994Y-125775468D01*
X107960872Y-125775468D01*
X107960872Y-125776897D01*
X108045360Y-125786144D01*
X108130541Y-125832869D01*
X108191358Y-125908635D01*
X108218551Y-126001906D01*
X108219500Y-126023625D01*
X108219500Y-136882438D01*
X108200546Y-136977726D01*
X108146570Y-137058508D01*
X107301286Y-137903792D01*
X107301284Y-137903794D01*
X107301283Y-137903793D01*
X107189483Y-138015594D01*
X107189481Y-138015597D01*
X107189480Y-138015598D01*
X107139360Y-138102409D01*
X107139359Y-138102408D01*
X107110424Y-138152526D01*
X107110422Y-138152529D01*
X107069499Y-138305257D01*
X107069499Y-138483436D01*
X107069500Y-138483449D01*
X107069500Y-143135665D01*
X107069499Y-143135683D01*
X107069499Y-143309057D01*
X107110421Y-143461781D01*
X107110422Y-143461783D01*
X107110423Y-143461785D01*
X107116814Y-143472855D01*
X107116816Y-143472860D01*
X107116817Y-143472860D01*
X107169373Y-143563890D01*
X107189480Y-143598716D01*
X107301284Y-143710520D01*
X107301286Y-143710521D01*
X107836203Y-144245438D01*
X107890179Y-144326220D01*
X107909133Y-144421508D01*
X107900649Y-144485951D01*
X107884937Y-144544591D01*
X107884935Y-144544598D01*
X107864341Y-144779994D01*
X107864341Y-144780005D01*
X107884935Y-145015401D01*
X107892590Y-145043972D01*
X107946097Y-145243663D01*
X108027030Y-145417224D01*
X108045965Y-145457830D01*
X108146632Y-145601598D01*
X108181505Y-145651401D01*
X108348599Y-145818495D01*
X108542170Y-145954035D01*
X108756337Y-146053903D01*
X108984592Y-146115063D01*
X108984595Y-146115063D01*
X108984598Y-146115064D01*
X109219995Y-146135659D01*
X109220000Y-146135659D01*
X109220005Y-146135659D01*
X109455401Y-146115064D01*
X109455403Y-146115063D01*
X109455408Y-146115063D01*
X109683663Y-146053903D01*
X109897830Y-145954035D01*
X110091401Y-145818495D01*
X110258495Y-145651401D01*
X110390337Y-145463111D01*
X112053707Y-145463111D01*
X112073463Y-145777128D01*
X112073465Y-145777144D01*
X112132418Y-146086181D01*
X112132421Y-146086194D01*
X112229646Y-146385422D01*
X112229648Y-146385426D01*
X112363614Y-146670118D01*
X112532204Y-146935774D01*
X112732761Y-147178205D01*
X112962121Y-147393589D01*
X112962124Y-147393591D01*
X112962126Y-147393593D01*
X113216654Y-147578518D01*
X113216658Y-147578521D01*
X113216667Y-147578527D01*
X113492385Y-147730105D01*
X113784926Y-147845930D01*
X114089678Y-147924177D01*
X114401833Y-147963611D01*
X114401838Y-147963611D01*
X114716464Y-147963611D01*
X114716469Y-147963611D01*
X115028624Y-147924177D01*
X115333376Y-147845930D01*
X115625917Y-147730105D01*
X115901635Y-147578527D01*
X116156181Y-147393589D01*
X116385541Y-147178205D01*
X116586098Y-146935774D01*
X116754688Y-146670118D01*
X116888654Y-146385426D01*
X116985882Y-146086190D01*
X117031915Y-145844876D01*
X117044836Y-145777144D01*
X117044836Y-145777137D01*
X117044839Y-145777126D01*
X117060333Y-145530859D01*
X131904700Y-145530859D01*
X131924456Y-145844876D01*
X131924458Y-145844892D01*
X131983411Y-146153929D01*
X131983414Y-146153942D01*
X132080639Y-146453170D01*
X132080641Y-146453174D01*
X132214607Y-146737866D01*
X132383197Y-147003522D01*
X132583754Y-147245953D01*
X132813114Y-147461337D01*
X132813117Y-147461339D01*
X132813119Y-147461341D01*
X133067647Y-147646266D01*
X133067651Y-147646269D01*
X133067660Y-147646275D01*
X133343378Y-147797853D01*
X133635919Y-147913678D01*
X133940671Y-147991925D01*
X134252826Y-148031359D01*
X134252831Y-148031359D01*
X134567457Y-148031359D01*
X134567462Y-148031359D01*
X134879617Y-147991925D01*
X135184369Y-147913678D01*
X135476910Y-147797853D01*
X135752628Y-147646275D01*
X136007174Y-147461337D01*
X136236534Y-147245953D01*
X136437091Y-147003522D01*
X136605681Y-146737866D01*
X136739647Y-146453174D01*
X136836875Y-146153938D01*
X136895832Y-145844874D01*
X136915588Y-145530859D01*
X136895832Y-145216844D01*
X136895830Y-145216834D01*
X136895829Y-145216825D01*
X136837984Y-144913595D01*
X136836875Y-144907780D01*
X136739647Y-144608544D01*
X136605681Y-144323852D01*
X136558813Y-144250000D01*
X149735738Y-144250000D01*
X149754754Y-144479488D01*
X149811283Y-144702716D01*
X149811285Y-144702721D01*
X149811287Y-144702728D01*
X149903776Y-144913581D01*
X149903784Y-144913596D01*
X150029725Y-145106366D01*
X150029731Y-145106373D01*
X150185692Y-145275792D01*
X150367411Y-145417229D01*
X150569931Y-145526828D01*
X150638544Y-145550383D01*
X150787721Y-145601596D01*
X150787726Y-145601597D01*
X150787729Y-145601598D01*
X151014863Y-145639500D01*
X151245137Y-145639500D01*
X151472271Y-145601598D01*
X151472275Y-145601596D01*
X151472278Y-145601596D01*
X151552841Y-145573938D01*
X151690069Y-145526828D01*
X151892589Y-145417229D01*
X152074308Y-145275792D01*
X152216806Y-145120997D01*
X152295286Y-145063730D01*
X152389709Y-145040854D01*
X152485699Y-145055853D01*
X152568642Y-145106445D01*
X152583185Y-145120988D01*
X152725692Y-145275792D01*
X152907411Y-145417229D01*
X153109931Y-145526828D01*
X153178544Y-145550383D01*
X153327721Y-145601596D01*
X153327726Y-145601597D01*
X153327729Y-145601598D01*
X153554863Y-145639500D01*
X153785137Y-145639500D01*
X154012271Y-145601598D01*
X154012275Y-145601596D01*
X154012278Y-145601596D01*
X154092841Y-145573938D01*
X154230069Y-145526828D01*
X154432589Y-145417229D01*
X154614308Y-145275792D01*
X154756806Y-145120997D01*
X154835286Y-145063730D01*
X154929709Y-145040854D01*
X155025699Y-145055853D01*
X155108642Y-145106445D01*
X155123185Y-145120988D01*
X155265692Y-145275792D01*
X155447411Y-145417229D01*
X155649931Y-145526828D01*
X155718544Y-145550383D01*
X155867721Y-145601596D01*
X155867726Y-145601597D01*
X155867729Y-145601598D01*
X156094863Y-145639500D01*
X156325137Y-145639500D01*
X156552271Y-145601598D01*
X156552275Y-145601596D01*
X156552278Y-145601596D01*
X156632841Y-145573938D01*
X156770069Y-145526828D01*
X156972589Y-145417229D01*
X157154308Y-145275792D01*
X157296806Y-145120997D01*
X157375286Y-145063730D01*
X157469709Y-145040854D01*
X157565699Y-145055853D01*
X157648642Y-145106445D01*
X157663185Y-145120988D01*
X157805692Y-145275792D01*
X157987411Y-145417229D01*
X158189931Y-145526828D01*
X158258544Y-145550383D01*
X158407721Y-145601596D01*
X158407726Y-145601597D01*
X158407729Y-145601598D01*
X158634863Y-145639500D01*
X158865137Y-145639500D01*
X159092271Y-145601598D01*
X159092275Y-145601596D01*
X159092278Y-145601596D01*
X159172841Y-145573938D01*
X159310069Y-145526828D01*
X159512589Y-145417229D01*
X159694308Y-145275792D01*
X159850269Y-145106373D01*
X159976217Y-144913595D01*
X160068717Y-144702716D01*
X160125246Y-144479488D01*
X160144262Y-144250000D01*
X160125246Y-144020512D01*
X160068717Y-143797284D01*
X160068712Y-143797274D01*
X160068712Y-143797271D01*
X159976223Y-143586418D01*
X159976221Y-143586414D01*
X159976217Y-143586405D01*
X159902035Y-143472861D01*
X159850274Y-143393633D01*
X159850268Y-143393626D01*
X159694309Y-143224209D01*
X159694303Y-143224204D01*
X159512594Y-143082775D01*
X159512589Y-143082771D01*
X159310069Y-142973172D01*
X159310067Y-142973171D01*
X159092278Y-142898403D01*
X159092268Y-142898401D01*
X158865137Y-142860500D01*
X158634863Y-142860500D01*
X158407731Y-142898401D01*
X158407721Y-142898403D01*
X158189932Y-142973171D01*
X158189931Y-142973172D01*
X157987412Y-143082770D01*
X157987405Y-143082775D01*
X157805696Y-143224204D01*
X157805690Y-143224209D01*
X157663195Y-143379001D01*
X157584714Y-143436270D01*
X157490290Y-143459145D01*
X157394300Y-143444145D01*
X157311357Y-143393553D01*
X157296805Y-143379001D01*
X157154309Y-143224209D01*
X157154303Y-143224204D01*
X156972594Y-143082775D01*
X156972589Y-143082771D01*
X156770069Y-142973172D01*
X156770067Y-142973171D01*
X156552278Y-142898403D01*
X156552268Y-142898401D01*
X156325137Y-142860500D01*
X156094863Y-142860500D01*
X155867731Y-142898401D01*
X155867721Y-142898403D01*
X155649932Y-142973171D01*
X155649931Y-142973172D01*
X155447412Y-143082770D01*
X155447405Y-143082775D01*
X155265696Y-143224204D01*
X155265690Y-143224209D01*
X155123195Y-143379001D01*
X155044714Y-143436270D01*
X154950290Y-143459145D01*
X154854300Y-143444145D01*
X154771357Y-143393553D01*
X154756805Y-143379001D01*
X154614309Y-143224209D01*
X154614303Y-143224204D01*
X154432594Y-143082775D01*
X154432589Y-143082771D01*
X154230069Y-142973172D01*
X154230067Y-142973171D01*
X154012278Y-142898403D01*
X154012268Y-142898401D01*
X153785137Y-142860500D01*
X153554863Y-142860500D01*
X153327731Y-142898401D01*
X153327721Y-142898403D01*
X153109932Y-142973171D01*
X153109931Y-142973172D01*
X152907412Y-143082770D01*
X152907405Y-143082775D01*
X152725696Y-143224204D01*
X152725690Y-143224209D01*
X152583195Y-143379001D01*
X152504714Y-143436270D01*
X152410290Y-143459145D01*
X152314300Y-143444145D01*
X152231357Y-143393553D01*
X152216805Y-143379001D01*
X152074309Y-143224209D01*
X152074303Y-143224204D01*
X151892594Y-143082775D01*
X151892589Y-143082771D01*
X151690069Y-142973172D01*
X151690067Y-142973171D01*
X151472278Y-142898403D01*
X151472268Y-142898401D01*
X151245137Y-142860500D01*
X151014863Y-142860500D01*
X150787731Y-142898401D01*
X150787721Y-142898403D01*
X150569932Y-142973171D01*
X150569931Y-142973172D01*
X150367412Y-143082770D01*
X150367405Y-143082775D01*
X150185696Y-143224204D01*
X150185690Y-143224209D01*
X150029731Y-143393626D01*
X150029725Y-143393633D01*
X149903784Y-143586403D01*
X149903776Y-143586418D01*
X149811287Y-143797271D01*
X149811284Y-143797280D01*
X149811283Y-143797284D01*
X149754754Y-144020512D01*
X149735738Y-144250000D01*
X136558813Y-144250000D01*
X136437091Y-144058196D01*
X136236534Y-143815765D01*
X136007174Y-143600381D01*
X136007171Y-143600378D01*
X136007168Y-143600376D01*
X135752640Y-143415451D01*
X135752629Y-143415444D01*
X135752630Y-143415444D01*
X135752628Y-143415443D01*
X135629397Y-143347696D01*
X135476913Y-143263866D01*
X135376750Y-143224209D01*
X135184369Y-143148040D01*
X135184362Y-143148038D01*
X135184359Y-143148037D01*
X134993146Y-143098942D01*
X134879617Y-143069793D01*
X134567462Y-143030359D01*
X134252826Y-143030359D01*
X133940671Y-143069793D01*
X133635928Y-143148037D01*
X133635922Y-143148039D01*
X133635919Y-143148040D01*
X133517685Y-143194851D01*
X133343374Y-143263866D01*
X133067658Y-143415444D01*
X133067647Y-143415451D01*
X132813119Y-143600376D01*
X132583753Y-143815766D01*
X132383195Y-144058198D01*
X132214610Y-144323846D01*
X132080639Y-144608547D01*
X131983414Y-144907775D01*
X131983411Y-144907788D01*
X131924458Y-145216825D01*
X131924456Y-145216841D01*
X131904700Y-145530859D01*
X117060333Y-145530859D01*
X117064595Y-145463111D01*
X117044839Y-145149096D01*
X117044837Y-145149086D01*
X117044836Y-145149077D01*
X116998807Y-144907788D01*
X116985882Y-144840032D01*
X116888654Y-144540796D01*
X116754688Y-144256104D01*
X116586098Y-143990448D01*
X116385541Y-143748017D01*
X116156181Y-143532633D01*
X116156178Y-143532630D01*
X116156175Y-143532628D01*
X115901647Y-143347703D01*
X115901636Y-143347696D01*
X115901637Y-143347696D01*
X115901635Y-143347695D01*
X115775761Y-143278495D01*
X115625920Y-143196118D01*
X115504488Y-143148040D01*
X115333376Y-143080292D01*
X115333369Y-143080290D01*
X115333366Y-143080289D01*
X115138900Y-143030359D01*
X115028624Y-143002045D01*
X114716469Y-142962611D01*
X114401833Y-142962611D01*
X114089678Y-143002045D01*
X113784935Y-143080289D01*
X113784929Y-143080291D01*
X113784926Y-143080292D01*
X113706364Y-143111397D01*
X113492381Y-143196118D01*
X113216665Y-143347696D01*
X113216654Y-143347703D01*
X112962126Y-143532628D01*
X112732760Y-143748018D01*
X112532202Y-143990450D01*
X112363617Y-144256098D01*
X112229646Y-144540799D01*
X112132421Y-144840027D01*
X112132418Y-144840040D01*
X112073465Y-145149077D01*
X112073463Y-145149093D01*
X112053707Y-145463111D01*
X110390337Y-145463111D01*
X110394035Y-145457830D01*
X110493903Y-145243663D01*
X110555063Y-145015408D01*
X110555064Y-145015401D01*
X110575659Y-144780005D01*
X110575659Y-144779994D01*
X110555064Y-144544598D01*
X110555063Y-144544595D01*
X110555063Y-144544592D01*
X110493903Y-144316337D01*
X110394035Y-144102171D01*
X110376580Y-144077243D01*
X110300601Y-143968733D01*
X110258495Y-143908599D01*
X110091401Y-143741505D01*
X110052074Y-143713967D01*
X109984891Y-143643789D01*
X109949678Y-143553240D01*
X109951797Y-143456108D01*
X109990925Y-143367181D01*
X110052073Y-143306032D01*
X110091401Y-143278495D01*
X110258495Y-143111401D01*
X110394035Y-142917830D01*
X110493903Y-142703663D01*
X110555063Y-142475408D01*
X110575659Y-142240000D01*
X110575659Y-142239994D01*
X110555064Y-142004598D01*
X110555063Y-142004595D01*
X110555063Y-142004592D01*
X110493903Y-141776337D01*
X110394035Y-141562171D01*
X110258495Y-141368599D01*
X110258492Y-141368596D01*
X110255151Y-141364614D01*
X110253150Y-141360966D01*
X110252259Y-141359694D01*
X110252398Y-141359596D01*
X110208423Y-141279434D01*
X110197848Y-141182857D01*
X110225037Y-141089584D01*
X110285850Y-141013815D01*
X110298571Y-141005135D01*
X110298073Y-141004469D01*
X110312329Y-140993796D01*
X110312331Y-140993796D01*
X110427546Y-140907546D01*
X110513796Y-140792331D01*
X110564091Y-140657483D01*
X110570500Y-140597873D01*
X110570499Y-138802128D01*
X110564091Y-138742517D01*
X110513796Y-138607669D01*
X110427546Y-138492454D01*
X110312331Y-138406204D01*
X110177483Y-138355909D01*
X110177482Y-138355908D01*
X110177448Y-138355896D01*
X110094791Y-138304837D01*
X110037966Y-138226034D01*
X110015623Y-138131483D01*
X110031163Y-138035579D01*
X110082222Y-137952922D01*
X110088370Y-137946550D01*
X110100520Y-137934401D01*
X110179577Y-137797469D01*
X110183236Y-137783814D01*
X110220501Y-137644742D01*
X110220500Y-137486627D01*
X110220500Y-132179020D01*
X120577987Y-132179020D01*
X120577987Y-132179031D01*
X120598283Y-132436918D01*
X120658673Y-132688465D01*
X120658674Y-132688467D01*
X120683955Y-132749500D01*
X120757672Y-132927467D01*
X120794429Y-132987449D01*
X120892836Y-133148036D01*
X121042281Y-133323014D01*
X121089752Y-133407782D01*
X121101171Y-133504263D01*
X121074799Y-133597770D01*
X121042281Y-133646438D01*
X120892836Y-133821415D01*
X120757672Y-134041985D01*
X120658674Y-134280984D01*
X120658673Y-134280986D01*
X120598283Y-134532533D01*
X120577987Y-134790420D01*
X120577987Y-134790431D01*
X120598283Y-135048318D01*
X120658673Y-135299865D01*
X120658674Y-135299867D01*
X120671762Y-135331463D01*
X120757672Y-135538867D01*
X120817381Y-135636303D01*
X120892836Y-135759436D01*
X121060842Y-135956147D01*
X121060847Y-135956152D01*
X121257558Y-136124158D01*
X121319124Y-136161885D01*
X121478128Y-136259323D01*
X121717129Y-136358321D01*
X121968674Y-136418711D01*
X122042358Y-136424510D01*
X122226564Y-136439008D01*
X122226569Y-136439008D01*
X122226574Y-136439008D01*
X122387753Y-136426322D01*
X122484464Y-136418711D01*
X122736009Y-136358321D01*
X122975010Y-136259323D01*
X123195581Y-136124157D01*
X123392293Y-135956150D01*
X123560300Y-135759438D01*
X123695466Y-135538867D01*
X123794464Y-135299866D01*
X123854854Y-135048321D01*
X123866214Y-134903976D01*
X123875151Y-134790431D01*
X123875151Y-134790420D01*
X123854854Y-134532533D01*
X123812314Y-134355340D01*
X123794464Y-134280986D01*
X123695466Y-134041985D01*
X123560300Y-133821414D01*
X123553677Y-133813660D01*
X123410857Y-133646438D01*
X123363386Y-133561670D01*
X123351967Y-133465189D01*
X123378339Y-133371682D01*
X123410857Y-133323014D01*
X123560300Y-133148038D01*
X123695466Y-132927467D01*
X123794464Y-132688466D01*
X123854854Y-132436921D01*
X123869232Y-132254231D01*
X123875151Y-132179031D01*
X123875151Y-132179020D01*
X123854854Y-131921133D01*
X123853379Y-131914990D01*
X123794464Y-131669586D01*
X123695466Y-131430585D01*
X123560300Y-131210014D01*
X123392293Y-131013302D01*
X123392290Y-131013299D01*
X123195579Y-130845293D01*
X123063912Y-130764608D01*
X122975010Y-130710129D01*
X122855509Y-130660630D01*
X122736010Y-130611131D01*
X122736008Y-130611130D01*
X122484461Y-130550740D01*
X122226574Y-130530444D01*
X122226564Y-130530444D01*
X121968676Y-130550740D01*
X121717129Y-130611130D01*
X121717127Y-130611131D01*
X121478128Y-130710129D01*
X121257558Y-130845293D01*
X121060847Y-131013299D01*
X121060842Y-131013304D01*
X120892836Y-131210015D01*
X120757672Y-131430585D01*
X120658674Y-131669584D01*
X120658673Y-131669586D01*
X120598283Y-131921133D01*
X120577987Y-132179020D01*
X110220500Y-132179020D01*
X110220500Y-126419500D01*
X110239454Y-126324212D01*
X110293430Y-126243430D01*
X110374212Y-126189454D01*
X110469500Y-126170500D01*
X110851301Y-126170500D01*
X110851317Y-126170501D01*
X110866578Y-126170501D01*
X111024691Y-126170501D01*
X111024692Y-126170501D01*
X111177420Y-126129577D01*
X111221135Y-126104337D01*
X111240848Y-126092957D01*
X111240850Y-126092955D01*
X111240856Y-126092952D01*
X111314351Y-126050520D01*
X111426155Y-125938716D01*
X111426155Y-125938714D01*
X111446655Y-125918215D01*
X111446656Y-125918212D01*
X111869004Y-125495865D01*
X111949783Y-125441891D01*
X112045071Y-125422937D01*
X112140359Y-125441891D01*
X112187891Y-125467968D01*
X112377258Y-125600563D01*
X112377262Y-125600565D01*
X112377266Y-125600568D01*
X112377270Y-125600569D01*
X112377272Y-125600571D01*
X112501008Y-125658270D01*
X112583504Y-125696739D01*
X112803308Y-125755635D01*
X112822984Y-125757356D01*
X113029994Y-125775468D01*
X113030000Y-125775468D01*
X113030006Y-125775468D01*
X113209668Y-125759749D01*
X113256692Y-125755635D01*
X113476496Y-125696739D01*
X113682734Y-125600568D01*
X113869139Y-125470047D01*
X114030047Y-125309139D01*
X114096031Y-125214902D01*
X114166211Y-125147719D01*
X114256760Y-125112506D01*
X114353892Y-125114625D01*
X114442819Y-125153753D01*
X114503970Y-125214904D01*
X114557311Y-125291085D01*
X114569953Y-125309139D01*
X114730861Y-125470047D01*
X114730864Y-125470049D01*
X114730865Y-125470050D01*
X114917258Y-125600563D01*
X114917262Y-125600565D01*
X114917266Y-125600568D01*
X114917270Y-125600569D01*
X114917272Y-125600571D01*
X115041008Y-125658270D01*
X115123504Y-125696739D01*
X115343308Y-125755635D01*
X115362984Y-125757356D01*
X115569994Y-125775468D01*
X115570000Y-125775468D01*
X115570006Y-125775468D01*
X115749668Y-125759749D01*
X115796692Y-125755635D01*
X116016496Y-125696739D01*
X116222734Y-125600568D01*
X116409139Y-125470047D01*
X116570047Y-125309139D01*
X116636031Y-125214902D01*
X116706211Y-125147719D01*
X116796760Y-125112506D01*
X116893892Y-125114625D01*
X116982819Y-125153753D01*
X117043970Y-125214904D01*
X117097311Y-125291085D01*
X117109953Y-125309139D01*
X117270861Y-125470047D01*
X117270864Y-125470049D01*
X117270865Y-125470050D01*
X117457258Y-125600563D01*
X117457262Y-125600565D01*
X117457266Y-125600568D01*
X117457270Y-125600569D01*
X117457272Y-125600571D01*
X117581008Y-125658270D01*
X117663504Y-125696739D01*
X117883308Y-125755635D01*
X117902984Y-125757356D01*
X118109994Y-125775468D01*
X118110000Y-125775468D01*
X118110006Y-125775468D01*
X118289668Y-125759749D01*
X118336692Y-125755635D01*
X118556496Y-125696739D01*
X118762734Y-125600568D01*
X118949139Y-125470047D01*
X119110047Y-125309139D01*
X119176031Y-125214902D01*
X119246211Y-125147719D01*
X119336760Y-125112506D01*
X119433892Y-125114625D01*
X119522819Y-125153753D01*
X119583970Y-125214904D01*
X119637311Y-125291085D01*
X119649953Y-125309139D01*
X119810861Y-125470047D01*
X119810864Y-125470049D01*
X119810865Y-125470050D01*
X119997258Y-125600563D01*
X119997262Y-125600565D01*
X119997266Y-125600568D01*
X119997270Y-125600569D01*
X119997272Y-125600571D01*
X120121008Y-125658270D01*
X120203504Y-125696739D01*
X120423308Y-125755635D01*
X120442984Y-125757356D01*
X120649994Y-125775468D01*
X120650000Y-125775468D01*
X120650006Y-125775468D01*
X120829668Y-125759749D01*
X120876692Y-125755635D01*
X121096496Y-125696739D01*
X121302734Y-125600568D01*
X121489139Y-125470047D01*
X121650047Y-125309139D01*
X121716031Y-125214902D01*
X121786211Y-125147719D01*
X121876760Y-125112506D01*
X121973892Y-125114625D01*
X122062819Y-125153753D01*
X122123970Y-125214904D01*
X122177311Y-125291085D01*
X122189953Y-125309139D01*
X122350861Y-125470047D01*
X122350864Y-125470049D01*
X122350865Y-125470050D01*
X122537258Y-125600563D01*
X122537262Y-125600565D01*
X122537266Y-125600568D01*
X122537270Y-125600569D01*
X122537272Y-125600571D01*
X122661008Y-125658270D01*
X122743504Y-125696739D01*
X122963308Y-125755635D01*
X122982984Y-125757356D01*
X123189994Y-125775468D01*
X123190000Y-125775468D01*
X123190004Y-125775468D01*
X123301184Y-125765740D01*
X123382880Y-125758593D01*
X123479457Y-125769169D01*
X123564635Y-125815899D01*
X123615417Y-125874170D01*
X123637072Y-125908635D01*
X123644986Y-125921229D01*
X123772540Y-126048783D01*
X123772542Y-126048784D01*
X123772544Y-126048786D01*
X123925272Y-126144752D01*
X123925275Y-126144753D01*
X123925280Y-126144756D01*
X124095547Y-126204335D01*
X124095556Y-126204336D01*
X124274798Y-126224532D01*
X124274802Y-126224532D01*
X124274806Y-126224532D01*
X124414710Y-126208768D01*
X124454057Y-126204335D01*
X124624324Y-126144756D01*
X124624329Y-126144752D01*
X124624331Y-126144752D01*
X124736986Y-126073965D01*
X124777064Y-126048783D01*
X124904618Y-125921229D01*
X124982939Y-125796581D01*
X125049682Y-125725985D01*
X125138363Y-125686302D01*
X125235480Y-125683577D01*
X125278945Y-125695079D01*
X125283499Y-125696736D01*
X125283504Y-125696739D01*
X125503308Y-125755635D01*
X125522984Y-125757356D01*
X125729994Y-125775468D01*
X125730000Y-125775468D01*
X125730006Y-125775468D01*
X125909668Y-125759749D01*
X125956692Y-125755635D01*
X126176496Y-125696739D01*
X126382734Y-125600568D01*
X126569139Y-125470047D01*
X126730047Y-125309139D01*
X126796031Y-125214902D01*
X126866211Y-125147719D01*
X126956760Y-125112506D01*
X127053892Y-125114625D01*
X127142819Y-125153753D01*
X127203970Y-125214904D01*
X127257311Y-125291085D01*
X127269953Y-125309139D01*
X127430861Y-125470047D01*
X127430864Y-125470049D01*
X127430865Y-125470050D01*
X127617258Y-125600563D01*
X127617262Y-125600565D01*
X127617266Y-125600568D01*
X127617270Y-125600569D01*
X127617272Y-125600571D01*
X127741008Y-125658270D01*
X127823504Y-125696739D01*
X128043308Y-125755635D01*
X128062984Y-125757356D01*
X128269994Y-125775468D01*
X128270000Y-125775468D01*
X128270006Y-125775468D01*
X128449668Y-125759749D01*
X128496692Y-125755635D01*
X128716496Y-125696739D01*
X128922734Y-125600568D01*
X129109139Y-125470047D01*
X129270047Y-125309139D01*
X129336031Y-125214902D01*
X129406211Y-125147719D01*
X129496760Y-125112506D01*
X129593892Y-125114625D01*
X129682819Y-125153753D01*
X129743970Y-125214904D01*
X129797311Y-125291085D01*
X129809953Y-125309139D01*
X129970861Y-125470047D01*
X130071509Y-125540521D01*
X130103319Y-125562794D01*
X130170504Y-125632975D01*
X130205717Y-125723524D01*
X130209500Y-125766764D01*
X130209500Y-128175665D01*
X130209499Y-128175683D01*
X130209499Y-128349057D01*
X130250421Y-128501781D01*
X130250422Y-128501784D01*
X130279357Y-128551900D01*
X130279360Y-128551904D01*
X130329480Y-128638716D01*
X130441284Y-128750520D01*
X130441286Y-128750521D01*
X131401221Y-129710456D01*
X131455197Y-129791238D01*
X131474151Y-129886526D01*
X131455197Y-129981814D01*
X131401221Y-130062596D01*
X131320439Y-130116572D01*
X131225151Y-130135526D01*
X127654512Y-130135526D01*
X127501783Y-130176448D01*
X127460353Y-130200368D01*
X127460352Y-130200370D01*
X127364853Y-130255506D01*
X127364852Y-130255507D01*
X127364849Y-130255509D01*
X127253048Y-130367309D01*
X127253049Y-130367310D01*
X127253047Y-130367312D01*
X127253046Y-130367312D01*
X127065594Y-130554763D01*
X126984813Y-130608739D01*
X126889524Y-130627693D01*
X126810057Y-130611894D01*
X126809322Y-130614157D01*
X126800012Y-130611132D01*
X126800009Y-130611131D01*
X126647812Y-130574592D01*
X126548461Y-130550740D01*
X126290574Y-130530444D01*
X126290564Y-130530444D01*
X126032676Y-130550740D01*
X125781129Y-130611130D01*
X125781127Y-130611131D01*
X125542128Y-130710129D01*
X125321558Y-130845293D01*
X125124847Y-131013299D01*
X125124842Y-131013304D01*
X124956836Y-131210015D01*
X124821672Y-131430585D01*
X124722674Y-131669584D01*
X124722673Y-131669586D01*
X124662283Y-131921133D01*
X124641987Y-132179020D01*
X124641987Y-132179031D01*
X124662283Y-132436918D01*
X124722673Y-132688465D01*
X124722674Y-132688467D01*
X124747955Y-132749500D01*
X124821672Y-132927467D01*
X124858429Y-132987449D01*
X124956836Y-133148036D01*
X125106281Y-133323014D01*
X125153752Y-133407782D01*
X125165171Y-133504263D01*
X125138799Y-133597770D01*
X125106281Y-133646438D01*
X124956836Y-133821415D01*
X124821672Y-134041985D01*
X124722674Y-134280984D01*
X124722673Y-134280986D01*
X124662283Y-134532533D01*
X124641987Y-134790420D01*
X124641987Y-134790431D01*
X124662283Y-135048318D01*
X124722673Y-135299865D01*
X124722674Y-135299867D01*
X124735762Y-135331463D01*
X124821672Y-135538867D01*
X124881381Y-135636303D01*
X124956836Y-135759436D01*
X125124842Y-135956147D01*
X125124847Y-135956152D01*
X125321558Y-136124158D01*
X125383124Y-136161885D01*
X125542128Y-136259323D01*
X125781129Y-136358321D01*
X126032674Y-136418711D01*
X126106358Y-136424510D01*
X126290564Y-136439008D01*
X126290569Y-136439008D01*
X126290574Y-136439008D01*
X126451753Y-136426322D01*
X126548464Y-136418711D01*
X126800009Y-136358321D01*
X127039010Y-136259323D01*
X127259581Y-136124157D01*
X127456293Y-135956150D01*
X127624300Y-135759438D01*
X127759466Y-135538867D01*
X127858464Y-135299866D01*
X127918854Y-135048321D01*
X127930214Y-134903976D01*
X127939151Y-134790431D01*
X127939151Y-134790420D01*
X127918854Y-134532533D01*
X127876314Y-134355340D01*
X127858464Y-134280986D01*
X127759466Y-134041985D01*
X127624300Y-133821414D01*
X127617677Y-133813660D01*
X127474857Y-133646438D01*
X127427386Y-133561670D01*
X127415967Y-133465189D01*
X127442339Y-133371682D01*
X127474857Y-133323014D01*
X127624300Y-133148038D01*
X127759466Y-132927467D01*
X127858464Y-132688466D01*
X127918854Y-132436921D01*
X127933232Y-132254231D01*
X127939151Y-132179031D01*
X127939151Y-132179020D01*
X127918854Y-131921133D01*
X127918854Y-131921131D01*
X127858464Y-131669586D01*
X127858462Y-131669582D01*
X127856149Y-131662460D01*
X127844735Y-131565978D01*
X127871111Y-131472472D01*
X127931262Y-131396177D01*
X128016032Y-131348709D01*
X128092966Y-131336526D01*
X128552172Y-131336526D01*
X128647460Y-131355480D01*
X128728242Y-131409456D01*
X128782218Y-131490238D01*
X128801172Y-131585526D01*
X128788989Y-131662460D01*
X128786674Y-131669584D01*
X128726283Y-131921133D01*
X128705987Y-132179020D01*
X128705987Y-132179031D01*
X128726283Y-132436918D01*
X128786673Y-132688465D01*
X128786674Y-132688467D01*
X128811955Y-132749500D01*
X128885672Y-132927467D01*
X128922429Y-132987449D01*
X129020836Y-133148036D01*
X129170281Y-133323014D01*
X129217752Y-133407782D01*
X129229171Y-133504263D01*
X129202799Y-133597770D01*
X129170281Y-133646438D01*
X129020836Y-133821415D01*
X128885672Y-134041985D01*
X128786674Y-134280984D01*
X128786673Y-134280986D01*
X128726283Y-134532533D01*
X128705987Y-134790420D01*
X128705987Y-134790431D01*
X128726283Y-135048318D01*
X128786673Y-135299865D01*
X128786674Y-135299867D01*
X128799762Y-135331463D01*
X128885672Y-135538867D01*
X128945381Y-135636303D01*
X129020836Y-135759436D01*
X129188842Y-135956147D01*
X129188847Y-135956152D01*
X129385558Y-136124158D01*
X129447124Y-136161885D01*
X129606128Y-136259323D01*
X129845129Y-136358321D01*
X130096674Y-136418711D01*
X130170358Y-136424510D01*
X130354564Y-136439008D01*
X130354569Y-136439008D01*
X130354574Y-136439008D01*
X130515753Y-136426322D01*
X130612464Y-136418711D01*
X130864009Y-136358321D01*
X131103010Y-136259323D01*
X131323581Y-136124157D01*
X131520293Y-135956150D01*
X131688300Y-135759438D01*
X131823466Y-135538867D01*
X131922464Y-135299866D01*
X131982854Y-135048321D01*
X131994214Y-134903976D01*
X132003151Y-134790431D01*
X132003151Y-134790420D01*
X131982854Y-134532533D01*
X131940314Y-134355340D01*
X131922464Y-134280986D01*
X131823466Y-134041985D01*
X131688300Y-133821414D01*
X131681677Y-133813660D01*
X131538857Y-133646438D01*
X131491386Y-133561670D01*
X131479967Y-133465189D01*
X131506339Y-133371682D01*
X131538857Y-133323014D01*
X131688300Y-133148038D01*
X131823466Y-132927467D01*
X131922464Y-132688466D01*
X131939451Y-132617707D01*
X131980124Y-132529482D01*
X132051466Y-132463533D01*
X132142616Y-132429905D01*
X132239696Y-132433718D01*
X132327927Y-132474393D01*
X132357640Y-132499769D01*
X132430616Y-132572745D01*
X132484592Y-132653527D01*
X132503546Y-132748815D01*
X132484592Y-132844103D01*
X132474145Y-132866192D01*
X132421187Y-132965269D01*
X132421185Y-132965274D01*
X132363975Y-133153868D01*
X132344659Y-133350000D01*
X132363975Y-133546131D01*
X132421185Y-133734725D01*
X132421188Y-133734733D01*
X132514088Y-133908536D01*
X132564083Y-133969454D01*
X132639117Y-134060883D01*
X132748870Y-134150955D01*
X132791463Y-134185911D01*
X132965266Y-134278811D01*
X132965270Y-134278812D01*
X132965273Y-134278814D01*
X133153868Y-134336024D01*
X133350000Y-134355341D01*
X133546132Y-134336024D01*
X133734727Y-134278814D01*
X133908538Y-134185910D01*
X134060883Y-134060883D01*
X134076762Y-134041534D01*
X134151862Y-133979902D01*
X134244834Y-133951699D01*
X134269240Y-133950500D01*
X134799125Y-133950500D01*
X134894413Y-133969454D01*
X134975195Y-134023430D01*
X135029171Y-134104212D01*
X135048125Y-134199500D01*
X135029171Y-134294788D01*
X134975195Y-134375570D01*
X134975194Y-134375570D01*
X134281299Y-135069463D01*
X134200518Y-135123439D01*
X134105230Y-135142393D01*
X134009941Y-135123439D01*
X133947267Y-135085874D01*
X133927270Y-135069463D01*
X133908538Y-135054090D01*
X133908536Y-135054089D01*
X133908535Y-135054088D01*
X133734733Y-134961188D01*
X133734725Y-134961185D01*
X133546131Y-134903975D01*
X133350000Y-134884659D01*
X133153868Y-134903975D01*
X132965274Y-134961185D01*
X132965266Y-134961188D01*
X132791463Y-135054088D01*
X132639120Y-135179114D01*
X132639114Y-135179120D01*
X132514088Y-135331463D01*
X132421188Y-135505266D01*
X132421185Y-135505274D01*
X132363975Y-135693868D01*
X132344659Y-135890000D01*
X132363975Y-136086131D01*
X132421185Y-136274725D01*
X132421188Y-136274733D01*
X132514088Y-136448536D01*
X132548528Y-136490501D01*
X132639117Y-136600883D01*
X132748870Y-136690955D01*
X132791463Y-136725911D01*
X132965266Y-136818811D01*
X132965270Y-136818812D01*
X132965273Y-136818814D01*
X133153868Y-136876024D01*
X133350000Y-136895341D01*
X133546132Y-136876024D01*
X133734727Y-136818814D01*
X133908538Y-136725910D01*
X134060883Y-136600883D01*
X134076759Y-136581537D01*
X134151860Y-136519903D01*
X134244832Y-136491700D01*
X134269239Y-136490501D01*
X134389056Y-136490501D01*
X134389057Y-136490501D01*
X134541785Y-136449577D01*
X134595246Y-136418711D01*
X134678716Y-136370520D01*
X134790520Y-136258716D01*
X134790521Y-136258713D01*
X138295249Y-132753984D01*
X138376028Y-132700011D01*
X138471316Y-132681057D01*
X138566604Y-132700011D01*
X138647386Y-132753987D01*
X138701362Y-132834769D01*
X138706337Y-132847801D01*
X138741931Y-132949522D01*
X138741932Y-132949523D01*
X138741933Y-132949525D01*
X138741934Y-132949529D01*
X138837900Y-133102257D01*
X138837902Y-133102259D01*
X138837904Y-133102262D01*
X138965458Y-133229816D01*
X138965460Y-133229817D01*
X138965462Y-133229819D01*
X139118190Y-133325785D01*
X139118193Y-133325786D01*
X139118198Y-133325789D01*
X139288465Y-133385368D01*
X139288474Y-133385369D01*
X139467716Y-133405565D01*
X139467720Y-133405565D01*
X139467724Y-133405565D01*
X139607628Y-133389801D01*
X139646975Y-133385368D01*
X139817242Y-133325789D01*
X139817247Y-133325785D01*
X139817249Y-133325785D01*
X139969977Y-133229819D01*
X139969976Y-133229819D01*
X139969982Y-133229816D01*
X140097536Y-133102262D01*
X140169678Y-132987449D01*
X140193505Y-132949529D01*
X140193505Y-132949527D01*
X140193509Y-132949522D01*
X140253088Y-132779255D01*
X140257984Y-132735797D01*
X140287485Y-132643233D01*
X140329344Y-132587609D01*
X141059017Y-131857936D01*
X141139796Y-131803963D01*
X141235084Y-131785009D01*
X141259472Y-131786206D01*
X141284399Y-131788662D01*
X141480531Y-131769345D01*
X141669126Y-131712135D01*
X141842937Y-131619231D01*
X141995282Y-131494204D01*
X142120309Y-131341859D01*
X142133426Y-131317318D01*
X145113899Y-131317318D01*
X145113899Y-131519324D01*
X145114361Y-131521645D01*
X145153308Y-131717449D01*
X145230610Y-131904072D01*
X145230615Y-131904080D01*
X145237904Y-131914990D01*
X145275081Y-132004750D01*
X145275078Y-132101905D01*
X145237904Y-132191652D01*
X145230615Y-132202561D01*
X145230610Y-132202569D01*
X145153308Y-132389192D01*
X145138521Y-132463533D01*
X145113899Y-132587318D01*
X145113899Y-132789324D01*
X145122939Y-132834769D01*
X145153308Y-132987449D01*
X145230610Y-133174072D01*
X145230616Y-133174082D01*
X145342836Y-133342033D01*
X145342838Y-133342035D01*
X145342841Y-133342039D01*
X145485681Y-133484879D01*
X145485684Y-133484881D01*
X145485686Y-133484883D01*
X145577353Y-133546132D01*
X145653643Y-133597107D01*
X145653645Y-133597107D01*
X145653647Y-133597109D01*
X145772737Y-133646438D01*
X145840272Y-133674412D01*
X146038396Y-133713821D01*
X146038398Y-133713821D01*
X146690400Y-133713821D01*
X146690402Y-133713821D01*
X146888526Y-133674412D01*
X147075155Y-133597107D01*
X147243117Y-133484879D01*
X147385957Y-133342039D01*
X147498185Y-133174077D01*
X147575490Y-132987448D01*
X147614899Y-132789324D01*
X147614899Y-132587318D01*
X147575490Y-132389194D01*
X147498185Y-132202565D01*
X147490898Y-132191659D01*
X147453718Y-132101900D01*
X147453717Y-132004745D01*
X147490896Y-131914985D01*
X147490898Y-131914983D01*
X147498182Y-131904081D01*
X147498185Y-131904077D01*
X147575490Y-131717448D01*
X147614899Y-131519324D01*
X147614899Y-131317318D01*
X152098899Y-131317318D01*
X152098899Y-131519324D01*
X152099361Y-131521645D01*
X152138308Y-131717449D01*
X152215610Y-131904072D01*
X152215615Y-131904080D01*
X152222904Y-131914990D01*
X152260081Y-132004750D01*
X152260078Y-132101905D01*
X152222904Y-132191652D01*
X152215615Y-132202561D01*
X152215610Y-132202569D01*
X152138308Y-132389192D01*
X152123521Y-132463533D01*
X152098899Y-132587318D01*
X152098899Y-132789324D01*
X152107939Y-132834769D01*
X152138308Y-132987449D01*
X152215610Y-133174072D01*
X152215616Y-133174082D01*
X152327836Y-133342033D01*
X152327838Y-133342035D01*
X152327841Y-133342039D01*
X152470681Y-133484879D01*
X152470684Y-133484881D01*
X152470686Y-133484883D01*
X152562353Y-133546132D01*
X152638643Y-133597107D01*
X152638645Y-133597107D01*
X152638647Y-133597109D01*
X152757737Y-133646438D01*
X152825272Y-133674412D01*
X153023396Y-133713821D01*
X153023398Y-133713821D01*
X153675400Y-133713821D01*
X153675402Y-133713821D01*
X153873526Y-133674412D01*
X154060155Y-133597107D01*
X154228117Y-133484879D01*
X154370957Y-133342039D01*
X154483185Y-133174077D01*
X154560490Y-132987448D01*
X154599899Y-132789324D01*
X154599899Y-132587318D01*
X154560490Y-132389194D01*
X154483185Y-132202565D01*
X154475898Y-132191659D01*
X154438718Y-132101900D01*
X154438717Y-132004745D01*
X154475896Y-131914985D01*
X154475898Y-131914983D01*
X154483182Y-131904081D01*
X154483185Y-131904077D01*
X154560490Y-131717448D01*
X154599899Y-131519324D01*
X154599899Y-131418321D01*
X155519058Y-131418321D01*
X155538374Y-131614452D01*
X155595584Y-131803046D01*
X155595587Y-131803054D01*
X155688487Y-131976857D01*
X155728907Y-132026108D01*
X155813516Y-132129204D01*
X155813671Y-132129331D01*
X155965862Y-132254232D01*
X156139665Y-132347132D01*
X156139669Y-132347133D01*
X156139672Y-132347135D01*
X156328267Y-132404345D01*
X156524399Y-132423662D01*
X156720531Y-132404345D01*
X156909126Y-132347135D01*
X156926421Y-132337891D01*
X157082935Y-132254232D01*
X157082934Y-132254232D01*
X157082937Y-132254231D01*
X157235282Y-132129204D01*
X157360309Y-131976859D01*
X157399212Y-131904077D01*
X157453210Y-131803054D01*
X157453210Y-131803052D01*
X157453213Y-131803048D01*
X157510423Y-131614453D01*
X157529740Y-131418321D01*
X157510423Y-131222189D01*
X157453213Y-131033594D01*
X157453211Y-131033591D01*
X157453210Y-131033587D01*
X157360310Y-130859784D01*
X157235284Y-130707441D01*
X157235282Y-130707438D01*
X157130881Y-130621758D01*
X157082935Y-130582409D01*
X156909132Y-130489509D01*
X156909124Y-130489506D01*
X156720530Y-130432296D01*
X156524399Y-130412980D01*
X156328267Y-130432296D01*
X156139673Y-130489506D01*
X156139665Y-130489509D01*
X155965862Y-130582409D01*
X155813519Y-130707435D01*
X155813513Y-130707441D01*
X155688487Y-130859784D01*
X155595587Y-131033587D01*
X155595584Y-131033595D01*
X155538374Y-131222189D01*
X155519058Y-131418321D01*
X154599899Y-131418321D01*
X154599899Y-131317318D01*
X154560490Y-131119194D01*
X154516628Y-131013302D01*
X154483187Y-130932569D01*
X154483181Y-130932559D01*
X154370961Y-130764608D01*
X154370959Y-130764606D01*
X154370957Y-130764603D01*
X154228117Y-130621763D01*
X154228113Y-130621760D01*
X154228111Y-130621758D01*
X154060160Y-130509538D01*
X154060150Y-130509532D01*
X153873527Y-130432230D01*
X153807484Y-130419093D01*
X153675402Y-130392821D01*
X153023396Y-130392821D01*
X152924334Y-130412525D01*
X152825270Y-130432230D01*
X152638647Y-130509532D01*
X152638637Y-130509538D01*
X152470686Y-130621758D01*
X152327836Y-130764608D01*
X152215616Y-130932559D01*
X152215610Y-130932569D01*
X152138308Y-131119192D01*
X152138308Y-131119194D01*
X152098899Y-131317318D01*
X147614899Y-131317318D01*
X147575490Y-131119194D01*
X147531628Y-131013302D01*
X147498187Y-130932569D01*
X147498181Y-130932559D01*
X147385961Y-130764608D01*
X147385959Y-130764606D01*
X147385957Y-130764603D01*
X147243117Y-130621763D01*
X147243113Y-130621760D01*
X147243111Y-130621758D01*
X147075160Y-130509538D01*
X147075150Y-130509532D01*
X146888527Y-130432230D01*
X146822484Y-130419093D01*
X146690402Y-130392821D01*
X146038396Y-130392821D01*
X145939334Y-130412525D01*
X145840270Y-130432230D01*
X145653647Y-130509532D01*
X145653637Y-130509538D01*
X145485686Y-130621758D01*
X145342836Y-130764608D01*
X145230616Y-130932559D01*
X145230610Y-130932569D01*
X145153308Y-131119192D01*
X145153308Y-131119194D01*
X145113899Y-131317318D01*
X142133426Y-131317318D01*
X142213213Y-131168048D01*
X142270423Y-130979453D01*
X142289740Y-130783321D01*
X142270423Y-130587189D01*
X142213213Y-130398594D01*
X142213211Y-130398591D01*
X142213210Y-130398587D01*
X142120310Y-130224784D01*
X142017177Y-130099117D01*
X141995282Y-130072438D01*
X141884857Y-129981814D01*
X141842935Y-129947409D01*
X141658338Y-129848740D01*
X141659788Y-129846026D01*
X141597159Y-129804168D01*
X141543194Y-129723379D01*
X141524252Y-129628088D01*
X141543218Y-129532803D01*
X141597179Y-129452054D01*
X145515806Y-125533430D01*
X145596588Y-125479454D01*
X145691876Y-125460500D01*
X152869596Y-125460500D01*
X152964884Y-125479454D01*
X153045662Y-125533427D01*
X153052755Y-125540520D01*
X153052757Y-125540521D01*
X153189683Y-125619575D01*
X153189684Y-125619575D01*
X153189687Y-125619577D01*
X153342414Y-125660501D01*
X153515790Y-125660501D01*
X153515806Y-125660500D01*
X153635283Y-125660500D01*
X153730571Y-125679454D01*
X153789584Y-125718885D01*
X153791807Y-125716099D01*
X153802738Y-125724817D01*
X153955470Y-125820785D01*
X153955473Y-125820786D01*
X153955478Y-125820789D01*
X154125745Y-125880368D01*
X154125754Y-125880369D01*
X154304996Y-125900565D01*
X154305000Y-125900565D01*
X154305004Y-125900565D01*
X154444908Y-125884801D01*
X154484255Y-125880368D01*
X154654522Y-125820789D01*
X154654527Y-125820785D01*
X154654529Y-125820785D01*
X154776470Y-125744164D01*
X154807262Y-125724816D01*
X154934816Y-125597262D01*
X155014749Y-125470050D01*
X155030785Y-125444529D01*
X155030785Y-125444527D01*
X155030789Y-125444522D01*
X155090368Y-125274255D01*
X155103860Y-125154507D01*
X155110565Y-125095003D01*
X155110565Y-125094996D01*
X155090369Y-124915754D01*
X155090368Y-124915745D01*
X155030789Y-124745478D01*
X155030786Y-124745473D01*
X155030785Y-124745470D01*
X154934819Y-124592742D01*
X154934817Y-124592740D01*
X154934816Y-124592738D01*
X154807262Y-124465184D01*
X154807259Y-124465182D01*
X154807257Y-124465180D01*
X154654529Y-124369214D01*
X154654517Y-124369209D01*
X154576036Y-124341747D01*
X154492355Y-124292385D01*
X154433935Y-124214756D01*
X154423254Y-124188969D01*
X154395789Y-124110478D01*
X154395786Y-124110474D01*
X154395785Y-124110470D01*
X154299819Y-123957742D01*
X154299817Y-123957740D01*
X154299816Y-123957738D01*
X154172262Y-123830184D01*
X154172259Y-123830182D01*
X154172257Y-123830180D01*
X154019529Y-123734214D01*
X154019524Y-123734212D01*
X154019522Y-123734211D01*
X153849255Y-123674632D01*
X153849251Y-123674631D01*
X153849245Y-123674630D01*
X153670004Y-123654435D01*
X153669996Y-123654435D01*
X153490754Y-123674630D01*
X153490746Y-123674631D01*
X153490745Y-123674632D01*
X153320478Y-123734211D01*
X153320476Y-123734211D01*
X153320476Y-123734212D01*
X153320471Y-123734214D01*
X153181822Y-123821334D01*
X153091055Y-123855982D01*
X153049346Y-123859500D01*
X145234335Y-123859500D01*
X145234319Y-123859499D01*
X145219058Y-123859499D01*
X145060943Y-123859499D01*
X144900291Y-123902546D01*
X144803344Y-123908901D01*
X144711345Y-123877672D01*
X144638299Y-123813613D01*
X144631874Y-123804850D01*
X144623072Y-123792280D01*
X144510047Y-123630861D01*
X144349139Y-123469953D01*
X144349135Y-123469950D01*
X144349134Y-123469949D01*
X144162741Y-123339436D01*
X144162727Y-123339428D01*
X143956499Y-123243262D01*
X143956496Y-123243261D01*
X143736694Y-123184365D01*
X143736679Y-123184363D01*
X143510006Y-123164532D01*
X143509994Y-123164532D01*
X143283320Y-123184363D01*
X143283305Y-123184365D01*
X143063503Y-123243261D01*
X143063500Y-123243262D01*
X142857272Y-123339428D01*
X142857258Y-123339436D01*
X142670865Y-123469949D01*
X142509949Y-123630865D01*
X142379436Y-123817258D01*
X142379428Y-123817272D01*
X142283262Y-124023500D01*
X142283261Y-124023503D01*
X142224365Y-124243305D01*
X142224363Y-124243320D01*
X142204532Y-124469994D01*
X142204532Y-124470005D01*
X142224363Y-124696679D01*
X142224365Y-124696694D01*
X142283261Y-124916496D01*
X142283262Y-124916499D01*
X142379428Y-125122727D01*
X142379436Y-125122741D01*
X142509949Y-125309134D01*
X142509953Y-125309139D01*
X142670861Y-125470047D01*
X142786474Y-125550999D01*
X142853657Y-125621179D01*
X142888871Y-125711728D01*
X142886752Y-125808860D01*
X142847624Y-125897787D01*
X142819724Y-125931038D01*
X136074195Y-132676570D01*
X135993413Y-132730546D01*
X135898125Y-132749500D01*
X134269241Y-132749500D01*
X134173953Y-132730546D01*
X134093171Y-132676570D01*
X134076761Y-132658464D01*
X134060883Y-132639117D01*
X134007083Y-132594963D01*
X133945450Y-132519860D01*
X133924535Y-132466934D01*
X133916492Y-132436918D01*
X133909577Y-132411110D01*
X133905671Y-132404345D01*
X133830521Y-132274180D01*
X133830520Y-132274178D01*
X133685669Y-132129327D01*
X133631696Y-132048549D01*
X133612742Y-131953261D01*
X133631696Y-131857973D01*
X133685672Y-131777191D01*
X133744364Y-131733663D01*
X133908536Y-131645911D01*
X133908535Y-131645911D01*
X133908538Y-131645910D01*
X134060883Y-131520883D01*
X134185910Y-131368538D01*
X134264135Y-131222189D01*
X134278811Y-131194733D01*
X134278811Y-131194731D01*
X134278814Y-131194727D01*
X134336024Y-131006132D01*
X134355341Y-130810000D01*
X134336024Y-130613868D01*
X134278814Y-130425273D01*
X134278812Y-130425270D01*
X134278811Y-130425266D01*
X134185911Y-130251463D01*
X134090762Y-130135525D01*
X134060883Y-130099117D01*
X133908538Y-129974090D01*
X133908539Y-129974090D01*
X133908536Y-129974088D01*
X133734733Y-129881188D01*
X133734725Y-129881185D01*
X133546131Y-129823975D01*
X133350001Y-129804659D01*
X133349998Y-129804659D01*
X133325091Y-129807112D01*
X133228403Y-129797589D01*
X133142721Y-129751790D01*
X133124616Y-129735381D01*
X133081774Y-129692539D01*
X133027798Y-129611757D01*
X133008844Y-129516469D01*
X133027798Y-129421181D01*
X133081774Y-129340399D01*
X133162556Y-129286423D01*
X133257844Y-129267469D01*
X133282242Y-129268667D01*
X133350000Y-129275341D01*
X133546132Y-129256024D01*
X133734727Y-129198814D01*
X133908538Y-129105910D01*
X134060883Y-128980883D01*
X134185910Y-128828538D01*
X134278814Y-128654727D01*
X134336024Y-128466132D01*
X134355341Y-128270000D01*
X134336024Y-128073868D01*
X134278814Y-127885273D01*
X134278812Y-127885270D01*
X134278811Y-127885266D01*
X134185911Y-127711463D01*
X134060885Y-127559120D01*
X134060883Y-127559117D01*
X133908538Y-127434090D01*
X133908539Y-127434090D01*
X133908536Y-127434088D01*
X133734733Y-127341188D01*
X133734725Y-127341185D01*
X133546131Y-127283975D01*
X133350000Y-127264659D01*
X133153868Y-127283975D01*
X132965274Y-127341185D01*
X132965266Y-127341188D01*
X132791463Y-127434088D01*
X132639120Y-127559114D01*
X132639114Y-127559120D01*
X132514088Y-127711463D01*
X132421188Y-127885266D01*
X132421185Y-127885274D01*
X132363975Y-128073868D01*
X132344659Y-128270000D01*
X132344659Y-128270002D01*
X132351331Y-128337751D01*
X132341807Y-128434438D01*
X132296008Y-128520121D01*
X132220906Y-128581754D01*
X132127934Y-128609956D01*
X132031247Y-128600432D01*
X131945564Y-128554633D01*
X131927460Y-128538225D01*
X131483430Y-128094195D01*
X131429454Y-128013413D01*
X131410500Y-127918125D01*
X131410500Y-126382345D01*
X131429454Y-126287057D01*
X131483430Y-126206275D01*
X131564212Y-126152299D01*
X131659500Y-126133345D01*
X131723938Y-126141828D01*
X131830943Y-126170501D01*
X131830945Y-126170501D01*
X132004318Y-126170501D01*
X132004334Y-126170500D01*
X133711301Y-126170500D01*
X133711317Y-126170501D01*
X133726578Y-126170501D01*
X133884691Y-126170501D01*
X133884692Y-126170501D01*
X134037420Y-126129577D01*
X134081135Y-126104337D01*
X134100848Y-126092957D01*
X134100850Y-126092955D01*
X134100856Y-126092952D01*
X134174351Y-126050520D01*
X134286155Y-125938716D01*
X134286155Y-125938714D01*
X134306655Y-125918215D01*
X134306656Y-125918212D01*
X134729004Y-125495865D01*
X134809783Y-125441891D01*
X134905071Y-125422937D01*
X135000359Y-125441891D01*
X135047891Y-125467968D01*
X135237258Y-125600563D01*
X135237262Y-125600565D01*
X135237266Y-125600568D01*
X135237270Y-125600569D01*
X135237272Y-125600571D01*
X135361008Y-125658270D01*
X135443504Y-125696739D01*
X135663308Y-125755635D01*
X135682984Y-125757356D01*
X135889994Y-125775468D01*
X135890000Y-125775468D01*
X135890006Y-125775468D01*
X136069668Y-125759749D01*
X136116692Y-125755635D01*
X136336496Y-125696739D01*
X136542734Y-125600568D01*
X136729139Y-125470047D01*
X136890047Y-125309139D01*
X136956031Y-125214902D01*
X137026211Y-125147719D01*
X137116760Y-125112506D01*
X137213892Y-125114625D01*
X137302819Y-125153753D01*
X137363970Y-125214904D01*
X137417311Y-125291085D01*
X137429953Y-125309139D01*
X137590861Y-125470047D01*
X137590864Y-125470049D01*
X137590865Y-125470050D01*
X137777258Y-125600563D01*
X137777262Y-125600565D01*
X137777266Y-125600568D01*
X137777270Y-125600569D01*
X137777272Y-125600571D01*
X137901008Y-125658270D01*
X137983504Y-125696739D01*
X138203308Y-125755635D01*
X138222984Y-125757356D01*
X138429994Y-125775468D01*
X138430000Y-125775468D01*
X138430006Y-125775468D01*
X138609668Y-125759749D01*
X138656692Y-125755635D01*
X138876496Y-125696739D01*
X139082734Y-125600568D01*
X139269139Y-125470047D01*
X139430047Y-125309139D01*
X139560568Y-125122734D01*
X139656739Y-124916496D01*
X139715635Y-124696692D01*
X139720375Y-124642512D01*
X139735468Y-124470005D01*
X139735468Y-124469994D01*
X139715636Y-124243320D01*
X139715635Y-124243308D01*
X139656739Y-124023504D01*
X139560568Y-123817266D01*
X139560565Y-123817262D01*
X139560563Y-123817258D01*
X139430050Y-123630865D01*
X139430049Y-123630864D01*
X139430047Y-123630861D01*
X139269139Y-123469953D01*
X139269135Y-123469950D01*
X139269134Y-123469949D01*
X139082741Y-123339436D01*
X139082727Y-123339428D01*
X138876499Y-123243262D01*
X138876496Y-123243261D01*
X138656694Y-123184365D01*
X138656679Y-123184363D01*
X138430006Y-123164532D01*
X138429994Y-123164532D01*
X138203320Y-123184363D01*
X138203305Y-123184365D01*
X137983503Y-123243261D01*
X137983500Y-123243262D01*
X137777272Y-123339428D01*
X137777258Y-123339436D01*
X137590865Y-123469949D01*
X137429949Y-123630865D01*
X137363969Y-123725096D01*
X137293788Y-123792280D01*
X137203239Y-123827493D01*
X137106107Y-123825374D01*
X137017180Y-123786245D01*
X136956031Y-123725096D01*
X136890050Y-123630865D01*
X136890049Y-123630864D01*
X136890047Y-123630861D01*
X136729139Y-123469953D01*
X136729135Y-123469950D01*
X136729134Y-123469949D01*
X136542741Y-123339436D01*
X136542731Y-123339430D01*
X136423612Y-123283884D01*
X136345262Y-123226435D01*
X136294861Y-123143376D01*
X136280082Y-123047352D01*
X136303175Y-122952981D01*
X136352772Y-122882147D01*
X149251800Y-109983119D01*
X149332579Y-109929146D01*
X149427867Y-109910192D01*
X149523155Y-109929146D01*
X149603933Y-109983119D01*
X149760861Y-110140047D01*
X149855097Y-110206031D01*
X149922279Y-110276209D01*
X149957493Y-110366758D01*
X149955374Y-110463890D01*
X149916246Y-110552818D01*
X149855097Y-110613967D01*
X149760866Y-110679948D01*
X149599949Y-110840865D01*
X149469436Y-111027258D01*
X149469428Y-111027272D01*
X149373262Y-111233500D01*
X149373261Y-111233503D01*
X149314365Y-111453305D01*
X149314363Y-111453320D01*
X149294532Y-111679994D01*
X149294532Y-111680005D01*
X149314363Y-111906679D01*
X149314365Y-111906694D01*
X149373261Y-112126496D01*
X149373262Y-112126499D01*
X149469428Y-112332727D01*
X149469436Y-112332741D01*
X149599949Y-112519134D01*
X149599953Y-112519139D01*
X149760861Y-112680047D01*
X149760864Y-112680049D01*
X149760865Y-112680050D01*
X149855096Y-112746031D01*
X149922280Y-112816212D01*
X149957493Y-112906761D01*
X149955374Y-113003893D01*
X149916245Y-113092820D01*
X149855096Y-113153969D01*
X149760865Y-113219949D01*
X149599949Y-113380865D01*
X149469436Y-113567258D01*
X149469428Y-113567272D01*
X149373262Y-113773500D01*
X149373261Y-113773503D01*
X149314365Y-113993305D01*
X149314363Y-113993320D01*
X149294532Y-114219994D01*
X149294532Y-114220005D01*
X149314363Y-114446679D01*
X149314365Y-114446694D01*
X149373261Y-114666496D01*
X149373262Y-114666499D01*
X149469428Y-114872727D01*
X149469436Y-114872741D01*
X149599949Y-115059134D01*
X149599953Y-115059139D01*
X149760861Y-115220047D01*
X149760864Y-115220049D01*
X149760865Y-115220050D01*
X149855096Y-115286031D01*
X149922280Y-115356212D01*
X149957493Y-115446761D01*
X149955374Y-115543893D01*
X149916245Y-115632820D01*
X149855096Y-115693969D01*
X149760865Y-115759949D01*
X149599949Y-115920865D01*
X149469436Y-116107258D01*
X149469428Y-116107272D01*
X149373262Y-116313500D01*
X149373261Y-116313503D01*
X149314365Y-116533305D01*
X149314363Y-116533320D01*
X149294532Y-116759994D01*
X149294532Y-116760005D01*
X149314363Y-116986679D01*
X149314365Y-116986694D01*
X149373261Y-117206496D01*
X149373262Y-117206499D01*
X149469428Y-117412727D01*
X149469436Y-117412741D01*
X149599949Y-117599134D01*
X149599953Y-117599139D01*
X149760861Y-117760047D01*
X149760864Y-117760049D01*
X149760865Y-117760050D01*
X149947258Y-117890563D01*
X149947262Y-117890565D01*
X149947266Y-117890568D01*
X150153504Y-117986739D01*
X150373308Y-118045635D01*
X150392984Y-118047356D01*
X150599994Y-118065468D01*
X150600000Y-118065468D01*
X150600006Y-118065468D01*
X150779668Y-118049749D01*
X150826692Y-118045635D01*
X151046496Y-117986739D01*
X151252734Y-117890568D01*
X151439139Y-117760047D01*
X151600047Y-117599139D01*
X151730568Y-117412734D01*
X151826739Y-117206496D01*
X151885635Y-116986692D01*
X151905468Y-116760000D01*
X151905468Y-116759994D01*
X151885636Y-116533320D01*
X151885635Y-116533308D01*
X151878525Y-116506775D01*
X151872171Y-116409835D01*
X151903399Y-116317835D01*
X151942973Y-116266261D01*
X151965808Y-116243427D01*
X152046591Y-116189452D01*
X152141874Y-116170500D01*
X155122490Y-116170500D01*
X155217778Y-116189454D01*
X155298560Y-116243430D01*
X157194132Y-118139002D01*
X157248108Y-118219784D01*
X157267062Y-118315072D01*
X157248108Y-118410360D01*
X157222032Y-118457892D01*
X157089431Y-118647266D01*
X157089428Y-118647272D01*
X156993262Y-118853500D01*
X156993261Y-118853503D01*
X156934365Y-119073305D01*
X156934363Y-119073320D01*
X156914532Y-119299994D01*
X156914532Y-119300005D01*
X156934363Y-119526679D01*
X156934365Y-119526694D01*
X156993261Y-119746496D01*
X156993262Y-119746499D01*
X157089428Y-119952727D01*
X157089436Y-119952741D01*
X157163020Y-120057830D01*
X157219953Y-120139139D01*
X157380861Y-120300047D01*
X157380864Y-120300049D01*
X157380865Y-120300050D01*
X157567258Y-120430563D01*
X157567262Y-120430565D01*
X157567266Y-120430568D01*
X157773504Y-120526739D01*
X157993308Y-120585635D01*
X158012984Y-120587356D01*
X158219994Y-120605468D01*
X158220000Y-120605468D01*
X158220006Y-120605468D01*
X158399668Y-120589749D01*
X158446692Y-120585635D01*
X158666496Y-120526739D01*
X158872734Y-120430568D01*
X159059139Y-120300047D01*
X159220047Y-120139139D01*
X159350568Y-119952734D01*
X159446739Y-119746496D01*
X159505635Y-119526692D01*
X159510375Y-119472512D01*
X159525468Y-119300005D01*
X159525468Y-119299994D01*
X159505636Y-119073320D01*
X159505635Y-119073308D01*
X159446739Y-118853504D01*
X159350568Y-118647266D01*
X159220047Y-118460861D01*
X159220045Y-118460859D01*
X159217967Y-118457891D01*
X159178838Y-118368964D01*
X159176719Y-118271832D01*
X159211932Y-118181283D01*
X159245861Y-118139007D01*
X159471440Y-117913430D01*
X159552222Y-117859454D01*
X159647509Y-117840500D01*
X160981779Y-117840500D01*
X161077067Y-117859454D01*
X161157849Y-117913430D01*
X161469110Y-118224691D01*
X161523086Y-118305473D01*
X161542040Y-118400761D01*
X161523086Y-118496049D01*
X161497010Y-118543581D01*
X161385964Y-118702171D01*
X161385961Y-118702177D01*
X161286098Y-118916333D01*
X161286097Y-118916335D01*
X161224935Y-119144598D01*
X161204341Y-119379994D01*
X161204341Y-119380005D01*
X161224935Y-119615401D01*
X161224937Y-119615408D01*
X161286097Y-119843663D01*
X161385965Y-120057830D01*
X161521505Y-120251401D01*
X161521507Y-120251403D01*
X161524849Y-120255387D01*
X161526849Y-120259034D01*
X161527741Y-120260307D01*
X161527601Y-120260404D01*
X161571577Y-120340566D01*
X161582151Y-120437144D01*
X161554961Y-120530417D01*
X161494147Y-120606185D01*
X161481431Y-120614868D01*
X161481927Y-120615531D01*
X161467670Y-120626203D01*
X161467669Y-120626204D01*
X161393319Y-120681861D01*
X161352455Y-120712453D01*
X161352453Y-120712455D01*
X161266204Y-120827669D01*
X161215908Y-120962518D01*
X161209500Y-121022123D01*
X161209500Y-122817865D01*
X161209501Y-122817869D01*
X161215908Y-122877480D01*
X161215909Y-122877483D01*
X161266204Y-123012331D01*
X161352454Y-123127546D01*
X161467669Y-123213796D01*
X161602517Y-123264091D01*
X161662127Y-123270500D01*
X162745991Y-123270499D01*
X162841279Y-123289453D01*
X162922060Y-123343429D01*
X162922061Y-123343429D01*
X165326570Y-125747938D01*
X165380546Y-125828720D01*
X165399500Y-125924008D01*
X165399500Y-140823920D01*
X165428341Y-140968911D01*
X165428342Y-140968913D01*
X165484916Y-141105495D01*
X165517813Y-141154729D01*
X165567048Y-141228416D01*
X166114966Y-141776333D01*
X166225914Y-141887281D01*
X166279890Y-141968063D01*
X166298844Y-142063351D01*
X166297897Y-142085052D01*
X166284341Y-142240004D01*
X166284341Y-142240005D01*
X166304935Y-142475401D01*
X166304937Y-142475408D01*
X166366097Y-142703663D01*
X166465965Y-142917830D01*
X166601505Y-143111401D01*
X166768599Y-143278495D01*
X166807925Y-143306031D01*
X166875107Y-143376209D01*
X166910321Y-143466758D01*
X166908202Y-143563890D01*
X166869074Y-143652818D01*
X166807928Y-143713965D01*
X166768603Y-143741501D01*
X166601504Y-143908600D01*
X166465965Y-144102169D01*
X166465961Y-144102177D01*
X166366098Y-144316333D01*
X166366097Y-144316335D01*
X166304935Y-144544598D01*
X166284341Y-144779994D01*
X166284341Y-144780005D01*
X166304935Y-145015401D01*
X166312590Y-145043972D01*
X166366097Y-145243663D01*
X166447030Y-145417224D01*
X166465965Y-145457830D01*
X166566632Y-145601598D01*
X166601505Y-145651401D01*
X166768599Y-145818495D01*
X166962170Y-145954035D01*
X167176337Y-146053903D01*
X167404592Y-146115063D01*
X167404595Y-146115063D01*
X167404598Y-146115064D01*
X167639995Y-146135659D01*
X167640000Y-146135659D01*
X167640005Y-146135659D01*
X167875401Y-146115064D01*
X167875403Y-146115063D01*
X167875408Y-146115063D01*
X168103663Y-146053903D01*
X168317830Y-145954035D01*
X168511401Y-145818495D01*
X168678495Y-145651401D01*
X168814035Y-145457830D01*
X168913903Y-145243663D01*
X168975063Y-145015408D01*
X168975064Y-145015401D01*
X168995659Y-144780005D01*
X168995659Y-144779994D01*
X168975064Y-144544598D01*
X168975063Y-144544595D01*
X168975063Y-144544592D01*
X168913903Y-144316337D01*
X168814035Y-144102171D01*
X168796580Y-144077243D01*
X168720601Y-143968733D01*
X168678495Y-143908599D01*
X168511401Y-143741505D01*
X168472074Y-143713967D01*
X168404891Y-143643789D01*
X168369678Y-143553240D01*
X168371797Y-143456108D01*
X168410925Y-143367181D01*
X168472073Y-143306032D01*
X168511401Y-143278495D01*
X168678495Y-143111401D01*
X168814035Y-142917830D01*
X168913903Y-142703663D01*
X168975063Y-142475408D01*
X168995659Y-142240000D01*
X168995659Y-142239994D01*
X168975064Y-142004598D01*
X168975063Y-142004595D01*
X168975063Y-142004592D01*
X168913903Y-141776337D01*
X168814035Y-141562171D01*
X168678495Y-141368599D01*
X168511401Y-141201505D01*
X168317830Y-141065965D01*
X168103663Y-140966097D01*
X168103660Y-140966096D01*
X167875401Y-140904935D01*
X167640005Y-140884341D01*
X167640004Y-140884341D01*
X167640001Y-140884341D01*
X167640000Y-140884341D01*
X167576349Y-140889909D01*
X167485052Y-140897897D01*
X167388474Y-140887319D01*
X167303296Y-140840588D01*
X167287281Y-140825914D01*
X167253697Y-140792330D01*
X166973428Y-140512060D01*
X166919454Y-140431281D01*
X166900500Y-140335993D01*
X166900500Y-130809994D01*
X167554341Y-130809994D01*
X167554341Y-130810005D01*
X167574935Y-131045401D01*
X167619042Y-131210014D01*
X167636097Y-131273663D01*
X167703552Y-131418321D01*
X167735965Y-131487830D01*
X167863230Y-131669584D01*
X167871505Y-131681401D01*
X168038599Y-131848495D01*
X168077925Y-131876031D01*
X168145107Y-131946209D01*
X168180321Y-132036758D01*
X168178202Y-132133890D01*
X168139074Y-132222818D01*
X168077928Y-132283965D01*
X168038603Y-132311501D01*
X167871504Y-132478600D01*
X167735965Y-132672169D01*
X167735961Y-132672177D01*
X167636098Y-132886333D01*
X167636097Y-132886335D01*
X167574935Y-133114598D01*
X167554341Y-133349994D01*
X167554341Y-133350005D01*
X167574935Y-133585401D01*
X167578070Y-133597103D01*
X167636097Y-133813663D01*
X167708744Y-133969454D01*
X167735965Y-134027830D01*
X167846654Y-134185911D01*
X167871505Y-134221401D01*
X168038599Y-134388495D01*
X168232170Y-134524035D01*
X168446337Y-134623903D01*
X168674592Y-134685063D01*
X168674595Y-134685063D01*
X168674598Y-134685064D01*
X168909995Y-134705659D01*
X168910000Y-134705659D01*
X168910005Y-134705659D01*
X169145401Y-134685064D01*
X169145403Y-134685063D01*
X169145408Y-134685063D01*
X169373663Y-134623903D01*
X169587830Y-134524035D01*
X169781401Y-134388495D01*
X169948495Y-134221401D01*
X170084035Y-134027830D01*
X170183903Y-133813663D01*
X170245063Y-133585408D01*
X170247140Y-133561670D01*
X170265659Y-133350005D01*
X170265659Y-133349994D01*
X170245064Y-133114598D01*
X170245063Y-133114595D01*
X170245063Y-133114592D01*
X170183903Y-132886337D01*
X170084035Y-132672171D01*
X170074437Y-132658464D01*
X170024621Y-132587319D01*
X169948495Y-132478599D01*
X169781401Y-132311505D01*
X169742074Y-132283967D01*
X169674891Y-132213789D01*
X169639678Y-132123240D01*
X169641797Y-132026108D01*
X169680925Y-131937181D01*
X169742073Y-131876032D01*
X169781401Y-131848495D01*
X169948495Y-131681401D01*
X170084035Y-131487830D01*
X170183903Y-131273663D01*
X170245063Y-131045408D01*
X170246097Y-131033594D01*
X170265659Y-130810005D01*
X170265659Y-130809994D01*
X170245064Y-130574598D01*
X170245063Y-130574595D01*
X170245063Y-130574592D01*
X170183903Y-130346337D01*
X170139662Y-130251462D01*
X170084038Y-130132177D01*
X170084034Y-130132169D01*
X169978754Y-129981814D01*
X169948495Y-129938599D01*
X169781401Y-129771505D01*
X169587830Y-129635965D01*
X169373663Y-129536097D01*
X169373660Y-129536096D01*
X169145401Y-129474935D01*
X168910005Y-129454341D01*
X168909995Y-129454341D01*
X168674598Y-129474935D01*
X168446335Y-129536097D01*
X168446333Y-129536098D01*
X168232177Y-129635961D01*
X168232169Y-129635965D01*
X168038600Y-129771504D01*
X167871504Y-129938600D01*
X167735965Y-130132169D01*
X167735961Y-130132177D01*
X167636098Y-130346333D01*
X167636097Y-130346335D01*
X167574935Y-130574598D01*
X167554341Y-130809994D01*
X166900500Y-130809994D01*
X166900500Y-125436081D01*
X166884696Y-125356633D01*
X166884695Y-125356629D01*
X166871659Y-125291088D01*
X166828042Y-125185789D01*
X166815084Y-125154505D01*
X166763015Y-125076578D01*
X166763012Y-125076573D01*
X166732956Y-125031589D01*
X166732954Y-125031587D01*
X166732952Y-125031584D01*
X163983429Y-122282061D01*
X163929453Y-122201279D01*
X163910499Y-122105991D01*
X163910499Y-121734007D01*
X163929453Y-121638719D01*
X163983426Y-121557940D01*
X164442952Y-121098415D01*
X164470205Y-121057627D01*
X164525084Y-120975495D01*
X164548518Y-120918920D01*
X164581659Y-120838912D01*
X164610500Y-120693917D01*
X164610500Y-120546082D01*
X164610500Y-100987604D01*
X164599074Y-100930162D01*
X164581659Y-100842610D01*
X164548518Y-100762602D01*
X164525084Y-100706027D01*
X164462605Y-100612519D01*
X164442954Y-100583109D01*
X164442952Y-100583106D01*
X163576894Y-99717048D01*
X163491149Y-99659756D01*
X163453973Y-99634916D01*
X163453969Y-99634914D01*
X163453967Y-99634913D01*
X163361144Y-99596465D01*
X163317391Y-99578342D01*
X163317389Y-99578341D01*
X163172398Y-99549500D01*
X163172396Y-99549500D01*
X161246082Y-99549500D01*
X161246074Y-99549500D01*
X161217239Y-99555236D01*
X161101090Y-99578339D01*
X161101089Y-99578340D01*
X161038184Y-99604397D01*
X161038181Y-99604398D01*
X160964512Y-99634912D01*
X160964499Y-99634919D01*
X160926448Y-99660343D01*
X160926449Y-99660344D01*
X160926448Y-99660345D01*
X160841590Y-99717045D01*
X160841581Y-99717051D01*
X160841579Y-99717052D01*
X159862061Y-100696570D01*
X159781280Y-100750546D01*
X159685992Y-100769500D01*
X159410534Y-100769500D01*
X159315246Y-100750546D01*
X159234464Y-100696570D01*
X159220341Y-100681156D01*
X159220049Y-100680864D01*
X159220047Y-100680861D01*
X159059139Y-100519953D01*
X159059135Y-100519950D01*
X159059134Y-100519949D01*
X158872741Y-100389436D01*
X158872727Y-100389428D01*
X158666499Y-100293262D01*
X158666496Y-100293261D01*
X158446694Y-100234365D01*
X158446679Y-100234363D01*
X158220006Y-100214532D01*
X158219994Y-100214532D01*
X157993320Y-100234363D01*
X157993305Y-100234365D01*
X157773503Y-100293261D01*
X157773500Y-100293262D01*
X157567272Y-100389428D01*
X157567258Y-100389436D01*
X157380865Y-100519949D01*
X157219949Y-100680865D01*
X157089436Y-100867258D01*
X157089428Y-100867272D01*
X156993262Y-101073500D01*
X156993261Y-101073503D01*
X156934365Y-101293305D01*
X156934363Y-101293320D01*
X156914532Y-101519994D01*
X156914532Y-101520005D01*
X156934549Y-101748798D01*
X156923973Y-101845375D01*
X156877242Y-101930554D01*
X156801473Y-101991366D01*
X156708199Y-102018552D01*
X156686497Y-102019500D01*
X152149499Y-102019500D01*
X152054211Y-102000546D01*
X151973429Y-101946570D01*
X151919453Y-101865788D01*
X151900499Y-101770500D01*
X151900499Y-100672134D01*
X151900499Y-100672128D01*
X151894091Y-100612517D01*
X151843796Y-100477669D01*
X151757546Y-100362454D01*
X151642331Y-100276204D01*
X151530155Y-100234365D01*
X151507481Y-100225908D01*
X151447873Y-100219500D01*
X149752134Y-100219500D01*
X149752130Y-100219500D01*
X149752128Y-100219501D01*
X149739314Y-100220878D01*
X149692519Y-100225908D01*
X149692515Y-100225909D01*
X149557670Y-100276203D01*
X149442455Y-100362453D01*
X149442453Y-100362455D01*
X149356204Y-100477669D01*
X149305908Y-100612518D01*
X149299500Y-100672123D01*
X149299500Y-102367865D01*
X149299501Y-102367869D01*
X149305908Y-102427480D01*
X149305909Y-102427484D01*
X149356203Y-102562329D01*
X149356204Y-102562331D01*
X149442454Y-102677546D01*
X149557669Y-102763796D01*
X149558337Y-102764045D01*
X149559953Y-102765043D01*
X149573298Y-102772330D01*
X149572907Y-102773044D01*
X149640991Y-102815097D01*
X149697820Y-102893898D01*
X149720168Y-102988448D01*
X149704632Y-103084352D01*
X149653577Y-103167011D01*
X149647398Y-103173415D01*
X149599952Y-103220861D01*
X149469436Y-103407258D01*
X149469428Y-103407272D01*
X149373262Y-103613500D01*
X149373262Y-103613501D01*
X149373261Y-103613504D01*
X149370828Y-103622584D01*
X149314365Y-103833305D01*
X149314363Y-103833320D01*
X149294532Y-104059994D01*
X149294532Y-104060005D01*
X149314363Y-104286679D01*
X149314365Y-104286694D01*
X149373261Y-104506496D01*
X149373262Y-104506499D01*
X149469428Y-104712727D01*
X149469436Y-104712741D01*
X149599949Y-104899134D01*
X149599953Y-104899139D01*
X149760861Y-105060047D01*
X149760864Y-105060049D01*
X149760865Y-105060050D01*
X149855096Y-105126031D01*
X149922280Y-105196212D01*
X149957493Y-105286761D01*
X149955374Y-105383893D01*
X149916245Y-105472820D01*
X149855096Y-105533969D01*
X149760865Y-105599949D01*
X149599949Y-105760865D01*
X149469436Y-105947258D01*
X149469428Y-105947272D01*
X149373262Y-106153500D01*
X149373261Y-106153503D01*
X149314365Y-106373305D01*
X149314363Y-106373320D01*
X149294532Y-106599994D01*
X149294532Y-106600005D01*
X149314363Y-106826685D01*
X149314365Y-106826694D01*
X149321474Y-106853227D01*
X149327826Y-106950174D01*
X149296594Y-107042172D01*
X149257027Y-107093735D01*
X148831286Y-107519477D01*
X148831286Y-107519478D01*
X148831284Y-107519480D01*
X148831283Y-107519479D01*
X148719480Y-107631283D01*
X148719477Y-107631287D01*
X148699419Y-107666031D01*
X148678669Y-107701972D01*
X148662159Y-107730568D01*
X148640423Y-107768214D01*
X148599499Y-107920943D01*
X148599499Y-108099122D01*
X148599500Y-108099135D01*
X148599500Y-108833811D01*
X148580546Y-108929099D01*
X148526570Y-109009881D01*
X148345570Y-109190881D01*
X148264788Y-109244857D01*
X148169500Y-109263811D01*
X148074212Y-109244857D01*
X147993430Y-109190881D01*
X147939454Y-109110099D01*
X147920500Y-109014811D01*
X147920500Y-105597561D01*
X147939454Y-105502273D01*
X147993430Y-105421491D01*
X148007407Y-105407513D01*
X148007409Y-105407513D01*
X148119213Y-105295709D01*
X148181871Y-105187181D01*
X148194407Y-105165469D01*
X148194408Y-105165464D01*
X148198270Y-105158778D01*
X148239194Y-105006050D01*
X148239194Y-104847936D01*
X148239194Y-104832676D01*
X148239193Y-104832658D01*
X148239193Y-100011024D01*
X148258147Y-99915736D01*
X148312120Y-99834956D01*
X160786489Y-87360587D01*
X160867268Y-87306614D01*
X160962556Y-87287660D01*
X161057844Y-87306614D01*
X161138626Y-87360590D01*
X161192602Y-87441372D01*
X161211556Y-87536660D01*
X161210608Y-87558362D01*
X161204341Y-87629994D01*
X161204341Y-87630005D01*
X161224935Y-87865401D01*
X161271821Y-88040386D01*
X161286097Y-88093663D01*
X161358744Y-88249454D01*
X161385965Y-88307830D01*
X161496654Y-88465911D01*
X161521505Y-88501401D01*
X161688599Y-88668495D01*
X161727925Y-88696031D01*
X161795107Y-88766209D01*
X161830321Y-88856758D01*
X161828202Y-88953890D01*
X161789074Y-89042818D01*
X161727928Y-89103965D01*
X161688603Y-89131501D01*
X161521504Y-89298600D01*
X161385965Y-89492169D01*
X161385961Y-89492177D01*
X161286098Y-89706333D01*
X161286097Y-89706335D01*
X161224935Y-89934598D01*
X161204341Y-90169994D01*
X161204341Y-90170005D01*
X161224935Y-90405401D01*
X161267983Y-90566062D01*
X161286097Y-90633663D01*
X161339573Y-90748342D01*
X161385965Y-90847830D01*
X161449320Y-90938311D01*
X161521505Y-91041401D01*
X161688599Y-91208495D01*
X161882170Y-91344035D01*
X162096337Y-91443903D01*
X162324592Y-91505063D01*
X162324595Y-91505063D01*
X162324598Y-91505064D01*
X162559995Y-91525659D01*
X162560000Y-91525659D01*
X162560005Y-91525659D01*
X162795401Y-91505064D01*
X162795403Y-91505063D01*
X162795408Y-91505063D01*
X163023663Y-91443903D01*
X163237830Y-91344035D01*
X163431401Y-91208495D01*
X163598495Y-91041401D01*
X163734035Y-90847830D01*
X163833903Y-90633663D01*
X163895063Y-90405408D01*
X163895831Y-90396633D01*
X163915659Y-90170005D01*
X163915659Y-90169994D01*
X163895064Y-89934598D01*
X163895063Y-89934595D01*
X163895063Y-89934592D01*
X163833903Y-89706337D01*
X163734035Y-89492171D01*
X163598495Y-89298599D01*
X163431401Y-89131505D01*
X163392074Y-89103967D01*
X163324891Y-89033789D01*
X163289678Y-88943240D01*
X163291797Y-88846108D01*
X163330925Y-88757181D01*
X163392073Y-88696032D01*
X163431401Y-88668495D01*
X163598495Y-88501401D01*
X163734035Y-88307830D01*
X163833903Y-88093663D01*
X163895063Y-87865408D01*
X163895831Y-87856633D01*
X163915659Y-87630005D01*
X163915659Y-87629994D01*
X163895064Y-87394598D01*
X163895063Y-87394595D01*
X163895063Y-87394592D01*
X163833903Y-87166337D01*
X163734035Y-86952171D01*
X163724437Y-86938464D01*
X163683858Y-86880510D01*
X163598495Y-86758599D01*
X163431401Y-86591505D01*
X163392074Y-86563967D01*
X163324891Y-86493789D01*
X163289678Y-86403240D01*
X163291797Y-86306108D01*
X163330925Y-86217181D01*
X163392073Y-86156032D01*
X163431401Y-86128495D01*
X163598495Y-85961401D01*
X163734035Y-85767830D01*
X163833903Y-85553663D01*
X163895063Y-85325408D01*
X163895472Y-85320737D01*
X163915659Y-85090005D01*
X163915659Y-85089994D01*
X163895064Y-84854598D01*
X163895063Y-84854595D01*
X163895063Y-84854592D01*
X163833903Y-84626337D01*
X163734035Y-84412171D01*
X163721830Y-84394741D01*
X163682702Y-84305816D01*
X163680582Y-84208684D01*
X163715793Y-84118134D01*
X163749727Y-84075852D01*
X164190520Y-83635062D01*
X164269577Y-83498130D01*
X164310501Y-83345403D01*
X164310501Y-83187288D01*
X164310501Y-83172028D01*
X164310500Y-83172010D01*
X164310500Y-81259136D01*
X164310501Y-81259123D01*
X164310501Y-81080943D01*
X164301806Y-81048495D01*
X164269577Y-80928216D01*
X164190520Y-80791284D01*
X164087066Y-80687830D01*
X163943796Y-80544559D01*
X163889820Y-80463778D01*
X163870866Y-80368490D01*
X163879349Y-80304050D01*
X163895063Y-80245408D01*
X163915659Y-80010000D01*
X163915659Y-80009994D01*
X163895064Y-79774598D01*
X163895063Y-79774595D01*
X163895063Y-79774592D01*
X163833903Y-79546337D01*
X163734035Y-79332171D01*
X163710890Y-79299117D01*
X163633376Y-79188415D01*
X163598495Y-79138599D01*
X163431401Y-78971505D01*
X163370573Y-78928913D01*
X163237830Y-78835965D01*
X163126215Y-78783918D01*
X163023663Y-78736097D01*
X163023660Y-78736096D01*
X162795401Y-78674935D01*
X162560005Y-78654341D01*
X162559995Y-78654341D01*
X162324598Y-78674935D01*
X162096335Y-78736097D01*
X162096333Y-78736098D01*
X161882177Y-78835961D01*
X161882169Y-78835965D01*
X161688600Y-78971504D01*
X161521504Y-79138600D01*
X161385965Y-79332169D01*
X161385961Y-79332177D01*
X161286098Y-79546333D01*
X161286097Y-79546335D01*
X161224935Y-79774598D01*
X161204341Y-80009994D01*
X161204341Y-80010005D01*
X161224935Y-80245401D01*
X161284828Y-80468929D01*
X161286097Y-80473663D01*
X161321559Y-80549711D01*
X161385965Y-80687830D01*
X161496654Y-80845911D01*
X161521505Y-80881401D01*
X161688599Y-81048495D01*
X161727925Y-81076031D01*
X161795107Y-81146209D01*
X161830321Y-81236758D01*
X161828202Y-81333890D01*
X161789074Y-81422818D01*
X161727928Y-81483965D01*
X161688603Y-81511501D01*
X161521504Y-81678600D01*
X161385965Y-81872169D01*
X161385961Y-81872177D01*
X161286098Y-82086333D01*
X161286097Y-82086335D01*
X161224935Y-82314598D01*
X161204341Y-82549994D01*
X161204341Y-82550005D01*
X161224935Y-82785401D01*
X161224936Y-82785404D01*
X161240649Y-82844046D01*
X161247003Y-82940993D01*
X161215773Y-83032991D01*
X161176203Y-83084559D01*
X160641286Y-83619477D01*
X160641286Y-83619478D01*
X160641284Y-83619480D01*
X160641283Y-83619479D01*
X160529480Y-83731282D01*
X160503226Y-83776758D01*
X160480514Y-83816096D01*
X160480513Y-83816098D01*
X160450423Y-83868211D01*
X160450423Y-83868212D01*
X160409499Y-84020943D01*
X160409499Y-84199122D01*
X160409500Y-84199135D01*
X160409500Y-85370281D01*
X160390546Y-85465569D01*
X160336570Y-85546351D01*
X150926011Y-94956909D01*
X150880375Y-94987401D01*
X150836909Y-95046011D01*
X147541123Y-98341797D01*
X147460341Y-98395773D01*
X147365053Y-98414727D01*
X147269765Y-98395773D01*
X147188983Y-98341797D01*
X147161084Y-98308548D01*
X147107819Y-98232478D01*
X147050469Y-98150573D01*
X146883375Y-97983479D01*
X146689804Y-97847939D01*
X146475637Y-97748071D01*
X146475634Y-97748070D01*
X146247375Y-97686909D01*
X146011979Y-97666315D01*
X146011978Y-97666315D01*
X146011975Y-97666315D01*
X146011974Y-97666315D01*
X145948323Y-97671883D01*
X145857026Y-97679871D01*
X145760448Y-97669293D01*
X145675270Y-97622562D01*
X145659255Y-97607888D01*
X139395401Y-91344034D01*
X133132298Y-85080930D01*
X133078324Y-85000151D01*
X133059370Y-84904863D01*
X133078324Y-84809575D01*
X133125173Y-84736222D01*
X133180269Y-84676373D01*
X133306217Y-84483595D01*
X133343559Y-84398464D01*
X133398712Y-84272728D01*
X133398712Y-84272726D01*
X133398717Y-84272716D01*
X133455246Y-84049488D01*
X133474262Y-83820000D01*
X133455246Y-83590512D01*
X133398717Y-83367284D01*
X133398712Y-83367274D01*
X133398712Y-83367271D01*
X133306223Y-83156418D01*
X133306221Y-83156414D01*
X133306217Y-83156405D01*
X133223074Y-83029145D01*
X133180274Y-82963633D01*
X133180268Y-82963626D01*
X133151337Y-82932199D01*
X133024308Y-82794208D01*
X132842589Y-82652771D01*
X132640069Y-82543172D01*
X132640067Y-82543171D01*
X132422278Y-82468403D01*
X132422268Y-82468401D01*
X132195137Y-82430500D01*
X131964863Y-82430500D01*
X131737731Y-82468401D01*
X131737721Y-82468403D01*
X131519932Y-82543171D01*
X131519931Y-82543172D01*
X131317412Y-82652770D01*
X131317405Y-82652775D01*
X131135696Y-82794204D01*
X131068631Y-82867056D01*
X130990149Y-82924324D01*
X130895725Y-82947199D01*
X130799735Y-82932199D01*
X130716792Y-82881607D01*
X130702241Y-82867055D01*
X130559751Y-82712269D01*
X130559746Y-82712264D01*
X130559744Y-82712262D01*
X130559738Y-82712257D01*
X130363514Y-82559529D01*
X130363510Y-82559526D01*
X130363509Y-82559526D01*
X130286502Y-82517852D01*
X130144811Y-82441172D01*
X129909621Y-82360430D01*
X129909610Y-82360428D01*
X129664335Y-82319500D01*
X129415665Y-82319500D01*
X129170389Y-82360428D01*
X129170378Y-82360430D01*
X128935188Y-82441172D01*
X128716485Y-82559529D01*
X128520261Y-82712257D01*
X128520248Y-82712269D01*
X128351836Y-82895214D01*
X128351830Y-82895221D01*
X128215828Y-83103391D01*
X128215825Y-83103396D01*
X128115936Y-83331121D01*
X128115935Y-83331125D01*
X128054894Y-83572168D01*
X128054892Y-83572176D01*
X128034357Y-83820000D01*
X128054892Y-84067823D01*
X128054894Y-84067831D01*
X128107195Y-84274361D01*
X128115937Y-84308881D01*
X128148790Y-84383779D01*
X128215825Y-84536603D01*
X128215828Y-84536608D01*
X128254896Y-84596407D01*
X128291146Y-84686547D01*
X128290141Y-84783696D01*
X128252035Y-84873067D01*
X128182630Y-84941051D01*
X128092490Y-84977301D01*
X128068144Y-84980648D01*
X127996572Y-84986909D01*
X127768309Y-85048071D01*
X127768307Y-85048072D01*
X127554151Y-85147935D01*
X127554143Y-85147939D01*
X127360574Y-85283478D01*
X127193478Y-85450574D01*
X127057939Y-85644143D01*
X127057935Y-85644151D01*
X126958072Y-85858307D01*
X126958071Y-85858309D01*
X126896909Y-86086572D01*
X126876315Y-86321968D01*
X126876315Y-86321979D01*
X126896909Y-86557375D01*
X126950826Y-86758600D01*
X126958071Y-86785637D01*
X127020315Y-86919120D01*
X127057939Y-86999804D01*
X127168628Y-87157885D01*
X127193479Y-87193375D01*
X127360573Y-87360469D01*
X127399899Y-87388005D01*
X127467081Y-87458183D01*
X127502295Y-87548732D01*
X127500176Y-87645864D01*
X127461048Y-87734792D01*
X127399902Y-87795939D01*
X127360577Y-87823475D01*
X127360573Y-87823478D01*
X127360573Y-87823479D01*
X127193479Y-87990573D01*
X127158600Y-88040386D01*
X127057939Y-88184143D01*
X127057935Y-88184151D01*
X126958072Y-88398307D01*
X126958071Y-88398309D01*
X126896909Y-88626572D01*
X126876315Y-88861968D01*
X126876315Y-88861979D01*
X126896909Y-89097375D01*
X126958070Y-89325634D01*
X127057939Y-89539804D01*
X127168628Y-89697885D01*
X127193479Y-89733375D01*
X127360573Y-89900469D01*
X127399899Y-89928005D01*
X127467081Y-89998183D01*
X127502295Y-90088732D01*
X127500176Y-90185864D01*
X127461048Y-90274792D01*
X127399902Y-90335939D01*
X127360577Y-90363475D01*
X127193478Y-90530574D01*
X127057939Y-90724143D01*
X127057935Y-90724151D01*
X126958072Y-90938307D01*
X126958071Y-90938309D01*
X126896909Y-91166572D01*
X126876315Y-91401968D01*
X126876315Y-91401979D01*
X126896909Y-91637375D01*
X126958070Y-91865634D01*
X127057939Y-92079804D01*
X127168628Y-92237885D01*
X127193479Y-92273375D01*
X127360573Y-92440469D01*
X127399899Y-92468005D01*
X127467081Y-92538183D01*
X127502295Y-92628732D01*
X127500176Y-92725864D01*
X127461048Y-92814792D01*
X127399902Y-92875939D01*
X127360577Y-92903475D01*
X127193478Y-93070574D01*
X127057939Y-93264143D01*
X127057935Y-93264151D01*
X126958072Y-93478307D01*
X126958071Y-93478309D01*
X126896909Y-93706572D01*
X126876315Y-93941968D01*
X126876315Y-93941979D01*
X126896909Y-94177375D01*
X126958070Y-94405634D01*
X127057939Y-94619804D01*
X127168628Y-94777885D01*
X127193479Y-94813375D01*
X127360573Y-94980469D01*
X127554144Y-95116009D01*
X127768311Y-95215877D01*
X127996566Y-95277037D01*
X127996569Y-95277037D01*
X127996572Y-95277038D01*
X128231969Y-95297633D01*
X128231974Y-95297633D01*
X128231979Y-95297633D01*
X128467375Y-95277038D01*
X128467377Y-95277037D01*
X128467382Y-95277037D01*
X128695637Y-95215877D01*
X128909804Y-95116009D01*
X129103375Y-94980469D01*
X129270469Y-94813375D01*
X129406009Y-94619804D01*
X129505877Y-94405637D01*
X129567037Y-94177382D01*
X129567038Y-94177375D01*
X129587633Y-93941979D01*
X129587633Y-93941968D01*
X129567038Y-93706572D01*
X129567037Y-93706569D01*
X129567037Y-93706566D01*
X129505877Y-93478311D01*
X129406009Y-93264145D01*
X129382864Y-93231091D01*
X129315548Y-93134953D01*
X129270469Y-93070573D01*
X129103375Y-92903479D01*
X129064048Y-92875941D01*
X128996865Y-92805763D01*
X128961652Y-92715214D01*
X128963771Y-92618082D01*
X129002899Y-92529155D01*
X129064047Y-92468006D01*
X129103375Y-92440469D01*
X129270469Y-92273375D01*
X129406009Y-92079804D01*
X129505877Y-91865637D01*
X129567037Y-91637382D01*
X129567038Y-91637375D01*
X129587633Y-91401979D01*
X129587633Y-91401968D01*
X129567038Y-91166572D01*
X129567037Y-91166569D01*
X129567037Y-91166566D01*
X129505877Y-90938311D01*
X129406009Y-90724145D01*
X129382864Y-90691091D01*
X129315548Y-90594953D01*
X129270469Y-90530573D01*
X129103375Y-90363479D01*
X129064048Y-90335941D01*
X128996865Y-90265763D01*
X128961652Y-90175214D01*
X128963771Y-90078082D01*
X129002899Y-89989155D01*
X129064047Y-89928006D01*
X129103375Y-89900469D01*
X129270469Y-89733375D01*
X129406009Y-89539804D01*
X129505877Y-89325637D01*
X129567037Y-89097382D01*
X129567038Y-89097375D01*
X129587633Y-88861979D01*
X129587633Y-88861968D01*
X129567038Y-88626572D01*
X129567037Y-88626569D01*
X129567037Y-88626566D01*
X129505877Y-88398311D01*
X129406009Y-88184145D01*
X129382864Y-88151091D01*
X129305348Y-88040386D01*
X129270469Y-87990573D01*
X129103375Y-87823479D01*
X129064048Y-87795941D01*
X128996865Y-87725763D01*
X128961652Y-87635214D01*
X128963771Y-87538082D01*
X129002899Y-87449155D01*
X129064047Y-87388006D01*
X129103375Y-87360469D01*
X129270469Y-87193375D01*
X129406009Y-86999804D01*
X129505877Y-86785637D01*
X129567037Y-86557382D01*
X129567038Y-86557375D01*
X129587633Y-86321979D01*
X129587633Y-86321968D01*
X129567038Y-86086572D01*
X129567037Y-86086569D01*
X129567037Y-86086566D01*
X129505877Y-85858311D01*
X129420271Y-85674731D01*
X129397180Y-85580361D01*
X129411959Y-85484337D01*
X129462361Y-85401278D01*
X129540711Y-85343829D01*
X129635082Y-85320737D01*
X129645943Y-85320500D01*
X129664335Y-85320500D01*
X129909614Y-85279571D01*
X129909618Y-85279569D01*
X129909621Y-85279569D01*
X130052031Y-85230679D01*
X130144810Y-85198828D01*
X130363509Y-85080474D01*
X130559744Y-84927738D01*
X130702242Y-84772942D01*
X130780722Y-84715676D01*
X130875145Y-84692800D01*
X130971135Y-84707799D01*
X131054078Y-84758391D01*
X131068616Y-84772928D01*
X131135690Y-84845790D01*
X131135695Y-84845795D01*
X131170735Y-84873067D01*
X131233439Y-84921871D01*
X131296992Y-84995354D01*
X131327588Y-85087566D01*
X131329500Y-85118367D01*
X131329500Y-85163920D01*
X131358341Y-85308911D01*
X131358342Y-85308914D01*
X131414912Y-85445487D01*
X131414916Y-85445495D01*
X131423750Y-85458716D01*
X131423751Y-85458718D01*
X131497046Y-85568414D01*
X131497047Y-85568415D01*
X131497048Y-85568416D01*
X138084889Y-92156257D01*
X144597888Y-98669255D01*
X144651864Y-98750037D01*
X144670818Y-98845325D01*
X144669871Y-98867026D01*
X144662506Y-98951215D01*
X144659155Y-98989521D01*
X144656315Y-99021978D01*
X144656315Y-99021979D01*
X144676909Y-99257375D01*
X144725847Y-99440018D01*
X144738071Y-99485637D01*
X144837939Y-99699804D01*
X144973479Y-99893375D01*
X145140573Y-100060469D01*
X145334144Y-100196009D01*
X145548311Y-100295877D01*
X145776566Y-100357037D01*
X145776569Y-100357037D01*
X145776572Y-100357038D01*
X146011969Y-100377633D01*
X146011974Y-100377633D01*
X146011979Y-100377633D01*
X146247375Y-100357038D01*
X146247376Y-100357037D01*
X146247382Y-100357037D01*
X146324748Y-100336306D01*
X146421694Y-100329952D01*
X146513693Y-100361182D01*
X146586738Y-100425240D01*
X146629708Y-100512376D01*
X146638193Y-100576822D01*
X146638193Y-102789805D01*
X146619239Y-102885093D01*
X146565263Y-102965875D01*
X146484481Y-103019851D01*
X146389193Y-103038805D01*
X146293905Y-103019851D01*
X146213123Y-102965875D01*
X146195787Y-102946475D01*
X146194817Y-102945431D01*
X146194813Y-102945425D01*
X146194807Y-102945419D01*
X146194802Y-102945414D01*
X146002487Y-102766973D01*
X145785715Y-102619179D01*
X145785710Y-102619177D01*
X145549339Y-102505346D01*
X145549334Y-102505344D01*
X145549331Y-102505343D01*
X145298623Y-102428010D01*
X145039190Y-102388906D01*
X144776826Y-102388906D01*
X144569279Y-102420189D01*
X144517392Y-102428010D01*
X144372115Y-102472822D01*
X144266685Y-102505343D01*
X144266683Y-102505343D01*
X144266676Y-102505346D01*
X144030305Y-102619177D01*
X144030300Y-102619179D01*
X143813528Y-102766973D01*
X143621213Y-102945414D01*
X143621202Y-102945425D01*
X143457620Y-103150550D01*
X143326444Y-103377754D01*
X143326436Y-103377770D01*
X143230586Y-103621993D01*
X143172206Y-103877776D01*
X143172205Y-103877780D01*
X143152600Y-104139406D01*
X143172205Y-104401031D01*
X143172205Y-104401034D01*
X143172206Y-104401036D01*
X143172342Y-104401630D01*
X143230586Y-104656818D01*
X143326436Y-104901041D01*
X143326444Y-104901057D01*
X143457620Y-105128261D01*
X143621202Y-105333386D01*
X143621213Y-105333397D01*
X143742704Y-105446123D01*
X143813529Y-105511839D01*
X143845988Y-105533969D01*
X143979163Y-105624767D01*
X144047216Y-105694105D01*
X144083555Y-105784208D01*
X144082647Y-105881359D01*
X144044629Y-105970767D01*
X143975291Y-106038820D01*
X143885188Y-106075159D01*
X143838896Y-106079500D01*
X136978699Y-106079500D01*
X136978683Y-106079499D01*
X136963422Y-106079499D01*
X136805308Y-106079499D01*
X136764385Y-106090464D01*
X136652581Y-106120422D01*
X136619916Y-106139282D01*
X136619915Y-106139282D01*
X136515651Y-106199478D01*
X136515645Y-106199483D01*
X136403844Y-106311283D01*
X136403845Y-106311284D01*
X134510997Y-108204132D01*
X134430215Y-108258108D01*
X134334927Y-108277062D01*
X134239639Y-108258108D01*
X134192107Y-108232031D01*
X134002741Y-108099436D01*
X134002727Y-108099428D01*
X133796499Y-108003262D01*
X133796496Y-108003261D01*
X133576694Y-107944365D01*
X133576679Y-107944363D01*
X133350006Y-107924532D01*
X133349994Y-107924532D01*
X133123314Y-107944363D01*
X133123308Y-107944365D01*
X133096776Y-107951474D01*
X132999829Y-107957827D01*
X132907831Y-107926597D01*
X132856263Y-107887028D01*
X132730521Y-107761286D01*
X132730520Y-107761284D01*
X132618716Y-107649480D01*
X132551226Y-107610514D01*
X132501820Y-107581990D01*
X132501820Y-107581989D01*
X132501817Y-107581988D01*
X132481787Y-107570423D01*
X132379966Y-107543140D01*
X132329057Y-107529499D01*
X132170943Y-107529499D01*
X132155682Y-107529499D01*
X132155666Y-107529500D01*
X128087561Y-107529500D01*
X127992273Y-107510546D01*
X127911492Y-107456570D01*
X127304401Y-106849480D01*
X127304399Y-106849479D01*
X127167472Y-106770424D01*
X127167467Y-106770422D01*
X127070644Y-106744478D01*
X127014742Y-106729499D01*
X127014741Y-106729499D01*
X126856626Y-106729500D01*
X126047561Y-106729500D01*
X125952273Y-106710546D01*
X125871491Y-106656570D01*
X123354921Y-104140000D01*
X127784592Y-104140000D01*
X127804197Y-104401625D01*
X127804198Y-104401629D01*
X127862578Y-104657412D01*
X127958428Y-104901635D01*
X127958436Y-104901651D01*
X128089612Y-105128855D01*
X128253194Y-105333980D01*
X128253205Y-105333991D01*
X128393095Y-105463789D01*
X128445521Y-105512433D01*
X128477110Y-105533970D01*
X128662292Y-105660226D01*
X128662294Y-105660227D01*
X128662296Y-105660228D01*
X128801838Y-105727428D01*
X128898668Y-105774059D01*
X128898669Y-105774059D01*
X128898677Y-105774063D01*
X129149385Y-105851396D01*
X129408818Y-105890500D01*
X129408822Y-105890500D01*
X129671178Y-105890500D01*
X129671182Y-105890500D01*
X129930615Y-105851396D01*
X130181323Y-105774063D01*
X130417704Y-105660228D01*
X130634479Y-105512433D01*
X130826805Y-105333981D01*
X130990386Y-105128857D01*
X131121568Y-104901643D01*
X131217420Y-104657416D01*
X131217557Y-104656818D01*
X131229689Y-104603663D01*
X131275802Y-104401630D01*
X131295408Y-104140000D01*
X131275802Y-103878370D01*
X131217420Y-103622584D01*
X131155465Y-103464724D01*
X131121571Y-103378364D01*
X131121569Y-103378361D01*
X131121568Y-103378357D01*
X131077066Y-103301277D01*
X130990387Y-103151144D01*
X130826805Y-102946019D01*
X130826794Y-102946008D01*
X130634479Y-102767567D01*
X130417707Y-102619773D01*
X130417702Y-102619771D01*
X130181331Y-102505940D01*
X130181326Y-102505938D01*
X130181323Y-102505937D01*
X129930615Y-102428604D01*
X129671182Y-102389500D01*
X129408818Y-102389500D01*
X129201271Y-102420783D01*
X129149384Y-102428604D01*
X129004107Y-102473416D01*
X128898677Y-102505937D01*
X128898675Y-102505937D01*
X128898668Y-102505940D01*
X128662297Y-102619771D01*
X128662292Y-102619773D01*
X128445520Y-102767567D01*
X128253205Y-102946008D01*
X128253194Y-102946019D01*
X128089612Y-103151144D01*
X127958436Y-103378348D01*
X127958428Y-103378364D01*
X127862578Y-103622587D01*
X127804198Y-103878370D01*
X127804197Y-103878374D01*
X127784592Y-104140000D01*
X123354921Y-104140000D01*
X118166136Y-98951215D01*
X118112160Y-98870433D01*
X118093206Y-98775145D01*
X118094772Y-98747266D01*
X118105565Y-98651474D01*
X118105565Y-98651468D01*
X118085369Y-98472226D01*
X118085368Y-98472217D01*
X118025789Y-98301950D01*
X118025786Y-98301945D01*
X118025785Y-98301942D01*
X117929819Y-98149214D01*
X117929817Y-98149212D01*
X117929816Y-98149210D01*
X117802262Y-98021656D01*
X117802259Y-98021654D01*
X117802257Y-98021652D01*
X117649529Y-97925686D01*
X117649524Y-97925684D01*
X117649522Y-97925683D01*
X117479255Y-97866104D01*
X117479251Y-97866103D01*
X117479245Y-97866102D01*
X117300004Y-97845907D01*
X117299996Y-97845907D01*
X117120754Y-97866102D01*
X117120744Y-97866104D01*
X116968402Y-97919410D01*
X116872201Y-97932990D01*
X116803925Y-97915385D01*
X116802720Y-97918829D01*
X116789524Y-97914211D01*
X116789522Y-97914210D01*
X116619255Y-97854631D01*
X116619251Y-97854630D01*
X116619245Y-97854629D01*
X116440004Y-97834434D01*
X116439996Y-97834434D01*
X116260754Y-97854629D01*
X116260746Y-97854630D01*
X116260745Y-97854631D01*
X116090478Y-97914210D01*
X116090476Y-97914210D01*
X116090476Y-97914211D01*
X116090470Y-97914213D01*
X115937742Y-98010179D01*
X115810180Y-98137741D01*
X115714214Y-98290469D01*
X115714211Y-98290475D01*
X115714211Y-98290477D01*
X115677367Y-98395773D01*
X115654632Y-98460745D01*
X115654630Y-98460753D01*
X115634435Y-98639995D01*
X115634435Y-98640002D01*
X115654630Y-98819244D01*
X115654631Y-98819250D01*
X115654632Y-98819254D01*
X115714211Y-98989521D01*
X115714212Y-98989522D01*
X115714214Y-98989528D01*
X115810180Y-99142256D01*
X115810182Y-99142258D01*
X115810184Y-99142261D01*
X115937738Y-99269815D01*
X115937740Y-99269816D01*
X115937742Y-99269818D01*
X116090470Y-99365784D01*
X116090473Y-99365785D01*
X116090478Y-99365788D01*
X116260745Y-99425367D01*
X116304201Y-99430263D01*
X116396765Y-99459764D01*
X116452393Y-99501627D01*
X117255196Y-100304430D01*
X117309172Y-100385212D01*
X117328126Y-100480500D01*
X117309172Y-100575788D01*
X117255196Y-100656570D01*
X117174414Y-100710546D01*
X117079126Y-100729500D01*
X113788026Y-100729500D01*
X113692738Y-100710546D01*
X113611956Y-100656570D01*
X113557980Y-100575788D01*
X113539026Y-100480500D01*
X113539876Y-100459938D01*
X113542751Y-100425240D01*
X113550643Y-100330000D01*
X113530108Y-100082179D01*
X113469063Y-99841119D01*
X113369173Y-99613393D01*
X113296153Y-99501627D01*
X113233169Y-99405221D01*
X113233163Y-99405214D01*
X113064751Y-99222269D01*
X113064746Y-99222264D01*
X113064744Y-99222262D01*
X113055964Y-99215428D01*
X112868514Y-99069529D01*
X112868510Y-99069526D01*
X112868509Y-99069526D01*
X112720673Y-98989521D01*
X112649811Y-98951172D01*
X112414621Y-98870430D01*
X112414610Y-98870428D01*
X112169335Y-98829500D01*
X111920665Y-98829500D01*
X111675389Y-98870428D01*
X111675378Y-98870430D01*
X111440188Y-98951172D01*
X111221485Y-99069529D01*
X111025261Y-99222257D01*
X111025254Y-99222264D01*
X111011755Y-99236927D01*
X110981481Y-99269815D01*
X110972695Y-99279359D01*
X110894213Y-99336627D01*
X110799789Y-99359502D01*
X110703799Y-99344502D01*
X110620856Y-99293910D01*
X110563588Y-99215428D01*
X110540713Y-99121004D01*
X110540500Y-99110715D01*
X110540500Y-90673007D01*
X110559454Y-90577719D01*
X110613430Y-90496937D01*
X110694212Y-90442961D01*
X110789500Y-90424007D01*
X110884788Y-90442961D01*
X110965566Y-90496934D01*
X112521584Y-92052952D01*
X112561772Y-92079804D01*
X112644505Y-92135084D01*
X112781087Y-92191658D01*
X112926080Y-92220499D01*
X112926081Y-92220500D01*
X112926082Y-92220500D01*
X112926083Y-92220500D01*
X113073917Y-92220500D01*
X117725992Y-92220500D01*
X117821280Y-92239454D01*
X117902062Y-92293430D01*
X125213558Y-99604926D01*
X125226227Y-99613391D01*
X125258436Y-99634912D01*
X125287244Y-99654160D01*
X125336479Y-99687058D01*
X125473061Y-99743632D01*
X125618054Y-99772473D01*
X125618055Y-99772474D01*
X125618056Y-99772474D01*
X125618057Y-99772474D01*
X125765891Y-99772474D01*
X126979202Y-99772474D01*
X127074490Y-99791428D01*
X127155272Y-99845404D01*
X127183168Y-99878650D01*
X127193479Y-99893375D01*
X127360573Y-100060469D01*
X127554144Y-100196009D01*
X127768311Y-100295877D01*
X127996566Y-100357037D01*
X127996569Y-100357037D01*
X127996572Y-100357038D01*
X128231969Y-100377633D01*
X128231974Y-100377633D01*
X128231979Y-100377633D01*
X128467375Y-100357038D01*
X128467377Y-100357037D01*
X128467382Y-100357037D01*
X128695637Y-100295877D01*
X128909804Y-100196009D01*
X129103375Y-100060469D01*
X129270469Y-99893375D01*
X129406009Y-99699804D01*
X129505877Y-99485637D01*
X129567037Y-99257382D01*
X129570109Y-99222269D01*
X129587633Y-99021979D01*
X129587633Y-99021968D01*
X129567038Y-98786572D01*
X129567037Y-98786569D01*
X129567037Y-98786566D01*
X129505877Y-98558311D01*
X129406009Y-98344145D01*
X129376462Y-98301948D01*
X129327819Y-98232478D01*
X129270469Y-98150573D01*
X129103375Y-97983479D01*
X128909804Y-97847939D01*
X128695637Y-97748071D01*
X128695634Y-97748070D01*
X128467375Y-97686909D01*
X128231979Y-97666315D01*
X128231969Y-97666315D01*
X127996572Y-97686909D01*
X127768309Y-97748071D01*
X127768307Y-97748072D01*
X127554151Y-97847935D01*
X127554143Y-97847939D01*
X127360574Y-97983478D01*
X127193475Y-98150577D01*
X127183171Y-98165294D01*
X127112990Y-98232478D01*
X127022441Y-98267691D01*
X126979202Y-98271474D01*
X126105982Y-98271474D01*
X126010694Y-98252520D01*
X125929912Y-98198544D01*
X122351172Y-94619804D01*
X121673342Y-93941974D01*
X123416633Y-93941974D01*
X123435949Y-94138105D01*
X123493159Y-94326699D01*
X123493162Y-94326707D01*
X123586062Y-94500510D01*
X123586064Y-94500512D01*
X123711091Y-94652857D01*
X123820844Y-94742929D01*
X123863437Y-94777885D01*
X124037240Y-94870785D01*
X124037244Y-94870786D01*
X124037247Y-94870788D01*
X124225842Y-94927998D01*
X124421974Y-94947315D01*
X124618106Y-94927998D01*
X124806701Y-94870788D01*
X124980512Y-94777884D01*
X125132857Y-94652857D01*
X125257884Y-94500512D01*
X125350788Y-94326701D01*
X125407998Y-94138106D01*
X125427315Y-93941974D01*
X125407998Y-93745842D01*
X125350788Y-93557247D01*
X125350786Y-93557244D01*
X125350785Y-93557240D01*
X125257885Y-93383437D01*
X125222929Y-93340844D01*
X125132857Y-93231091D01*
X124980512Y-93106064D01*
X124980513Y-93106064D01*
X124980510Y-93106062D01*
X124806707Y-93013162D01*
X124806699Y-93013159D01*
X124618105Y-92955949D01*
X124421974Y-92936633D01*
X124225842Y-92955949D01*
X124037248Y-93013159D01*
X124037240Y-93013162D01*
X123863437Y-93106062D01*
X123711094Y-93231088D01*
X123711088Y-93231094D01*
X123586062Y-93383437D01*
X123493162Y-93557240D01*
X123493159Y-93557248D01*
X123435949Y-93745842D01*
X123416633Y-93941974D01*
X121673342Y-93941974D01*
X119133342Y-91401974D01*
X123416633Y-91401974D01*
X123435949Y-91598105D01*
X123493159Y-91786699D01*
X123493162Y-91786707D01*
X123586062Y-91960510D01*
X123586064Y-91960512D01*
X123711091Y-92112857D01*
X123807110Y-92191658D01*
X123863437Y-92237885D01*
X124037240Y-92330785D01*
X124037244Y-92330786D01*
X124037247Y-92330788D01*
X124225842Y-92387998D01*
X124421974Y-92407315D01*
X124618106Y-92387998D01*
X124806701Y-92330788D01*
X124980512Y-92237884D01*
X125132857Y-92112857D01*
X125257884Y-91960512D01*
X125350788Y-91786701D01*
X125407998Y-91598106D01*
X125427315Y-91401974D01*
X125407998Y-91205842D01*
X125350788Y-91017247D01*
X125350786Y-91017244D01*
X125350785Y-91017240D01*
X125257885Y-90843437D01*
X125179841Y-90748341D01*
X125132857Y-90691091D01*
X124980512Y-90566064D01*
X124980513Y-90566064D01*
X124980510Y-90566062D01*
X124806707Y-90473162D01*
X124806699Y-90473159D01*
X124618105Y-90415949D01*
X124421974Y-90396633D01*
X124225842Y-90415949D01*
X124037248Y-90473159D01*
X124037240Y-90473162D01*
X123863437Y-90566062D01*
X123711094Y-90691088D01*
X123711088Y-90691094D01*
X123586062Y-90843437D01*
X123493162Y-91017240D01*
X123493159Y-91017248D01*
X123435949Y-91205842D01*
X123416633Y-91401974D01*
X119133342Y-91401974D01*
X118618416Y-90887048D01*
X118618412Y-90887045D01*
X118618410Y-90887043D01*
X118618411Y-90887043D01*
X118544732Y-90837815D01*
X118544729Y-90837812D01*
X118544729Y-90837813D01*
X118495495Y-90804916D01*
X118358913Y-90748342D01*
X118358911Y-90748341D01*
X118213920Y-90719500D01*
X118213918Y-90719500D01*
X113414008Y-90719500D01*
X113318720Y-90700546D01*
X113237938Y-90646570D01*
X111313430Y-88722062D01*
X111259454Y-88641280D01*
X111240500Y-88545992D01*
X111240500Y-76857601D01*
X112249500Y-76857601D01*
X112249500Y-78783920D01*
X112278341Y-78928911D01*
X112278342Y-78928913D01*
X112334916Y-79065495D01*
X112345402Y-79081188D01*
X112352016Y-79091087D01*
X112352017Y-79091089D01*
X112417047Y-79188415D01*
X112417049Y-79188418D01*
X112885913Y-79657281D01*
X112939890Y-79738063D01*
X112958844Y-79833351D01*
X112957897Y-79855052D01*
X112944341Y-80010004D01*
X112944341Y-80010005D01*
X112964935Y-80245401D01*
X113024828Y-80468929D01*
X113026097Y-80473663D01*
X113061559Y-80549711D01*
X113125965Y-80687830D01*
X113236654Y-80845911D01*
X113261505Y-80881401D01*
X113428599Y-81048495D01*
X113467925Y-81076031D01*
X113535107Y-81146209D01*
X113570321Y-81236758D01*
X113568202Y-81333890D01*
X113529074Y-81422818D01*
X113467928Y-81483965D01*
X113428603Y-81511501D01*
X113261504Y-81678600D01*
X113125965Y-81872169D01*
X113125961Y-81872177D01*
X113026098Y-82086333D01*
X113026097Y-82086335D01*
X112964935Y-82314598D01*
X112944341Y-82549994D01*
X112944341Y-82550005D01*
X112964935Y-82785401D01*
X113012691Y-82963633D01*
X113026097Y-83013663D01*
X113120021Y-83215084D01*
X113125965Y-83227830D01*
X113236654Y-83385911D01*
X113261505Y-83421401D01*
X113428599Y-83588495D01*
X113467925Y-83616031D01*
X113535107Y-83686209D01*
X113570321Y-83776758D01*
X113568202Y-83873890D01*
X113529074Y-83962818D01*
X113467928Y-84023965D01*
X113428603Y-84051501D01*
X113261504Y-84218600D01*
X113125965Y-84412169D01*
X113125961Y-84412177D01*
X113026098Y-84626333D01*
X113026097Y-84626335D01*
X112964935Y-84854598D01*
X112944341Y-85089994D01*
X112944341Y-85090005D01*
X112964935Y-85325401D01*
X113007983Y-85486062D01*
X113026097Y-85553663D01*
X113098744Y-85709454D01*
X113125965Y-85767830D01*
X113236654Y-85925911D01*
X113261505Y-85961401D01*
X113428599Y-86128495D01*
X113467925Y-86156031D01*
X113535107Y-86226209D01*
X113570321Y-86316758D01*
X113568202Y-86413890D01*
X113529074Y-86502818D01*
X113467928Y-86563965D01*
X113428603Y-86591501D01*
X113261504Y-86758600D01*
X113125965Y-86952169D01*
X113125961Y-86952177D01*
X113026098Y-87166333D01*
X113026097Y-87166335D01*
X112964935Y-87394598D01*
X112944341Y-87629994D01*
X112944341Y-87630005D01*
X112964935Y-87865401D01*
X113011821Y-88040386D01*
X113026097Y-88093663D01*
X113098744Y-88249454D01*
X113125965Y-88307830D01*
X113236654Y-88465911D01*
X113261505Y-88501401D01*
X113428599Y-88668495D01*
X113622170Y-88804035D01*
X113836337Y-88903903D01*
X114064592Y-88965063D01*
X114064595Y-88965063D01*
X114064598Y-88965064D01*
X114299995Y-88985659D01*
X114300000Y-88985659D01*
X114300005Y-88985659D01*
X114535401Y-88965064D01*
X114535403Y-88965063D01*
X114535408Y-88965063D01*
X114763663Y-88903903D01*
X114853580Y-88861974D01*
X123416633Y-88861974D01*
X123435949Y-89058105D01*
X123493159Y-89246699D01*
X123493162Y-89246707D01*
X123586062Y-89420510D01*
X123586064Y-89420512D01*
X123711091Y-89572857D01*
X123820844Y-89662929D01*
X123863437Y-89697885D01*
X124037240Y-89790785D01*
X124037244Y-89790786D01*
X124037247Y-89790788D01*
X124225842Y-89847998D01*
X124421974Y-89867315D01*
X124618106Y-89847998D01*
X124806701Y-89790788D01*
X124980512Y-89697884D01*
X125132857Y-89572857D01*
X125257884Y-89420512D01*
X125308597Y-89325634D01*
X125350785Y-89246707D01*
X125350785Y-89246705D01*
X125350788Y-89246701D01*
X125407998Y-89058106D01*
X125427315Y-88861974D01*
X125407998Y-88665842D01*
X125350788Y-88477247D01*
X125350786Y-88477244D01*
X125350785Y-88477240D01*
X125257885Y-88303437D01*
X125163587Y-88188536D01*
X125132857Y-88151091D01*
X124997967Y-88040389D01*
X124980510Y-88026062D01*
X124806707Y-87933162D01*
X124806699Y-87933159D01*
X124618105Y-87875949D01*
X124421974Y-87856633D01*
X124225842Y-87875949D01*
X124037248Y-87933159D01*
X124037240Y-87933162D01*
X123863437Y-88026062D01*
X123711094Y-88151088D01*
X123711088Y-88151094D01*
X123586062Y-88303437D01*
X123493162Y-88477240D01*
X123493159Y-88477248D01*
X123435949Y-88665842D01*
X123416633Y-88861974D01*
X114853580Y-88861974D01*
X114977830Y-88804035D01*
X115171401Y-88668495D01*
X115338495Y-88501401D01*
X115453836Y-88336676D01*
X115524015Y-88269495D01*
X115614565Y-88234283D01*
X115657803Y-88230500D01*
X117190760Y-88230500D01*
X117286048Y-88249454D01*
X117366830Y-88303430D01*
X117383232Y-88321528D01*
X117399117Y-88340883D01*
X117469093Y-88398311D01*
X117551463Y-88465911D01*
X117725266Y-88558811D01*
X117725270Y-88558812D01*
X117725273Y-88558814D01*
X117913868Y-88616024D01*
X118110000Y-88635341D01*
X118306132Y-88616024D01*
X118494727Y-88558814D01*
X118518716Y-88545992D01*
X118668536Y-88465911D01*
X118668535Y-88465911D01*
X118668538Y-88465910D01*
X118820883Y-88340883D01*
X118945910Y-88188538D01*
X118996623Y-88093660D01*
X119038811Y-88014733D01*
X119038811Y-88014731D01*
X119038814Y-88014727D01*
X119096024Y-87826132D01*
X119115341Y-87630000D01*
X119096024Y-87433868D01*
X119038814Y-87245273D01*
X119038812Y-87245270D01*
X119038811Y-87245266D01*
X118945911Y-87071463D01*
X118851620Y-86956570D01*
X118820883Y-86919117D01*
X118668538Y-86794090D01*
X118668539Y-86794090D01*
X118668536Y-86794088D01*
X118494733Y-86701188D01*
X118494725Y-86701185D01*
X118306131Y-86643975D01*
X118110000Y-86624659D01*
X117913868Y-86643975D01*
X117725274Y-86701185D01*
X117725266Y-86701188D01*
X117551463Y-86794088D01*
X117399120Y-86919114D01*
X117399116Y-86919118D01*
X117395783Y-86923179D01*
X117383237Y-86938465D01*
X117308138Y-87000098D01*
X117215166Y-87028301D01*
X117190760Y-87029500D01*
X115657803Y-87029500D01*
X115562515Y-87010546D01*
X115481733Y-86956570D01*
X115453834Y-86923321D01*
X115338495Y-86758599D01*
X115171401Y-86591505D01*
X115132074Y-86563967D01*
X115064891Y-86493789D01*
X115029678Y-86403240D01*
X115031451Y-86321974D01*
X123416633Y-86321974D01*
X123435949Y-86518105D01*
X123493159Y-86706699D01*
X123493162Y-86706707D01*
X123586062Y-86880510D01*
X123655972Y-86965695D01*
X123711091Y-87032857D01*
X123820844Y-87122929D01*
X123863437Y-87157885D01*
X124037240Y-87250785D01*
X124037244Y-87250786D01*
X124037247Y-87250788D01*
X124225842Y-87307998D01*
X124421974Y-87327315D01*
X124618106Y-87307998D01*
X124806701Y-87250788D01*
X124980512Y-87157884D01*
X125132857Y-87032857D01*
X125257884Y-86880512D01*
X125308597Y-86785634D01*
X125350785Y-86706707D01*
X125350785Y-86706705D01*
X125350788Y-86706701D01*
X125407998Y-86518106D01*
X125427315Y-86321974D01*
X125407998Y-86125842D01*
X125350788Y-85937247D01*
X125350786Y-85937244D01*
X125350785Y-85937240D01*
X125257885Y-85763437D01*
X125163587Y-85648536D01*
X125132857Y-85611091D01*
X124980512Y-85486064D01*
X124980513Y-85486064D01*
X124980510Y-85486062D01*
X124806707Y-85393162D01*
X124806699Y-85393159D01*
X124618105Y-85335949D01*
X124421974Y-85316633D01*
X124225842Y-85335949D01*
X124037248Y-85393159D01*
X124037240Y-85393162D01*
X123863437Y-85486062D01*
X123711094Y-85611088D01*
X123711088Y-85611094D01*
X123586062Y-85763437D01*
X123493162Y-85937240D01*
X123493159Y-85937248D01*
X123435949Y-86125842D01*
X123416633Y-86321974D01*
X115031451Y-86321974D01*
X115031797Y-86306108D01*
X115070925Y-86217181D01*
X115132073Y-86156032D01*
X115171401Y-86128495D01*
X115338495Y-85961401D01*
X115453836Y-85796676D01*
X115524015Y-85729495D01*
X115614565Y-85694283D01*
X115657803Y-85690500D01*
X117190760Y-85690500D01*
X117286048Y-85709454D01*
X117366830Y-85763430D01*
X117383232Y-85781528D01*
X117399117Y-85800883D01*
X117469093Y-85858311D01*
X117551463Y-85925911D01*
X117725266Y-86018811D01*
X117725270Y-86018812D01*
X117725273Y-86018814D01*
X117913868Y-86076024D01*
X118110000Y-86095341D01*
X118306132Y-86076024D01*
X118494727Y-86018814D01*
X118668538Y-85925910D01*
X118820883Y-85800883D01*
X118945910Y-85648538D01*
X119032755Y-85486062D01*
X119038811Y-85474733D01*
X119038811Y-85474731D01*
X119038814Y-85474727D01*
X119096024Y-85286132D01*
X119115341Y-85090000D01*
X119096024Y-84893868D01*
X119038814Y-84705273D01*
X119038812Y-84705270D01*
X119038811Y-84705266D01*
X118945911Y-84531463D01*
X118851620Y-84416570D01*
X118820883Y-84379117D01*
X118693238Y-84274361D01*
X118668536Y-84254088D01*
X118494733Y-84161188D01*
X118494725Y-84161185D01*
X118306131Y-84103975D01*
X118110000Y-84084659D01*
X117913868Y-84103975D01*
X117725274Y-84161185D01*
X117725266Y-84161188D01*
X117551463Y-84254088D01*
X117399120Y-84379114D01*
X117399116Y-84379118D01*
X117395783Y-84383179D01*
X117383237Y-84398465D01*
X117308138Y-84460098D01*
X117215166Y-84488301D01*
X117190760Y-84489500D01*
X115657803Y-84489500D01*
X115562515Y-84470546D01*
X115481733Y-84416570D01*
X115453834Y-84383321D01*
X115338495Y-84218599D01*
X115171401Y-84051505D01*
X115132074Y-84023967D01*
X115064891Y-83953789D01*
X115029678Y-83863240D01*
X115031797Y-83766108D01*
X115070925Y-83677181D01*
X115132073Y-83616032D01*
X115171401Y-83588495D01*
X115338495Y-83421401D01*
X115348804Y-83406677D01*
X115418986Y-83339495D01*
X115509535Y-83304283D01*
X115552772Y-83300500D01*
X115643919Y-83300500D01*
X115643919Y-83300499D01*
X115788913Y-83271658D01*
X115925495Y-83215084D01*
X116013315Y-83156405D01*
X116048416Y-83132952D01*
X117647938Y-81533430D01*
X117728720Y-81479454D01*
X117824008Y-81460500D01*
X142525992Y-81460500D01*
X142621280Y-81479454D01*
X142702062Y-81533430D01*
X142741344Y-81572712D01*
X142774341Y-81619208D01*
X142776771Y-81617682D01*
X142880180Y-81782257D01*
X142880182Y-81782259D01*
X142880184Y-81782262D01*
X143007738Y-81909816D01*
X143007740Y-81909817D01*
X143007742Y-81909819D01*
X143160470Y-82005785D01*
X143160473Y-82005786D01*
X143160478Y-82005789D01*
X143330745Y-82065368D01*
X143330754Y-82065369D01*
X143509996Y-82085565D01*
X143510000Y-82085565D01*
X143510004Y-82085565D01*
X143649908Y-82069801D01*
X143689255Y-82065368D01*
X143859522Y-82005789D01*
X143859527Y-82005785D01*
X143859529Y-82005785D01*
X144012261Y-81909817D01*
X144023193Y-81901099D01*
X144025308Y-81903751D01*
X144085006Y-81863841D01*
X144180289Y-81844862D01*
X144275582Y-81863791D01*
X144356378Y-81917746D01*
X144417670Y-81979038D01*
X144471646Y-82059820D01*
X144490600Y-82155108D01*
X144471646Y-82250396D01*
X144417670Y-82331178D01*
X144336888Y-82385154D01*
X144322452Y-82390616D01*
X144175187Y-82441173D01*
X143956485Y-82559529D01*
X143760261Y-82712257D01*
X143760254Y-82712264D01*
X143617758Y-82867056D01*
X143539276Y-82924324D01*
X143444852Y-82947199D01*
X143348862Y-82932199D01*
X143265919Y-82881607D01*
X143251367Y-82867054D01*
X143184308Y-82794208D01*
X143184303Y-82794204D01*
X143002594Y-82652775D01*
X143002589Y-82652771D01*
X142800069Y-82543172D01*
X142800067Y-82543171D01*
X142582278Y-82468403D01*
X142582268Y-82468401D01*
X142355137Y-82430500D01*
X142124863Y-82430500D01*
X141897731Y-82468401D01*
X141897721Y-82468403D01*
X141679932Y-82543171D01*
X141679931Y-82543172D01*
X141477412Y-82652770D01*
X141477405Y-82652775D01*
X141295696Y-82794204D01*
X141295690Y-82794209D01*
X141153195Y-82949001D01*
X141074714Y-83006270D01*
X140980290Y-83029145D01*
X140884300Y-83014145D01*
X140801357Y-82963553D01*
X140786805Y-82949001D01*
X140644309Y-82794209D01*
X140644303Y-82794204D01*
X140462594Y-82652775D01*
X140462589Y-82652771D01*
X140260069Y-82543172D01*
X140260067Y-82543171D01*
X140042278Y-82468403D01*
X140042268Y-82468401D01*
X139815137Y-82430500D01*
X139584863Y-82430500D01*
X139357731Y-82468401D01*
X139357721Y-82468403D01*
X139139932Y-82543171D01*
X139139931Y-82543172D01*
X138937412Y-82652770D01*
X138937405Y-82652775D01*
X138755696Y-82794204D01*
X138755690Y-82794209D01*
X138613195Y-82949001D01*
X138534714Y-83006270D01*
X138440290Y-83029145D01*
X138344300Y-83014145D01*
X138261357Y-82963553D01*
X138246805Y-82949001D01*
X138104309Y-82794209D01*
X138104303Y-82794204D01*
X137922594Y-82652775D01*
X137922589Y-82652771D01*
X137720069Y-82543172D01*
X137720067Y-82543171D01*
X137502278Y-82468403D01*
X137502268Y-82468401D01*
X137275137Y-82430500D01*
X137044863Y-82430500D01*
X136817731Y-82468401D01*
X136817721Y-82468403D01*
X136599932Y-82543171D01*
X136599931Y-82543172D01*
X136397412Y-82652770D01*
X136397405Y-82652775D01*
X136215696Y-82794204D01*
X136215690Y-82794209D01*
X136059731Y-82963626D01*
X136059725Y-82963633D01*
X135933784Y-83156403D01*
X135933776Y-83156418D01*
X135841287Y-83367271D01*
X135841284Y-83367280D01*
X135841283Y-83367284D01*
X135784754Y-83590512D01*
X135765738Y-83820000D01*
X135784754Y-84049488D01*
X135841283Y-84272716D01*
X135841285Y-84272721D01*
X135841287Y-84272728D01*
X135933776Y-84483581D01*
X135933780Y-84483590D01*
X135933783Y-84483595D01*
X135958403Y-84521280D01*
X136059725Y-84676366D01*
X136059731Y-84676373D01*
X136215692Y-84845792D01*
X136397411Y-84987229D01*
X136599931Y-85096828D01*
X136662672Y-85118367D01*
X136817721Y-85171596D01*
X136817726Y-85171597D01*
X136817729Y-85171598D01*
X137044863Y-85209500D01*
X137275137Y-85209500D01*
X137502271Y-85171598D01*
X137502275Y-85171596D01*
X137502278Y-85171596D01*
X137582841Y-85143938D01*
X137720069Y-85096828D01*
X137922589Y-84987229D01*
X138104308Y-84845792D01*
X138246806Y-84690997D01*
X138325286Y-84633730D01*
X138419709Y-84610854D01*
X138515699Y-84625853D01*
X138598642Y-84676445D01*
X138613185Y-84690988D01*
X138755692Y-84845792D01*
X138937411Y-84987229D01*
X139139931Y-85096828D01*
X139202672Y-85118367D01*
X139357721Y-85171596D01*
X139357726Y-85171597D01*
X139357729Y-85171598D01*
X139584863Y-85209500D01*
X139815137Y-85209500D01*
X140042271Y-85171598D01*
X140042275Y-85171596D01*
X140042278Y-85171596D01*
X140122841Y-85143938D01*
X140260069Y-85096828D01*
X140462589Y-84987229D01*
X140644308Y-84845792D01*
X140786806Y-84690997D01*
X140865286Y-84633730D01*
X140959709Y-84610854D01*
X141055699Y-84625853D01*
X141138642Y-84676445D01*
X141153185Y-84690988D01*
X141295692Y-84845792D01*
X141477411Y-84987229D01*
X141679931Y-85096828D01*
X141742672Y-85118367D01*
X141897721Y-85171596D01*
X141897726Y-85171597D01*
X141897729Y-85171598D01*
X142124863Y-85209500D01*
X142355137Y-85209500D01*
X142582271Y-85171598D01*
X142582275Y-85171596D01*
X142582278Y-85171596D01*
X142662841Y-85143938D01*
X142800069Y-85096828D01*
X143002589Y-84987229D01*
X143184308Y-84845792D01*
X143251370Y-84772942D01*
X143329847Y-84715676D01*
X143424271Y-84692800D01*
X143520261Y-84707799D01*
X143603204Y-84758390D01*
X143617758Y-84772944D01*
X143760248Y-84927730D01*
X143760252Y-84927733D01*
X143760256Y-84927738D01*
X143760260Y-84927741D01*
X143760261Y-84927742D01*
X143956485Y-85080470D01*
X143956487Y-85080471D01*
X143956491Y-85080474D01*
X144175190Y-85198828D01*
X144244736Y-85222703D01*
X144410378Y-85279569D01*
X144410382Y-85279569D01*
X144410386Y-85279571D01*
X144641661Y-85318163D01*
X144732530Y-85352542D01*
X144803326Y-85419078D01*
X144843270Y-85507642D01*
X144846282Y-85604750D01*
X144826349Y-85668999D01*
X144738070Y-85858313D01*
X144676909Y-86086572D01*
X144656315Y-86321968D01*
X144656315Y-86321979D01*
X144676909Y-86557375D01*
X144730826Y-86758600D01*
X144738071Y-86785637D01*
X144800315Y-86919120D01*
X144837939Y-86999804D01*
X144948628Y-87157885D01*
X144973479Y-87193375D01*
X145140573Y-87360469D01*
X145179899Y-87388005D01*
X145247081Y-87458183D01*
X145282295Y-87548732D01*
X145280176Y-87645864D01*
X145241048Y-87734792D01*
X145179902Y-87795939D01*
X145140577Y-87823475D01*
X145140573Y-87823478D01*
X145140573Y-87823479D01*
X144973479Y-87990573D01*
X144938600Y-88040386D01*
X144837939Y-88184143D01*
X144837935Y-88184151D01*
X144738072Y-88398307D01*
X144738071Y-88398309D01*
X144676909Y-88626572D01*
X144656315Y-88861968D01*
X144656315Y-88861979D01*
X144676909Y-89097375D01*
X144738070Y-89325634D01*
X144837939Y-89539804D01*
X144948628Y-89697885D01*
X144973479Y-89733375D01*
X145140573Y-89900469D01*
X145179899Y-89928005D01*
X145247081Y-89998183D01*
X145282295Y-90088732D01*
X145280176Y-90185864D01*
X145241048Y-90274792D01*
X145179902Y-90335939D01*
X145140577Y-90363475D01*
X144973478Y-90530574D01*
X144837939Y-90724143D01*
X144837935Y-90724151D01*
X144738072Y-90938307D01*
X144738071Y-90938309D01*
X144676909Y-91166572D01*
X144656315Y-91401968D01*
X144656315Y-91401979D01*
X144676909Y-91637375D01*
X144738070Y-91865634D01*
X144837939Y-92079804D01*
X144948628Y-92237885D01*
X144973479Y-92273375D01*
X145140573Y-92440469D01*
X145179899Y-92468005D01*
X145247081Y-92538183D01*
X145282295Y-92628732D01*
X145280176Y-92725864D01*
X145241048Y-92814792D01*
X145179902Y-92875939D01*
X145140577Y-92903475D01*
X144973478Y-93070574D01*
X144837939Y-93264143D01*
X144837935Y-93264151D01*
X144738072Y-93478307D01*
X144738071Y-93478309D01*
X144676909Y-93706572D01*
X144656315Y-93941968D01*
X144656315Y-93941979D01*
X144676909Y-94177375D01*
X144738070Y-94405634D01*
X144837939Y-94619804D01*
X144948628Y-94777885D01*
X144973479Y-94813375D01*
X145140573Y-94980469D01*
X145334144Y-95116009D01*
X145548311Y-95215877D01*
X145776566Y-95277037D01*
X145776569Y-95277037D01*
X145776572Y-95277038D01*
X146011969Y-95297633D01*
X146011974Y-95297633D01*
X146011979Y-95297633D01*
X146247375Y-95277038D01*
X146247377Y-95277037D01*
X146247382Y-95277037D01*
X146475637Y-95215877D01*
X146689804Y-95116009D01*
X146883375Y-94980469D01*
X147050469Y-94813375D01*
X147060778Y-94798651D01*
X147130960Y-94731469D01*
X147221509Y-94696257D01*
X147264746Y-94692474D01*
X149070270Y-94692474D01*
X149165558Y-94711428D01*
X149228234Y-94748995D01*
X149263434Y-94777883D01*
X149437240Y-94870785D01*
X149437244Y-94870786D01*
X149437247Y-94870788D01*
X149625842Y-94927998D01*
X149821974Y-94947315D01*
X150018106Y-94927998D01*
X150206701Y-94870788D01*
X150380512Y-94777884D01*
X150502877Y-94677460D01*
X150535052Y-94660262D01*
X150557459Y-94622879D01*
X150657884Y-94500512D01*
X150750788Y-94326701D01*
X150807998Y-94138106D01*
X150827315Y-93941974D01*
X150807998Y-93745842D01*
X150750788Y-93557247D01*
X150750786Y-93557244D01*
X150750785Y-93557240D01*
X150657885Y-93383437D01*
X150622929Y-93340844D01*
X150532857Y-93231091D01*
X150380512Y-93106064D01*
X150380513Y-93106064D01*
X150380510Y-93106062D01*
X150206707Y-93013162D01*
X150206699Y-93013159D01*
X150018105Y-92955949D01*
X149821974Y-92936633D01*
X149625842Y-92955949D01*
X149437248Y-93013159D01*
X149437240Y-93013162D01*
X149263434Y-93106064D01*
X149228234Y-93134953D01*
X149142551Y-93180752D01*
X149070270Y-93191474D01*
X147264746Y-93191474D01*
X147169458Y-93172520D01*
X147088676Y-93118544D01*
X147060777Y-93085294D01*
X147050472Y-93070577D01*
X147050471Y-93070576D01*
X147050469Y-93070573D01*
X146883375Y-92903479D01*
X146844048Y-92875941D01*
X146776865Y-92805763D01*
X146741652Y-92715214D01*
X146743771Y-92618082D01*
X146782899Y-92529155D01*
X146844047Y-92468006D01*
X146883375Y-92440469D01*
X147050469Y-92273375D01*
X147060778Y-92258651D01*
X147130960Y-92191469D01*
X147221509Y-92156257D01*
X147264746Y-92152474D01*
X149070270Y-92152474D01*
X149165558Y-92171428D01*
X149228234Y-92208995D01*
X149263434Y-92237883D01*
X149437240Y-92330785D01*
X149437244Y-92330786D01*
X149437247Y-92330788D01*
X149625842Y-92387998D01*
X149821974Y-92407315D01*
X150018106Y-92387998D01*
X150206701Y-92330788D01*
X150380512Y-92237884D01*
X150532857Y-92112857D01*
X150657884Y-91960512D01*
X150750788Y-91786701D01*
X150807998Y-91598106D01*
X150827315Y-91401974D01*
X150807998Y-91205842D01*
X150750788Y-91017247D01*
X150750786Y-91017244D01*
X150750785Y-91017240D01*
X150657885Y-90843437D01*
X150579841Y-90748341D01*
X150532857Y-90691091D01*
X150380512Y-90566064D01*
X150380513Y-90566064D01*
X150380510Y-90566062D01*
X150206707Y-90473162D01*
X150206699Y-90473159D01*
X150018105Y-90415949D01*
X149821974Y-90396633D01*
X149625842Y-90415949D01*
X149437248Y-90473159D01*
X149437240Y-90473162D01*
X149263434Y-90566064D01*
X149228234Y-90594953D01*
X149142551Y-90640752D01*
X149070270Y-90651474D01*
X147264746Y-90651474D01*
X147169458Y-90632520D01*
X147088676Y-90578544D01*
X147060777Y-90545294D01*
X147050472Y-90530577D01*
X147050471Y-90530576D01*
X147050469Y-90530573D01*
X146883375Y-90363479D01*
X146844048Y-90335941D01*
X146776865Y-90265763D01*
X146741652Y-90175214D01*
X146743771Y-90078082D01*
X146782899Y-89989155D01*
X146844047Y-89928006D01*
X146883375Y-89900469D01*
X147050469Y-89733375D01*
X147186009Y-89539804D01*
X147285877Y-89325637D01*
X147347037Y-89097382D01*
X147347038Y-89097375D01*
X147367633Y-88861979D01*
X147367633Y-88861974D01*
X148816633Y-88861974D01*
X148835949Y-89058105D01*
X148893159Y-89246699D01*
X148893162Y-89246707D01*
X148986062Y-89420510D01*
X148986064Y-89420512D01*
X149111091Y-89572857D01*
X149220844Y-89662929D01*
X149263437Y-89697885D01*
X149437240Y-89790785D01*
X149437244Y-89790786D01*
X149437247Y-89790788D01*
X149625842Y-89847998D01*
X149821974Y-89867315D01*
X150018106Y-89847998D01*
X150206701Y-89790788D01*
X150380512Y-89697884D01*
X150532857Y-89572857D01*
X150657884Y-89420512D01*
X150708597Y-89325634D01*
X150750785Y-89246707D01*
X150750785Y-89246705D01*
X150750788Y-89246701D01*
X150807998Y-89058106D01*
X150827315Y-88861974D01*
X150807998Y-88665842D01*
X150750788Y-88477247D01*
X150750786Y-88477244D01*
X150750785Y-88477240D01*
X150657885Y-88303437D01*
X150563587Y-88188536D01*
X150532857Y-88151091D01*
X150397967Y-88040389D01*
X150380510Y-88026062D01*
X150206707Y-87933162D01*
X150206699Y-87933159D01*
X150018105Y-87875949D01*
X149821974Y-87856633D01*
X149625842Y-87875949D01*
X149437248Y-87933159D01*
X149437240Y-87933162D01*
X149263437Y-88026062D01*
X149111094Y-88151088D01*
X149111088Y-88151094D01*
X148986062Y-88303437D01*
X148893162Y-88477240D01*
X148893159Y-88477248D01*
X148835949Y-88665842D01*
X148816633Y-88861974D01*
X147367633Y-88861974D01*
X147367633Y-88861968D01*
X147354077Y-88707026D01*
X147364653Y-88610449D01*
X147411384Y-88525270D01*
X147426060Y-88509254D01*
X147613778Y-88321536D01*
X147894926Y-88040389D01*
X147928212Y-87990573D01*
X147977058Y-87917469D01*
X148015990Y-87823479D01*
X148033633Y-87780886D01*
X148062474Y-87635891D01*
X148062474Y-87488056D01*
X148062474Y-86321974D01*
X148816633Y-86321974D01*
X148835949Y-86518105D01*
X148893159Y-86706699D01*
X148893162Y-86706707D01*
X148986062Y-86880510D01*
X149055972Y-86965695D01*
X149111091Y-87032857D01*
X149220844Y-87122929D01*
X149263437Y-87157885D01*
X149437240Y-87250785D01*
X149437244Y-87250786D01*
X149437247Y-87250788D01*
X149625842Y-87307998D01*
X149821974Y-87327315D01*
X150018106Y-87307998D01*
X150206701Y-87250788D01*
X150380512Y-87157884D01*
X150532857Y-87032857D01*
X150657884Y-86880512D01*
X150708597Y-86785634D01*
X150750785Y-86706707D01*
X150750785Y-86706705D01*
X150750788Y-86706701D01*
X150807998Y-86518106D01*
X150827315Y-86321974D01*
X150807998Y-86125842D01*
X150750788Y-85937247D01*
X150750786Y-85937244D01*
X150750785Y-85937240D01*
X150657885Y-85763437D01*
X150563587Y-85648536D01*
X150532857Y-85611091D01*
X150380512Y-85486064D01*
X150380513Y-85486064D01*
X150380510Y-85486062D01*
X150206707Y-85393162D01*
X150206699Y-85393159D01*
X150018105Y-85335949D01*
X149821974Y-85316633D01*
X149625842Y-85335949D01*
X149437248Y-85393159D01*
X149437240Y-85393162D01*
X149263437Y-85486062D01*
X149111094Y-85611088D01*
X149111088Y-85611094D01*
X148986062Y-85763437D01*
X148893162Y-85937240D01*
X148893159Y-85937248D01*
X148835949Y-86125842D01*
X148816633Y-86321974D01*
X148062474Y-86321974D01*
X148062474Y-82748106D01*
X148033632Y-82603111D01*
X148011633Y-82550000D01*
X157744659Y-82550000D01*
X157763975Y-82746131D01*
X157821185Y-82934725D01*
X157821188Y-82934733D01*
X157914088Y-83108536D01*
X157953375Y-83156407D01*
X158039117Y-83260883D01*
X158142103Y-83345402D01*
X158191463Y-83385911D01*
X158365266Y-83478811D01*
X158365270Y-83478812D01*
X158365273Y-83478814D01*
X158553868Y-83536024D01*
X158750000Y-83555341D01*
X158946132Y-83536024D01*
X159134727Y-83478814D01*
X159308538Y-83385910D01*
X159460883Y-83260883D01*
X159585910Y-83108538D01*
X159626291Y-83032991D01*
X159678811Y-82934733D01*
X159678811Y-82934731D01*
X159678814Y-82934727D01*
X159736024Y-82746132D01*
X159755341Y-82550000D01*
X159736024Y-82353868D01*
X159678814Y-82165273D01*
X159678812Y-82165270D01*
X159678811Y-82165266D01*
X159585911Y-81991463D01*
X159550955Y-81948870D01*
X159460883Y-81839117D01*
X159308538Y-81714090D01*
X159308539Y-81714090D01*
X159308536Y-81714088D01*
X159134733Y-81621188D01*
X159134725Y-81621185D01*
X158946131Y-81563975D01*
X158750000Y-81544659D01*
X158553868Y-81563975D01*
X158365274Y-81621185D01*
X158365266Y-81621188D01*
X158191463Y-81714088D01*
X158039120Y-81839114D01*
X158039114Y-81839120D01*
X157914088Y-81991463D01*
X157821188Y-82165266D01*
X157821185Y-82165274D01*
X157763975Y-82353868D01*
X157744659Y-82550000D01*
X148011633Y-82550000D01*
X147977834Y-82468402D01*
X147977061Y-82466536D01*
X147977060Y-82466534D01*
X147977058Y-82466529D01*
X147944160Y-82417294D01*
X147894926Y-82343608D01*
X145561318Y-80010000D01*
X157744659Y-80010000D01*
X157763975Y-80206131D01*
X157821185Y-80394725D01*
X157821188Y-80394733D01*
X157914088Y-80568536D01*
X157914090Y-80568538D01*
X158039117Y-80720883D01*
X158124902Y-80791285D01*
X158191463Y-80845911D01*
X158365266Y-80938811D01*
X158365270Y-80938812D01*
X158365273Y-80938814D01*
X158553868Y-80996024D01*
X158750000Y-81015341D01*
X158946132Y-80996024D01*
X159134727Y-80938814D01*
X159154555Y-80928216D01*
X159308536Y-80845911D01*
X159308535Y-80845911D01*
X159308538Y-80845910D01*
X159460883Y-80720883D01*
X159585910Y-80568538D01*
X159639152Y-80468929D01*
X159678811Y-80394733D01*
X159678811Y-80394731D01*
X159678814Y-80394727D01*
X159736024Y-80206132D01*
X159755341Y-80010000D01*
X159736024Y-79813868D01*
X159678814Y-79625273D01*
X159678812Y-79625270D01*
X159678811Y-79625266D01*
X159585911Y-79451463D01*
X159550955Y-79408870D01*
X159460883Y-79299117D01*
X159325997Y-79188418D01*
X159308536Y-79174088D01*
X159134733Y-79081188D01*
X159134725Y-79081185D01*
X158946131Y-79023975D01*
X158750000Y-79004659D01*
X158553868Y-79023975D01*
X158365274Y-79081185D01*
X158365266Y-79081188D01*
X158191463Y-79174088D01*
X158039120Y-79299114D01*
X158039114Y-79299120D01*
X157914088Y-79451463D01*
X157821188Y-79625266D01*
X157821185Y-79625274D01*
X157763975Y-79813868D01*
X157744659Y-80010000D01*
X145561318Y-80010000D01*
X144278366Y-78727048D01*
X144200375Y-78674937D01*
X144200373Y-78674935D01*
X144155446Y-78644917D01*
X144155445Y-78644916D01*
X144155442Y-78644914D01*
X144155439Y-78644913D01*
X144062616Y-78606465D01*
X144018863Y-78588342D01*
X144018861Y-78588341D01*
X143873870Y-78559500D01*
X143873868Y-78559500D01*
X118392485Y-78559500D01*
X118297197Y-78540546D01*
X118216415Y-78486570D01*
X115316894Y-75587048D01*
X115316890Y-75587045D01*
X115316888Y-75587043D01*
X115316889Y-75587043D01*
X115243210Y-75537815D01*
X115243207Y-75537812D01*
X115243207Y-75537813D01*
X115193973Y-75504916D01*
X115057391Y-75448342D01*
X115057389Y-75448341D01*
X114912398Y-75419500D01*
X114912396Y-75419500D01*
X113687604Y-75419500D01*
X113687596Y-75419500D01*
X113658766Y-75425234D01*
X113658767Y-75425235D01*
X113542612Y-75448340D01*
X113462598Y-75481482D01*
X113406029Y-75504914D01*
X113406025Y-75504916D01*
X113366693Y-75531197D01*
X113356792Y-75537813D01*
X113320193Y-75562267D01*
X113283101Y-75587051D01*
X113283100Y-75587052D01*
X112417049Y-76453104D01*
X112417048Y-76453105D01*
X112380402Y-76507951D01*
X112334917Y-76576025D01*
X112334913Y-76576032D01*
X112278341Y-76712610D01*
X112249500Y-76857601D01*
X111240500Y-76857601D01*
X111240500Y-70804006D01*
X111259454Y-70708718D01*
X111313428Y-70627938D01*
X114447283Y-67494082D01*
X114528062Y-67440109D01*
X114623350Y-67421155D01*
X114645052Y-67422103D01*
X114799995Y-67435659D01*
X114800000Y-67435659D01*
X114800005Y-67435659D01*
X115035401Y-67415064D01*
X115035403Y-67415063D01*
X115035408Y-67415063D01*
X115263663Y-67353903D01*
X115477830Y-67254035D01*
X115671401Y-67118495D01*
X115838495Y-66951401D01*
X115974035Y-66757830D01*
X116073903Y-66543663D01*
X116135063Y-66315408D01*
X116155659Y-66080000D01*
X116155659Y-66079994D01*
X116135064Y-65844598D01*
X116135063Y-65844595D01*
X116135063Y-65844592D01*
X116073903Y-65616337D01*
X115974035Y-65402171D01*
X115838495Y-65208599D01*
X115671401Y-65041505D01*
X115632074Y-65013967D01*
X115564891Y-64943789D01*
X115529678Y-64853240D01*
X115531797Y-64756108D01*
X115570925Y-64667181D01*
X115632073Y-64606032D01*
X115671401Y-64578495D01*
X115838495Y-64411401D01*
X115974035Y-64217830D01*
X116073903Y-64003663D01*
X116135063Y-63775408D01*
X116155659Y-63540000D01*
X116155659Y-63539994D01*
X116152160Y-63500000D01*
X117104659Y-63500000D01*
X117123975Y-63696131D01*
X117181185Y-63884725D01*
X117181188Y-63884733D01*
X117274088Y-64058536D01*
X117274090Y-64058538D01*
X117399117Y-64210883D01*
X117407581Y-64217829D01*
X117551463Y-64335911D01*
X117725266Y-64428811D01*
X117725270Y-64428812D01*
X117725273Y-64428814D01*
X117913868Y-64486024D01*
X118110000Y-64505341D01*
X118306132Y-64486024D01*
X118494727Y-64428814D01*
X118527305Y-64411401D01*
X118668536Y-64335911D01*
X118668535Y-64335911D01*
X118668538Y-64335910D01*
X118820883Y-64210883D01*
X118945910Y-64058538D01*
X119038814Y-63884727D01*
X119096024Y-63696132D01*
X119115341Y-63500000D01*
X119096024Y-63303868D01*
X119038814Y-63115273D01*
X119038812Y-63115270D01*
X119038811Y-63115266D01*
X118945911Y-62941463D01*
X118880837Y-62862171D01*
X118820883Y-62789117D01*
X118753721Y-62733998D01*
X118668536Y-62664088D01*
X118494733Y-62571188D01*
X118494725Y-62571185D01*
X118306131Y-62513975D01*
X118110000Y-62494659D01*
X117913868Y-62513975D01*
X117725274Y-62571185D01*
X117725266Y-62571188D01*
X117551463Y-62664088D01*
X117399120Y-62789114D01*
X117399114Y-62789120D01*
X117274088Y-62941463D01*
X117181188Y-63115266D01*
X117181185Y-63115274D01*
X117123975Y-63303868D01*
X117104659Y-63500000D01*
X116152160Y-63500000D01*
X116135064Y-63304598D01*
X116135063Y-63304595D01*
X116135063Y-63304592D01*
X116073903Y-63076337D01*
X115974035Y-62862171D01*
X115838495Y-62668599D01*
X115671401Y-62501505D01*
X115632074Y-62473967D01*
X115564891Y-62403789D01*
X115529678Y-62313240D01*
X115531797Y-62216108D01*
X115570925Y-62127181D01*
X115632073Y-62066032D01*
X115671401Y-62038495D01*
X115838495Y-61871401D01*
X115974035Y-61677830D01*
X116073903Y-61463663D01*
X116135063Y-61235408D01*
X116155659Y-61000000D01*
X116155659Y-60999994D01*
X116152160Y-60960000D01*
X117104659Y-60960000D01*
X117123975Y-61156131D01*
X117181185Y-61344725D01*
X117181188Y-61344733D01*
X117274088Y-61518536D01*
X117274090Y-61518538D01*
X117399117Y-61670883D01*
X117407582Y-61677830D01*
X117551463Y-61795911D01*
X117725266Y-61888811D01*
X117725270Y-61888812D01*
X117725273Y-61888814D01*
X117913868Y-61946024D01*
X118110000Y-61965341D01*
X118306132Y-61946024D01*
X118494727Y-61888814D01*
X118527305Y-61871401D01*
X118668536Y-61795911D01*
X118668535Y-61795911D01*
X118668538Y-61795910D01*
X118820883Y-61670883D01*
X118945910Y-61518538D01*
X119038814Y-61344727D01*
X119096024Y-61156132D01*
X119115341Y-60960000D01*
X119096024Y-60763868D01*
X119038814Y-60575273D01*
X119038812Y-60575270D01*
X119038811Y-60575266D01*
X118945911Y-60401463D01*
X118880837Y-60322171D01*
X118820883Y-60249117D01*
X118753721Y-60193998D01*
X118668536Y-60124088D01*
X118494733Y-60031188D01*
X118494725Y-60031185D01*
X118306131Y-59973975D01*
X118110000Y-59954659D01*
X117913868Y-59973975D01*
X117725274Y-60031185D01*
X117725266Y-60031188D01*
X117551463Y-60124088D01*
X117399120Y-60249114D01*
X117399114Y-60249120D01*
X117274088Y-60401463D01*
X117181188Y-60575266D01*
X117181185Y-60575274D01*
X117123975Y-60763868D01*
X117104659Y-60960000D01*
X116152160Y-60960000D01*
X116135064Y-60764598D01*
X116135063Y-60764595D01*
X116135063Y-60764592D01*
X116073903Y-60536337D01*
X115974035Y-60322171D01*
X115838495Y-60128599D01*
X115671401Y-59961505D01*
X115477830Y-59825965D01*
X115263663Y-59726097D01*
X115263660Y-59726096D01*
X115035401Y-59664935D01*
X114800005Y-59644341D01*
X114799995Y-59644341D01*
X114564598Y-59664935D01*
X114336335Y-59726097D01*
X114336333Y-59726098D01*
X114122177Y-59825961D01*
X114122169Y-59825965D01*
X113928600Y-59961504D01*
X113761504Y-60128600D01*
X113625965Y-60322169D01*
X113625961Y-60322177D01*
X113526098Y-60536333D01*
X113526097Y-60536335D01*
X113464935Y-60764598D01*
X113444341Y-60999994D01*
X113444341Y-61000005D01*
X113464935Y-61235401D01*
X113464936Y-61235404D01*
X113480649Y-61294046D01*
X113487003Y-61390993D01*
X113455773Y-61482991D01*
X113416203Y-61534559D01*
X113281286Y-61669477D01*
X113281286Y-61669478D01*
X113281284Y-61669480D01*
X113281283Y-61669479D01*
X113169483Y-61781280D01*
X113169481Y-61781283D01*
X113169480Y-61781284D01*
X113119360Y-61868095D01*
X113119359Y-61868094D01*
X113090424Y-61918212D01*
X113090422Y-61918215D01*
X113049499Y-62070943D01*
X113049499Y-62249122D01*
X113049500Y-62249135D01*
X113049500Y-63772439D01*
X113030546Y-63867727D01*
X112976570Y-63948507D01*
X112881286Y-64043792D01*
X112881284Y-64043794D01*
X112881275Y-64043801D01*
X112769480Y-64155597D01*
X112769477Y-64155601D01*
X112733552Y-64217827D01*
X112733551Y-64217829D01*
X112690423Y-64292526D01*
X112690422Y-64292529D01*
X112649499Y-64445257D01*
X112649499Y-64623436D01*
X112649500Y-64623449D01*
X112649500Y-65934620D01*
X112630546Y-66029908D01*
X112576570Y-66110690D01*
X109171284Y-69515976D01*
X109171283Y-69515975D01*
X109059483Y-69627776D01*
X109059481Y-69627779D01*
X109059480Y-69627780D01*
X109009360Y-69714591D01*
X109009359Y-69714590D01*
X108980424Y-69764708D01*
X108980422Y-69764711D01*
X108939499Y-69917439D01*
X108939499Y-70095618D01*
X108939500Y-70095631D01*
X108939500Y-100276250D01*
X108939499Y-100276268D01*
X108939499Y-100291528D01*
X108939499Y-100449642D01*
X108980423Y-100602370D01*
X108990313Y-100619500D01*
X109059480Y-100739301D01*
X109171284Y-100851105D01*
X109171286Y-100851106D01*
X110930699Y-102610520D01*
X110946724Y-102619772D01*
X111067627Y-102689575D01*
X111067628Y-102689575D01*
X111067631Y-102689577D01*
X111220358Y-102730501D01*
X111393734Y-102730501D01*
X111393750Y-102730500D01*
X117866654Y-102730500D01*
X117961942Y-102749454D01*
X118042724Y-102803430D01*
X122516570Y-107277276D01*
X122570546Y-107358058D01*
X122589500Y-107453346D01*
X122589500Y-107933236D01*
X122570546Y-108028524D01*
X122516570Y-108109306D01*
X122483320Y-108137204D01*
X122454760Y-108157202D01*
X122350864Y-108229950D01*
X122189949Y-108390865D01*
X122123969Y-108485096D01*
X122053788Y-108552280D01*
X121963239Y-108587493D01*
X121866107Y-108585374D01*
X121777180Y-108546245D01*
X121716031Y-108485096D01*
X121650050Y-108390865D01*
X121650049Y-108390864D01*
X121650047Y-108390861D01*
X121489139Y-108229953D01*
X121489135Y-108229950D01*
X121489134Y-108229949D01*
X121302741Y-108099436D01*
X121302727Y-108099428D01*
X121096499Y-108003262D01*
X121096496Y-108003261D01*
X120876694Y-107944365D01*
X120876679Y-107944363D01*
X120650006Y-107924532D01*
X120649994Y-107924532D01*
X120423320Y-107944363D01*
X120423305Y-107944365D01*
X120203503Y-108003261D01*
X120203500Y-108003262D01*
X119997272Y-108099428D01*
X119997258Y-108099436D01*
X119810865Y-108229949D01*
X119649949Y-108390865D01*
X119583969Y-108485096D01*
X119513788Y-108552280D01*
X119423239Y-108587493D01*
X119326107Y-108585374D01*
X119237180Y-108546245D01*
X119176031Y-108485096D01*
X119110050Y-108390865D01*
X119110049Y-108390864D01*
X119110047Y-108390861D01*
X118949139Y-108229953D01*
X118949135Y-108229950D01*
X118949134Y-108229949D01*
X118762741Y-108099436D01*
X118762727Y-108099428D01*
X118556501Y-108003263D01*
X118549474Y-108000705D01*
X118466418Y-107950299D01*
X118408973Y-107871947D01*
X118385885Y-107777575D01*
X118400668Y-107681551D01*
X118451074Y-107598495D01*
X118458555Y-107590678D01*
X118581026Y-107468207D01*
X118661805Y-107414234D01*
X118729213Y-107396846D01*
X118772301Y-107391992D01*
X118942568Y-107332413D01*
X118942573Y-107332409D01*
X118942575Y-107332409D01*
X119090315Y-107239577D01*
X119095308Y-107236440D01*
X119222862Y-107108886D01*
X119273555Y-107028209D01*
X119318831Y-106956153D01*
X119318831Y-106956151D01*
X119318835Y-106956146D01*
X119378414Y-106785879D01*
X119390479Y-106678799D01*
X119398611Y-106606627D01*
X119398611Y-106606620D01*
X119378415Y-106427378D01*
X119378414Y-106427369D01*
X119318835Y-106257102D01*
X119312284Y-106246676D01*
X119277635Y-106155910D01*
X119280358Y-106058793D01*
X119312282Y-105981721D01*
X119332515Y-105949522D01*
X119392094Y-105779255D01*
X119408668Y-105632158D01*
X119412291Y-105600003D01*
X119412291Y-105599996D01*
X119392095Y-105420754D01*
X119392094Y-105420745D01*
X119332515Y-105250478D01*
X119332512Y-105250473D01*
X119332511Y-105250470D01*
X119236545Y-105097742D01*
X119236543Y-105097740D01*
X119236542Y-105097738D01*
X119108988Y-104970184D01*
X119108985Y-104970182D01*
X119108983Y-104970180D01*
X118956255Y-104874214D01*
X118956250Y-104874212D01*
X118956248Y-104874211D01*
X118785981Y-104814632D01*
X118785977Y-104814631D01*
X118785971Y-104814630D01*
X118606730Y-104794435D01*
X118606722Y-104794435D01*
X118427480Y-104814630D01*
X118427472Y-104814631D01*
X118427471Y-104814632D01*
X118257204Y-104874211D01*
X118257202Y-104874211D01*
X118257202Y-104874212D01*
X118257196Y-104874214D01*
X118104468Y-104970180D01*
X117976906Y-105097742D01*
X117880940Y-105250470D01*
X117880937Y-105250476D01*
X117880937Y-105250478D01*
X117837759Y-105373876D01*
X117821358Y-105420746D01*
X117821356Y-105420754D01*
X117814234Y-105483967D01*
X117784731Y-105576534D01*
X117742870Y-105632158D01*
X115503123Y-107871905D01*
X115422341Y-107925881D01*
X115348768Y-107943886D01*
X115343318Y-107944363D01*
X115343314Y-107944363D01*
X115123503Y-108003261D01*
X115123500Y-108003262D01*
X114917272Y-108099428D01*
X114917258Y-108099436D01*
X114730865Y-108229949D01*
X114569949Y-108390865D01*
X114503969Y-108485096D01*
X114433788Y-108552280D01*
X114343239Y-108587493D01*
X114246107Y-108585374D01*
X114157180Y-108546245D01*
X114096031Y-108485096D01*
X114030050Y-108390865D01*
X114030049Y-108390864D01*
X114030047Y-108390861D01*
X113869139Y-108229953D01*
X113869135Y-108229950D01*
X113869134Y-108229949D01*
X113682741Y-108099436D01*
X113682727Y-108099428D01*
X113476499Y-108003262D01*
X113476496Y-108003261D01*
X113256694Y-107944365D01*
X113256679Y-107944363D01*
X113030006Y-107924532D01*
X113029994Y-107924532D01*
X112803320Y-107944363D01*
X112803305Y-107944365D01*
X112583503Y-108003261D01*
X112583500Y-108003262D01*
X112377272Y-108099428D01*
X112377258Y-108099436D01*
X112190865Y-108229949D01*
X112029949Y-108390865D01*
X111963969Y-108485096D01*
X111893788Y-108552280D01*
X111803239Y-108587493D01*
X111706107Y-108585374D01*
X111617180Y-108546245D01*
X111556031Y-108485096D01*
X111490050Y-108390865D01*
X111490049Y-108390864D01*
X111490047Y-108390861D01*
X111329139Y-108229953D01*
X111329135Y-108229950D01*
X111329134Y-108229949D01*
X111142741Y-108099436D01*
X111142727Y-108099428D01*
X110936499Y-108003262D01*
X110936496Y-108003261D01*
X110716694Y-107944365D01*
X110716679Y-107944363D01*
X110490006Y-107924532D01*
X110489994Y-107924532D01*
X110263320Y-107944363D01*
X110263305Y-107944365D01*
X110043503Y-108003261D01*
X110043500Y-108003262D01*
X109837272Y-108099428D01*
X109837258Y-108099436D01*
X109650865Y-108229949D01*
X109489949Y-108390865D01*
X109423969Y-108485096D01*
X109353788Y-108552280D01*
X109263239Y-108587493D01*
X109166107Y-108585374D01*
X109077180Y-108546245D01*
X109016031Y-108485096D01*
X108950050Y-108390865D01*
X108950049Y-108390864D01*
X108950047Y-108390861D01*
X108789139Y-108229953D01*
X108789135Y-108229950D01*
X108789134Y-108229949D01*
X108602741Y-108099436D01*
X108602727Y-108099428D01*
X108396499Y-108003262D01*
X108396496Y-108003261D01*
X108176694Y-107944365D01*
X108176679Y-107944363D01*
X107950006Y-107924532D01*
X107949994Y-107924532D01*
X107723320Y-107944363D01*
X107723305Y-107944365D01*
X107503503Y-108003261D01*
X107503500Y-108003262D01*
X107297272Y-108099428D01*
X107297258Y-108099436D01*
X107110865Y-108229949D01*
X106949949Y-108390865D01*
X106819436Y-108577258D01*
X106819428Y-108577272D01*
X106723262Y-108783500D01*
X106723261Y-108783503D01*
X106664365Y-109003305D01*
X106664363Y-109003320D01*
X106644532Y-109229994D01*
X104450500Y-109229994D01*
X104450500Y-57905432D01*
X104450737Y-57894571D01*
X104460433Y-57672498D01*
X104467148Y-57518691D01*
X104469038Y-57497084D01*
X104517439Y-57129443D01*
X104521211Y-57108056D01*
X104601468Y-56746037D01*
X104607079Y-56725097D01*
X104718591Y-56371425D01*
X104726006Y-56351052D01*
X104867914Y-56008456D01*
X104877085Y-55988791D01*
X105048302Y-55659888D01*
X105059153Y-55641090D01*
X105258393Y-55328345D01*
X105270829Y-55310585D01*
X105496578Y-55016383D01*
X105510516Y-54999773D01*
X105761035Y-54726380D01*
X105776380Y-54711035D01*
X106049773Y-54460516D01*
X106066383Y-54446578D01*
X106360585Y-54220829D01*
X106378345Y-54208393D01*
X106691090Y-54009153D01*
X106709888Y-53998302D01*
X107038791Y-53827085D01*
X107058456Y-53817914D01*
X107401052Y-53676006D01*
X107421425Y-53668591D01*
X107775097Y-53557079D01*
X107796037Y-53551468D01*
X108158057Y-53471210D01*
X108179443Y-53467439D01*
X108547084Y-53419038D01*
X108568691Y-53417148D01*
X108944572Y-53400737D01*
X108955433Y-53400500D01*
X109015892Y-53400500D01*
X167984108Y-53400500D01*
X168044567Y-53400500D01*
X168055428Y-53400737D01*
G37*
%TD.AperFunction*%
%TD*%
M02*
