%TF.GenerationSoftware,KiCad,Pcbnew,8.0.1*%
%TF.CreationDate,2024-08-23T17:24:51+01:00*%
%TF.ProjectId,ProjectALIENMainBoard,50726f6a-6563-4744-914c-49454e4d6169,1.0*%
%TF.SameCoordinates,Original*%
%TF.FileFunction,Copper,L2,Bot*%
%TF.FilePolarity,Positive*%
%FSLAX46Y46*%
G04 Gerber Fmt 4.6, Leading zero omitted, Abs format (unit mm)*
G04 Created by KiCad (PCBNEW 8.0.1) date 2024-08-23 17:24:51*
%MOMM*%
%LPD*%
G01*
G04 APERTURE LIST*
%TA.AperFunction,ComponentPad*%
%ADD10C,1.000000*%
%TD*%
%TA.AperFunction,ComponentPad*%
%ADD11R,1.600000X1.600000*%
%TD*%
%TA.AperFunction,ComponentPad*%
%ADD12O,1.600000X1.600000*%
%TD*%
%TA.AperFunction,ComponentPad*%
%ADD13C,5.400000*%
%TD*%
%TA.AperFunction,ComponentPad*%
%ADD14O,1.700000X1.700000*%
%TD*%
%TA.AperFunction,ComponentPad*%
%ADD15R,1.700000X1.700000*%
%TD*%
%TA.AperFunction,ComponentPad*%
%ADD16R,1.500000X1.050000*%
%TD*%
%TA.AperFunction,ComponentPad*%
%ADD17O,1.500000X1.050000*%
%TD*%
%TA.AperFunction,ComponentPad*%
%ADD18C,1.400000*%
%TD*%
%TA.AperFunction,ComponentPad*%
%ADD19C,2.000000*%
%TD*%
%TA.AperFunction,ComponentPad*%
%ADD20C,1.778000*%
%TD*%
%TA.AperFunction,ComponentPad*%
%ADD21R,1.778000X1.778000*%
%TD*%
%TA.AperFunction,ComponentPad*%
%ADD22C,2.286000*%
%TD*%
%TA.AperFunction,ViaPad*%
%ADD23C,0.600000*%
%TD*%
%TA.AperFunction,Conductor*%
%ADD24C,0.200000*%
%TD*%
%TA.AperFunction,Conductor*%
%ADD25C,0.500000*%
%TD*%
G04 APERTURE END LIST*
D10*
%TO.P,TP9,1,1*%
%TO.N,DIR1*%
X124421974Y-86321974D03*
%TD*%
%TO.P,TP20,1,1*%
%TO.N,ENC2B*%
X158750000Y-88900000D03*
%TD*%
%TO.P,TP11,1,1*%
%TO.N,PWM2*%
X124421974Y-91401974D03*
%TD*%
D11*
%TO.P,A1,1,TX1*%
%TO.N,unconnected-(A1-TX1-Pad1)*%
X143510000Y-109230000D03*
D12*
%TO.P,A1,2,RX1*%
%TO.N,unconnected-(A1-RX1-Pad2)*%
X140970000Y-109230000D03*
%TO.P,A1,3,~{RESET}*%
%TO.N,Net-(A1-~{RESET}-Pad3)*%
X138430000Y-109230000D03*
%TO.P,A1,4,GND*%
%TO.N,GND*%
X135890000Y-109230000D03*
%TO.P,A1,5,D2*%
%TO.N,ENC1A*%
X133350000Y-109230000D03*
%TO.P,A1,6,D3*%
%TO.N,ENC2A*%
X130810000Y-109230000D03*
%TO.P,A1,7,D4*%
%TO.N,ENC1B*%
X128270000Y-109230000D03*
%TO.P,A1,8,D5*%
%TO.N,PIXELS_DATA_3.3V*%
X125730000Y-109230000D03*
%TO.P,A1,9,D6*%
%TO.N,USONIC_ECHO*%
X123190000Y-109230000D03*
%TO.P,A1,10,D7*%
%TO.N,USONIC_TRIG*%
X120650000Y-109230000D03*
%TO.P,A1,11,D8*%
%TO.N,NES_DATA*%
X118110000Y-109230000D03*
%TO.P,A1,12,D9*%
%TO.N,PWM1*%
X115570000Y-109230000D03*
%TO.P,A1,13,D10*%
%TO.N,PWM2*%
X113030000Y-109230000D03*
%TO.P,A1,14,MOSI*%
%TO.N,D11*%
X110490000Y-109230000D03*
%TO.P,A1,15,MISO*%
%TO.N,D12*%
X107950000Y-109230000D03*
%TO.P,A1,16,SCK*%
%TO.N,D13*%
X107950000Y-124470000D03*
%TO.P,A1,17,3V3*%
%TO.N,+3.3V*%
X110490000Y-124470000D03*
%TO.P,A1,18,AREF*%
%TO.N,unconnected-(A1-AREF-Pad18)*%
X113030000Y-124470000D03*
%TO.P,A1,19,A0*%
%TO.N,DIR1*%
X115570000Y-124470000D03*
%TO.P,A1,20,A1*%
%TO.N,DIR2*%
X118110000Y-124470000D03*
%TO.P,A1,21,A2*%
%TO.N,SHIFT_REG_CLOCK*%
X120650000Y-124470000D03*
%TO.P,A1,22,A3*%
%TO.N,SHIFT_REG_LOAD*%
X123190000Y-124470000D03*
%TO.P,A1,23,SDA/A4*%
%TO.N,I2C_SDA*%
X125730000Y-124470000D03*
%TO.P,A1,24,SCL/A5*%
%TO.N,I2C_SCL*%
X128270000Y-124470000D03*
%TO.P,A1,25,A6*%
%TO.N,BUMPER_DATA*%
X130810000Y-124470000D03*
%TO.P,A1,26,A7*%
%TO.N,ENC2B*%
X133350000Y-124470000D03*
%TO.P,A1,27,+5V*%
%TO.N,unconnected-(A1-+5V-Pad27)*%
X135890000Y-124470000D03*
%TO.P,A1,28,~{RESET}*%
%TO.N,unconnected-(A1-~{RESET}-Pad28)*%
X138430000Y-124470000D03*
%TO.P,A1,29,GND*%
%TO.N,GND*%
X140970000Y-124470000D03*
%TO.P,A1,30,VIN*%
%TO.N,+5V*%
X143510000Y-124470000D03*
%TD*%
D13*
%TO.P,H4,1,1*%
%TO.N,GND*%
X163000000Y-72000000D03*
%TD*%
D10*
%TO.P,TP8,1,1*%
%TO.N,SHIFT_REG_CLOCK*%
X133350000Y-135890000D03*
%TD*%
%TO.P,TP12,1,1*%
%TO.N,DIR2*%
X124421974Y-93941974D03*
%TD*%
D14*
%TO.P,M1,1,DIR1*%
%TO.N,DIR1*%
X128231974Y-86321974D03*
%TO.P,M1,2,PMW1*%
%TO.N,PWM1*%
X128231974Y-88861974D03*
%TO.P,M1,3,PMW2*%
%TO.N,PWM2*%
X128231974Y-91401974D03*
%TO.P,M1,4,DIR2*%
%TO.N,DIR2*%
X128231974Y-93941974D03*
%TO.P,M1,5,GND*%
%TO.N,GND*%
X128231974Y-96481974D03*
%TO.P,M1,6,VCC*%
%TO.N,+5V*%
X128231974Y-99021974D03*
%TO.P,M1,7,VM(<12V)*%
X146011974Y-99021974D03*
%TO.P,M1,8,GND*%
%TO.N,GND*%
X146011974Y-96481974D03*
%TO.P,M1,9,M2-*%
%TO.N,M2-*%
X146011974Y-93941974D03*
%TO.P,M1,10,M2+*%
%TO.N,M2+*%
X146011974Y-91401974D03*
%TO.P,M1,11,M1-*%
%TO.N,M1-*%
X146011974Y-88861974D03*
%TO.P,M1,12,M1+*%
%TO.N,M1+*%
X146011974Y-86321974D03*
%TD*%
D10*
%TO.P,TP15,1,1*%
%TO.N,M2+*%
X149821974Y-91401974D03*
%TD*%
D13*
%TO.P,H1,1,1*%
%TO.N,GND*%
X114000000Y-72000000D03*
%TD*%
D10*
%TO.P,TP3,1,1*%
%TO.N,PIXELS_DATA_3.3V*%
X141284399Y-130783321D03*
%TD*%
D13*
%TO.P,H3,1,1*%
%TO.N,GND*%
X163000000Y-130000000D03*
%TD*%
D11*
%TO.P,U1,1,D7*%
%TO.N,Net-(J1-Pin_9)*%
X158750000Y-120650000D03*
D12*
%TO.P,U1,2,Q5*%
%TO.N,unconnected-(U1-Q5-Pad2)*%
X158750000Y-118110000D03*
%TO.P,U1,3,Q7*%
%TO.N,unconnected-(U1-Q7-Pad3)*%
X158750000Y-115570000D03*
%TO.P,U1,4,D3*%
%TO.N,Net-(J1-Pin_5)*%
X158750000Y-113030000D03*
%TO.P,U1,5,D2*%
%TO.N,Net-(J1-Pin_4)*%
X158750000Y-110490000D03*
%TO.P,U1,6,D1*%
%TO.N,Net-(J1-Pin_3)*%
X158750000Y-107950000D03*
%TO.P,U1,7,D0*%
%TO.N,Net-(J1-Pin_2)*%
X158750000Y-105410000D03*
%TO.P,U1,8,VSS*%
%TO.N,GND*%
X158750000Y-102870000D03*
%TO.P,U1,9,PL*%
%TO.N,SHIFT_REG_LOAD*%
X151130000Y-102870000D03*
%TO.P,U1,10,CP*%
%TO.N,SHIFT_REG_CLOCK*%
X151130000Y-105410000D03*
%TO.P,U1,11,DS*%
%TO.N,BUMPER_DATA*%
X151130000Y-107950000D03*
%TO.P,U1,12,Q6*%
%TO.N,unconnected-(U1-Q6-Pad12)*%
X151130000Y-110490000D03*
%TO.P,U1,13,D4*%
%TO.N,Net-(J1-Pin_6)*%
X151130000Y-113030000D03*
%TO.P,U1,14,D5*%
%TO.N,Net-(J1-Pin_7)*%
X151130000Y-115570000D03*
%TO.P,U1,15,D6*%
%TO.N,Net-(J1-Pin_8)*%
X151130000Y-118110000D03*
%TO.P,U1,16,VDD*%
%TO.N,+3.3V*%
X151130000Y-120650000D03*
%TD*%
D10*
%TO.P,TP16,1,1*%
%TO.N,M2-*%
X149821974Y-93941974D03*
%TD*%
D15*
%TO.P,J9,1,Pin_1*%
%TO.N,GND*%
X167640000Y-139700000D03*
D14*
%TO.P,J9,2,Pin_2*%
%TO.N,+3.3V*%
X167640000Y-142240000D03*
%TO.P,J9,3,Pin_3*%
%TO.N,+5V*%
X167640000Y-144780000D03*
%TD*%
D10*
%TO.P,TP2,1,1*%
%TO.N,USONIC_TRIG*%
X118110000Y-63500000D03*
%TD*%
D16*
%TO.P,Q2,1,E*%
%TO.N,GND*%
X153349399Y-133958321D03*
D17*
%TO.P,Q2,2,B*%
%TO.N,Net-(Q2-B)*%
X153349399Y-132688321D03*
%TO.P,Q2,3,C*%
%TO.N,PIXELS_DATA_5V*%
X153349399Y-131418321D03*
%TD*%
D10*
%TO.P,TP7,1,1*%
%TO.N,SHIFT_REG_LOAD*%
X133350000Y-133350000D03*
%TD*%
D18*
%TO.P,GND1,1,1*%
%TO.N,GND*%
X166370000Y-149860000D03*
X168910000Y-149860000D03*
%TD*%
D10*
%TO.P,TP19,1,1*%
%TO.N,ENC2A*%
X158750000Y-86360000D03*
%TD*%
D19*
%TO.P,SW1,1,1*%
%TO.N,GND*%
X106395000Y-100330000D03*
%TO.P,SW1,2,2*%
%TO.N,Net-(A1-~{RESET}-Pad3)*%
X112045000Y-100330000D03*
%TD*%
D10*
%TO.P,TP6,1,1*%
%TO.N,BUMPER_DATA*%
X133350000Y-130810000D03*
%TD*%
%TO.P,TP1,1,1*%
%TO.N,USONIC_ECHO*%
X118110000Y-60960000D03*
%TD*%
%TO.P,TP5,1,1*%
%TO.N,NES_DATA*%
X133350000Y-128270000D03*
%TD*%
%TO.P,TP4,1,1*%
%TO.N,PIXELS_DATA_5V*%
X156524399Y-131418321D03*
%TD*%
%TO.P,TP13,1,1*%
%TO.N,M1+*%
X149821974Y-86321974D03*
%TD*%
D13*
%TO.P,H2,1,1*%
%TO.N,GND*%
X114000000Y-130000000D03*
%TD*%
D10*
%TO.P,TP14,1,1*%
%TO.N,M1-*%
X149821974Y-88861974D03*
%TD*%
%TO.P,TP18,1,1*%
%TO.N,ENC1B*%
X118110000Y-80010000D03*
%TD*%
%TO.P,TP17,1,1*%
%TO.N,ENC1A*%
X118110000Y-82550000D03*
%TD*%
D15*
%TO.P,J1,1,Pin_1*%
%TO.N,+3.3V*%
X162560000Y-101600000D03*
D14*
%TO.P,J1,2,Pin_2*%
%TO.N,Net-(J1-Pin_2)*%
X162560000Y-104140000D03*
%TO.P,J1,3,Pin_3*%
%TO.N,Net-(J1-Pin_3)*%
X162560000Y-106680000D03*
%TO.P,J1,4,Pin_4*%
%TO.N,Net-(J1-Pin_4)*%
X162560000Y-109220000D03*
%TO.P,J1,5,Pin_5*%
%TO.N,Net-(J1-Pin_5)*%
X162560000Y-111760000D03*
%TO.P,J1,6,Pin_6*%
%TO.N,Net-(J1-Pin_6)*%
X162560000Y-114300000D03*
%TO.P,J1,7,Pin_7*%
%TO.N,Net-(J1-Pin_7)*%
X162560000Y-116840000D03*
%TO.P,J1,8,Pin_8*%
%TO.N,Net-(J1-Pin_8)*%
X162560000Y-119380000D03*
%TO.P,J1,9,Pin_9*%
%TO.N,Net-(J1-Pin_9)*%
X162560000Y-121920000D03*
%TD*%
D10*
%TO.P,TP10,1,1*%
%TO.N,PWM1*%
X124421974Y-88861974D03*
%TD*%
D16*
%TO.P,Q1,1,E*%
%TO.N,GND*%
X146364399Y-133958321D03*
D17*
%TO.P,Q1,2,B*%
%TO.N,Net-(Q1-B)*%
X146364399Y-132688321D03*
%TO.P,Q1,3,C*%
%TO.N,Net-(Q1-C)*%
X146364399Y-131418321D03*
%TD*%
D15*
%TO.P,J10,1,Pin_1*%
%TO.N,D11*%
X109220000Y-139700000D03*
D14*
%TO.P,J10,2,Pin_2*%
%TO.N,D12*%
X109220000Y-142240000D03*
%TO.P,J10,3,Pin_3*%
%TO.N,D13*%
X109220000Y-144780000D03*
%TD*%
D15*
%TO.P,J6,1,Pin_1*%
%TO.N,GND*%
X114865000Y-58430000D03*
D14*
%TO.P,J6,2,Pin_2*%
%TO.N,USONIC_ECHO*%
X114865000Y-60970000D03*
%TO.P,J6,3,Pin_3*%
%TO.N,USONIC_TRIG*%
X114865000Y-63510000D03*
%TO.P,J6,4,Pin_4*%
%TO.N,+5V*%
X114865000Y-66050000D03*
%TD*%
D20*
%TO.P,J8,1,Pin_1*%
%TO.N,+5V*%
X132080000Y-83820000D03*
%TO.P,J8,2,Pin_2*%
%TO.N,GND*%
X134620000Y-83820000D03*
%TO.P,J8,3,Pin_3*%
%TO.N,I2C_SCL*%
X137160000Y-83820000D03*
%TO.P,J8,4,Pin_4*%
%TO.N,I2C_SDA*%
X139700000Y-83820000D03*
%TO.P,J8,5,Pin_5*%
%TO.N,unconnected-(J8-Pin_5-Pad5)*%
X142240000Y-83820000D03*
%TD*%
D21*
%TO.P,J7,1,Pin_1*%
%TO.N,GND*%
X148590000Y-144250000D03*
D20*
%TO.P,J7,2,Pin_2*%
%TO.N,unconnected-(J7-Pin_2-Pad2)*%
X151130000Y-144250000D03*
%TO.P,J7,3,Pin_3*%
%TO.N,unconnected-(J7-Pin_3-Pad3)*%
X153670000Y-144250000D03*
%TO.P,J7,4,Pin_4*%
%TO.N,unconnected-(J7-Pin_4-Pad4)*%
X156210000Y-144250000D03*
%TO.P,J7,5,Pin_5*%
%TO.N,+5V*%
X158750000Y-144250000D03*
%TD*%
D15*
%TO.P,J4,1,Pin_1*%
%TO.N,GND*%
X161995000Y-91440000D03*
D14*
%TO.P,J4,2,Pin_2*%
%TO.N,ENC2B*%
X161995000Y-88900000D03*
%TO.P,J4,3,Pin_3*%
%TO.N,ENC2A*%
X161995000Y-86360000D03*
%TO.P,J4,4,Pin_4*%
%TO.N,+3.3V*%
X161995000Y-83820000D03*
%TO.P,J4,5,Pin_5*%
%TO.N,M2-*%
X161995000Y-81280000D03*
%TO.P,J4,6,Pin_6*%
%TO.N,M2+*%
X161995000Y-78740000D03*
%TD*%
D15*
%TO.P,J5,1,Pin_1*%
%TO.N,GND*%
X168910000Y-128270000D03*
D14*
%TO.P,J5,2,Pin_2*%
%TO.N,PIXELS_DATA_5V*%
X168910000Y-130810000D03*
%TO.P,J5,3,Pin_3*%
%TO.N,+5V*%
X168910000Y-133350000D03*
%TD*%
D22*
%TO.P,J2,1,GND*%
%TO.N,GND*%
X118162569Y-132179026D03*
%TO.P,J2,2,Clock*%
%TO.N,SHIFT_REG_CLOCK*%
X122226569Y-132179026D03*
%TO.P,J2,3,Load*%
%TO.N,SHIFT_REG_LOAD*%
X126290569Y-132179026D03*
%TO.P,J2,4,Data*%
%TO.N,NES_DATA*%
X130354569Y-132179026D03*
%TO.P,J2,5,NC*%
%TO.N,unconnected-(J2-NC-Pad5)*%
X130354569Y-134790426D03*
%TO.P,J2,6,NC*%
%TO.N,unconnected-(J2-NC-Pad6)*%
X126290569Y-134790426D03*
%TO.P,J2,7,VCC*%
%TO.N,+3.3V*%
X122226569Y-134790426D03*
%TD*%
D15*
%TO.P,J3,1,Pin_1*%
%TO.N,GND*%
X114865000Y-77470000D03*
D14*
%TO.P,J3,2,Pin_2*%
%TO.N,ENC1B*%
X114865000Y-80010000D03*
%TO.P,J3,3,Pin_3*%
%TO.N,ENC1A*%
X114865000Y-82550000D03*
%TO.P,J3,4,Pin_4*%
%TO.N,+3.3V*%
X114865000Y-85090000D03*
%TO.P,J3,5,Pin_5*%
%TO.N,M1-*%
X114865000Y-87630000D03*
%TO.P,J3,6,Pin_6*%
%TO.N,M1+*%
X114865000Y-90170000D03*
%TD*%
D23*
%TO.N,DIR1*%
X119310000Y-105762500D03*
%TO.N,PWM1*%
X118710000Y-103470000D03*
%TO.N,DIR2*%
X124460000Y-113030000D03*
%TO.N,PWM2*%
X118110000Y-104140000D03*
%TO.N,ENC2A*%
X133750000Y-112250000D03*
X137000000Y-112250000D03*
%TO.N,BUMPER_DATA*%
X142240000Y-117750000D03*
X149430000Y-110490000D03*
%TO.N,SHIFT_REG_CLOCK*%
X148594265Y-113004265D03*
%TO.N,GND*%
X161290000Y-120650000D03*
X116840000Y-121920000D03*
X129540000Y-129540000D03*
X129540000Y-127000000D03*
X156210000Y-115570000D03*
X123500000Y-103750000D03*
X161290000Y-115570000D03*
X124460000Y-116840000D03*
X119380000Y-121920000D03*
X146050000Y-116840000D03*
X130810000Y-120650000D03*
X118681485Y-127593482D03*
X156210000Y-118110000D03*
X121920000Y-128270000D03*
X153670000Y-110490000D03*
X128000000Y-112000000D03*
X114300000Y-115570000D03*
X161290000Y-118110000D03*
X156210000Y-96520000D03*
X121920000Y-113030000D03*
X120650000Y-96520000D03*
X124460000Y-128270000D03*
X110490000Y-115570000D03*
X114751229Y-122471527D03*
%TD*%
D24*
%TO.N,ENC1B*%
X128270000Y-109230000D02*
X128270000Y-106756982D01*
X128270000Y-106756982D02*
X112615000Y-91101980D01*
X112615000Y-82260000D02*
X114865000Y-80010000D01*
X112615000Y-91101980D02*
X112615000Y-82260000D01*
%TO.N,DIR1*%
X119380000Y-117544314D02*
X115570000Y-121354314D01*
X115570000Y-121354314D02*
X115570000Y-124470000D01*
X119380000Y-105832500D02*
X119380000Y-117544314D01*
X119310000Y-105762500D02*
X119380000Y-105832500D01*
%TO.N,PWM1*%
X118710000Y-103470000D02*
X118710000Y-106090000D01*
X118710000Y-106090000D02*
X115570000Y-109230000D01*
%TO.N,D12*%
X109220000Y-110500000D02*
X107950000Y-109230000D01*
X109220000Y-142240000D02*
X108070000Y-141090000D01*
X108070000Y-141090000D02*
X108070000Y-138550000D01*
X108070000Y-138550000D02*
X109220000Y-137400000D01*
X109220000Y-137400000D02*
X109220000Y-110500000D01*
%TO.N,USONIC_ECHO*%
X110490000Y-100754899D02*
X110490000Y-65345000D01*
X119078529Y-101730000D02*
X111465101Y-101730000D01*
X110490000Y-65345000D02*
X114865000Y-60970000D01*
X111465101Y-101730000D02*
X110490000Y-100754899D01*
X123190000Y-105841471D02*
X119078529Y-101730000D01*
X123190000Y-109230000D02*
X123190000Y-105841471D01*
D25*
%TO.N,+3.3V*%
X151130000Y-120650000D02*
X157474399Y-126994399D01*
X151627767Y-111760000D02*
X152400000Y-110987767D01*
X152400000Y-104140000D02*
X157480000Y-99060000D01*
X116910000Y-85090000D02*
X118500000Y-83500000D01*
X151130000Y-120650000D02*
X149880000Y-119400000D01*
X160695000Y-99735000D02*
X160695000Y-85120000D01*
X118500000Y-83500000D02*
X118503503Y-83500000D01*
X160695000Y-85120000D02*
X161995000Y-83820000D01*
X119060000Y-82943503D02*
X119060000Y-82940000D01*
X158775000Y-80600000D02*
X161995000Y-83820000D01*
X152400000Y-110987767D02*
X152400000Y-104140000D01*
X118503503Y-83500000D02*
X119060000Y-82943503D01*
X150632233Y-111760000D02*
X151627767Y-111760000D01*
X114865000Y-85090000D02*
X116910000Y-85090000D01*
X162560000Y-101600000D02*
X160695000Y-99735000D01*
X121400000Y-80600000D02*
X158775000Y-80600000D01*
X160020000Y-99060000D02*
X162560000Y-101600000D01*
X119060000Y-82940000D02*
X121400000Y-80600000D01*
X149880000Y-112512233D02*
X150632233Y-111760000D01*
X157480000Y-99060000D02*
X160020000Y-99060000D01*
X149880000Y-119400000D02*
X149880000Y-112512233D01*
X157474399Y-132074399D02*
X167640000Y-142240000D01*
X157474399Y-126994399D02*
X157474399Y-132074399D01*
D24*
%TO.N,D11*%
X109220000Y-139700000D02*
X109220000Y-137965686D01*
X109220000Y-137965686D02*
X109620000Y-137565685D01*
X111590000Y-124925635D02*
X111590000Y-110330000D01*
X111590000Y-110330000D02*
X110490000Y-109230000D01*
X109620000Y-126895635D02*
X111590000Y-124925635D01*
X109620000Y-137565685D02*
X109620000Y-126895635D01*
%TO.N,DIR2*%
X118110000Y-119380000D02*
X118110000Y-124470000D01*
X124460000Y-113030000D02*
X118110000Y-119380000D01*
%TO.N,USONIC_TRIG*%
X114388654Y-59820000D02*
X110090000Y-64118654D01*
X115341346Y-59820000D02*
X114388654Y-59820000D01*
X120650000Y-104561471D02*
X120650000Y-109230000D01*
X112039415Y-102870000D02*
X118958529Y-102870000D01*
X114865000Y-63510000D02*
X116015000Y-62360000D01*
X118958529Y-102870000D02*
X120650000Y-104561471D01*
X116015000Y-62360000D02*
X116015000Y-60493654D01*
X110090000Y-100920585D02*
X112039415Y-102870000D01*
X110090000Y-64118654D02*
X110090000Y-100920585D01*
X116015000Y-60493654D02*
X115341346Y-59820000D01*
%TO.N,PWM2*%
X113030000Y-109220000D02*
X113030000Y-109230000D01*
X118110000Y-104140000D02*
X113030000Y-109220000D01*
%TO.N,ENC2A*%
X139870000Y-106234365D02*
X143814667Y-102289698D01*
X137940000Y-112250000D02*
X139870000Y-110320000D01*
X146124314Y-100960000D02*
X157950000Y-89134314D01*
X157950000Y-87160000D02*
X158750000Y-86360000D01*
X146124314Y-100969999D02*
X146124314Y-100960000D01*
X143814667Y-102289698D02*
X144804615Y-102289698D01*
X133750000Y-112170000D02*
X130810000Y-109230000D01*
X133750000Y-112250000D02*
X133750000Y-112170000D01*
X137000000Y-112250000D02*
X137940000Y-112250000D01*
X157950000Y-89134314D02*
X157950000Y-87160000D01*
X139870000Y-110320000D02*
X139870000Y-106234365D01*
X144804615Y-102289698D02*
X146124314Y-100969999D01*
%TO.N,ENC2B*%
X149630000Y-109174365D02*
X149630000Y-98020000D01*
X134334365Y-124470000D02*
X149630000Y-109174365D01*
X133350000Y-124470000D02*
X134334365Y-124470000D01*
X149630000Y-98020000D02*
X158750000Y-88900000D01*
%TO.N,D13*%
X107670000Y-138384314D02*
X108820000Y-137234314D01*
X108820000Y-125340000D02*
X107950000Y-124470000D01*
X107670000Y-143230000D02*
X107670000Y-138384314D01*
X108820000Y-137234314D02*
X108820000Y-125340000D01*
X109220000Y-144780000D02*
X107670000Y-143230000D01*
%TO.N,Net-(A1-~{RESET}-Pad3)*%
X133360000Y-114300000D02*
X131784365Y-114300000D01*
X126830000Y-109345635D02*
X126830000Y-108774365D01*
X118385635Y-100330000D02*
X112045000Y-100330000D01*
X131784365Y-114300000D02*
X126830000Y-109345635D01*
X126830000Y-108774365D02*
X118385635Y-100330000D01*
X138430000Y-109230000D02*
X133360000Y-114300000D01*
%TO.N,ENC1A*%
X113015000Y-84400000D02*
X114865000Y-82550000D01*
X130208704Y-108130000D02*
X113015000Y-90936295D01*
X133350000Y-109230000D02*
X132250000Y-108130000D01*
X113015000Y-90936295D02*
X113015000Y-84400000D01*
X132250000Y-108130000D02*
X130208704Y-108130000D01*
%TO.N,PIXELS_DATA_3.3V*%
X141284399Y-130783321D02*
X135377720Y-136690000D01*
X127000000Y-129428884D02*
X127000000Y-110500000D01*
X126149432Y-136690000D02*
X124847569Y-135388137D01*
X135377720Y-136690000D02*
X126149432Y-136690000D01*
X127000000Y-110500000D02*
X125730000Y-109230000D01*
X124847569Y-135388137D02*
X124847569Y-131581315D01*
X124847569Y-131581315D02*
X127000000Y-129428884D01*
D25*
%TO.N,M1-*%
X146011974Y-88861974D02*
X146050000Y-88900000D01*
X118793453Y-84200000D02*
X118789950Y-84200000D01*
X148020000Y-83530050D02*
X145789949Y-81300000D01*
X146050000Y-88900000D02*
X148020000Y-86930000D01*
X118789950Y-84200000D02*
X115359950Y-87630000D01*
X146011974Y-88861974D02*
X149821974Y-88861974D01*
X148020000Y-86930000D02*
X148020000Y-83530050D01*
X119760000Y-83229950D02*
X119760000Y-83233453D01*
X119760000Y-83233453D02*
X118793453Y-84200000D01*
X121689950Y-81300000D02*
X119760000Y-83229950D01*
X115359950Y-87630000D02*
X114865000Y-87630000D01*
X145789949Y-81300000D02*
X121689950Y-81300000D01*
D24*
%TO.N,BUMPER_DATA*%
X142240000Y-117680000D02*
X149430000Y-110490000D01*
X142240000Y-117750000D02*
X142240000Y-117680000D01*
X133350000Y-130810000D02*
X130810000Y-128270000D01*
X130810000Y-128270000D02*
X130810000Y-124470000D01*
%TO.N,SHIFT_REG_LOAD*%
X131443132Y-130736026D02*
X127733569Y-130736026D01*
X133350000Y-133350000D02*
X133350000Y-132642894D01*
X136185635Y-133350000D02*
X133350000Y-133350000D01*
X147990000Y-121545635D02*
X136185635Y-133350000D01*
X149678529Y-111090000D02*
X149660000Y-111090000D01*
X150030000Y-110738529D02*
X149678529Y-111090000D01*
X147990000Y-112760000D02*
X147990000Y-121545635D01*
X150030000Y-103970000D02*
X150030000Y-110738529D01*
X149660000Y-111090000D02*
X147990000Y-112760000D01*
X127733569Y-130736026D02*
X126290569Y-132179026D01*
X151130000Y-102870000D02*
X150030000Y-103970000D01*
X133350000Y-132642894D02*
X131443132Y-130736026D01*
%TO.N,SHIFT_REG_CLOCK*%
X148594265Y-113004265D02*
X148590000Y-113008530D01*
X148590000Y-121920000D02*
X134620000Y-135890000D01*
X134620000Y-135890000D02*
X133350000Y-135890000D01*
X148590000Y-113008530D02*
X148590000Y-121920000D01*
%TO.N,Net-(J1-Pin_6)*%
X152400000Y-114300000D02*
X162560000Y-114300000D01*
X151130000Y-113030000D02*
X152400000Y-114300000D01*
%TO.N,Net-(J1-Pin_8)*%
X152400000Y-119380000D02*
X151130000Y-118110000D01*
X162560000Y-119380000D02*
X152400000Y-119380000D01*
%TO.N,Net-(J1-Pin_7)*%
X151130000Y-115570000D02*
X152400000Y-116840000D01*
X152400000Y-116840000D02*
X162560000Y-116840000D01*
D25*
%TO.N,M1+*%
X119079900Y-84900000D02*
X116165000Y-87814900D01*
X146011974Y-86321974D02*
X147320000Y-85013948D01*
X116165000Y-87814900D02*
X116165000Y-88870000D01*
X147320000Y-85013948D02*
X147320000Y-83820000D01*
X120460000Y-83523403D02*
X119083402Y-84900000D01*
X121979900Y-82000000D02*
X120460000Y-83519900D01*
X116165000Y-88870000D02*
X114865000Y-90170000D01*
X119083402Y-84900000D02*
X119079900Y-84900000D01*
X145500000Y-82000000D02*
X121979900Y-82000000D01*
X120460000Y-83519900D02*
X120460000Y-83523403D01*
X147320000Y-83820000D02*
X145500000Y-82000000D01*
%TO.N,M2+*%
X146011974Y-91401974D02*
X149821974Y-91401974D01*
%TO.N,M2-*%
X146011974Y-93941974D02*
X149821974Y-93941974D01*
%TD*%
%TA.AperFunction,Conductor*%
%TO.N,GND*%
G36*
X147235788Y-113750828D02*
G01*
X147316570Y-113804804D01*
X147370546Y-113885586D01*
X147389500Y-113980874D01*
X147389500Y-121193759D01*
X147370546Y-121289047D01*
X147316570Y-121369829D01*
X144944531Y-123741867D01*
X144863749Y-123795843D01*
X144768461Y-123814797D01*
X144673173Y-123795843D01*
X144592391Y-123741867D01*
X144564491Y-123708616D01*
X144510049Y-123630864D01*
X144510047Y-123630861D01*
X144349139Y-123469953D01*
X144349135Y-123469950D01*
X144349134Y-123469949D01*
X144162741Y-123339436D01*
X144162727Y-123339428D01*
X143956499Y-123243262D01*
X143956496Y-123243261D01*
X143736694Y-123184365D01*
X143736679Y-123184363D01*
X143510006Y-123164532D01*
X143509994Y-123164532D01*
X143283320Y-123184363D01*
X143283305Y-123184365D01*
X143063503Y-123243261D01*
X143063500Y-123243262D01*
X142857272Y-123339428D01*
X142857258Y-123339436D01*
X142670865Y-123469949D01*
X142509949Y-123630865D01*
X142379436Y-123817258D01*
X142379428Y-123817272D01*
X142283262Y-124023500D01*
X142283261Y-124023503D01*
X142224365Y-124243305D01*
X142224363Y-124243320D01*
X142204532Y-124469994D01*
X142204532Y-124470005D01*
X142224363Y-124696679D01*
X142224365Y-124696694D01*
X142283261Y-124916496D01*
X142283262Y-124916499D01*
X142379428Y-125122727D01*
X142379436Y-125122741D01*
X142443970Y-125214905D01*
X142509953Y-125309139D01*
X142670861Y-125470047D01*
X142670864Y-125470049D01*
X142748616Y-125524491D01*
X142815801Y-125594672D01*
X142851014Y-125685221D01*
X142848895Y-125782353D01*
X142809767Y-125871280D01*
X142781867Y-125904531D01*
X136009830Y-132676570D01*
X135929048Y-132730546D01*
X135833760Y-132749500D01*
X134269241Y-132749500D01*
X134173953Y-132730546D01*
X134093171Y-132676570D01*
X134076761Y-132658464D01*
X134060883Y-132639117D01*
X134007083Y-132594963D01*
X133945450Y-132519860D01*
X133924535Y-132466934D01*
X133923624Y-132463533D01*
X133909577Y-132411110D01*
X133905671Y-132404345D01*
X133830521Y-132274180D01*
X133830520Y-132274178D01*
X133685669Y-132129327D01*
X133631696Y-132048549D01*
X133612742Y-131953261D01*
X133631696Y-131857973D01*
X133685672Y-131777191D01*
X133744364Y-131733663D01*
X133881476Y-131660375D01*
X133908538Y-131645910D01*
X134060883Y-131520883D01*
X134185910Y-131368538D01*
X134269263Y-131212596D01*
X134278811Y-131194733D01*
X134278811Y-131194731D01*
X134278814Y-131194727D01*
X134336024Y-131006132D01*
X134355341Y-130810000D01*
X134336024Y-130613868D01*
X134278814Y-130425273D01*
X134278812Y-130425270D01*
X134278811Y-130425266D01*
X134185911Y-130251463D01*
X134090762Y-130135525D01*
X134060883Y-130099117D01*
X133908538Y-129974090D01*
X133908539Y-129974090D01*
X133908536Y-129974088D01*
X133734733Y-129881188D01*
X133734725Y-129881185D01*
X133546131Y-129823975D01*
X133350001Y-129804659D01*
X133349998Y-129804659D01*
X133325091Y-129807112D01*
X133228403Y-129797589D01*
X133142721Y-129751790D01*
X133124616Y-129735381D01*
X133081774Y-129692539D01*
X133027798Y-129611757D01*
X133008844Y-129516469D01*
X133027798Y-129421181D01*
X133081774Y-129340399D01*
X133162556Y-129286423D01*
X133257844Y-129267469D01*
X133282242Y-129268667D01*
X133350000Y-129275341D01*
X133546132Y-129256024D01*
X133734727Y-129198814D01*
X133908538Y-129105910D01*
X134060883Y-128980883D01*
X134185910Y-128828538D01*
X134278814Y-128654727D01*
X134336024Y-128466132D01*
X134355341Y-128270000D01*
X134336024Y-128073868D01*
X134278814Y-127885273D01*
X134278812Y-127885270D01*
X134278811Y-127885266D01*
X134185911Y-127711463D01*
X134060885Y-127559120D01*
X134060883Y-127559117D01*
X133908538Y-127434090D01*
X133908539Y-127434090D01*
X133908536Y-127434088D01*
X133734733Y-127341188D01*
X133734725Y-127341185D01*
X133546131Y-127283975D01*
X133350000Y-127264659D01*
X133153868Y-127283975D01*
X132965274Y-127341185D01*
X132965266Y-127341188D01*
X132791463Y-127434088D01*
X132639120Y-127559114D01*
X132639114Y-127559120D01*
X132514088Y-127711463D01*
X132421188Y-127885266D01*
X132421185Y-127885274D01*
X132363975Y-128073868D01*
X132344659Y-128270000D01*
X132344659Y-128270002D01*
X132351331Y-128337751D01*
X132341807Y-128434438D01*
X132296008Y-128520121D01*
X132220906Y-128581754D01*
X132127934Y-128609956D01*
X132031247Y-128600432D01*
X131945564Y-128554633D01*
X131927460Y-128538225D01*
X131483430Y-128094195D01*
X131429454Y-128013413D01*
X131410500Y-127918125D01*
X131410500Y-125766764D01*
X131429454Y-125671476D01*
X131483430Y-125590694D01*
X131516681Y-125562794D01*
X131571384Y-125524491D01*
X131649139Y-125470047D01*
X131810047Y-125309139D01*
X131876031Y-125214902D01*
X131946211Y-125147719D01*
X132036760Y-125112506D01*
X132133892Y-125114625D01*
X132222819Y-125153753D01*
X132283968Y-125214902D01*
X132349953Y-125309139D01*
X132510861Y-125470047D01*
X132510864Y-125470049D01*
X132510865Y-125470050D01*
X132697258Y-125600563D01*
X132697262Y-125600565D01*
X132697266Y-125600568D01*
X132697270Y-125600569D01*
X132697272Y-125600571D01*
X132821008Y-125658270D01*
X132903504Y-125696739D01*
X133123308Y-125755635D01*
X133142984Y-125757356D01*
X133349994Y-125775468D01*
X133350000Y-125775468D01*
X133350006Y-125775468D01*
X133529668Y-125759749D01*
X133576692Y-125755635D01*
X133796496Y-125696739D01*
X134002734Y-125600568D01*
X134189139Y-125470047D01*
X134350047Y-125309139D01*
X134416033Y-125214899D01*
X134486209Y-125147720D01*
X134576757Y-125112506D01*
X134673889Y-125114625D01*
X134762817Y-125153752D01*
X134823968Y-125214903D01*
X134889949Y-125309134D01*
X134889953Y-125309139D01*
X135050861Y-125470047D01*
X135050864Y-125470049D01*
X135050865Y-125470050D01*
X135237258Y-125600563D01*
X135237262Y-125600565D01*
X135237266Y-125600568D01*
X135237270Y-125600569D01*
X135237272Y-125600571D01*
X135361008Y-125658270D01*
X135443504Y-125696739D01*
X135663308Y-125755635D01*
X135682984Y-125757356D01*
X135889994Y-125775468D01*
X135890000Y-125775468D01*
X135890006Y-125775468D01*
X136069668Y-125759749D01*
X136116692Y-125755635D01*
X136336496Y-125696739D01*
X136542734Y-125600568D01*
X136729139Y-125470047D01*
X136890047Y-125309139D01*
X136956031Y-125214902D01*
X137026211Y-125147719D01*
X137116760Y-125112506D01*
X137213892Y-125114625D01*
X137302819Y-125153753D01*
X137363968Y-125214902D01*
X137429953Y-125309139D01*
X137590861Y-125470047D01*
X137590864Y-125470049D01*
X137590865Y-125470050D01*
X137777258Y-125600563D01*
X137777262Y-125600565D01*
X137777266Y-125600568D01*
X137777270Y-125600569D01*
X137777272Y-125600571D01*
X137901008Y-125658270D01*
X137983504Y-125696739D01*
X138203308Y-125755635D01*
X138222984Y-125757356D01*
X138429994Y-125775468D01*
X138430000Y-125775468D01*
X138430006Y-125775468D01*
X138609668Y-125759749D01*
X138656692Y-125755635D01*
X138876496Y-125696739D01*
X139082734Y-125600568D01*
X139269139Y-125470047D01*
X139430047Y-125309139D01*
X139560568Y-125122734D01*
X139656739Y-124916496D01*
X139715635Y-124696692D01*
X139735468Y-124470000D01*
X139735468Y-124469994D01*
X139715636Y-124243320D01*
X139715635Y-124243308D01*
X139656739Y-124023504D01*
X139560568Y-123817266D01*
X139560565Y-123817262D01*
X139560563Y-123817258D01*
X139430050Y-123630865D01*
X139430049Y-123630864D01*
X139430047Y-123630861D01*
X139269139Y-123469953D01*
X139269135Y-123469950D01*
X139269134Y-123469949D01*
X139082741Y-123339436D01*
X139082727Y-123339428D01*
X138876499Y-123243262D01*
X138876496Y-123243261D01*
X138656694Y-123184365D01*
X138656679Y-123184363D01*
X138430006Y-123164532D01*
X138429994Y-123164532D01*
X138203320Y-123184363D01*
X138203305Y-123184365D01*
X137983503Y-123243261D01*
X137983500Y-123243262D01*
X137777272Y-123339428D01*
X137777258Y-123339436D01*
X137590865Y-123469949D01*
X137429949Y-123630865D01*
X137363969Y-123725096D01*
X137293788Y-123792280D01*
X137203239Y-123827493D01*
X137106107Y-123825374D01*
X137017180Y-123786245D01*
X136956031Y-123725096D01*
X136890050Y-123630865D01*
X136890049Y-123630864D01*
X136890047Y-123630861D01*
X136729139Y-123469953D01*
X136729135Y-123469950D01*
X136729134Y-123469949D01*
X136651381Y-123415506D01*
X136584197Y-123345325D01*
X136548984Y-123254776D01*
X136551103Y-123157644D01*
X136590232Y-123068717D01*
X136618125Y-123035473D01*
X141329691Y-118323908D01*
X141410473Y-118269932D01*
X141505761Y-118250978D01*
X141601049Y-118269932D01*
X141681827Y-118323905D01*
X141737738Y-118379816D01*
X141737740Y-118379817D01*
X141737742Y-118379819D01*
X141890470Y-118475785D01*
X141890473Y-118475786D01*
X141890478Y-118475789D01*
X142060745Y-118535368D01*
X142060754Y-118535369D01*
X142239996Y-118555565D01*
X142240000Y-118555565D01*
X142240004Y-118555565D01*
X142379908Y-118539801D01*
X142419255Y-118535368D01*
X142589522Y-118475789D01*
X142589527Y-118475785D01*
X142589529Y-118475785D01*
X142742257Y-118379819D01*
X142742256Y-118379819D01*
X142742262Y-118379816D01*
X142869816Y-118252262D01*
X142932036Y-118153240D01*
X142965785Y-118099529D01*
X142965785Y-118099527D01*
X142965789Y-118099522D01*
X143025368Y-117929255D01*
X143039153Y-117806904D01*
X143068655Y-117714342D01*
X143110513Y-117658720D01*
X146964432Y-113804802D01*
X147045212Y-113750828D01*
X147140500Y-113731874D01*
X147235788Y-113750828D01*
G37*
%TD.AperFunction*%
%TA.AperFunction,Conductor*%
G36*
X129593892Y-125114625D02*
G01*
X129682819Y-125153753D01*
X129743968Y-125214902D01*
X129809953Y-125309139D01*
X129970861Y-125470047D01*
X129970864Y-125470049D01*
X130103319Y-125562794D01*
X130170504Y-125632975D01*
X130205717Y-125723524D01*
X130209500Y-125766764D01*
X130209500Y-128175665D01*
X130209499Y-128175683D01*
X130209499Y-128349057D01*
X130250421Y-128501781D01*
X130250422Y-128501784D01*
X130279357Y-128551900D01*
X130279360Y-128551904D01*
X130329480Y-128638716D01*
X130441284Y-128750520D01*
X130441286Y-128750521D01*
X131401221Y-129710456D01*
X131455197Y-129791238D01*
X131474151Y-129886526D01*
X131455197Y-129981814D01*
X131401221Y-130062596D01*
X131320439Y-130116572D01*
X131225151Y-130135526D01*
X127716698Y-130135526D01*
X127621410Y-130116572D01*
X127540628Y-130062596D01*
X127486652Y-129981814D01*
X127467698Y-129886526D01*
X127486652Y-129791238D01*
X127501053Y-129762034D01*
X127506967Y-129751790D01*
X127530636Y-129710792D01*
X127530639Y-129710789D01*
X127530638Y-129710789D01*
X127530639Y-129710788D01*
X127559577Y-129660669D01*
X127600499Y-129507943D01*
X127600500Y-129507943D01*
X127600500Y-125961488D01*
X127619454Y-125866200D01*
X127673430Y-125785418D01*
X127754212Y-125731442D01*
X127849500Y-125712488D01*
X127913940Y-125720971D01*
X128043308Y-125755635D01*
X128062984Y-125757356D01*
X128269994Y-125775468D01*
X128270000Y-125775468D01*
X128270006Y-125775468D01*
X128449668Y-125759749D01*
X128496692Y-125755635D01*
X128716496Y-125696739D01*
X128922734Y-125600568D01*
X129109139Y-125470047D01*
X129270047Y-125309139D01*
X129336031Y-125214902D01*
X129406211Y-125147719D01*
X129496760Y-125112506D01*
X129593892Y-125114625D01*
G37*
%TD.AperFunction*%
%TA.AperFunction,Conductor*%
G36*
X116893892Y-109874625D02*
G01*
X116982819Y-109913753D01*
X117043968Y-109974902D01*
X117109953Y-110069139D01*
X117270861Y-110230047D01*
X117270864Y-110230049D01*
X117270865Y-110230050D01*
X117457258Y-110360563D01*
X117457262Y-110360565D01*
X117457266Y-110360568D01*
X117663504Y-110456739D01*
X117883308Y-110515635D01*
X117902984Y-110517356D01*
X118109994Y-110535468D01*
X118110000Y-110535468D01*
X118110006Y-110535468D01*
X118298287Y-110518995D01*
X118336692Y-110515635D01*
X118466057Y-110480971D01*
X118563001Y-110474618D01*
X118655000Y-110505848D01*
X118728045Y-110569907D01*
X118771016Y-110657042D01*
X118779500Y-110721488D01*
X118779500Y-117192438D01*
X118760546Y-117287726D01*
X118706570Y-117368508D01*
X115201286Y-120873792D01*
X115201284Y-120873794D01*
X115201283Y-120873793D01*
X115089480Y-120985597D01*
X115089477Y-120985601D01*
X115053108Y-121048596D01*
X115053107Y-121048598D01*
X115010423Y-121122526D01*
X115010422Y-121122529D01*
X114969499Y-121275257D01*
X114969499Y-121453436D01*
X114969500Y-121453449D01*
X114969500Y-123173236D01*
X114950546Y-123268524D01*
X114896570Y-123349306D01*
X114863319Y-123377206D01*
X114730864Y-123469950D01*
X114569949Y-123630865D01*
X114503969Y-123725096D01*
X114433788Y-123792280D01*
X114343239Y-123827493D01*
X114246107Y-123825374D01*
X114157180Y-123786245D01*
X114096031Y-123725096D01*
X114030050Y-123630865D01*
X114030049Y-123630864D01*
X114030047Y-123630861D01*
X113869139Y-123469953D01*
X113869135Y-123469950D01*
X113869134Y-123469949D01*
X113682741Y-123339436D01*
X113682727Y-123339428D01*
X113476499Y-123243262D01*
X113476496Y-123243261D01*
X113256694Y-123184365D01*
X113256679Y-123184363D01*
X113030006Y-123164532D01*
X113029994Y-123164532D01*
X112803320Y-123184363D01*
X112803305Y-123184365D01*
X112583503Y-123243261D01*
X112544731Y-123261341D01*
X112450360Y-123284433D01*
X112354336Y-123269653D01*
X112271277Y-123219251D01*
X112213829Y-123140901D01*
X112190737Y-123046530D01*
X112190500Y-123035670D01*
X112190500Y-110664329D01*
X112209454Y-110569041D01*
X112263430Y-110488259D01*
X112344212Y-110434283D01*
X112439500Y-110415329D01*
X112534788Y-110434283D01*
X112544712Y-110438649D01*
X112583504Y-110456739D01*
X112803308Y-110515635D01*
X112822984Y-110517356D01*
X113029994Y-110535468D01*
X113030000Y-110535468D01*
X113030006Y-110535468D01*
X113218287Y-110518995D01*
X113256692Y-110515635D01*
X113476496Y-110456739D01*
X113682734Y-110360568D01*
X113869139Y-110230047D01*
X114030047Y-110069139D01*
X114096031Y-109974902D01*
X114166211Y-109907719D01*
X114256760Y-109872506D01*
X114353892Y-109874625D01*
X114442819Y-109913753D01*
X114503968Y-109974902D01*
X114569953Y-110069139D01*
X114730861Y-110230047D01*
X114730864Y-110230049D01*
X114730865Y-110230050D01*
X114917258Y-110360563D01*
X114917262Y-110360565D01*
X114917266Y-110360568D01*
X115123504Y-110456739D01*
X115343308Y-110515635D01*
X115362984Y-110517356D01*
X115569994Y-110535468D01*
X115570000Y-110535468D01*
X115570006Y-110535468D01*
X115758287Y-110518995D01*
X115796692Y-110515635D01*
X116016496Y-110456739D01*
X116222734Y-110360568D01*
X116409139Y-110230047D01*
X116570047Y-110069139D01*
X116636031Y-109974902D01*
X116706211Y-109907719D01*
X116796760Y-109872506D01*
X116893892Y-109874625D01*
G37*
%TD.AperFunction*%
%TA.AperFunction,Conductor*%
G36*
X117355788Y-120635143D02*
G01*
X117436570Y-120689119D01*
X117490546Y-120769901D01*
X117509500Y-120865189D01*
X117509500Y-123173236D01*
X117490546Y-123268524D01*
X117436570Y-123349306D01*
X117403319Y-123377206D01*
X117270864Y-123469950D01*
X117109949Y-123630865D01*
X117043969Y-123725096D01*
X116973788Y-123792280D01*
X116883239Y-123827493D01*
X116786107Y-123825374D01*
X116697180Y-123786245D01*
X116636031Y-123725096D01*
X116570050Y-123630865D01*
X116570049Y-123630864D01*
X116570047Y-123630861D01*
X116409139Y-123469953D01*
X116409133Y-123469949D01*
X116276681Y-123377206D01*
X116209496Y-123307025D01*
X116174283Y-123216476D01*
X116170500Y-123173236D01*
X116170500Y-121706189D01*
X116189454Y-121610901D01*
X116243430Y-121530119D01*
X117084430Y-120689119D01*
X117165212Y-120635143D01*
X117260500Y-120616189D01*
X117355788Y-120635143D01*
G37*
%TD.AperFunction*%
%TA.AperFunction,Conductor*%
G36*
X124513892Y-109874625D02*
G01*
X124602819Y-109913753D01*
X124663968Y-109974902D01*
X124729953Y-110069139D01*
X124890861Y-110230047D01*
X124890864Y-110230049D01*
X124890865Y-110230050D01*
X125077258Y-110360563D01*
X125077262Y-110360565D01*
X125077266Y-110360568D01*
X125283504Y-110456739D01*
X125503308Y-110515635D01*
X125522984Y-110517356D01*
X125729994Y-110535468D01*
X125730000Y-110535468D01*
X125730006Y-110535468D01*
X125918287Y-110518995D01*
X125956692Y-110515635D01*
X125983221Y-110508526D01*
X126080160Y-110502170D01*
X126172160Y-110533397D01*
X126223736Y-110572971D01*
X126326570Y-110675805D01*
X126380546Y-110756587D01*
X126399500Y-110851875D01*
X126399500Y-122978511D01*
X126380546Y-123073799D01*
X126326570Y-123154581D01*
X126245788Y-123208557D01*
X126150500Y-123227511D01*
X126086056Y-123219027D01*
X125956697Y-123184366D01*
X125956693Y-123184365D01*
X125956692Y-123184365D01*
X125956689Y-123184364D01*
X125956679Y-123184363D01*
X125730006Y-123164532D01*
X125729994Y-123164532D01*
X125503320Y-123184363D01*
X125503305Y-123184365D01*
X125283503Y-123243261D01*
X125283500Y-123243262D01*
X125077272Y-123339428D01*
X125077258Y-123339436D01*
X124890865Y-123469949D01*
X124729949Y-123630865D01*
X124663969Y-123725096D01*
X124593788Y-123792280D01*
X124503239Y-123827493D01*
X124406107Y-123825374D01*
X124317180Y-123786245D01*
X124256031Y-123725096D01*
X124190050Y-123630865D01*
X124190049Y-123630864D01*
X124190047Y-123630861D01*
X124029139Y-123469953D01*
X124029135Y-123469950D01*
X124029134Y-123469949D01*
X123842741Y-123339436D01*
X123842727Y-123339428D01*
X123636499Y-123243262D01*
X123636496Y-123243261D01*
X123416694Y-123184365D01*
X123416679Y-123184363D01*
X123190006Y-123164532D01*
X123189994Y-123164532D01*
X122963320Y-123184363D01*
X122963305Y-123184365D01*
X122743503Y-123243261D01*
X122743500Y-123243262D01*
X122537272Y-123339428D01*
X122537258Y-123339436D01*
X122350865Y-123469949D01*
X122189949Y-123630865D01*
X122123969Y-123725096D01*
X122053788Y-123792280D01*
X121963239Y-123827493D01*
X121866107Y-123825374D01*
X121777180Y-123786245D01*
X121716031Y-123725096D01*
X121650050Y-123630865D01*
X121650049Y-123630864D01*
X121650047Y-123630861D01*
X121489139Y-123469953D01*
X121489135Y-123469950D01*
X121489134Y-123469949D01*
X121302741Y-123339436D01*
X121302727Y-123339428D01*
X121096499Y-123243262D01*
X121096496Y-123243261D01*
X120876694Y-123184365D01*
X120876679Y-123184363D01*
X120650006Y-123164532D01*
X120649994Y-123164532D01*
X120423320Y-123184363D01*
X120423305Y-123184365D01*
X120203503Y-123243261D01*
X120203500Y-123243262D01*
X119997272Y-123339428D01*
X119997258Y-123339436D01*
X119810865Y-123469949D01*
X119649949Y-123630865D01*
X119583969Y-123725096D01*
X119513788Y-123792280D01*
X119423239Y-123827493D01*
X119326107Y-123825374D01*
X119237180Y-123786245D01*
X119176031Y-123725096D01*
X119110050Y-123630865D01*
X119110049Y-123630864D01*
X119110047Y-123630861D01*
X118949139Y-123469953D01*
X118949133Y-123469949D01*
X118816681Y-123377206D01*
X118749496Y-123307025D01*
X118714283Y-123216476D01*
X118710500Y-123173236D01*
X118710500Y-119731874D01*
X118729454Y-119636586D01*
X118783428Y-119555806D01*
X124447608Y-113891625D01*
X124528387Y-113837652D01*
X124595795Y-113820264D01*
X124639255Y-113815368D01*
X124809522Y-113755789D01*
X124809527Y-113755785D01*
X124809529Y-113755785D01*
X124962257Y-113659819D01*
X124962256Y-113659819D01*
X124962262Y-113659816D01*
X125089816Y-113532262D01*
X125181685Y-113386054D01*
X125185785Y-113379529D01*
X125185785Y-113379527D01*
X125185789Y-113379522D01*
X125245368Y-113209255D01*
X125253987Y-113132758D01*
X125265565Y-113030003D01*
X125265565Y-113029996D01*
X125245369Y-112850754D01*
X125245368Y-112850745D01*
X125185789Y-112680478D01*
X125185786Y-112680473D01*
X125185785Y-112680470D01*
X125089819Y-112527742D01*
X125089817Y-112527740D01*
X125089816Y-112527738D01*
X124962262Y-112400184D01*
X124962259Y-112400182D01*
X124962257Y-112400180D01*
X124809529Y-112304214D01*
X124809524Y-112304212D01*
X124809522Y-112304211D01*
X124639255Y-112244632D01*
X124639251Y-112244631D01*
X124639245Y-112244630D01*
X124460004Y-112224435D01*
X124459996Y-112224435D01*
X124280754Y-112244630D01*
X124280746Y-112244631D01*
X124280745Y-112244632D01*
X124110478Y-112304211D01*
X124110476Y-112304211D01*
X124110476Y-112304212D01*
X124110470Y-112304214D01*
X123957742Y-112400180D01*
X123830180Y-112527742D01*
X123734214Y-112680470D01*
X123734211Y-112680476D01*
X123734211Y-112680478D01*
X123674718Y-112850501D01*
X123674632Y-112850746D01*
X123674630Y-112850754D01*
X123669735Y-112894201D01*
X123640232Y-112986768D01*
X123598371Y-113042392D01*
X120405570Y-116235194D01*
X120324788Y-116289170D01*
X120229500Y-116308124D01*
X120134212Y-116289170D01*
X120053430Y-116235194D01*
X119999454Y-116154412D01*
X119980500Y-116059124D01*
X119980500Y-110721488D01*
X119999454Y-110626200D01*
X120053430Y-110545418D01*
X120134212Y-110491442D01*
X120229500Y-110472488D01*
X120293940Y-110480971D01*
X120423308Y-110515635D01*
X120442984Y-110517356D01*
X120649994Y-110535468D01*
X120650000Y-110535468D01*
X120650006Y-110535468D01*
X120838287Y-110518995D01*
X120876692Y-110515635D01*
X121096496Y-110456739D01*
X121302734Y-110360568D01*
X121489139Y-110230047D01*
X121650047Y-110069139D01*
X121716031Y-109974902D01*
X121786211Y-109907719D01*
X121876760Y-109872506D01*
X121973892Y-109874625D01*
X122062819Y-109913753D01*
X122123968Y-109974902D01*
X122189953Y-110069139D01*
X122350861Y-110230047D01*
X122350864Y-110230049D01*
X122350865Y-110230050D01*
X122537258Y-110360563D01*
X122537262Y-110360565D01*
X122537266Y-110360568D01*
X122743504Y-110456739D01*
X122963308Y-110515635D01*
X122982984Y-110517356D01*
X123189994Y-110535468D01*
X123190000Y-110535468D01*
X123190006Y-110535468D01*
X123378287Y-110518995D01*
X123416692Y-110515635D01*
X123636496Y-110456739D01*
X123842734Y-110360568D01*
X124029139Y-110230047D01*
X124190047Y-110069139D01*
X124256031Y-109974902D01*
X124326211Y-109907719D01*
X124416760Y-109872506D01*
X124513892Y-109874625D01*
G37*
%TD.AperFunction*%
%TA.AperFunction,Conductor*%
G36*
X148875788Y-99275142D02*
G01*
X148956570Y-99329118D01*
X149010546Y-99409900D01*
X149029500Y-99505188D01*
X149029500Y-108822490D01*
X149010546Y-108917778D01*
X148956570Y-108998560D01*
X134510997Y-123444132D01*
X134430215Y-123498108D01*
X134334927Y-123517062D01*
X134239639Y-123498108D01*
X134192107Y-123472031D01*
X134002741Y-123339436D01*
X134002727Y-123339428D01*
X133796499Y-123243262D01*
X133796496Y-123243261D01*
X133576694Y-123184365D01*
X133576679Y-123184363D01*
X133350006Y-123164532D01*
X133349994Y-123164532D01*
X133123320Y-123184363D01*
X133123305Y-123184365D01*
X132903503Y-123243261D01*
X132903500Y-123243262D01*
X132697272Y-123339428D01*
X132697258Y-123339436D01*
X132510865Y-123469949D01*
X132349949Y-123630865D01*
X132283969Y-123725096D01*
X132213788Y-123792280D01*
X132123239Y-123827493D01*
X132026107Y-123825374D01*
X131937180Y-123786245D01*
X131876031Y-123725096D01*
X131810050Y-123630865D01*
X131810049Y-123630864D01*
X131810047Y-123630861D01*
X131649139Y-123469953D01*
X131649135Y-123469950D01*
X131649134Y-123469949D01*
X131462741Y-123339436D01*
X131462727Y-123339428D01*
X131256499Y-123243262D01*
X131256496Y-123243261D01*
X131036694Y-123184365D01*
X131036679Y-123184363D01*
X130810006Y-123164532D01*
X130809994Y-123164532D01*
X130583320Y-123184363D01*
X130583305Y-123184365D01*
X130363503Y-123243261D01*
X130363500Y-123243262D01*
X130157272Y-123339428D01*
X130157258Y-123339436D01*
X129970865Y-123469949D01*
X129809949Y-123630865D01*
X129743969Y-123725096D01*
X129673788Y-123792280D01*
X129583239Y-123827493D01*
X129486107Y-123825374D01*
X129397180Y-123786245D01*
X129336031Y-123725096D01*
X129270050Y-123630865D01*
X129270049Y-123630864D01*
X129270047Y-123630861D01*
X129109139Y-123469953D01*
X129109135Y-123469950D01*
X129109134Y-123469949D01*
X128922741Y-123339436D01*
X128922727Y-123339428D01*
X128716499Y-123243262D01*
X128716496Y-123243261D01*
X128496694Y-123184365D01*
X128496679Y-123184363D01*
X128270006Y-123164532D01*
X128269994Y-123164532D01*
X128043320Y-123184363D01*
X128043302Y-123184366D01*
X127913944Y-123219027D01*
X127816997Y-123225381D01*
X127724998Y-123194150D01*
X127651954Y-123130091D01*
X127608984Y-123042955D01*
X127600500Y-122978511D01*
X127600500Y-111566510D01*
X127619454Y-111471222D01*
X127673430Y-111390440D01*
X127754212Y-111336464D01*
X127849500Y-111317510D01*
X127944788Y-111336464D01*
X128025570Y-111390440D01*
X131303843Y-114668713D01*
X131303845Y-114668716D01*
X131415649Y-114780520D01*
X131502456Y-114830637D01*
X131502459Y-114830639D01*
X131552573Y-114859573D01*
X131552580Y-114859577D01*
X131616537Y-114876714D01*
X131705304Y-114900499D01*
X131705306Y-114900500D01*
X131705308Y-114900500D01*
X131863422Y-114900500D01*
X133265666Y-114900500D01*
X133265682Y-114900501D01*
X133280943Y-114900501D01*
X133439056Y-114900501D01*
X133439057Y-114900501D01*
X133591785Y-114859577D01*
X133641904Y-114830639D01*
X133728716Y-114780520D01*
X133840520Y-114668716D01*
X133840520Y-114668714D01*
X133860980Y-114648255D01*
X133861000Y-114648233D01*
X135912777Y-112596456D01*
X135993556Y-112542483D01*
X136088844Y-112523529D01*
X136184132Y-112542483D01*
X136264914Y-112596459D01*
X136299678Y-112640053D01*
X136370180Y-112752257D01*
X136370182Y-112752259D01*
X136370184Y-112752262D01*
X136497738Y-112879816D01*
X136497740Y-112879817D01*
X136497742Y-112879819D01*
X136650470Y-112975785D01*
X136650473Y-112975786D01*
X136650478Y-112975789D01*
X136820745Y-113035368D01*
X136820754Y-113035369D01*
X136999996Y-113055565D01*
X137000000Y-113055565D01*
X137000004Y-113055565D01*
X137139908Y-113039801D01*
X137179255Y-113035368D01*
X137349522Y-112975789D01*
X137476173Y-112896209D01*
X137488178Y-112888666D01*
X137578945Y-112854018D01*
X137620654Y-112850500D01*
X137845666Y-112850500D01*
X137845682Y-112850501D01*
X137860943Y-112850501D01*
X138019056Y-112850501D01*
X138019057Y-112850501D01*
X138171785Y-112809577D01*
X138218427Y-112782647D01*
X138239458Y-112770506D01*
X138239460Y-112770504D01*
X138239466Y-112770501D01*
X138308716Y-112730520D01*
X138420520Y-112618716D01*
X138420521Y-112618713D01*
X140238713Y-110800521D01*
X140238716Y-110800520D01*
X140350520Y-110688716D01*
X140394151Y-110613142D01*
X140458206Y-110540100D01*
X140545341Y-110497128D01*
X140642288Y-110490773D01*
X140674231Y-110497126D01*
X140743308Y-110515635D01*
X140762984Y-110517356D01*
X140969994Y-110535468D01*
X140970000Y-110535468D01*
X140970006Y-110535468D01*
X141158287Y-110518995D01*
X141196692Y-110515635D01*
X141416496Y-110456739D01*
X141622734Y-110360568D01*
X141809139Y-110230047D01*
X141856584Y-110182601D01*
X141937362Y-110128627D01*
X142032650Y-110109672D01*
X142127938Y-110128625D01*
X142208720Y-110182601D01*
X142262697Y-110263382D01*
X142265941Y-110271627D01*
X142266204Y-110272331D01*
X142352454Y-110387546D01*
X142467669Y-110473796D01*
X142602517Y-110524091D01*
X142662127Y-110530500D01*
X144357872Y-110530499D01*
X144417483Y-110524091D01*
X144552331Y-110473796D01*
X144667546Y-110387546D01*
X144753796Y-110272331D01*
X144804091Y-110137483D01*
X144810500Y-110077873D01*
X144810499Y-108382128D01*
X144804091Y-108322517D01*
X144753796Y-108187669D01*
X144667546Y-108072454D01*
X144552331Y-107986204D01*
X144459215Y-107951474D01*
X144417481Y-107935908D01*
X144357873Y-107929500D01*
X142662134Y-107929500D01*
X142662130Y-107929500D01*
X142662128Y-107929501D01*
X142649314Y-107930878D01*
X142602519Y-107935908D01*
X142602515Y-107935909D01*
X142467670Y-107986203D01*
X142352455Y-108072453D01*
X142352453Y-108072455D01*
X142266202Y-108187671D01*
X142265952Y-108188344D01*
X142264946Y-108189971D01*
X142257670Y-108203298D01*
X142256955Y-108202907D01*
X142214893Y-108271001D01*
X142136090Y-108327826D01*
X142041539Y-108350168D01*
X141945635Y-108334627D01*
X141862978Y-108283568D01*
X141856610Y-108277424D01*
X141809139Y-108229953D01*
X141809135Y-108229950D01*
X141809134Y-108229949D01*
X141622741Y-108099436D01*
X141622727Y-108099428D01*
X141416499Y-108003262D01*
X141416496Y-108003261D01*
X141196694Y-107944365D01*
X141196679Y-107944363D01*
X140970006Y-107924532D01*
X140970004Y-107924532D01*
X140970001Y-107924532D01*
X140970000Y-107924532D01*
X140862112Y-107933971D01*
X140741201Y-107944549D01*
X140644624Y-107933971D01*
X140559445Y-107887241D01*
X140498634Y-107811471D01*
X140471447Y-107718197D01*
X140470500Y-107696496D01*
X140470500Y-106586240D01*
X140489454Y-106490952D01*
X140543430Y-106410170D01*
X141639565Y-105314035D01*
X142745199Y-104208400D01*
X142825978Y-104154427D01*
X142921266Y-104135473D01*
X143016554Y-104154427D01*
X143097336Y-104208403D01*
X143151312Y-104289185D01*
X143169570Y-104365865D01*
X143172205Y-104401031D01*
X143172205Y-104401034D01*
X143172206Y-104401036D01*
X143174241Y-104409953D01*
X143230586Y-104656818D01*
X143326436Y-104901041D01*
X143326444Y-104901057D01*
X143457620Y-105128261D01*
X143621202Y-105333386D01*
X143621213Y-105333397D01*
X143742793Y-105446206D01*
X143813529Y-105511839D01*
X143860391Y-105543789D01*
X144030300Y-105659632D01*
X144030302Y-105659633D01*
X144030304Y-105659634D01*
X144169846Y-105726834D01*
X144266676Y-105773465D01*
X144266677Y-105773465D01*
X144266685Y-105773469D01*
X144517393Y-105850802D01*
X144776826Y-105889906D01*
X144776830Y-105889906D01*
X145039186Y-105889906D01*
X145039190Y-105889906D01*
X145298623Y-105850802D01*
X145549331Y-105773469D01*
X145785712Y-105659634D01*
X146002487Y-105511839D01*
X146194813Y-105333387D01*
X146358394Y-105128263D01*
X146489576Y-104901049D01*
X146585428Y-104656822D01*
X146643810Y-104401036D01*
X146663416Y-104139406D01*
X146643810Y-103877776D01*
X146596865Y-103672100D01*
X146585429Y-103621993D01*
X146489579Y-103377770D01*
X146489577Y-103377767D01*
X146489576Y-103377763D01*
X146426550Y-103268599D01*
X146358395Y-103150550D01*
X146194813Y-102945425D01*
X146194802Y-102945414D01*
X146002487Y-102766973D01*
X145785715Y-102619179D01*
X145777646Y-102614521D01*
X145778734Y-102612635D01*
X145712845Y-102563029D01*
X145663499Y-102479338D01*
X145649936Y-102383135D01*
X145674221Y-102289064D01*
X145722469Y-102221077D01*
X146493027Y-101450520D01*
X146493030Y-101450519D01*
X146604834Y-101338715D01*
X146604837Y-101338708D01*
X146614770Y-101325765D01*
X146615337Y-101326200D01*
X146641670Y-101291877D01*
X148604432Y-99329116D01*
X148685212Y-99275142D01*
X148780500Y-99256188D01*
X148875788Y-99275142D01*
G37*
%TD.AperFunction*%
%TA.AperFunction,Conductor*%
G36*
X110133940Y-110480971D02*
G01*
X110263308Y-110515635D01*
X110282984Y-110517356D01*
X110489994Y-110535468D01*
X110490000Y-110535468D01*
X110490006Y-110535468D01*
X110718798Y-110515451D01*
X110815375Y-110526027D01*
X110900554Y-110572758D01*
X110961366Y-110648527D01*
X110988552Y-110741801D01*
X110989500Y-110763503D01*
X110989500Y-122936496D01*
X110970546Y-123031784D01*
X110916570Y-123112566D01*
X110835788Y-123166542D01*
X110740500Y-123185496D01*
X110718799Y-123184549D01*
X110606250Y-123174702D01*
X110490000Y-123164532D01*
X110489998Y-123164532D01*
X110489996Y-123164532D01*
X110489994Y-123164532D01*
X110263320Y-123184363D01*
X110263302Y-123184366D01*
X110133944Y-123219027D01*
X110036997Y-123225381D01*
X109944998Y-123194150D01*
X109871954Y-123130091D01*
X109828984Y-123042955D01*
X109820500Y-122978511D01*
X109820500Y-110721488D01*
X109839454Y-110626200D01*
X109893430Y-110545418D01*
X109974212Y-110491442D01*
X110069500Y-110472488D01*
X110133940Y-110480971D01*
G37*
%TD.AperFunction*%
%TA.AperFunction,Conductor*%
G36*
X157353800Y-117459454D02*
G01*
X157434582Y-117513430D01*
X157488558Y-117594212D01*
X157507512Y-117689500D01*
X157499028Y-117753940D01*
X157464365Y-117883308D01*
X157464365Y-117883309D01*
X157464363Y-117883320D01*
X157444532Y-118109994D01*
X157444532Y-118110005D01*
X157464363Y-118336679D01*
X157464364Y-118336688D01*
X157464365Y-118336692D01*
X157499028Y-118466057D01*
X157505382Y-118563001D01*
X157474152Y-118655000D01*
X157410093Y-118728045D01*
X157322958Y-118771016D01*
X157258512Y-118779500D01*
X152751875Y-118779500D01*
X152656587Y-118760546D01*
X152575805Y-118706570D01*
X152472971Y-118603736D01*
X152418995Y-118522954D01*
X152400041Y-118427666D01*
X152408525Y-118363224D01*
X152415635Y-118336692D01*
X152427072Y-118205965D01*
X152435468Y-118110005D01*
X152435468Y-118109994D01*
X152415636Y-117883320D01*
X152415635Y-117883308D01*
X152380971Y-117753942D01*
X152374618Y-117656999D01*
X152405848Y-117565000D01*
X152469907Y-117491955D01*
X152557042Y-117448984D01*
X152621488Y-117440500D01*
X157258512Y-117440500D01*
X157353800Y-117459454D01*
G37*
%TD.AperFunction*%
%TA.AperFunction,Conductor*%
G36*
X161297485Y-117459454D02*
G01*
X161378267Y-117513430D01*
X161406161Y-117546674D01*
X161521505Y-117711401D01*
X161688599Y-117878495D01*
X161727925Y-117906031D01*
X161795107Y-117976209D01*
X161830321Y-118066758D01*
X161828202Y-118163890D01*
X161789074Y-118252818D01*
X161727928Y-118313965D01*
X161688603Y-118341501D01*
X161521504Y-118508600D01*
X161406166Y-118673321D01*
X161335985Y-118740505D01*
X161245435Y-118775717D01*
X161202197Y-118779500D01*
X160241488Y-118779500D01*
X160146200Y-118760546D01*
X160065418Y-118706570D01*
X160011442Y-118625788D01*
X159992488Y-118530500D01*
X160000971Y-118466059D01*
X160035635Y-118336692D01*
X160047072Y-118205965D01*
X160055468Y-118110005D01*
X160055468Y-118109994D01*
X160035636Y-117883320D01*
X160035635Y-117883308D01*
X160000971Y-117753942D01*
X159994618Y-117656999D01*
X160025848Y-117565000D01*
X160089907Y-117491955D01*
X160177042Y-117448984D01*
X160241488Y-117440500D01*
X161202197Y-117440500D01*
X161297485Y-117459454D01*
G37*
%TD.AperFunction*%
%TA.AperFunction,Conductor*%
G36*
X157353800Y-114919454D02*
G01*
X157434582Y-114973430D01*
X157488558Y-115054212D01*
X157507512Y-115149500D01*
X157499028Y-115213940D01*
X157464365Y-115343308D01*
X157464365Y-115343309D01*
X157464363Y-115343320D01*
X157444532Y-115569994D01*
X157444532Y-115570005D01*
X157464363Y-115796679D01*
X157464364Y-115796688D01*
X157464365Y-115796692D01*
X157499028Y-115926057D01*
X157505382Y-116023001D01*
X157474152Y-116115000D01*
X157410093Y-116188045D01*
X157322958Y-116231016D01*
X157258512Y-116239500D01*
X152751875Y-116239500D01*
X152656587Y-116220546D01*
X152575805Y-116166570D01*
X152472971Y-116063736D01*
X152418995Y-115982954D01*
X152400041Y-115887666D01*
X152408525Y-115823224D01*
X152415635Y-115796692D01*
X152427072Y-115665965D01*
X152435468Y-115570005D01*
X152435468Y-115569994D01*
X152415636Y-115343320D01*
X152415635Y-115343308D01*
X152380971Y-115213942D01*
X152374618Y-115116999D01*
X152405848Y-115025000D01*
X152469907Y-114951955D01*
X152557042Y-114908984D01*
X152621488Y-114900500D01*
X157258512Y-114900500D01*
X157353800Y-114919454D01*
G37*
%TD.AperFunction*%
%TA.AperFunction,Conductor*%
G36*
X161297485Y-114919454D02*
G01*
X161378267Y-114973430D01*
X161406161Y-115006674D01*
X161521505Y-115171401D01*
X161688599Y-115338495D01*
X161727925Y-115366031D01*
X161795107Y-115436209D01*
X161830321Y-115526758D01*
X161828202Y-115623890D01*
X161789074Y-115712818D01*
X161727928Y-115773965D01*
X161688603Y-115801501D01*
X161521504Y-115968600D01*
X161406166Y-116133321D01*
X161335985Y-116200505D01*
X161245435Y-116235717D01*
X161202197Y-116239500D01*
X160241488Y-116239500D01*
X160146200Y-116220546D01*
X160065418Y-116166570D01*
X160011442Y-116085788D01*
X159992488Y-115990500D01*
X160000971Y-115926059D01*
X160035635Y-115796692D01*
X160047072Y-115665965D01*
X160055468Y-115570005D01*
X160055468Y-115569994D01*
X160035636Y-115343320D01*
X160035635Y-115343308D01*
X160000971Y-115213942D01*
X159994618Y-115116999D01*
X160025848Y-115025000D01*
X160089907Y-114951955D01*
X160177042Y-114908984D01*
X160241488Y-114900500D01*
X161202197Y-114900500D01*
X161297485Y-114919454D01*
G37*
%TD.AperFunction*%
%TA.AperFunction,Conductor*%
G36*
X159701280Y-99829454D02*
G01*
X159782062Y-99883430D01*
X160112048Y-100213416D01*
X161136570Y-101237937D01*
X161190546Y-101318719D01*
X161209500Y-101414007D01*
X161209500Y-102497865D01*
X161209500Y-102497868D01*
X161209501Y-102497872D01*
X161210304Y-102505343D01*
X161215908Y-102557480D01*
X161215909Y-102557484D01*
X161257630Y-102669343D01*
X161266204Y-102692331D01*
X161352454Y-102807546D01*
X161467669Y-102893796D01*
X161467670Y-102893796D01*
X161481927Y-102904469D01*
X161479454Y-102907771D01*
X161527965Y-102948305D01*
X161573006Y-103034389D01*
X161581675Y-103131156D01*
X161552653Y-103223875D01*
X161524855Y-103264605D01*
X161521513Y-103268587D01*
X161385965Y-103462169D01*
X161385961Y-103462177D01*
X161286098Y-103676333D01*
X161286097Y-103676335D01*
X161224935Y-103904598D01*
X161204341Y-104139994D01*
X161204341Y-104140005D01*
X161224935Y-104375401D01*
X161261648Y-104512419D01*
X161286097Y-104603663D01*
X161357726Y-104757272D01*
X161385965Y-104817830D01*
X161497509Y-104977132D01*
X161521505Y-105011401D01*
X161688599Y-105178495D01*
X161727925Y-105206031D01*
X161795107Y-105276209D01*
X161830321Y-105366758D01*
X161828202Y-105463890D01*
X161789074Y-105552818D01*
X161727928Y-105613965D01*
X161688603Y-105641501D01*
X161521504Y-105808600D01*
X161385965Y-106002169D01*
X161385961Y-106002177D01*
X161286098Y-106216333D01*
X161286097Y-106216335D01*
X161224935Y-106444598D01*
X161204341Y-106679994D01*
X161204341Y-106680005D01*
X161224935Y-106915401D01*
X161276770Y-107108856D01*
X161286097Y-107143663D01*
X161357726Y-107297272D01*
X161385965Y-107357830D01*
X161496119Y-107515147D01*
X161521505Y-107551401D01*
X161688599Y-107718495D01*
X161727925Y-107746031D01*
X161795107Y-107816209D01*
X161830321Y-107906758D01*
X161828202Y-108003890D01*
X161789074Y-108092818D01*
X161727928Y-108153965D01*
X161688603Y-108181501D01*
X161521504Y-108348600D01*
X161385965Y-108542169D01*
X161385961Y-108542177D01*
X161286098Y-108756333D01*
X161286097Y-108756335D01*
X161224935Y-108984598D01*
X161204341Y-109219994D01*
X161204341Y-109220005D01*
X161224935Y-109455401D01*
X161284176Y-109676496D01*
X161286097Y-109683663D01*
X161357726Y-109837272D01*
X161385965Y-109897830D01*
X161512034Y-110077876D01*
X161521505Y-110091401D01*
X161688599Y-110258495D01*
X161727925Y-110286031D01*
X161795107Y-110356209D01*
X161830321Y-110446758D01*
X161828202Y-110543890D01*
X161789074Y-110632818D01*
X161727928Y-110693965D01*
X161688603Y-110721501D01*
X161521504Y-110888600D01*
X161385965Y-111082169D01*
X161385961Y-111082177D01*
X161286098Y-111296333D01*
X161286097Y-111296335D01*
X161224935Y-111524598D01*
X161204341Y-111759994D01*
X161204341Y-111760005D01*
X161224935Y-111995401D01*
X161224937Y-111995408D01*
X161286097Y-112223663D01*
X161385965Y-112437830D01*
X161521505Y-112631401D01*
X161688599Y-112798495D01*
X161727925Y-112826031D01*
X161795107Y-112896209D01*
X161830321Y-112986758D01*
X161828202Y-113083890D01*
X161789074Y-113172818D01*
X161727928Y-113233965D01*
X161688603Y-113261501D01*
X161521504Y-113428600D01*
X161406166Y-113593321D01*
X161335985Y-113660505D01*
X161245435Y-113695717D01*
X161202197Y-113699500D01*
X160241488Y-113699500D01*
X160146200Y-113680546D01*
X160065418Y-113626570D01*
X160011442Y-113545788D01*
X159992488Y-113450500D01*
X160000971Y-113386059D01*
X160035635Y-113256692D01*
X160047072Y-113125965D01*
X160055468Y-113030005D01*
X160055468Y-113029994D01*
X160035636Y-112803320D01*
X160035635Y-112803308D01*
X159976739Y-112583504D01*
X159904807Y-112429246D01*
X159880571Y-112377272D01*
X159880563Y-112377258D01*
X159750050Y-112190865D01*
X159750049Y-112190864D01*
X159750047Y-112190861D01*
X159589139Y-112029953D01*
X159589133Y-112029949D01*
X159539793Y-111995401D01*
X159494902Y-111963968D01*
X159427719Y-111893789D01*
X159392506Y-111803240D01*
X159394625Y-111706108D01*
X159433753Y-111617181D01*
X159494902Y-111556031D01*
X159589139Y-111490047D01*
X159750047Y-111329139D01*
X159880568Y-111142734D01*
X159976739Y-110936496D01*
X160035635Y-110716692D01*
X160050620Y-110545418D01*
X160055468Y-110490005D01*
X160055468Y-110489994D01*
X160035636Y-110263320D01*
X160035635Y-110263308D01*
X159976739Y-110043504D01*
X159908810Y-109897830D01*
X159880571Y-109837272D01*
X159880563Y-109837258D01*
X159750050Y-109650865D01*
X159750049Y-109650864D01*
X159750047Y-109650861D01*
X159589139Y-109489953D01*
X159589133Y-109489949D01*
X159539793Y-109455401D01*
X159494902Y-109423968D01*
X159427719Y-109353789D01*
X159392506Y-109263240D01*
X159394625Y-109166108D01*
X159433753Y-109077181D01*
X159494902Y-109016031D01*
X159589139Y-108950047D01*
X159750047Y-108789139D01*
X159880568Y-108602734D01*
X159976739Y-108396496D01*
X160035635Y-108176692D01*
X160043763Y-108083789D01*
X160055468Y-107950005D01*
X160055468Y-107949994D01*
X160035636Y-107723320D01*
X160035635Y-107723308D01*
X159976739Y-107503504D01*
X159880568Y-107297266D01*
X159880565Y-107297262D01*
X159880563Y-107297258D01*
X159750050Y-107110865D01*
X159750049Y-107110864D01*
X159750047Y-107110861D01*
X159589139Y-106949953D01*
X159589133Y-106949949D01*
X159539793Y-106915401D01*
X159494902Y-106883968D01*
X159427719Y-106813789D01*
X159392506Y-106723240D01*
X159394625Y-106626108D01*
X159433753Y-106537181D01*
X159494902Y-106476031D01*
X159589139Y-106410047D01*
X159750047Y-106249139D01*
X159880568Y-106062734D01*
X159976739Y-105856496D01*
X160035635Y-105636692D01*
X160046506Y-105512433D01*
X160055468Y-105410005D01*
X160055468Y-105409994D01*
X160035636Y-105183320D01*
X160035635Y-105183308D01*
X159976739Y-104963504D01*
X159907342Y-104814682D01*
X159880571Y-104757272D01*
X159880563Y-104757258D01*
X159750050Y-104570865D01*
X159750049Y-104570864D01*
X159750047Y-104570861D01*
X159589139Y-104409953D01*
X159589135Y-104409950D01*
X159589134Y-104409949D01*
X159402741Y-104279436D01*
X159402727Y-104279428D01*
X159196499Y-104183262D01*
X159196496Y-104183261D01*
X158976694Y-104124365D01*
X158976679Y-104124363D01*
X158750006Y-104104532D01*
X158749994Y-104104532D01*
X158523320Y-104124363D01*
X158523305Y-104124365D01*
X158303503Y-104183261D01*
X158303500Y-104183262D01*
X158097272Y-104279428D01*
X158097258Y-104279436D01*
X157910865Y-104409949D01*
X157749949Y-104570865D01*
X157619436Y-104757258D01*
X157619428Y-104757272D01*
X157523262Y-104963500D01*
X157523261Y-104963503D01*
X157464365Y-105183305D01*
X157464363Y-105183320D01*
X157444532Y-105409994D01*
X157444532Y-105410005D01*
X157464363Y-105636679D01*
X157464365Y-105636694D01*
X157523261Y-105856496D01*
X157523262Y-105856499D01*
X157619428Y-106062727D01*
X157619436Y-106062741D01*
X157739904Y-106234788D01*
X157749953Y-106249139D01*
X157910861Y-106410047D01*
X157910864Y-106410049D01*
X157910865Y-106410050D01*
X158005096Y-106476031D01*
X158072280Y-106546212D01*
X158107493Y-106636761D01*
X158105374Y-106733893D01*
X158066245Y-106822820D01*
X158005096Y-106883969D01*
X157910865Y-106949949D01*
X157749949Y-107110865D01*
X157619436Y-107297258D01*
X157619428Y-107297272D01*
X157523262Y-107503500D01*
X157523261Y-107503503D01*
X157464365Y-107723305D01*
X157464363Y-107723320D01*
X157444532Y-107949994D01*
X157444532Y-107950005D01*
X157464363Y-108176679D01*
X157464365Y-108176694D01*
X157523261Y-108396496D01*
X157523262Y-108396499D01*
X157619428Y-108602727D01*
X157619436Y-108602741D01*
X157746007Y-108783504D01*
X157749953Y-108789139D01*
X157910861Y-108950047D01*
X157910864Y-108950049D01*
X157910865Y-108950050D01*
X158005096Y-109016031D01*
X158072280Y-109086212D01*
X158107493Y-109176761D01*
X158105374Y-109273893D01*
X158066245Y-109362820D01*
X158005096Y-109423969D01*
X157910865Y-109489949D01*
X157749949Y-109650865D01*
X157619436Y-109837258D01*
X157619428Y-109837272D01*
X157523262Y-110043500D01*
X157523261Y-110043503D01*
X157464365Y-110263305D01*
X157464363Y-110263320D01*
X157444532Y-110489994D01*
X157444532Y-110490005D01*
X157464363Y-110716679D01*
X157464365Y-110716694D01*
X157523261Y-110936496D01*
X157523262Y-110936499D01*
X157619428Y-111142727D01*
X157619436Y-111142741D01*
X157727544Y-111297136D01*
X157749953Y-111329139D01*
X157910861Y-111490047D01*
X157910864Y-111490049D01*
X157910865Y-111490050D01*
X158005096Y-111556031D01*
X158072280Y-111626212D01*
X158107493Y-111716761D01*
X158105374Y-111813893D01*
X158066245Y-111902820D01*
X158005096Y-111963969D01*
X157910865Y-112029949D01*
X157749949Y-112190865D01*
X157619436Y-112377258D01*
X157619428Y-112377272D01*
X157523262Y-112583500D01*
X157523261Y-112583503D01*
X157464365Y-112803305D01*
X157464363Y-112803320D01*
X157444532Y-113029994D01*
X157444532Y-113030005D01*
X157464363Y-113256679D01*
X157464364Y-113256688D01*
X157464365Y-113256692D01*
X157499028Y-113386057D01*
X157505382Y-113483001D01*
X157474152Y-113575000D01*
X157410093Y-113648045D01*
X157322958Y-113691016D01*
X157258512Y-113699500D01*
X152751875Y-113699500D01*
X152656587Y-113680546D01*
X152575805Y-113626570D01*
X152472971Y-113523736D01*
X152418995Y-113442954D01*
X152400041Y-113347666D01*
X152408525Y-113283224D01*
X152415635Y-113256692D01*
X152427072Y-113125965D01*
X152435468Y-113030005D01*
X152435468Y-113029994D01*
X152415636Y-112803320D01*
X152415635Y-112803308D01*
X152356739Y-112583504D01*
X152274242Y-112406590D01*
X152251150Y-112312222D01*
X152265929Y-112216198D01*
X152316330Y-112133139D01*
X152323820Y-112125313D01*
X152982951Y-111466183D01*
X153065084Y-111343262D01*
X153121658Y-111206680D01*
X153150500Y-111061685D01*
X153150500Y-110913850D01*
X153150500Y-104554008D01*
X153169454Y-104458720D01*
X153223430Y-104377938D01*
X157717938Y-99883430D01*
X157798720Y-99829454D01*
X157894008Y-99810500D01*
X159605992Y-99810500D01*
X159701280Y-99829454D01*
G37*
%TD.AperFunction*%
%TA.AperFunction,Conductor*%
G36*
X158456280Y-81369454D02*
G01*
X158537062Y-81423430D01*
X160580914Y-83467281D01*
X160634890Y-83548063D01*
X160653844Y-83643351D01*
X160652897Y-83665052D01*
X160639341Y-83819999D01*
X160639341Y-83820000D01*
X160641523Y-83844943D01*
X160652897Y-83974946D01*
X160642319Y-84071523D01*
X160595589Y-84156702D01*
X160580914Y-84172716D01*
X160112048Y-84641583D01*
X160085656Y-84681084D01*
X160085654Y-84681087D01*
X160029917Y-84764503D01*
X160029915Y-84764507D01*
X159973341Y-84901088D01*
X159944500Y-85046079D01*
X159944500Y-85542497D01*
X159925546Y-85637785D01*
X159871570Y-85718567D01*
X159790788Y-85772543D01*
X159695500Y-85791497D01*
X159600212Y-85772543D01*
X159519430Y-85718567D01*
X159503022Y-85700462D01*
X159460891Y-85649126D01*
X159460885Y-85649120D01*
X159460883Y-85649117D01*
X159377104Y-85580361D01*
X159308536Y-85524088D01*
X159134733Y-85431188D01*
X159134725Y-85431185D01*
X158946131Y-85373975D01*
X158750000Y-85354659D01*
X158553868Y-85373975D01*
X158365274Y-85431185D01*
X158365266Y-85431188D01*
X158191463Y-85524088D01*
X158039120Y-85649114D01*
X158039114Y-85649120D01*
X157914088Y-85801463D01*
X157821188Y-85975266D01*
X157821185Y-85975274D01*
X157763975Y-86163868D01*
X157744659Y-86359999D01*
X157744659Y-86360000D01*
X157747112Y-86384906D01*
X157737589Y-86481593D01*
X157691790Y-86567276D01*
X157675382Y-86585381D01*
X157581287Y-86679477D01*
X157581286Y-86679478D01*
X157581284Y-86679480D01*
X157581283Y-86679479D01*
X157469480Y-86791283D01*
X157469477Y-86791287D01*
X157444869Y-86833911D01*
X157444868Y-86833913D01*
X157390424Y-86928212D01*
X157390422Y-86928215D01*
X157349499Y-87080943D01*
X157349499Y-87259122D01*
X157349500Y-87259135D01*
X157349500Y-88782437D01*
X157330546Y-88877725D01*
X157276570Y-88958507D01*
X147661638Y-98573438D01*
X147580856Y-98627414D01*
X147485568Y-98646368D01*
X147390280Y-98627414D01*
X147309498Y-98573438D01*
X147259901Y-98502605D01*
X147186009Y-98344145D01*
X147050469Y-98150573D01*
X146883375Y-97983479D01*
X146689804Y-97847939D01*
X146475637Y-97748071D01*
X146475634Y-97748070D01*
X146247375Y-97686909D01*
X146011979Y-97666315D01*
X146011969Y-97666315D01*
X145776572Y-97686909D01*
X145548309Y-97748071D01*
X145548307Y-97748072D01*
X145334151Y-97847935D01*
X145334143Y-97847939D01*
X145140574Y-97983478D01*
X144973478Y-98150574D01*
X144837939Y-98344143D01*
X144837935Y-98344151D01*
X144738072Y-98558307D01*
X144738071Y-98558309D01*
X144676909Y-98786572D01*
X144656315Y-99021968D01*
X144656315Y-99021979D01*
X144676909Y-99257375D01*
X144717777Y-99409900D01*
X144738071Y-99485637D01*
X144837939Y-99699804D01*
X144973479Y-99893375D01*
X145140573Y-100060469D01*
X145334144Y-100196009D01*
X145334148Y-100196010D01*
X145334151Y-100196013D01*
X145499419Y-100273079D01*
X145577769Y-100330527D01*
X145628171Y-100413587D01*
X145642950Y-100509611D01*
X145619857Y-100603981D01*
X145570257Y-100674818D01*
X144628810Y-101616267D01*
X144548028Y-101670244D01*
X144452740Y-101689198D01*
X143909002Y-101689198D01*
X143908986Y-101689197D01*
X143893725Y-101689197D01*
X143735610Y-101689197D01*
X143582884Y-101730120D01*
X143582879Y-101730122D01*
X143445953Y-101809176D01*
X143445951Y-101809178D01*
X139501286Y-105753843D01*
X139501284Y-105753845D01*
X139501283Y-105753844D01*
X139389480Y-105865648D01*
X139389479Y-105865650D01*
X139357797Y-105920526D01*
X139357796Y-105920527D01*
X139310424Y-106002577D01*
X139310422Y-106002580D01*
X139269499Y-106155308D01*
X139269499Y-106333487D01*
X139269500Y-106333500D01*
X139269500Y-107795670D01*
X139250546Y-107890958D01*
X139196570Y-107971740D01*
X139115788Y-108025716D01*
X139020500Y-108044670D01*
X138925212Y-108025716D01*
X138915269Y-108021341D01*
X138876496Y-108003261D01*
X138656694Y-107944365D01*
X138656679Y-107944363D01*
X138430006Y-107924532D01*
X138429994Y-107924532D01*
X138203320Y-107944363D01*
X138203305Y-107944365D01*
X137983503Y-108003261D01*
X137983500Y-108003262D01*
X137777272Y-108099428D01*
X137777258Y-108099436D01*
X137590865Y-108229949D01*
X137429949Y-108390865D01*
X137299436Y-108577258D01*
X137299428Y-108577272D01*
X137203262Y-108783500D01*
X137203261Y-108783503D01*
X137144365Y-109003305D01*
X137144363Y-109003320D01*
X137124532Y-109229994D01*
X137124532Y-109230005D01*
X137144363Y-109456685D01*
X137144365Y-109456694D01*
X137151474Y-109483227D01*
X137157826Y-109580174D01*
X137126594Y-109672172D01*
X137087027Y-109723736D01*
X134864236Y-111946527D01*
X134783454Y-112000503D01*
X134688166Y-112019457D01*
X134592878Y-112000503D01*
X134512096Y-111946527D01*
X134477332Y-111902933D01*
X134379819Y-111747742D01*
X134379817Y-111747740D01*
X134379816Y-111747738D01*
X134252262Y-111620184D01*
X134252259Y-111620182D01*
X134252257Y-111620180D01*
X134099529Y-111524214D01*
X134099524Y-111524212D01*
X134099522Y-111524211D01*
X133929255Y-111464632D01*
X133929254Y-111464631D01*
X133928463Y-111464355D01*
X133844782Y-111414992D01*
X133834633Y-111405398D01*
X133373283Y-110944048D01*
X133319307Y-110863266D01*
X133300353Y-110767978D01*
X133319307Y-110672690D01*
X133373283Y-110591908D01*
X133454065Y-110537932D01*
X133527651Y-110519926D01*
X133565483Y-110516615D01*
X133576692Y-110515635D01*
X133796496Y-110456739D01*
X134002734Y-110360568D01*
X134189139Y-110230047D01*
X134350047Y-110069139D01*
X134480568Y-109882734D01*
X134576739Y-109676496D01*
X134635635Y-109456692D01*
X134655468Y-109230000D01*
X134655468Y-109229994D01*
X134635636Y-109003320D01*
X134635635Y-109003308D01*
X134576739Y-108783504D01*
X134480568Y-108577266D01*
X134480565Y-108577262D01*
X134480563Y-108577258D01*
X134350050Y-108390865D01*
X134350049Y-108390864D01*
X134350047Y-108390861D01*
X134189139Y-108229953D01*
X134189135Y-108229950D01*
X134189134Y-108229949D01*
X134002741Y-108099436D01*
X134002727Y-108099428D01*
X133796499Y-108003262D01*
X133796496Y-108003261D01*
X133576694Y-107944365D01*
X133576679Y-107944363D01*
X133350006Y-107924532D01*
X133349994Y-107924532D01*
X133123314Y-107944363D01*
X133123308Y-107944365D01*
X133096776Y-107951474D01*
X132999829Y-107957827D01*
X132907831Y-107926597D01*
X132856263Y-107887028D01*
X132730521Y-107761286D01*
X132730520Y-107761284D01*
X132618716Y-107649480D01*
X132531906Y-107599361D01*
X132531903Y-107599358D01*
X132481784Y-107570422D01*
X132481781Y-107570421D01*
X132329057Y-107529499D01*
X132170943Y-107529499D01*
X132155682Y-107529499D01*
X132155666Y-107529500D01*
X130560579Y-107529500D01*
X130465291Y-107510546D01*
X130384509Y-107456570D01*
X129843340Y-106915401D01*
X129243505Y-106315566D01*
X129189532Y-106234788D01*
X129170578Y-106139500D01*
X129189532Y-106044212D01*
X129243508Y-105963430D01*
X129324290Y-105909454D01*
X129419578Y-105890500D01*
X129671178Y-105890500D01*
X129671182Y-105890500D01*
X129930615Y-105851396D01*
X130181323Y-105774063D01*
X130417704Y-105660228D01*
X130634479Y-105512433D01*
X130826805Y-105333981D01*
X130990386Y-105128857D01*
X131121568Y-104901643D01*
X131217420Y-104657416D01*
X131217557Y-104656818D01*
X131229689Y-104603663D01*
X131275802Y-104401630D01*
X131295408Y-104140000D01*
X131275802Y-103878370D01*
X131217420Y-103622584D01*
X131165170Y-103489454D01*
X131121571Y-103378364D01*
X131121569Y-103378361D01*
X131121568Y-103378357D01*
X131121220Y-103377754D01*
X130990387Y-103151144D01*
X130826805Y-102946019D01*
X130826794Y-102946008D01*
X130634479Y-102767567D01*
X130417707Y-102619773D01*
X130417702Y-102619771D01*
X130181331Y-102505940D01*
X130181326Y-102505938D01*
X130181323Y-102505937D01*
X129930615Y-102428604D01*
X129671182Y-102389500D01*
X129408818Y-102389500D01*
X129201271Y-102420783D01*
X129149384Y-102428604D01*
X129004107Y-102473416D01*
X128898677Y-102505937D01*
X128898675Y-102505937D01*
X128898668Y-102505940D01*
X128662297Y-102619771D01*
X128662292Y-102619773D01*
X128445520Y-102767567D01*
X128253205Y-102946008D01*
X128253194Y-102946019D01*
X128089612Y-103151144D01*
X127958436Y-103378348D01*
X127958428Y-103378364D01*
X127862578Y-103622587D01*
X127804198Y-103878370D01*
X127804197Y-103878374D01*
X127784592Y-104140000D01*
X127792498Y-104245509D01*
X127780717Y-104341947D01*
X127732928Y-104426536D01*
X127656405Y-104486398D01*
X127562800Y-104512419D01*
X127466362Y-104500638D01*
X127381773Y-104452849D01*
X127368124Y-104440185D01*
X121949918Y-99021979D01*
X126876315Y-99021979D01*
X126896909Y-99257375D01*
X126937777Y-99409900D01*
X126958071Y-99485637D01*
X127057939Y-99699804D01*
X127193479Y-99893375D01*
X127360573Y-100060469D01*
X127554144Y-100196009D01*
X127768311Y-100295877D01*
X127996566Y-100357037D01*
X127996569Y-100357037D01*
X127996572Y-100357038D01*
X128231969Y-100377633D01*
X128231974Y-100377633D01*
X128231979Y-100377633D01*
X128467375Y-100357038D01*
X128467377Y-100357037D01*
X128467382Y-100357037D01*
X128695637Y-100295877D01*
X128909804Y-100196009D01*
X129103375Y-100060469D01*
X129270469Y-99893375D01*
X129406009Y-99699804D01*
X129505877Y-99485637D01*
X129567037Y-99257382D01*
X129567038Y-99257375D01*
X129587633Y-99021979D01*
X129587633Y-99021968D01*
X129567038Y-98786572D01*
X129567037Y-98786569D01*
X129567037Y-98786566D01*
X129505877Y-98558311D01*
X129406009Y-98344145D01*
X129381750Y-98309500D01*
X129330684Y-98236570D01*
X129270469Y-98150573D01*
X129103375Y-97983479D01*
X128909804Y-97847939D01*
X128695637Y-97748071D01*
X128695634Y-97748070D01*
X128467375Y-97686909D01*
X128231979Y-97666315D01*
X128231969Y-97666315D01*
X127996572Y-97686909D01*
X127768309Y-97748071D01*
X127768307Y-97748072D01*
X127554151Y-97847935D01*
X127554143Y-97847939D01*
X127360574Y-97983478D01*
X127193478Y-98150574D01*
X127057939Y-98344143D01*
X127057935Y-98344151D01*
X126958072Y-98558307D01*
X126958071Y-98558309D01*
X126896909Y-98786572D01*
X126876315Y-99021968D01*
X126876315Y-99021979D01*
X121949918Y-99021979D01*
X121272090Y-98344151D01*
X116869914Y-93941974D01*
X123416633Y-93941974D01*
X123435949Y-94138105D01*
X123493159Y-94326699D01*
X123493162Y-94326707D01*
X123586062Y-94500510D01*
X123586064Y-94500512D01*
X123711091Y-94652857D01*
X123820844Y-94742929D01*
X123863437Y-94777885D01*
X124037240Y-94870785D01*
X124037244Y-94870786D01*
X124037247Y-94870788D01*
X124225842Y-94927998D01*
X124421974Y-94947315D01*
X124618106Y-94927998D01*
X124806701Y-94870788D01*
X124980512Y-94777884D01*
X125132857Y-94652857D01*
X125257884Y-94500512D01*
X125350788Y-94326701D01*
X125407998Y-94138106D01*
X125427315Y-93941974D01*
X125407998Y-93745842D01*
X125350788Y-93557247D01*
X125350786Y-93557244D01*
X125350785Y-93557240D01*
X125257885Y-93383437D01*
X125222929Y-93340844D01*
X125132857Y-93231091D01*
X124980512Y-93106064D01*
X124980513Y-93106064D01*
X124980510Y-93106062D01*
X124806707Y-93013162D01*
X124806699Y-93013159D01*
X124618105Y-92955949D01*
X124421974Y-92936633D01*
X124225842Y-92955949D01*
X124037248Y-93013159D01*
X124037240Y-93013162D01*
X123863437Y-93106062D01*
X123711094Y-93231088D01*
X123711088Y-93231094D01*
X123586062Y-93383437D01*
X123493162Y-93557240D01*
X123493159Y-93557248D01*
X123435949Y-93745842D01*
X123416633Y-93941974D01*
X116869914Y-93941974D01*
X114864278Y-91936338D01*
X114810302Y-91855556D01*
X114791348Y-91760268D01*
X114810302Y-91664980D01*
X114864278Y-91584198D01*
X114945060Y-91530222D01*
X115018640Y-91512216D01*
X115100408Y-91505063D01*
X115328663Y-91443903D01*
X115418580Y-91401974D01*
X123416633Y-91401974D01*
X123435949Y-91598105D01*
X123493159Y-91786699D01*
X123493162Y-91786707D01*
X123586062Y-91960510D01*
X123586064Y-91960512D01*
X123711091Y-92112857D01*
X123820844Y-92202929D01*
X123863437Y-92237885D01*
X124037240Y-92330785D01*
X124037244Y-92330786D01*
X124037247Y-92330788D01*
X124225842Y-92387998D01*
X124421974Y-92407315D01*
X124618106Y-92387998D01*
X124806701Y-92330788D01*
X124980512Y-92237884D01*
X125132857Y-92112857D01*
X125257884Y-91960512D01*
X125350788Y-91786701D01*
X125407998Y-91598106D01*
X125427315Y-91401974D01*
X125407998Y-91205842D01*
X125350788Y-91017247D01*
X125350786Y-91017244D01*
X125350785Y-91017240D01*
X125257885Y-90843437D01*
X125222929Y-90800844D01*
X125132857Y-90691091D01*
X124980512Y-90566064D01*
X124980513Y-90566064D01*
X124980510Y-90566062D01*
X124806707Y-90473162D01*
X124806699Y-90473159D01*
X124618105Y-90415949D01*
X124421974Y-90396633D01*
X124225842Y-90415949D01*
X124037248Y-90473159D01*
X124037240Y-90473162D01*
X123863437Y-90566062D01*
X123711094Y-90691088D01*
X123711088Y-90691094D01*
X123586062Y-90843437D01*
X123493162Y-91017240D01*
X123493159Y-91017248D01*
X123435949Y-91205842D01*
X123416633Y-91401974D01*
X115418580Y-91401974D01*
X115542830Y-91344035D01*
X115736401Y-91208495D01*
X115903495Y-91041401D01*
X116039035Y-90847830D01*
X116138903Y-90633663D01*
X116200063Y-90405408D01*
X116202276Y-90380116D01*
X116220659Y-90170005D01*
X116220659Y-90169994D01*
X116207103Y-90015052D01*
X116217679Y-89918475D01*
X116264410Y-89833296D01*
X116279086Y-89817280D01*
X116464938Y-89631428D01*
X116747952Y-89348415D01*
X116781238Y-89298599D01*
X116830084Y-89225495D01*
X116867399Y-89135408D01*
X116886659Y-89088912D01*
X116897121Y-89036312D01*
X116911295Y-88965062D01*
X116913694Y-88952992D01*
X116915500Y-88943918D01*
X116915500Y-88861974D01*
X123416633Y-88861974D01*
X123435949Y-89058105D01*
X123493159Y-89246699D01*
X123493162Y-89246707D01*
X123586062Y-89420510D01*
X123634248Y-89479224D01*
X123711091Y-89572857D01*
X123809968Y-89654004D01*
X123863437Y-89697885D01*
X124037240Y-89790785D01*
X124037244Y-89790786D01*
X124037247Y-89790788D01*
X124225842Y-89847998D01*
X124421974Y-89867315D01*
X124618106Y-89847998D01*
X124806701Y-89790788D01*
X124842972Y-89771401D01*
X124980510Y-89697885D01*
X124980509Y-89697885D01*
X124980512Y-89697884D01*
X125132857Y-89572857D01*
X125257884Y-89420512D01*
X125308597Y-89325634D01*
X125350785Y-89246707D01*
X125350785Y-89246705D01*
X125350788Y-89246701D01*
X125407998Y-89058106D01*
X125427315Y-88861974D01*
X125407998Y-88665842D01*
X125350788Y-88477247D01*
X125350786Y-88477244D01*
X125350785Y-88477240D01*
X125257885Y-88303437D01*
X125191191Y-88222171D01*
X125132857Y-88151091D01*
X125061488Y-88092520D01*
X124980510Y-88026062D01*
X124806707Y-87933162D01*
X124806699Y-87933159D01*
X124618105Y-87875949D01*
X124421974Y-87856633D01*
X124225842Y-87875949D01*
X124037248Y-87933159D01*
X124037240Y-87933162D01*
X123863437Y-88026062D01*
X123711094Y-88151088D01*
X123711088Y-88151094D01*
X123586062Y-88303437D01*
X123493162Y-88477240D01*
X123493159Y-88477248D01*
X123435949Y-88665842D01*
X123416633Y-88861974D01*
X116915500Y-88861974D01*
X116915500Y-88228906D01*
X116934454Y-88133618D01*
X116988428Y-88052838D01*
X118719291Y-86321974D01*
X123416633Y-86321974D01*
X123435949Y-86518105D01*
X123493159Y-86706699D01*
X123493162Y-86706707D01*
X123586062Y-86880510D01*
X123634248Y-86939224D01*
X123711091Y-87032857D01*
X123757423Y-87070881D01*
X123863437Y-87157885D01*
X124037240Y-87250785D01*
X124037244Y-87250786D01*
X124037247Y-87250788D01*
X124225842Y-87307998D01*
X124421974Y-87327315D01*
X124618106Y-87307998D01*
X124806701Y-87250788D01*
X124842972Y-87231401D01*
X124980510Y-87157885D01*
X124980509Y-87157885D01*
X124980512Y-87157884D01*
X125132857Y-87032857D01*
X125257884Y-86880512D01*
X125350788Y-86706701D01*
X125407998Y-86518106D01*
X125427315Y-86321974D01*
X125407998Y-86125842D01*
X125350788Y-85937247D01*
X125350786Y-85937244D01*
X125350785Y-85937240D01*
X125257885Y-85763437D01*
X125191191Y-85682171D01*
X125132857Y-85611091D01*
X125065695Y-85555972D01*
X124980510Y-85486062D01*
X124806707Y-85393162D01*
X124806699Y-85393159D01*
X124618105Y-85335949D01*
X124421974Y-85316633D01*
X124225842Y-85335949D01*
X124037248Y-85393159D01*
X124037240Y-85393162D01*
X123863437Y-85486062D01*
X123711094Y-85611088D01*
X123711088Y-85611094D01*
X123586062Y-85763437D01*
X123493162Y-85937240D01*
X123493159Y-85937248D01*
X123435949Y-86125842D01*
X123416633Y-86321974D01*
X118719291Y-86321974D01*
X119533920Y-85507345D01*
X119553105Y-85491628D01*
X119552357Y-85490716D01*
X119561810Y-85482956D01*
X119561818Y-85482952D01*
X121042951Y-84001819D01*
X121042956Y-84001810D01*
X121050715Y-83992357D01*
X121051628Y-83993106D01*
X121067351Y-83973915D01*
X122217838Y-82823430D01*
X122298619Y-82769454D01*
X122393907Y-82750500D01*
X127989497Y-82750500D01*
X128084785Y-82769454D01*
X128165567Y-82823430D01*
X128219543Y-82904212D01*
X128238497Y-82999500D01*
X128219543Y-83094788D01*
X128217525Y-83099522D01*
X128115936Y-83331121D01*
X128115935Y-83331125D01*
X128054894Y-83572168D01*
X128054892Y-83572176D01*
X128034357Y-83820000D01*
X128054892Y-84067823D01*
X128054894Y-84067831D01*
X128115935Y-84308874D01*
X128115936Y-84308878D01*
X128215825Y-84536603D01*
X128215828Y-84536608D01*
X128254896Y-84596407D01*
X128291146Y-84686547D01*
X128290141Y-84783696D01*
X128252035Y-84873067D01*
X128182630Y-84941051D01*
X128092490Y-84977301D01*
X128068144Y-84980648D01*
X127996572Y-84986909D01*
X127768309Y-85048071D01*
X127768307Y-85048072D01*
X127554151Y-85147935D01*
X127554143Y-85147939D01*
X127360574Y-85283478D01*
X127193478Y-85450574D01*
X127057939Y-85644143D01*
X127057935Y-85644151D01*
X126958072Y-85858307D01*
X126958071Y-85858309D01*
X126896909Y-86086572D01*
X126876315Y-86321968D01*
X126876315Y-86321979D01*
X126896909Y-86557375D01*
X126896911Y-86557382D01*
X126958071Y-86785637D01*
X127025249Y-86929701D01*
X127057939Y-86999804D01*
X127182364Y-87177502D01*
X127193479Y-87193375D01*
X127360573Y-87360469D01*
X127399899Y-87388005D01*
X127467081Y-87458183D01*
X127502295Y-87548732D01*
X127500176Y-87645864D01*
X127461048Y-87734792D01*
X127399902Y-87795939D01*
X127360577Y-87823475D01*
X127193478Y-87990574D01*
X127057939Y-88184143D01*
X127057935Y-88184151D01*
X126958072Y-88398307D01*
X126958071Y-88398309D01*
X126896909Y-88626572D01*
X126876315Y-88861968D01*
X126876315Y-88861979D01*
X126896909Y-89097375D01*
X126950826Y-89298600D01*
X126958071Y-89325637D01*
X126975803Y-89363663D01*
X127057939Y-89539804D01*
X127182364Y-89717502D01*
X127193479Y-89733375D01*
X127360573Y-89900469D01*
X127399899Y-89928005D01*
X127467081Y-89998183D01*
X127502295Y-90088732D01*
X127500176Y-90185864D01*
X127461048Y-90274792D01*
X127399902Y-90335939D01*
X127360577Y-90363475D01*
X127193478Y-90530574D01*
X127057939Y-90724143D01*
X127057935Y-90724151D01*
X126958072Y-90938307D01*
X126958071Y-90938309D01*
X126896909Y-91166572D01*
X126876315Y-91401968D01*
X126876315Y-91401979D01*
X126896909Y-91637375D01*
X126958070Y-91865634D01*
X127057939Y-92079804D01*
X127168628Y-92237885D01*
X127193479Y-92273375D01*
X127360573Y-92440469D01*
X127399899Y-92468005D01*
X127467081Y-92538183D01*
X127502295Y-92628732D01*
X127500176Y-92725864D01*
X127461048Y-92814792D01*
X127399902Y-92875939D01*
X127360577Y-92903475D01*
X127193478Y-93070574D01*
X127057939Y-93264143D01*
X127057935Y-93264151D01*
X126958072Y-93478307D01*
X126958071Y-93478309D01*
X126896909Y-93706572D01*
X126876315Y-93941968D01*
X126876315Y-93941979D01*
X126896909Y-94177375D01*
X126958070Y-94405634D01*
X127057939Y-94619804D01*
X127168628Y-94777885D01*
X127193479Y-94813375D01*
X127360573Y-94980469D01*
X127554144Y-95116009D01*
X127768311Y-95215877D01*
X127996566Y-95277037D01*
X127996569Y-95277037D01*
X127996572Y-95277038D01*
X128231969Y-95297633D01*
X128231974Y-95297633D01*
X128231979Y-95297633D01*
X128467375Y-95277038D01*
X128467377Y-95277037D01*
X128467382Y-95277037D01*
X128695637Y-95215877D01*
X128909804Y-95116009D01*
X129103375Y-94980469D01*
X129270469Y-94813375D01*
X129406009Y-94619804D01*
X129505877Y-94405637D01*
X129567037Y-94177382D01*
X129567038Y-94177375D01*
X129587633Y-93941979D01*
X129587633Y-93941968D01*
X129567038Y-93706572D01*
X129567037Y-93706569D01*
X129567037Y-93706566D01*
X129505877Y-93478311D01*
X129406009Y-93264145D01*
X129382864Y-93231091D01*
X129315548Y-93134953D01*
X129270469Y-93070573D01*
X129103375Y-92903479D01*
X129064048Y-92875941D01*
X128996865Y-92805763D01*
X128961652Y-92715214D01*
X128963771Y-92618082D01*
X129002899Y-92529155D01*
X129064047Y-92468006D01*
X129103375Y-92440469D01*
X129270469Y-92273375D01*
X129406009Y-92079804D01*
X129505877Y-91865637D01*
X129567037Y-91637382D01*
X129567038Y-91637375D01*
X129587633Y-91401979D01*
X129587633Y-91401968D01*
X129567038Y-91166572D01*
X129567037Y-91166569D01*
X129567037Y-91166566D01*
X129505877Y-90938311D01*
X129406009Y-90724145D01*
X129382864Y-90691091D01*
X129315548Y-90594953D01*
X129270469Y-90530573D01*
X129103375Y-90363479D01*
X129064048Y-90335941D01*
X128996865Y-90265763D01*
X128961652Y-90175214D01*
X128963771Y-90078082D01*
X129002899Y-89989155D01*
X129064047Y-89928006D01*
X129103375Y-89900469D01*
X129270469Y-89733375D01*
X129406009Y-89539804D01*
X129505877Y-89325637D01*
X129567037Y-89097382D01*
X129567038Y-89097375D01*
X129587633Y-88861979D01*
X129587633Y-88861968D01*
X129567038Y-88626572D01*
X129567037Y-88626569D01*
X129567037Y-88626566D01*
X129505877Y-88398311D01*
X129408332Y-88189126D01*
X129406012Y-88184151D01*
X129406008Y-88184143D01*
X129341853Y-88092520D01*
X129270469Y-87990573D01*
X129103375Y-87823479D01*
X129064048Y-87795941D01*
X128996865Y-87725763D01*
X128961652Y-87635214D01*
X128963771Y-87538082D01*
X129002899Y-87449155D01*
X129064047Y-87388006D01*
X129103375Y-87360469D01*
X129270469Y-87193375D01*
X129406009Y-86999804D01*
X129505877Y-86785637D01*
X129567037Y-86557382D01*
X129567038Y-86557375D01*
X129587633Y-86321979D01*
X129587633Y-86321968D01*
X129567038Y-86086572D01*
X129567037Y-86086569D01*
X129567037Y-86086566D01*
X129505877Y-85858311D01*
X129420271Y-85674731D01*
X129397180Y-85580361D01*
X129411959Y-85484337D01*
X129462361Y-85401278D01*
X129540711Y-85343829D01*
X129635082Y-85320737D01*
X129645943Y-85320500D01*
X129664335Y-85320500D01*
X129909614Y-85279571D01*
X129909618Y-85279569D01*
X129909621Y-85279569D01*
X130052031Y-85230679D01*
X130144810Y-85198828D01*
X130363509Y-85080474D01*
X130559744Y-84927738D01*
X130702242Y-84772942D01*
X130780722Y-84715676D01*
X130875145Y-84692800D01*
X130971135Y-84707799D01*
X131054078Y-84758391D01*
X131068616Y-84772928D01*
X131135690Y-84845790D01*
X131135696Y-84845796D01*
X131240982Y-84927742D01*
X131317411Y-84987229D01*
X131519931Y-85096828D01*
X131588544Y-85120383D01*
X131737721Y-85171596D01*
X131737726Y-85171597D01*
X131737729Y-85171598D01*
X131964863Y-85209500D01*
X132195137Y-85209500D01*
X132422271Y-85171598D01*
X132422275Y-85171596D01*
X132422278Y-85171596D01*
X132534004Y-85133240D01*
X132640069Y-85096828D01*
X132842589Y-84987229D01*
X133024308Y-84845792D01*
X133180269Y-84676373D01*
X133202999Y-84641583D01*
X133213275Y-84625853D01*
X133306217Y-84483595D01*
X133393917Y-84283660D01*
X133398712Y-84272728D01*
X133398712Y-84272726D01*
X133398717Y-84272716D01*
X133455246Y-84049488D01*
X133474262Y-83820000D01*
X133455246Y-83590512D01*
X133398717Y-83367284D01*
X133398712Y-83367274D01*
X133398712Y-83367271D01*
X133306223Y-83156418D01*
X133306217Y-83156406D01*
X133306217Y-83156405D01*
X133292681Y-83135687D01*
X133256433Y-83045552D01*
X133257436Y-82948402D01*
X133295541Y-82859032D01*
X133364946Y-82791046D01*
X133455085Y-82754796D01*
X133501137Y-82750500D01*
X135738863Y-82750500D01*
X135834151Y-82769454D01*
X135914933Y-82823430D01*
X135968909Y-82904212D01*
X135987863Y-82999500D01*
X135968909Y-83094788D01*
X135947320Y-83135683D01*
X135943084Y-83142169D01*
X135933782Y-83156406D01*
X135933776Y-83156418D01*
X135841287Y-83367271D01*
X135841284Y-83367280D01*
X135841283Y-83367284D01*
X135784754Y-83590512D01*
X135765738Y-83820000D01*
X135784754Y-84049488D01*
X135841283Y-84272716D01*
X135841285Y-84272721D01*
X135841287Y-84272728D01*
X135933776Y-84483581D01*
X135933780Y-84483590D01*
X135933783Y-84483595D01*
X135958403Y-84521280D01*
X136059725Y-84676366D01*
X136059731Y-84676373D01*
X136215692Y-84845792D01*
X136397411Y-84987229D01*
X136599931Y-85096828D01*
X136668544Y-85120383D01*
X136817721Y-85171596D01*
X136817726Y-85171597D01*
X136817729Y-85171598D01*
X137044863Y-85209500D01*
X137275137Y-85209500D01*
X137502271Y-85171598D01*
X137502275Y-85171596D01*
X137502278Y-85171596D01*
X137614004Y-85133240D01*
X137720069Y-85096828D01*
X137922589Y-84987229D01*
X138104308Y-84845792D01*
X138246806Y-84690997D01*
X138325286Y-84633730D01*
X138419709Y-84610854D01*
X138515699Y-84625853D01*
X138598642Y-84676445D01*
X138613185Y-84690988D01*
X138755692Y-84845792D01*
X138937411Y-84987229D01*
X139139931Y-85096828D01*
X139208544Y-85120383D01*
X139357721Y-85171596D01*
X139357726Y-85171597D01*
X139357729Y-85171598D01*
X139584863Y-85209500D01*
X139815137Y-85209500D01*
X140042271Y-85171598D01*
X140042275Y-85171596D01*
X140042278Y-85171596D01*
X140154004Y-85133240D01*
X140260069Y-85096828D01*
X140462589Y-84987229D01*
X140644308Y-84845792D01*
X140786806Y-84690997D01*
X140865286Y-84633730D01*
X140959709Y-84610854D01*
X141055699Y-84625853D01*
X141138642Y-84676445D01*
X141153185Y-84690988D01*
X141295692Y-84845792D01*
X141477411Y-84987229D01*
X141679931Y-85096828D01*
X141748544Y-85120383D01*
X141897721Y-85171596D01*
X141897726Y-85171597D01*
X141897729Y-85171598D01*
X142124863Y-85209500D01*
X142355137Y-85209500D01*
X142582271Y-85171598D01*
X142582275Y-85171596D01*
X142582278Y-85171596D01*
X142694004Y-85133240D01*
X142800069Y-85096828D01*
X143002589Y-84987229D01*
X143184308Y-84845792D01*
X143251370Y-84772942D01*
X143329847Y-84715676D01*
X143424271Y-84692800D01*
X143520261Y-84707799D01*
X143603204Y-84758390D01*
X143617758Y-84772944D01*
X143760248Y-84927730D01*
X143760252Y-84927733D01*
X143760256Y-84927738D01*
X143760260Y-84927741D01*
X143760261Y-84927742D01*
X143956485Y-85080470D01*
X143956487Y-85080471D01*
X143956491Y-85080474D01*
X144175190Y-85198828D01*
X144244736Y-85222703D01*
X144410378Y-85279569D01*
X144410382Y-85279569D01*
X144410386Y-85279571D01*
X144641661Y-85318163D01*
X144732530Y-85352542D01*
X144803326Y-85419078D01*
X144843270Y-85507642D01*
X144846282Y-85604750D01*
X144826349Y-85668999D01*
X144738070Y-85858313D01*
X144676909Y-86086572D01*
X144656315Y-86321968D01*
X144656315Y-86321979D01*
X144676909Y-86557375D01*
X144676911Y-86557382D01*
X144738071Y-86785637D01*
X144805249Y-86929701D01*
X144837939Y-86999804D01*
X144962364Y-87177502D01*
X144973479Y-87193375D01*
X145140573Y-87360469D01*
X145179899Y-87388005D01*
X145247081Y-87458183D01*
X145282295Y-87548732D01*
X145280176Y-87645864D01*
X145241048Y-87734792D01*
X145179902Y-87795939D01*
X145140577Y-87823475D01*
X144973478Y-87990574D01*
X144837939Y-88184143D01*
X144837935Y-88184151D01*
X144738072Y-88398307D01*
X144738071Y-88398309D01*
X144676909Y-88626572D01*
X144656315Y-88861968D01*
X144656315Y-88861979D01*
X144676909Y-89097375D01*
X144730826Y-89298600D01*
X144738071Y-89325637D01*
X144755803Y-89363663D01*
X144837939Y-89539804D01*
X144962364Y-89717502D01*
X144973479Y-89733375D01*
X145140573Y-89900469D01*
X145179899Y-89928005D01*
X145247081Y-89998183D01*
X145282295Y-90088732D01*
X145280176Y-90185864D01*
X145241048Y-90274792D01*
X145179902Y-90335939D01*
X145140577Y-90363475D01*
X144973478Y-90530574D01*
X144837939Y-90724143D01*
X144837935Y-90724151D01*
X144738072Y-90938307D01*
X144738071Y-90938309D01*
X144676909Y-91166572D01*
X144656315Y-91401968D01*
X144656315Y-91401979D01*
X144676909Y-91637375D01*
X144738070Y-91865634D01*
X144837939Y-92079804D01*
X144948628Y-92237885D01*
X144973479Y-92273375D01*
X145140573Y-92440469D01*
X145179899Y-92468005D01*
X145247081Y-92538183D01*
X145282295Y-92628732D01*
X145280176Y-92725864D01*
X145241048Y-92814792D01*
X145179902Y-92875939D01*
X145140577Y-92903475D01*
X144973478Y-93070574D01*
X144837939Y-93264143D01*
X144837935Y-93264151D01*
X144738072Y-93478307D01*
X144738071Y-93478309D01*
X144676909Y-93706572D01*
X144656315Y-93941968D01*
X144656315Y-93941979D01*
X144676909Y-94177375D01*
X144738070Y-94405634D01*
X144837939Y-94619804D01*
X144948628Y-94777885D01*
X144973479Y-94813375D01*
X145140573Y-94980469D01*
X145334144Y-95116009D01*
X145548311Y-95215877D01*
X145776566Y-95277037D01*
X145776569Y-95277037D01*
X145776572Y-95277038D01*
X146011969Y-95297633D01*
X146011974Y-95297633D01*
X146011979Y-95297633D01*
X146247375Y-95277038D01*
X146247377Y-95277037D01*
X146247382Y-95277037D01*
X146475637Y-95215877D01*
X146689804Y-95116009D01*
X146883375Y-94980469D01*
X147050469Y-94813375D01*
X147060778Y-94798651D01*
X147130960Y-94731469D01*
X147221509Y-94696257D01*
X147264746Y-94692474D01*
X149070270Y-94692474D01*
X149165558Y-94711428D01*
X149228234Y-94748995D01*
X149263434Y-94777883D01*
X149437240Y-94870785D01*
X149437244Y-94870786D01*
X149437247Y-94870788D01*
X149625842Y-94927998D01*
X149821974Y-94947315D01*
X150018106Y-94927998D01*
X150206701Y-94870788D01*
X150380512Y-94777884D01*
X150532857Y-94652857D01*
X150657884Y-94500512D01*
X150750788Y-94326701D01*
X150807998Y-94138106D01*
X150827315Y-93941974D01*
X150807998Y-93745842D01*
X150750788Y-93557247D01*
X150750786Y-93557244D01*
X150750785Y-93557240D01*
X150657885Y-93383437D01*
X150622929Y-93340844D01*
X150532857Y-93231091D01*
X150380512Y-93106064D01*
X150380513Y-93106064D01*
X150380510Y-93106062D01*
X150206707Y-93013162D01*
X150206699Y-93013159D01*
X150018105Y-92955949D01*
X149821974Y-92936633D01*
X149625842Y-92955949D01*
X149437248Y-93013159D01*
X149437240Y-93013162D01*
X149263434Y-93106064D01*
X149228234Y-93134953D01*
X149142551Y-93180752D01*
X149070270Y-93191474D01*
X147264746Y-93191474D01*
X147169458Y-93172520D01*
X147088676Y-93118544D01*
X147060777Y-93085294D01*
X147050472Y-93070577D01*
X147050471Y-93070576D01*
X147050469Y-93070573D01*
X146883375Y-92903479D01*
X146844048Y-92875941D01*
X146776865Y-92805763D01*
X146741652Y-92715214D01*
X146743771Y-92618082D01*
X146782899Y-92529155D01*
X146844047Y-92468006D01*
X146883375Y-92440469D01*
X147050469Y-92273375D01*
X147060778Y-92258651D01*
X147130960Y-92191469D01*
X147221509Y-92156257D01*
X147264746Y-92152474D01*
X149070270Y-92152474D01*
X149165558Y-92171428D01*
X149228234Y-92208995D01*
X149263434Y-92237883D01*
X149437240Y-92330785D01*
X149437244Y-92330786D01*
X149437247Y-92330788D01*
X149625842Y-92387998D01*
X149821974Y-92407315D01*
X150018106Y-92387998D01*
X150206701Y-92330788D01*
X150380512Y-92237884D01*
X150532857Y-92112857D01*
X150657884Y-91960512D01*
X150750788Y-91786701D01*
X150807998Y-91598106D01*
X150827315Y-91401974D01*
X150807998Y-91205842D01*
X150750788Y-91017247D01*
X150750786Y-91017244D01*
X150750785Y-91017240D01*
X150657885Y-90843437D01*
X150622929Y-90800844D01*
X150532857Y-90691091D01*
X150380512Y-90566064D01*
X150380513Y-90566064D01*
X150380510Y-90566062D01*
X150206707Y-90473162D01*
X150206699Y-90473159D01*
X150018105Y-90415949D01*
X149821974Y-90396633D01*
X149625842Y-90415949D01*
X149437248Y-90473159D01*
X149437240Y-90473162D01*
X149263434Y-90566064D01*
X149228234Y-90594953D01*
X149142551Y-90640752D01*
X149070270Y-90651474D01*
X147264746Y-90651474D01*
X147169458Y-90632520D01*
X147088676Y-90578544D01*
X147060777Y-90545294D01*
X147050472Y-90530577D01*
X147050471Y-90530576D01*
X147050469Y-90530573D01*
X146883375Y-90363479D01*
X146844048Y-90335941D01*
X146776865Y-90265763D01*
X146741652Y-90175214D01*
X146743771Y-90078082D01*
X146782899Y-89989155D01*
X146844047Y-89928006D01*
X146883375Y-89900469D01*
X147050469Y-89733375D01*
X147060778Y-89718651D01*
X147130960Y-89651469D01*
X147221509Y-89616257D01*
X147264746Y-89612474D01*
X149070270Y-89612474D01*
X149165558Y-89631428D01*
X149228234Y-89668995D01*
X149263434Y-89697883D01*
X149437240Y-89790785D01*
X149437244Y-89790786D01*
X149437247Y-89790788D01*
X149625842Y-89847998D01*
X149821974Y-89867315D01*
X150018106Y-89847998D01*
X150206701Y-89790788D01*
X150242972Y-89771401D01*
X150380510Y-89697885D01*
X150380509Y-89697885D01*
X150380512Y-89697884D01*
X150532857Y-89572857D01*
X150657884Y-89420512D01*
X150708597Y-89325634D01*
X150750785Y-89246707D01*
X150750785Y-89246705D01*
X150750788Y-89246701D01*
X150807998Y-89058106D01*
X150827315Y-88861974D01*
X150807998Y-88665842D01*
X150750788Y-88477247D01*
X150750786Y-88477244D01*
X150750785Y-88477240D01*
X150657885Y-88303437D01*
X150591191Y-88222171D01*
X150532857Y-88151091D01*
X150461488Y-88092520D01*
X150380510Y-88026062D01*
X150206707Y-87933162D01*
X150206699Y-87933159D01*
X150018105Y-87875949D01*
X149821974Y-87856633D01*
X149625842Y-87875949D01*
X149437248Y-87933159D01*
X149437240Y-87933162D01*
X149263434Y-88026064D01*
X149228234Y-88054953D01*
X149142551Y-88100752D01*
X149070270Y-88111474D01*
X148501033Y-88111474D01*
X148405745Y-88092520D01*
X148324963Y-88038544D01*
X148270987Y-87957762D01*
X148252033Y-87862474D01*
X148270987Y-87767186D01*
X148324960Y-87686407D01*
X148602952Y-87408416D01*
X148682856Y-87288828D01*
X148682862Y-87288822D01*
X148682861Y-87288822D01*
X148682866Y-87288814D01*
X148685084Y-87285495D01*
X148708518Y-87228920D01*
X148741659Y-87148912D01*
X148741659Y-87148911D01*
X148742779Y-87146208D01*
X148796756Y-87065427D01*
X148877539Y-87011452D01*
X148972827Y-86992500D01*
X149068115Y-87011456D01*
X149130783Y-87049018D01*
X149263436Y-87157884D01*
X149263438Y-87157885D01*
X149437240Y-87250785D01*
X149437244Y-87250786D01*
X149437247Y-87250788D01*
X149625842Y-87307998D01*
X149821974Y-87327315D01*
X150018106Y-87307998D01*
X150206701Y-87250788D01*
X150242972Y-87231401D01*
X150380510Y-87157885D01*
X150380509Y-87157885D01*
X150380512Y-87157884D01*
X150532857Y-87032857D01*
X150657884Y-86880512D01*
X150750788Y-86706701D01*
X150807998Y-86518106D01*
X150827315Y-86321974D01*
X150807998Y-86125842D01*
X150750788Y-85937247D01*
X150750786Y-85937244D01*
X150750785Y-85937240D01*
X150657885Y-85763437D01*
X150591191Y-85682171D01*
X150532857Y-85611091D01*
X150465695Y-85555972D01*
X150380510Y-85486062D01*
X150206707Y-85393162D01*
X150206699Y-85393159D01*
X150018105Y-85335949D01*
X149821974Y-85316633D01*
X149625842Y-85335949D01*
X149437248Y-85393159D01*
X149437240Y-85393162D01*
X149263434Y-85486064D01*
X149177464Y-85556619D01*
X149091781Y-85602418D01*
X148995094Y-85611941D01*
X148902123Y-85583739D01*
X148827021Y-85522104D01*
X148781222Y-85436421D01*
X148770500Y-85364140D01*
X148770500Y-83456132D01*
X148752827Y-83367282D01*
X148752827Y-83367281D01*
X148741659Y-83311140D01*
X148741659Y-83311138D01*
X148701872Y-83215084D01*
X148685084Y-83174555D01*
X148637535Y-83103393D01*
X148631786Y-83094788D01*
X148602956Y-83051639D01*
X148602954Y-83051637D01*
X148602952Y-83051634D01*
X147326886Y-81775569D01*
X147272911Y-81694788D01*
X147253957Y-81599500D01*
X147272911Y-81504212D01*
X147326887Y-81423430D01*
X147407669Y-81369454D01*
X147502957Y-81350500D01*
X158360992Y-81350500D01*
X158456280Y-81369454D01*
G37*
%TD.AperFunction*%
%TA.AperFunction,Conductor*%
G36*
X159767781Y-89479224D02*
G01*
X159853464Y-89525022D01*
X159915098Y-89600124D01*
X159943301Y-89693096D01*
X159944500Y-89717502D01*
X159944500Y-98060500D01*
X159925546Y-98155788D01*
X159871570Y-98236570D01*
X159790788Y-98290546D01*
X159695500Y-98309500D01*
X157406079Y-98309500D01*
X157261088Y-98338341D01*
X157124507Y-98394915D01*
X157124502Y-98394917D01*
X157075271Y-98427811D01*
X157075270Y-98427813D01*
X157038427Y-98452430D01*
X157001582Y-98477049D01*
X152809287Y-102669343D01*
X152728505Y-102723319D01*
X152633217Y-102742273D01*
X152537929Y-102723319D01*
X152457147Y-102669343D01*
X152403171Y-102588561D01*
X152392701Y-102557718D01*
X152356739Y-102423504D01*
X152260568Y-102217266D01*
X152260565Y-102217262D01*
X152260563Y-102217258D01*
X152130050Y-102030865D01*
X152130049Y-102030864D01*
X152130047Y-102030861D01*
X151969139Y-101869953D01*
X151969135Y-101869950D01*
X151969134Y-101869949D01*
X151782741Y-101739436D01*
X151782727Y-101739428D01*
X151576499Y-101643262D01*
X151576496Y-101643261D01*
X151356694Y-101584365D01*
X151356679Y-101584363D01*
X151130006Y-101564532D01*
X151129994Y-101564532D01*
X150903320Y-101584363D01*
X150903305Y-101584365D01*
X150683503Y-101643261D01*
X150584731Y-101689319D01*
X150490360Y-101712411D01*
X150394336Y-101697631D01*
X150311277Y-101647229D01*
X150253829Y-101568879D01*
X150230737Y-101474508D01*
X150230500Y-101463648D01*
X150230500Y-98371875D01*
X150249454Y-98276587D01*
X150303430Y-98195805D01*
X154361130Y-94138105D01*
X158524619Y-89974615D01*
X158605398Y-89920642D01*
X158700686Y-89901688D01*
X158725092Y-89902887D01*
X158739758Y-89904332D01*
X158749998Y-89905341D01*
X158750000Y-89905341D01*
X158946132Y-89886024D01*
X159134727Y-89828814D01*
X159308538Y-89735910D01*
X159460883Y-89610883D01*
X159503023Y-89559535D01*
X159578122Y-89497904D01*
X159671094Y-89469701D01*
X159767781Y-89479224D01*
G37*
%TD.AperFunction*%
%TA.AperFunction,Conductor*%
G36*
X168055428Y-53400737D02*
G01*
X168431306Y-53417148D01*
X168452917Y-53419038D01*
X168820552Y-53467439D01*
X168841943Y-53471211D01*
X168907737Y-53485797D01*
X169203956Y-53551467D01*
X169224908Y-53557081D01*
X169578566Y-53668588D01*
X169598954Y-53676009D01*
X169941534Y-53817910D01*
X169961208Y-53827085D01*
X170290111Y-53998302D01*
X170308918Y-54009160D01*
X170621643Y-54208386D01*
X170639424Y-54220837D01*
X170797315Y-54341991D01*
X170933600Y-54446566D01*
X170950240Y-54460529D01*
X171223611Y-54711028D01*
X171238971Y-54726388D01*
X171489470Y-54999759D01*
X171503433Y-55016399D01*
X171729157Y-55310568D01*
X171741617Y-55328363D01*
X171940837Y-55641077D01*
X171951697Y-55659888D01*
X172122914Y-55988791D01*
X172132095Y-56008479D01*
X172273985Y-56351032D01*
X172281415Y-56371445D01*
X172392914Y-56725076D01*
X172398536Y-56746058D01*
X172478788Y-57108056D01*
X172482560Y-57129447D01*
X172530959Y-57497066D01*
X172532852Y-57518706D01*
X172549263Y-57894570D01*
X172549500Y-57905432D01*
X172549500Y-148494567D01*
X172549263Y-148505429D01*
X172532852Y-148881293D01*
X172530959Y-148902933D01*
X172482560Y-149270552D01*
X172478788Y-149291943D01*
X172398536Y-149653941D01*
X172392914Y-149674923D01*
X172281415Y-150028554D01*
X172273985Y-150048967D01*
X172132095Y-150391520D01*
X172122914Y-150411208D01*
X171951697Y-150740111D01*
X171940837Y-150758922D01*
X171741617Y-151071636D01*
X171729157Y-151089431D01*
X171503433Y-151383600D01*
X171489470Y-151400240D01*
X171238971Y-151673611D01*
X171223611Y-151688971D01*
X170950240Y-151939470D01*
X170933600Y-151953433D01*
X170639431Y-152179157D01*
X170621636Y-152191617D01*
X170308922Y-152390837D01*
X170290111Y-152401697D01*
X169961208Y-152572914D01*
X169941520Y-152582095D01*
X169598967Y-152723985D01*
X169578554Y-152731415D01*
X169224923Y-152842914D01*
X169203941Y-152848536D01*
X168841943Y-152928788D01*
X168820552Y-152932560D01*
X168452933Y-152980959D01*
X168431293Y-152982852D01*
X168092023Y-152997665D01*
X168055427Y-152999263D01*
X168044567Y-152999500D01*
X108955433Y-152999500D01*
X108944572Y-152999263D01*
X108568707Y-152982852D01*
X108547066Y-152980959D01*
X108179447Y-152932560D01*
X108158056Y-152928788D01*
X107796058Y-152848536D01*
X107775076Y-152842914D01*
X107421445Y-152731415D01*
X107401032Y-152723985D01*
X107058479Y-152582095D01*
X107038791Y-152572914D01*
X106709888Y-152401697D01*
X106691077Y-152390837D01*
X106378363Y-152191617D01*
X106360568Y-152179157D01*
X106283770Y-152120228D01*
X106066397Y-151953431D01*
X106049759Y-151939470D01*
X105776388Y-151688971D01*
X105761028Y-151673611D01*
X105510529Y-151400240D01*
X105496566Y-151383600D01*
X105479724Y-151361651D01*
X105270837Y-151089424D01*
X105258382Y-151071636D01*
X105255623Y-151067306D01*
X105059160Y-150758918D01*
X105048302Y-150740111D01*
X104975364Y-150599999D01*
X144294593Y-150599999D01*
X144314198Y-150861624D01*
X144314199Y-150861628D01*
X144372579Y-151117411D01*
X144468429Y-151361634D01*
X144468437Y-151361650D01*
X144599613Y-151588854D01*
X144763195Y-151793979D01*
X144763206Y-151793990D01*
X144935046Y-151953433D01*
X144955522Y-151972432D01*
X145021506Y-152017419D01*
X145172293Y-152120225D01*
X145172295Y-152120226D01*
X145172297Y-152120227D01*
X145294667Y-152179157D01*
X145408669Y-152234058D01*
X145408670Y-152234058D01*
X145408678Y-152234062D01*
X145659386Y-152311395D01*
X145918819Y-152350499D01*
X145918823Y-152350499D01*
X146181179Y-152350499D01*
X146181183Y-152350499D01*
X146440616Y-152311395D01*
X146691324Y-152234062D01*
X146927705Y-152120227D01*
X147144480Y-151972432D01*
X147336806Y-151793980D01*
X147500387Y-151588856D01*
X147631569Y-151361642D01*
X147727421Y-151117415D01*
X147785803Y-150861629D01*
X147805409Y-150600000D01*
X159534592Y-150600000D01*
X159554197Y-150861625D01*
X159554198Y-150861629D01*
X159612578Y-151117412D01*
X159708428Y-151361635D01*
X159708436Y-151361651D01*
X159839612Y-151588855D01*
X160003194Y-151793980D01*
X160003205Y-151793991D01*
X160195520Y-151972432D01*
X160412292Y-152120226D01*
X160412294Y-152120227D01*
X160412296Y-152120228D01*
X160548406Y-152185775D01*
X160648668Y-152234059D01*
X160648669Y-152234059D01*
X160648677Y-152234063D01*
X160899385Y-152311396D01*
X161158818Y-152350500D01*
X161158822Y-152350500D01*
X161421178Y-152350500D01*
X161421182Y-152350500D01*
X161680615Y-152311396D01*
X161931323Y-152234063D01*
X162167704Y-152120228D01*
X162384479Y-151972433D01*
X162576805Y-151793981D01*
X162740386Y-151588857D01*
X162871568Y-151361643D01*
X162967420Y-151117416D01*
X163025802Y-150861630D01*
X163045408Y-150600000D01*
X163025802Y-150338370D01*
X162967420Y-150082586D01*
X162967419Y-150082583D01*
X162876334Y-149850500D01*
X162871571Y-149838364D01*
X162871569Y-149838361D01*
X162871568Y-149838357D01*
X162871562Y-149838347D01*
X162740387Y-149611144D01*
X162576805Y-149406019D01*
X162576794Y-149406008D01*
X162384479Y-149227567D01*
X162167707Y-149079773D01*
X162167702Y-149079771D01*
X161931331Y-148965940D01*
X161931326Y-148965938D01*
X161931323Y-148965937D01*
X161680615Y-148888604D01*
X161421182Y-148849500D01*
X161158818Y-148849500D01*
X160951271Y-148880783D01*
X160899384Y-148888604D01*
X160887866Y-148892157D01*
X160648677Y-148965937D01*
X160648675Y-148965937D01*
X160648668Y-148965940D01*
X160412297Y-149079771D01*
X160412292Y-149079773D01*
X160195520Y-149227567D01*
X160003205Y-149406008D01*
X160003194Y-149406019D01*
X159839612Y-149611144D01*
X159708436Y-149838348D01*
X159708428Y-149838364D01*
X159612578Y-150082587D01*
X159554198Y-150338370D01*
X159554197Y-150338374D01*
X159534592Y-150600000D01*
X147805409Y-150600000D01*
X147805409Y-150599999D01*
X147785803Y-150338369D01*
X147727421Y-150082583D01*
X147665466Y-149924723D01*
X147631572Y-149838363D01*
X147631569Y-149838357D01*
X147631569Y-149838356D01*
X147525097Y-149653941D01*
X147500388Y-149611143D01*
X147336806Y-149406018D01*
X147336795Y-149406007D01*
X147144480Y-149227566D01*
X146927708Y-149079772D01*
X146927703Y-149079770D01*
X146691332Y-148965939D01*
X146691327Y-148965937D01*
X146691324Y-148965936D01*
X146440616Y-148888603D01*
X146181183Y-148849499D01*
X145918819Y-148849499D01*
X145711272Y-148880782D01*
X145659385Y-148888603D01*
X145514108Y-148933415D01*
X145408678Y-148965936D01*
X145408676Y-148965936D01*
X145408669Y-148965939D01*
X145172298Y-149079770D01*
X145172293Y-149079772D01*
X144955521Y-149227566D01*
X144763206Y-149406007D01*
X144763195Y-149406018D01*
X144599613Y-149611143D01*
X144468437Y-149838347D01*
X144468429Y-149838363D01*
X144372579Y-150082586D01*
X144314199Y-150338369D01*
X144314198Y-150338373D01*
X144294593Y-150599999D01*
X104975364Y-150599999D01*
X104877085Y-150411208D01*
X104867910Y-150391534D01*
X104726009Y-150048954D01*
X104718588Y-150028566D01*
X104607081Y-149674908D01*
X104601467Y-149653956D01*
X104521211Y-149291943D01*
X104517439Y-149270552D01*
X104492322Y-149079770D01*
X104469038Y-148902917D01*
X104467148Y-148881306D01*
X104450737Y-148505428D01*
X104450500Y-148494567D01*
X104450500Y-124470005D01*
X106644532Y-124470005D01*
X106664363Y-124696679D01*
X106664365Y-124696694D01*
X106723261Y-124916496D01*
X106723262Y-124916499D01*
X106819428Y-125122727D01*
X106819436Y-125122741D01*
X106883970Y-125214905D01*
X106949953Y-125309139D01*
X107110861Y-125470047D01*
X107110864Y-125470049D01*
X107110865Y-125470050D01*
X107297258Y-125600563D01*
X107297262Y-125600565D01*
X107297266Y-125600568D01*
X107297270Y-125600569D01*
X107297272Y-125600571D01*
X107421008Y-125658270D01*
X107503504Y-125696739D01*
X107723308Y-125755635D01*
X107742984Y-125757356D01*
X107949994Y-125775468D01*
X107960872Y-125775468D01*
X107960872Y-125776897D01*
X108045360Y-125786144D01*
X108130541Y-125832869D01*
X108191358Y-125908635D01*
X108218551Y-126001906D01*
X108219500Y-126023625D01*
X108219500Y-136882438D01*
X108200546Y-136977726D01*
X108146570Y-137058508D01*
X107301286Y-137903792D01*
X107301284Y-137903794D01*
X107301283Y-137903793D01*
X107189483Y-138015594D01*
X107189481Y-138015597D01*
X107189480Y-138015598D01*
X107139360Y-138102409D01*
X107139359Y-138102408D01*
X107110424Y-138152526D01*
X107110422Y-138152529D01*
X107069499Y-138305257D01*
X107069499Y-138483436D01*
X107069500Y-138483449D01*
X107069500Y-143135665D01*
X107069499Y-143135683D01*
X107069499Y-143309057D01*
X107110421Y-143461781D01*
X107110422Y-143461783D01*
X107110423Y-143461785D01*
X107116814Y-143472855D01*
X107116816Y-143472860D01*
X107116817Y-143472860D01*
X107169373Y-143563890D01*
X107189480Y-143598716D01*
X107301284Y-143710520D01*
X107301286Y-143710521D01*
X107836203Y-144245438D01*
X107890179Y-144326220D01*
X107909133Y-144421508D01*
X107900649Y-144485951D01*
X107884937Y-144544591D01*
X107884935Y-144544598D01*
X107864341Y-144779994D01*
X107864341Y-144780005D01*
X107884935Y-145015401D01*
X107892590Y-145043972D01*
X107946097Y-145243663D01*
X108027030Y-145417224D01*
X108045965Y-145457830D01*
X108146632Y-145601598D01*
X108181505Y-145651401D01*
X108348599Y-145818495D01*
X108542170Y-145954035D01*
X108756337Y-146053903D01*
X108984592Y-146115063D01*
X108984595Y-146115063D01*
X108984598Y-146115064D01*
X109219995Y-146135659D01*
X109220000Y-146135659D01*
X109220005Y-146135659D01*
X109455401Y-146115064D01*
X109455403Y-146115063D01*
X109455408Y-146115063D01*
X109683663Y-146053903D01*
X109897830Y-145954035D01*
X110091401Y-145818495D01*
X110258495Y-145651401D01*
X110390337Y-145463111D01*
X112053707Y-145463111D01*
X112073463Y-145777128D01*
X112073465Y-145777144D01*
X112132418Y-146086181D01*
X112132421Y-146086194D01*
X112229646Y-146385422D01*
X112229648Y-146385426D01*
X112363614Y-146670118D01*
X112532204Y-146935774D01*
X112732761Y-147178205D01*
X112962121Y-147393589D01*
X112962124Y-147393591D01*
X112962126Y-147393593D01*
X113216654Y-147578518D01*
X113216658Y-147578521D01*
X113216667Y-147578527D01*
X113492385Y-147730105D01*
X113784926Y-147845930D01*
X114089678Y-147924177D01*
X114401833Y-147963611D01*
X114401838Y-147963611D01*
X114716464Y-147963611D01*
X114716469Y-147963611D01*
X115028624Y-147924177D01*
X115333376Y-147845930D01*
X115625917Y-147730105D01*
X115901635Y-147578527D01*
X116156181Y-147393589D01*
X116385541Y-147178205D01*
X116586098Y-146935774D01*
X116754688Y-146670118D01*
X116888654Y-146385426D01*
X116985882Y-146086190D01*
X117031915Y-145844876D01*
X117044836Y-145777144D01*
X117044836Y-145777137D01*
X117044839Y-145777126D01*
X117060333Y-145530859D01*
X131904700Y-145530859D01*
X131924456Y-145844876D01*
X131924458Y-145844892D01*
X131983411Y-146153929D01*
X131983414Y-146153942D01*
X132080639Y-146453170D01*
X132080641Y-146453174D01*
X132214607Y-146737866D01*
X132383197Y-147003522D01*
X132583754Y-147245953D01*
X132813114Y-147461337D01*
X132813117Y-147461339D01*
X132813119Y-147461341D01*
X133067647Y-147646266D01*
X133067651Y-147646269D01*
X133067660Y-147646275D01*
X133343378Y-147797853D01*
X133635919Y-147913678D01*
X133940671Y-147991925D01*
X134252826Y-148031359D01*
X134252831Y-148031359D01*
X134567457Y-148031359D01*
X134567462Y-148031359D01*
X134879617Y-147991925D01*
X135184369Y-147913678D01*
X135476910Y-147797853D01*
X135752628Y-147646275D01*
X136007174Y-147461337D01*
X136236534Y-147245953D01*
X136437091Y-147003522D01*
X136605681Y-146737866D01*
X136739647Y-146453174D01*
X136836875Y-146153938D01*
X136895832Y-145844874D01*
X136915588Y-145530859D01*
X136895832Y-145216844D01*
X136895830Y-145216834D01*
X136895829Y-145216825D01*
X136837984Y-144913595D01*
X136836875Y-144907780D01*
X136739647Y-144608544D01*
X136605681Y-144323852D01*
X136558813Y-144250000D01*
X149735738Y-144250000D01*
X149754754Y-144479488D01*
X149811283Y-144702716D01*
X149811285Y-144702721D01*
X149811287Y-144702728D01*
X149903776Y-144913581D01*
X149903784Y-144913596D01*
X150029725Y-145106366D01*
X150029731Y-145106373D01*
X150185692Y-145275792D01*
X150367411Y-145417229D01*
X150569931Y-145526828D01*
X150638544Y-145550383D01*
X150787721Y-145601596D01*
X150787726Y-145601597D01*
X150787729Y-145601598D01*
X151014863Y-145639500D01*
X151245137Y-145639500D01*
X151472271Y-145601598D01*
X151472275Y-145601596D01*
X151472278Y-145601596D01*
X151552841Y-145573938D01*
X151690069Y-145526828D01*
X151892589Y-145417229D01*
X152074308Y-145275792D01*
X152216806Y-145120997D01*
X152295286Y-145063730D01*
X152389709Y-145040854D01*
X152485699Y-145055853D01*
X152568642Y-145106445D01*
X152583185Y-145120988D01*
X152725692Y-145275792D01*
X152907411Y-145417229D01*
X153109931Y-145526828D01*
X153178544Y-145550383D01*
X153327721Y-145601596D01*
X153327726Y-145601597D01*
X153327729Y-145601598D01*
X153554863Y-145639500D01*
X153785137Y-145639500D01*
X154012271Y-145601598D01*
X154012275Y-145601596D01*
X154012278Y-145601596D01*
X154092841Y-145573938D01*
X154230069Y-145526828D01*
X154432589Y-145417229D01*
X154614308Y-145275792D01*
X154756806Y-145120997D01*
X154835286Y-145063730D01*
X154929709Y-145040854D01*
X155025699Y-145055853D01*
X155108642Y-145106445D01*
X155123185Y-145120988D01*
X155265692Y-145275792D01*
X155447411Y-145417229D01*
X155649931Y-145526828D01*
X155718544Y-145550383D01*
X155867721Y-145601596D01*
X155867726Y-145601597D01*
X155867729Y-145601598D01*
X156094863Y-145639500D01*
X156325137Y-145639500D01*
X156552271Y-145601598D01*
X156552275Y-145601596D01*
X156552278Y-145601596D01*
X156632841Y-145573938D01*
X156770069Y-145526828D01*
X156972589Y-145417229D01*
X157154308Y-145275792D01*
X157296806Y-145120997D01*
X157375286Y-145063730D01*
X157469709Y-145040854D01*
X157565699Y-145055853D01*
X157648642Y-145106445D01*
X157663185Y-145120988D01*
X157805692Y-145275792D01*
X157987411Y-145417229D01*
X158189931Y-145526828D01*
X158258544Y-145550383D01*
X158407721Y-145601596D01*
X158407726Y-145601597D01*
X158407729Y-145601598D01*
X158634863Y-145639500D01*
X158865137Y-145639500D01*
X159092271Y-145601598D01*
X159092275Y-145601596D01*
X159092278Y-145601596D01*
X159172841Y-145573938D01*
X159310069Y-145526828D01*
X159512589Y-145417229D01*
X159694308Y-145275792D01*
X159850269Y-145106373D01*
X159976217Y-144913595D01*
X160068717Y-144702716D01*
X160125246Y-144479488D01*
X160144262Y-144250000D01*
X160125246Y-144020512D01*
X160068717Y-143797284D01*
X160068712Y-143797274D01*
X160068712Y-143797271D01*
X159976223Y-143586418D01*
X159976221Y-143586414D01*
X159976217Y-143586405D01*
X159902035Y-143472861D01*
X159850274Y-143393633D01*
X159850268Y-143393626D01*
X159694309Y-143224209D01*
X159694303Y-143224204D01*
X159512594Y-143082775D01*
X159512589Y-143082771D01*
X159310069Y-142973172D01*
X159310067Y-142973171D01*
X159092278Y-142898403D01*
X159092268Y-142898401D01*
X158865137Y-142860500D01*
X158634863Y-142860500D01*
X158407731Y-142898401D01*
X158407721Y-142898403D01*
X158189932Y-142973171D01*
X158189931Y-142973172D01*
X157987412Y-143082770D01*
X157987405Y-143082775D01*
X157805696Y-143224204D01*
X157805690Y-143224209D01*
X157663195Y-143379001D01*
X157584714Y-143436270D01*
X157490290Y-143459145D01*
X157394300Y-143444145D01*
X157311357Y-143393553D01*
X157296805Y-143379001D01*
X157154309Y-143224209D01*
X157154303Y-143224204D01*
X156972594Y-143082775D01*
X156972589Y-143082771D01*
X156770069Y-142973172D01*
X156770067Y-142973171D01*
X156552278Y-142898403D01*
X156552268Y-142898401D01*
X156325137Y-142860500D01*
X156094863Y-142860500D01*
X155867731Y-142898401D01*
X155867721Y-142898403D01*
X155649932Y-142973171D01*
X155649931Y-142973172D01*
X155447412Y-143082770D01*
X155447405Y-143082775D01*
X155265696Y-143224204D01*
X155265690Y-143224209D01*
X155123195Y-143379001D01*
X155044714Y-143436270D01*
X154950290Y-143459145D01*
X154854300Y-143444145D01*
X154771357Y-143393553D01*
X154756805Y-143379001D01*
X154614309Y-143224209D01*
X154614303Y-143224204D01*
X154432594Y-143082775D01*
X154432589Y-143082771D01*
X154230069Y-142973172D01*
X154230067Y-142973171D01*
X154012278Y-142898403D01*
X154012268Y-142898401D01*
X153785137Y-142860500D01*
X153554863Y-142860500D01*
X153327731Y-142898401D01*
X153327721Y-142898403D01*
X153109932Y-142973171D01*
X153109931Y-142973172D01*
X152907412Y-143082770D01*
X152907405Y-143082775D01*
X152725696Y-143224204D01*
X152725690Y-143224209D01*
X152583195Y-143379001D01*
X152504714Y-143436270D01*
X152410290Y-143459145D01*
X152314300Y-143444145D01*
X152231357Y-143393553D01*
X152216805Y-143379001D01*
X152074309Y-143224209D01*
X152074303Y-143224204D01*
X151892594Y-143082775D01*
X151892589Y-143082771D01*
X151690069Y-142973172D01*
X151690067Y-142973171D01*
X151472278Y-142898403D01*
X151472268Y-142898401D01*
X151245137Y-142860500D01*
X151014863Y-142860500D01*
X150787731Y-142898401D01*
X150787721Y-142898403D01*
X150569932Y-142973171D01*
X150569931Y-142973172D01*
X150367412Y-143082770D01*
X150367405Y-143082775D01*
X150185696Y-143224204D01*
X150185690Y-143224209D01*
X150029731Y-143393626D01*
X150029725Y-143393633D01*
X149903784Y-143586403D01*
X149903776Y-143586418D01*
X149811287Y-143797271D01*
X149811284Y-143797280D01*
X149811283Y-143797284D01*
X149754754Y-144020512D01*
X149735738Y-144250000D01*
X136558813Y-144250000D01*
X136437091Y-144058196D01*
X136236534Y-143815765D01*
X136007174Y-143600381D01*
X136007171Y-143600378D01*
X136007168Y-143600376D01*
X135752640Y-143415451D01*
X135752629Y-143415444D01*
X135752630Y-143415444D01*
X135752628Y-143415443D01*
X135629397Y-143347696D01*
X135476913Y-143263866D01*
X135376750Y-143224209D01*
X135184369Y-143148040D01*
X135184362Y-143148038D01*
X135184359Y-143148037D01*
X134993146Y-143098942D01*
X134879617Y-143069793D01*
X134567462Y-143030359D01*
X134252826Y-143030359D01*
X133940671Y-143069793D01*
X133635928Y-143148037D01*
X133635922Y-143148039D01*
X133635919Y-143148040D01*
X133517685Y-143194851D01*
X133343374Y-143263866D01*
X133067658Y-143415444D01*
X133067647Y-143415451D01*
X132813119Y-143600376D01*
X132583753Y-143815766D01*
X132383195Y-144058198D01*
X132214610Y-144323846D01*
X132080639Y-144608547D01*
X131983414Y-144907775D01*
X131983411Y-144907788D01*
X131924458Y-145216825D01*
X131924456Y-145216841D01*
X131904700Y-145530859D01*
X117060333Y-145530859D01*
X117064595Y-145463111D01*
X117044839Y-145149096D01*
X117044837Y-145149086D01*
X117044836Y-145149077D01*
X116998807Y-144907788D01*
X116985882Y-144840032D01*
X116888654Y-144540796D01*
X116754688Y-144256104D01*
X116586098Y-143990448D01*
X116385541Y-143748017D01*
X116156181Y-143532633D01*
X116156178Y-143532630D01*
X116156175Y-143532628D01*
X115901647Y-143347703D01*
X115901636Y-143347696D01*
X115901637Y-143347696D01*
X115901635Y-143347695D01*
X115775761Y-143278495D01*
X115625920Y-143196118D01*
X115504488Y-143148040D01*
X115333376Y-143080292D01*
X115333369Y-143080290D01*
X115333366Y-143080289D01*
X115138900Y-143030359D01*
X115028624Y-143002045D01*
X114716469Y-142962611D01*
X114401833Y-142962611D01*
X114089678Y-143002045D01*
X113784935Y-143080289D01*
X113784929Y-143080291D01*
X113784926Y-143080292D01*
X113706364Y-143111397D01*
X113492381Y-143196118D01*
X113216665Y-143347696D01*
X113216654Y-143347703D01*
X112962126Y-143532628D01*
X112732760Y-143748018D01*
X112532202Y-143990450D01*
X112363617Y-144256098D01*
X112229646Y-144540799D01*
X112132421Y-144840027D01*
X112132418Y-144840040D01*
X112073465Y-145149077D01*
X112073463Y-145149093D01*
X112053707Y-145463111D01*
X110390337Y-145463111D01*
X110394035Y-145457830D01*
X110493903Y-145243663D01*
X110555063Y-145015408D01*
X110555064Y-145015401D01*
X110575659Y-144780005D01*
X110575659Y-144779994D01*
X110555064Y-144544598D01*
X110555063Y-144544595D01*
X110555063Y-144544592D01*
X110493903Y-144316337D01*
X110394035Y-144102171D01*
X110376580Y-144077243D01*
X110300601Y-143968733D01*
X110258495Y-143908599D01*
X110091401Y-143741505D01*
X110052074Y-143713967D01*
X109984891Y-143643789D01*
X109949678Y-143553240D01*
X109951797Y-143456108D01*
X109990925Y-143367181D01*
X110052073Y-143306032D01*
X110091401Y-143278495D01*
X110258495Y-143111401D01*
X110394035Y-142917830D01*
X110493903Y-142703663D01*
X110555063Y-142475408D01*
X110575659Y-142240000D01*
X110575659Y-142239994D01*
X110555064Y-142004598D01*
X110555063Y-142004595D01*
X110555063Y-142004592D01*
X110493903Y-141776337D01*
X110394035Y-141562171D01*
X110258495Y-141368599D01*
X110258492Y-141368596D01*
X110255151Y-141364614D01*
X110253150Y-141360966D01*
X110252259Y-141359694D01*
X110252398Y-141359596D01*
X110208423Y-141279434D01*
X110197848Y-141182857D01*
X110225037Y-141089584D01*
X110285850Y-141013815D01*
X110298571Y-141005135D01*
X110298073Y-141004469D01*
X110312329Y-140993796D01*
X110312331Y-140993796D01*
X110427546Y-140907546D01*
X110513796Y-140792331D01*
X110564091Y-140657483D01*
X110570500Y-140597873D01*
X110570499Y-138802128D01*
X110564091Y-138742517D01*
X110513796Y-138607669D01*
X110427546Y-138492454D01*
X110312331Y-138406204D01*
X110177483Y-138355909D01*
X110177482Y-138355908D01*
X110177448Y-138355896D01*
X110094791Y-138304837D01*
X110037966Y-138226034D01*
X110015623Y-138131483D01*
X110031163Y-138035579D01*
X110082222Y-137952922D01*
X110088370Y-137946550D01*
X110100520Y-137934401D01*
X110179577Y-137797469D01*
X110183236Y-137783814D01*
X110220501Y-137644742D01*
X110220500Y-137486627D01*
X110220500Y-127247510D01*
X110239454Y-127152222D01*
X110293430Y-127071440D01*
X110953423Y-126411447D01*
X111869005Y-125495864D01*
X111949784Y-125441891D01*
X112045072Y-125422937D01*
X112140360Y-125441891D01*
X112187892Y-125467968D01*
X112377258Y-125600563D01*
X112377262Y-125600565D01*
X112377266Y-125600568D01*
X112377270Y-125600569D01*
X112377272Y-125600571D01*
X112501008Y-125658270D01*
X112583504Y-125696739D01*
X112803308Y-125755635D01*
X112822984Y-125757356D01*
X113029994Y-125775468D01*
X113030000Y-125775468D01*
X113030006Y-125775468D01*
X113209668Y-125759749D01*
X113256692Y-125755635D01*
X113476496Y-125696739D01*
X113682734Y-125600568D01*
X113869139Y-125470047D01*
X114030047Y-125309139D01*
X114096031Y-125214902D01*
X114166211Y-125147719D01*
X114256760Y-125112506D01*
X114353892Y-125114625D01*
X114442819Y-125153753D01*
X114503968Y-125214902D01*
X114569953Y-125309139D01*
X114730861Y-125470047D01*
X114730864Y-125470049D01*
X114730865Y-125470050D01*
X114917258Y-125600563D01*
X114917262Y-125600565D01*
X114917266Y-125600568D01*
X114917270Y-125600569D01*
X114917272Y-125600571D01*
X115041008Y-125658270D01*
X115123504Y-125696739D01*
X115343308Y-125755635D01*
X115362984Y-125757356D01*
X115569994Y-125775468D01*
X115570000Y-125775468D01*
X115570006Y-125775468D01*
X115749668Y-125759749D01*
X115796692Y-125755635D01*
X116016496Y-125696739D01*
X116222734Y-125600568D01*
X116409139Y-125470047D01*
X116570047Y-125309139D01*
X116636031Y-125214902D01*
X116706211Y-125147719D01*
X116796760Y-125112506D01*
X116893892Y-125114625D01*
X116982819Y-125153753D01*
X117043968Y-125214902D01*
X117109953Y-125309139D01*
X117270861Y-125470047D01*
X117270864Y-125470049D01*
X117270865Y-125470050D01*
X117457258Y-125600563D01*
X117457262Y-125600565D01*
X117457266Y-125600568D01*
X117457270Y-125600569D01*
X117457272Y-125600571D01*
X117581008Y-125658270D01*
X117663504Y-125696739D01*
X117883308Y-125755635D01*
X117902984Y-125757356D01*
X118109994Y-125775468D01*
X118110000Y-125775468D01*
X118110006Y-125775468D01*
X118289668Y-125759749D01*
X118336692Y-125755635D01*
X118556496Y-125696739D01*
X118762734Y-125600568D01*
X118949139Y-125470047D01*
X119110047Y-125309139D01*
X119176031Y-125214902D01*
X119246211Y-125147719D01*
X119336760Y-125112506D01*
X119433892Y-125114625D01*
X119522819Y-125153753D01*
X119583968Y-125214902D01*
X119649953Y-125309139D01*
X119810861Y-125470047D01*
X119810864Y-125470049D01*
X119810865Y-125470050D01*
X119997258Y-125600563D01*
X119997262Y-125600565D01*
X119997266Y-125600568D01*
X119997270Y-125600569D01*
X119997272Y-125600571D01*
X120121008Y-125658270D01*
X120203504Y-125696739D01*
X120423308Y-125755635D01*
X120442984Y-125757356D01*
X120649994Y-125775468D01*
X120650000Y-125775468D01*
X120650006Y-125775468D01*
X120829668Y-125759749D01*
X120876692Y-125755635D01*
X121096496Y-125696739D01*
X121302734Y-125600568D01*
X121489139Y-125470047D01*
X121650047Y-125309139D01*
X121716031Y-125214902D01*
X121786211Y-125147719D01*
X121876760Y-125112506D01*
X121973892Y-125114625D01*
X122062819Y-125153753D01*
X122123968Y-125214902D01*
X122189953Y-125309139D01*
X122350861Y-125470047D01*
X122350864Y-125470049D01*
X122350865Y-125470050D01*
X122537258Y-125600563D01*
X122537262Y-125600565D01*
X122537266Y-125600568D01*
X122537270Y-125600569D01*
X122537272Y-125600571D01*
X122661008Y-125658270D01*
X122743504Y-125696739D01*
X122963308Y-125755635D01*
X122982984Y-125757356D01*
X123189994Y-125775468D01*
X123190000Y-125775468D01*
X123190006Y-125775468D01*
X123369668Y-125759749D01*
X123416692Y-125755635D01*
X123636496Y-125696739D01*
X123842734Y-125600568D01*
X124029139Y-125470047D01*
X124190047Y-125309139D01*
X124256031Y-125214902D01*
X124326211Y-125147719D01*
X124416760Y-125112506D01*
X124513892Y-125114625D01*
X124602819Y-125153753D01*
X124663968Y-125214902D01*
X124729953Y-125309139D01*
X124890861Y-125470047D01*
X124890864Y-125470049D01*
X124890865Y-125470050D01*
X125077258Y-125600563D01*
X125077262Y-125600565D01*
X125077266Y-125600568D01*
X125077270Y-125600569D01*
X125077272Y-125600571D01*
X125201008Y-125658270D01*
X125283504Y-125696739D01*
X125503308Y-125755635D01*
X125522984Y-125757356D01*
X125729994Y-125775468D01*
X125730000Y-125775468D01*
X125730006Y-125775468D01*
X125909668Y-125759749D01*
X125956692Y-125755635D01*
X126086057Y-125720971D01*
X126183001Y-125714618D01*
X126275000Y-125745848D01*
X126348045Y-125809907D01*
X126391016Y-125897042D01*
X126399500Y-125961488D01*
X126399500Y-129077008D01*
X126380546Y-129172296D01*
X126326570Y-129253078D01*
X124478853Y-131100795D01*
X124478852Y-131100794D01*
X124367050Y-131212596D01*
X124367048Y-131212599D01*
X124322063Y-131290518D01*
X124287992Y-131349530D01*
X124287991Y-131349533D01*
X124247068Y-131502258D01*
X124247068Y-131510461D01*
X124228114Y-131605749D01*
X124174138Y-131686531D01*
X124093356Y-131740507D01*
X123998068Y-131759461D01*
X123902780Y-131740507D01*
X123821998Y-131686531D01*
X123768022Y-131605750D01*
X123733184Y-131521645D01*
X123695466Y-131430585D01*
X123561884Y-131212599D01*
X123560301Y-131210015D01*
X123392295Y-131013304D01*
X123392290Y-131013299D01*
X123195579Y-130845293D01*
X123063912Y-130764608D01*
X122975010Y-130710129D01*
X122855509Y-130660630D01*
X122736010Y-130611131D01*
X122736008Y-130611130D01*
X122484461Y-130550740D01*
X122226574Y-130530444D01*
X122226564Y-130530444D01*
X121968676Y-130550740D01*
X121717129Y-130611130D01*
X121717127Y-130611131D01*
X121478128Y-130710129D01*
X121257558Y-130845293D01*
X121060847Y-131013299D01*
X121060842Y-131013304D01*
X120892836Y-131210015D01*
X120757672Y-131430585D01*
X120658674Y-131669584D01*
X120658673Y-131669586D01*
X120598283Y-131921133D01*
X120577987Y-132179020D01*
X120577987Y-132179031D01*
X120598283Y-132436918D01*
X120658673Y-132688465D01*
X120658674Y-132688467D01*
X120685115Y-132752300D01*
X120757672Y-132927467D01*
X120794429Y-132987449D01*
X120892836Y-133148036D01*
X121042281Y-133323014D01*
X121089752Y-133407782D01*
X121101171Y-133504263D01*
X121074799Y-133597770D01*
X121042281Y-133646438D01*
X120892836Y-133821415D01*
X120757672Y-134041985D01*
X120658674Y-134280984D01*
X120658673Y-134280986D01*
X120598283Y-134532533D01*
X120577987Y-134790420D01*
X120577987Y-134790431D01*
X120598283Y-135048318D01*
X120658673Y-135299865D01*
X120658674Y-135299867D01*
X120671762Y-135331463D01*
X120757672Y-135538867D01*
X120807342Y-135619921D01*
X120892836Y-135759436D01*
X121060842Y-135956147D01*
X121060847Y-135956152D01*
X121257558Y-136124158D01*
X121319124Y-136161885D01*
X121478128Y-136259323D01*
X121717129Y-136358321D01*
X121968674Y-136418711D01*
X122042358Y-136424510D01*
X122226564Y-136439008D01*
X122226569Y-136439008D01*
X122226574Y-136439008D01*
X122387753Y-136426322D01*
X122484464Y-136418711D01*
X122736009Y-136358321D01*
X122975010Y-136259323D01*
X123195581Y-136124157D01*
X123392293Y-135956150D01*
X123560300Y-135759438D01*
X123695466Y-135538867D01*
X123768022Y-135363701D01*
X123821999Y-135282920D01*
X123902780Y-135228944D01*
X123998068Y-135209990D01*
X124093356Y-135228944D01*
X124174138Y-135282921D01*
X124228114Y-135363702D01*
X124247068Y-135458990D01*
X124247068Y-135467193D01*
X124287991Y-135619921D01*
X124287992Y-135619922D01*
X124298262Y-135637710D01*
X124367049Y-135756853D01*
X124478853Y-135868657D01*
X124478855Y-135868658D01*
X125668910Y-137058713D01*
X125668912Y-137058716D01*
X125780716Y-137170520D01*
X125867523Y-137220637D01*
X125867526Y-137220639D01*
X125917640Y-137249573D01*
X125917647Y-137249577D01*
X125917651Y-137249578D01*
X126070371Y-137290500D01*
X126070374Y-137290500D01*
X126070375Y-137290500D01*
X135283386Y-137290500D01*
X135283402Y-137290501D01*
X135298663Y-137290501D01*
X135456776Y-137290501D01*
X135456777Y-137290501D01*
X135609505Y-137249577D01*
X135659624Y-137220639D01*
X135746436Y-137170520D01*
X135858240Y-137058716D01*
X135858240Y-137058714D01*
X135878700Y-137038255D01*
X135878720Y-137038233D01*
X140127630Y-132789324D01*
X145113899Y-132789324D01*
X145129189Y-132866192D01*
X145153308Y-132987449D01*
X145230610Y-133174072D01*
X145230616Y-133174082D01*
X145342836Y-133342033D01*
X145342838Y-133342035D01*
X145342841Y-133342039D01*
X145485681Y-133484879D01*
X145485684Y-133484881D01*
X145485686Y-133484883D01*
X145577353Y-133546132D01*
X145653643Y-133597107D01*
X145653645Y-133597107D01*
X145653647Y-133597109D01*
X145772737Y-133646438D01*
X145840272Y-133674412D01*
X146038396Y-133713821D01*
X146038398Y-133713821D01*
X146690400Y-133713821D01*
X146690402Y-133713821D01*
X146888526Y-133674412D01*
X147075155Y-133597107D01*
X147243117Y-133484879D01*
X147385957Y-133342039D01*
X147498185Y-133174077D01*
X147575490Y-132987448D01*
X147614899Y-132789324D01*
X152098899Y-132789324D01*
X152114189Y-132866192D01*
X152138308Y-132987449D01*
X152215610Y-133174072D01*
X152215616Y-133174082D01*
X152327836Y-133342033D01*
X152327838Y-133342035D01*
X152327841Y-133342039D01*
X152470681Y-133484879D01*
X152470684Y-133484881D01*
X152470686Y-133484883D01*
X152562353Y-133546132D01*
X152638643Y-133597107D01*
X152638645Y-133597107D01*
X152638647Y-133597109D01*
X152757737Y-133646438D01*
X152825272Y-133674412D01*
X153023396Y-133713821D01*
X153023398Y-133713821D01*
X153675400Y-133713821D01*
X153675402Y-133713821D01*
X153873526Y-133674412D01*
X154060155Y-133597107D01*
X154228117Y-133484879D01*
X154370957Y-133342039D01*
X154483185Y-133174077D01*
X154560490Y-132987448D01*
X154599899Y-132789324D01*
X154599899Y-132587318D01*
X154560490Y-132389194D01*
X154483185Y-132202565D01*
X154475898Y-132191659D01*
X154438718Y-132101900D01*
X154438717Y-132004745D01*
X154475896Y-131914985D01*
X154475898Y-131914983D01*
X154483182Y-131904081D01*
X154483185Y-131904077D01*
X154560490Y-131717448D01*
X154599899Y-131519324D01*
X154599899Y-131317318D01*
X154560490Y-131119194D01*
X154516628Y-131013302D01*
X154483187Y-130932569D01*
X154483181Y-130932559D01*
X154370961Y-130764608D01*
X154370959Y-130764606D01*
X154370957Y-130764603D01*
X154228117Y-130621763D01*
X154228113Y-130621760D01*
X154228111Y-130621758D01*
X154060160Y-130509538D01*
X154060150Y-130509532D01*
X153873527Y-130432230D01*
X153807484Y-130419093D01*
X153675402Y-130392821D01*
X153023396Y-130392821D01*
X152924334Y-130412525D01*
X152825270Y-130432230D01*
X152638647Y-130509532D01*
X152638637Y-130509538D01*
X152470686Y-130621758D01*
X152327836Y-130764608D01*
X152215616Y-130932559D01*
X152215610Y-130932569D01*
X152138308Y-131119192D01*
X152138308Y-131119194D01*
X152098899Y-131317318D01*
X152098899Y-131519324D01*
X152099361Y-131521645D01*
X152138308Y-131717449D01*
X152215610Y-131904072D01*
X152215615Y-131904080D01*
X152222904Y-131914990D01*
X152260081Y-132004750D01*
X152260078Y-132101905D01*
X152222904Y-132191652D01*
X152215615Y-132202561D01*
X152215610Y-132202569D01*
X152138308Y-132389192D01*
X152127442Y-132443821D01*
X152098899Y-132587318D01*
X152098899Y-132789324D01*
X147614899Y-132789324D01*
X147614899Y-132587318D01*
X147575490Y-132389194D01*
X147498185Y-132202565D01*
X147490898Y-132191659D01*
X147453718Y-132101900D01*
X147453717Y-132004745D01*
X147490896Y-131914985D01*
X147490898Y-131914983D01*
X147498182Y-131904081D01*
X147498185Y-131904077D01*
X147575490Y-131717448D01*
X147614899Y-131519324D01*
X147614899Y-131317318D01*
X147575490Y-131119194D01*
X147531628Y-131013302D01*
X147498187Y-130932569D01*
X147498181Y-130932559D01*
X147385961Y-130764608D01*
X147385959Y-130764606D01*
X147385957Y-130764603D01*
X147243117Y-130621763D01*
X147243113Y-130621760D01*
X147243111Y-130621758D01*
X147075160Y-130509538D01*
X147075150Y-130509532D01*
X146888527Y-130432230D01*
X146822484Y-130419093D01*
X146690402Y-130392821D01*
X146038396Y-130392821D01*
X145939334Y-130412525D01*
X145840270Y-130432230D01*
X145653647Y-130509532D01*
X145653637Y-130509538D01*
X145485686Y-130621758D01*
X145342836Y-130764608D01*
X145230616Y-130932559D01*
X145230610Y-130932569D01*
X145153308Y-131119192D01*
X145153308Y-131119194D01*
X145113899Y-131317318D01*
X145113899Y-131519324D01*
X145114361Y-131521645D01*
X145153308Y-131717449D01*
X145230610Y-131904072D01*
X145230615Y-131904080D01*
X145237904Y-131914990D01*
X145275081Y-132004750D01*
X145275078Y-132101905D01*
X145237904Y-132191652D01*
X145230615Y-132202561D01*
X145230610Y-132202569D01*
X145153308Y-132389192D01*
X145142442Y-132443821D01*
X145113899Y-132587318D01*
X145113899Y-132789324D01*
X140127630Y-132789324D01*
X141059017Y-131857937D01*
X141139797Y-131803963D01*
X141235085Y-131785009D01*
X141259491Y-131786208D01*
X141274157Y-131787653D01*
X141284397Y-131788662D01*
X141284399Y-131788662D01*
X141480531Y-131769345D01*
X141669126Y-131712135D01*
X141842937Y-131619231D01*
X141995282Y-131494204D01*
X142120309Y-131341859D01*
X142213213Y-131168048D01*
X142270423Y-130979453D01*
X142289740Y-130783321D01*
X142270423Y-130587189D01*
X142213213Y-130398594D01*
X142213211Y-130398591D01*
X142213210Y-130398587D01*
X142120310Y-130224784D01*
X142017177Y-130099117D01*
X141995282Y-130072438D01*
X141884857Y-129981814D01*
X141842935Y-129947409D01*
X141836777Y-129943295D01*
X141768078Y-129874596D01*
X141730899Y-129784837D01*
X141730898Y-129687682D01*
X141768078Y-129597922D01*
X141799039Y-129560194D01*
X148958713Y-122400521D01*
X148958716Y-122400520D01*
X149070520Y-122288716D01*
X149149577Y-122151784D01*
X149190500Y-121999057D01*
X149190500Y-120373008D01*
X149209454Y-120277720D01*
X149263430Y-120196938D01*
X149344212Y-120142962D01*
X149439500Y-120124008D01*
X149534788Y-120142962D01*
X149615570Y-120196938D01*
X149762066Y-120343434D01*
X149816042Y-120424216D01*
X149834996Y-120519504D01*
X149834049Y-120541202D01*
X149824532Y-120650000D01*
X149824532Y-120650005D01*
X149844363Y-120876679D01*
X149844365Y-120876694D01*
X149903261Y-121096496D01*
X149903262Y-121096499D01*
X149999428Y-121302727D01*
X149999436Y-121302741D01*
X150129949Y-121489134D01*
X150129953Y-121489139D01*
X150290861Y-121650047D01*
X150290864Y-121650049D01*
X150290865Y-121650050D01*
X150477258Y-121780563D01*
X150477262Y-121780565D01*
X150477266Y-121780568D01*
X150683504Y-121876739D01*
X150903308Y-121935635D01*
X150905537Y-121935830D01*
X151129994Y-121955468D01*
X151130000Y-121955468D01*
X151130004Y-121955468D01*
X151238791Y-121945950D01*
X151335369Y-121956526D01*
X151420547Y-122003256D01*
X151436564Y-122017932D01*
X156650969Y-127232336D01*
X156704945Y-127313118D01*
X156723899Y-127408406D01*
X156723899Y-130167650D01*
X156704945Y-130262938D01*
X156650969Y-130343720D01*
X156570187Y-130397696D01*
X156499306Y-130415451D01*
X156328266Y-130432297D01*
X156139673Y-130489506D01*
X156139665Y-130489509D01*
X155965862Y-130582409D01*
X155813519Y-130707435D01*
X155813513Y-130707441D01*
X155688487Y-130859784D01*
X155595587Y-131033587D01*
X155595584Y-131033595D01*
X155538374Y-131222189D01*
X155519058Y-131418321D01*
X155538374Y-131614452D01*
X155595584Y-131803046D01*
X155595587Y-131803054D01*
X155688487Y-131976857D01*
X155728907Y-132026108D01*
X155813516Y-132129204D01*
X155813671Y-132129331D01*
X155965862Y-132254232D01*
X156139665Y-132347132D01*
X156139669Y-132347133D01*
X156139672Y-132347135D01*
X156328267Y-132404345D01*
X156524399Y-132423662D01*
X156639290Y-132412346D01*
X156735974Y-132421869D01*
X156821657Y-132467667D01*
X156870731Y-132521811D01*
X156891447Y-132552815D01*
X161559263Y-137220631D01*
X166225914Y-141887282D01*
X166279890Y-141968064D01*
X166298844Y-142063352D01*
X166297897Y-142085053D01*
X166284341Y-142240004D01*
X166284341Y-142240005D01*
X166304935Y-142475401D01*
X166304937Y-142475408D01*
X166366097Y-142703663D01*
X166465965Y-142917830D01*
X166601505Y-143111401D01*
X166768599Y-143278495D01*
X166807925Y-143306031D01*
X166875107Y-143376209D01*
X166910321Y-143466758D01*
X166908202Y-143563890D01*
X166869074Y-143652818D01*
X166807928Y-143713965D01*
X166768603Y-143741501D01*
X166601504Y-143908600D01*
X166465965Y-144102169D01*
X166465961Y-144102177D01*
X166366098Y-144316333D01*
X166366097Y-144316335D01*
X166304935Y-144544598D01*
X166284341Y-144779994D01*
X166284341Y-144780005D01*
X166304935Y-145015401D01*
X166312590Y-145043972D01*
X166366097Y-145243663D01*
X166447030Y-145417224D01*
X166465965Y-145457830D01*
X166566632Y-145601598D01*
X166601505Y-145651401D01*
X166768599Y-145818495D01*
X166962170Y-145954035D01*
X167176337Y-146053903D01*
X167404592Y-146115063D01*
X167404595Y-146115063D01*
X167404598Y-146115064D01*
X167639995Y-146135659D01*
X167640000Y-146135659D01*
X167640005Y-146135659D01*
X167875401Y-146115064D01*
X167875403Y-146115063D01*
X167875408Y-146115063D01*
X168103663Y-146053903D01*
X168317830Y-145954035D01*
X168511401Y-145818495D01*
X168678495Y-145651401D01*
X168814035Y-145457830D01*
X168913903Y-145243663D01*
X168975063Y-145015408D01*
X168975064Y-145015401D01*
X168995659Y-144780005D01*
X168995659Y-144779994D01*
X168975064Y-144544598D01*
X168975063Y-144544595D01*
X168975063Y-144544592D01*
X168913903Y-144316337D01*
X168814035Y-144102171D01*
X168796580Y-144077243D01*
X168720601Y-143968733D01*
X168678495Y-143908599D01*
X168511401Y-143741505D01*
X168472074Y-143713967D01*
X168404891Y-143643789D01*
X168369678Y-143553240D01*
X168371797Y-143456108D01*
X168410925Y-143367181D01*
X168472073Y-143306032D01*
X168511401Y-143278495D01*
X168678495Y-143111401D01*
X168814035Y-142917830D01*
X168913903Y-142703663D01*
X168975063Y-142475408D01*
X168995659Y-142240000D01*
X168995659Y-142239994D01*
X168975064Y-142004598D01*
X168975063Y-142004595D01*
X168975063Y-142004592D01*
X168913903Y-141776337D01*
X168814035Y-141562171D01*
X168678495Y-141368599D01*
X168511401Y-141201505D01*
X168317830Y-141065965D01*
X168103663Y-140966097D01*
X168103660Y-140966096D01*
X167875401Y-140904935D01*
X167640005Y-140884341D01*
X167640004Y-140884341D01*
X167640001Y-140884341D01*
X167640000Y-140884341D01*
X167569064Y-140890547D01*
X167485053Y-140897897D01*
X167388476Y-140887319D01*
X167303297Y-140840589D01*
X167287282Y-140825914D01*
X159811373Y-133350005D01*
X167554341Y-133350005D01*
X167574935Y-133585401D01*
X167578070Y-133597103D01*
X167636097Y-133813663D01*
X167708744Y-133969454D01*
X167735965Y-134027830D01*
X167846654Y-134185911D01*
X167871505Y-134221401D01*
X168038599Y-134388495D01*
X168232170Y-134524035D01*
X168446337Y-134623903D01*
X168674592Y-134685063D01*
X168674595Y-134685063D01*
X168674598Y-134685064D01*
X168909995Y-134705659D01*
X168910000Y-134705659D01*
X168910005Y-134705659D01*
X169145401Y-134685064D01*
X169145403Y-134685063D01*
X169145408Y-134685063D01*
X169373663Y-134623903D01*
X169587830Y-134524035D01*
X169781401Y-134388495D01*
X169948495Y-134221401D01*
X170084035Y-134027830D01*
X170183903Y-133813663D01*
X170245063Y-133585408D01*
X170247140Y-133561670D01*
X170265659Y-133350005D01*
X170265659Y-133349994D01*
X170245064Y-133114598D01*
X170245063Y-133114595D01*
X170245063Y-133114592D01*
X170183903Y-132886337D01*
X170084035Y-132672171D01*
X170083578Y-132671519D01*
X170024621Y-132587319D01*
X169948495Y-132478599D01*
X169781401Y-132311505D01*
X169742074Y-132283967D01*
X169674891Y-132213789D01*
X169639678Y-132123240D01*
X169641797Y-132026108D01*
X169680925Y-131937181D01*
X169742073Y-131876032D01*
X169781401Y-131848495D01*
X169948495Y-131681401D01*
X170084035Y-131487830D01*
X170183903Y-131273663D01*
X170245063Y-131045408D01*
X170246097Y-131033594D01*
X170265659Y-130810005D01*
X170265659Y-130809994D01*
X170245064Y-130574598D01*
X170245063Y-130574595D01*
X170245063Y-130574592D01*
X170183903Y-130346337D01*
X170139662Y-130251462D01*
X170084038Y-130132177D01*
X170084034Y-130132169D01*
X169978754Y-129981814D01*
X169948495Y-129938599D01*
X169781401Y-129771505D01*
X169661689Y-129687682D01*
X169587830Y-129635965D01*
X169535916Y-129611757D01*
X169373663Y-129536097D01*
X169373660Y-129536096D01*
X169145401Y-129474935D01*
X168910005Y-129454341D01*
X168909995Y-129454341D01*
X168674598Y-129474935D01*
X168446335Y-129536097D01*
X168446333Y-129536098D01*
X168232177Y-129635961D01*
X168232169Y-129635965D01*
X168038600Y-129771504D01*
X167871504Y-129938600D01*
X167735965Y-130132169D01*
X167735961Y-130132177D01*
X167636098Y-130346333D01*
X167636097Y-130346335D01*
X167574935Y-130574598D01*
X167554341Y-130809994D01*
X167554341Y-130810005D01*
X167574935Y-131045401D01*
X167619042Y-131210014D01*
X167636097Y-131273663D01*
X167703552Y-131418321D01*
X167735965Y-131487830D01*
X167863230Y-131669584D01*
X167871505Y-131681401D01*
X168038599Y-131848495D01*
X168077925Y-131876031D01*
X168145107Y-131946209D01*
X168180321Y-132036758D01*
X168178202Y-132133890D01*
X168139074Y-132222818D01*
X168077928Y-132283965D01*
X168038603Y-132311501D01*
X167871504Y-132478600D01*
X167735965Y-132672169D01*
X167735961Y-132672177D01*
X167636098Y-132886333D01*
X167636097Y-132886335D01*
X167574935Y-133114598D01*
X167554341Y-133349994D01*
X167554341Y-133350005D01*
X159811373Y-133350005D01*
X158297829Y-131836461D01*
X158243853Y-131755679D01*
X158224899Y-131660391D01*
X158224899Y-126920480D01*
X158224898Y-126920478D01*
X158196057Y-126775487D01*
X158196057Y-126775486D01*
X158139483Y-126638904D01*
X158057350Y-126515983D01*
X158057348Y-126515981D01*
X157952815Y-126411447D01*
X157952815Y-126411448D01*
X152497932Y-120956564D01*
X152443956Y-120875782D01*
X152425002Y-120780494D01*
X152425950Y-120758791D01*
X152435468Y-120650004D01*
X152435468Y-120649994D01*
X152415636Y-120423320D01*
X152415635Y-120423308D01*
X152380971Y-120293942D01*
X152374618Y-120196999D01*
X152405848Y-120105000D01*
X152469907Y-120031955D01*
X152557042Y-119988984D01*
X152621488Y-119980500D01*
X157200500Y-119980500D01*
X157295788Y-119999454D01*
X157376570Y-120053430D01*
X157430546Y-120134212D01*
X157449500Y-120229500D01*
X157449500Y-121497865D01*
X157449500Y-121497868D01*
X157449501Y-121497872D01*
X157451567Y-121517093D01*
X157455908Y-121557480D01*
X157455909Y-121557484D01*
X157503320Y-121684598D01*
X157506204Y-121692331D01*
X157592454Y-121807546D01*
X157707669Y-121893796D01*
X157842517Y-121944091D01*
X157902127Y-121950500D01*
X159597872Y-121950499D01*
X159657483Y-121944091D01*
X159792331Y-121893796D01*
X159907546Y-121807546D01*
X159993796Y-121692331D01*
X160044091Y-121557483D01*
X160050500Y-121497873D01*
X160050499Y-120229499D01*
X160069453Y-120134212D01*
X160123429Y-120053431D01*
X160204211Y-119999454D01*
X160299499Y-119980500D01*
X161202197Y-119980500D01*
X161297485Y-119999454D01*
X161378267Y-120053430D01*
X161406161Y-120086674D01*
X161521505Y-120251401D01*
X161688599Y-120418495D01*
X161727925Y-120446031D01*
X161795107Y-120516209D01*
X161830321Y-120606758D01*
X161828202Y-120703890D01*
X161789074Y-120792818D01*
X161727928Y-120853965D01*
X161688603Y-120881501D01*
X161521504Y-121048600D01*
X161385965Y-121242169D01*
X161385961Y-121242177D01*
X161286098Y-121456333D01*
X161286097Y-121456335D01*
X161224935Y-121684598D01*
X161204341Y-121919994D01*
X161204341Y-121920005D01*
X161224935Y-122155401D01*
X161260655Y-122288713D01*
X161286097Y-122383663D01*
X161385965Y-122597830D01*
X161521505Y-122791401D01*
X161688599Y-122958495D01*
X161882170Y-123094035D01*
X162096337Y-123193903D01*
X162324592Y-123255063D01*
X162324595Y-123255063D01*
X162324598Y-123255064D01*
X162559995Y-123275659D01*
X162560000Y-123275659D01*
X162560005Y-123275659D01*
X162795401Y-123255064D01*
X162795403Y-123255063D01*
X162795408Y-123255063D01*
X163023663Y-123193903D01*
X163237830Y-123094035D01*
X163431401Y-122958495D01*
X163598495Y-122791401D01*
X163734035Y-122597830D01*
X163833903Y-122383663D01*
X163895063Y-122155408D01*
X163895380Y-122151784D01*
X163915659Y-121920005D01*
X163915659Y-121919994D01*
X163895064Y-121684598D01*
X163895063Y-121684595D01*
X163895063Y-121684592D01*
X163833903Y-121456337D01*
X163793563Y-121369829D01*
X163734038Y-121242177D01*
X163734034Y-121242169D01*
X163650259Y-121122526D01*
X163598495Y-121048599D01*
X163431401Y-120881505D01*
X163392074Y-120853967D01*
X163324891Y-120783789D01*
X163289678Y-120693240D01*
X163291797Y-120596108D01*
X163330925Y-120507181D01*
X163392073Y-120446032D01*
X163431401Y-120418495D01*
X163598495Y-120251401D01*
X163734035Y-120057830D01*
X163833903Y-119843663D01*
X163895063Y-119615408D01*
X163915659Y-119380000D01*
X163915659Y-119379994D01*
X163895064Y-119144598D01*
X163895063Y-119144595D01*
X163895063Y-119144592D01*
X163833903Y-118916337D01*
X163734035Y-118702171D01*
X163598495Y-118508599D01*
X163431401Y-118341505D01*
X163392074Y-118313967D01*
X163324891Y-118243789D01*
X163289678Y-118153240D01*
X163291797Y-118056108D01*
X163330925Y-117967181D01*
X163392073Y-117906032D01*
X163431401Y-117878495D01*
X163598495Y-117711401D01*
X163734035Y-117517830D01*
X163833903Y-117303663D01*
X163895063Y-117075408D01*
X163915659Y-116840000D01*
X163915659Y-116839994D01*
X163895064Y-116604598D01*
X163895063Y-116604595D01*
X163895063Y-116604592D01*
X163833903Y-116376337D01*
X163768330Y-116235717D01*
X163734038Y-116162177D01*
X163734034Y-116162169D01*
X163661881Y-116059124D01*
X163598495Y-115968599D01*
X163431401Y-115801505D01*
X163392074Y-115773967D01*
X163324891Y-115703789D01*
X163289678Y-115613240D01*
X163291797Y-115516108D01*
X163330925Y-115427181D01*
X163392073Y-115366032D01*
X163431401Y-115338495D01*
X163598495Y-115171401D01*
X163734035Y-114977830D01*
X163833903Y-114763663D01*
X163895063Y-114535408D01*
X163915659Y-114300000D01*
X163915659Y-114299994D01*
X163895064Y-114064598D01*
X163895063Y-114064595D01*
X163895063Y-114064592D01*
X163833903Y-113836337D01*
X163734035Y-113622171D01*
X163598495Y-113428599D01*
X163431401Y-113261505D01*
X163392074Y-113233967D01*
X163324891Y-113163789D01*
X163289678Y-113073240D01*
X163291797Y-112976108D01*
X163330925Y-112887181D01*
X163392073Y-112826032D01*
X163431401Y-112798495D01*
X163598495Y-112631401D01*
X163734035Y-112437830D01*
X163833903Y-112223663D01*
X163895063Y-111995408D01*
X163903164Y-111902820D01*
X163915659Y-111760005D01*
X163915659Y-111759994D01*
X163895064Y-111524598D01*
X163895063Y-111524595D01*
X163895063Y-111524592D01*
X163833903Y-111296337D01*
X163771621Y-111162774D01*
X163734038Y-111082177D01*
X163734034Y-111082169D01*
X163652250Y-110965370D01*
X163598495Y-110888599D01*
X163431401Y-110721505D01*
X163392074Y-110693967D01*
X163324891Y-110623789D01*
X163289678Y-110533240D01*
X163291797Y-110436108D01*
X163330925Y-110347181D01*
X163392073Y-110286032D01*
X163431401Y-110258495D01*
X163598495Y-110091401D01*
X163734035Y-109897830D01*
X163833903Y-109683663D01*
X163895063Y-109455408D01*
X163914784Y-109230005D01*
X163915659Y-109220005D01*
X163915659Y-109219994D01*
X163895064Y-108984598D01*
X163895063Y-108984595D01*
X163895063Y-108984592D01*
X163833903Y-108756337D01*
X163793955Y-108670670D01*
X163734038Y-108542177D01*
X163734034Y-108542169D01*
X163684724Y-108471747D01*
X163598495Y-108348599D01*
X163431401Y-108181505D01*
X163392074Y-108153967D01*
X163324891Y-108083789D01*
X163289678Y-107993240D01*
X163291797Y-107896108D01*
X163330925Y-107807181D01*
X163392073Y-107746032D01*
X163431401Y-107718495D01*
X163598495Y-107551401D01*
X163734035Y-107357830D01*
X163833903Y-107143663D01*
X163895063Y-106915408D01*
X163915659Y-106680000D01*
X163915659Y-106679994D01*
X163895064Y-106444598D01*
X163895063Y-106444595D01*
X163895063Y-106444592D01*
X163833903Y-106216337D01*
X163766988Y-106072838D01*
X163734038Y-106002177D01*
X163734034Y-106002169D01*
X163655842Y-105890500D01*
X163598495Y-105808599D01*
X163431401Y-105641505D01*
X163392074Y-105613967D01*
X163324891Y-105543789D01*
X163289678Y-105453240D01*
X163291797Y-105356108D01*
X163330925Y-105267181D01*
X163392073Y-105206032D01*
X163431401Y-105178495D01*
X163598495Y-105011401D01*
X163734035Y-104817830D01*
X163833903Y-104603663D01*
X163895063Y-104375408D01*
X163897991Y-104341947D01*
X163915659Y-104140005D01*
X163915659Y-104139994D01*
X163895064Y-103904598D01*
X163895063Y-103904595D01*
X163895063Y-103904592D01*
X163833903Y-103676337D01*
X163756424Y-103510184D01*
X163734038Y-103462177D01*
X163734034Y-103462169D01*
X163690950Y-103400639D01*
X163598495Y-103268599D01*
X163598492Y-103268596D01*
X163595151Y-103264614D01*
X163593150Y-103260966D01*
X163592259Y-103259694D01*
X163592398Y-103259596D01*
X163548423Y-103179434D01*
X163537848Y-103082857D01*
X163565037Y-102989584D01*
X163625850Y-102913815D01*
X163638571Y-102905135D01*
X163638073Y-102904469D01*
X163652329Y-102893796D01*
X163652331Y-102893796D01*
X163767546Y-102807546D01*
X163853796Y-102692331D01*
X163904091Y-102557483D01*
X163910500Y-102497873D01*
X163910499Y-100702128D01*
X163904091Y-100642517D01*
X163853796Y-100507669D01*
X163767546Y-100392454D01*
X163652331Y-100306204D01*
X163563518Y-100273079D01*
X163517481Y-100255908D01*
X163457876Y-100249500D01*
X163457873Y-100249500D01*
X162374008Y-100249500D01*
X162278720Y-100230546D01*
X162197938Y-100176570D01*
X161518430Y-99497062D01*
X161464454Y-99416280D01*
X161445500Y-99320992D01*
X161445500Y-90475404D01*
X161464454Y-90380116D01*
X161518430Y-90299334D01*
X161599212Y-90245358D01*
X161694500Y-90226404D01*
X161748824Y-90233557D01*
X161748892Y-90233176D01*
X161757638Y-90234718D01*
X161758951Y-90234891D01*
X161759592Y-90235063D01*
X161783700Y-90237172D01*
X161994995Y-90255659D01*
X161995000Y-90255659D01*
X161995005Y-90255659D01*
X162230401Y-90235064D01*
X162230403Y-90235063D01*
X162230408Y-90235063D01*
X162458663Y-90173903D01*
X162672830Y-90074035D01*
X162866401Y-89938495D01*
X163033495Y-89771401D01*
X163169035Y-89577830D01*
X163268903Y-89363663D01*
X163330063Y-89135408D01*
X163330064Y-89135401D01*
X163350659Y-88900005D01*
X163350659Y-88899994D01*
X163330064Y-88664598D01*
X163330063Y-88664595D01*
X163330063Y-88664592D01*
X163268903Y-88436337D01*
X163220015Y-88331497D01*
X163169038Y-88222177D01*
X163169034Y-88222169D01*
X163084017Y-88100752D01*
X163033495Y-88028599D01*
X162866401Y-87861505D01*
X162827074Y-87833967D01*
X162759891Y-87763789D01*
X162724678Y-87673240D01*
X162726797Y-87576108D01*
X162765925Y-87487181D01*
X162827073Y-87426032D01*
X162866401Y-87398495D01*
X163033495Y-87231401D01*
X163169035Y-87037830D01*
X163268903Y-86823663D01*
X163330063Y-86595408D01*
X163330064Y-86595401D01*
X163350659Y-86360005D01*
X163350659Y-86359994D01*
X163330064Y-86124598D01*
X163330063Y-86124595D01*
X163330063Y-86124592D01*
X163268903Y-85896337D01*
X163220015Y-85791497D01*
X163169038Y-85682177D01*
X163169034Y-85682169D01*
X163081123Y-85556619D01*
X163033495Y-85488599D01*
X162866401Y-85321505D01*
X162827074Y-85293967D01*
X162759891Y-85223789D01*
X162724678Y-85133240D01*
X162726797Y-85036108D01*
X162765925Y-84947181D01*
X162827073Y-84886032D01*
X162866401Y-84858495D01*
X163033495Y-84691401D01*
X163169035Y-84497830D01*
X163268903Y-84283663D01*
X163330063Y-84055408D01*
X163330064Y-84055401D01*
X163350659Y-83820005D01*
X163350659Y-83819994D01*
X163330064Y-83584598D01*
X163330063Y-83584595D01*
X163330063Y-83584592D01*
X163268903Y-83356337D01*
X163175673Y-83156406D01*
X163169038Y-83142177D01*
X163169034Y-83142169D01*
X163105644Y-83051639D01*
X163033495Y-82948599D01*
X162866401Y-82781505D01*
X162827074Y-82753967D01*
X162759891Y-82683789D01*
X162724678Y-82593240D01*
X162726797Y-82496108D01*
X162765925Y-82407181D01*
X162827073Y-82346032D01*
X162866401Y-82318495D01*
X163033495Y-82151401D01*
X163169035Y-81957830D01*
X163268903Y-81743663D01*
X163330063Y-81515408D01*
X163330064Y-81515401D01*
X163350659Y-81280005D01*
X163350659Y-81279994D01*
X163330064Y-81044598D01*
X163330063Y-81044595D01*
X163330063Y-81044592D01*
X163268903Y-80816337D01*
X163169035Y-80602171D01*
X163033495Y-80408599D01*
X162866401Y-80241505D01*
X162827074Y-80213967D01*
X162759891Y-80143789D01*
X162724678Y-80053240D01*
X162726797Y-79956108D01*
X162765925Y-79867181D01*
X162827073Y-79806032D01*
X162866401Y-79778495D01*
X163033495Y-79611401D01*
X163169035Y-79417830D01*
X163268903Y-79203663D01*
X163330063Y-78975408D01*
X163330064Y-78975401D01*
X163350659Y-78740005D01*
X163350659Y-78739994D01*
X163330064Y-78504598D01*
X163330063Y-78504595D01*
X163330063Y-78504592D01*
X163268903Y-78276337D01*
X163169035Y-78062171D01*
X163033495Y-77868599D01*
X162866401Y-77701505D01*
X162672830Y-77565965D01*
X162458663Y-77466097D01*
X162458660Y-77466096D01*
X162230401Y-77404935D01*
X161995005Y-77384341D01*
X161994995Y-77384341D01*
X161759598Y-77404935D01*
X161531335Y-77466097D01*
X161531333Y-77466098D01*
X161317177Y-77565961D01*
X161317169Y-77565965D01*
X161123600Y-77701504D01*
X160956504Y-77868600D01*
X160820965Y-78062169D01*
X160820961Y-78062177D01*
X160721098Y-78276333D01*
X160721097Y-78276335D01*
X160659935Y-78504598D01*
X160639341Y-78739994D01*
X160639341Y-78740005D01*
X160659935Y-78975401D01*
X160703663Y-79138600D01*
X160721097Y-79203663D01*
X160820965Y-79417830D01*
X160956505Y-79611401D01*
X161123599Y-79778495D01*
X161162925Y-79806031D01*
X161230107Y-79876209D01*
X161265321Y-79966758D01*
X161263202Y-80063890D01*
X161224074Y-80152818D01*
X161162928Y-80213965D01*
X161123603Y-80241501D01*
X160956504Y-80408600D01*
X160820965Y-80602169D01*
X160820961Y-80602177D01*
X160721098Y-80816333D01*
X160721094Y-80816344D01*
X160691472Y-80926896D01*
X160648502Y-81014032D01*
X160575457Y-81078090D01*
X160483458Y-81109320D01*
X160386511Y-81102965D01*
X160299375Y-81059995D01*
X160274887Y-81038520D01*
X159957246Y-80720879D01*
X159253416Y-80017048D01*
X159253412Y-80017045D01*
X159253410Y-80017043D01*
X159253411Y-80017043D01*
X159179732Y-79967815D01*
X159179729Y-79967812D01*
X159179729Y-79967813D01*
X159130495Y-79934916D01*
X158993913Y-79878342D01*
X158993911Y-79878341D01*
X158848920Y-79849500D01*
X158848918Y-79849500D01*
X121326082Y-79849500D01*
X121326074Y-79849500D01*
X121297244Y-79855234D01*
X121297245Y-79855235D01*
X121181090Y-79878340D01*
X121101135Y-79911459D01*
X121101134Y-79911458D01*
X121044509Y-79934913D01*
X121044502Y-79934917D01*
X120995271Y-79967811D01*
X120995270Y-79967813D01*
X120958427Y-79992430D01*
X120921582Y-80017049D01*
X119133500Y-81805131D01*
X119052718Y-81859107D01*
X118957430Y-81878061D01*
X118862142Y-81859107D01*
X118799465Y-81821540D01*
X118748215Y-81779480D01*
X118668538Y-81714090D01*
X118668539Y-81714090D01*
X118668536Y-81714088D01*
X118494733Y-81621188D01*
X118494725Y-81621185D01*
X118306131Y-81563975D01*
X118110000Y-81544659D01*
X117913868Y-81563975D01*
X117725274Y-81621185D01*
X117725266Y-81621188D01*
X117551463Y-81714088D01*
X117399120Y-81839114D01*
X117399114Y-81839120D01*
X117274088Y-81991463D01*
X117181188Y-82165266D01*
X117181185Y-82165274D01*
X117123975Y-82353868D01*
X117104659Y-82550000D01*
X117123975Y-82746131D01*
X117181185Y-82934725D01*
X117181188Y-82934733D01*
X117274088Y-83108536D01*
X117381540Y-83239465D01*
X117427339Y-83325148D01*
X117436862Y-83421835D01*
X117408660Y-83514807D01*
X117365131Y-83573499D01*
X116672062Y-84266569D01*
X116591280Y-84320546D01*
X116495992Y-84339500D01*
X116117772Y-84339500D01*
X116022484Y-84320546D01*
X115941702Y-84266570D01*
X115913803Y-84233320D01*
X115903498Y-84218603D01*
X115903497Y-84218602D01*
X115903495Y-84218599D01*
X115736401Y-84051505D01*
X115697074Y-84023967D01*
X115629891Y-83953789D01*
X115594678Y-83863240D01*
X115596797Y-83766108D01*
X115635925Y-83677181D01*
X115697073Y-83616032D01*
X115736401Y-83588495D01*
X115903495Y-83421401D01*
X116039035Y-83227830D01*
X116138903Y-83013663D01*
X116200063Y-82785408D01*
X116200064Y-82785401D01*
X116220659Y-82550005D01*
X116220659Y-82549994D01*
X116200064Y-82314598D01*
X116200063Y-82314595D01*
X116200063Y-82314592D01*
X116138903Y-82086337D01*
X116039035Y-81872171D01*
X116015890Y-81839117D01*
X115974131Y-81779478D01*
X115903495Y-81678599D01*
X115736401Y-81511505D01*
X115697074Y-81483967D01*
X115629891Y-81413789D01*
X115594678Y-81323240D01*
X115596797Y-81226108D01*
X115635925Y-81137181D01*
X115697073Y-81076032D01*
X115736401Y-81048495D01*
X115903495Y-80881401D01*
X116039035Y-80687830D01*
X116138903Y-80473663D01*
X116200063Y-80245408D01*
X116200064Y-80245401D01*
X116220659Y-80010005D01*
X116220659Y-80010000D01*
X117104659Y-80010000D01*
X117123975Y-80206131D01*
X117181185Y-80394725D01*
X117181188Y-80394733D01*
X117274088Y-80568536D01*
X117274090Y-80568538D01*
X117399117Y-80720883D01*
X117508870Y-80810955D01*
X117551463Y-80845911D01*
X117725266Y-80938811D01*
X117725270Y-80938812D01*
X117725273Y-80938814D01*
X117913868Y-80996024D01*
X118110000Y-81015341D01*
X118306132Y-80996024D01*
X118494727Y-80938814D01*
X118668538Y-80845910D01*
X118820883Y-80720883D01*
X118945910Y-80568538D01*
X119038814Y-80394727D01*
X119096024Y-80206132D01*
X119115341Y-80010000D01*
X119096024Y-79813868D01*
X119038814Y-79625273D01*
X119038812Y-79625270D01*
X119038811Y-79625266D01*
X118945911Y-79451463D01*
X118910955Y-79408870D01*
X118820883Y-79299117D01*
X118668538Y-79174090D01*
X118668539Y-79174090D01*
X118668536Y-79174088D01*
X118494733Y-79081188D01*
X118494725Y-79081185D01*
X118306131Y-79023975D01*
X118110000Y-79004659D01*
X117913868Y-79023975D01*
X117725274Y-79081185D01*
X117725266Y-79081188D01*
X117551463Y-79174088D01*
X117399120Y-79299114D01*
X117399114Y-79299120D01*
X117274088Y-79451463D01*
X117181188Y-79625266D01*
X117181185Y-79625274D01*
X117123975Y-79813868D01*
X117104659Y-80010000D01*
X116220659Y-80010000D01*
X116220659Y-80009994D01*
X116200064Y-79774598D01*
X116200063Y-79774595D01*
X116200063Y-79774592D01*
X116138903Y-79546337D01*
X116039035Y-79332171D01*
X116015890Y-79299117D01*
X115949051Y-79203660D01*
X115903495Y-79138599D01*
X115736401Y-78971505D01*
X115542830Y-78835965D01*
X115328663Y-78736097D01*
X115328660Y-78736096D01*
X115100401Y-78674935D01*
X114865005Y-78654341D01*
X114864995Y-78654341D01*
X114629598Y-78674935D01*
X114401335Y-78736097D01*
X114401333Y-78736098D01*
X114187177Y-78835961D01*
X114187169Y-78835965D01*
X113993600Y-78971504D01*
X113826504Y-79138600D01*
X113690965Y-79332169D01*
X113690961Y-79332177D01*
X113591098Y-79546333D01*
X113591097Y-79546335D01*
X113529935Y-79774598D01*
X113509341Y-80009994D01*
X113509341Y-80010005D01*
X113529935Y-80245401D01*
X113529936Y-80245404D01*
X113545649Y-80304046D01*
X113552003Y-80400993D01*
X113520773Y-80492991D01*
X113481203Y-80544560D01*
X112246286Y-81779478D01*
X112246284Y-81779480D01*
X112246283Y-81779479D01*
X112134483Y-81891280D01*
X112134481Y-81891283D01*
X112134480Y-81891284D01*
X112084360Y-81978095D01*
X112084359Y-81978094D01*
X112055424Y-82028212D01*
X112055422Y-82028215D01*
X112014499Y-82180943D01*
X112014499Y-82359122D01*
X112014500Y-82359135D01*
X112014500Y-91007645D01*
X112014499Y-91007663D01*
X112014499Y-91181037D01*
X112055421Y-91333761D01*
X112055422Y-91333764D01*
X112084357Y-91383880D01*
X112084360Y-91383884D01*
X112134480Y-91470696D01*
X112246284Y-91582500D01*
X112246286Y-91582501D01*
X127596571Y-106932788D01*
X127650546Y-107013568D01*
X127669500Y-107108856D01*
X127669500Y-107933236D01*
X127650546Y-108028524D01*
X127596570Y-108109306D01*
X127563321Y-108137203D01*
X127548463Y-108147608D01*
X127427890Y-108232032D01*
X127338962Y-108271159D01*
X127241830Y-108273278D01*
X127151282Y-108238064D01*
X127109002Y-108204131D01*
X118866156Y-99961286D01*
X118866155Y-99961284D01*
X118754351Y-99849480D01*
X118636879Y-99781658D01*
X118636880Y-99781658D01*
X118636878Y-99781657D01*
X118617419Y-99770422D01*
X118464692Y-99729499D01*
X118306578Y-99729499D01*
X118291317Y-99729499D01*
X118291301Y-99729500D01*
X113579782Y-99729500D01*
X113484494Y-99710546D01*
X113403712Y-99656570D01*
X113371327Y-99616690D01*
X113233165Y-99405216D01*
X113233163Y-99405214D01*
X113064751Y-99222269D01*
X113064747Y-99222265D01*
X113064744Y-99222262D01*
X113064738Y-99222257D01*
X112868514Y-99069529D01*
X112868510Y-99069526D01*
X112868509Y-99069526D01*
X112780630Y-99021968D01*
X112649811Y-98951172D01*
X112414621Y-98870430D01*
X112414610Y-98870428D01*
X112169335Y-98829500D01*
X111920665Y-98829500D01*
X111675389Y-98870428D01*
X111675378Y-98870430D01*
X111440177Y-98951176D01*
X111439506Y-98951471D01*
X111438985Y-98951585D01*
X111430450Y-98954516D01*
X111430115Y-98953540D01*
X111344629Y-98972384D01*
X111248970Y-98955397D01*
X111167094Y-98903096D01*
X111111466Y-98823443D01*
X111090553Y-98728566D01*
X111090500Y-98723437D01*
X111090500Y-65696874D01*
X111109454Y-65601586D01*
X111163428Y-65520806D01*
X113104799Y-63579434D01*
X113185581Y-63525459D01*
X113280869Y-63506505D01*
X113376157Y-63525459D01*
X113456939Y-63579435D01*
X113510915Y-63660217D01*
X113528921Y-63733801D01*
X113529937Y-63745408D01*
X113567267Y-63884727D01*
X113591096Y-63973660D01*
X113690965Y-64187830D01*
X113794652Y-64335911D01*
X113826505Y-64381401D01*
X113993599Y-64548495D01*
X114032925Y-64576031D01*
X114100107Y-64646209D01*
X114135321Y-64736758D01*
X114133202Y-64833890D01*
X114094074Y-64922818D01*
X114032928Y-64983965D01*
X113993603Y-65011501D01*
X113826504Y-65178600D01*
X113690965Y-65372169D01*
X113690961Y-65372177D01*
X113591098Y-65586333D01*
X113591097Y-65586335D01*
X113529935Y-65814598D01*
X113509341Y-66049994D01*
X113509341Y-66050005D01*
X113529935Y-66285401D01*
X113529937Y-66285408D01*
X113591097Y-66513663D01*
X113690965Y-66727830D01*
X113826505Y-66921401D01*
X113993599Y-67088495D01*
X114187170Y-67224035D01*
X114401337Y-67323903D01*
X114629592Y-67385063D01*
X114629595Y-67385063D01*
X114629598Y-67385064D01*
X114864995Y-67405659D01*
X114865000Y-67405659D01*
X114865005Y-67405659D01*
X115100401Y-67385064D01*
X115100403Y-67385063D01*
X115100408Y-67385063D01*
X115328663Y-67323903D01*
X115542830Y-67224035D01*
X115736401Y-67088495D01*
X115903495Y-66921401D01*
X116039035Y-66727830D01*
X116138903Y-66513663D01*
X116200063Y-66285408D01*
X116220659Y-66050000D01*
X116220659Y-66049994D01*
X116200064Y-65814598D01*
X116200063Y-65814595D01*
X116200063Y-65814592D01*
X116138903Y-65586337D01*
X116039035Y-65372171D01*
X115903495Y-65178599D01*
X115736401Y-65011505D01*
X115697074Y-64983967D01*
X115629891Y-64913789D01*
X115594678Y-64823240D01*
X115596797Y-64726108D01*
X115635925Y-64637181D01*
X115697073Y-64576032D01*
X115736401Y-64548495D01*
X115903495Y-64381401D01*
X116039035Y-64187830D01*
X116138903Y-63973663D01*
X116200063Y-63745408D01*
X116201079Y-63733801D01*
X116220659Y-63510005D01*
X116220659Y-63509994D01*
X116219785Y-63500000D01*
X117104659Y-63500000D01*
X117123975Y-63696131D01*
X117181185Y-63884725D01*
X117181188Y-63884733D01*
X117274088Y-64058536D01*
X117274090Y-64058538D01*
X117399117Y-64210883D01*
X117407532Y-64217789D01*
X117551463Y-64335911D01*
X117725266Y-64428811D01*
X117725270Y-64428812D01*
X117725273Y-64428814D01*
X117913868Y-64486024D01*
X118110000Y-64505341D01*
X118306132Y-64486024D01*
X118494727Y-64428814D01*
X118583431Y-64381401D01*
X118668536Y-64335911D01*
X118668535Y-64335911D01*
X118668538Y-64335910D01*
X118820883Y-64210883D01*
X118945910Y-64058538D01*
X119038814Y-63884727D01*
X119096024Y-63696132D01*
X119115341Y-63500000D01*
X119096024Y-63303868D01*
X119038814Y-63115273D01*
X119038812Y-63115270D01*
X119038811Y-63115266D01*
X118945911Y-62941463D01*
X118820885Y-62789120D01*
X118820883Y-62789117D01*
X118668538Y-62664090D01*
X118668539Y-62664090D01*
X118668536Y-62664088D01*
X118494733Y-62571188D01*
X118494725Y-62571185D01*
X118306131Y-62513975D01*
X118110000Y-62494659D01*
X117913868Y-62513975D01*
X117725274Y-62571185D01*
X117725266Y-62571188D01*
X117551463Y-62664088D01*
X117399120Y-62789114D01*
X117399114Y-62789120D01*
X117274088Y-62941463D01*
X117181188Y-63115266D01*
X117181185Y-63115274D01*
X117123975Y-63303868D01*
X117104659Y-63500000D01*
X116219785Y-63500000D01*
X116200064Y-63274604D01*
X116200063Y-63274592D01*
X116184349Y-63215949D01*
X116177996Y-63119006D01*
X116209226Y-63027007D01*
X116248792Y-62975442D01*
X116495520Y-62728716D01*
X116574577Y-62591784D01*
X116615501Y-62439057D01*
X116615501Y-62280942D01*
X116615501Y-62265682D01*
X116615500Y-62265664D01*
X116615500Y-61061997D01*
X116634454Y-60966709D01*
X116639830Y-60958662D01*
X117089169Y-60958662D01*
X117094546Y-60966709D01*
X117112301Y-61037591D01*
X117123975Y-61156131D01*
X117181185Y-61344725D01*
X117181188Y-61344733D01*
X117274088Y-61518536D01*
X117274090Y-61518538D01*
X117399117Y-61670883D01*
X117508870Y-61760955D01*
X117551463Y-61795911D01*
X117725266Y-61888811D01*
X117725270Y-61888812D01*
X117725273Y-61888814D01*
X117913868Y-61946024D01*
X118110000Y-61965341D01*
X118306132Y-61946024D01*
X118494727Y-61888814D01*
X118668538Y-61795910D01*
X118820883Y-61670883D01*
X118945910Y-61518538D01*
X119038814Y-61344727D01*
X119096024Y-61156132D01*
X119115341Y-60960000D01*
X119096024Y-60763868D01*
X119038814Y-60575273D01*
X119038812Y-60575270D01*
X119038811Y-60575266D01*
X118945911Y-60401463D01*
X118831349Y-60261870D01*
X118820883Y-60249117D01*
X118669573Y-60124939D01*
X118668536Y-60124088D01*
X118494733Y-60031188D01*
X118494725Y-60031185D01*
X118306131Y-59973975D01*
X118110000Y-59954659D01*
X117913868Y-59973975D01*
X117725274Y-60031185D01*
X117725266Y-60031188D01*
X117551463Y-60124088D01*
X117399120Y-60249114D01*
X117399114Y-60249120D01*
X117274088Y-60401463D01*
X117181188Y-60575266D01*
X117181185Y-60575274D01*
X117123975Y-60763868D01*
X117112301Y-60882408D01*
X117089169Y-60958662D01*
X116639830Y-60958662D01*
X116640697Y-60957364D01*
X116626222Y-60930283D01*
X116615500Y-60858002D01*
X116615500Y-60592790D01*
X116615501Y-60592777D01*
X116615501Y-60414597D01*
X116574577Y-60261871D01*
X116574575Y-60261866D01*
X116546992Y-60214091D01*
X116495520Y-60124938D01*
X115836061Y-59465480D01*
X115836059Y-59465477D01*
X115836059Y-59465478D01*
X115821867Y-59451286D01*
X115821866Y-59451284D01*
X115710062Y-59339480D01*
X115623252Y-59289361D01*
X115623249Y-59289358D01*
X115573130Y-59260422D01*
X115573127Y-59260421D01*
X115420403Y-59219499D01*
X115262289Y-59219499D01*
X115247028Y-59219499D01*
X115247012Y-59219500D01*
X114482989Y-59219500D01*
X114482973Y-59219499D01*
X114467712Y-59219499D01*
X114309597Y-59219499D01*
X114221418Y-59243126D01*
X114156872Y-59260422D01*
X114156869Y-59260423D01*
X114019939Y-59339479D01*
X114019938Y-59339480D01*
X109721286Y-63638132D01*
X109721284Y-63638134D01*
X109721283Y-63638133D01*
X109609481Y-63749936D01*
X109609480Y-63749937D01*
X109579519Y-63801833D01*
X109579518Y-63801835D01*
X109530422Y-63886869D01*
X109489499Y-64039597D01*
X109489499Y-64217776D01*
X109489500Y-64217789D01*
X109489500Y-100826250D01*
X109489499Y-100826268D01*
X109489499Y-100999642D01*
X109530421Y-101152366D01*
X109530422Y-101152369D01*
X109559357Y-101202485D01*
X109559360Y-101202489D01*
X109609480Y-101289301D01*
X109721284Y-101401105D01*
X109721286Y-101401106D01*
X111558893Y-103238713D01*
X111558895Y-103238716D01*
X111670699Y-103350520D01*
X111757506Y-103400637D01*
X111757509Y-103400639D01*
X111807623Y-103429573D01*
X111807630Y-103429577D01*
X111929296Y-103462177D01*
X111960354Y-103470499D01*
X111960356Y-103470500D01*
X111960358Y-103470500D01*
X112118472Y-103470500D01*
X117145244Y-103470500D01*
X117240532Y-103489454D01*
X117321314Y-103543430D01*
X117375290Y-103624212D01*
X117394244Y-103719500D01*
X117380271Y-103801735D01*
X117353455Y-103878374D01*
X117324632Y-103960746D01*
X117324630Y-103960754D01*
X117319735Y-104004201D01*
X117290232Y-104096768D01*
X117248371Y-104152392D01*
X113515849Y-107884914D01*
X113435067Y-107938890D01*
X113339779Y-107957844D01*
X113275337Y-107949361D01*
X113256693Y-107944365D01*
X113256679Y-107944363D01*
X113030006Y-107924532D01*
X113029994Y-107924532D01*
X112803320Y-107944363D01*
X112803305Y-107944365D01*
X112583503Y-108003261D01*
X112583500Y-108003262D01*
X112377272Y-108099428D01*
X112377258Y-108099436D01*
X112190865Y-108229949D01*
X112029949Y-108390865D01*
X111963969Y-108485096D01*
X111893788Y-108552280D01*
X111803239Y-108587493D01*
X111706107Y-108585374D01*
X111617180Y-108546245D01*
X111556031Y-108485096D01*
X111490050Y-108390865D01*
X111490049Y-108390864D01*
X111490047Y-108390861D01*
X111329139Y-108229953D01*
X111329135Y-108229950D01*
X111329134Y-108229949D01*
X111142741Y-108099436D01*
X111142727Y-108099428D01*
X110936499Y-108003262D01*
X110936496Y-108003261D01*
X110716694Y-107944365D01*
X110716679Y-107944363D01*
X110490006Y-107924532D01*
X110489994Y-107924532D01*
X110263320Y-107944363D01*
X110263305Y-107944365D01*
X110043503Y-108003261D01*
X110043500Y-108003262D01*
X109837272Y-108099428D01*
X109837258Y-108099436D01*
X109650865Y-108229949D01*
X109489949Y-108390865D01*
X109423969Y-108485096D01*
X109353788Y-108552280D01*
X109263239Y-108587493D01*
X109166107Y-108585374D01*
X109077180Y-108546245D01*
X109016031Y-108485096D01*
X108950050Y-108390865D01*
X108950049Y-108390864D01*
X108950047Y-108390861D01*
X108789139Y-108229953D01*
X108789135Y-108229950D01*
X108789134Y-108229949D01*
X108602741Y-108099436D01*
X108602727Y-108099428D01*
X108396499Y-108003262D01*
X108396496Y-108003261D01*
X108176694Y-107944365D01*
X108176679Y-107944363D01*
X107950006Y-107924532D01*
X107949994Y-107924532D01*
X107723320Y-107944363D01*
X107723305Y-107944365D01*
X107503503Y-108003261D01*
X107503500Y-108003262D01*
X107297272Y-108099428D01*
X107297258Y-108099436D01*
X107110865Y-108229949D01*
X106949949Y-108390865D01*
X106819436Y-108577258D01*
X106819428Y-108577272D01*
X106723262Y-108783500D01*
X106723261Y-108783503D01*
X106664365Y-109003305D01*
X106664363Y-109003320D01*
X106644532Y-109229994D01*
X106644532Y-109230005D01*
X106664363Y-109456679D01*
X106664365Y-109456694D01*
X106723261Y-109676496D01*
X106723262Y-109676499D01*
X106819428Y-109882727D01*
X106819436Y-109882741D01*
X106932003Y-110043504D01*
X106949953Y-110069139D01*
X107110861Y-110230047D01*
X107110864Y-110230049D01*
X107110865Y-110230050D01*
X107297258Y-110360563D01*
X107297262Y-110360565D01*
X107297266Y-110360568D01*
X107503504Y-110456739D01*
X107723308Y-110515635D01*
X107742984Y-110517356D01*
X107949994Y-110535468D01*
X107950000Y-110535468D01*
X107950006Y-110535468D01*
X108138287Y-110518995D01*
X108176692Y-110515635D01*
X108203221Y-110508526D01*
X108300160Y-110502170D01*
X108392160Y-110533397D01*
X108443736Y-110572971D01*
X108546570Y-110675805D01*
X108600546Y-110756587D01*
X108619500Y-110851875D01*
X108619500Y-122978511D01*
X108600546Y-123073799D01*
X108546570Y-123154581D01*
X108465788Y-123208557D01*
X108370500Y-123227511D01*
X108306056Y-123219027D01*
X108176697Y-123184366D01*
X108176693Y-123184365D01*
X108176692Y-123184365D01*
X108176689Y-123184364D01*
X108176679Y-123184363D01*
X107950006Y-123164532D01*
X107949994Y-123164532D01*
X107723320Y-123184363D01*
X107723305Y-123184365D01*
X107503503Y-123243261D01*
X107503500Y-123243262D01*
X107297272Y-123339428D01*
X107297258Y-123339436D01*
X107110865Y-123469949D01*
X106949949Y-123630865D01*
X106819436Y-123817258D01*
X106819428Y-123817272D01*
X106723262Y-124023500D01*
X106723261Y-124023503D01*
X106664365Y-124243305D01*
X106664363Y-124243320D01*
X106644532Y-124469994D01*
X106644532Y-124470005D01*
X104450500Y-124470005D01*
X104450500Y-57905432D01*
X104450737Y-57894571D01*
X104460433Y-57672498D01*
X104467148Y-57518691D01*
X104469038Y-57497084D01*
X104517439Y-57129443D01*
X104521211Y-57108056D01*
X104601468Y-56746037D01*
X104607079Y-56725097D01*
X104718591Y-56371425D01*
X104726006Y-56351052D01*
X104867914Y-56008456D01*
X104877085Y-55988791D01*
X105048302Y-55659888D01*
X105059153Y-55641090D01*
X105258393Y-55328345D01*
X105270829Y-55310585D01*
X105496578Y-55016383D01*
X105510516Y-54999773D01*
X105761035Y-54726380D01*
X105776380Y-54711035D01*
X106049773Y-54460516D01*
X106066383Y-54446578D01*
X106360585Y-54220829D01*
X106378345Y-54208393D01*
X106691090Y-54009153D01*
X106709888Y-53998302D01*
X107038791Y-53827085D01*
X107058456Y-53817914D01*
X107401052Y-53676006D01*
X107421425Y-53668591D01*
X107775097Y-53557079D01*
X107796037Y-53551468D01*
X108158057Y-53471210D01*
X108179443Y-53467439D01*
X108547084Y-53419038D01*
X108568691Y-53417148D01*
X108944572Y-53400737D01*
X108955433Y-53400500D01*
X109015892Y-53400500D01*
X167984108Y-53400500D01*
X168044567Y-53400500D01*
X168055428Y-53400737D01*
G37*
%TD.AperFunction*%
%TD*%
M02*
