M48
; DRILL file {KiCad 8.0.1} date 2024-08-24T13:25:48+0100
; FORMAT={-:-/ absolute / metric / decimal}
; #@! TF.CreationDate,2024-08-24T13:25:48+01:00
; #@! TF.GenerationSoftware,Kicad,Pcbnew,8.0.1
; #@! TF.FileFunction,Plated,1,2,PTH
FMAT,2
METRIC
; #@! TA.AperFunction,Plated,PTH,ViaDrill
T1C0.300
; #@! TA.AperFunction,Plated,PTH,ComponentDrill
T2C0.500
; #@! TA.AperFunction,Plated,PTH,ComponentDrill
T3C0.700
; #@! TA.AperFunction,Plated,PTH,ComponentDrill
T4C0.750
; #@! TA.AperFunction,Plated,PTH,ComponentDrill
T5C0.800
; #@! TA.AperFunction,Plated,PTH,ComponentDrill
T6C1.000
; #@! TA.AperFunction,Plated,PTH,ComponentDrill
T7C1.100
; #@! TA.AperFunction,Plated,PTH,ComponentDrill
T8C1.600
; #@! TA.AperFunction,Plated,PTH,ComponentDrill
T9C2.700
%
G90
G05
T1
X114.3Y-115.57
X115.8Y-121.8
X118.593Y-106.607
X118.607Y-105.6
X120.0Y-127.8
X121.2Y-122.6
X121.92Y-113.03
X124.275Y-125.419
X124.4Y-131.0
X126.2Y-87.6
X126.2Y-90.2
X126.2Y-92.8
X128.2Y-111.8
X128.2Y-129.2
X128.4Y-133.4
X134.6Y-116.8
X135.6Y-131.8
X139.468Y-132.6
X143.8Y-129.8
X146.05Y-116.84
X155.8Y-108.0
X155.8Y-111.8
X155.8Y-114.2
X155.8Y-116.8
X160.0Y-118.2
X160.4Y-103.0
X160.4Y-105.4
X160.4Y-108.0
X160.4Y-110.4
X160.4Y-113.0
X160.4Y-115.4
T2
X118.11Y-60.96
X118.11Y-63.5
X118.11Y-80.01
X118.11Y-82.55
X124.422Y-86.322
X124.422Y-88.862
X124.422Y-91.402
X124.422Y-93.942
X133.35Y-128.27
X133.35Y-130.81
X133.35Y-133.35
X133.35Y-135.89
X141.284Y-130.783
X149.822Y-86.322
X149.822Y-88.862
X149.822Y-91.402
X149.822Y-93.942
X156.524Y-131.418
X158.6Y-84.8
X158.6Y-87.4
T3
X166.37Y-149.86
X168.91Y-149.86
T4
X146.364Y-131.418
X146.364Y-132.688
X146.364Y-133.958
X153.349Y-131.418
X153.349Y-132.688
X153.349Y-133.958
T5
X150.6Y-101.52
X150.6Y-104.06
X150.6Y-106.6
X150.6Y-109.14
X150.6Y-111.68
X150.6Y-114.22
X150.6Y-116.76
X150.6Y-119.3
X158.22Y-101.52
X158.22Y-104.06
X158.22Y-106.6
X158.22Y-109.14
X158.22Y-111.68
X158.22Y-114.22
X158.22Y-116.76
X158.22Y-119.3
T6
X107.95Y-109.23
X107.95Y-124.47
X109.22Y-139.7
X109.22Y-142.24
X109.22Y-144.78
X110.49Y-109.23
X110.49Y-124.47
X113.03Y-109.23
X113.03Y-124.47
X114.8Y-58.46
X114.8Y-61.0
X114.8Y-63.54
X114.8Y-66.08
X114.8Y-77.46
X114.8Y-80.0
X114.8Y-82.54
X114.8Y-85.08
X114.8Y-87.62
X114.8Y-90.16
X115.57Y-109.23
X115.57Y-124.47
X118.11Y-109.23
X118.11Y-124.47
X120.65Y-109.23
X120.65Y-124.47
X123.19Y-109.23
X123.19Y-124.47
X125.73Y-109.23
X125.73Y-124.47
X128.232Y-86.322
X128.232Y-88.862
X128.232Y-91.402
X128.232Y-93.942
X128.232Y-96.482
X128.232Y-99.022
X128.27Y-109.23
X128.27Y-124.47
X130.81Y-109.23
X130.81Y-124.47
X132.08Y-83.82
X133.35Y-109.23
X133.35Y-124.47
X134.62Y-83.82
X135.89Y-109.23
X135.89Y-124.47
X137.16Y-83.82
X138.43Y-109.23
X138.43Y-124.47
X139.7Y-83.82
X140.97Y-109.23
X140.97Y-124.47
X142.24Y-83.82
X143.51Y-109.23
X143.51Y-124.47
X146.012Y-86.322
X146.012Y-88.862
X146.012Y-91.402
X146.012Y-93.942
X146.012Y-96.482
X146.012Y-99.022
X148.59Y-144.25
X151.13Y-144.25
X153.67Y-144.25
X156.21Y-144.25
X158.75Y-144.25
X162.0Y-77.2
X162.0Y-79.74
X162.0Y-82.28
X162.0Y-84.82
X162.0Y-87.36
X162.0Y-89.9
X162.56Y-101.6
X162.56Y-104.14
X162.56Y-106.68
X162.56Y-109.22
X162.56Y-111.76
X162.56Y-114.3
X162.56Y-116.84
X162.56Y-119.38
X162.56Y-121.92
X167.64Y-139.7
X167.64Y-142.24
X167.64Y-144.78
X168.91Y-128.27
X168.91Y-130.81
X168.91Y-133.35
T7
X106.395Y-100.33
X112.045Y-100.33
T8
X118.163Y-132.179
X122.227Y-132.179
X122.227Y-134.79
X126.291Y-132.179
X126.291Y-134.79
X130.355Y-132.179
X130.355Y-134.79
T9
X114.0Y-72.0
X114.0Y-130.0
X163.0Y-72.0
X163.0Y-130.0
M30
