M48
; DRILL file {KiCad 8.0.4} date 2024-09-06T19:17:08+0100
; FORMAT={-:-/ absolute / inch / decimal}
; #@! TF.CreationDate,2024-09-06T19:17:08+01:00
; #@! TF.GenerationSoftware,Kicad,Pcbnew,8.0.4
; #@! TF.FileFunction,Plated,1,2,PTH
FMAT,2
INCH
; #@! TA.AperFunction,Plated,PTH,ViaDrill
T1C0.0118
; #@! TA.AperFunction,Plated,PTH,ComponentDrill
T2C0.0197
; #@! TA.AperFunction,Plated,PTH,ComponentDrill
T3C0.0276
; #@! TA.AperFunction,Plated,PTH,ComponentDrill
T4C0.0295
; #@! TA.AperFunction,Plated,PTH,ComponentDrill
T5C0.0315
; #@! TA.AperFunction,Plated,PTH,ComponentDrill
T6C0.0394
; #@! TA.AperFunction,Plated,PTH,ComponentDrill
T7C0.0433
; #@! TA.AperFunction,Plated,PTH,ComponentDrill
T8C0.0630
; #@! TA.AperFunction,Plated,PTH,ComponentDrill
T9C0.1063
%
G90
G05
T1
X4.45Y-3.8
X4.5Y-4.55
X4.5591Y-4.7953
X4.5843Y-3.8835
X4.6181Y-3.8839
X4.669Y-4.1971
X4.6696Y-4.1575
X4.7244Y-5.0315
X4.766Y-4.1947
X4.7717Y-4.8268
X4.8Y-4.45
X4.8927Y-4.9378
X4.8976Y-5.1575
X4.9685Y-3.4488
X4.9685Y-3.5512
X4.9685Y-3.6535
X5.0472Y-4.4016
X5.0472Y-5.0866
X5.0551Y-5.252
X5.2992Y-4.5984
X5.3386Y-5.189
X5.4909Y-5.2205
X5.65Y-3.2
X5.6614Y-5.1102
X5.75Y-4.6
X5.85Y-4.2
X6.05Y-4.15
X6.05Y-4.9
X6.075Y-4.925
X6.3Y-4.15
X6.3Y-4.3465
X6.3Y-4.55
T2
X4.65Y-2.4
X4.65Y-2.5
X4.65Y-3.35
X4.65Y-3.45
X4.8985Y-3.3985
X4.8985Y-3.4985
X4.8985Y-3.5985
X4.8985Y-3.6985
X5.25Y-5.05
X5.25Y-5.15
X5.25Y-5.25
X5.25Y-5.35
X5.5624Y-5.1489
X5.8985Y-3.3985
X5.8985Y-3.4985
X5.8985Y-3.5985
X5.8985Y-3.6985
X6.1624Y-5.1739
X6.25Y-3.15
X6.25Y-3.25
T3
X6.55Y-5.9
X6.65Y-5.9
T4
X5.7624Y-5.1739
X5.7624Y-5.2239
X5.7624Y-5.2739
X6.0374Y-5.1739
X6.0374Y-5.2239
X6.0374Y-5.2739
T5
X5.9291Y-3.9969
X5.9291Y-4.0969
X5.9291Y-4.1969
X5.9291Y-4.2969
X5.9291Y-4.3969
X5.9291Y-4.4969
X5.9291Y-4.5969
X5.9291Y-4.6969
X6.2291Y-3.9969
X6.2291Y-4.0969
X6.2291Y-4.1969
X6.2291Y-4.2969
X6.2291Y-4.3969
X6.2291Y-4.4969
X6.2291Y-4.5969
X6.2291Y-4.6969
T6
X4.25Y-4.3004
X4.25Y-4.9004
X4.3Y-5.5
X4.3Y-5.6
X4.3Y-5.7
X4.35Y-4.3004
X4.35Y-4.9004
X4.45Y-4.3004
X4.45Y-4.9004
X4.5Y-3.05
X4.5Y-3.15
X4.5Y-3.25
X4.5Y-3.35
X4.5Y-3.45
X4.5Y-3.55
X4.5197Y-2.3016
X4.5197Y-2.4016
X4.5197Y-2.5016
X4.5197Y-2.6016
X4.55Y-4.3004
X4.55Y-4.9004
X4.65Y-4.3004
X4.65Y-4.9004
X4.75Y-4.3004
X4.75Y-4.9004
X4.85Y-4.3004
X4.85Y-4.9004
X4.95Y-4.3004
X4.95Y-4.9004
X5.0485Y-3.3985
X5.0485Y-3.4985
X5.0485Y-3.5985
X5.0485Y-3.6985
X5.0485Y-3.7985
X5.0485Y-3.8985
X5.05Y-4.3004
X5.05Y-4.9004
X5.15Y-4.3004
X5.15Y-4.9004
X5.2Y-3.3
X5.25Y-4.3004
X5.25Y-4.9004
X5.3Y-3.3
X5.35Y-4.3004
X5.35Y-4.9004
X5.4Y-3.3
X5.45Y-4.3004
X5.45Y-4.9004
X5.5Y-3.3
X5.55Y-4.3004
X5.55Y-4.9004
X5.6Y-3.3
X5.65Y-4.3004
X5.65Y-4.9004
X5.7485Y-3.3985
X5.7485Y-3.4985
X5.7485Y-3.5985
X5.7485Y-3.6985
X5.7485Y-3.7985
X5.7485Y-3.8985
X5.85Y-5.6791
X5.95Y-5.6791
X6.05Y-5.6791
X6.15Y-5.6791
X6.25Y-5.6791
X6.4Y-3.05
X6.4Y-3.15
X6.4Y-3.25
X6.4Y-3.35
X6.4Y-3.45
X6.4Y-3.55
X6.4Y-4.0
X6.4Y-4.1
X6.4Y-4.2
X6.4Y-4.3
X6.4Y-4.4
X6.4Y-4.5
X6.4Y-4.6
X6.4Y-4.7
X6.4Y-4.8
X6.6Y-5.5
X6.6Y-5.6
X6.6Y-5.7
X6.65Y-5.05
X6.65Y-5.15
X6.65Y-5.25
T7
X4.1888Y-3.95
X4.4112Y-3.95
T8
X4.6521Y-5.2039
X4.8121Y-5.2039
X4.8121Y-5.3067
X4.9721Y-5.2039
X4.9721Y-5.3067
X5.1321Y-5.2039
X5.1321Y-5.3067
T9
X4.4882Y-2.8346
X4.4882Y-5.1181
X6.4173Y-2.8346
X6.4173Y-5.1181
M30
